<svg xmlns="http://www.w3.org/2000/svg" width="250" height="57" viewBox="0 0 250 57"><defs><style>.cls-1{fill:#161315;}</style></defs><g id="Animated_items" data-name="Animated items"><g id="skeleton_female_2" data-name="skeleton female 2"><path class="cls-1" d="M15.08,34.36s-28.35-7.07,1.71-26A22.36,22.36,0,0,1,23,5.63C29.5,4,44.05.94,56,4c6.16,1.55,10.86,5.61,12.54,10.73,1.42,4.3,1.89,10-2.42,15.17,0,0,24.6,3.75,4.56,11.26l.91,10.51S67,55,63.83,50.67c0,0-3.19,5.46-8.66.21,0,0-3.65,6-8.2,0,0,0-2.73,6.75-7.29,0,0,0-3.58,6.56-9.53.28,0,0-4.14,6.47-9.6.47V44.87S-2.23,45.62,15.08,34.36Z"/><path class="cls-1" d="M32.38,11h0a1.61,1.61,0,0,1,3,.65h0A1.66,1.66,0,0,0,37.72,13h0a1.64,1.64,0,0,1,2.13,2.27h0A1.66,1.66,0,0,0,41,17.67h0a1.6,1.6,0,0,1,.45,3h0A1.56,1.56,0,0,0,41,23.26h0a1.54,1.54,0,0,1-1.42,2.63h0a1.51,1.51,0,0,0-1.87,1.74h0A1.55,1.55,0,0,1,35,28.86h0a1.57,1.57,0,0,0-2.6.26h0a1.61,1.61,0,0,1-3-.65h0a1.66,1.66,0,0,0-2.33-1.32h0a1.66,1.66,0,0,1-2.14-2.28h0a1.64,1.64,0,0,0-1.16-2.39h0a1.6,1.6,0,0,1-.45-3h0a1.56,1.56,0,0,0,.43-2.56h0a1.54,1.54,0,0,1,1.42-2.63h0a1.51,1.51,0,0,0,1.87-1.74h0a1.55,1.55,0,0,1,2.73-1.23h0A1.58,1.58,0,0,0,32.38,11Z"/><path class="cls-1" d="M50.6,9.53h0a1.61,1.61,0,0,1,3,.65h0a1.66,1.66,0,0,0,2.33,1.32h0a1.65,1.65,0,0,1,2.14,2.27h0a1.65,1.65,0,0,0,1.17,2.4h0a1.6,1.6,0,0,1,.44,3h0a1.56,1.56,0,0,0-.43,2.56h0a1.54,1.54,0,0,1-1.41,2.63h0A1.51,1.51,0,0,0,56,26.13h0a1.55,1.55,0,0,1-2.73,1.23h0a1.57,1.57,0,0,0-2.6.26h0a1.62,1.62,0,0,1-3-.65h0a1.66,1.66,0,0,0-2.33-1.32h0a1.65,1.65,0,0,1-2.13-2.28h0A1.64,1.64,0,0,0,42,21h0a1.6,1.6,0,0,1-.45-3h0A1.56,1.56,0,0,0,42,15.39h0a1.54,1.54,0,0,1,1.41-2.63h0A1.51,1.51,0,0,0,45.27,11h0A1.55,1.55,0,0,1,48,9.79h0A1.57,1.57,0,0,0,50.6,9.53Z"/><path class="cls-1" d="M23.28,35.86s-10-3-6.38,3c0,0,3.65,4.5,7.29,4.5a20.87,20.87,0,0,0,6-5.6C32.39,34.36,28.75,31.36,23.28,35.86Z"/><path class="cls-1" d="M64.25,32.92s-8.63-5.16-7.14,1.44c0,0,2,5.16,5.51,6a24.14,24.14,0,0,0,7.6-4C73.51,33.55,71,29.83,64.25,32.92Z"/><path class="cls-1" d="M38.06,33.49s2.11-3.62,4.88-5a16,16,0,0,1,4.78,2.45,14.19,14.19,0,0,0,1.17,1c.77.57,1.9,1.64,1.61,2.88,0,0,.19,3-6.13.83,0,0-6.16,2.68-6.63.31C37.74,35.93,37.39,34.18,38.06,33.49Z"/><ellipse class="cls-1" cx="32.85" cy="19.73" rx="6.34" ry="6.79" transform="translate(-4.58 11.51) rotate(-18.6)"/><ellipse class="cls-1" cx="51.07" cy="18.23" rx="6.34" ry="6.79" transform="matrix(0.95, -0.32, 0.32, 0.95, -3.15, 17.24)"/><path class="cls-1" d="M19.24,15.09a.59.59,0,0,1-1,.12c-1-1-2.73-3.05-2.75-3.53,0-.64,2.39-2.5,4.29-.76a.58.58,0,0,1,.18.42A11.68,11.68,0,0,1,19.24,15.09Z"/><path class="cls-1" d="M14.66,19.26c.36.25.24.68-.21.78a24.69,24.69,0,0,1-5,.86,1.94,1.94,0,0,1,.67-3.57.83.83,0,0,1,.54,0A18.11,18.11,0,0,1,14.66,19.26Z"/><path class="cls-1" d="M16.21,16.49c.11.37-.29.66-.73.53-1.48-.45-4.3-1.33-4.63-1.73s.35-3.17,3.09-2.56a.76.76,0,0,1,.43.28A12.43,12.43,0,0,1,16.21,16.49Z"/><path class="cls-1" d="M60.5,15.18a.42.42,0,0,1,0-.8c1.4-.61,4.09-1.74,4.67-1.68.77.08,2.62,2.33.24,3.61a.91.91,0,0,1-.54.07A19.39,19.39,0,0,1,60.5,15.18Z"/><path class="cls-1" d="M56.22,10.8a.56.56,0,0,1-.9-.29c-.19-1.3-.52-3.77-.24-4.2s3.58-1.17,4.17,1.11a.51.51,0,0,1-.1.44A14.73,14.73,0,0,1,56.22,10.8Z"/><path class="cls-1" d="M59.3,12.49c-.46,0-.74-.34-.52-.67.77-1.14,2.28-3.29,2.81-3.5.7-.28,3.73.78,2.57,2.92a.66.66,0,0,1-.4.3A19.16,19.16,0,0,1,59.3,12.49Z"/><path class="cls-1" d="M98.08,34.36s-28.35-7.07,1.71-26A22.36,22.36,0,0,1,106,5.63C112.5,4,127.05.94,139,4c6.16,1.55,10.86,5.61,12.54,10.73,1.42,4.3,1.89,10-2.42,15.17,0,0,24.6,3.75,4.56,11.26l.91,10.51s-4.55,3.35-7.74-1c0,0-3.19,5.46-8.66.21,0,0-3.65,6-8.2,0,0,0-2.73,6.75-7.29,0,0,0-3.58,6.56-9.53.28,0,0-4.14,6.47-9.6.47V44.87S80.77,45.62,98.08,34.36Z"/><path class="cls-1" d="M115.38,11h0a1.61,1.61,0,0,1,3,.65h0A1.66,1.66,0,0,0,120.72,13h0a1.64,1.64,0,0,1,2.13,2.27h0a1.66,1.66,0,0,0,1.17,2.4h0a1.6,1.6,0,0,1,.45,3h0a1.56,1.56,0,0,0-.43,2.56h0a1.54,1.54,0,0,1-1.42,2.63h0a1.51,1.51,0,0,0-1.87,1.74h0A1.55,1.55,0,0,1,118,28.86h0a1.57,1.57,0,0,0-2.6.26h0a1.61,1.61,0,0,1-3-.65h0a1.66,1.66,0,0,0-2.33-1.32h0a1.66,1.66,0,0,1-2.14-2.28h0a1.64,1.64,0,0,0-1.16-2.39h0a1.6,1.6,0,0,1-.45-3h0a1.56,1.56,0,0,0,.43-2.56h0a1.54,1.54,0,0,1,1.42-2.63h0a1.51,1.51,0,0,0,1.87-1.74h0a1.55,1.55,0,0,1,2.73-1.23h0A1.58,1.58,0,0,0,115.38,11Z"/><path class="cls-1" d="M133.6,9.53h0a1.61,1.61,0,0,1,3,.65h0a1.66,1.66,0,0,0,2.33,1.32h0a1.65,1.65,0,0,1,2.14,2.27h0a1.65,1.65,0,0,0,1.17,2.4h0a1.6,1.6,0,0,1,.44,3h0a1.56,1.56,0,0,0-.43,2.56h0a1.54,1.54,0,0,1-1.41,2.63h0A1.51,1.51,0,0,0,139,26.13h0a1.55,1.55,0,0,1-2.73,1.23h0a1.57,1.57,0,0,0-2.6.26h0a1.62,1.62,0,0,1-3-.65h0a1.66,1.66,0,0,0-2.33-1.32h0a1.65,1.65,0,0,1-2.13-2.28h0A1.64,1.64,0,0,0,125,21h0a1.6,1.6,0,0,1-.45-3h0a1.56,1.56,0,0,0,.44-2.56h0a1.54,1.54,0,0,1,1.41-2.63h0A1.51,1.51,0,0,0,128.27,11h0A1.55,1.55,0,0,1,131,9.79h0A1.57,1.57,0,0,0,133.6,9.53Z"/><path class="cls-1" d="M106.28,35.86s-10-3-6.38,3c0,0,3.65,4.5,7.29,4.5a20.87,20.87,0,0,0,6-5.6C115.39,34.36,111.75,31.36,106.28,35.86Z"/><path class="cls-1" d="M147.25,32.92s-8.63-5.16-7.14,1.44c0,0,2,5.16,5.51,6a24.14,24.14,0,0,0,7.6-4C156.51,33.55,154,29.83,147.25,32.92Z"/><path class="cls-1" d="M121.06,33.49s2.11-3.62,4.88-5a16,16,0,0,1,4.78,2.45,14.19,14.19,0,0,0,1.17,1c.77.57,1.9,1.64,1.61,2.88,0,0,.19,3-6.13.83,0,0-6.16,2.68-6.63.31C120.74,35.93,120.39,34.18,121.06,33.49Z"/><ellipse class="cls-1" cx="115.85" cy="19.73" rx="6.34" ry="6.79" transform="translate(-0.24 37.98) rotate(-18.6)"/><ellipse class="cls-1" cx="134.07" cy="18.23" rx="6.34" ry="6.79" transform="matrix(0.95, -0.32, 0.32, 0.95, 1.19, 43.71)"/><path class="cls-1" d="M102.24,15.09a.59.59,0,0,1-1,.12c-1-1-2.73-3.05-2.75-3.53,0-.64,2.39-2.5,4.29-.76a.58.58,0,0,1,.18.42A11.68,11.68,0,0,1,102.24,15.09Z"/><path class="cls-1" d="M97.66,19.26c.36.25.24.68-.21.78a24.69,24.69,0,0,1-5,.86,1.94,1.94,0,0,1,.67-3.57.83.83,0,0,1,.54,0A18.11,18.11,0,0,1,97.66,19.26Z"/><path class="cls-1" d="M99.21,16.49c.11.37-.29.66-.73.53-1.48-.45-4.3-1.33-4.63-1.73s.35-3.17,3.09-2.56a.76.76,0,0,1,.43.28A12.43,12.43,0,0,1,99.21,16.49Z"/><path class="cls-1" d="M143.5,15.18a.42.42,0,0,1,0-.8c1.4-.61,4.09-1.74,4.67-1.68.77.08,2.62,2.33.24,3.61a.91.91,0,0,1-.54.07A19.39,19.39,0,0,1,143.5,15.18Z"/><path class="cls-1" d="M139.22,10.8a.56.56,0,0,1-.9-.29c-.19-1.3-.52-3.77-.24-4.2s3.58-1.17,4.17,1.11a.51.51,0,0,1-.1.44A14.73,14.73,0,0,1,139.22,10.8Z"/><path class="cls-1" d="M142.3,12.49c-.46,0-.74-.34-.52-.67.77-1.14,2.28-3.29,2.81-3.5.7-.28,3.73.78,2.57,2.92a.66.66,0,0,1-.4.3A19.16,19.16,0,0,1,142.3,12.49Z"/><path class="cls-1" d="M183.08,34.36s-28.35-7.07,1.71-26A22.36,22.36,0,0,1,191,5.63C197.5,4,212.05.94,224,4c6.16,1.55,10.86,5.61,12.54,10.73,1.42,4.3,1.89,10-2.42,15.17,0,0,24.6,3.75,4.56,11.26l.91,10.51s-4.55,3.35-7.74-1c0,0-3.19,5.46-8.66.21,0,0-3.65,6-8.2,0,0,0-2.73,6.75-7.29,0,0,0-3.58,6.56-9.53.28,0,0-4.14,6.47-9.6.47V44.87S165.77,45.62,183.08,34.36Z"/><path class="cls-1" d="M200.38,11h0a1.61,1.61,0,0,1,3,.65h0A1.66,1.66,0,0,0,205.72,13h0a1.64,1.64,0,0,1,2.13,2.27h0a1.66,1.66,0,0,0,1.17,2.4h0a1.6,1.6,0,0,1,.45,3h0a1.56,1.56,0,0,0-.43,2.56h0a1.54,1.54,0,0,1-1.42,2.63h0a1.51,1.51,0,0,0-1.87,1.74h0A1.55,1.55,0,0,1,203,28.86h0a1.57,1.57,0,0,0-2.6.26h0a1.61,1.61,0,0,1-3-.65h0a1.66,1.66,0,0,0-2.33-1.32h0a1.66,1.66,0,0,1-2.14-2.28h0a1.64,1.64,0,0,0-1.16-2.39h0a1.6,1.6,0,0,1-.45-3h0a1.56,1.56,0,0,0,.43-2.56h0a1.54,1.54,0,0,1,1.42-2.63h0a1.51,1.51,0,0,0,1.87-1.74h0a1.55,1.55,0,0,1,2.73-1.23h0A1.58,1.58,0,0,0,200.38,11Z"/><path class="cls-1" d="M218.6,9.53h0a1.61,1.61,0,0,1,3,.65h0a1.66,1.66,0,0,0,2.33,1.32h0a1.65,1.65,0,0,1,2.14,2.27h0a1.65,1.65,0,0,0,1.17,2.4h0a1.6,1.6,0,0,1,.44,3h0a1.56,1.56,0,0,0-.43,2.56h0a1.54,1.54,0,0,1-1.41,2.63h0A1.51,1.51,0,0,0,224,26.13h0a1.55,1.55,0,0,1-2.73,1.23h0a1.57,1.57,0,0,0-2.6.26h0a1.62,1.62,0,0,1-3-.65h0a1.66,1.66,0,0,0-2.33-1.32h0a1.65,1.65,0,0,1-2.13-2.28h0A1.64,1.64,0,0,0,210,21h0a1.6,1.6,0,0,1-.45-3h0a1.56,1.56,0,0,0,.44-2.56h0a1.54,1.54,0,0,1,1.41-2.63h0A1.51,1.51,0,0,0,213.27,11h0A1.55,1.55,0,0,1,216,9.79h0A1.57,1.57,0,0,0,218.6,9.53Z"/><path class="cls-1" d="M191.28,35.86s-10-3-6.38,3c0,0,3.65,4.5,7.29,4.5a20.87,20.87,0,0,0,6-5.6C200.39,34.36,196.75,31.36,191.28,35.86Z"/><path class="cls-1" d="M232.25,32.92s-8.63-5.16-7.14,1.44c0,0,2,5.16,5.51,6a24.14,24.14,0,0,0,7.6-4C241.51,33.55,239,29.83,232.25,32.92Z"/><path class="cls-1" d="M206.06,33.49s2.11-3.62,4.88-5a16,16,0,0,1,4.78,2.45,14.19,14.19,0,0,0,1.17,1c.77.57,1.9,1.64,1.61,2.88,0,0,.19,3-6.13.83,0,0-6.16,2.68-6.63.31C205.74,35.93,205.39,34.18,206.06,33.49Z"/><ellipse class="cls-1" cx="200.85" cy="19.73" rx="6.34" ry="6.79" transform="translate(4.2 65.09) rotate(-18.6)"/><ellipse class="cls-1" cx="219.07" cy="18.23" rx="6.34" ry="6.79" transform="matrix(0.95, -0.32, 0.32, 0.95, 5.63, 70.82)"/><path class="cls-1" d="M187.24,15.09a.59.59,0,0,1-1,.12c-.95-1-2.73-3.05-2.75-3.53,0-.64,2.39-2.5,4.29-.76a.58.58,0,0,1,.18.42A11.68,11.68,0,0,1,187.24,15.09Z"/><path class="cls-1" d="M182.66,19.26c.36.25.24.68-.21.78a24.69,24.69,0,0,1-5,.86,1.94,1.94,0,0,1,.67-3.57.83.83,0,0,1,.54,0A18.11,18.11,0,0,1,182.66,19.26Z"/><path class="cls-1" d="M184.21,16.49c.11.37-.29.66-.73.53-1.48-.45-4.3-1.33-4.63-1.73s.35-3.17,3.09-2.56a.76.76,0,0,1,.43.28A12.43,12.43,0,0,1,184.21,16.49Z"/><path class="cls-1" d="M228.5,15.18a.42.42,0,0,1,0-.8c1.4-.61,4.09-1.74,4.67-1.68.77.08,2.62,2.33.24,3.61a.91.91,0,0,1-.54.07A19.39,19.39,0,0,1,228.5,15.18Z"/><path class="cls-1" d="M224.22,10.8a.56.56,0,0,1-.9-.29c-.19-1.3-.52-3.77-.24-4.2s3.58-1.17,4.17,1.11a.51.51,0,0,1-.1.44A14.73,14.73,0,0,1,224.22,10.8Z"/><path class="cls-1" d="M227.3,12.49c-.46,0-.74-.34-.52-.67.77-1.14,2.28-3.29,2.81-3.5.7-.28,3.73.78,2.57,2.92a.66.66,0,0,1-.4.3A19.16,19.16,0,0,1,227.3,12.49Z"/></g></g></svg>