<svg xmlns="http://www.w3.org/2000/svg" width="250" height="57" viewBox="0 0 250 57"><defs><style>.cls-1{fill:#fff;}.cls-2{fill:#0b8414;}.cls-3{fill:#ea2199;}.cls-4{fill:#46a3e8;}</style></defs><g id="Animated_items" data-name="Animated items"><g id="skeleton_female_2" data-name="skeleton female 2"><path class="cls-1" d="M17.08,32.36s-28.35-7.07,1.71-26A22.36,22.36,0,0,1,25,3.63C31.5,2,46.05-1.06,58,2c6.16,1.55,10.86,5.61,12.54,10.73,1.42,4.3,1.89,10-2.42,15.17,0,0,24.6,3.75,4.56,11.26l.91,10.51S69,53,65.83,48.67c0,0-3.19,5.46-8.66.21,0,0-3.65,6-8.2,0,0,0-2.73,6.75-7.29,0,0,0-3.58,6.56-9.53.28,0,0-4.14,6.47-9.6.47V42.87S-.23,43.62,17.08,32.36Z"/><path class="cls-2" d="M34.38,9h0a1.61,1.61,0,0,1,3,.65h0A1.66,1.66,0,0,0,39.72,11h0a1.64,1.64,0,0,1,2.13,2.27h0A1.66,1.66,0,0,0,43,15.67h0a1.6,1.6,0,0,1,.45,3h0A1.56,1.56,0,0,0,43,21.26h0a1.54,1.54,0,0,1-1.42,2.63h0a1.51,1.51,0,0,0-1.87,1.74h0A1.55,1.55,0,0,1,37,26.86h0a1.57,1.57,0,0,0-2.6.26h0a1.61,1.61,0,0,1-3-.65h0a1.66,1.66,0,0,0-2.33-1.32h0a1.66,1.66,0,0,1-2.14-2.28h0a1.64,1.64,0,0,0-1.16-2.39h0a1.6,1.6,0,0,1-.45-3h0a1.56,1.56,0,0,0,.43-2.56h0a1.54,1.54,0,0,1,1.42-2.63h0a1.51,1.51,0,0,0,1.87-1.74h0a1.55,1.55,0,0,1,2.73-1.23h0A1.58,1.58,0,0,0,34.38,9Z"/><path class="cls-2" d="M52.6,7.53h0a1.61,1.61,0,0,1,3,.65h0A1.66,1.66,0,0,0,57.94,9.5h0a1.65,1.65,0,0,1,2.14,2.27h0a1.65,1.65,0,0,0,1.17,2.4h0a1.6,1.6,0,0,1,.44,3h0a1.56,1.56,0,0,0-.43,2.56h0a1.54,1.54,0,0,1-1.41,2.63h0A1.51,1.51,0,0,0,58,24.13h0a1.55,1.55,0,0,1-2.73,1.23h0a1.57,1.57,0,0,0-2.6.26h0a1.62,1.62,0,0,1-3-.65h0a1.66,1.66,0,0,0-2.33-1.32h0a1.65,1.65,0,0,1-2.13-2.28h0A1.64,1.64,0,0,0,44,19h0a1.6,1.6,0,0,1-.45-3h0A1.56,1.56,0,0,0,44,13.39h0a1.54,1.54,0,0,1,1.41-2.63h0A1.51,1.51,0,0,0,47.27,9h0A1.55,1.55,0,0,1,50,7.79h0A1.57,1.57,0,0,0,52.6,7.53Z"/><path class="cls-3" d="M25.28,33.86s-10-3-6.38,3c0,0,3.65,4.5,7.29,4.5a20.87,20.87,0,0,0,6-5.6C34.39,32.36,30.75,29.36,25.28,33.86Z"/><path class="cls-3" d="M66.25,30.92s-8.63-5.16-7.14,1.44c0,0,2,5.16,5.51,6a24.14,24.14,0,0,0,7.6-4C75.51,31.55,73,27.83,66.25,30.92Z"/><path d="M40.06,31.49s2.11-3.62,4.88-5a16,16,0,0,1,4.78,2.45,14.19,14.19,0,0,0,1.17,1c.77.57,1.9,1.64,1.61,2.88,0,0,.19,3-6.13.83,0,0-6.16,2.68-6.63.31C39.74,33.93,39.39,32.18,40.06,31.49Z"/><ellipse cx="34.85" cy="17.73" rx="6.34" ry="6.79" transform="translate(-3.83 12.04) rotate(-18.6)"/><ellipse cx="53.07" cy="16.23" rx="6.34" ry="6.79" transform="matrix(0.95, -0.32, 0.32, 0.95, -2.4, 17.77)"/><path class="cls-4" d="M21.24,13.09a.59.59,0,0,1-1,.12c-1-1-2.73-3.05-2.75-3.53,0-.64,2.39-2.5,4.29-.76a.58.58,0,0,1,.18.42A11.68,11.68,0,0,1,21.24,13.09Z"/><path class="cls-4" d="M16.66,17.26c.36.25.24.68-.21.78a24.69,24.69,0,0,1-5,.86,1.94,1.94,0,0,1,.67-3.57.83.83,0,0,1,.54,0A18.11,18.11,0,0,1,16.66,17.26Z"/><path class="cls-4" d="M18.21,14.49c.11.37-.29.66-.73.53-1.48-.45-4.3-1.33-4.63-1.73s.35-3.17,3.09-2.56a.76.76,0,0,1,.43.28A12.43,12.43,0,0,1,18.21,14.49Z"/><path class="cls-4" d="M62.5,13.18a.42.42,0,0,1,0-.8c1.4-.61,4.09-1.74,4.67-1.68.77.08,2.62,2.33.24,3.61a.91.91,0,0,1-.54.07A19.39,19.39,0,0,1,62.5,13.18Z"/><path class="cls-4" d="M58.22,8.8a.56.56,0,0,1-.9-.29c-.19-1.3-.52-3.77-.24-4.2s3.58-1.17,4.17,1.11a.51.51,0,0,1-.1.44A14.73,14.73,0,0,1,58.22,8.8Z"/><path class="cls-4" d="M61.3,10.49c-.46,0-.74-.34-.52-.67.77-1.14,2.28-3.29,2.81-3.5.7-.28,3.73.78,2.57,2.92a.66.66,0,0,1-.4.3A19.16,19.16,0,0,1,61.3,10.49Z"/><path class="cls-1" d="M100.08,32.36s-28.35-7.07,1.71-26A22.36,22.36,0,0,1,108,3.63C114.5,2,129.05-1.06,141,2c6.16,1.55,10.86,5.61,12.54,10.73,1.42,4.3,1.89,10-2.42,15.17,0,0,24.6,3.75,4.56,11.26l.91,10.51s-4.55,3.35-7.74-1c0,0-3.19,5.46-8.66.21,0,0-3.65,6-8.2,0,0,0-2.73,6.75-7.29,0,0,0-3.58,6.56-9.53.28,0,0-4.14,6.47-9.6.47V42.87S82.77,43.62,100.08,32.36Z"/><path class="cls-2" d="M117.38,9h0a1.61,1.61,0,0,1,3,.65h0A1.66,1.66,0,0,0,122.72,11h0a1.64,1.64,0,0,1,2.13,2.27h0a1.66,1.66,0,0,0,1.17,2.4h0a1.6,1.6,0,0,1,.45,3h0a1.56,1.56,0,0,0-.43,2.56h0a1.54,1.54,0,0,1-1.42,2.63h0a1.51,1.51,0,0,0-1.87,1.74h0A1.55,1.55,0,0,1,120,26.86h0a1.57,1.57,0,0,0-2.6.26h0a1.61,1.61,0,0,1-3-.65h0a1.66,1.66,0,0,0-2.33-1.32h0a1.66,1.66,0,0,1-2.14-2.28h0a1.64,1.64,0,0,0-1.16-2.39h0a1.6,1.6,0,0,1-.45-3h0a1.56,1.56,0,0,0,.43-2.56h0a1.54,1.54,0,0,1,1.42-2.63h0a1.51,1.51,0,0,0,1.87-1.74h0a1.55,1.55,0,0,1,2.73-1.23h0A1.58,1.58,0,0,0,117.38,9Z"/><path class="cls-2" d="M135.6,7.53h0a1.61,1.61,0,0,1,3,.65h0a1.66,1.66,0,0,0,2.33,1.32h0a1.65,1.65,0,0,1,2.14,2.27h0a1.65,1.65,0,0,0,1.17,2.4h0a1.6,1.6,0,0,1,.44,3h0a1.56,1.56,0,0,0-.43,2.56h0a1.54,1.54,0,0,1-1.41,2.63h0A1.51,1.51,0,0,0,141,24.13h0a1.55,1.55,0,0,1-2.73,1.23h0a1.57,1.57,0,0,0-2.6.26h0a1.62,1.62,0,0,1-3-.65h0a1.66,1.66,0,0,0-2.33-1.32h0a1.65,1.65,0,0,1-2.13-2.28h0A1.64,1.64,0,0,0,127,19h0a1.6,1.6,0,0,1-.45-3h0a1.56,1.56,0,0,0,.44-2.56h0a1.54,1.54,0,0,1,1.41-2.63h0A1.51,1.51,0,0,0,130.27,9h0A1.55,1.55,0,0,1,133,7.79h0A1.57,1.57,0,0,0,135.6,7.53Z"/><path class="cls-3" d="M108.28,33.86s-10-3-6.38,3c0,0,3.65,4.5,7.29,4.5a20.87,20.87,0,0,0,6-5.6C117.39,32.36,113.75,29.36,108.28,33.86Z"/><path class="cls-3" d="M149.25,30.92s-8.63-5.16-7.14,1.44c0,0,2,5.16,5.51,6a24.14,24.14,0,0,0,7.6-4C158.51,31.55,156,27.83,149.25,30.92Z"/><path d="M123.06,31.49s2.11-3.62,4.88-5a16,16,0,0,1,4.78,2.45,14.19,14.19,0,0,0,1.17,1c.77.57,1.9,1.64,1.61,2.88,0,0,.19,3-6.13.83,0,0-6.16,2.68-6.63.31C122.74,33.93,122.39,32.18,123.06,31.49Z"/><ellipse cx="117.85" cy="17.73" rx="6.34" ry="6.79" transform="translate(0.5 38.51) rotate(-18.6)"/><ellipse cx="136.07" cy="16.23" rx="6.34" ry="6.79" transform="matrix(0.95, -0.32, 0.32, 0.95, 1.93, 44.25)"/><path class="cls-4" d="M104.24,13.09a.59.59,0,0,1-1,.12c-1-1-2.73-3.05-2.75-3.53,0-.64,2.39-2.5,4.29-.76a.58.58,0,0,1,.18.42A11.68,11.68,0,0,1,104.24,13.09Z"/><path class="cls-4" d="M99.66,17.26c.36.25.24.68-.21.78a24.69,24.69,0,0,1-5,.86,1.94,1.94,0,0,1,.67-3.57.83.83,0,0,1,.54,0A18.11,18.11,0,0,1,99.66,17.26Z"/><path class="cls-4" d="M101.21,14.49c.11.37-.29.66-.73.53-1.48-.45-4.3-1.33-4.63-1.73s.35-3.17,3.09-2.56a.76.76,0,0,1,.43.28A12.43,12.43,0,0,1,101.21,14.49Z"/><path class="cls-4" d="M145.5,13.18a.42.42,0,0,1,0-.8c1.4-.61,4.09-1.74,4.67-1.68.77.08,2.62,2.33.24,3.61a.91.91,0,0,1-.54.07A19.39,19.39,0,0,1,145.5,13.18Z"/><path class="cls-4" d="M141.22,8.8a.56.56,0,0,1-.9-.29c-.19-1.3-.52-3.77-.24-4.2s3.58-1.17,4.17,1.11a.51.51,0,0,1-.1.44A14.73,14.73,0,0,1,141.22,8.8Z"/><path class="cls-4" d="M144.3,10.49c-.46,0-.74-.34-.52-.67.77-1.14,2.28-3.29,2.81-3.5.7-.28,3.73.78,2.57,2.92a.66.66,0,0,1-.4.3A19.16,19.16,0,0,1,144.3,10.49Z"/><path class="cls-1" d="M185.08,32.36s-28.35-7.07,1.71-26A22.36,22.36,0,0,1,193,3.63C199.5,2,214.05-1.06,226,2c6.16,1.55,10.86,5.61,12.54,10.73,1.42,4.3,1.89,10-2.42,15.17,0,0,24.6,3.75,4.56,11.26l.91,10.51s-4.55,3.35-7.74-1c0,0-3.19,5.46-8.66.21,0,0-3.65,6-8.2,0,0,0-2.73,6.75-7.29,0,0,0-3.58,6.56-9.53.28,0,0-4.14,6.47-9.6.47V42.87S167.77,43.62,185.08,32.36Z"/><path class="cls-2" d="M202.38,9h0a1.61,1.61,0,0,1,3,.65h0A1.66,1.66,0,0,0,207.72,11h0a1.64,1.64,0,0,1,2.13,2.27h0a1.66,1.66,0,0,0,1.17,2.4h0a1.6,1.6,0,0,1,.45,3h0a1.56,1.56,0,0,0-.43,2.56h0a1.54,1.54,0,0,1-1.42,2.63h0a1.51,1.51,0,0,0-1.87,1.74h0A1.55,1.55,0,0,1,205,26.86h0a1.57,1.57,0,0,0-2.6.26h0a1.61,1.61,0,0,1-3-.65h0a1.66,1.66,0,0,0-2.33-1.32h0a1.66,1.66,0,0,1-2.14-2.28h0a1.64,1.64,0,0,0-1.16-2.39h0a1.6,1.6,0,0,1-.45-3h0a1.56,1.56,0,0,0,.43-2.56h0a1.54,1.54,0,0,1,1.42-2.63h0a1.51,1.51,0,0,0,1.87-1.74h0a1.55,1.55,0,0,1,2.73-1.23h0A1.58,1.58,0,0,0,202.38,9Z"/><path class="cls-2" d="M220.6,7.53h0a1.61,1.61,0,0,1,3,.65h0a1.66,1.66,0,0,0,2.33,1.32h0a1.65,1.65,0,0,1,2.14,2.27h0a1.65,1.65,0,0,0,1.17,2.4h0a1.6,1.6,0,0,1,.44,3h0a1.56,1.56,0,0,0-.43,2.56h0a1.54,1.54,0,0,1-1.41,2.63h0A1.51,1.51,0,0,0,226,24.13h0a1.55,1.55,0,0,1-2.73,1.23h0a1.57,1.57,0,0,0-2.6.26h0a1.62,1.62,0,0,1-3-.65h0a1.66,1.66,0,0,0-2.33-1.32h0a1.65,1.65,0,0,1-2.13-2.28h0A1.64,1.64,0,0,0,212,19h0a1.6,1.6,0,0,1-.45-3h0a1.56,1.56,0,0,0,.44-2.56h0a1.54,1.54,0,0,1,1.41-2.63h0A1.51,1.51,0,0,0,215.27,9h0A1.55,1.55,0,0,1,218,7.79h0A1.57,1.57,0,0,0,220.6,7.53Z"/><path class="cls-3" d="M193.28,33.86s-10-3-6.38,3c0,0,3.65,4.5,7.29,4.5a20.87,20.87,0,0,0,6-5.6C202.39,32.36,198.75,29.36,193.28,33.86Z"/><path class="cls-3" d="M234.25,30.92s-8.63-5.16-7.14,1.44c0,0,2,5.16,5.51,6a24.14,24.14,0,0,0,7.6-4C243.51,31.55,241,27.83,234.25,30.92Z"/><path d="M208.06,31.49s2.11-3.62,4.88-5a16,16,0,0,1,4.78,2.45,14.19,14.19,0,0,0,1.17,1c.77.57,1.9,1.64,1.61,2.88,0,0,.19,3-6.13.83,0,0-6.16,2.68-6.63.31C207.74,33.93,207.39,32.18,208.06,31.49Z"/><ellipse cx="202.85" cy="17.73" rx="6.34" ry="6.79" transform="translate(4.94 65.62) rotate(-18.6)"/><ellipse cx="221.07" cy="16.23" rx="6.34" ry="6.79" transform="matrix(0.95, -0.32, 0.32, 0.95, 6.37, 71.36)"/><path class="cls-4" d="M189.24,13.09a.59.59,0,0,1-1,.12c-.95-1-2.73-3.05-2.75-3.53,0-.64,2.39-2.5,4.29-.76a.58.58,0,0,1,.18.42A11.68,11.68,0,0,1,189.24,13.09Z"/><path class="cls-4" d="M184.66,17.26c.36.25.24.68-.21.78a24.69,24.69,0,0,1-5,.86,1.94,1.94,0,0,1,.67-3.57.83.83,0,0,1,.54,0A18.11,18.11,0,0,1,184.66,17.26Z"/><path class="cls-4" d="M186.21,14.49c.11.37-.29.66-.73.53-1.48-.45-4.3-1.33-4.63-1.73s.35-3.17,3.09-2.56a.76.76,0,0,1,.43.28A12.43,12.43,0,0,1,186.21,14.49Z"/><path class="cls-4" d="M230.5,13.18a.42.42,0,0,1,0-.8c1.4-.61,4.09-1.74,4.67-1.68.77.08,2.62,2.33.24,3.61a.91.91,0,0,1-.54.07A19.39,19.39,0,0,1,230.5,13.18Z"/><path class="cls-4" d="M226.22,8.8a.56.56,0,0,1-.9-.29c-.19-1.3-.52-3.77-.24-4.2s3.58-1.17,4.17,1.11a.51.51,0,0,1-.1.44A14.73,14.73,0,0,1,226.22,8.8Z"/><path class="cls-4" d="M229.3,10.49c-.46,0-.74-.34-.52-.67.77-1.14,2.28-3.29,2.81-3.5.7-.28,3.73.78,2.57,2.92a.66.66,0,0,1-.4.3A19.16,19.16,0,0,1,229.3,10.49Z"/></g></g></svg>