<svg xmlns="http://www.w3.org/2000/svg" width="140" height="125" viewBox="0 0 140 125"><defs><style>.cls-1{fill:#874f12;}.cls-2{fill:#a5671c;}.cls-3{fill:#ebb18b;}.cls-4{fill:#fff;}.cls-5{fill:#d84882;}.cls-6{fill:#d32d78;}</style></defs><g id="Instructions"><g id="brown_dog" data-name="brown dog"><polygon class="cls-1" points="34.32 85.56 49.01 108.51 61.11 105.74 65.29 105.28 69.78 103.92 66.38 81.45 34.32 82.89 34.32 85.56"/><path class="cls-2" d="M16.14,49S1.4,71.08,22.67,96.51c0,0,10.13-29.67,28.37-39.55,0,0,1-13.42,2-18.37,0,0-6.08-32.48,2-33.19S68.26,25.18,68.26,25.18l15.2-1.42S93.59,1.16,97.64,4c0,0-4,5.65-6.08,21.89,0,0,19.25,3.53,18.24,20.48,0,0,13.1,1.17,19.72,3.76,0,0,.47-2.29,0,5.45s-55.18,9.86-55.18,9.86-1,12.71-2,14.83c0,0,5.06,14.13,3,19.78h2.23l8.92,7.77s-5.07,4.23-8.11,6.35S65.22,112,65.22,104.27s-1-20.48-1-20.48h-4l1,23.31s4,7.77-2,9.89c0,0-5.68.7-8.91,0,0,0-2.23-5.65-1.22-8.48h2l1-24.72s-9.11-3.53-15.19,6.36L41.92,88S49,87.32,49,92.27v27.54s-23.3-3.53-25.32-14.12C23.69,105.69-17.24,71,16.14,49Z"/><path d="M67.76,41.07s3-6.36,7.09-.71c0,0,1-2.57,0-3.41s-3-3-6.08-.12C68.77,36.83,66.74,39,67.76,41.07Z"/><path d="M98.15,41.07s3-6.36,7.09-.71c0,0,1-2.57,0-3.41s-3-3-6.08-.12C99.16,36.83,97.14,39,98.15,41.07Z"/><path class="cls-3" d="M53,38.24l9.69-7.77S53.77,2.73,51.14,12.36C51.14,12.36,51.42,35.41,53,38.24Z"/><path class="cls-3" d="M91.56,25.88s8.81,2,10.23,4.37c0,0-1.44-35.18-4.85-24.27a3.6,3.6,0,0,1-.72,1.29C95.36,8.25,93.45,11.94,91.56,25.88Z"/><path class="cls-4" d="M77.58,100l2.33-1.77s5.07-1.41,3,2.12l-3.06,1.66Z"/><path class="cls-4" d="M83.17,104.9,87,103.22s2-3.54-4.06-2.83l-3.06,1.66Z"/><path class="cls-4" d="M86.5,107.81,90,106s2-3.53-3-2.82l-3.84,1.68Z"/><path class="cls-4" d="M48.94,108.77h-3.6s-2.91,1.51.13,2.92h3.37Z"/><path class="cls-4" d="M49.39,114.38l-3.92.14s-4-1.42,0-2.83h3.37Z"/><path class="cls-4" d="M50.23,117H45.91s-3.48-1.06-.44-2.47l3.92-.14Z"/><path class="cls-5" d="M77.58,57.39s3.65,4.76,6,6.58S87,73.55,89,75s17.22,6.35,14.18-4.24C103.21,70.73,96.52,63.82,77.58,57.39Z"/><polygon class="cls-1" points="105.69 62.95 89.78 62.28 93.57 64.19 105.69 62.95"/><path d="M129.52,50.12s13.83,2.08-.16,6.05Z"/><path class="cls-6" d="M83.71,61.78s12.41,9.65,12.41,11.07c0,0,3,.7,2-.71S85.49,62,83.71,61.78Z"/></g></g></svg>