<svg xmlns="http://www.w3.org/2000/svg" width="210" height="220" viewBox="0 0 210 220"><defs><style>.cls-1{fill:#874f12;}.cls-2{fill:#a5671c;}.cls-3{fill:#ebb18b;}.cls-4{fill:#fff;}.cls-5{fill:#d84882;}.cls-6{fill:#d32d78;}</style></defs><g id="Animated_items" data-name="Animated items"><g id="brown_dog" data-name="brown dog"><polygon class="cls-1" points="55.12 148.76 76.61 187.13 94.31 182.5 100.42 181.72 107 179.45 102.02 141.89 55.12 144.29 55.12 148.76"/><path class="cls-2" d="M28.51,87.63s-21.57,36.93,9.56,79.43c0,0,14.82-49.58,41.5-66.11,0,0,1.49-22.43,3-30.69,0,0-8.89-54.3,3-55.48s19.27,33.05,19.27,33.05L127,45.47s14.82-37.77,20.75-33c0,0-5.93,9.44-8.89,36.59,0,0,28.16,5.91,26.68,34.24,0,0,19.16,2,28.85,6.28,0,0,.69-3.84,0,9.1s-80.73,16.49-80.73,16.49-1.48,21.25-3,24.79c0,0,7.42,23.61,4.45,33.05h3.26l13.05,13S124,193,119.6,196.57,100.33,193,100.33,180s-1.49-34.23-1.49-34.23H92.92l1.48,38.95s5.93,13-3,16.53c0,0-8.31,1.18-13.05,0,0,0-3.25-9.44-1.77-14.17h3l1.49-41.31s-13.34-5.9-22.24,10.62l7.41-3.54s10.38-1.18,10.38,7.08v46s-34.09-5.9-37.06-23.61C39.55,182.4-20.34,124.48,28.51,87.63Z"/><path d="M104,74.39s4.45-10.62,10.38-1.18c0,0,1.48-4.3,0-5.69s-4.45-4.93-8.89-.21C105.52,67.31,102.55,70.85,104,74.39Z"/><path d="M148.5,74.39s4.45-10.62,10.38-1.18c0,0,1.48-4.3,0-5.69s-4.45-4.93-8.89-.21C150,67.31,147,70.85,148.5,74.39Z"/><path class="cls-3" d="M82.44,69.66l14.18-13S83.57,10.31,79.72,26.42C79.72,26.42,80.13,64.94,82.44,69.66Z"/><path class="cls-3" d="M138.87,49s12.89,3.4,15,7.31c0,0-2.12-58.8-7.1-40.57a6.35,6.35,0,0,1-1.06,2.15C144.43,19.54,141.63,25.72,138.87,49Z"/><path class="cls-4" d="M118.41,173l3.41-3s7.41-2.36,4.45,3.54l-4.48,2.78Z"/><path class="cls-4" d="M126.58,181.09l5.62-2.82s3-5.9-5.93-4.72l-4.48,2.78Z"/><path class="cls-4" d="M131.46,185.94l5.18-2.95s3-5.9-4.44-4.72l-5.62,2.82Z"/><path class="cls-4" d="M76.5,187.56H71.24s-4.27,2.52.18,4.88h4.94Z"/><path class="cls-4" d="M77.15,196.93l-5.73.23s-5.93-2.36,0-4.72h4.94Z"/><path class="cls-4" d="M78.38,201.29H72.07s-5.1-1.77-.65-4.13l5.73-.23Z"/><path class="cls-5" d="M118.41,101.67s5.34,8,8.82,11,5,16,7.93,18.38,25.2,10.63,20.76-7.08C155.92,124,146.12,112.42,118.41,101.67Z"/><polygon class="cls-1" points="159.54 110.96 136.25 109.85 141.8 113.05 159.54 110.96"/><path d="M194.4,89.53s20.25,3.48-.23,10.11Z"/><path class="cls-6" d="M127.38,109s18.16,16.14,18.16,18.5c0,0,4.45,1.18,3-1.18S130,109.4,127.38,109Z"/></g></g></svg>