<svg id="Win_screen" data-name="Win screen" xmlns="http://www.w3.org/2000/svg" width="160" height="220" viewBox="0 0 160 220"><defs><style>.cls-1{fill:#874f12;}.cls-2{fill:#a5671c;}.cls-3{fill:#ebb18b;}.cls-4{fill:#fff;}.cls-5{fill:#d84882;}.cls-6{fill:#d32d78;}</style></defs><g id="dogs"><polygon class="cls-1" points="142.1 154.43 121.92 196.94 105.29 191.81 99.55 190.95 93.37 188.44 98.05 146.81 142.1 149.48 142.1 154.43"/><path class="cls-2" d="M119.14,101.44s-1.4-24.85-2.8-34c0,0,0-.23.09-.66.24-1.83.95-7.38,1.62-14.43a.61.61,0,0,1,0-.14c1-10.25,1.8-23.63.94-33.36-.65-7.28-2.24-12.52-5.44-12.9-11.13-1.3-18.1,36.63-18.1,36.63L74.57,40S60.66-1.9,55.09,3.32a46.08,46.08,0,0,1,2.85,8h0a155,155,0,0,1,4.29,21.8c0,.13,0,.26.05.39.42,3.16.81,6.61,1.16,10.38l-.14,0a24.51,24.51,0,0,0-3.24,1.16l-.33.13A36.63,36.63,0,0,0,49.38,52c-6.06,5.66-11.66,14.95-11,29.83,0,0-18,2.17-27.1,7,0,0-.21-1.37-.27.06,0,1.08,0,3.81.27,10a4.35,4.35,0,0,0,.21,1.11c1.89,5.87,16.6,9.89,32.54,12.55l.11,0c5.3.88,10.74,1.61,15.9,2.21l.18,0a3.93,3.93,0,0,0,.48.06c2.39.28,4.71.53,6.93.74l1.59.16c1.4.14,2.74.26,4,.37,8.22.73,13.87,1,13.87,1s1.39,23.54,2.78,27.46c0,0-7,26.17-4.17,36.63H82.66L79.48,185,75,190.26l-4.58,5.37s7,7.85,11.14,11.78c4,3.76,16.89-3.26,18-16.45.06-.61.09-1.23.09-1.87,0-14.39,1.39-37.93,1.39-37.93h5.57l-1.31,40.65-.08,2.52s-5.57,14.39,2.78,18.32c0,0,7.81,1.3,12.26,0l0-.08c.11-.39.62-2.2,1.09-4.54l0-.22,0-.25c.17-.87.34-1.81.47-2.76v13.07s30.44-6.22,34.54-24.72l1.43-19.27C156.05,167,142.39,118.44,119.14,101.44Zm19,61.24L131.66,159s-9.74-1.31-9.74,7.84V197h-2.78l0-.87-1.37-44.92s12.26-6.41,20.6,11.19c.1.18.19.38.28.58Z"/><path d="M96.16,72S92,60.24,86.41,70.7c0,0-1.39-4.76,0-6.31s4.18-5.46,8.36-.23C94.77,64.16,97.55,68.09,96.16,72Z"/><path d="M54.39,72s-4.18-11.77-9.75-1.31c0,0-1.39-4.76,0-6.31s4.18-5.46,8.36-.23C53,64.16,55.78,68.09,54.39,72Z"/><path class="cls-3" d="M116.44,66.77,103.12,52.39S115.38,1,119,18.84C119,18.84,118.61,61.53,116.44,66.77Z"/><path class="cls-3" d="M63.44,43.88S51.33,47.65,49.38,52c0,0,2-65.17,6.66-45A7.67,7.67,0,0,0,57,9.4C58.22,11.22,60.85,18.07,63.44,43.88Z"/><path class="cls-4" d="M82.66,181.25,79.45,178s-7-2.62-4.18,3.92L79.48,185Z"/><path class="cls-4" d="M75,190.26l-5.28-3.13s-2.78-6.54,5.57-5.23L79.48,185Z"/><path class="cls-4" d="M70.4,195.64l-4.87-3.27s-2.79-6.54,4.17-5.24L75,190.26Z"/><path class="cls-4" d="M122,197.42H127s4,2.8-.17,5.41h-4.64Z"/><path class="cls-4" d="M121.4,207.81l5.39.26s5.57-2.62,0-5.24h-4.64Z"/><path class="cls-4" d="M120.25,212.64h5.93s4.79-2,.61-4.57l-5.39-.26Z"/><path class="cls-5" d="M82.66,102.24s-5,8.83-8.29,12.19-4.67,17.76-7.45,20.37S43.25,146.58,47.43,127C47.43,127,56.63,114.15,82.66,102.24Z"/><polygon class="cls-1" points="44.02 112.54 65.89 111.31 60.68 114.85 44.02 112.54"/><path d="M11.28,88.79s-19,3.85.21,11.2Z"/><path class="cls-6" d="M74.23,110.38s-17.06,17.88-17.06,20.5c0,0-4.17,1.31-2.78-1.31S71.79,110.8,74.23,110.38Z"/></g></svg>