<svg xmlns="http://www.w3.org/2000/svg" width="138" height="110" viewBox="0 0 138 110"><defs><style>.cls-1{fill:#fff;}.cls-2{fill:#0b8414;}.cls-3{fill:#ea2199;}.cls-4{fill:#46a3e8;}</style></defs><g id="Instructions"><g id="sugar_calavera-4" data-name="sugar calavera"><path class="cls-1" d="M24.14,68.69s-50.08-14.57,3-53.63a36.64,36.64,0,0,1,11-5.53C49.61,6.08,75.3-.13,96.38,6.08a32.32,32.32,0,0,1,22.15,22.1c2.5,8.85,3.33,20.69-4.28,31.24,0,0,43.45,7.73,8,23.18l1.61,21.64s-8,6.9-13.68-2c0,0-5.63,11.23-15.29.41,0,0-6.43,12.37-14.48,0,0,0-4.83,13.91-12.87,0,0,0-6.32,13.53-16.84.58,0,0-7.3,13.33-17,1V90.33S-6.44,91.87,24.14,68.69Z"/><path class="cls-2" d="M54.69,20.65h0c1.23-2.86,5-1.92,5.32,1.33h0c.24,2.29,2.37,3.7,4.11,2.72h0c2.47-1.39,5.14,1.92,3.78,4.68h0c-1,1.95.1,4.51,2.06,4.94h0c2.78.61,3.33,5,.79,6.24h0c-1.79.86-2.19,3.6-.77,5.27h0c2,2.37.26,6.19-2.49,5.41h0c-1.94-.55-3.66,1.31-3.31,3.59h0c.49,3.23-2.92,5-4.83,2.52h0a2.59,2.59,0,0,0-4.59.54h0c-1.22,2.86-5,1.92-5.31-1.34h0c-.24-2.29-2.37-3.7-4.11-2.72h0c-2.48,1.4-5.14-1.91-3.78-4.68h0c1-1.95-.11-4.51-2.06-4.93h0c-2.78-.61-3.34-5-.79-6.24h0c1.79-.87,2.19-3.6.77-5.27h0c-2-2.37-.26-6.2,2.49-5.42h0c1.94.55,3.65-1.31,3.31-3.58h0c-.49-3.24,2.92-5,4.83-2.53h0A2.58,2.58,0,0,0,54.69,20.65Z"/><path class="cls-2" d="M86.88,17.56h0c1.23-2.86,5-1.92,5.31,1.33h0c.24,2.29,2.37,3.7,4.11,2.72h0c2.48-1.39,5.14,1.91,3.78,4.68h0c-1,1.95.11,4.51,2.06,4.94h0c2.78.6,3.34,5,.8,6.24h0c-1.8.86-2.2,3.6-.77,5.27h0c2,2.37.25,6.19-2.5,5.41h0c-1.94-.55-3.65,1.31-3.31,3.59h0c.49,3.23-2.92,5-4.83,2.52h0A2.58,2.58,0,0,0,87,54.8h0c-1.23,2.86-5,1.91-5.32-1.34h0c-.23-2.29-2.37-3.7-4.11-2.72h0c-2.47,1.4-5.14-1.91-3.77-4.68h0c1-2-.11-4.51-2.07-4.93h0c-2.77-.61-3.33-5-.79-6.24h0c1.79-.87,2.19-3.6.77-5.27h0c-2-2.37-.26-6.2,2.49-5.42h0c1.94.55,3.66-1.31,3.31-3.58h0c-.48-3.24,2.93-5,4.83-2.53h0A2.59,2.59,0,0,0,86.88,17.56Z"/><path class="cls-3" d="M38.62,71.78S20.92,65.6,27.36,78c0,0,6.43,9.27,12.87,9.27A39.27,39.27,0,0,0,50.75,75.7C54.71,68.69,48.28,62.51,38.62,71.78Z"/><path class="cls-3" d="M111,65.73s-15.24-10.63-12.6,3c0,0,3.53,10.62,9.72,12.32a40.6,40.6,0,0,0,13.42-8.31C127.34,67,122.92,59.36,111,65.73Z"/><path d="M64.72,66.9s3.74-7.46,8.62-10.35c0,0,5.75,2.15,8.45,5.05a24.67,24.67,0,0,0,2.06,2c1.37,1.18,3.36,3.38,2.84,5.94,0,0,.34,6.11-10.81,1.72,0,0-10.88,5.51-11.73.63C64.15,71.92,63.53,68.32,64.72,66.9Z"/><ellipse cx="55.52" cy="38.56" rx="11.26" ry="13.91" transform="translate(-3.47 5.55) rotate(-5.55)"/><ellipse cx="87.7" cy="35.47" rx="11.26" ry="13.91" transform="translate(-3.02 8.65) rotate(-5.55)"/><path class="cls-4" d="M31.49,29a1,1,0,0,1-1.69.24C28.11,27.1,25,23,24.94,22c-.05-1.31,4.22-5.13,7.57-1.56a1.24,1.24,0,0,1,.31.88A27.22,27.22,0,0,1,31.49,29Z"/><path class="cls-4" d="M23.4,37.6A.9.9,0,0,1,23,39.21C20.34,40,15.2,41.28,14.22,41c-1.3-.43-3.49-5.62,1.19-7.35a1.33,1.33,0,0,1,1,0A29.24,29.24,0,0,1,23.4,37.6Z"/><path class="cls-4" d="M26.14,31.9A.94.94,0,0,1,24.85,33c-2.62-.92-7.6-2.75-8.19-3.57-.79-1.08.63-6.51,5.47-5.26a1.35,1.35,0,0,1,.76.57A27.85,27.85,0,0,1,26.14,31.9Z"/><path class="cls-4" d="M104.37,29.19a.9.9,0,0,1,0-1.65c2.48-1.25,7.22-3.58,8.25-3.46,1.36.16,4.62,4.81.41,7.43a1.35,1.35,0,0,1-1,.16A30.59,30.59,0,0,1,104.37,29.19Z"/><path class="cls-4" d="M96.8,20.17a1,1,0,0,1-1.59-.6c-.34-2.67-.91-7.76-.42-8.64.64-1.16,6.33-2.42,7.37,2.29a1.22,1.22,0,0,1-.19.9A28.56,28.56,0,0,1,96.8,20.17Z"/><path class="cls-4" d="M102.24,23.66a.92.92,0,0,1-.92-1.39c1.36-2.35,4-6.78,5-7.21,1.23-.58,6.6,1.62,4.55,6a1.26,1.26,0,0,1-.71.63A30.39,30.39,0,0,1,102.24,23.66Z"/></g></g></svg>