<svg xmlns="http://www.w3.org/2000/svg" width="115" height="180" viewBox="0 0 115 180"><defs><style>.cls-1{fill:#ccca79;}.cls-2{fill:#f4f2bd;}.cls-3{fill:#e8d025;}.cls-4{fill:#301c0d;}.cls-5{fill:#dd8f1d;}</style></defs><g id="Animated_items" data-name="Animated items"><g id="candle-3" data-name="candle"><path class="cls-1" d="M1.1,68.38s32.44-30.69,106-5.54l3.58,85.08s5.28,21.8-21.12,24-60.72,4.36-60.72,4.36-20.34,5.59-17.12-16a55.32,55.32,0,0,0-.1-15.79Z"/><path class="cls-2" d="M7.78,116.72S7.7,128.31,13,128.31s12.83-7.16,14.34-13.39c0,0-1.51-13.07,0-16.19,0,0,6.79-7.47,6.79,3.43,0,0,0,6.54,5.28,8.71,0,0,13.2,6.54,15.84-6.53,0,0,0-15.26,2.64-21.8,0,0,6.32-8.71,9.76,0s6.08,8.72,8.72,2.18,10.56-2.18,10.56-2.18,9.31,17,20.49-12.21l-.31-7.49s-67.7-26.06-106,5.54Z"/><path class="cls-3" d="M68.43,39s-29-2.18,7.92-37.05c0,0-2.1,12.16,3.08,14.76,2.46,1.24,4.74,2.77,5.86,4.95s1.62,2.08-1,6.44C80.93,33.57,81.63,34.6,68.43,39Z"/><path class="cls-4" d="M59.79,35.23s-5.13,18.36-2.21,28.48a13.17,13.17,0,0,0,5.8,0S65.79,39,68.43,39,61.71,38,59.79,35.23Z"/><path class="cls-5" d="M76.79,16.67s-12,13.4-7.55,21.11c0,0,8.77-4.37,9.26-4.86a57.72,57.72,0,0,0,5-9.14C84.27,21.52,79.87,18.37,76.79,16.67Z"/><path class="cls-1" d="M9,70.56s50.55,8.78,91.28-6.51C100.3,64.05,64.47,85.81,9,70.56Z"/></g></g></svg>