<svg xmlns="http://www.w3.org/2000/svg" width="86" height="159" viewBox="0 0 86 159"><defs><style>.cls-1{fill:#ccca79;}.cls-2{fill:#f4f2bd;}.cls-3{fill:#e8d025;}.cls-4{fill:#301c0d;}.cls-5{fill:#dd8f1d;}</style></defs><g id="Instructions"><g id="candle-4" data-name="candle"><path class="cls-1" d="M2.65,59.13s23.49-26.4,76.76-4.76L82,127.59s3.82,18.75-15.29,20.62-44,3.76-44,3.76S8,156.78,10.34,138.21a57.21,57.21,0,0,0-.08-13.59Z"/><path class="cls-2" d="M7.49,100.73s-.06,10,3.77,10,9.28-6.16,10.38-11.52c0,0-1.1-11.26,0-13.94,0,0,4.91-6.43,4.91,3,0,0,0,5.63,3.83,7.5,0,0,9.56,5.63,11.47-5.62,0,0,0-13.13,1.91-18.76,0,0,4.58-7.5,7.07,0s4.4,7.5,6.32,1.88,7.64-1.88,7.64-1.88,6.74,14.61,14.84-10.51l-.22-6.44s-49-22.43-76.76,4.76Z"/><path class="cls-3" d="M51.41,33.81s-21-1.87,5.74-31.88c0,0-1.53,10.47,2.23,12.71a9.75,9.75,0,0,1,4.24,4.26c.77,1.77,1.17,1.79-.74,5.54C60.46,29.18,61,30.06,51.41,33.81Z"/><path class="cls-4" d="M45.15,30.6s-3.71,15.81-1.59,24.51a8.08,8.08,0,0,0,4.2,0s1.74-21.3,3.65-21.3S46.55,33,45.15,30.6Z"/><path class="cls-5" d="M57.47,14.64S48.76,26.16,52,32.8c0,0,6.36-3.75,6.71-4.18a52.05,52.05,0,0,0,3.64-7.87C62.88,18.81,59.7,16.1,57.47,14.64Z"/><path class="cls-1" d="M8.39,61s36.6,7.56,66.1-5.6C74.49,55.41,48.54,74.14,8.39,61Z"/></g></g></svg>