<svg xmlns="http://www.w3.org/2000/svg" width="205" height="140" viewBox="0 0 205 140"><defs><style>.cls-1{fill:#e51f32;}.cls-2{fill:#125407;}</style></defs><g id="Animated_items" data-name="Animated items"><g id="red"><path class="cls-1" d="M.68,2S151.43,12.08,194.57,12.63l6.11,107s-10.64,36.29-45.82,3.92c0,0-17.87,25.93-46-1.51,0,0-20.38,21.14-47.29-2.85,0,0-26.59,20.44-49.89-4.11Z"/><path class="cls-2" d="M73.15,59.67s-2.9-4.54,1-5c0,0-1.88-9.56,7.65-6.21,0,0,2-6.76,8.59-1.43,0,0-2.08-14.83-11.21-7.63,0,0-15.38-5.91-10.6,8.19C68.6,47.58,57.48,58.28,73.15,59.67Z"/><path class="cls-2" d="M111.91,48s4.07-3.49,5,.44c0,0,9-3,6.92,7.05,0,0,6.79,1.25,2.41,8.57,0,0,14.12-3.87,6.07-12.3,0,0,3.91-16.35-9.2-9.82C123.09,42,111.41,31.93,111.91,48Z"/><path class="cls-2" d="M132.6,80.11s2,5-2,4.71c0,0,0,9.75-8.69,4.55,0,0-3.27,6.22-8.69-.33,0,0-.81,15,9.52,9.74,0,0,14,8.89,12-5.9C134.74,92.88,147.7,84.63,132.6,80.11Z"/><path class="cls-2" d="M90.19,91.92s-4.17,3.35-5-.62c0,0-9.14,2.74-6.7-7.27,0,0-6.75-1.48-2.13-8.64,0,0-14.24,3.39-6.45,12.09,0,0-4.43,16.21,8.87,10.12C78.82,97.6,90.18,108,90.19,91.92Z"/><path class="cls-2" d="M101.82,59.92a49.32,49.32,0,0,1-1.52-23.86S108.55,45.68,101.82,59.92Z"/><path class="cls-2" d="M102.91,104.61a49.25,49.25,0,0,1-1.51-23.86S109.65,90.36,102.91,104.61Z"/><path class="cls-2" d="M113.5,69.72a46,46,0,0,1,23.34,0S126.94,77.52,113.5,69.72Z"/><path class="cls-2" d="M67.94,67.81a46,46,0,0,1,23.34,0S81.38,75.61,67.94,67.81Z"/><path class="cls-2" d="M110.18,23.14s4.14,6.77,7.55,8.81,5,.42,3.76-2.79S110.18,23.14,110.18,23.14Z"/><path class="cls-2" d="M92.13,21.58s-7.55,2-10.47,4.75-1.89,4.78,1.47,4.51S92.13,21.58,92.13,21.58Z"/><path class="cls-2" d="M93.36,113.87s-3.71-7-7-9.29-5-.75-3.93,2.54S93.36,113.87,93.36,113.87Z"/><path class="cls-2" d="M114.13,115.5s7.57-1.91,10.52-4.6,2-4.75-1.41-4.53S114.13,115.5,114.13,115.5Z"/><path class="cls-2" d="M40.31,64.4s7.57-1.92,10.53-4.6,2-4.75-1.41-4.53S40.31,64.4,40.31,64.4Z"/><path class="cls-2" d="M41.53,69.61s5,6.09,8.7,7.61,5-.31,3.34-3.31S41.53,69.61,41.53,69.61Z"/><path class="cls-2" d="M166,69.44s-5.78-5.36-9.61-6.37-4.94,1-2.88,3.73S166,69.44,166,69.44Z"/><path class="cls-2" d="M165.15,73.16s-7.25,3-9.81,6-1.31,5,2,4.29S165.15,73.16,165.15,73.16Z"/><path class="cls-2" d="M93.94,64.12s-8.75-2.69-10.49-5.57-.76-7.67,4.32-4.08A16.57,16.57,0,0,1,93.94,64.12Z"/><path class="cls-2" d="M96.2,75.91s-5,7.8-8.23,8.68-7.4-1.48-2.57-5.42A15.77,15.77,0,0,1,96.2,75.91Z"/><path class="cls-2" d="M110.08,65.24s3.69-8.56,6.69-10,7.52.17,3.42,4.9A15.91,15.91,0,0,1,110.08,65.24Z"/><path class="cls-2" d="M112.19,74.37s8.61,3.15,10.2,6.11.37,7.7-4.52,3.85A16.6,16.6,0,0,1,112.19,74.37Z"/><path class="cls-2" d="M167.78,24.36s2.4,7.05,15.39,5.91c0,0-4.52,10.56,2,12.72,0,0-8.28,2.15-6.93-8.94C178.21,34.05,166,33.13,167.78,24.36Z"/><path class="cls-2" d="M189.62,99.6s-6.52,3.33-3.76,16.39c0,0-10.8-3.25-12.06,3.62,0,0-3.14-8.14,7.77-8.18C181.57,111.43,180.9,98.91,189.62,99.6Z"/><path class="cls-2" d="M33.06,113.12s-.42-7.45-13.23-10c0,0,7.17-8.89,1.5-12.79,0,0,8.54.25,4.29,10.54C25.62,100.88,37.12,105.18,33.06,113.12Z"/><path class="cls-2" d="M16.67,32.42s7-2.06,6.59-15.42c0,0,10.05,5.2,12.51-1.32,0,0,1.65,8.59-9.09,6.6C26.68,22.28,25.12,34.72,16.67,32.42Z"/><path class="cls-2" d="M174.15,75.4s-5-10.34,3.27-2.62c0,0,11.59-8.57,4.15,2.91,0,0,11,5.1-.88,2.49,0,0,1.73,12.07-4.07,3C176.62,81.16,164.23,81.13,174.15,75.4Z"/><path class="cls-2" d="M23.47,68.63s-10.41-4.43.78-4.18c0,0,3.24-14.26,5-.6,0,0,11.56-3.54.94,2.48,0,0,9,7.93-1.16,5C29,71.31,19.66,79.62,23.47,68.63Z"/><path class="cls-2" d="M172.21,108.42s6.12,1.87,3.22-2.67-8-12.64-8-12.64-2.62-4-2.42,1.25c0,0,1.15,3,1.54,3s2.71,3.6-.41,2l-5.31-3.35s-3.76-.31-.43,2.12c0,0-.08.39,3.33,2.43s.72,2.76.72,2.76l-4.9-1s-3.92.46-.51,2.5S172.21,108.42,172.21,108.42Z"/><path class="cls-2" d="M31.69,94.43s-3.17,5.68,1.81,3.82,13.84-5.14,13.84-5.14,4.41-1.7-.65-2.69c0,0-3.16.45-3.24.85s-4,1.88-1.83-.88L46,85.86s1.15-3.69-1.92-.91c0,0-.35-.17-3.06,2.77s-2.8.08-2.8.08l2.11-4.64s.45-4-2.27-1.08S31.69,94.43,31.69,94.43Z"/><path class="cls-2" d="M174.68,57.44s8.47,4.2,2.16-2.38l-7.54-6.84s1.51-5.15,1.29-8.34-3.08-5.36-3.64-.78a9.69,9.69,0,0,0-.81,5.83s-.24,2.2-1.95.71-.18-9-.18-9a4.06,4.06,0,0,0-.72-2.77c-1-1.52-3.41-2-2.7.73,0,0,.28,2.43.37,3.23a6.52,6.52,0,0,1-.25,3.74c-.68,2.06-5.38-4.3-5.38-4.3s2.11-6,.17-9a1.25,1.25,0,0,1-1-1.52s-2-8.38-3.48,1.81c0,0-1.21,2.42-2.63-3.11s-5.35-1.27-2.58,2,1.3,4.26,1.3,4.26-.26,1.25-3.41-2-3.42-2-3.42-2-1.47,1,.72,2.77l2.19,1.78s2.91,1.69-.64,1.7l-7.17-1.53s-5.31.43-.61,3c0,0,9.58,3.61,12.29,2.88a10.34,10.34,0,0,0,5.95.22l3.79,3.5s1.5.35-.23,1.11-8.35,2-8.35,2-5.4,1.46-.51,2.51,11.78-1.41,11.78-1.41,6.11,1.31,1.93,3l-5.15.21s-5.4,1.46-.51,2.5,7.85-.93,7.85-.93,3-2,3.93-.47S174.68,57.44,174.68,57.44Z"/><path class="cls-2" d="M26.52,47.78s-8.7,3.55-2-2.28l7.95-6s-1.18-4.8-.76-7.74,3.41-4.81,3.67-.57a8.2,8.2,0,0,1,.44,5.4s.1,2,1.9.73.76-8.3.76-8.3a3.55,3.55,0,0,1,.88-2.52c1.06-1.36,3.53-1.75,2.65.77l-.57,3a5.6,5.6,0,0,0,0,3.47c.55,1.92,5.63-3.76,5.63-3.76s-1.72-5.58.41-8.3a1.21,1.21,0,0,0,1.06-1.35s2.48-7.66,3.35,1.8c0,0,1.05,2.27,2.82-2.77s5.41-1,2.44,1.94-1.57,3.88-1.57,3.88.18,1.16,3.53-1.75,3.53-1.75,3.53-1.75,1.41,1-.88,2.53l-2.3,1.55s-3,1.45.52,1.6l7.25-1.14s5.26.6.42,2.79c0,0-9.79,3-12.43,2.19a11.12,11.12,0,0,1-5.94,0l-4,3.09s-1.52.26.15,1a71.65,71.65,0,0,0,8.19,2.13s5.29,1.55.35,2.33-11.64-1.75-11.64-1.75-6.17,1-2.12,2.72l5.12.39s5.29,1.55.35,2.33-7.76-1.17-7.76-1.17-2.82-1.94-3.88-.58S26.52,47.78,26.52,47.78Z"/><ellipse class="cls-2" cx="102.96" cy="69.97" rx="3.12" ry="3.2"/><ellipse class="cls-2" cx="64.72" cy="101.01" rx="3.12" ry="3.2"/><ellipse class="cls-2" cx="45.55" cy="107.37" rx="3.12" ry="3.2"/><ellipse class="cls-2" cx="58.46" cy="87.9" rx="3.12" ry="3.2"/><ellipse class="cls-2" cx="149.32" cy="92.97" rx="3.12" ry="3.2"/><ellipse class="cls-2" cx="142.59" cy="107.22" rx="3.12" ry="3.2"/><ellipse class="cls-2" cx="160.42" cy="113.65" rx="3.12" ry="3.2"/><ellipse class="cls-2" cx="102.12" cy="111.63" rx="1.87" ry="1.92"/><ellipse class="cls-2" cx="149.49" cy="73.39" rx="1.87" ry="1.92"/><ellipse class="cls-2" cx="56.18" cy="67.8" rx="1.87" ry="1.92"/><ellipse class="cls-2" cx="101.35" cy="27.79" rx="1.87" ry="1.92"/></g></g></svg>