<svg xmlns="http://www.w3.org/2000/svg" width="205" height="140" viewBox="0 0 205 140"><defs><style>.cls-1{fill:#169119;}.cls-2{fill:#001636;}</style></defs><g id="Animated_items" data-name="Animated items"><g id="green"><path class="cls-1" d="M4.07.75s120,5.87,197.11,1.82l-1.34,116.77s-24.56,36.33-45.47.88c0,0-25.65,32.21-50.59-1.94,0,0-28.94,30.33-58.57-2.61,0,0-29.43,25.31-41.88-3.76C3.33,111.91-2,67.34,4.07.75Z"/><path class="cls-2" d="M12,14.88s2.68-13,3,.26,3.4,73.4,3.4,73.4.26,8.31,6.73,8.38a20.8,20.8,0,0,1,3.16.21c9.48,1.6,56.71,8.74,142.76,9,0,0,16.55-.39,15.4-12.75,0,0,6.05-57.93,5.46-76.84,0,0,1.2-15.93,3.2.29s-2,76.21-2,76.21S196,110.25,174,110.14s-39,5.91-149-8.74c0,0-11-.05-13.16-13.45S9.84,20.81,12,14.88Z"/><path class="cls-2" d="M163.1,13.67s-7.21-3.05,2.58-5.33c0,0,7.36.34,12.67,2.7s-1.73,3.85-1.73,3.85S168.77,16.31,163.1,13.67Z"/><path class="cls-2" d="M178.8,18.63s2.54-4.49,4.9.44-.87,10.18-.87,10.18-2.2,2.51-5.62-.51S178.8,18.63,178.8,18.63Z"/><path class="cls-2" d="M162.86,24.73s-14.36.59-5.06-5.17c0,0,6.61-2.91,12.2-2.54s10.13-1.1,3.18,3S162.86,24.73,162.86,24.73Z"/><path class="cls-2" d="M30.9,25.82s-1.84,5.58-8,0c0,0-1.88-4.82-.38-9s5.73-.1,5.73-.1S32.64,21.36,30.9,25.82Z"/><path class="cls-2" d="M32.59,14.2s-6.84-.22-1-3.28,14-2.64,14-2.64,4.08.63,1.1,3.77S32.59,14.2,32.59,14.2Z"/><path class="cls-2" d="M45.85,22.5s5.34,9-5.36,4.87c0,0-6-3.32-7.27-7s-4.69-6.14,3-3S45.85,22.5,45.85,22.5Z"/><ellipse class="cls-2" cx="105.62" cy="59.64" rx="9.86" ry="12.62" transform="translate(35.94 158.93) rotate(-84.39)"/><path class="cls-2" d="M92.37,47.13s-7.89,0-16-7.24c-2.66-2.38-3.41-6-1.48-8.72,1.15-1.63,3.18-2.86,6.77-2.45a12.1,12.1,0,0,1,10.14,7.76A20.76,20.76,0,0,1,92.37,47.13Z"/><path class="cls-2" d="M109.15,47.69s-4.05-5.94-.74-15.35a8.07,8.07,0,0,1,8.17-5.05,6.67,6.67,0,0,1,5.93,4c1.89,3.9.65,8.29-2.77,11.16A28.07,28.07,0,0,1,109.15,47.69Z"/><path class="cls-2" d="M127.62,58.35s3.29-6.07,14.29-8.81c3.59-.9,7.67.26,9.69,3.05,1.2,1.66,1.63,3.81-.32,6.36-2.61,3.44-7.57,4.94-12.35,4.06A31.08,31.08,0,0,1,127.62,58.35Z"/><path class="cls-2" d="M125.29,71.6s7.4-2.17,17.7,2.61c3.36,1.57,5.39,4.83,4.58,8-.48,1.87-1.94,3.6-5.46,4.18a13.35,13.35,0,0,1-12.37-4.7A22.78,22.78,0,0,1,125.29,71.6Z"/><path class="cls-2" d="M109.41,75.12s6.47,4.07,8,13.95a6.89,6.89,0,0,1-4.95,7.54A7.31,7.31,0,0,1,105.19,95a9.5,9.5,0,0,1-2.81-11.31A23.17,23.17,0,0,1,109.41,75.12Z"/><path class="cls-2" d="M85.49,70.19s1,6.75-6.47,14.12a9.24,9.24,0,0,1-9.94,1.76,5.67,5.67,0,0,1-3.65-5.66c.06-4.16,3.26-7.71,7.78-9.12A31.64,31.64,0,0,1,85.49,70.19Z"/><path class="cls-2" d="M81.33,59.09s-5.7,4.55-17.22,3.62c-3.77-.31-7.12-2.65-7.84-5.85-.43-1.91.09-4,3-5.75a13.72,13.72,0,0,1,13.37.14A27.51,27.51,0,0,1,81.33,59.09Z"/><path class="cls-2" d="M161.42,70.25s16.76,10,15,18.33c-.91,4.16-2.88,4.69-4.63,4.18a4.12,4.12,0,0,1-3.08-4A25,25,0,0,0,161.42,70.25Z"/><path class="cls-2" d="M161.65,67.51s18-4.1,16.74-15.53c-.66-6.19-3.1-6.73-5.2-5.93a5,5,0,0,0-3.26,4.43A22.77,22.77,0,0,1,161.65,67.51Z"/><path class="cls-2" d="M46.49,62.28s-17-9.69-15.41-18.06c.8-4.18,2.76-4.74,4.51-4.27a4.17,4.17,0,0,1,3.19,3.93A25.19,25.19,0,0,0,46.49,62.28Z"/><path class="cls-2" d="M46.32,65S28.48,69.47,30,80.88c.82,6.18,3.27,6.67,5.34,5.82a4.9,4.9,0,0,0,3.15-4.49A22.6,22.6,0,0,1,46.32,65Z"/><ellipse class="cls-2" cx="57.38" cy="37.84" rx="2.35" ry="2.74" transform="translate(13.81 91) rotate(-84.06)"/><ellipse class="cls-2" cx="60.29" cy="29.61" rx="2.35" ry="2.74" transform="translate(24.6 86.51) rotate(-84.06)"/><ellipse class="cls-2" cx="66.02" cy="14.1" rx="2.35" ry="2.74" transform="translate(45.16 78.3) rotate(-84.06)"/><ellipse class="cls-2" cx="84.75" cy="13.9" rx="2.35" ry="2.74" transform="translate(62.15 96.76) rotate(-84.06)"/><ellipse class="cls-2" cx="105.51" cy="15.78" rx="2.35" ry="2.74" transform="translate(78.9 119.09) rotate(-84.06)"/><ellipse class="cls-2" cx="125.34" cy="15.68" rx="2.35" ry="2.74" transform="translate(96.77 138.72) rotate(-84.06)"/><ellipse class="cls-2" cx="141.88" cy="15.29" rx="2.35" ry="2.74" transform="translate(111.99 154.83) rotate(-84.06)"/><ellipse class="cls-2" cx="142.79" cy="30.46" rx="2.35" ry="2.74" transform="translate(97.71 169.34) rotate(-84.06)"/><ellipse class="cls-2" cx="139.73" cy="40.56" rx="2.35" ry="2.74" transform="translate(84.93 175.34) rotate(-84.06)"/><ellipse class="cls-2" cx="155.34" cy="38.2" rx="2.35" ry="2.74" transform="translate(101.27 188.76) rotate(-84.06)"/><ellipse class="cls-2" cx="172.91" cy="38.84" rx="2.35" ry="2.74" transform="translate(116.38 206.8) rotate(-84.06)"/><ellipse class="cls-2" cx="163.29" cy="48.35" rx="2.35" ry="2.74" transform="translate(98.3 205.75) rotate(-84.06)"/><ellipse class="cls-2" cx="177.84" cy="71.35" rx="2.35" ry="2.74" transform="translate(88.46 240.85) rotate(-84.06)"/><ellipse class="cls-2" cx="158.76" cy="88.49" rx="2.35" ry="2.74" transform="translate(54.31 237.24) rotate(-84.06)"/><ellipse class="cls-2" cx="146.71" cy="100.61" rx="2.35" ry="2.74" transform="translate(31.46 236.12) rotate(-84.06)"/><ellipse class="cls-2" cx="130.96" cy="91.64" rx="2.35" ry="2.74" transform="translate(26.26 212.42) rotate(-84.06)"/><ellipse class="cls-2" cx="122.6" cy="99.37" rx="2.35" ry="2.74" transform="translate(11.07 211.03) rotate(-84.06)"/><ellipse class="cls-2" cx="94.03" cy="98.68" rx="2.35" ry="2.74" transform="translate(-13.85 181.99) rotate(-84.06)"/><ellipse class="cls-2" cx="83.9" cy="88.33" rx="2.35" ry="2.74" transform="translate(-12.64 162.64) rotate(-84.06)"/><ellipse class="cls-2" cx="76.55" cy="97.1" rx="2.35" ry="2.74" transform="translate(-27.95 163.19) rotate(-84.06)"/><ellipse class="cls-2" cx="51.42" cy="94.83" rx="2.35" ry="2.74" transform="translate(-48.22 136.16) rotate(-84.06)"/><ellipse class="cls-2" cx="48.01" cy="83.2" rx="2.35" ry="2.74" transform="translate(-39.72 122.34) rotate(-84.06)"/><ellipse class="cls-2" cx="32.84" cy="93.15" rx="2.35" ry="2.74" transform="translate(-63.2 116.18) rotate(-84.06)"/><ellipse class="cls-2" cx="25.57" cy="62.31" rx="2.35" ry="2.74" transform="translate(-39.06 81.3) rotate(-84.06)"/><ellipse class="cls-2" cx="45.82" cy="44.34" rx="2.35" ry="2.74" transform="translate(-3.02 85.32) rotate(-84.06)"/><ellipse class="cls-2" cx="43.34" cy="34.68" rx="2.35" ry="2.74" transform="matrix(0.1, -0.99, 0.99, 0.1, 4.36, 74.2)"/><path class="cls-2" d="M11.77,111.8c0-2.5.85-6.51,6.47-1.41a5.78,5.78,0,0,1,.77.88l2.12,3,2.53-2.19a5.41,5.41,0,0,1,1.11-.75c1.62-.81,5.76-2.5,7.33.55a3.58,3.58,0,0,1-.5,3.91c-1.62,2-5,5.57-7.28,6.31a4.68,4.68,0,0,1-6.5-1.21l-5.09-6.36A4.25,4.25,0,0,1,11.77,111.8Z"/><path class="cls-2" d="M63.28,114.57c0-2.5.85-6.51,6.47-1.41a5,5,0,0,1,.77.88l2.13,3,2.52-2.19a5.8,5.8,0,0,1,1.11-.74c1.62-.81,5.76-2.5,7.33.55a3.58,3.58,0,0,1-.5,3.91c-1.62,2-5,5.57-7.28,6.3a4.67,4.67,0,0,1-6.5-1.21c-1.46-1.81-3.81-4.76-5.09-6.35A4.31,4.31,0,0,1,63.28,114.57Z"/><path class="cls-2" d="M118.07,117.63c0-2.5.85-6.51,6.47-1.41a5.78,5.78,0,0,1,.77.88l2.13,3L130,117.9a5.41,5.41,0,0,1,1.11-.75c1.62-.81,5.76-2.5,7.33.55a3.58,3.58,0,0,1-.5,3.91c-1.62,2-5,5.57-7.28,6.31a4.68,4.68,0,0,1-6.5-1.21L119,120.35A4.31,4.31,0,0,1,118.07,117.63Z"/><path class="cls-2" d="M165.37,118.13c0-2.5.85-6.51,6.47-1.41a5.78,5.78,0,0,1,.77.88l2.13,3,2.52-2.19a5.69,5.69,0,0,1,1.11-.75c1.62-.81,5.76-2.5,7.33.55a3.58,3.58,0,0,1-.5,3.91c-1.62,2-5,5.57-7.28,6.31a4.68,4.68,0,0,1-6.5-1.21l-5.09-6.36A4.29,4.29,0,0,1,165.37,118.13Z"/></g></g></svg>