<svg xmlns="http://www.w3.org/2000/svg" width="205" height="140" viewBox="0 0 205 140"><defs><style>.cls-1{fill:#f26a27;}.cls-2{fill:#001636;}</style></defs><g id="Animated_items" data-name="Animated items"><g id="pink"><path class="cls-1" d="M2.86.75S87.39,9,194.34,4c0,0,10,89,6.79,100.25,0,0,4.88,43.4-46,15.46,0,0-24.77,32-50.82-.53,0,0-24.16,37.46-47.88-.82,0,0-28.1,42.23-49.83-5C6.56,113.37-1,32.94,2.86.75Z"/><path class="cls-2" d="M13.63,6.82v98.61s-1,15.49,24.1,13.62a84.18,84.18,0,0,0,15.57-7s10,9.35,23.09,10.29S103.51,112,103.51,112s13.19,11.33,26.68,10.34,21.51-4.73,24.53-11.28c0,0,16.06,7.49,21.08,6.55s13.06-4.68,14.06-14-3-94.46-3-94.46h-3l2,94.46s0,7.48-9,10.29-24.1-10.29-24.1-10.29-10,29.93-49.2,3.74c0,0-14.06,13.1-26.11,11.23s-23.1-12.16-23.1-12.16-11,8.41-16.06,8.41-18.08,4.68-20.09-9.35-1-97.26-1-97.26Z"/><path class="cls-2" d="M23.17,18.51s2.3-4.67,4.67,0,0,10,0,10-1.65,2.94-4.67-1.2C23.17,27.33,22.17,22.26,23.17,18.51Z"/><path class="cls-2" d="M33.22,20.38S28.91,17,35.58,16.81s13.7,4.51,13.7,4.51,3,6.55-3,5.61S33.22,20.38,33.22,20.38Z"/><path class="cls-2" d="M42.25,14.77s7-2,0-4.27-8.6,0-8.6,0-6.46,1.47-.43,3.34S42.25,14.77,42.25,14.77Z"/><path class="cls-2" d="M154.07,13.14s-6.81-2.39,1.94-5.52c0,0,6.74-.33,11.76,1.54s-1.27,4-1.27,4S159.45,15.24,154.07,13.14Z"/><path class="cls-2" d="M168.78,16.64s2-4.67,4.5,0,0,10.17,0,10.17-1.82,2.69-5.17,0S168.78,16.64,168.78,16.64Z"/><path class="cls-2" d="M154.72,24.13s-13.06,1.87-5-4.68c0,0,5.8-3.47,10.93-3.61s9.15-2,3.12,2.67S154.72,24.13,154.72,24.13Z"/><path class="cls-2" d="M173.8,60.6s-16.07-8.42-15.07-16.83c.51-4.21,2.26-4.91,3.89-4.56a4,4,0,0,1,3.13,3.67A25.76,25.76,0,0,0,173.8,60.6Z"/><path class="cls-2" d="M173.8,63.34S157.73,69,159.74,80.24c1.09,6.08,3.35,6.4,5.2,5.41A5,5,0,0,0,167.57,81C167.41,77.3,167.87,69.5,173.8,63.34Z"/><path class="cls-2" d="M79.41,95.2s23.09,8.42,39.16,0V83.63s17.07-3.39,20.08-11.81-8-33.67-29.12-36.47S62.34,37.22,59.32,70c0,0-2.4,9.8,19.39,16.13Z"/><path class="cls-1" d="M85.43,93.33s15.39,3.75,28.78,0V82.13S131.62,76.5,133.63,70s-6-25.25-18.07-29S94.47,37.22,78.4,42.83c-13.4,4.68-14.23,23-14.13,29a4.68,4.68,0,0,0,1.62,3.44c2.4,2.11,7.8,5.85,17.53,7.79Z"/><path class="cls-2" d="M99.14,77.44h-2.8a1,1,0,0,1-.75-1.61l1-1L98.39,73a1.07,1.07,0,0,1,1.5,0l1.83,1.82,1,1a1,1,0,0,1-.75,1.62Z"/><ellipse class="cls-2" cx="114.05" cy="69.49" rx="8.54" ry="6.08"/><ellipse class="cls-2" cx="82.92" cy="69.49" rx="8.54" ry="6.08"/><path class="cls-2" d="M89.45,83.05s-2-4,1-1.07,12,6.4,16.07,0c0,0,4.23-2.26,1.61,1.28S98.48,89.59,89.45,83.05Z"/><path class="cls-2" d="M93.46,82.11l-4,3.74s0,1.34,1,1.14,4-3.94,4-3.94S94.47,81.18,93.46,82.11Z"/><path class="cls-2" d="M97.48,83.05v5.64s1.42,1,1.71,0,0-5.64,0-5.64S98.48,81.18,97.48,83.05Z"/><path class="cls-2" d="M103,82.22s.54-2,1.54-1S109,85.67,109,85.67s1.26,2.46-1.61,1.32S103,82.22,103,82.22Z"/><path class="cls-2" d="M173.19,93.66s1.22-4,5.09,0a11.41,11.41,0,0,1,.16,6.38c-1,3-3.65.09-3.65.09S172,96.84,173.19,93.66Z"/><path class="cls-2" d="M172,101.93s4.36.14.58,2.33-8.93,1.93-8.93,1.93-2.59-.43-.66-2.67S172,101.93,172,101.93Z"/><path class="cls-2" d="M163.63,96.08s-3.32-6.4,3.46-3.48c0,0,3.79,2.34,4.57,5s2.93,4.35-1.95,2.12S163.63,96.08,163.63,96.08Z"/><path class="cls-2" d="M31.13,107.49s-5.22-1.65.19-2.67a28.17,28.17,0,0,1,11.38.71s3.27,1.15-1.56,2.58A52.23,52.23,0,0,1,31.13,107.49Z"/><path class="cls-2" d="M33.66,101.86s-4,2.23-4-1.61,5.69-7.53,5.69-7.53,7.56-1.27,6.25,2.12S33.66,101.86,33.66,101.86Z"/><path class="cls-2" d="M27.66,96.29s-2-4.18-4.86-.31-.35,4.94-.35,4.94,1.4,3.81,3.78.48S27.66,96.29,27.66,96.29Z"/><path class="cls-2" d="M19.79,62.77s16.07,8.42,15.07,16.84c-.51,4.21-2.26,4.91-3.9,4.56a4,4,0,0,1-3.12-3.68A25.76,25.76,0,0,0,19.79,62.77Z"/><path class="cls-2" d="M19.79,60s16.07-5.67,14.06-16.9c-1.09-6.08-3.35-6.39-5.2-5.41A5,5,0,0,0,26,42.41C26.18,46.07,25.72,53.87,19.79,60Z"/><ellipse class="cls-2" cx="73.38" cy="15.71" rx="3.01" ry="2.81"/><ellipse class="cls-2" cx="98.48" cy="14.77" rx="3.01" ry="2.81"/><ellipse class="cls-2" cx="120.58" cy="14.77" rx="3.01" ry="2.81"/><ellipse class="cls-2" cx="78.4" cy="111.1" rx="2.01" ry="1.87"/><ellipse class="cls-2" cx="89.45" cy="107.36" rx="2.01" ry="1.87"/><ellipse class="cls-2" cx="116.56" cy="107.36" rx="2.01" ry="1.87"/><ellipse class="cls-2" cx="130.62" cy="112.04" rx="2.01" ry="1.87"/><ellipse class="cls-2" cx="141.66" cy="105.49" rx="2.01" ry="1.87"/><ellipse class="cls-2" cx="68.36" cy="107.36" rx="2.01" ry="1.87"/><path class="cls-2" d="M99.1,33s-4.63-3.24-4.63-7,7.68-3.68,7.36-.44S100.72,31.54,99.1,33Z"/><path class="cls-2" d="M113.88,33.83s-2.75-4.74-1.07-8.14,8.63-.35,6.88,2.47S116,33.16,113.88,33.83Z"/><path class="cls-2" d="M127.61,39.17s0-5.39,3.28-7.61,7.74,3.58,4.75,5.26S129.81,39.54,127.61,39.17Z"/><path class="cls-2" d="M136.72,48.38s1.65-5.18,5.41-6.48,6.38,5.43,3,6.27S138.73,49.29,136.72,48.38Z"/><path class="cls-2" d="M144.09,59.81s3.48-4.31,7.5-4.31,3.94,7.16.46,6.85S145.64,61.32,144.09,59.81Z"/><path class="cls-2" d="M144,71.86s4.37-3.54,8.3-2.76,2.25,7.77-1.08,6.8S145.18,73.64,144,71.86Z"/><path class="cls-2" d="M137.65,81.5s5.78.34,8,3.47-4.27,7-5.9,4.12S137.14,83.53,137.65,81.5Z"/><path class="cls-2" d="M125.16,86.67s5.68,1.08,7.4,4.46-5.25,6.39-6.45,3.33S124.36,88.62,125.16,86.67Z"/><path class="cls-2" d="M69.42,87.81s.35,5.38-2.7,7.81-8-3.06-5.13-4.93S67.19,87.59,69.42,87.81Z"/><path class="cls-2" d="M57.15,80.14s-.86,5.33-4.39,7.11-7.13-4.55-3.91-5.82S55,79.49,57.15,80.14Z"/><path class="cls-2" d="M51.29,70.86s-4.06,3.85-8,3.36-2.89-7.58.51-6.85S50,69.18,51.29,70.86Z"/><path class="cls-2" d="M51.26,59.47s-4.64,3.22-8.5,2.17-1.61-7.91,1.63-6.7S50.24,57.62,51.26,59.47Z"/><path class="cls-2" d="M58.86,47.87s-5.48,1.74-8.8-.36,1.06-8,3.75-5.91S58.5,45.81,58.86,47.87Z"/><path class="cls-2" d="M70.35,37.55s-5.75.64-8.53-2.06,2.82-7.6,5-5.05S70.45,35.47,70.35,37.55Z"/><path class="cls-2" d="M86.28,33s-5.7-1-7.48-4.34,5.14-6.47,6.39-3.43S87,31.06,86.28,33Z"/></g></g></svg>