<svg xmlns="http://www.w3.org/2000/svg" width="205" height="140" viewBox="0 0 205 140"><defs><style>.cls-1{fill:#f8bc45;}.cls-2{fill:#125407;}</style></defs><g id="Animated_items" data-name="Animated items"><g id="yellow"><path class="cls-1" d="M10.46,2S94,17.21,201.5,22.28c0,0,0,83.13-4.48,93.27,0,0,0,40.55-47.76,10.14,0,0-28.36,27.37-50.75-5.07,0,0-28.35,32.44-47.76-5.07,0,0-32.83,36.5-49.25-9.12C1.5,106.43,3,31.4,10.46,2Z"/><path class="cls-2" d="M100.62,76S89.56,57.76,70.16,60.8c0,0-20.9,5.07,6,23.32A118.64,118.64,0,0,0,94,97.3a11.69,11.69,0,0,0,14.92-2l14.93-11.15s22.39-18.25,7.46-20.28C131.35,63.84,117.65,57.76,100.62,76Z"/><path class="cls-2" d="M78.87,58.34s-4.12-5.77.51-5.16S78.87,58.34,78.87,58.34Z"/><path class="cls-2" d="M68.61,59.28s-7.27-4.09-2.68-4.84S68.61,59.28,68.61,59.28Z"/><path class="cls-2" d="M61,73s-7.9,3.51-7.6.31S61,73,61,73Z"/><path class="cls-2" d="M68.11,80.88s-4.73,5.54-6.58,2.59S68.11,80.88,68.11,80.88Z"/><path class="cls-2" d="M75.38,87.73s-3.87,5.85-6.15,3S75.38,87.73,75.38,87.73Z"/><path class="cls-2" d="M82.29,94.34s-1.83,6.29-5,3.91S82.29,94.34,82.29,94.34Z"/><path class="cls-2" d="M98.34,101.73s3.26,6-1.26,5.1S98.34,101.73,98.34,101.73Z"/><path class="cls-2" d="M113.25,99s8.56,2.7,4.41,4.22S113.25,99,113.25,99Z"/><path class="cls-2" d="M176.68,120.07s-2.52-6.18,1.87-5S176.68,120.07,176.68,120.07Z"/><path class="cls-2" d="M180,123.8s7.38-4,7.52-.79S180,123.8,180,123.8Z"/><path class="cls-2" d="M179.74,125.68s9.21,1.42,5.61,3.5S179.74,125.68,179.74,125.68Z"/><path class="cls-2" d="M174.76,127s5.76,5.07,1,5.12S174.76,127,174.76,127Z"/><path class="cls-2" d="M169.36,126.2s-3.66,5.91-6,3.14S169.36,126.2,169.36,126.2Z"/><path class="cls-2" d="M169.3,124.11s-9.44,0-6.61-2.56S169.3,124.11,169.3,124.11Z"/><path class="cls-2" d="M171.63,120.56s-9.15-1.58-5.48-3.59S171.63,120.56,171.63,120.56Z"/><path class="cls-2" d="M126.77,121s-3.65-5.91.92-5.13S126.77,121,126.77,121Z"/><path class="cls-2" d="M130.73,124.37s6.58-4.6,7.32-1.43S130.73,124.37,130.73,124.37Z"/><path class="cls-2" d="M130.86,126.26s9.39.61,6.21,3S130.86,126.26,130.86,126.26Z"/><path class="cls-2" d="M126.15,128s6.67,4.54,2,5S126.15,128,126.15,128Z"/><path class="cls-2" d="M120.65,127.66s-2.53,6.18-5.41,3.64S120.65,127.66,120.65,127.66Z"/><path class="cls-2" d="M120.2,125.6s-9.36.81-7-2S120.2,125.6,120.2,125.6Z"/><path class="cls-2" d="M121.85,121.87s-9.37-.77-6.1-3.09S121.85,121.87,121.85,121.87Z"/><path class="cls-2" d="M74,116.81s-6.66-4.54-2-5S74,116.81,74,116.81Z"/><path class="cls-2" d="M79.59,119s3.54-5.95,6-3.2S79.59,119,79.59,119Z"/><path class="cls-2" d="M80.75,120.68s9-1.84,7.42,1.17S80.75,120.68,80.75,120.68Z"/><path class="cls-2" d="M77.36,123.49S86.05,126,82,127.6,77.36,123.49,77.36,123.49Z"/><path class="cls-2" d="M72.08,124.59s1.09,6.37-3,4.76S72.08,124.59,72.08,124.59Z"/><path class="cls-2" d="M70.52,122.79s-8.22,3.16-7.61,0S70.52,122.79,70.52,122.79Z"/><path class="cls-2" d="M70,118.92s-9.11,1.68-7.37-1.3S70,118.92,70,118.92Z"/><path class="cls-2" d="M24.2,113.39s-8.7-2.49-4.62-4.11S24.2,113.39,24.2,113.39Z"/><path class="cls-2" d="M30.55,114s0-6.41,3.75-4.5S30.55,114,30.55,114Z"/><path class="cls-2" d="M32.58,115.24s7.35-4,7.51-.82S32.58,115.24,32.58,115.24Z"/><path class="cls-2" d="M31,118.71s9.44.09,6.56,2.63S31,118.71,31,118.71Z"/><path class="cls-2" d="M26.73,121.09s4.55,5.62-.12,5.17S26.73,121.09,26.73,121.09Z"/><path class="cls-2" d="M24.28,119.83s-5.86,5-7.06,1.93S24.28,119.83,24.28,119.83Z"/><path class="cls-2" d="M21.63,116.38s-7.5,3.9-7.54.69S21.63,116.38,21.63,116.38Z"/><path class="cls-2" d="M122.2,91.89s8.57,2.69,4.41,4.21S122.2,91.89,122.2,91.89Z"/><path class="cls-2" d="M130,84.47s9.43.29,6.43,2.76S130,84.47,130,84.47Z"/><path class="cls-2" d="M136.74,76.53s8.55-2.71,7.58.43S136.74,76.53,136.74,76.53Z"/><path class="cls-2" d="M139.84,68.62s5.92-5,7.08-1.89S139.84,68.62,139.84,68.62Z"/><path class="cls-2" d="M133.17,62.22s-2-6.27,2.32-4.92S133.17,62.22,133.17,62.22Z"/><path class="cls-2" d="M122,61.37s-6.68-4.54-2-5S122,61.37,122,61.37Z"/><path class="cls-2" d="M61.47,63.59s-9.34-.94-6-3.19S61.47,63.59,61.47,63.59Z"/><path class="cls-2" d="M104.49,30.39s3,6.08-6,9.63c0,0-19,10.14.94,23.57,0,0,23-11.91,14-21Z"/><path class="cls-1" d="M102.92,44.58s-11.49,4.2-3.47,13.76C99.45,58.34,111.8,52.69,102.92,44.58Z"/><path class="cls-2" d="M64.69,96.57s-21.83.3-24.6-15.71c0,0,.86-12.38,8,0S50.27,88.73,64.69,96.57Z"/><path class="cls-2" d="M46.46,94.8s-17,6-28.92-6.59c0,0-6.87-10.56,6.29-2.12S30.34,92.08,46.46,94.8Z"/><path class="cls-2" d="M63.36,100.12s-9.53,9.48-26,3.27c0,0-11.41-6.08,3.6-3.42S49.42,102.68,63.36,100.12Z"/><path class="cls-2" d="M75.25,20.68s-13.94-9.44-23.92-4.93c0,0-5.79,4.78,5.16,3.43S61.93,17.3,75.25,20.68Z"/><path class="cls-2" d="M56.55,23.91S33,19.9,26,31c0,0-2.19,9.08,8.64,1.38S39,27.06,56.55,23.91Z"/><path class="cls-2" d="M76,25.34S53.68,23.88,49.11,38.87c0,0-.46,11.76,8.19.43S60.39,32,76,25.34Z"/><path class="cls-2" d="M138.63,24.89a22.23,22.23,0,0,1,22.72,1.46s7.79,6.91-4,2.28S151,25,138.63,24.89Z"/><path class="cls-2" d="M150,33.82s21.19-2,26.79,14.57c0,0,1.42,13.07-7.78.62S165.41,40.92,150,33.82Z"/><path class="cls-2" d="M134.23,27.4s21.52,4.81,15.86,21.6c0,0-7.31,12.29-7.82-1.87S144.25,38.68,134.23,27.4Z"/><path class="cls-2" d="M132.36,103.75a24.2,24.2,0,0,0,24.3,5.57s9.91-5-3.65-3.73S145.46,107.53,132.36,103.75Z"/><path class="cls-2" d="M150.05,99.32s19.18,7,30.62-4c0,0,6.19-9.44-7.09-2.48S167.23,98,150.05,99.32Z"/><path class="cls-2" d="M130.22,98.51s23.13,3,30.28-13.24c0,0,2.35-13-8.5-1S147.61,92.18,130.22,98.51Z"/><ellipse class="cls-2" cx="35.83" cy="49.65" rx="4.48" ry="3.04"/><ellipse class="cls-2" cx="29.86" cy="61.82" rx="4.48" ry="3.04"/><ellipse class="cls-2" cx="28.37" cy="71.96" rx="4.48" ry="3.04"/><ellipse class="cls-2" cx="171.65" cy="60.8" rx="4.48" ry="3.04"/><ellipse class="cls-2" cx="171.65" cy="71.96" rx="4.48" ry="3.04"/><ellipse class="cls-2" cx="91.05" cy="23.29" rx="4.48" ry="3.04"/><ellipse class="cls-2" cx="105.98" cy="23.29" rx="4.48" ry="3.04"/><ellipse class="cls-2" cx="120.9" cy="26.33" rx="4.48" ry="3.04"/><ellipse class="cls-2" cx="26.87" cy="116.56" rx="2.99" ry="2.03"/><ellipse class="cls-2" cx="74.63" cy="121.63" rx="2.99" ry="2.03"/><ellipse class="cls-2" cx="125.38" cy="125.69" rx="2.99" ry="2.03"/><ellipse class="cls-2" cx="174.63" cy="123.66" rx="2.99" ry="2.03"/><ellipse class="cls-2" cx="167.17" cy="88.18" rx="4.48" ry="3.04"/></g></g></svg>