<svg xmlns="http://www.w3.org/2000/svg" width="104" height="132" viewBox="0 0 104 132"><defs><style>.cls-1{fill:#fff;}.cls-2{fill:#07202a;}.cls-3{fill:#d31a61;}.cls-4{fill:#13bc8b;}.cls-5{fill:none;stroke:#000;stroke-miterlimit:10;}.cls-6{fill:#dbdad9;}.cls-7{fill:#dd2443;}.cls-8{fill:#9229d6;}.cls-9{fill:#267ddb;}.cls-10{fill:#d8566f;}.cls-11{fill:#c14966;}.cls-12{fill:#0a2a3a;}.cls-13{fill:#ea2415;}.cls-14{fill:#ed6f5a;}</style></defs><g id="Instructions"><g id="skeleton_female_2-2" data-name="skeleton female 2"><path class="cls-1" d="M88.8,104.86S88.34,114,84.25,114s-4.87-2.22-4.87-2.22,2-5.54,2.83-6.37S86.34,102.41,88.8,104.86Z"/><path class="cls-1" d="M82.5,119.51s-1.87,5.14-3.86,7.29-7.24-5.62-7.24-5.62,3-5.83,4.67-5A16.51,16.51,0,0,1,82.5,119.51Z"/><path class="cls-1" d="M78,116.1l4.12,2.26a1.82,1.82,0,0,0,2.39-.61h0a1.61,1.61,0,0,0-.64-2.27l-4.11-2.26a1.83,1.83,0,0,0-2.4.61h0A1.62,1.62,0,0,0,78,116.1Z"/><path class="cls-2" d="M32.69,88.71S-10.44,55.87,12.31,26.49H96.48s10.81,33.39-16.21,63.26Z"/><path class="cls-3" d="M36.17,103.79a9.26,9.26,0,0,0,2.59,6.68c2.84,2.77,1.13,8.31,1.13,8.31l-4.33,6.46s29.07,1.58,42.72-2.85c0,0-2.84-5-2.84-6.66a8.6,8.6,0,0,1,.57-5s1.7-3.88,0-6.09S36.17,103.79,36.17,103.79Z"/><path class="cls-1" d="M52.41,11.8s-27.3,1.66-34.13,20c0,0-.85,19.13,6.54,25.78S52.69,74.71,52.69,74.71s5,2.77,8.49,0c3.21-2.57,19.13-11.84,21.39-15.81a6,6,0,0,1,1.28-1.64c2.82-2.51,10.41-10.8,8.08-25.79C91.93,31.47,89.09,11,52.41,11.8Z"/><path class="cls-4" d="M69.49,30.87h0a1.74,1.74,0,0,1,3.19,1.05h0A1.76,1.76,0,0,0,75,33.64h0a1.77,1.77,0,0,1,2,2.76h0a1.79,1.79,0,0,0,.89,2.79h0a1.79,1.79,0,0,1,0,3.41h0A1.79,1.79,0,0,0,77,45.39h0a1.77,1.77,0,0,1-2,2.76h0a1.76,1.76,0,0,0-2.34,1.73h0a1.74,1.74,0,0,1-3.19,1h0a1.74,1.74,0,0,0-2.89,0h0a1.74,1.74,0,0,1-3.19-1h0a1.76,1.76,0,0,0-2.34-1.73h0a1.77,1.77,0,0,1-2-2.76h0a1.79,1.79,0,0,0-.89-2.79h0a1.79,1.79,0,0,1,0-3.41h0a1.79,1.79,0,0,0,.89-2.79h0a1.77,1.77,0,0,1,2-2.76h0a1.76,1.76,0,0,0,2.34-1.72h0a1.74,1.74,0,0,1,3.19-1.05h0A1.74,1.74,0,0,0,69.49,30.87Z"/><path class="cls-4" d="M49.08,30.87h0a1.76,1.76,0,0,1,3.21,1.05h0a1.76,1.76,0,0,0,2.35,1.72h0a1.77,1.77,0,0,1,2,2.76h0a1.78,1.78,0,0,0,.89,2.79h0a1.78,1.78,0,0,1,0,3.41h0a1.78,1.78,0,0,0-.89,2.79h0a1.77,1.77,0,0,1-2,2.76h0a1.76,1.76,0,0,0-2.35,1.73h0a1.76,1.76,0,0,1-3.21,1h0a1.75,1.75,0,0,0-2.9,0h0a1.76,1.76,0,0,1-3.21-1h0a1.77,1.77,0,0,0-2.35-1.73h0a1.77,1.77,0,0,1-2-2.76h0a1.79,1.79,0,0,0-.9-2.79h0a1.78,1.78,0,0,1,0-3.41h0a1.79,1.79,0,0,0,.9-2.79h0a1.77,1.77,0,0,1,2-2.76h0A1.76,1.76,0,0,0,43,31.92h0a1.76,1.76,0,0,1,3.21-1.05h0A1.75,1.75,0,0,0,49.08,30.87Z"/><path class="cls-5" d="M77.3,33.73A8.41,8.41,0,0,1,73.59,36"/><path class="cls-5" d="M78.21,35a8.51,8.51,0,0,1-3.7,2.27"/><ellipse class="cls-6" cx="47.86" cy="40.62" rx="7.68" ry="7.48"/><ellipse cx="43.87" cy="40.62" rx="3.7" ry="5.82"/><ellipse class="cls-6" cx="67.76" cy="40.62" rx="7.68" ry="7.48"/><ellipse cx="63.78" cy="40.62" rx="3.7" ry="5.82"/><path d="M53.85,51.8s1.5-2.5,3.11-3.27a8.52,8.52,0,0,1,2.27,2.33,9,9,0,0,0,.5.85A2.8,2.8,0,0,1,60.28,54s-.21,2.24-3.32,0c0,0-3.54,1.37-3.54-.45C53.42,53.59,53.42,52.24,53.85,51.8Z"/><path class="cls-5" d="M45.3,57.53S60.14,66.4,72.06,55"/><path class="cls-5" d="M50,57.93s1.52,2.92,1.52,4.59"/><path class="cls-5" d="M55.53,58.33a11.54,11.54,0,0,1,2.28,4.74"/><path class="cls-5" d="M62.19,57.93s3,1.82,3,3.48"/><path class="cls-5" d="M68.05,54.14a18.19,18.19,0,0,1,4,4.19"/><ellipse class="cls-7" cx="35.34" cy="51.15" rx="2.84" ry="2.77"/><ellipse class="cls-7" cx="77.43" cy="52.26" rx="2.84" ry="2.77"/><path class="cls-8" d="M40.35,63a.33.33,0,0,1-.21-.56,12.29,12.29,0,0,1,2.26-2.17,1.54,1.54,0,0,1,1.12,2.43.48.48,0,0,1-.29.17A11.09,11.09,0,0,1,40.35,63Z"/><ellipse class="cls-9" cx="37.33" cy="63.35" rx="1.67" ry="2.55" transform="translate(-34.61 78.54) rotate(-71.41)"/><path class="cls-8" d="M34.48,61.59a.33.33,0,0,1-.38.45A12.86,12.86,0,0,1,31,61.25a1.56,1.56,0,0,1,1.59-2.18.59.59,0,0,1,.3.16A10.44,10.44,0,0,1,34.48,61.59Z"/><path class="cls-8" d="M36.66,61a.33.33,0,0,1-.6,0,11.61,11.61,0,0,1-1.28-2.84A1.61,1.61,0,0,1,37.51,58a.48.48,0,0,1,.06.33A9.83,9.83,0,0,1,36.66,61Z"/><path class="cls-8" d="M38.92,61.45a.34.34,0,0,1-.49-.35,12.07,12.07,0,0,1,.68-3,1.59,1.59,0,0,1,2.3,1.45.51.51,0,0,1-.15.3A10.63,10.63,0,0,1,38.92,61.45Z"/><path class="cls-8" d="M40,65.28a.32.32,0,0,1,.17-.56,12.82,12.82,0,0,1,3.14-.46,1.53,1.53,0,0,1-.57,2.61.5.5,0,0,1-.34,0A10.28,10.28,0,0,1,40,65.28Z"/><path class="cls-8" d="M73.39,62.39a.34.34,0,0,1-.59-.13,11.78,11.78,0,0,1-.61-3,1.61,1.61,0,0,1,2.7.43.45.45,0,0,1,0,.34A10.05,10.05,0,0,1,73.39,62.39Z"/><ellipse class="cls-9" cx="72" cy="65.02" rx="2.54" ry="1.68" transform="translate(-24.27 53.03) rotate(-34.99)"/><path class="cls-8" d="M68.91,66.37a.33.33,0,0,1,.19.56A12.79,12.79,0,0,1,66.72,69a1.54,1.54,0,0,1-1-2.49.46.46,0,0,1,.31-.15A10.44,10.44,0,0,1,68.91,66.37Z"/><path class="cls-8" d="M69.58,64.24a.33.33,0,0,1-.34.49,13,13,0,0,1-3.13-.52,1.54,1.54,0,0,1,1.38-2.3.48.48,0,0,1,.31.13A10.22,10.22,0,0,1,69.58,64.24Z"/><path class="cls-8" d="M71.24,62.68a.33.33,0,0,1-.56.21,12.62,12.62,0,0,1-2.22-2.23A1.6,1.6,0,0,1,71,59.59a.48.48,0,0,1,.17.29A9.6,9.6,0,0,1,71.24,62.68Z"/><path class="cls-8" d="M75.12,63.92a.32.32,0,0,1-.39-.44,12.35,12.35,0,0,1,1.34-2.81c.4-.27,2.39.24,1.92,1.9a.51.51,0,0,1-.22.26A10.52,10.52,0,0,1,75.12,63.92Z"/><path class="cls-2" d="M55.31,15.6s-2.05,20.31-37,16.15l-6-5.26s46.64-47.12,84.17,0l-5.37,2.27S70.44,36.86,55.31,15.6Z"/><rect class="cls-1" x="52.69" y="76.93" width="9.67" height="3.33" rx="1.56"/><rect class="cls-1" x="52.69" y="81.36" width="9.67" height="3.33" rx="1.56"/><rect class="cls-1" x="52.69" y="85.8" width="9.67" height="3.33" rx="1.56"/><path class="cls-1" d="M23.52,104.69s.45,9.1,4.43,9.1,4.74-2.21,4.74-2.21-1.9-5.55-2.75-6.38S25.92,102.23,23.52,104.69Z"/><path class="cls-1" d="M29.66,119.34s1.82,5.14,3.75,7.28S40.46,121,40.46,121s-3-5.83-4.55-5A15.8,15.8,0,0,0,29.66,119.34Z"/><path class="cls-1" d="M34.07,115.93l-4,2.25a1.73,1.73,0,0,1-2.33-.61h0a1.64,1.64,0,0,1,.62-2.27l4-2.25a1.73,1.73,0,0,1,2.33.6h0A1.67,1.67,0,0,1,34.07,115.93Z"/><path class="cls-1" d="M51.55,80.26s-9.1,2.21-13.65,6.09l5.55,1.11s4.12-3.32,8.1-2.77C51.55,84.69,53.26,81.36,51.55,80.26Z"/><path class="cls-10" d="M36.5,85.8A86.5,86.5,0,0,0,77.71,88s12.52,5.54,13.65,16.07c0,0-1.7,3.33-9.1,1.11,0,0-2.84,2.22-6.25-.55,0,0-1.1,3.34-6.81,1.39,0,0-2.29,1.93-6.27.27a3.07,3.07,0,0,0-2.57.67s-2.74,1.88-8-1.61c0,0-.76-1.83-4.17-.17,0,0-4.55,2.22-8.53-.55A7.32,7.32,0,0,1,35.06,103a23.4,23.4,0,0,1-5.12,2.22,3.54,3.54,0,0,1-2.27-1.11s-6.26,1.67-5.69-.55S28.84,91.34,36.5,85.8Z"/><path class="cls-1" d="M62.83,80.26S78.28,86.35,77.71,88l-3.46.69a21.46,21.46,0,0,0-10.69-4.23S62.15,81.92,62.83,80.26Z"/><path class="cls-11" d="M38.47,94.11S35.06,98,35.63,99.66c0,0,2.84-3.33,2.84-5.55"/><path class="cls-11" d="M45.37,99.66c.49,1.11,2.77-2.22,2.2-2.77C47.57,96.89,44.87,98.55,45.37,99.66Z"/><path class="cls-11" d="M55.53,95.78s-.57,6.57,2,7.72C57.52,103.5,56.1,95.78,55.53,95.78Z"/><path class="cls-11" d="M66.34,93s-1.14,7.76,2.84,10C69.18,103,68.05,93.56,66.34,93Z"/><path class="cls-11" d="M80.24,98s.32,2.78,2,2.78S80.24,98,80.24,98Z"/><path class="cls-12" d="M25.11,28.43S39.32,16.78,47.29,16.78C47.29,16.78,29.66,28.43,25.11,28.43Z"/><path class="cls-12" d="M61.65,16.53S79.32,22.1,83.54,28.68C83.54,28.68,64.06,20.29,61.65,16.53Z"/><path class="cls-12" d="M17.43,29.26s12.4-16.4,26.39-18.18C43.82,11.08,26.53,10.41,17.43,29.26Z"/><path class="cls-12" d="M61.87,12.78S82.68,14.61,91.5,25.34C91.5,25.34,83.12,10.59,61.87,12.78Z"/><path class="cls-12" d="M14.32,37.88S12.78,63.32,33.78,80.66C33.78,80.66,15.94,54,14.32,37.88Z"/><path class="cls-12" d="M72.22,80.66S94.42,67.2,96.83,40.48C96.83,40.48,84.82,70.05,72.22,80.66Z"/><path class="cls-12" d="M31.07,64.26s4.67,11.82,11.67,17.3C42.74,81.56,34.43,65.86,31.07,64.26Z"/><path class="cls-12" d="M65.32,78.62S76.68,72.5,81.3,65C81.3,65,66.48,75.16,65.32,78.62Z"/><path class="cls-13" d="M21.88,8.1h0c.46-.84,2-.57,2,.35h0c0,.73,1.08,1.12,1.76.62h0c.84-.62,2.13.14,1.66,1h0c-.38.68.41,1.39,1.28,1.15h0c1.09-.29,1.88.83,1,1.43h0c-.69.49-.32,1.4.59,1.47h0c1.14.09,1.31,1.37.22,1.65h0c-.87.22-1,1.17-.2,1.53h0c1,.46.5,1.68-.64,1.57h0c-.91-.08-1.5.75-1,1.34h0c.68.74-.39,1.7-1.37,1.23h0c-.79-.37-1.75.19-1.56.91h0c.25.89-1.21,1.42-1.87.67h0a1.15,1.15,0,0,0-1.88.32h0a1.12,1.12,0,0,1-2.05,0h0A1.15,1.15,0,0,0,18,23h0c-.67.75-2.13.22-1.88-.67h0c.2-.72-.77-1.28-1.55-.91h0c-1,.47-2.06-.49-1.38-1.23h0c.55-.59-.05-1.42-1-1.34h0c-1.13.11-1.63-1.11-.63-1.57h0a.79.79,0,0,0-.2-1.53h0c-1.09-.28-.93-1.56.21-1.65h0c.91-.07,1.28-1,.59-1.47h0c-.85-.6-.05-1.72,1-1.43h0c.87.24,1.67-.47,1.29-1.15h0c-.48-.83.82-1.59,1.66-1h0c.67.5,1.76.11,1.75-.62h0c0-.92,1.56-1.19,2-.35h0A1.16,1.16,0,0,0,21.88,8.1Z"/><path class="cls-14" d="M21.71,9.48h0c.37-.66,1.64-.45,1.64.27h0c0,.58.87.89,1.42.5h0c.68-.49,1.73.1,1.35.76h0c-.31.53.34,1.09,1,.9h0c.88-.23,1.53.65.84,1.13h0c-.56.38-.26,1.1.48,1.15h0c.92.07,1.06,1.07.17,1.29h0c-.7.18-.81.92-.16,1.21h0c.81.35.41,1.31-.51,1.23h0c-.74-.06-1.23.59-.78,1h0c.55.58-.32,1.33-1.12,1h0c-.64-.3-1.42.15-1.26.71h0c.2.71-1,1.12-1.53.53h0a.94.94,0,0,0-1.52.25h0a.92.92,0,0,1-1.67,0h0a1,1,0,0,0-1.53-.25h0c-.53.59-1.72.18-1.52-.53h0c.16-.56-.62-1-1.26-.71h0c-.8.36-1.67-.39-1.12-1h0c.45-.46,0-1.11-.78-1h0c-.92.08-1.32-.88-.51-1.23h0c.64-.29.54-1-.17-1.21h0c-.88-.22-.74-1.22.18-1.29h0c.74,0,1-.77.48-1.15h0c-.69-.48,0-1.36.83-1.13h0c.71.19,1.36-.37,1.05-.9h0c-.39-.66.66-1.25,1.35-.76h0c.55.39,1.43.08,1.42-.5h0c0-.72,1.26-.93,1.63-.27h0A1,1,0,0,0,21.71,9.48Z"/><path class="cls-13" d="M21.73,11.33h0c.6-.62,2-.3,1.95.44h0c0,.53.72.91,1.42.73h0c1-.25,1.85.57,1.2,1.17h0c-.45.41-.17,1,.55,1.17h0c1,.22,1,1.23,0,1.44h0c-.72.15-1,.76-.55,1.18h0c.65.59-.2,1.42-1.2,1.17h0c-.7-.18-1.44.2-1.42.72h0c0,.75-1.35,1.07-1.95.45h0a1.34,1.34,0,0,0-1.76,0h0c-.6.62-2,.3-1.94-.45h0c0-.52-.72-.9-1.42-.72h0c-1,.25-1.85-.58-1.21-1.17h0c.46-.42.18-1-.54-1.18h0c-1-.21-1-1.22,0-1.44h0c.72-.15,1-.76.54-1.17h0c-.64-.6.2-1.42,1.21-1.17h0c.7.18,1.44-.2,1.42-.73h0c0-.74,1.34-1.06,1.94-.44h0A1.36,1.36,0,0,0,21.73,11.33Z"/><path class="cls-14" d="M21.5,12.31h0c.4-.46,1.32-.23,1.3.34h0c0,.4.48.68.95.55h0c.67-.19,1.24.43.8.88h0c-.3.31-.11.77.37.89h0a.54.54,0,0,1,0,1.08h0c-.48.12-.67.58-.37.89h0c.44.45-.13,1.07-.8.88h0c-.47-.13-1,.15-.95.55h0c0,.57-.9.8-1.3.34h0a.83.83,0,0,0-1.18,0h0c-.4.46-1.32.23-1.3-.34h0c0-.4-.48-.68-.95-.55h0c-.67.19-1.24-.43-.81-.88h0c.31-.31.12-.77-.36-.89h0a.54.54,0,0,1,0-1.08h0c.48-.12.67-.58.36-.89h0c-.43-.45.14-1.07.81-.88h0c.47.13,1-.15.95-.55h0c0-.57.9-.8,1.3-.34h0A.83.83,0,0,0,21.5,12.31Z"/><path class="cls-13" d="M21.38,14.06h0c.65-.25,1.41.15,1.29.68h0a.54.54,0,0,0,.25.57h0c.53.38.24,1-.49,1.11h0a.92.92,0,0,0-.67.35h0a1.06,1.06,0,0,1-1.59,0h0a.92.92,0,0,0-.67-.35h0c-.73-.08-1-.73-.49-1.11h0a.54.54,0,0,0,.25-.57h0c-.12-.53.64-.93,1.29-.68h0A1.19,1.19,0,0,0,21.38,14.06Z"/><path class="cls-13" d="M37.47,4.33h0c.46-.84,2-.57,2,.35h0c0,.73,1.08,1.12,1.76.63h0c.84-.62,2.13.13,1.66,1h0c-.38.67.41,1.38,1.28,1.14h0c1.09-.29,1.88.83,1,1.43h0c-.69.49-.32,1.4.59,1.47h0c1.14.09,1.31,1.37.22,1.65h0c-.88.22-1,1.17-.2,1.53h0c1,.46.5,1.68-.64,1.58h0c-.91-.09-1.5.74-1,1.33h0c.68.74-.39,1.7-1.37,1.23h0c-.79-.37-1.75.19-1.56.91h0c.25.9-1.21,1.42-1.87.67h0a1.15,1.15,0,0,0-1.88.32h0a1.12,1.12,0,0,1-2,0h0a1.15,1.15,0,0,0-1.88-.32h0c-.67.75-2.13.23-1.88-.67h0c.2-.72-.77-1.28-1.55-.91h0c-1,.47-2.06-.49-1.38-1.23h0c.55-.59-.05-1.42-1-1.33h0c-1.13.1-1.63-1.12-.63-1.58h0A.79.79,0,0,0,27,12h0c-1.09-.28-.93-1.56.21-1.65h0c.91-.07,1.28-1,.59-1.47h0c-.85-.6,0-1.72,1-1.43h0c.87.24,1.67-.47,1.29-1.14h0c-.48-.84.82-1.59,1.66-1h0c.67.49,1.76.1,1.75-.63h0c0-.92,1.56-1.19,2-.35h0A1.16,1.16,0,0,0,37.47,4.33Z"/><path class="cls-14" d="M37.3,5.71h0c.37-.66,1.64-.45,1.64.27h0c0,.58.87.89,1.42.5h0c.68-.49,1.73.1,1.35.76h0c-.31.53.34,1.09,1,.9h0c.88-.23,1.53.65.84,1.13h0c-.56.38-.26,1.1.48,1.15h0c.92.07,1.06,1.08.17,1.29h0c-.7.18-.81.92-.16,1.21h0c.81.35.41,1.32-.51,1.23h0c-.74-.06-1.23.59-.78,1.06h0c.55.58-.32,1.33-1.12,1h0c-.64-.29-1.42.15-1.26.71h0c.2.71-1,1.12-1.53.53h0a.94.94,0,0,0-1.52.25h0a.92.92,0,0,1-1.67,0h0a1,1,0,0,0-1.53-.25h0c-.53.59-1.72.18-1.52-.53h0c.16-.56-.62-1-1.26-.71h0c-.8.37-1.67-.38-1.12-1h0c.45-.47,0-1.12-.78-1.06h0c-.92.09-1.32-.88-.51-1.23h0c.64-.29.54-1-.17-1.21h0c-.88-.21-.74-1.22.18-1.29h0c.74-.05,1-.77.48-1.15h0c-.69-.48,0-1.36.83-1.13h0c.71.19,1.36-.37,1.05-.9h0C31,6.58,32,6,32.69,6.48h0c.55.39,1.43.08,1.42-.5h0c0-.72,1.26-.93,1.63-.27h0A1,1,0,0,0,37.3,5.71Z"/><path class="cls-13" d="M37.32,7.56h0c.6-.62,2-.3,2,.44h0c0,.53.72.91,1.42.73h0c1-.25,1.85.57,1.2,1.17h0c-.45.42-.17,1,.55,1.17h0c1,.22,1,1.23,0,1.44h0c-.72.15-1,.76-.55,1.18h0c.65.6-.2,1.42-1.2,1.17h0c-.7-.18-1.44.2-1.42.72h0c0,.75-1.35,1.07-2,.45h0a1.34,1.34,0,0,0-1.76,0h0c-.6.62-2,.3-1.94-.45h0c0-.52-.72-.9-1.42-.72h0c-1,.25-1.85-.57-1.21-1.17h0c.46-.42.18-1-.54-1.18h0c-1-.21-1-1.22,0-1.44h0c.72-.14,1-.75.54-1.17h0c-.64-.6.2-1.42,1.21-1.17h0c.7.18,1.44-.2,1.42-.73h0c0-.74,1.34-1.06,1.94-.44h0A1.36,1.36,0,0,0,37.32,7.56Z"/><path class="cls-14" d="M37.09,8.54h0c.4-.46,1.32-.23,1.3.34h0c0,.4.48.68,1,.55h0c.67-.19,1.24.43.8.88h0c-.3.31-.11.78.37.89h0a.55.55,0,0,1,0,1.09h0c-.48.11-.67.57-.37.88h0c.44.45-.13,1.07-.8.88h0c-.47-.13-1,.16-1,.55h0c0,.57-.9.81-1.3.34h0a.83.83,0,0,0-1.18,0h0c-.4.47-1.32.23-1.3-.34h0c0-.39-.48-.68-1-.55h0c-.67.19-1.24-.43-.81-.88h0c.31-.31.12-.77-.36-.88h0a.55.55,0,0,1,0-1.09h0c.48-.11.67-.58.36-.89h0c-.43-.45.14-1.07.81-.88h0c.47.13,1-.15,1-.55h0c0-.57.9-.8,1.3-.34h0A.83.83,0,0,0,37.09,8.54Z"/><path class="cls-13" d="M37,10.29h0c.65-.25,1.41.15,1.29.68h0a.54.54,0,0,0,.25.57h0c.53.38.24,1-.49,1.11h0a.92.92,0,0,0-.67.35h0a1.06,1.06,0,0,1-1.59,0h0a.92.92,0,0,0-.67-.35h0c-.73-.08-1-.73-.49-1.11h0a.54.54,0,0,0,.25-.57h0c-.12-.53.64-.93,1.29-.68h0A1.19,1.19,0,0,0,37,10.29Z"/><path class="cls-13" d="M54,2.66h0c.45-.84,2-.58,2,.34h0c0,.74,1.08,1.13,1.75.63h0c.84-.62,2.14.14,1.66,1h0c-.38.67.42,1.38,1.29,1.15h0c1.08-.29,1.88.82,1,1.43h0c-.69.49-.32,1.4.59,1.47h0c1.14.09,1.3,1.37.21,1.64h0a.79.79,0,0,0-.2,1.54h0c1,.45.5,1.67-.63,1.57h0c-.91-.08-1.51.75-1,1.34h0c.68.74-.39,1.69-1.38,1.23h0c-.78-.38-1.75.19-1.55.9h0c.25.9-1.21,1.42-1.88.68h0a1.14,1.14,0,0,0-1.87.32h0a1.12,1.12,0,0,1-2.06,0h0a1.15,1.15,0,0,0-1.88-.32h0c-.66.74-2.12.22-1.87-.68h0c.19-.71-.77-1.28-1.56-.9h0c-1,.46-2-.49-1.37-1.23h0c.54-.59-.05-1.42-1-1.34h0c-1.14.1-1.63-1.12-.64-1.57h0a.79.79,0,0,0-.2-1.54h0c-1.09-.27-.92-1.55.22-1.64h0c.91-.07,1.28-1,.59-1.47h0c-.85-.61-.06-1.72,1-1.43h0C46.22,6,47,5.27,46.63,4.6h0c-.47-.83.82-1.59,1.66-1h0c.68.5,1.77.11,1.76-.63h0c0-.92,1.55-1.18,2-.34h0A1.17,1.17,0,0,0,54,2.66Z"/><path class="cls-14" d="M53.81,4h0c.37-.66,1.64-.45,1.63.27h0c0,.58.88.88,1.43.49h0c.68-.48,1.73.11,1.35.77h0c-.31.52.34,1.08,1,.9h0c.88-.23,1.53.64.83,1.12h0c-.55.39-.25,1.1.49,1.16h0c.92.07,1.06,1.07.17,1.29h0c-.71.17-.81.92-.16,1.2h0c.8.36.4,1.32-.52,1.24h0c-.74-.07-1.22.59-.78,1h0c.55.58-.31,1.33-1.11,1h0c-.64-.29-1.43.15-1.27.72h0c.2.7-1,1.11-1.52.53h0a.94.94,0,0,0-1.53.25h0a.91.91,0,0,1-1.66,0h0a.94.94,0,0,0-1.53-.25h0c-.54.58-1.72.17-1.52-.53h0c.16-.57-.62-1-1.26-.72h0c-.8.37-1.67-.38-1.12-1h0c.44-.46,0-1.12-.78-1h0c-.92.08-1.32-.88-.52-1.24h0c.65-.28.55-1-.16-1.2h0c-.88-.22-.75-1.22.17-1.29h0c.75-.06,1-.77.49-1.16h0c-.7-.48,0-1.35.83-1.12h0c.71.18,1.35-.38,1.05-.9h0c-.39-.66.66-1.25,1.34-.77h0c.55.39,1.44.09,1.43-.49h0c0-.72,1.26-.93,1.63-.27h0A1,1,0,0,0,53.81,4Z"/><path class="cls-13" d="M53.83,5.88h0c.6-.61,2-.3,1.94.45h0c0,.53.72.9,1.43.73h0c1-.25,1.85.57,1.2,1.16h0c-.46.42-.18,1,.54,1.18h0c1,.21,1,1.23,0,1.44h0c-.72.15-1,.76-.54,1.18h0c.65.59-.2,1.41-1.2,1.16h0c-.71-.17-1.45.2-1.43.73h0c0,.75-1.34,1.06-1.94.44h0a1.36,1.36,0,0,0-1.76,0h0c-.6.62-2,.31-1.94-.44h0c0-.53-.72-.9-1.43-.73h0c-1,.25-1.85-.57-1.2-1.16h0c.46-.42.18-1-.54-1.18h0c-1-.21-1-1.23,0-1.44h0c.72-.15,1-.76.54-1.18h0c-.65-.59.2-1.41,1.2-1.16h0c.71.17,1.45-.2,1.43-.73h0c0-.75,1.34-1.06,1.94-.45h0A1.34,1.34,0,0,0,53.83,5.88Z"/><path class="cls-14" d="M53.59,6.87h0c.4-.47,1.32-.23,1.3.33h0c0,.4.48.69,1,.55h0c.67-.19,1.24.44.81.88h0c-.31.32-.12.78.36.89h0a.55.55,0,0,1,0,1.09h0c-.48.11-.67.57-.36.89h0c.43.45-.14,1.07-.81.88h0c-.47-.13-1,.15-1,.55h0c0,.56-.9.8-1.3.33h0a.83.83,0,0,0-1.17,0h0c-.41.47-1.32.23-1.3-.33h0c0-.4-.48-.68-1-.55h0c-.67.19-1.23-.43-.8-.88h0c.31-.32.12-.78-.36-.89h0a.55.55,0,0,1,0-1.09h0c.48-.11.67-.57.36-.89h0c-.43-.44.13-1.07.8-.88h0c.48.14,1-.15,1-.55h0c0-.56.89-.8,1.3-.33h0A.82.82,0,0,0,53.59,6.87Z"/><path class="cls-13" d="M53.47,8.61h0c.66-.25,1.42.16,1.29.69h0a.55.55,0,0,0,.26.57h0c.53.37.23,1-.49,1.1h0a.93.93,0,0,0-.67.36h0a1.07,1.07,0,0,1-1.6,0h0A.92.92,0,0,0,51.6,11h0c-.73-.07-1-.73-.5-1.1h0a.55.55,0,0,0,.26-.57h0c-.13-.53.64-.94,1.29-.69h0A1.16,1.16,0,0,0,53.47,8.61Z"/><path class="cls-13" d="M70,3.5h0c.45-.85,2-.58,2,.34h0c0,.74,1.08,1.13,1.75.63h0c.84-.62,2.14.13,1.66,1h0c-.38.67.42,1.38,1.29,1.15h0c1.08-.29,1.88.82,1,1.43h0c-.68.49-.31,1.4.6,1.47h0c1.13.09,1.3,1.36.21,1.64h0a.79.79,0,0,0-.2,1.54h0c1,.45.5,1.67-.63,1.57h0c-.91-.09-1.51.74-1,1.34h0c.68.73-.39,1.69-1.38,1.22h0c-.79-.37-1.75.19-1.55.91h0c.25.9-1.21,1.42-1.88.67h0a1.15,1.15,0,0,0-1.88.32h0a1.12,1.12,0,0,1-2,0h0a1.15,1.15,0,0,0-1.88-.32h0c-.66.75-2.12.23-1.88-.67h0c.2-.72-.76-1.28-1.55-.91h0c-1,.47-2-.49-1.37-1.22h0c.54-.6,0-1.43-1-1.34h0c-1.14.1-1.63-1.12-.64-1.57h0a.79.79,0,0,0-.2-1.54h0c-1.09-.28-.92-1.55.21-1.64h0c.92-.07,1.28-1,.6-1.47h0c-.86-.61-.06-1.72,1-1.43h0c.86.23,1.66-.48,1.28-1.15h0c-.47-.84.82-1.59,1.66-1h0c.68.5,1.77.11,1.76-.63h0c0-.92,1.55-1.19,2-.34h0A1.17,1.17,0,0,0,70,3.5Z"/><path class="cls-14" d="M69.86,4.88h0c.37-.66,1.64-.45,1.63.27h0c0,.58.88.88,1.43.49h0c.68-.49,1.73.11,1.34.76h0c-.3.53.34,1.09,1,.91h0c.88-.23,1.53.64.83,1.12h0c-.55.38-.26,1.1.49,1.15h0c.92.07,1.05,1.08.17,1.29h0c-.71.18-.81.93-.16,1.21h0c.8.36.4,1.32-.52,1.24h0c-.74-.07-1.22.58-.78,1h0c.55.58-.32,1.33-1.12,1h0c-.64-.29-1.42.15-1.26.72h0c.2.7-1,1.11-1.52.52h0a1,1,0,0,0-1.53.26h0a.92.92,0,0,1-1.66,0h0a1,1,0,0,0-1.53-.26h0c-.54.59-1.72.18-1.52-.52h0c.16-.57-.63-1-1.27-.72h0c-.8.37-1.66-.38-1.11-1h0c.44-.47,0-1.12-.78-1h0c-.92.08-1.32-.88-.52-1.24h0c.65-.28.55-1-.16-1.21h0c-.89-.21-.75-1.22.17-1.29h0c.74-.05,1-.77.49-1.15h0c-.7-.48-.05-1.35.83-1.12h0c.7.18,1.35-.38,1-.91h0c-.38-.65.67-1.25,1.35-.76h0c.55.39,1.43.09,1.43-.49h0c0-.72,1.26-.93,1.63-.27h0A1,1,0,0,0,69.86,4.88Z"/><path class="cls-13" d="M69.88,6.72h0c.6-.62,2-.3,1.94.45h0c0,.52.72.9,1.43.72h0c1-.25,1.85.58,1.2,1.17h0c-.46.42-.18,1,.54,1.18h0c1,.21,1,1.23,0,1.44h0c-.72.15-1,.76-.54,1.17h0c.65.6-.2,1.42-1.2,1.17h0c-.71-.18-1.45.2-1.43.73h0c0,.75-1.34,1.06-1.94.44h0a1.36,1.36,0,0,0-1.76,0h0c-.6.62-2,.31-2-.44h0c0-.53-.71-.91-1.42-.73h0c-1,.25-1.85-.57-1.2-1.17h0c.46-.41.17-1-.54-1.17h0c-1-.21-1-1.23,0-1.44h0c.71-.15,1-.76.54-1.18h0c-.65-.59.2-1.42,1.2-1.17h0c.71.18,1.44-.2,1.42-.72h0c0-.75,1.35-1.07,2-.45h0A1.34,1.34,0,0,0,69.88,6.72Z"/><path class="cls-14" d="M69.64,7.71h0c.4-.47,1.32-.23,1.3.33h0c0,.4.48.69,1,.55h0c.67-.19,1.24.43.81.88h0c-.31.32-.12.78.36.89h0a.55.55,0,0,1,0,1.09h0c-.48.11-.67.57-.36.89h0c.43.44-.14,1.07-.81.88h0c-.47-.14-1,.15-1,.55h0c0,.56-.9.8-1.3.33h0a.83.83,0,0,0-1.18,0h0c-.4.47-1.32.23-1.3-.33h0c0-.4-.48-.69-1-.55h0c-.67.19-1.24-.44-.8-.88h0c.3-.32.12-.78-.36-.89h0a.55.55,0,0,1,0-1.09h0c.48-.11.66-.57.36-.89h0c-.44-.45.13-1.07.8-.88h0c.47.14,1-.15,1-.55h0c0-.56.9-.8,1.3-.33h0A.85.85,0,0,0,69.64,7.71Z"/><path class="cls-13" d="M69.52,9.45h0c.65-.25,1.42.15,1.29.68h0a.56.56,0,0,0,.26.58h0c.52.37.23,1-.5,1.1h0a.86.86,0,0,0-.66.36h0a1.07,1.07,0,0,1-1.6,0h0a.89.89,0,0,0-.67-.36h0c-.72-.08-1-.73-.49-1.1h0a.56.56,0,0,0,.26-.58h0c-.13-.53.63-.93,1.29-.68h0A1.16,1.16,0,0,0,69.52,9.45Z"/><path class="cls-13" d="M86.08,10.2h0c.45-.85,2-.58,2,.34h0c0,.74,1.08,1.13,1.76.63h0c.84-.62,2.13.13,1.66,1h0c-.38.67.42,1.38,1.29,1.15h0c1.08-.29,1.88.82,1,1.43h0c-.68.49-.32,1.4.6,1.47h0c1.13.09,1.3,1.36.21,1.64h0a.79.79,0,0,0-.2,1.54h0c1,.45.5,1.67-.63,1.57h0c-.91-.09-1.51.74-1,1.34h0c.67.73-.4,1.69-1.38,1.22h0c-.79-.37-1.75.19-1.55.91h0c.24.9-1.22,1.42-1.88.67h0a1.15,1.15,0,0,0-1.88.32h0a1.12,1.12,0,0,1-2,0h0a1.15,1.15,0,0,0-1.88-.32h0c-.66.75-2.12.23-1.88-.67h0c.2-.72-.76-1.28-1.55-.91h0c-1,.47-2-.49-1.38-1.22h0c.55-.6-.05-1.43-1-1.34h0c-1.13.1-1.62-1.12-.63-1.57h0a.79.79,0,0,0-.2-1.54h0c-1.09-.28-.92-1.55.21-1.64h0c.91-.07,1.28-1,.6-1.47h0c-.86-.61-.06-1.72,1-1.43h0c.87.23,1.67-.48,1.29-1.15h0c-.47-.84.82-1.59,1.66-1h0c.68.5,1.76.11,1.76-.63h0c0-.92,1.55-1.19,2-.34h0A1.18,1.18,0,0,0,86.08,10.2Z"/><path class="cls-14" d="M85.91,11.58h0c.37-.66,1.64-.45,1.63.27h0c0,.58.88.88,1.42.49h0c.69-.49,1.74.11,1.35.76h0c-.31.53.34,1.09,1,.91h0c.88-.23,1.53.64.83,1.12h0c-.56.38-.26,1.1.48,1.15h0c.93.07,1.06,1.08.18,1.29h0c-.71.18-.81.93-.17,1.21h0c.81.36.41,1.32-.51,1.24h0c-.74-.07-1.22.58-.78,1.05h0c.55.58-.32,1.33-1.12,1h0c-.64-.29-1.42.15-1.26.72h0c.2.7-1,1.11-1.52.52h0a1,1,0,0,0-1.53.26h0a.93.93,0,0,1-1.67,0h0a.94.94,0,0,0-1.52-.26h0c-.54.59-1.73.18-1.53-.52h0c.16-.57-.62-1-1.26-.72h0c-.8.37-1.67-.38-1.11-1h0c.44-.47-.05-1.12-.78-1.05h0c-.93.08-1.33-.88-.52-1.24h0c.65-.28.55-1-.16-1.21h0c-.89-.21-.75-1.22.17-1.29h0c.74-.05,1-.77.48-1.15h0c-.69-.48,0-1.35.84-1.12h0c.7.18,1.35-.38,1-.91h0c-.38-.65.67-1.25,1.35-.76h0c.55.39,1.43.09,1.43-.49h0c0-.72,1.26-.93,1.63-.27h0A1,1,0,0,0,85.91,11.58Z"/><path class="cls-13" d="M85.93,13.42h0c.6-.62,2-.3,1.94.45h0c0,.52.72.9,1.42.72h0c1-.25,1.85.58,1.21,1.17h0c-.46.42-.18,1,.54,1.18h0c1,.21,1,1.23,0,1.44h0c-.72.15-1,.76-.54,1.17h0c.64.6-.2,1.42-1.21,1.17h0c-.7-.18-1.44.2-1.42.73h0c0,.75-1.34,1.06-1.94.44h0a1.36,1.36,0,0,0-1.76,0h0c-.6.62-2,.31-2-.44h0c0-.53-.72-.91-1.42-.73h0c-1,.25-1.85-.57-1.2-1.17h0c.45-.41.17-1-.55-1.17h0c-1-.21-1-1.23,0-1.44h0c.72-.15,1-.76.55-1.18h0c-.65-.59.2-1.42,1.2-1.17h0c.7.18,1.44-.2,1.42-.72h0c0-.75,1.35-1.07,2-.45h0A1.34,1.34,0,0,0,85.93,13.42Z"/><path class="cls-14" d="M85.69,14.41h0c.4-.47,1.32-.23,1.3.33h0c0,.4.48.69,1,.55h0c.67-.19,1.24.43.81.88h0c-.31.32-.12.78.36.89h0a.55.55,0,0,1,0,1.09h0c-.48.11-.67.57-.36.89h0c.43.44-.14,1.07-.81.88h0c-.47-.14-1,.15-1,.55h0c0,.56-.9.8-1.3.33h0a.83.83,0,0,0-1.18,0h0c-.4.47-1.32.23-1.3-.33h0c0-.4-.48-.69-.95-.55h0c-.67.19-1.24-.44-.8-.88h0c.3-.32.11-.78-.37-.89h0a.55.55,0,0,1,0-1.09h0c.48-.11.67-.57.37-.89h0c-.44-.45.13-1.07.8-.88h0c.47.14,1-.15.95-.55h0c0-.56.9-.8,1.3-.33h0A.85.85,0,0,0,85.69,14.41Z"/><path class="cls-13" d="M85.57,16.15h0c.65-.25,1.41.15,1.29.68h0a.55.55,0,0,0,.25.58h0c.53.37.24,1-.49,1.1h0a.89.89,0,0,0-.67.36h0a1.06,1.06,0,0,1-1.59,0h0a.89.89,0,0,0-.67-.36h0c-.73-.08-1-.73-.49-1.1h0a.55.55,0,0,0,.25-.58h0c-.12-.53.64-.93,1.29-.68h0A1.19,1.19,0,0,0,85.57,16.15Z"/><path class="cls-5" d="M41.85,35.76a8.38,8.38,0,0,1-3.42-2.62"/><path class="cls-5" d="M40.93,37.43a8.35,8.35,0,0,1-3.42-2.62"/></g></g></svg>