<svg xmlns="http://www.w3.org/2000/svg" width="165" height="213" viewBox="0 0 165 213"><defs><style>.cls-1{fill:#fff;}.cls-2{fill:#07202a;}.cls-3{fill:#d31a61;}.cls-4{fill:#13bc8b;}.cls-5{fill:none;stroke:#000;stroke-miterlimit:10;}.cls-6{fill:#dbdad9;}.cls-7{fill:#dd2443;}.cls-8{fill:#9229d6;}.cls-9{fill:#267ddb;}.cls-10{fill:#d8566f;}.cls-11{fill:#c14966;}.cls-12{fill:#0a2a3a;}.cls-13{fill:#ea2415;}.cls-14{fill:#ed6f5a;}</style></defs><g id="Animated_items" data-name="Animated items"><g id="skeleton_female_2" data-name="skeleton female 2"><path class="cls-1" d="M142.89,170.24s-.77,14.57-7.59,14.57-8.13-3.55-8.13-3.55,3.25-8.87,4.72-10.2S138.78,166.31,142.89,170.24Z"/><path class="cls-1" d="M132.37,193.67s-3.11,8.23-6.43,11.65-12.09-9-12.09-9,5.1-9.33,7.8-8A28.1,28.1,0,0,1,132.37,193.67Z"/><path class="cls-1" d="M124.81,188.22l6.86,3.6a3.08,3.08,0,0,0,4-1h0a2.53,2.53,0,0,0-1.07-3.63l-6.86-3.61a3.09,3.09,0,0,0-4,1h0A2.53,2.53,0,0,0,124.81,188.22Z"/><path class="cls-2" d="M49.3,144.4s-71.94-52.55-34-99.55H155.69s18,53.42-27,101.2Z"/><path class="cls-3" d="M55.11,168.51a14.45,14.45,0,0,0,4.3,10.69c4.75,4.44,1.9,13.31,1.9,13.31l-7.22,10.32s48.48,2.53,71.25-4.56c0,0-4.74-8-4.74-10.64,0,0-.95-4.44.94-8,0,0,2.85-6.21,0-9.76S55.11,168.51,55.11,168.51Z"/><path class="cls-1" d="M82.18,21.35S36.65,24,25.26,53.28c0,0-1.42,30.59,10.91,41.23S82.65,122,82.65,122s8.4,4.44,14.16,0c5.35-4.11,31.91-18.94,35.67-25.29a10.38,10.38,0,0,1,2.14-2.63c4.71-4,17.37-17.28,13.48-41.25C148.1,52.83,143.36,20,82.18,21.35Z"/><path class="cls-4" d="M110.67,51.86h0A2.93,2.93,0,0,1,116,53.55h0a2.9,2.9,0,0,0,3.89,2.75h0a2.87,2.87,0,0,1,3.29,4.42h0a2.82,2.82,0,0,0,1.49,4.46h0a2.83,2.83,0,0,1,0,5.46h0a2.82,2.82,0,0,0-1.49,4.46h0a2.87,2.87,0,0,1-3.29,4.42h0A2.9,2.9,0,0,0,116,82.27h0A2.93,2.93,0,0,1,110.67,84h0a3,3,0,0,0-4.81,0h0a2.93,2.93,0,0,1-5.33-1.69h0a2.9,2.9,0,0,0-3.89-2.75h0a2.87,2.87,0,0,1-3.29-4.42h0a2.82,2.82,0,0,0-1.49-4.46h0a2.83,2.83,0,0,1,0-5.46h0a2.82,2.82,0,0,0,1.49-4.46h0a2.87,2.87,0,0,1,3.29-4.42h0a2.9,2.9,0,0,0,3.89-2.75h0a2.93,2.93,0,0,1,5.33-1.69h0A3,3,0,0,0,110.67,51.86Z"/><path class="cls-4" d="M76.63,51.86h0A3,3,0,0,1,82,53.55h0A2.92,2.92,0,0,0,85.9,56.3h0a2.87,2.87,0,0,1,3.31,4.42h0a2.81,2.81,0,0,0,1.49,4.46h0a2.82,2.82,0,0,1,0,5.46h0a2.81,2.81,0,0,0-1.49,4.46h0a2.87,2.87,0,0,1-3.31,4.42h0A2.92,2.92,0,0,0,82,82.27h0A3,3,0,0,1,76.63,84h0a3,3,0,0,0-4.84,0h0a3,3,0,0,1-5.35-1.69h0a2.91,2.91,0,0,0-3.91-2.75h0a2.87,2.87,0,0,1-3.31-4.42h0a2.81,2.81,0,0,0-1.5-4.46h0a2.82,2.82,0,0,1,0-5.46h0a2.81,2.81,0,0,0,1.5-4.46h0a2.87,2.87,0,0,1,3.31-4.42h0a2.91,2.91,0,0,0,3.91-2.75h0a3,3,0,0,1,5.35-1.69h0A3,3,0,0,0,76.63,51.86Z"/><path class="cls-5" d="M123.69,56.44s-2.93,3-6.18,3.63"/><path class="cls-5" d="M125.22,58.45s-2.93,3-6.18,3.63"/><ellipse class="cls-6" cx="74.59" cy="67.47" rx="12.81" ry="11.97"/><ellipse cx="67.95" cy="67.47" rx="6.17" ry="9.31"/><ellipse class="cls-6" cx="107.79" cy="67.47" rx="12.81" ry="11.97"/><ellipse cx="101.15" cy="67.47" rx="6.17" ry="9.31"/><path d="M84.59,85.34s2.5-4,5.18-5.22a13.92,13.92,0,0,1,3.78,3.72,15.74,15.74,0,0,0,.85,1.37,4.32,4.32,0,0,1,.91,3.72s-.35,3.59-5.54,0c0,0-5.89,2.2-5.89-.72C83.88,88.21,83.88,86.06,84.59,85.34Z"/><path class="cls-5" d="M70.32,94.51s24.77,14.19,44.64-4"/><path class="cls-5" d="M78.21,95.15s2.55,4.68,2.55,7.34"/><path class="cls-5" d="M87.4,95.8a18.26,18.26,0,0,1,3.79,7.58"/><path class="cls-5" d="M98.49,95.15s5,2.91,5,5.57"/><path class="cls-5" d="M108.26,89.1a29.35,29.35,0,0,1,6.7,6.7"/><ellipse class="cls-7" cx="53.72" cy="84.32" rx="4.74" ry="4.43"/><ellipse class="cls-7" cx="123.92" cy="86.09" rx="4.74" ry="4.43"/><path class="cls-8" d="M62.07,103.33a.52.52,0,0,1-.35-.89c1.08-1.16,3.18-3.34,3.77-3.48.78-.19,3.6,1.66,1.87,3.89a.78.78,0,0,1-.49.27A18.53,18.53,0,0,1,62.07,103.33Z"/><ellipse class="cls-9" cx="57.04" cy="103.82" rx="2.68" ry="4.24" transform="translate(-58.89 128.17) rotate(-73.08)"/><path class="cls-8" d="M52.28,101a.54.54,0,0,1-.64.73c-1.62-.29-4.7-.87-5.13-1.28A2.49,2.49,0,0,1,49.16,97a.75.75,0,0,1,.5.25A16.33,16.33,0,0,1,52.28,101Z"/><path class="cls-8" d="M55.92,100a.58.58,0,0,1-1,0c-.77-1.36-2.21-4-2.13-4.54.09-.75,2.94-2.55,4.55-.24a.64.64,0,0,1,.1.52A15.56,15.56,0,0,1,55.92,100Z"/><path class="cls-8" d="M59.68,100.79a.55.55,0,0,1-.81-.56c.23-1.53.72-4.43,1.14-4.85s4-.44,3.83,2.32a.73.73,0,0,1-.25.48A18,18,0,0,1,59.68,100.79Z"/><path class="cls-8" d="M61.48,106.92a.51.51,0,0,1,.27-.91c1.61-.34,4.68-.94,5.25-.73a2.42,2.42,0,0,1-1,4.18.87.87,0,0,1-.57,0A17.52,17.52,0,0,1,61.48,106.92Z"/><path class="cls-8" d="M117.18,102.3a.57.57,0,0,1-1-.21c-.44-1.49-1.23-4.33-1-4.87.27-.71,3.47-1.89,4.5.69a.65.65,0,0,1,0,.53A16.1,16.1,0,0,1,117.18,102.3Z"/><ellipse class="cls-9" cx="114.86" cy="106.49" rx="4.18" ry="2.72" transform="translate(-39.09 77.63) rotate(-32.22)"/><path class="cls-8" d="M109.71,108.66a.52.52,0,0,1,.31.9c-1.15,1.1-3.37,3.18-4,3.29-.79.14-3.5-1.84-1.64-4a.78.78,0,0,1,.5-.25A18.62,18.62,0,0,1,109.71,108.66Z"/><path class="cls-8" d="M110.82,105.26a.53.53,0,0,1-.56.78c-1.64-.15-4.76-.47-5.23-.84a2.46,2.46,0,0,1,2.3-3.68.78.78,0,0,1,.52.21A16.08,16.08,0,0,1,110.82,105.26Z"/><path class="cls-8" d="M113.6,102.76a.57.57,0,0,1-.95.32c-1.23-1-3.55-3-3.69-3.55-.19-.74,1.81-3.36,4.18-1.71a.72.72,0,0,1,.29.46A15.39,15.39,0,0,1,113.6,102.76Z"/><path class="cls-8" d="M120.07,104.74a.53.53,0,0,1-.66-.71c.58-1.44,1.73-4.17,2.24-4.49.67-.43,4,.38,3.19,3a.72.72,0,0,1-.35.42A18.56,18.56,0,0,1,120.07,104.74Z"/><path class="cls-2" d="M87,27.43S83.6,59.93,25.26,53.28l-10-8.43s77.79-75.38,140.39,0l-8.95,3.63S112.26,61.45,87,27.43Z"/><rect class="cls-1" x="82.65" y="125.55" width="16.13" height="5.32" rx="2.66"/><rect class="cls-1" x="82.65" y="132.65" width="16.13" height="5.32" rx="2.66"/><rect class="cls-1" x="82.65" y="139.74" width="16.13" height="5.32" rx="2.66"/><path class="cls-1" d="M34,170s.75,14.56,7.39,14.56S49.3,181,49.3,181s-3.17-8.87-4.59-10.2S38,166,34,170Z"/><path class="cls-1" d="M44.24,193.39s3,8.23,6.26,11.65,11.76-9,11.76-9-5-9.32-7.59-8C54.67,188.07,49.93,189,44.24,193.39Z"/><path class="cls-1" d="M51.6,187.94l-6.68,3.6a3,3,0,0,1-3.89-1h0a2.58,2.58,0,0,1,1-3.64l6.67-3.6a3,3,0,0,1,3.89,1h0A2.59,2.59,0,0,1,51.6,187.94Z"/><path class="cls-1" d="M80.76,130.87S65.58,134.42,58,140.63l9.25,1.77s6.88-5.32,13.52-4.43C80.76,138,83.6,132.65,80.76,130.87Z"/><path class="cls-10" d="M55.65,139.74s31.75,10.64,68.74,3.55c0,0,20.87,8.87,22.77,25.71,0,0-2.85,5.33-15.18,1.78,0,0-4.74,3.55-10.44-.89,0,0-1.83,5.35-11.35,2.23,0,0-3.82,3.09-10.46.43,0,0-2.88-.5-4.29,1.08,0,0-4.57,3-13.42-2.58,0,0-1.26-2.93-7-.27,0,0-7.58,3.55-14.22-.89,0,0-4.75,0-7.59-2.66a40.82,40.82,0,0,1-8.54,3.55A6,6,0,0,1,40.92,169s-10.44,2.67-9.49-.88S42.88,148.61,55.65,139.74Z"/><path class="cls-1" d="M99.56,130.87s25.78,9.76,24.83,12.42l-5.78,1.11s-6.35-5.32-17.83-6.77C100.78,137.63,98.44,133.53,99.56,130.87Z"/><path class="cls-11" d="M58.94,153s-5.69,6.21-4.74,8.87c0,0,4.74-5.32,4.74-8.87"/><path class="cls-11" d="M70.44,161.91c.83,1.77,4.62-3.55,3.68-4.43C74.12,157.48,69.61,160.14,70.44,161.91Z"/><path class="cls-11" d="M87.4,155.7s-1,10.52,3.32,12.35C90.72,168.05,88.34,155.7,87.4,155.7Z"/><path class="cls-11" d="M105.42,151.27s-1.9,12.41,4.74,16C110.16,167.23,108.26,152.16,105.42,151.27Z"/><path class="cls-11" d="M128.6,159.25s.53,4.43,3.38,4.43S128.6,159.25,128.6,159.25Z"/><path class="cls-12" d="M36.65,48s23.71-18.63,37-18.63C73.64,29.33,44.24,48,36.65,48Z"/><path class="cls-12" d="M97.6,28.93s29.46,8.91,36.51,19.43C134.11,48.36,101.62,34.94,97.6,28.93Z"/><path class="cls-12" d="M23.84,49.29s20.68-26.23,44-29.08C67.85,20.21,39,19.14,23.84,49.29Z"/><path class="cls-12" d="M98,22.93S132.68,25.85,147.39,43C147.39,43,133.41,19.42,98,22.93Z"/><path class="cls-12" d="M18.65,63.09s-2.56,40.68,32.46,68.43C51.11,131.52,21.35,88.92,18.65,63.09Z"/><path class="cls-12" d="M115.23,131.51s37-21.52,41.05-64.27C156.28,67.24,136.25,114.54,115.23,131.51Z"/><path class="cls-12" d="M46.6,105.29s7.78,18.9,19.46,27.67C66.06,133,52.2,107.84,46.6,105.29Z"/><path class="cls-12" d="M103.71,128.25s19-9.79,26.66-21.81C130.37,106.44,105.65,122.72,103.71,128.25Z"/><path class="cls-13" d="M31.27,15.44h0c.76-1.34,3.37-.92,3.35.55h0c0,1.18,1.8,1.8,2.93,1h0c1.4-1,3.56.22,2.77,1.55h0c-.63,1.07.69,2.21,2.14,1.84h0c1.81-.47,3.14,1.31,1.72,2.29h0c-1.15.78-.53,2.24,1,2.35h0c1.89.14,2.17,2.18.35,2.63h0c-1.45.35-1.66,1.87-.33,2.45h0c1.66.73.83,2.68-1.06,2.52h0c-1.52-.14-2.51,1.19-1.6,2.14h0c1.13,1.18-.65,2.71-2.29,2h0c-1.32-.6-2.93.31-2.6,1.46h0c.42,1.43-2,2.27-3.12,1.07h0c-.89-1-2.84-.64-3.14.51h0c-.38,1.44-3,1.44-3.42,0h0c-.31-1.15-2.25-1.47-3.14-.51h0c-1.1,1.2-3.54.36-3.13-1.07h0C22,37,20.42,36.13,19.1,36.73h0c-1.64.75-3.42-.78-2.29-2h0c.91-1-.09-2.28-1.6-2.14h0c-1.9.16-2.72-1.79-1.06-2.52h0c1.33-.58,1.12-2.1-.34-2.45h0c-1.81-.45-1.53-2.49.36-2.63h0c1.52-.11,2.13-1.57,1-2.35h0c-1.42-1-.09-2.76,1.71-2.29h0c1.45.37,2.78-.77,2.15-1.84h0C18.23,17.22,20.38,16,21.79,17h0c1.12.79,2.94.17,2.93-1h0c0-1.47,2.59-1.89,3.35-.55h0A2,2,0,0,0,31.27,15.44Z"/><path class="cls-14" d="M31,17.65h0c.62-1,2.73-.72,2.72.43h0c0,.93,1.46,1.42,2.38.79h0c1.14-.77,2.89.18,2.25,1.22h0c-.52.85.56,1.74,1.74,1.45h0c1.47-.37,2.55,1,1.39,1.8h0c-.93.61-.43,1.75.8,1.84h0c1.54.11,1.77,1.72.3,2.07h0c-1.19.28-1.36,1.47-.28,1.93h0c1.35.57.68,2.1-.86,2h0c-1.23-.1-2,.94-1.3,1.69h0c.92.92-.53,2.12-1.86,1.54h0c-1.07-.47-2.37.24-2.1,1.14h0c.33,1.13-1.65,1.78-2.54.84h0c-.73-.75-2.3-.5-2.55.41h0c-.31,1.13-2.47,1.13-2.78,0h0c-.25-.91-1.83-1.16-2.55-.41h0c-.9.94-2.87.29-2.54-.84h0c.27-.9-1-1.61-2.1-1.14h0c-1.34.58-2.78-.62-1.86-1.54h0c.73-.75-.07-1.79-1.31-1.69h0c-1.53.13-2.2-1.4-.86-2h0c1.08-.46.92-1.65-.27-1.93h0c-1.47-.35-1.25-2,.29-2.07h0c1.24-.09,1.74-1.23.81-1.84h0c-1.16-.77-.08-2.17,1.39-1.8h0c1.17.29,2.25-.6,1.74-1.45h0c-.64-1,1.11-2,2.25-1.22h0c.91.63,2.39.14,2.38-.79h0c0-1.15,2.1-1.48,2.72-.43h0A1.64,1.64,0,0,0,31,17.65Z"/><path class="cls-13" d="M31,20.6h0c1-1,3.29-.48,3.25.72h0c0,.84,1.19,1.44,2.37,1.16h0c1.67-.4,3.09.92,2,1.86h0c-.76.67-.29,1.65.91,1.89h0c1.7.34,1.7,2,0,2.3h0c-1.2.24-1.67,1.22-.91,1.89h0c1.09.94-.33,2.26-2,1.86h0c-1.18-.28-2.41.32-2.37,1.16h0c0,1.2-2.25,1.7-3.25.72h0a2.31,2.31,0,0,0-2.93,0h0c-1,1-3.3.48-3.25-.72h0c0-.84-1.19-1.44-2.37-1.16h0c-1.67.4-3.09-.92-2-1.86h0c.77-.67.3-1.65-.9-1.89h0c-1.7-.34-1.7-2,0-2.3h0c1.2-.24,1.67-1.22.9-1.89h0c-1.08-.94.34-2.26,2-1.86h0c1.18.28,2.41-.32,2.37-1.16h0c-.05-1.2,2.25-1.7,3.25-.72h0A2.31,2.31,0,0,0,31,20.6Z"/><path class="cls-14" d="M30.63,22.18h0c.67-.75,2.2-.37,2.17.54h0c0,.63.8,1.09,1.58.88h0c1.12-.31,2.07.69,1.34,1.4h0c-.51.51-.19,1.25.61,1.43h0c1.14.25,1.14,1.48,0,1.73h0c-.8.18-1.12.92-.61,1.43h0c.73.71-.22,1.71-1.34,1.4h0c-.78-.21-1.61.25-1.58.88h0c0,.91-1.5,1.29-2.17.54h0a1.44,1.44,0,0,0-2,0h0c-.67.75-2.2.37-2.17-.54h0c0-.63-.8-1.09-1.58-.88h0c-1.12.31-2.07-.69-1.34-1.4h0c.51-.51.19-1.25-.61-1.43h0c-1.14-.25-1.14-1.48,0-1.73h0c.8-.18,1.12-.92.61-1.43h0c-.73-.71.22-1.71,1.34-1.4h0c.78.21,1.61-.25,1.58-.88h0c0-.91,1.5-1.29,2.17-.54h0A1.44,1.44,0,0,0,30.63,22.18Z"/><path class="cls-13" d="M30.43,25h0c1.08-.4,2.35.24,2.15,1.09h0A.85.85,0,0,0,33,27h0c.88.6.4,1.64-.82,1.77h0a1.52,1.52,0,0,0-1.11.56h0a1.82,1.82,0,0,1-2.66,0h0a1.54,1.54,0,0,0-1.12-.56h0c-1.21-.13-1.7-1.17-.82-1.77h0a.87.87,0,0,0,.43-.92h0c-.21-.85,1.06-1.49,2.15-1.09h0A2,2,0,0,0,30.43,25Z"/><path class="cls-13" d="M57.27,9.41h0c.76-1.34,3.37-.91,3.35.55h0c0,1.18,1.8,1.81,2.93,1h0c1.4-1,3.56.22,2.77,1.55h0c-.63,1.07.7,2.21,2.14,1.84h0c1.81-.47,3.14,1.31,1.72,2.29h0c-1.15.78-.53,2.24,1,2.35h0c1.89.14,2.17,2.19.36,2.63h0c-1.46.35-1.67,1.88-.34,2.46h0c1.66.72.83,2.67-1.06,2.51h0c-1.52-.13-2.51,1.19-1.6,2.14h0c1.13,1.18-.65,2.71-2.29,2h0c-1.32-.59-2.93.31-2.59,1.46h0c.41,1.43-2,2.27-3.13,1.07h0c-.89-1-2.83-.64-3.14.52h0c-.38,1.43-3,1.43-3.42,0h0c-.31-1.16-2.25-1.48-3.14-.52h0c-1.1,1.2-3.54.36-3.13-1.07h0c.33-1.15-1.27-2-2.59-1.46h0c-1.64.75-3.42-.78-2.29-2h0c.91-.95-.08-2.27-1.6-2.14h0c-1.89.16-2.72-1.79-1.06-2.51h0c1.33-.58,1.12-2.11-.34-2.46h0c-1.81-.44-1.53-2.49.36-2.63h0c1.52-.11,2.14-1.57,1-2.35h0c-1.42-1-.09-2.76,1.71-2.29h0c1.45.37,2.78-.77,2.15-1.84h0C44.23,11.19,46.39,10,47.79,11h0c1.13.8,2.94.17,2.93-1h0c0-1.46,2.59-1.89,3.35-.55h0A2,2,0,0,0,57.27,9.41Z"/><path class="cls-14" d="M57,11.62h0c.62-1,2.74-.72,2.72.44h0c0,.92,1.47,1.41,2.38.79h0c1.14-.78,2.89.17,2.25,1.22h0c-.51.84.57,1.73,1.74,1.44h0c1.47-.37,2.55,1,1.39,1.8h0c-.93.61-.43,1.76.81,1.84h0c1.54.12,1.76,1.72.29,2.07h0c-1.19.28-1.35,1.47-.27,1.93h0c1.34.57.67,2.11-.86,2h0c-1.24-.1-2,.94-1.31,1.69h0c.92.92-.52,2.13-1.86,1.54h0c-1.07-.47-2.37.24-2.1,1.14h0c.33,1.13-1.65,1.79-2.54.85h0c-.72-.76-2.3-.51-2.55.4h0c-.31,1.13-2.47,1.13-2.78,0h0c-.25-.91-1.83-1.16-2.55-.4h0c-.89.94-2.87.28-2.54-.85h0c.27-.9-1-1.61-2.1-1.14h0c-1.33.59-2.78-.62-1.86-1.54h0c.73-.75-.07-1.79-1.3-1.69h0c-1.54.14-2.21-1.4-.86-2h0c1.08-.46.91-1.65-.28-1.93h0c-1.47-.35-1.24-1.95.29-2.07h0c1.24-.08,1.74-1.23.81-1.84h0c-1.16-.77-.08-2.17,1.39-1.8h0c1.18.29,2.26-.6,1.74-1.44h0c-.64-1.05,1.11-2,2.25-1.22h0c.92.62,2.39.13,2.38-.79h0c0-1.16,2.1-1.49,2.72-.44h0A1.64,1.64,0,0,0,57,11.62Z"/><path class="cls-13" d="M57,14.58h0c1-1,3.3-.49,3.25.71h0c0,.84,1.19,1.44,2.37,1.16h0c1.67-.4,3.09.92,2,1.87h0c-.77.66-.3,1.64.9,1.88h0c1.7.34,1.7,2,0,2.3h0c-1.2.24-1.67,1.22-.9,1.89h0c1.08.95-.34,2.26-2,1.86h0c-1.18-.28-2.41.32-2.37,1.16h0c0,1.2-2.25,1.7-3.25.72h0a2.31,2.31,0,0,0-2.93,0h0c-1,1-3.29.48-3.24-.72h0c0-.84-1.2-1.44-2.38-1.16h0c-1.67.4-3.08-.91-2-1.86h0c.76-.67.29-1.65-.91-1.89h0c-1.7-.34-1.7-2,0-2.3h0c1.2-.24,1.67-1.22.91-1.88h0c-1.08-.95.33-2.27,2-1.87h0c1.18.28,2.41-.32,2.38-1.16h0c-.05-1.2,2.24-1.7,3.24-.71h0A2.33,2.33,0,0,0,57,14.58Z"/><path class="cls-14" d="M56.63,16.15h0c.67-.75,2.2-.37,2.17.54h0c0,.63.8,1.09,1.58.88h0c1.12-.31,2.07.69,1.35,1.4h0c-.51.51-.2,1.25.6,1.43h0c1.14.25,1.14,1.48,0,1.74h0c-.8.18-1.11.91-.6,1.42h0c.72.71-.23,1.71-1.35,1.4h0c-.78-.21-1.61.25-1.58.88h0c0,.91-1.5,1.29-2.17.54h0a1.43,1.43,0,0,0-2,0h0c-.67.75-2.21.37-2.17-.54h0c0-.63-.8-1.09-1.59-.88h0c-1.12.31-2.06-.69-1.34-1.4h0c.51-.51.19-1.24-.61-1.42h0c-1.13-.26-1.13-1.49,0-1.74h0c.8-.18,1.12-.92.61-1.43h0c-.72-.71.22-1.71,1.34-1.4h0c.79.21,1.61-.25,1.59-.88h0c0-.91,1.5-1.29,2.17-.54h0A1.41,1.41,0,0,0,56.63,16.15Z"/><path class="cls-13" d="M56.43,18.94h0c1.09-.4,2.36.25,2.15,1.09h0A.88.88,0,0,0,59,21h0c.88.6.4,1.64-.82,1.77h0a1.55,1.55,0,0,0-1.11.56h0a1.82,1.82,0,0,1-2.66,0h0a1.55,1.55,0,0,0-1.11-.56h0c-1.22-.13-1.7-1.17-.82-1.77h0A.88.88,0,0,0,52.9,20h0c-.21-.84,1.06-1.49,2.15-1.09h0A2,2,0,0,0,56.43,18.94Z"/><path class="cls-13" d="M84.8,6.73h0c.76-1.34,3.37-.91,3.35.55h0c0,1.18,1.8,1.81,2.93,1h0c1.4-1,3.56.22,2.77,1.55h0c-.63,1.07.7,2.21,2.15,1.84h0c1.8-.47,3.13,1.32,1.71,2.29h0c-1.15.78-.53,2.24,1,2.35h0c1.89.14,2.17,2.19.36,2.63h0c-1.46.35-1.67,1.88-.34,2.46h0c1.66.72.83,2.68-1.06,2.51h0c-1.51-.13-2.51,1.19-1.6,2.14h0c1.13,1.18-.65,2.71-2.29,2h0c-1.32-.59-2.92.31-2.59,1.46h0c.41,1.43-2,2.27-3.13,1.07h0c-.89-1-2.83-.64-3.14.52h0c-.38,1.43-3,1.43-3.42,0h0c-.31-1.16-2.25-1.48-3.14-.52h0c-1.1,1.2-3.54.36-3.12-1.07h0c.33-1.15-1.28-2.05-2.6-1.46h0c-1.64.75-3.42-.78-2.29-2h0c.91-.95-.08-2.27-1.6-2.14h0c-1.89.17-2.72-1.79-1.06-2.51h0C69,20.83,68.8,19.3,67.35,19h0c-1.82-.44-1.54-2.49.35-2.63h0c1.52-.11,2.14-1.57,1-2.35h0c-1.42-1-.09-2.76,1.72-2.29h0c1.44.37,2.77-.77,2.14-1.84h0c-.79-1.33,1.37-2.54,2.77-1.55h0c1.13.8,2.94.17,2.93-1h0c0-1.46,2.59-1.89,3.35-.55h0A2,2,0,0,0,84.8,6.73Z"/><path class="cls-14" d="M84.52,8.94h0c.62-1,2.74-.72,2.72.44h0c0,.92,1.47,1.41,2.38.79h0c1.14-.78,2.89.17,2.25,1.22h0c-.51.84.57,1.73,1.74,1.44h0c1.47-.37,2.55,1,1.39,1.8h0c-.93.61-.43,1.76.81,1.84h0c1.54.12,1.76,1.72.29,2.07h0c-1.18.28-1.35,1.48-.27,1.93h0c1.34.57.67,2.11-.86,2h0c-1.24-.11-2,.93-1.3,1.68h0c.92.92-.53,2.13-1.87,1.54h0c-1.06-.47-2.37.24-2.1,1.14h0c.33,1.13-1.64,1.79-2.54.85h0c-.72-.76-2.3-.51-2.55.4h0c-.31,1.13-2.47,1.13-2.78,0h0a1.6,1.6,0,0,0-2.54-.4h0c-.9.94-2.88.28-2.55-.85h0c.27-.9-1-1.61-2.1-1.14h0c-1.33.59-2.78-.62-1.86-1.54h0c.74-.75-.07-1.79-1.3-1.68h0c-1.54.13-2.21-1.41-.86-2h0c1.08-.45.91-1.65-.27-1.93h0c-1.48-.35-1.25-1.95.29-2.07h0c1.23-.08,1.73-1.23.8-1.84h0c-1.16-.77-.07-2.17,1.39-1.8h0c1.18.29,2.26-.6,1.74-1.44h0c-.64-1.05,1.11-2,2.25-1.22h0c.92.62,2.39.13,2.38-.79h0c0-1.16,2.1-1.49,2.72-.44h0A1.64,1.64,0,0,0,84.52,8.94Z"/><path class="cls-13" d="M84.55,11.9h0c1-1,3.3-.49,3.25.71h0c0,.84,1.19,1.44,2.37,1.16h0c1.67-.4,3.09.92,2,1.87h0c-.77.66-.3,1.64.9,1.88h0c1.7.34,1.7,2,0,2.3h0c-1.2.24-1.67,1.22-.9,1.89h0c1.08.95-.34,2.26-2,1.86h0c-1.18-.28-2.41.32-2.37,1.16h0c0,1.2-2.24,1.7-3.25.72h0a2.31,2.31,0,0,0-2.93,0h0c-1,1-3.29.48-3.24-.72h0c0-.84-1.2-1.44-2.38-1.16h0c-1.67.4-3.08-.91-2-1.86h0c.76-.67.29-1.65-.91-1.89h0c-1.7-.34-1.7-2,0-2.3h0c1.2-.24,1.67-1.22.91-1.88h0c-1.08-1,.33-2.27,2-1.87h0c1.18.28,2.41-.32,2.38-1.16h0c0-1.2,2.24-1.7,3.24-.71h0A2.33,2.33,0,0,0,84.55,11.9Z"/><path class="cls-14" d="M84.16,13.47h0c.67-.75,2.2-.37,2.17.54h0c0,.63.8,1.09,1.59.88h0c1.11-.31,2.06.69,1.34,1.4h0c-.51.51-.2,1.25.6,1.43h0c1.14.25,1.14,1.48,0,1.74h0c-.8.18-1.11.91-.6,1.42h0c.72.71-.23,1.71-1.34,1.41h0c-.79-.22-1.61.24-1.59.87h0c0,.91-1.5,1.29-2.17.54h0a1.43,1.43,0,0,0-2,0h0c-.67.75-2.2.37-2.17-.54h0c0-.63-.8-1.09-1.59-.87h0c-1.12.3-2.06-.7-1.34-1.41h0c.51-.51.2-1.24-.61-1.42h0c-1.13-.26-1.13-1.49,0-1.74h0c.81-.18,1.12-.92.61-1.43h0c-.72-.71.22-1.71,1.34-1.4h0c.79.21,1.61-.25,1.59-.88h0c0-.91,1.5-1.29,2.17-.54h0A1.41,1.41,0,0,0,84.16,13.47Z"/><path class="cls-13" d="M84,16.26h0c1.09-.4,2.36.25,2.15,1.09h0a.87.87,0,0,0,.43.92h0c.88.6.39,1.64-.82,1.77h0a1.57,1.57,0,0,0-1.12.56h0a1.82,1.82,0,0,1-2.66,0h0A1.55,1.55,0,0,0,80.83,20h0c-1.22-.13-1.7-1.17-.82-1.77h0a.85.85,0,0,0,.42-.92h0c-.2-.84,1.07-1.49,2.15-1.09h0A2,2,0,0,0,84,16.26Z"/><path class="cls-13" d="M111.57,8.07h0c.76-1.34,3.37-.91,3.35.55h0c0,1.18,1.8,1.81,2.93,1h0c1.4-1,3.56.22,2.77,1.55h0c-.64,1.07.69,2.21,2.14,1.84h0c1.81-.47,3.14,1.31,1.72,2.29h0c-1.15.78-.54,2.24,1,2.35h0c1.89.14,2.17,2.19.35,2.63h0c-1.45.35-1.66,1.88-.33,2.46h0c1.66.72.83,2.67-1.06,2.51h0c-1.52-.13-2.51,1.19-1.6,2.14h0c1.13,1.18-.65,2.71-2.29,2h0c-1.32-.59-2.93.31-2.6,1.46h0c.42,1.43-2,2.27-3.13,1.07h0c-.88-1-2.83-.64-3.13.52h0c-.38,1.43-3.05,1.43-3.42,0h0c-.31-1.16-2.25-1.48-3.14-.52h0c-1.1,1.2-3.54.36-3.13-1.07h0c.33-1.15-1.27-2.05-2.59-1.46h0c-1.64.75-3.42-.78-2.29-2h0c.91-.95-.09-2.27-1.6-2.14h0c-1.9.16-2.72-1.79-1.06-2.51h0c1.33-.58,1.12-2.11-.34-2.46h0c-1.81-.44-1.53-2.49.36-2.63h0c1.52-.11,2.13-1.57,1-2.35h0c-1.43-1-.09-2.76,1.71-2.29h0c1.45.37,2.78-.77,2.15-1.84h0c-.79-1.33,1.36-2.54,2.77-1.55h0c1.12.8,2.94.17,2.93-1h0c0-1.46,2.59-1.89,3.35-.55h0A2,2,0,0,0,111.57,8.07Z"/><path class="cls-14" d="M111.29,10.28h0c.62-1,2.73-.72,2.72.44h0c0,.92,1.46,1.41,2.38.79h0c1.14-.78,2.89.17,2.25,1.22h0c-.52.84.56,1.73,1.74,1.44h0c1.47-.37,2.55,1,1.39,1.8h0c-.93.61-.43,1.76.8,1.84h0c1.54.12,1.77,1.72.3,2.07h0c-1.19.28-1.36,1.47-.28,1.93h0c1.35.57.68,2.11-.86,2h0c-1.23-.11-2,.93-1.3,1.68h0c.92.92-.53,2.13-1.86,1.54h0c-1.07-.47-2.37.24-2.1,1.14h0c.33,1.13-1.65,1.79-2.54.85h0c-.73-.76-2.3-.51-2.55.4h0c-.31,1.13-2.47,1.13-2.78,0h0c-.25-.91-1.83-1.16-2.55-.4h0c-.9.94-2.87.28-2.54-.85h0c.27-.9-1-1.61-2.1-1.14h0c-1.34.59-2.78-.62-1.87-1.54h0c.74-.75-.06-1.79-1.3-1.68h0c-1.53.13-2.2-1.41-.86-2h0c1.08-.46.92-1.65-.27-1.93h0c-1.47-.35-1.25-1.95.29-2.07h0c1.24-.08,1.74-1.23.81-1.84h0c-1.16-.77-.08-2.17,1.39-1.8h0c1.17.29,2.25-.6,1.74-1.44h0c-.64-1.05,1.11-2,2.25-1.22h0c.91.62,2.39.13,2.38-.79h0c0-1.16,2.1-1.49,2.72-.44h0A1.64,1.64,0,0,0,111.29,10.28Z"/><path class="cls-13" d="M111.32,13.24h0c1-1,3.29-.49,3.24.71h0c0,.84,1.2,1.44,2.38,1.16h0c1.67-.4,3.08.92,2,1.87h0c-.76.66-.29,1.64.91,1.88h0c1.7.34,1.7,2,0,2.3h0c-1.2.24-1.67,1.22-.91,1.89h0c1.08.95-.33,2.26-2,1.86h0c-1.18-.28-2.41.32-2.38,1.16h0c0,1.2-2.24,1.7-3.24.72h0a2.31,2.31,0,0,0-2.93,0h0c-1,1-3.3.48-3.25-.72h0c0-.84-1.19-1.44-2.37-1.16h0c-1.67.4-3.09-.91-2-1.86h0c.77-.67.3-1.65-.9-1.89h0c-1.7-.34-1.7-2,0-2.3h0c1.2-.24,1.67-1.22.9-1.88h0c-1.08-.95.34-2.27,2-1.87h0c1.18.28,2.41-.32,2.37-1.16h0c0-1.2,2.24-1.7,3.25-.71h0A2.33,2.33,0,0,0,111.32,13.24Z"/><path class="cls-14" d="M110.93,14.81h0c.67-.75,2.2-.37,2.17.54h0c0,.63.79,1.09,1.58.88h0c1.12-.31,2.07.69,1.34,1.4h0c-.51.51-.19,1.25.61,1.43h0c1.14.25,1.14,1.48,0,1.74h0c-.8.18-1.12.91-.61,1.42h0c.73.71-.22,1.71-1.34,1.41h0c-.79-.22-1.61.24-1.58.87h0c0,.91-1.5,1.29-2.17.54h0a1.44,1.44,0,0,0-2,0h0c-.67.75-2.2.37-2.17-.54h0c0-.63-.8-1.09-1.58-.87h0c-1.12.3-2.07-.7-1.34-1.41h0c.51-.51.19-1.24-.61-1.42h0c-1.14-.26-1.14-1.49,0-1.74h0c.8-.18,1.12-.92.61-1.43h0c-.73-.71.22-1.71,1.34-1.4h0c.78.21,1.61-.25,1.58-.88h0c0-.91,1.5-1.29,2.17-.54h0A1.42,1.42,0,0,0,110.93,14.81Z"/><path class="cls-13" d="M110.73,17.6h0c1.08-.4,2.35.25,2.15,1.09h0a.85.85,0,0,0,.42.92h0c.88.6.4,1.64-.82,1.77h0a1.55,1.55,0,0,0-1.11.56h0a1.82,1.82,0,0,1-2.66,0h0a1.57,1.57,0,0,0-1.12-.56h0c-1.21-.13-1.7-1.17-.82-1.77h0a.87.87,0,0,0,.43-.92h0c-.21-.84,1.06-1.49,2.15-1.09h0A2,2,0,0,0,110.73,17.6Z"/><path class="cls-13" d="M138.34,18.79h0c.76-1.34,3.36-.92,3.35.55h0c0,1.18,1.8,1.8,2.92,1h0c1.41-1,3.56.21,2.77,1.55h0c-.63,1.07.7,2.21,2.15,1.84h0c1.8-.47,3.14,1.31,1.71,2.29h0c-1.14.78-.53,2.24,1,2.35h0c1.9.14,2.18,2.18.36,2.63h0c-1.46.35-1.66,1.87-.34,2.45h0c1.66.73.84,2.68-1.05,2.52h0c-1.52-.14-2.51,1.19-1.61,2.14h0c1.14,1.18-.65,2.71-2.29,2h0c-1.31-.6-2.92.3-2.59,1.46h0c.41,1.43-2,2.27-3.13,1.07h0c-.89-1-2.83-.64-3.13.51h0c-.38,1.44-3,1.44-3.43,0h0c-.3-1.15-2.25-1.47-3.13-.51h0c-1.11,1.2-3.54.36-3.13-1.07h0c.33-1.16-1.28-2.06-2.59-1.46h0c-1.64.75-3.43-.78-2.3-2h0c.91-.95-.08-2.28-1.6-2.14h0c-1.89.16-2.71-1.79-1.06-2.52h0c1.33-.58,1.13-2.1-.33-2.45h0c-1.82-.45-1.54-2.49.36-2.63h0c1.52-.11,2.13-1.57,1-2.35h0c-1.43-1-.1-2.76,1.71-2.29h0c1.45.37,2.78-.77,2.14-1.84h0c-.79-1.34,1.37-2.54,2.77-1.55h0c1.13.79,3,.17,2.93-1h0c0-1.47,2.59-1.89,3.35-.55h0A2,2,0,0,0,138.34,18.79Z"/><path class="cls-14" d="M138.06,21h0c.61-1.06,2.73-.72,2.72.43h0c0,.93,1.46,1.42,2.37.79h0c1.14-.78,2.9.17,2.25,1.22h0c-.51.85.57,1.74,1.75,1.45h0c1.46-.37,2.54,1,1.39,1.8h0c-.93.61-.43,1.75.8,1.84h0c1.54.11,1.77,1.72.29,2.07h0c-1.18.28-1.35,1.47-.27,1.93h0c1.35.57.68,2.1-.86,2h0c-1.23-.1-2,.94-1.3,1.69h0c.92.92-.53,2.12-1.86,1.54h0c-1.07-.47-2.38.24-2.11,1.14h0c.34,1.13-1.64,1.78-2.54.84h0c-.72-.75-2.3-.5-2.54.41h0c-.31,1.13-2.48,1.13-2.79,0h0c-.24-.91-1.82-1.16-2.54-.41h0c-.9.94-2.88.29-2.54-.84h0c.27-.9-1-1.61-2.11-1.14h0c-1.33.58-2.78-.62-1.86-1.54h0c.74-.75-.07-1.79-1.3-1.69h0c-1.54.13-2.2-1.4-.86-2h0c1.08-.46.91-1.65-.27-1.93h0c-1.48-.35-1.25-2,.29-2.07h0c1.23-.09,1.73-1.23.8-1.84h0c-1.15-.77-.07-2.17,1.39-1.8h0c1.18.29,2.26-.6,1.75-1.45h0c-.65-1.05,1.11-2,2.25-1.22h0c.91.63,2.38.14,2.37-.79h0c0-1.15,2.11-1.49,2.72-.43h0A1.65,1.65,0,0,0,138.06,21Z"/><path class="cls-13" d="M138.09,24h0c1-1,3.29-.48,3.24.72h0c0,.84,1.2,1.44,2.37,1.16h0c1.68-.4,3.09.91,2,1.86h0c-.76.67-.29,1.65.91,1.89h0c1.7.34,1.7,2,0,2.3h0c-1.2.24-1.67,1.22-.91,1.89h0c1.08.94-.33,2.26-2,1.86h0c-1.17-.28-2.4.32-2.37,1.16h0c0,1.2-2.24,1.7-3.24.71h0a2.35,2.35,0,0,0-2.94,0h0c-1,1-3.29.49-3.24-.71h0c0-.84-1.2-1.44-2.37-1.16h0c-1.67.4-3.09-.92-2-1.86h0c.76-.67.29-1.65-.91-1.89h0c-1.7-.34-1.7-2,0-2.3h0c1.2-.24,1.67-1.22.91-1.89h0c-1.08-1,.34-2.26,2-1.86h0c1.17.28,2.4-.32,2.37-1.16h0c0-1.2,2.24-1.7,3.24-.72h0A2.32,2.32,0,0,0,138.09,24Z"/><path class="cls-14" d="M137.69,25.53h0c.67-.75,2.2-.37,2.17.54h0c0,.63.8,1.09,1.59.88h0c1.12-.31,2.06.69,1.34,1.4h0c-.51.51-.2,1.24.61,1.42h0c1.13.26,1.13,1.49,0,1.74h0c-.81.18-1.12.92-.61,1.43h0c.72.71-.22,1.71-1.34,1.4h0c-.79-.21-1.61.25-1.59.88h0c0,.91-1.5,1.29-2.17.54h0a1.41,1.41,0,0,0-2,0h0c-.67.75-2.2.37-2.17-.54h0c0-.63-.8-1.09-1.59-.88h0c-1.11.31-2.06-.69-1.34-1.4h0c.51-.51.2-1.25-.6-1.43h0c-1.14-.25-1.14-1.48,0-1.74h0c.8-.18,1.11-.91.6-1.42h0c-.72-.71.23-1.71,1.34-1.4h0c.79.21,1.61-.25,1.59-.88h0c0-.91,1.5-1.29,2.17-.54h0A1.43,1.43,0,0,0,137.69,25.53Z"/><path class="cls-13" d="M137.49,28.32h0c1.09-.4,2.36.24,2.15,1.09h0a.87.87,0,0,0,.43.92h0c.88.6.39,1.64-.82,1.77h0a1.56,1.56,0,0,0-1.12.56h0a1.81,1.81,0,0,1-2.65,0h0a1.56,1.56,0,0,0-1.12-.56h0c-1.21-.13-1.7-1.17-.82-1.77h0a.87.87,0,0,0,.43-.92h0c-.21-.85,1.06-1.49,2.15-1.09h0A2,2,0,0,0,137.49,28.32Z"/><path class="cls-5" d="M64.57,59.68s-4.11-1.63-5.71-4.19"/><path class="cls-5" d="M63,62.36s-4.11-1.63-5.71-4.19"/></g></g></svg>