<svg xmlns="http://www.w3.org/2000/svg" width="145" height="180" viewBox="0 0 145 180"><defs><style>.cls-1{fill:#fc8330;}.cls-2{fill:#eb5b27;}.cls-3{fill:#ee6b11;}.cls-4{fill:#ee8d2c;}.cls-5{fill:#eaaf2d;}.cls-6{fill:#ca622d;}.cls-7{fill:#6b3310;}.cls-8{fill:#e9b399;}.cls-9{fill:#039d45;}</style></defs><g id="Animated_items" data-name="Animated items"><g id="flower_vase-3" data-name="flower vase"><path class="cls-1" d="M137.83,53.31c.48,1.5-2.35,2.38-3.63,1.13h0c-1-1-3.28-.68-3.63.53h0c-.44,1.51-3.53,1.51-4,0h0c-.36-1.21-2.61-1.54-3.64-.53h0c-1.28,1.25-4.1.37-3.63-1.13h0c.39-1.21-1.48-2.15-3-1.52h0c-1.9.78-4-.82-2.66-2.06h0c1.06-1-.1-2.38-1.86-2.24h0c-2.19.17-3.14-1.88-1.22-2.64h0c1.54-.61,1.3-2.2-.39-2.57h0c-2.11-.47-1.78-2.61.41-2.76h0c1.77-.12,2.48-1.64,1.15-2.46h0c-1.65-1-.11-2.89,2-2.4h0c1.68.39,3.22-.8,2.48-1.92h0c-.91-1.41,1.59-2.67,3.22-1.63h0c1.3.83,3.41.18,3.39-1.06h0c0-1.53,3-2,3.88-.57h0a2.46,2.46,0,0,0,3.72,0h0c.88-1.41,3.9-1,3.88.57h0c0,1.24,2.09,1.89,3.4,1.06h0c1.62-1,4.12.22,3.21,1.63"/><path class="cls-2" d="M138.56,49.32c-1.24-.49-2.76.25-2.45,1.2h0c.39,1.18-1.9,1.87-2.94.88h0c-.84-.79-2.67-.53-2.95.42h0c-.36,1.19-2.87,1.19-3.23,0h0c-.28-1-2.11-1.21-2.95-.42h0c-1,1-3.33.3-2.94-.88h0c.31-1-1.21-1.69-2.44-1.2h0c-1.55.61-3.23-.64-2.16-1.62h0c.85-.78-.08-1.87-1.51-1.76h0c-1.78.14-2.56-1.47-1-2.07h0c1.25-.48,1.06-1.73-.31-2h0c-1.71-.37-1.45-2.05.33-2.17h0c1.44-.09,2-1.29.94-1.93h0c-1.35-.8-.09-2.27,1.61-1.88h0c1.36.3,2.61-.63,2-1.52h0c-.75-1.1,1.28-2.09,2.61-1.28h0c1.06.66,2.77.15,2.75-.82h0c0-1.21,2.44-1.56,3.16-.46h0a2,2,0,0,0,3,0h0c.72-1.1,3.17-.75,3.16.46h0c0,1,1.69,1.48,2.75.82h0c1.33-.81,3.36.18,2.61,1.28"/><path class="cls-1" d="M139,45.17c1.25,1-.39,2.37-2.33,1.95h0c-1.36-.3-2.79.34-2.75,1.22h0c.06,1.25-2.6,1.78-3.76.75h0a2.91,2.91,0,0,0-3.4,0h0c-1.16,1-3.82.5-3.76-.75h0c0-.88-1.39-1.52-2.75-1.22h0c-1.94.42-3.58-1-2.33-1.95h0c.89-.7.34-1.73-1-2h0c-2-.35-2-2.06,0-2.41h0c1.39-.25,1.94-1.27,1-2h0c-1.25-1,.39-2.38,2.33-2h0c1.36.3,2.79-.33,2.75-1.22h0c-.06-1.25,2.6-1.78,3.76-.74h0a2.91,2.91,0,0,0,3.4,0h0c1.16-1,3.82-.51,3.76.74h0c0,.89,1.39,1.52,2.75,1.22h0c1.94-.42,3.58,1,2.33,2"/><path class="cls-2" d="M129.69,36.54h0c.78-.79,2.55-.39,2.52.56h0c0,.67.92,1.14,1.84.92h0c1.29-.32,2.39.72,1.55,1.48h0c-.59.52-.23,1.3.7,1.49h0c1.32.26,1.32,1.55,0,1.82h0c-.93.19-1.29,1-.7,1.49h0c.84.75-.26,1.79-1.55,1.47h0c-.92-.22-1.87.26-1.84.92h0c0,1-1.74,1.35-2.52.57h0a1.77,1.77,0,0,0-2.27,0h0c-.78.78-2.56.38-2.52-.57h0c0-.66-.93-1.14-1.84-.92h0c-1.29.32-2.39-.72-1.55-1.47h0c.59-.53.22-1.3-.71-1.49h0c-1.31-.27-1.31-1.56,0-1.82h0c.93-.19,1.3-1,.71-1.49h0c-.84-.76.26-1.8,1.55-1.48h0c.91.22,1.87-.25,1.84-.92h0c0-1,1.74-1.35,2.52-.56h0A1.77,1.77,0,0,0,129.69,36.54Z"/><path class="cls-1" d="M129.46,39.46h0c1.26-.42,2.73.26,2.49,1.14h0a.89.89,0,0,0,.5,1h0c1,.62.45,1.72-.95,1.85h0a1.87,1.87,0,0,0-1.3.59h0a2.26,2.26,0,0,1-3.08,0h0a1.85,1.85,0,0,0-1.29-.59h0c-1.41-.13-2-1.23-1-1.85h0a.88.88,0,0,0,.49-1h0c-.24-.88,1.23-1.56,2.49-1.14h0A2.57,2.57,0,0,0,129.46,39.46Z"/><path class="cls-3" d="M30.77,35.8h0c.85-1.27,3.78-.86,3.76.52h0c0,1.11,2,1.7,3.29,1h0c1.57-.93,4,.21,3.11,1.47h0c-.71,1,.78,2.08,2.41,1.73h0c2-.44,3.52,1.24,1.92,2.16h0c-1.28.73-.6,2.11,1.11,2.21h0c2.13.14,2.44,2.07.4,2.48h0c-1.63.34-1.87,1.77-.37,2.32h0c1.86.68.93,2.53-1.19,2.37h0c-1.71-.12-2.82,1.13-1.8,2h0c1.27,1.11-.73,2.56-2.57,1.85h0c-1.48-.56-3.29.29-2.92,1.37h0c.47,1.36-2.27,2.14-3.51,1h0c-1-.91-3.18-.61-3.52.48h0c-.43,1.36-3.42,1.36-3.85,0h0c-.34-1.09-2.52-1.39-3.52-.48h0c-1.24,1.12-4,.34-3.51-1h0c.37-1.08-1.43-1.93-2.91-1.37h0c-1.84.71-3.85-.74-2.58-1.85h0c1-.89-.09-2.14-1.8-2h0c-2.12.16-3.05-1.69-1.18-2.37h0c1.49-.55,1.26-2-.38-2.32h0c-2-.41-1.73-2.34.4-2.48h0c1.71-.1,2.4-1.48,1.11-2.21h0c-1.6-.92-.1-2.6,1.93-2.16h0c1.62.35,3.12-.72,2.41-1.73h0c-.89-1.26,1.53-2.4,3.11-1.47h0c1.26.75,3.3.16,3.29-1h0c0-1.38,2.9-1.79,3.76-.52h0A2.5,2.5,0,0,0,30.77,35.8Z"/><path class="cls-4" d="M30.45,37.89h0c.69-1,3.07-.68,3.06.41h0c0,.87,1.64,1.33,2.67.74h0c1.28-.73,3.24.16,2.52,1.15h0c-.57.8.64,1.64,2,1.36h0c1.65-.34,2.86,1,1.56,1.7h0c-1,.58-.48,1.66.91,1.74h0c1.72.11,2,1.62.32,1.95h0c-1.33.26-1.52,1.39-.3,1.82h0c1.51.54.76,2-1,1.86h0c-1.38-.1-2.29.89-1.46,1.59h0c1,.87-.59,2-2.09,1.45h0c-1.2-.44-2.67.23-2.37,1.08h0c.38,1.06-1.84,1.68-2.85.8h0c-.81-.71-2.58-.48-2.86.38h0c-.34,1.06-2.78,1.06-3.12,0h0c-.28-.86-2.05-1.09-2.86-.38h0c-1,.88-3.23.26-2.85-.8h0c.3-.85-1.17-1.52-2.37-1.08h0c-1.49.56-3.12-.58-2.09-1.45h0c.83-.7-.08-1.69-1.46-1.59h0c-1.73.12-2.48-1.32-1-1.86h0c1.22-.43,1-1.56-.3-1.82h0c-1.66-.33-1.4-1.84.33-1.95h0c1.38-.08,1.94-1.16.9-1.74h0c-1.3-.72-.09-2,1.56-1.7h0c1.32.28,2.53-.56,2-1.36h0c-.72-1,1.24-1.88,2.52-1.15h0c1,.59,2.69.13,2.67-.74h0c0-1.09,2.37-1.41,3.06-.41h0A2.08,2.08,0,0,0,30.45,37.89Z"/><path class="cls-3" d="M30.49,40.67h0c1.12-.93,3.69-.46,3.64.67h0c0,.8,1.34,1.37,2.67,1.1h0c1.87-.38,3.46.86,2.25,1.76h0c-.86.63-.33,1.55,1,1.78h0c1.91.32,1.91,1.85,0,2.17h0c-1.35.22-1.88,1.14-1,1.78h0c1.21.89-.38,2.13-2.25,1.75h0c-1.33-.26-2.71.31-2.67,1.1h0c0,1.13-2.52,1.6-3.64.67h0a3,3,0,0,0-3.3,0h0c-1.12.93-3.7.46-3.64-.67h0c0-.79-1.35-1.36-2.67-1.1h0c-1.87.38-3.46-.86-2.25-1.75h0c.86-.64.33-1.56-1-1.78h0c-1.91-.32-1.91-1.85,0-2.17h0c1.35-.23,1.88-1.15,1-1.78h0c-1.21-.9.38-2.14,2.25-1.76h0c1.32.27,2.71-.3,2.67-1.1h0c-.06-1.13,2.52-1.6,3.64-.67h0A3,3,0,0,0,30.49,40.67Z"/><path class="cls-4" d="M30,42.16h0c.76-.71,2.48-.35,2.44.5h0c0,.6.9,1,1.78.83h0c1.26-.28,2.32.65,1.51,1.33h0c-.58.48-.22,1.17.68,1.34h0c1.28.24,1.28,1.4,0,1.64h0c-.9.17-1.26.87-.68,1.34h0c.81.68-.25,1.62-1.51,1.33h0c-.88-.2-1.81.23-1.78.83h0c0,.85-1.68,1.21-2.44.51h0a1.8,1.8,0,0,0-2.2,0h0c-.75.7-2.47.34-2.44-.51h0c0-.6-.9-1-1.78-.83h0c-1.25.29-2.32-.65-1.51-1.33h0c.58-.47.22-1.17-.68-1.34h0c-1.27-.24-1.27-1.4,0-1.64h0c.9-.17,1.26-.86.68-1.34h0c-.81-.68.26-1.61,1.51-1.33h0c.88.2,1.81-.23,1.78-.83h0c0-.85,1.69-1.21,2.44-.5h0A1.83,1.83,0,0,0,30,42.16Z"/><path class="cls-3" d="M29.82,44.79h0c1.22-.38,2.65.23,2.41,1h0a.77.77,0,0,0,.48.86h0c1,.57.44,1.55-.92,1.67h0a1.91,1.91,0,0,0-1.25.53h0a2.31,2.31,0,0,1-3,0h0a1.91,1.91,0,0,0-1.25-.53h0c-1.36-.12-1.91-1.1-.92-1.67h0a.77.77,0,0,0,.48-.86h0c-.24-.8,1.19-1.41,2.41-1h0A2.73,2.73,0,0,0,29.82,44.79Z"/><path class="cls-1" d="M81.73,30.42h0c1-1.46,4.27-1,4.25.6h0c0,1.27,2.29,1.95,3.71,1.09h0c1.78-1.08,4.52.23,3.52,1.68h0c-.81,1.16.88,2.39,2.72,2h0c2.29-.51,4,1.42,2.17,2.48h0c-1.45.84-.67,2.42,1.25,2.54h0c2.41.15,2.76,2.37.46,2.85h0c-1.85.38-2.11,2-.43,2.66h0c2.1.78,1.06,2.9-1.34,2.72h0c-1.92-.14-3.18,1.29-2,2.32h0c1.43,1.28-.83,2.93-2.91,2.12h0c-1.67-.64-3.7.33-3.28,1.58h0c.52,1.55-2.57,2.46-4,1.16h0c-1.13-1-3.59-.69-4,.56h0c-.48,1.56-3.86,1.56-4.34,0h0c-.39-1.25-2.85-1.6-4-.56h0c-1.41,1.3-4.49.39-4-1.16h0C70,53.8,68,52.83,66.3,53.47h0c-2.08.81-4.34-.84-2.9-2.12h0c1.15-1-.11-2.46-2-2.32h0c-2.39.18-3.44-1.94-1.34-2.72h0c1.69-.63,1.42-2.28-.42-2.66h0c-2.31-.48-2-2.7.45-2.85h0c1.93-.12,2.71-1.7,1.26-2.54h0c-1.81-1.06-.12-3,2.17-2.48h0c1.83.4,3.52-.83,2.72-2h0c-1-1.45,1.73-2.76,3.51-1.68h0c1.43.86,3.73.18,3.71-1.09h0c0-1.59,3.29-2.06,4.25-.6h0A2.79,2.79,0,0,0,81.73,30.42Z"/><path class="cls-2" d="M81.38,32.82h0c.78-1.15,3.47-.79,3.45.46h0c0,1,1.85,1.54,3,.86h0c1.45-.85,3.67.18,2.86,1.32h0c-.66.91.71,1.88,2.2,1.56h0c1.86-.39,3.24,1.12,1.77,1.95h0c-1.18.66-.55,1.9,1,2h0c2,.12,2.24,1.86.37,2.23h0c-1.5.31-1.72,1.6-.35,2.1h0c1.71.61.86,2.28-1.09,2.13h0c-1.56-.11-2.58,1-1.65,1.83h0c1.17,1-.67,2.3-2.36,1.67h0c-1.35-.51-3,.25-2.67,1.23h0c.43,1.22-2.08,1.93-3.22.92h0c-.91-.82-2.91-.55-3.23.43h0c-.39,1.23-3.13,1.23-3.52,0h0c-.32-1-2.32-1.25-3.23-.43h0c-1.14,1-3.65.3-3.22-.92h0c.34-1-1.32-1.74-2.67-1.23h0c-1.69.63-3.53-.67-2.36-1.67h0c.93-.81-.09-1.94-1.65-1.83h0c-2,.15-2.8-1.52-1.09-2.13h0c1.36-.5,1.15-1.79-.35-2.1h0c-1.87-.37-1.58-2.11.37-2.23h0c1.57-.1,2.2-1.34,1-2h0c-1.47-.83-.1-2.34,1.76-1.95h0c1.49.32,2.86-.65,2.21-1.56h0c-.81-1.14,1.41-2.17,2.85-1.32h0c1.16.68,3,.15,3-.86h0c0-1.25,2.67-1.61,3.45-.46h0A2.34,2.34,0,0,0,81.38,32.82Z"/><path class="cls-1" d="M81.42,36h0c1.27-1.07,4.17-.52,4.11.77h0c0,.92,1.52,1.57,3,1.26h0c2.12-.43,3.91,1,2.54,2h0c-1,.72-.37,1.78,1.15,2h0c2.16.37,2.16,2.13,0,2.49h0c-1.52.26-2.11,1.32-1.15,2h0c1.37,1-.42,2.46-2.54,2h0c-1.49-.3-3.05.35-3,1.26h0c.06,1.3-2.84,1.84-4.11.77h0a3.36,3.36,0,0,0-3.72,0h0c-1.27,1.07-4.18.53-4.12-.77h0c0-.91-1.51-1.56-3-1.26h0c-2.11.44-3.91-1-2.54-2h0c1-.72.37-1.78-1.15-2h0c-2.15-.36-2.15-2.12,0-2.49h0c1.52-.26,2.12-1.32,1.15-2h0c-1.37-1,.43-2.45,2.54-2h0c1.5.31,3.06-.34,3-1.26h0c-.06-1.29,2.85-1.84,4.12-.77h0A3.36,3.36,0,0,0,81.42,36Z"/><path class="cls-2" d="M80.92,37.72h0c.85-.81,2.79-.4,2.75.58h0c0,.69,1,1.18,2,1h0c1.42-.33,2.62.75,1.7,1.52h0c-.65.55-.25,1.35.77,1.54h0c1.44.28,1.44,1.61,0,1.89h0c-1,.19-1.42,1-.77,1.54h0c.92.77-.28,1.85-1.7,1.52h0c-1-.23-2,.26-2,1h0c0,1-1.9,1.39-2.75.59h0a2,2,0,0,0-2.49,0h0c-.85.8-2.79.39-2.75-.59h0c0-.69-1-1.18-2-1h0c-1.42.33-2.62-.75-1.7-1.52h0c.64-.55.24-1.35-.77-1.54h0c-1.45-.28-1.45-1.61,0-1.89h0c1-.19,1.41-1,.77-1.54h0c-.92-.77.28-1.85,1.7-1.52h0c1,.23,2-.26,2-1h0c0-1,1.9-1.39,2.75-.58h0A2.06,2.06,0,0,0,80.92,37.72Z"/><path class="cls-1" d="M80.67,40.74h0c1.37-.44,3,.26,2.72,1.18h0a.9.9,0,0,0,.54,1h0c1.12.65.5,1.78-1,1.92h0a2.06,2.06,0,0,0-1.41.61h0a2.59,2.59,0,0,1-3.37,0h0a2.11,2.11,0,0,0-1.42-.61h0c-1.54-.14-2.15-1.27-1-1.92h0a.88.88,0,0,0,.54-1h0c-.26-.92,1.35-1.62,2.73-1.18h0A3.07,3.07,0,0,0,80.67,40.74Z"/><path class="cls-1" d="M100.3,8.47h0c1-1.51,4.26-1,4.24.61h0c0,1.32,2.29,2,3.72,1.13h0c1.78-1.11,4.51.24,3.51,1.73h0c-.8,1.2.88,2.47,2.72,2.06h0c2.29-.52,4,1.47,2.17,2.55h0c-1.45.88-.67,2.51,1.25,2.63h0c2.41.16,2.76,2.45.46,2.94h0c-1.85.39-2.11,2.1-.43,2.75h0c2.1.81,1.06,3-1.34,2.81h0c-1.92-.15-3.18,1.33-2,2.39h0c1.44,1.32-.83,3-2.91,2.19h0c-1.66-.66-3.7.34-3.28,1.63h0c.52,1.6-2.57,2.54-4,1.2h0c-1.12-1.07-3.59-.72-4,.57h0c-.48,1.61-3.86,1.61-4.34,0h0c-.38-1.29-2.85-1.64-4-.57h0c-1.4,1.34-4.49.4-4-1.2h0c.42-1.29-1.62-2.29-3.29-1.63h0c-2.08.84-4.34-.87-2.9-2.19h0c1.15-1.06-.11-2.54-2-2.39h0c-2.4.18-3.45-2-1.35-2.81h0c1.69-.65,1.43-2.36-.42-2.75h0c-2.3-.49-2-2.78.45-2.94h0c1.93-.12,2.71-1.75,1.26-2.63h0C78.06,15.47,79.75,13.48,82,14h0c1.84.41,3.52-.86,2.72-2.06h0c-1-1.49,1.73-2.84,3.51-1.73h0C89.7,11.1,92,10.4,92,9.08h0c0-1.64,3.29-2.12,4.25-.61h0A2.74,2.74,0,0,0,100.3,8.47Z"/><path class="cls-5" d="M99.94,10.94h0c.78-1.18,3.47-.81,3.45.48h0c0,1,1.85,1.58,3,.88h0c1.45-.87,3.67.19,2.86,1.37h0c-.65.94.71,1.94,2.21,1.61h0c1.85-.41,3.23,1.16,1.76,2h0c-1.18.69-.55,2,1,2.07h0c2,.12,2.24,1.91.37,2.3h0c-1.5.31-1.72,1.65-.35,2.16h0c1.71.64.86,2.35-1.09,2.21h0c-1.56-.12-2.58,1-1.65,1.88h0c1.17,1-.67,2.38-2.36,1.72h0c-1.35-.52-3,.27-2.67,1.28h0c.43,1.26-2.08,2-3.22.94h0c-.91-.84-2.91-.56-3.23.45h0c-.39,1.27-3.13,1.27-3.52,0h0c-.32-1-2.32-1.29-3.23-.45h0c-1.14,1-3.65.32-3.22-.94h0c.34-1-1.32-1.8-2.67-1.28h0c-1.69.66-3.53-.68-2.36-1.72h0c.93-.83-.09-2-1.65-1.88h0c-2,.14-2.8-1.57-1.09-2.21h0c1.37-.51,1.15-1.85-.35-2.16h0c-1.87-.39-1.58-2.18.37-2.3h0c1.57-.1,2.2-1.38,1-2.07h0c-1.47-.85-.09-2.42,1.76-2h0c1.5.33,2.86-.67,2.21-1.61h0c-.81-1.18,1.41-2.24,2.86-1.37h0c1.16.7,3,.16,3-.88h0c0-1.29,2.67-1.66,3.45-.48h0A2.27,2.27,0,0,0,99.94,10.94Z"/><path class="cls-1" d="M100,14.24h0c1.27-1.11,4.18-.55,4.11.79h0c0,1,1.52,1.62,3,1.3h0c2.12-.44,3.92,1,2.54,2.09h0c-1,.74-.37,1.84,1.15,2.1h0c2.16.38,2.16,2.2,0,2.58h0c-1.52.26-2.11,1.36-1.15,2.1h0c1.38,1.06-.42,2.53-2.54,2.09h0c-1.49-.32-3,.36-3,1.3h0c.07,1.34-2.84,1.9-4.11.79h0a3.28,3.28,0,0,0-3.72,0h0c-1.27,1.11-4.18.55-4.11-.79h0c0-.94-1.52-1.62-3-1.3h0c-2.12.44-3.92-1-2.55-2.09h0c1-.74.37-1.84-1.15-2.1h0c-2.15-.38-2.15-2.2,0-2.58h0c1.52-.26,2.12-1.36,1.15-2.1h0c-1.37-1.06.43-2.53,2.55-2.09h0c1.49.32,3-.35,3-1.3h0c-.07-1.34,2.84-1.9,4.11-.79h0A3.25,3.25,0,0,0,100,14.24Z"/><path class="cls-5" d="M99.48,16h0c.85-.84,2.79-.41,2.75.6h0c0,.71,1,1.22,2,1h0c1.42-.34,2.62.77,1.7,1.57h0c-.64.57-.25,1.39.77,1.59h0c1.44.29,1.44,1.66,0,2h0c-1,.2-1.41,1-.77,1.59h0c.92.8-.28,1.91-1.7,1.57h0c-1-.24-2,.27-2,1h0c0,1-1.9,1.44-2.75.6h0a2,2,0,0,0-2.49,0h0c-.85.84-2.79.41-2.75-.6h0c0-.71-1-1.22-2-1h0c-1.42.34-2.62-.77-1.7-1.57h0c.64-.57.24-1.39-.77-1.59h0c-1.44-.29-1.44-1.66,0-2h0c1-.2,1.41-1,.77-1.59h0c-.92-.8.28-1.91,1.7-1.57h0c1,.24,2-.27,2-1h0c0-1,1.9-1.44,2.75-.6h0A2,2,0,0,0,99.48,16Z"/><path class="cls-1" d="M99.23,19.12h0c1.38-.45,3,.27,2.72,1.22h0a.93.93,0,0,0,.54,1h0c1.12.67.5,1.84-1,2h0A2,2,0,0,0,100,24h0a2.52,2.52,0,0,1-3.37,0h0a2.06,2.06,0,0,0-1.42-.63h0c-1.54-.14-2.15-1.31-1-2h0a.91.91,0,0,0,.54-1h0c-.26-.95,1.35-1.67,2.73-1.22h0A3.07,3.07,0,0,0,99.23,19.12Z"/><path class="cls-1" d="M22.1,51.52h0c.86-1.51,3.79-1,3.77.61h0c0,1.32,2,2,3.28,1.13h0c1.58-1.11,4,.24,3.12,1.73h0c-.72,1.2.78,2.47,2.4,2.06h0c2-.53,3.53,1.47,1.93,2.55h0c-1.29.88-.6,2.51,1.11,2.63h0c2.13.16,2.44,2.44.4,2.94h0c-1.63.39-1.87,2.1-.37,2.75h0c1.86.81.93,3-1.19,2.81h0c-1.71-.15-2.82,1.33-1.8,2.39h0c1.27,1.32-.73,3-2.58,2.19h0c-1.47-.66-3.28.34-2.91,1.63h0c.46,1.6-2.27,2.54-3.51,1.2h0c-1-1.07-3.18-.72-3.52.57h0c-.43,1.61-3.42,1.61-3.85,0h0c-.34-1.29-2.52-1.64-3.52-.57h0c-1.24,1.34-4,.4-3.51-1.2h0c.37-1.29-1.44-2.29-2.91-1.63h0c-1.85.84-3.85-.87-2.58-2.19h0c1-1.06-.09-2.54-1.8-2.39h0c-2.12.18-3-2-1.19-2.81h0c1.5-.65,1.26-2.36-.37-2.75h0c-2-.5-1.73-2.78.4-2.94h0C4.61,62.11,5.3,60.48,4,59.6H4c-1.6-1.08-.1-3.08,1.92-2.55h0c1.63.41,3.12-.86,2.41-2.06h0c-.88-1.49,1.54-2.84,3.11-1.73h0c1.27.89,3.31.19,3.29-1.13h0c0-1.64,2.91-2.12,3.76-.61h0A2.24,2.24,0,0,0,22.1,51.52Z"/><path class="cls-5" d="M21.79,54h0c.69-1.18,3.07-.81,3.05.48h0c0,1,1.65,1.58,2.68.88h0c1.28-.87,3.24.19,2.52,1.37h0c-.58.94.64,1.94,2,1.61h0c1.64-.41,2.86,1.16,1.56,2h0c-1,.69-.48,2,.9,2.06h0c1.73.13,2,1.92.33,2.31h0c-1.33.31-1.52,1.65-.31,2.16h0c1.52.64.76,2.35-1,2.21h0c-1.39-.12-2.29,1-1.46,1.88h0c1,1-.6,2.38-2.09,1.72h0c-1.2-.52-2.67.27-2.37,1.28h0c.38,1.26-1.84,2-2.85.94h0c-.81-.84-2.58-.56-2.86.45h0c-.35,1.27-2.78,1.27-3.12,0h0c-.28-1-2.05-1.29-2.86-.45h0c-1,1-3.23.32-2.86-.94h0c.31-1-1.16-1.8-2.36-1.28h0C9.19,73.34,7.57,72,8.6,71h0c.83-.83-.08-2-1.46-1.88h0c-1.73.14-2.48-1.57-1-2.21h0c1.21-.51,1-1.85-.3-2.16h0c-1.66-.39-1.41-2.18.32-2.31h0c1.39-.09,2-1.37.91-2.06h0c-1.3-.85-.09-2.42,1.56-2h0c1.32.33,2.53-.67,1.95-1.61h0c-.72-1.18,1.25-2.24,2.53-1.37h0c1,.7,2.68.16,2.67-.88h0c0-1.29,2.36-1.66,3.06-.48h0A1.85,1.85,0,0,0,21.79,54Z"/><path class="cls-1" d="M21.82,57.29h0c1.13-1.11,3.7-.55,3.65.79h0c0,1,1.34,1.62,2.66,1.3h0c1.88-.44,3.47,1,2.26,2.09h0c-.86.74-.33,1.84,1,2.1h0c1.91.38,1.91,2.2,0,2.58h0c-1.34.26-1.87,1.36-1,2.1h0c1.21,1.06-.38,2.53-2.26,2.09h0c-1.32-.32-2.7.35-2.66,1.3h0c.05,1.34-2.52,1.9-3.65.79h0a2.63,2.63,0,0,0-3.29,0h0c-1.13,1.11-3.7.55-3.64-.79h0c0-1-1.35-1.62-2.67-1.3h0c-1.88.44-3.47-1-2.25-2.09h0c.85-.74.33-1.84-1-2.1H9C7,65.77,7,64,9,63.57H9c1.35-.26,1.87-1.36,1-2.1h0c-1.22-1.06.37-2.53,2.25-2.09h0c1.32.32,2.7-.35,2.67-1.3h0c-.06-1.34,2.51-1.9,3.64-.79h0A2.63,2.63,0,0,0,21.82,57.29Z"/><path class="cls-5" d="M21.38,59.05h0c.75-.84,2.47-.41,2.44.6h0c0,.71.9,1.22,1.78,1h0c1.25-.34,2.32.77,1.51,1.57h0c-.58.57-.22,1.39.68,1.59h0c1.27.29,1.27,1.66,0,1.95h0c-.9.2-1.26,1-.68,1.59h0c.81.8-.26,1.91-1.51,1.57h0c-.88-.24-1.81.27-1.78,1h0c0,1-1.69,1.44-2.44.6h0a1.61,1.61,0,0,0-2.2,0h0c-.76.84-2.48.41-2.44-.6h0c0-.71-.9-1.22-1.78-1h0c-1.26.34-2.32-.77-1.51-1.57h0c.57-.57.22-1.39-.68-1.59h0c-1.28-.29-1.28-1.66,0-1.95h0c.9-.2,1.25-1,.68-1.59h0c-.81-.8.25-1.91,1.51-1.57h0c.88.24,1.81-.27,1.78-1h0c0-1,1.68-1.44,2.44-.6h0A1.61,1.61,0,0,0,21.38,59.05Z"/><path class="cls-1" d="M21.16,62.17h0c1.22-.45,2.64.27,2.41,1.22h0a1,1,0,0,0,.48,1h0c1,.67.44,1.84-.92,2h0a1.72,1.72,0,0,0-1.25.63h0a2.06,2.06,0,0,1-3,0h0a1.72,1.72,0,0,0-1.25-.63h0c-1.37-.14-1.91-1.31-.92-2h0a1,1,0,0,0,.48-1h0c-.24-1,1.19-1.67,2.41-1.22h0A2.42,2.42,0,0,0,21.16,62.17Z"/><path class="cls-6" d="M45.67,166c4.54,13.45,11.14,11.91,11.14,11.91s12.37,0,17.32-.92,5-1.83,5-1.83c14.85-21.07,0-44,0-44-2.69-4.77-1.64-8.37.39-10.92a17.6,17.6,0,0,1,7-4.83s.05,2.93,0-1.82-7.16-3.89-7.16-3.89c-17.1,8.76-25.85,0-25.85,0-4.6-2.23-6.76,0-6.76,0-2.7,2.35,0,5.71,0,5.71a48.63,48.63,0,0,0,5.57,3.85c4.11,7.32-1.64,14.65-1.64,14.65S42,155,45.67,166Z"/><path class="cls-7" d="M79.08,119.31s-5-7.33-7.42,8.24c0,0,7.42,29.06,0,49.79l4.94-.89,2.48-1.27a38.26,38.26,0,0,0,3.21-37.49c-9.39-21.13-.35-.83-.35-.83s-7.31-11.57-3.23-15.48Z"/><path class="cls-8" d="M55.57,169.68s-6.19-24.83,0-38.06"/><path class="cls-9" d="M60.16,113.08C64.23,112,47.87,72.2,47.87,72.2v9.72l5.58,27.83"/><path class="cls-9" d="M65.62,113.63S63.57,81,60.81,73.57s-4-2.81-4-2.81V95.87l2,16.83"/><path class="cls-9" d="M69.3,113.26s-4.83-36.14,0-43.9c0,0,6.07,25.35,2.36,42.68"/><path class="cls-9" d="M80,69.36S71.66,90.28,71.66,92a14.28,14.28,0,0,0,1.2,4.37S83.33,73.45,80,69.36Z"/><path class="cls-9" d="M71.66,108.31s19.8-36.63,16.09-39.38c0,0-13.62,30-17.33,33.76"/><path class="cls-9" d="M75.18,111.6s12.21-38.09,26-44.5c0,0-18.52,32.26-19.07,42.69"/><path class="cls-3" d="M113.13,40.86h0c1.19-2.06,5.25-1.4,5.22.84h0c0,1.8,2.81,2.75,4.56,1.54h0c2.19-1.52,5.55.33,4.32,2.37h0c-1,1.64,1.08,3.38,3.34,2.81h0c2.81-.71,4.89,2,2.67,3.5h0c-1.78,1.19-.83,3.42,1.54,3.59h0c2.95.21,3.39,3.34.56,4h0c-2.27.54-2.59,2.87-.52,3.75h0c2.58,1.11,1.29,4.1-1.65,3.84h0c-2.37-.2-3.91,1.83-2.5,3.28h0c1.77,1.8-1,4.14-3.57,3h0c-2-.92-4.55.46-4,2.22h0c.64,2.19-3.15,3.47-4.87,1.64h0c-1.38-1.46-4.41-1-4.88.79h0c-.6,2.2-4.75,2.2-5.34,0h0c-.47-1.77-3.5-2.25-4.88-.79h0c-1.72,1.83-5.52.55-4.88-1.64h0c.52-1.76-2-3.14-4-2.22h0c-2.55,1.14-5.33-1.2-3.57-3h0c1.42-1.45-.13-3.48-2.49-3.28h0c-3,.26-4.23-2.73-1.65-3.84h0c2.07-.88,1.75-3.21-.52-3.75h0c-2.83-.68-2.4-3.81.56-4h0c2.36-.17,3.32-2.4,1.54-3.59h0c-2.22-1.49-.15-4.21,2.67-3.5h0C93,49,95,47.25,94.05,45.61h0c-1.23-2,2.13-3.89,4.31-2.37h0c1.76,1.21,4.58.26,4.56-1.54h0c0-2.24,4-2.9,5.22-.84h0C109.09,42.51,112.19,42.51,113.13,40.86Z"/><path class="cls-4" d="M112.7,44.24h0c1-1.62,4.26-1.11,4.24.66h0c0,1.41,2.28,2.16,3.7,1.2h0c1.78-1.19,4.5.26,3.51,1.87h0c-.81,1.29.88,2.65,2.71,2.21h0c2.28-.56,4,1.57,2.16,2.74h0c-1.44.94-.67,2.69,1.26,2.83h0c2.39.17,2.75,2.62.45,3.15h0c-1.84.43-2.11,2.26-.42,3h0c2.09.87,1.05,3.22-1.34,3h0c-1.92-.16-3.18,1.44-2,2.57h0c1.43,1.42-.82,3.26-2.9,2.36h0c-1.66-.72-3.7.36-3.28,1.75h0c.52,1.72-2.56,2.72-4,1.29h0c-1.12-1.16-3.58-.77-4,.61h0c-.48,1.73-3.86,1.73-4.34,0h0c-.38-1.38-2.84-1.77-4-.61h0c-1.4,1.43-4.48.43-4-1.29h0C101,70.16,99,69.08,97.3,69.8h0c-2.07.9-4.33-.94-2.9-2.36h0c1.15-1.13-.11-2.73-2-2.57h0c-2.39.2-3.43-2.15-1.34-3h0c1.69-.69,1.42-2.52-.42-3h0c-2.3-.53-1.94-3,.45-3.15h0c1.93-.14,2.7-1.89,1.26-2.83h0c-1.81-1.17-.12-3.3,2.16-2.74h0c1.84.44,3.52-.92,2.72-2.21h0c-1-1.61,1.73-3.06,3.5-1.87h0c1.43,1,3.72.21,3.71-1.2h0c0-1.77,3.27-2.28,4.23-.66h0A2.6,2.6,0,0,0,112.7,44.24Z"/><path class="cls-3" d="M112.75,48.75h0c1.56-1.51,5.13-.74,5,1.09h0c0,1.29,1.86,2.21,3.7,1.78h0c2.6-.62,4.81,1.39,3.12,2.84h0c-1.19,1-.45,2.52,1.41,2.88h0c2.65.52,2.65,3,0,3.52h0c-1.86.37-2.6,1.86-1.41,2.88h0c1.69,1.45-.52,3.46-3.12,2.85h0c-1.84-.43-3.75.49-3.7,1.78h0c.08,1.83-3.49,2.6-5,1.09h0a3.68,3.68,0,0,0-4.57,0h0c-1.57,1.51-5.13.74-5.06-1.09h0c.06-1.29-1.86-2.21-3.7-1.78h0c-2.6.61-4.8-1.4-3.12-2.85h0c1.19-1,.46-2.51-1.41-2.88h0c-2.65-.51-2.65-3,0-3.52h0c1.87-.36,2.6-1.85,1.41-2.88h0c-1.68-1.45.52-3.46,3.12-2.84h0c1.84.43,3.76-.49,3.7-1.78h0c-.07-1.83,3.49-2.6,5.06-1.09h0A3.68,3.68,0,0,0,112.75,48.75Z"/><path class="cls-4" d="M112.13,51.15h0c1-1.14,3.43-.56,3.38.83h0c0,1,1.25,1.67,2.47,1.34h0c1.74-.46,3.22,1.06,2.09,2.15h0c-.79.77-.3,1.9,1,2.17h0c1.77.39,1.77,2.27,0,2.66h0c-1.25.28-1.74,1.41-1,2.18h0c1.13,1.09-.35,2.61-2.09,2.15h0c-1.22-.33-2.51.37-2.47,1.34h0c0,1.38-2.34,2-3.38.82h0a2.25,2.25,0,0,0-3.06,0h0c-1,1.14-3.43.56-3.38-.82h0c0-1-1.24-1.67-2.47-1.34h0c-1.74.46-3.21-1.06-2.09-2.15h0c.8-.77.31-1.9-.94-2.18h0c-1.77-.39-1.77-2.27,0-2.66h0c1.25-.27,1.74-1.4.94-2.17h0c-1.12-1.09.35-2.61,2.09-2.15h0c1.23.33,2.51-.37,2.47-1.34h0c0-1.39,2.34-2,3.38-.83h0A2.23,2.23,0,0,0,112.13,51.15Z"/><path class="cls-3" d="M111.82,55.42h0c1.69-.61,3.67.37,3.35,1.67h0a1.31,1.31,0,0,0,.66,1.4h0c1.37.92.62,2.51-1.28,2.7h0a2.42,2.42,0,0,0-1.73.87h0a2.88,2.88,0,0,1-4.14,0h0a2.46,2.46,0,0,0-1.74-.87h0c-1.89-.19-2.65-1.78-1.28-2.7h0a1.32,1.32,0,0,0,.67-1.4h0c-.33-1.3,1.65-2.28,3.34-1.67h0A3.3,3.3,0,0,0,111.82,55.42Z"/><path class="cls-3" d="M110,23.89h0c.86-1.26,3.78-.86,3.77.51h0c0,1.11,2,1.69,3.28.94h0c1.58-.92,4,.21,3.11,1.46h0c-.71,1,.79,2.06,2.41,1.71h0c2-.43,3.53,1.23,1.93,2.14h0c-1.29.73-.6,2.09,1.11,2.2h0c2.13.13,2.44,2,.4,2.45h0c-1.64.34-1.87,1.76-.38,2.3h0c1.87.68.94,2.51-1.18,2.35h0c-1.71-.12-2.82,1.12-1.8,2h0c1.27,1.11-.74,2.53-2.58,1.84h0c-1.48-.56-3.28.28-2.91,1.36h0c.46,1.34-2.27,2.12-3.51,1h0c-1-.9-3.18-.6-3.52.48h0c-.43,1.34-3.42,1.34-3.85,0h0c-.34-1.08-2.52-1.38-3.52-.48h0c-1.24,1.12-4,.34-3.51-1h0c.37-1.08-1.44-1.92-2.92-1.36h0c-1.84.69-3.84-.73-2.57-1.84h0c1-.88-.09-2.12-1.8-2h0c-2.12.16-3-1.67-1.19-2.35h0c1.5-.54,1.26-2-.37-2.3h0c-2-.41-1.73-2.32.4-2.45h0c1.71-.11,2.4-1.47,1.11-2.2h0c-1.6-.91-.1-2.57,1.92-2.14h0c1.63.35,3.12-.71,2.41-1.71h0c-.88-1.25,1.54-2.38,3.11-1.46h0c1.27.75,3.31.17,3.29-.94h0c0-1.37,2.91-1.77,3.76-.51h0A2.52,2.52,0,0,0,110,23.89Z"/><path class="cls-4" d="M109.65,26h0c.69-1,3.07-.68,3,.4h0c0,.86,1.65,1.32,2.67.74h0c1.28-.73,3.25.16,2.53,1.14h0c-.58.79.64,1.62,2,1.35h0c1.64-.35,2.86,1,1.56,1.68h0c-1,.57-.49,1.64.9,1.72h0c1.73.11,2,1.61.33,1.93h0c-1.33.26-1.52,1.38-.31,1.81h0c1.51.53.76,2-1,1.84h0c-1.39-.09-2.29.88-1.46,1.58h0c1,.86-.6,2-2.09,1.44h0c-1.2-.44-2.67.22-2.37,1.06h0c.38,1.06-1.84,1.67-2.85.79h0c-.81-.7-2.58-.47-2.86.38h0c-.35,1.06-2.78,1.06-3.13,0h0c-.27-.85-2.05-1.08-2.85-.38h0c-1,.88-3.23.27-2.86-.79h0c.3-.84-1.16-1.5-2.36-1.06h0c-1.5.54-3.13-.58-2.09-1.44h0c.83-.7-.08-1.67-1.46-1.58h0c-1.73.13-2.48-1.31-1-1.84h0c1.21-.43,1-1.55-.3-1.81h0c-1.66-.32-1.41-1.82.32-1.93h0c1.39-.08,2-1.15.9-1.72h0c-1.3-.72-.08-2,1.57-1.68h0c1.32.27,2.53-.56,2-1.35h0c-.72-1,1.25-1.87,2.53-1.14h0c1,.58,2.68.12,2.67-.74h0c0-1.08,2.36-1.39,3.06-.4h0A2.1,2.1,0,0,0,109.65,26Z"/><path class="cls-3" d="M109.68,28.71h0c1.13-.92,3.7-.45,3.65.67h0c0,.79,1.34,1.35,2.66,1.09h0c1.88-.38,3.47.85,2.25,1.74h0c-.85.62-.32,1.54,1,1.76h0c1.91.32,1.91,1.84,0,2.15h0c-1.34.23-1.87,1.14-1,1.76h0c1.22.89-.37,2.12-2.25,1.74h0c-1.32-.26-2.7.3-2.66,1.09h0c0,1.12-2.52,1.59-3.65.67h0a3,3,0,0,0-3.29,0h0c-1.13.92-3.7.45-3.65-.67h0c0-.79-1.34-1.35-2.66-1.09h0c-1.88.38-3.47-.85-2.25-1.74h0c.85-.62.33-1.53-1-1.76h0c-1.91-.31-1.91-1.83,0-2.15h0c1.35-.22,1.87-1.14,1-1.76h0c-1.22-.89.37-2.12,2.25-1.74h0c1.32.26,2.7-.3,2.66-1.09h0c0-1.12,2.52-1.59,3.65-.67h0A3,3,0,0,0,109.68,28.71Z"/><path class="cls-4" d="M109.24,30.19h0c.75-.7,2.47-.35,2.44.5h0c0,.59.89,1,1.78.82h0c1.25-.28,2.32.64,1.5,1.31h0c-.57.48-.22,1.17.68,1.33h0c1.28.24,1.28,1.39,0,1.63h0c-.9.17-1.25.86-.68,1.33h0c.82.67-.25,1.6-1.5,1.31h0c-.89-.2-1.81.23-1.78.83h0c0,.84-1.69,1.19-2.44.5h0a1.83,1.83,0,0,0-2.2,0h0c-.76.69-2.48.34-2.44-.5h0c0-.6-.9-1-1.78-.83h0c-1.26.29-2.32-.64-1.51-1.31h0c.57-.47.22-1.16-.68-1.33h0c-1.28-.24-1.28-1.39,0-1.63h0c.9-.16,1.25-.85.68-1.33h0c-.81-.67.25-1.59,1.51-1.31h0c.88.2,1.81-.23,1.78-.82h0c0-.85,1.68-1.2,2.44-.5h0A1.83,1.83,0,0,0,109.24,30.19Z"/><path class="cls-3" d="M109,32.79h0c1.22-.37,2.64.23,2.41,1h0a.77.77,0,0,0,.48.86h0c1,.56.44,1.54-.92,1.65h0a1.94,1.94,0,0,0-1.26.53h0a2.33,2.33,0,0,1-3,0h0a1.91,1.91,0,0,0-1.25-.53h0c-1.37-.11-1.91-1.09-.92-1.65h0c.39-.22.57-.54.47-.86h0c-.23-.79,1.2-1.39,2.42-1h0A2.73,2.73,0,0,0,109,32.79Z"/><path class="cls-3" d="M47.09,55.24h0c1-1.6,4.26-1.09,4.24.65h0c0,1.4,2.29,2.14,3.72,1.2h0c1.78-1.18,4.51.25,3.51,1.84h0c-.8,1.27.88,2.63,2.72,2.18h0c2.29-.55,4,1.56,2.17,2.72h0c-1.45.93-.67,2.66,1.25,2.79h0c2.41.17,2.76,2.6.46,3.12h0c-1.85.42-2.11,2.23-.43,2.92h0c2.1.86,1.06,3.18-1.34,3h0c-1.92-.16-3.18,1.41-2,2.54h0c1.44,1.4-.83,3.22-2.91,2.33h0c-1.66-.71-3.7.36-3.28,1.73h0c.52,1.7-2.57,2.69-4,1.27h0c-1.12-1.14-3.59-.76-4,.61h0c-.48,1.71-3.86,1.71-4.34,0h0c-.38-1.37-2.85-1.75-4-.61h0c-1.4,1.42-4.49.43-4-1.27h0c.42-1.37-1.62-2.44-3.29-1.73h0c-2.08.89-4.34-.93-2.9-2.33h0c1.15-1.13-.11-2.7-2-2.54h0c-2.4.19-3.45-2.13-1.35-3h0c1.69-.69,1.43-2.5-.42-2.92h0c-2.3-.52-1.95-2.95.45-3.12h0c1.93-.13,2.71-1.86,1.26-2.79h0c-1.81-1.16-.12-3.27,2.17-2.72h0c1.84.45,3.52-.91,2.72-2.18h0c-1-1.59,1.73-3,3.51-1.84h0c1.43.94,3.73.2,3.71-1.2h0c0-1.74,3.29-2.25,4.25-.65h0A2.64,2.64,0,0,0,47.09,55.24Z"/><path class="cls-4" d="M46.73,57.86h0c.78-1.25,3.47-.85,3.45.52h0c0,1.09,1.85,1.68,3,.93h0c1.45-.92,3.67.21,2.86,1.45h0c-.65,1,.71,2.07,2.21,1.72h0C60.11,62,61.49,63.7,60,64.61h0c-1.18.73-.55,2.09,1,2.2h0c2,.13,2.24,2,.37,2.45h0c-1.5.33-1.72,1.75-.35,2.29h0c1.71.68.86,2.5-1.09,2.35h0c-1.56-.13-2.58,1.11-1.65,2h0c1.17,1.11-.67,2.53-2.36,1.84h0c-1.35-.56-3,.28-2.67,1.35h0c.43,1.34-2.08,2.12-3.22,1h0c-.91-.89-2.91-.59-3.23.48h0c-.39,1.35-3.13,1.35-3.52,0h0c-.32-1.07-2.32-1.37-3.23-.48h0c-1.14,1.12-3.65.34-3.22-1h0c.34-1.07-1.32-1.91-2.67-1.35h0c-1.69.69-3.53-.73-2.36-1.84h0c.93-.88-.09-2.12-1.65-2h0c-2,.15-2.8-1.67-1.09-2.35h0c1.37-.54,1.15-2-.35-2.29h0c-1.87-.41-1.58-2.32.37-2.45h0c1.57-.11,2.2-1.47,1-2.2h0c-1.47-.91-.09-2.57,1.76-2.13h0c1.5.35,2.86-.72,2.21-1.72h0c-.81-1.24,1.41-2.37,2.86-1.45h0c1.16.75,3,.16,3-.93h0c0-1.37,2.67-1.77,3.45-.52h0A2.18,2.18,0,0,0,46.73,57.86Z"/><path class="cls-3" d="M46.77,61.37h0c1.27-1.18,4.18-.58,4.11.84h0c0,1,1.52,1.72,3,1.39h0c2.12-.48,3.92,1.08,2.54,2.21h0c-1,.79-.37,2,1.15,2.24h0c2.16.4,2.16,2.33,0,2.73h0c-1.52.29-2.11,1.45-1.15,2.24h0c1.38,1.13-.42,2.69-2.54,2.21h0c-1.49-.33-3,.38-3,1.39h0c.07,1.42-2.84,2-4.11.84h0a3.09,3.09,0,0,0-3.72,0h0c-1.27,1.17-4.18.58-4.11-.84h0c0-1-1.52-1.72-3-1.39h0c-2.12.48-3.92-1.08-2.55-2.21h0c1-.79.37-2-1.15-2.24h0c-2.15-.4-2.15-2.33,0-2.73h0c1.52-.29,2.12-1.45,1.15-2.24h0c-1.37-1.13.43-2.69,2.55-2.21h0c1.49.33,3-.39,3-1.39h0c-.07-1.42,2.84-2,4.11-.84h0A3.12,3.12,0,0,0,46.77,61.37Z"/><path class="cls-4" d="M46.27,63.24h0c.85-.89,2.79-.44,2.75.64h0c0,.75,1,1.29,2,1h0c1.42-.36,2.62.82,1.7,1.67h0c-.64.6-.25,1.48.77,1.69h0c1.44.3,1.44,1.76,0,2.07h0c-1,.21-1.41,1.09-.77,1.69h0c.92.85-.28,2-1.7,1.67h0c-1-.26-2,.28-2,1h0c0,1.07-1.9,1.52-2.75.64h0a1.88,1.88,0,0,0-2.49,0h0c-.85.88-2.79.43-2.75-.64h0c0-.76-1-1.3-2-1h0c-1.42.36-2.62-.82-1.7-1.67h0c.64-.6.24-1.48-.77-1.69h0c-1.44-.31-1.44-1.77,0-2.07h0c1-.21,1.41-1.09.77-1.69h0c-.92-.85.28-2,1.7-1.67h0c1,.25,2-.29,2-1h0c0-1.08,1.9-1.53,2.75-.64h0A1.9,1.9,0,0,0,46.27,63.24Z"/><path class="cls-3" d="M46,66.55h0c1.37-.47,3,.29,2.72,1.3h0a1,1,0,0,0,.54,1.09h0c1.12.71.5,2-1,2.1h0a2,2,0,0,0-1.41.67h0a2.42,2.42,0,0,1-3.37,0h0A2,2,0,0,0,42,71h0c-1.54-.15-2.15-1.39-1-2.1h0a1,1,0,0,0,.54-1.09h0c-.26-1,1.35-1.77,2.73-1.3h0A2.76,2.76,0,0,0,46,66.55Z"/><path class="cls-3" d="M68.91,4h0c1-1.69,4.64-1.15,4.62.68h0c0,1.47,2.48,2.25,4,1.26h0c1.93-1.24,4.9.27,3.81,1.94h0c-.87,1.34,1,2.76,2.95,2.29h0c2.49-.58,4.32,1.64,2.36,2.86h0C85.11,14,86,15.83,88,16h0c2.61.17,3,2.73.5,3.28h0c-2,.44-2.29,2.34-.46,3.07h0c2.28.9,1.14,3.34-1.46,3.14h0c-2.09-.17-3.46,1.49-2.21,2.67h0c1.56,1.48-.89,3.38-3.15,2.45h0c-1.81-.74-4,.38-3.57,1.82h0c.57,1.79-2.79,2.83-4.31,1.34h0c-1.22-1.2-3.89-.8-4.31.64h0c-.53,1.8-4.2,1.8-4.72,0h0c-.42-1.44-3.09-1.84-4.31-.64h0c-1.53,1.49-4.88.45-4.31-1.34h0c.45-1.44-1.76-2.56-3.57-1.82h0c-2.26.93-4.71-1-3.16-2.45h0c1.26-1.18-.11-2.84-2.2-2.67h0c-2.61.2-3.74-2.24-1.46-3.14h0c1.83-.73,1.55-2.63-.46-3.07h0c-2.5-.55-2.12-3.11.49-3.28h0c2.1-.14,2.94-2,1.37-2.94h0c-2-1.22-.13-3.44,2.35-2.86h0c2,.47,3.83-.95,3-2.29h0C51,6.21,53.93,4.7,55.86,5.94h0c1.55,1,4,.21,4-1.26h0c0-1.83,3.57-2.37,4.61-.68h0A2.92,2.92,0,0,0,68.91,4Z"/><path class="cls-4" d="M68.53,6.75h0c.85-1.32,3.76-.9,3.74.54h0c0,1.16,2,1.77,3.28,1h0c1.57-1,4,.21,3.1,1.52h0c-.71,1.06.77,2.17,2.39,1.81h0c2-.46,3.51,1.29,1.92,2.24h0c-1.28.77-.6,2.2,1.1,2.31h0c2.12.14,2.43,2.14.4,2.58h0c-1.62.35-1.86,1.84-.37,2.41h0c1.85.71.93,2.63-1.18,2.47h0c-1.7-.13-2.81,1.17-1.79,2.1h0c1.26,1.16-.73,2.66-2.57,1.92h0c-1.47-.58-3.27.3-2.9,1.43h0c.47,1.41-2.26,2.23-3.49,1.05h0c-1-.94-3.17-.62-3.51.51h0c-.42,1.41-3.4,1.41-3.83,0h0c-.34-1.13-2.51-1.45-3.5-.51h0c-1.24,1.18-4,.36-3.5-1.05h0c.37-1.13-1.43-2-2.9-1.43h0c-1.83.74-3.83-.76-2.56-1.92h0c1-.93-.09-2.23-1.79-2.1h0c-2.12.16-3-1.76-1.18-2.47h0c1.48-.57,1.25-2.06-.38-2.41h0c-2-.44-1.72-2.44.4-2.58h0c1.7-.11,2.39-1.54,1.11-2.31h0c-1.6-.95-.11-2.7,1.91-2.24h0c1.62.36,3.11-.75,2.4-1.81h0c-.88-1.31,1.53-2.49,3.1-1.52h0c1.26.78,3.29.17,3.27-1h0c0-1.44,2.9-1.86,3.75-.54h0A2.4,2.4,0,0,0,68.53,6.75Z"/><path class="cls-3" d="M68.57,10.44h0c1.38-1.23,4.54-.6,4.47.89h0c-.05,1.05,1.64,1.81,3.27,1.45h0c2.29-.5,4.24,1.15,2.76,2.33h0c-1,.84-.41,2.06,1.24,2.35h0c2.35.43,2.35,2.46,0,2.88h0c-1.65.3-2.29,1.52-1.24,2.35h0c1.48,1.19-.47,2.83-2.76,2.33h0c-1.63-.35-3.32.4-3.27,1.46h0c.07,1.49-3.09,2.12-4.47.89h0a3.45,3.45,0,0,0-4,0h0c-1.38,1.23-4.53.6-4.46-.89h0c0-1.06-1.65-1.81-3.27-1.46h0c-2.3.5-4.25-1.14-2.76-2.33h0c1.05-.83.4-2.05-1.25-2.35h0c-2.34-.42-2.34-2.45,0-2.88h0c1.65-.29,2.3-1.51,1.25-2.35h0c-1.49-1.18.46-2.83,2.76-2.33h0c1.62.36,3.31-.4,3.27-1.45h0c-.07-1.49,3.08-2.12,4.46-.89h0A3.45,3.45,0,0,0,68.57,10.44Z"/><path class="cls-4" d="M68,12.41h0c.92-.93,3-.46,3,.67h0c0,.79,1.11,1.36,2.19,1.1h0C74.74,13.8,76,15,75,15.93h0c-.7.63-.26,1.56.84,1.78h0c1.57.32,1.57,1.85,0,2.17h0c-1.1.23-1.54,1.15-.84,1.78h0c1,.89-.3,2.14-1.84,1.76h0c-1.08-.27-2.22.3-2.19,1.1h0c0,1.12-2.06,1.6-3,.67h0a2.09,2.09,0,0,0-2.7,0h0c-.93.93-3,.45-3-.67h0c0-.8-1.1-1.37-2.18-1.1h0c-1.54.38-2.85-.87-1.85-1.76h0c.7-.63.27-1.55-.84-1.78h0c-1.56-.32-1.56-1.85,0-2.17h0c1.11-.22,1.54-1.15.84-1.78h0c-1-.89.31-2.13,1.85-1.75h0c1.08.26,2.21-.31,2.18-1.1h0c-.05-1.13,2.06-1.6,3-.67h0A2.11,2.11,0,0,0,68,12.41Z"/><path class="cls-3" d="M67.75,15.89h0c1.5-.5,3.25.31,3,1.37h0a1,1,0,0,0,.59,1.14h0c1.21.75.54,2.05-1.13,2.21h0a2.2,2.2,0,0,0-1.54.71h0a2.67,2.67,0,0,1-3.65,0h0a2.18,2.18,0,0,0-1.54-.71h0c-1.67-.16-2.34-1.46-1.13-2.21h0a1,1,0,0,0,.59-1.14h0c-.29-1.06,1.46-1.87,3-1.37h0A3.05,3.05,0,0,0,67.75,15.89Z"/><path class="cls-1" d="M30,11.3h0c1.08-1.65,4.76-1.12,4.74.67h0c0,1.44,2.54,2.21,4.13,1.23h0c2-1.21,5,.27,3.92,1.9h0c-.9,1.31,1,2.7,3,2.25h0c2.55-.57,4.43,1.6,2.42,2.79h0c-1.62,1-.75,2.74,1.4,2.88h0c2.67.17,3.07,2.67.5,3.21h0c-2.06.43-2.35,2.3-.47,3h0c2.34.88,1.18,3.27-1.5,3.07h0c-2.14-.16-3.54,1.46-2.26,2.62h0c1.6,1.44-.92,3.31-3.24,2.4h0c-1.86-.73-4.13.37-3.66,1.77h0c.58,1.76-2.86,2.78-4.42,1.32h0c-1.26-1.17-4-.79-4.43.63h0c-.54,1.76-4.3,1.76-4.84,0h0c-.43-1.42-3.18-1.8-4.43-.63h0c-1.56,1.46-5,.44-4.42-1.32h0c.47-1.4-1.8-2.5-3.66-1.77h0c-2.32.91-4.84-1-3.24-2.4h0c1.28-1.16-.12-2.78-2.26-2.62h0c-2.68.2-3.84-2.19-1.5-3.07h0c1.88-.71,1.58-2.58-.47-3h0c-2.57-.54-2.17-3,.5-3.21h0c2.15-.14,3-1.92,1.4-2.88h0c-2-1.19-.13-3.36,2.42-2.79h0c2,.45,3.93-.94,3-2.25h0c-1.11-1.63,1.93-3.11,3.92-1.9h0c1.59,1,4.15.21,4.13-1.23h0c0-1.79,3.66-2.32,4.74-.67h0C26.33,12.62,29.13,12.62,30,11.3Z"/><path class="cls-2" d="M29.6,14h0c.87-1.29,3.86-.88,3.84.53h0c0,1.13,2.07,1.73,3.36,1h0c1.61-1,4.09.2,3.18,1.49h0c-.73,1,.8,2.12,2.46,1.76h0c2.07-.44,3.6,1.27,2,2.2h0c-1.32.75-.61,2.15,1.13,2.26h0c2.18.13,2.5,2.1.41,2.52h0c-1.67.34-1.91,1.81-.38,2.36h0c1.9.7,1,2.58-1.22,2.42h0c-1.74-.13-2.88,1.14-1.84,2.05h0c1.3,1.14-.74,2.61-2.62,1.89h0c-1.51-.57-3.36.29-3,1.4h0c.47,1.37-2.32,2.18-3.59,1h0c-1-.92-3.25-.62-3.6.49h0c-.43,1.38-3.49,1.38-3.93,0h0c-.35-1.11-2.58-1.41-3.59-.49h0c-1.27,1.15-4.07.34-3.59-1h0c.38-1.11-1.47-2-3-1.4h0c-1.88.72-3.93-.75-2.63-1.89h0c1.05-.91-.09-2.18-1.84-2.05h0C9,30.67,8.05,28.79,10,28.09h0c1.53-.55,1.29-2-.38-2.36h0c-2.09-.42-1.77-2.39.41-2.52h0c1.74-.11,2.45-1.51,1.13-2.26h0c-1.63-.93-.1-2.64,2-2.2h0c1.66.36,3.18-.73,2.46-1.76h0c-.91-1.29,1.57-2.45,3.18-1.49h0c1.29.76,3.37.16,3.36-1h0c0-1.41,3-1.82,3.84-.53h0A2.56,2.56,0,0,0,29.6,14Z"/><path class="cls-1" d="M29.64,17.61h0c1.42-1.21,4.65-.59,4.58.87h0c0,1,1.69,1.77,3.36,1.42h0c2.36-.49,4.36,1.12,2.83,2.28h0c-1.08.82-.41,2,1.28,2.31h0c2.41.41,2.41,2.4,0,2.81h0c-1.69.29-2.36,1.49-1.28,2.31h0c1.53,1.16-.47,2.76-2.83,2.27h0c-1.67-.34-3.4.4-3.36,1.43h0c.07,1.46-3.16,2.07-4.58.87h0a3.68,3.68,0,0,0-4.14,0h0c-1.42,1.2-4.66.59-4.59-.87h0c.05-1-1.69-1.77-3.35-1.43h0c-2.36.49-4.36-1.11-2.83-2.27h0c1.07-.82.41-2-1.29-2.31h0c-2.4-.41-2.4-2.4,0-2.81h0c1.7-.3,2.36-1.49,1.29-2.31h0c-1.53-1.16.47-2.77,2.83-2.28h0c1.66.35,3.4-.39,3.35-1.42h0c-.07-1.46,3.17-2.08,4.59-.87h0A3.68,3.68,0,0,0,29.64,17.61Z"/><path class="cls-2" d="M29.08,19.54h0c1-.92,3.11-.45,3.07.65h0c0,.78,1.13,1.34,2.24,1.08h0c1.58-.37,2.92.84,1.89,1.72h0c-.72.61-.27,1.52.86,1.74h0c1.61.31,1.61,1.81,0,2.12h0c-1.13.22-1.58,1.12-.86,1.74h0c1,.88-.31,2.09-1.89,1.72h0c-1.11-.26-2.27.3-2.24,1.08h0c0,1.1-2.12,1.57-3.07.65h0a2.24,2.24,0,0,0-2.77,0h0c-.95.92-3.11.45-3.06-.65h0c0-.78-1.13-1.34-2.25-1.08h0c-1.58.37-2.91-.84-1.89-1.72h0c.72-.62.27-1.52-.86-1.74h0c-1.6-.31-1.6-1.81,0-2.12h0c1.13-.22,1.58-1.13.86-1.74h0c-1-.88.31-2.09,1.89-1.72h0c1.12.26,2.28-.3,2.25-1.08h0c-.05-1.1,2.11-1.57,3.06-.65h0A2.24,2.24,0,0,0,29.08,19.54Z"/><path class="cls-1" d="M28.8,23h0c1.54-.49,3.33.3,3,1.33h0a1,1,0,0,0,.6,1.12h0c1.24.74.56,2-1.16,2.16h0a2.27,2.27,0,0,0-1.57.7h0a2.86,2.86,0,0,1-3.76,0h0a2.27,2.27,0,0,0-1.57-.7h0c-1.72-.15-2.41-1.42-1.16-2.16h0a1,1,0,0,0,.6-1.12h0c-.3-1,1.5-1.82,3-1.33h0A3.41,3.41,0,0,0,28.8,23Z"/><path class="cls-1" d="M74.75,52.38h0c.88-1.41,3.91-1,3.89.57h0c0,1.24,2.09,1.89,3.39,1.06h0c1.63-1,4.13.22,3.21,1.62h0c-.73,1.13.81,2.32,2.49,1.93h0c2.09-.49,3.64,1.38,2,2.4h0c-1.32.82-.61,2.34,1.15,2.46h0c2.2.15,2.52,2.29.42,2.75h0c-1.69.38-1.93,2-.39,2.58h0c1.92.76,1,2.81-1.23,2.63h0c-1.76-.14-2.91,1.26-1.86,2.25h0c1.32,1.24-.75,2.84-2.65,2.06h0c-1.53-.63-3.39.31-3,1.52h0c.48,1.5-2.34,2.38-3.62,1.12h0c-1-1-3.29-.67-3.64.54h0c-.44,1.51-3.53,1.51-4,0h0c-.35-1.21-2.6-1.54-3.63-.54h0c-1.28,1.26-4.11.38-3.63-1.12h0c.38-1.21-1.48-2.15-3-1.52h0c-1.9.78-4-.82-2.65-2.06h0c1-1-.1-2.39-1.86-2.25h0c-2.19.18-3.15-1.87-1.23-2.63h0c1.54-.61,1.3-2.2-.39-2.58h0c-2.1-.46-1.78-2.6.42-2.75h0c1.76-.12,2.47-1.64,1.15-2.46h0c-1.66-1-.11-2.89,2-2.4h0c1.68.39,3.22-.8,2.49-1.93h0c-.92-1.4,1.58-2.66,3.21-1.62h0c1.31.83,3.41.18,3.39-1.06h0c0-1.54,3-2,3.89-.57h0A2.45,2.45,0,0,0,74.75,52.38Z"/><path class="cls-2" d="M74.43,54.69h0c.71-1.11,3.17-.75,3.15.45h0c0,1,1.7,1.49,2.76.83h0c1.32-.81,3.35.18,2.61,1.28h0c-.6.88.65,1.82,2,1.51h0c1.7-.38,3,1.09,1.61,1.89h0c-1.08.64-.5,1.84.93,1.93h0c1.79.12,2,1.8.34,2.17h0c-1.37.29-1.57,1.54-.32,2h0c1.56.6.79,2.21-1,2.07h0c-1.43-.11-2.37,1-1.51,1.76h0c1.06,1-.62,2.23-2.16,1.62h0c-1.24-.49-2.75.25-2.44,1.2h0c.39,1.18-1.91,1.86-3,.88h0c-.83-.79-2.66-.53-3,.42h0c-.35,1.19-2.86,1.19-3.22,0h0c-.29-1-2.12-1.21-3-.42h0c-1,1-3.34.3-3-.88h0c.31-1-1.2-1.69-2.44-1.2h0c-1.54.61-3.22-.65-2.16-1.62h0c.86-.78-.08-1.87-1.51-1.76h0c-1.78.14-2.55-1.47-1-2.07h0c1.25-.48,1-1.73-.32-2h0c-1.71-.37-1.44-2,.34-2.17h0c1.43-.09,2-1.29.93-1.93h0c-1.34-.8-.09-2.27,1.61-1.89h0c1.37.31,2.62-.63,2-1.51h0c-.74-1.1,1.29-2.09,2.61-1.28h0c1.06.66,2.77.15,2.76-.83h0c0-1.2,2.44-1.56,3.15-.45h0A2,2,0,0,0,74.43,54.69Z"/><path class="cls-1" d="M74.46,57.79h0c1.17-1,3.82-.51,3.77.74h0c0,.89,1.38,1.52,2.75,1.22h0c1.93-.42,3.58,1,2.32,2h0c-.88.7-.34,1.73,1,2h0c2,.35,2,2.06,0,2.41h0c-1.39.25-1.93,1.28-1,2h0c1.26,1-.39,2.37-2.32,2h0c-1.37-.3-2.79.34-2.75,1.22h0c0,1.25-2.6,1.78-3.77.75h0a2.91,2.91,0,0,0-3.4,0h0c-1.16,1-3.81.5-3.76-.75h0c0-.88-1.38-1.52-2.75-1.22h0c-1.94.42-3.58-1-2.32-2h0c.88-.7.34-1.73-1-2h0c-2-.35-2-2.06,0-2.41h0c1.39-.25,1.93-1.28,1-2h0c-1.26-1,.38-2.37,2.32-2h0c1.37.3,2.79-.33,2.75-1.22h0c0-1.25,2.6-1.78,3.76-.74h0A3,3,0,0,0,74.46,57.79Z"/><path class="cls-2" d="M74,59.44h0c.77-.78,2.55-.38,2.51.57h0c0,.67.93,1.14,1.84.92h0c1.3-.32,2.39.72,1.56,1.47h0c-.59.53-.23,1.31.7,1.49h0c1.32.27,1.32,1.56,0,1.83h0c-.93.19-1.29,1-.7,1.49h0c.83.75-.26,1.79-1.56,1.47h0c-.91-.22-1.87.26-1.84.92h0c0,1-1.74,1.35-2.51.57h0a1.78,1.78,0,0,0-2.28,0h0c-.77.78-2.55.38-2.51-.57h0c0-.66-.93-1.14-1.84-.92h0C66.08,69,65,68,65.82,67.2h0c.59-.53.23-1.3-.7-1.49h0c-1.32-.27-1.32-1.56,0-1.83h0c.93-.18,1.29-1,.7-1.49h0c-.84-.75.26-1.79,1.56-1.47h0c.91.22,1.86-.25,1.84-.92h0c0-1,1.74-1.35,2.51-.57h0A1.78,1.78,0,0,0,74,59.44Z"/><path class="cls-1" d="M73.78,62.36h0c1.26-.42,2.73.26,2.49,1.14h0a.87.87,0,0,0,.49,1h0c1,.63.46,1.73-1,1.86h0a1.85,1.85,0,0,0-1.29.59h0a2.26,2.26,0,0,1-3.08,0h0a1.87,1.87,0,0,0-1.3-.59h0c-1.4-.13-2-1.23-1-1.86h0a.88.88,0,0,0,.5-1h0c-.24-.88,1.23-1.56,2.49-1.14h0A2.57,2.57,0,0,0,73.78,62.36Z"/><path class="cls-1" d="M56.19,31.37h0c.88-1.51,3.9-1,3.89.61h0c0,1.32,2.08,2,3.39,1.13h0c1.63-1.11,4.13.24,3.21,1.73h0c-.73,1.2.81,2.47,2.49,2h0c2.09-.52,3.64,1.47,2,2.56h0c-1.32.87-.61,2.5,1.15,2.63h0c2.2.16,2.52,2.44.42,2.94h0c-1.69.39-1.93,2.1-.39,2.75h0c1.92.8,1,3-1.23,2.8h0c-1.76-.14-2.91,1.34-1.86,2.4h0c1.32,1.32-.75,3-2.65,2.19h0c-1.53-.67-3.39.34-3,1.63h0c.48,1.6-2.34,2.53-3.63,1.2h0c-1-1.07-3.28-.72-3.63.57h0c-.44,1.61-3.53,1.61-4,0h0c-.35-1.29-2.61-1.64-3.63-.57h0c-1.29,1.33-4.11.4-3.63-1.2h0c.38-1.29-1.48-2.3-3-1.63h0c-1.9.84-4-.87-2.65-2.19h0c1-1.06-.1-2.54-1.86-2.4h0c-2.19.19-3.15-2-1.23-2.8h0c1.54-.65,1.3-2.36-.39-2.75h0c-2.1-.5-1.78-2.78.42-2.94h0c1.76-.13,2.47-1.76,1.15-2.63h0c-1.66-1.09-.11-3.08,2-2.56h0c1.68.42,3.22-.85,2.49-2h0c-.92-1.49,1.58-2.84,3.21-1.73h0c1.3.88,3.41.19,3.39-1.13h0c0-1.64,3-2.12,3.89-.61h0A2.36,2.36,0,0,0,56.19,31.37Z"/><path class="cls-5" d="M55.87,33.84h0c.71-1.19,3.17-.81,3.15.48h0c0,1,1.7,1.58,2.76.88h0c1.32-.87,3.35.19,2.61,1.37h0c-.6.94.65,1.94,2,1.61h0c1.69-.41,3,1.15,1.61,2h0c-1.08.68-.5,2,.93,2.06h0c1.78.13,2,1.92.34,2.31h0c-1.37.31-1.57,1.65-.32,2.16h0c1.56.64.79,2.35-1,2.21h0c-1.42-.12-2.36,1-1.5,1.88h0c1.06,1-.62,2.38-2.16,1.72h0c-1.24-.52-2.75.27-2.44,1.28h0c.39,1.26-1.91,2-2.95.94h0c-.83-.84-2.66-.56-3,.45h0c-.36,1.27-2.87,1.27-3.22,0h0c-.29-1-2.12-1.29-3-.45h0c-1,1-3.34.32-2.95-.94h0c.31-1-1.2-1.8-2.44-1.28h0c-1.55.66-3.23-.69-2.16-1.72h0c.86-.83-.08-2-1.51-1.88h0c-1.78.14-2.55-1.57-1-2.21h0c1.25-.51,1-1.85-.32-2.16h0c-1.71-.39-1.45-2.18.34-2.31h0c1.43-.1,2-1.38.93-2.06h0c-1.34-.86-.09-2.42,1.61-2h0c1.37.33,2.62-.67,2-1.61h0c-.74-1.18,1.29-2.24,2.61-1.37h0c1.06.7,2.77.15,2.76-.88h0c0-1.29,2.44-1.67,3.15-.48h0A2,2,0,0,0,55.87,33.84Z"/><path class="cls-1" d="M55.9,37.14h0c1.16-1.11,3.82-.55,3.76.79h0c0,.94,1.39,1.62,2.76,1.3h0c1.93-.45,3.57,1,2.32,2.09h0c-.88.74-.34,1.84,1.05,2.1h0c2,.38,2,2.2,0,2.58h0c-1.39.26-1.93,1.35-1.05,2.1h0c1.25,1.06-.39,2.53-2.32,2.09h0c-1.37-.32-2.8.35-2.76,1.3h0c.06,1.33-2.6,1.9-3.76.79h0a2.76,2.76,0,0,0-3.4,0h0c-1.16,1.11-3.82.54-3.76-.79h0c0-1-1.39-1.62-2.75-1.3h0c-1.94.44-3.58-1-2.33-2.09h0c.89-.75.34-1.84-1-2.1h0c-2-.38-2-2.2,0-2.58h0c1.39-.26,1.94-1.36,1-2.1h0c-1.25-1.06.39-2.54,2.33-2.09h0c1.36.32,2.79-.36,2.75-1.3h0c-.06-1.34,2.6-1.9,3.76-.79h0A2.79,2.79,0,0,0,55.9,37.14Z"/><path class="cls-5" d="M55.44,38.9h0c.78-.84,2.56-.41,2.52.6h0c0,.71.93,1.22,1.84,1h0c1.29-.34,2.39.77,1.55,1.57h0c-.59.57-.22,1.39.71,1.59h0c1.32.29,1.32,1.66,0,2h0c-.93.2-1.3,1-.71,1.59h0c.84.8-.26,1.91-1.55,1.57h0c-.91-.24-1.87.27-1.84,1h0c0,1-1.74,1.44-2.52.6h0a1.68,1.68,0,0,0-2.27,0h0c-.78.84-2.55.41-2.51-.6h0c0-.71-.93-1.22-1.84-1h0c-1.3.34-2.4-.77-1.56-1.57h0c.59-.57.23-1.39-.7-1.59h0c-1.32-.29-1.32-1.66,0-2h0c.93-.2,1.29-1,.7-1.59h0c-.84-.8.26-1.91,1.56-1.57h0c.91.24,1.86-.27,1.84-1h0c0-1,1.73-1.44,2.51-.6h0A1.7,1.7,0,0,0,55.44,38.9Z"/><path class="cls-1" d="M55.22,42h0c1.26-.44,2.73.28,2.49,1.22h0a1,1,0,0,0,.49,1h0c1,.67.46,1.84-1,2h0a1.8,1.8,0,0,0-1.29.63h0a2.16,2.16,0,0,1-3.08,0h0a1.82,1.82,0,0,0-1.3-.63h0c-1.41-.14-2-1.31-.95-2h0a1,1,0,0,0,.5-1h0c-.25-.94,1.23-1.66,2.49-1.22h0A2.44,2.44,0,0,0,55.22,42Z"/></g></g></svg>