<svg xmlns="http://www.w3.org/2000/svg" width="126" height="169" viewBox="0 0 126 169"><defs><style>.cls-1{fill:#fc8330;}.cls-2{fill:#eb5b27;}.cls-3{fill:#ee6b11;}.cls-4{fill:#ee8d2c;}.cls-5{fill:#eaaf2d;}.cls-6{fill:#ca622d;}.cls-7{fill:#6b3310;}.cls-8{fill:#e9b399;}.cls-9{fill:#039d45;}</style></defs><g id="Instructions"><g id="flower_vase-4" data-name="flower vase"><path class="cls-1" d="M122.87,51c.42,1.37-2.11,2.17-3.25,1h0c-.92-.92-2.94-.61-3.26.49h0c-.39,1.38-3.16,1.38-3.56,0h0c-.31-1.1-2.33-1.41-3.25-.49h0c-1.15,1.14-3.68.34-3.25-1h0c.34-1.1-1.33-2-2.69-1.39h0c-1.71.71-3.56-.75-2.38-1.88h0c.94-.91-.09-2.18-1.67-2.05h0c-2,.16-2.82-1.71-1.1-2.4h0c1.39-.56,1.17-2-.34-2.36h0c-1.89-.42-1.6-2.38.37-2.51h0c1.58-.11,2.21-1.51,1-2.25h0c-1.48-.93-.1-2.64,1.77-2.19h0c1.51.35,2.89-.74,2.23-1.76h0c-.82-1.28,1.42-2.44,2.88-1.49h0c1.17.76,3,.17,3-1h0c0-1.41,2.69-1.82,3.48-.53h0a2.17,2.17,0,0,0,3.33,0h0c.78-1.29,3.49-.88,3.48.53h0c0,1.13,1.87,1.72,3,1h0c1.45-.95,3.69.21,2.87,1.49"/><path class="cls-2" d="M123.52,47.37c-1.11-.45-2.47.22-2.19,1.09h0c.35,1.08-1.71,1.71-2.64.81h0c-.75-.72-2.38-.48-2.64.38h0c-.32,1.09-2.57,1.09-2.89,0h0c-.26-.86-1.9-1.1-2.64-.38h0c-.94.9-3,.27-2.64-.81h0c.28-.87-1.08-1.54-2.19-1.09h0c-1.38.56-2.89-.59-1.93-1.48h0c.76-.71-.07-1.71-1.35-1.61h0c-1.6.12-2.29-1.35-.9-1.89h0c1.13-.44.95-1.58-.28-1.85h0c-1.53-.33-1.29-1.87.3-2h0c1.29-.09,1.8-1.19.84-1.77h0c-1.2-.73-.08-2.07,1.44-1.72h0c1.22.28,2.35-.58,1.81-1.38h0c-.66-1,1.15-1.92,2.34-1.17h0c1,.6,2.48.13,2.47-.76h0c0-1.1,2.18-1.42,2.82-.41h0a1.81,1.81,0,0,0,2.71,0h0c.64-1,2.83-.69,2.82.41h0c0,.89,1.52,1.36,2.47.76h0c1.18-.75,3,.16,2.34,1.17"/><path class="cls-1" d="M123.9,43.57c1.13.91-.34,2.17-2.08,1.79h0c-1.22-.27-2.5.3-2.46,1.11h0c0,1.15-2.33,1.63-3.37.68h0a2.6,2.6,0,0,0-3,0h0c-1,1-3.42.47-3.37-.68h0c0-.81-1.24-1.38-2.46-1.11h0c-1.74.38-3.21-.88-2.09-1.79h0c.8-.64.31-1.57-.94-1.8h0c-1.76-.32-1.76-1.88,0-2.2h0c1.25-.23,1.74-1.17.94-1.81h0c-1.12-.91.35-2.17,2.09-1.78h0c1.22.27,2.5-.31,2.46-1.12h0c0-1.14,2.33-1.62,3.37-.68h0a2.57,2.57,0,0,0,3,0h0c1-.94,3.42-.46,3.37.68h0c0,.81,1.24,1.39,2.46,1.12h0c1.74-.39,3.21.87,2.08,1.78"/><path class="cls-2" d="M115.58,35.69h0c.69-.71,2.28-.35,2.25.51h0c0,.61.83,1,1.65.85h0c1.16-.29,2.14.66,1.39,1.34h0c-.53.49-.2,1.19.63,1.36h0c1.18.25,1.18,1.42,0,1.67h0c-.83.17-1.16.88-.63,1.36h0c.75.69-.23,1.64-1.39,1.35h0c-.82-.21-1.67.23-1.65.84h0c0,.86-1.56,1.23-2.25.51h0a1.57,1.57,0,0,0-2,0h0c-.7.72-2.29.35-2.25-.51h0c0-.61-.83-1-1.65-.84h0c-1.16.29-2.14-.66-1.39-1.35h0c.53-.48.2-1.19-.63-1.36h0c-1.18-.25-1.18-1.42,0-1.67h0c.83-.17,1.16-.87.63-1.36h0c-.75-.68.23-1.63,1.39-1.34h0c.82.2,1.67-.24,1.65-.85h0c0-.86,1.55-1.22,2.25-.51h0A1.57,1.57,0,0,0,115.58,35.69Z"/><path class="cls-1" d="M115.37,38.36h0c1.13-.38,2.45.24,2.23,1h0a.8.8,0,0,0,.45.87h0c.91.58.41,1.58-.86,1.69h0a1.62,1.62,0,0,0-1.15.55h0a2,2,0,0,1-2.76,0h0a1.66,1.66,0,0,0-1.16-.55h0c-1.26-.11-1.77-1.11-.85-1.69h0a.8.8,0,0,0,.44-.87h0c-.22-.81,1.1-1.43,2.23-1h0A2.33,2.33,0,0,0,115.37,38.36Z"/><path class="cls-3" d="M27,35h0c.77-1.16,3.39-.79,3.37.47h0c0,1,1.82,1.56,3,.87h0c1.41-.85,3.58.19,2.79,1.34h0c-.64.92.7,1.9,2.15,1.58h0c1.82-.4,3.16,1.13,1.73,2h0c-1.16.68-.54,1.93,1,2h0c1.91.12,2.19,1.88.36,2.26h0c-1.46.31-1.67,1.62-.34,2.12h0c1.67.62.84,2.31-1.06,2.16h0c-1.53-.11-2.53,1-1.61,1.85h0c1.14,1-.66,2.33-2.31,1.69h0c-1.32-.52-2.94.26-2.61,1.25h0c.42,1.24-2,2-3.14.93h0c-.9-.83-2.85-.55-3.16.44h0c-.38,1.24-3.06,1.24-3.44,0h0c-.31-1-2.26-1.27-3.16-.44h0c-1.11,1-3.56.31-3.14-.93h0c.33-1-1.29-1.77-2.61-1.25h0c-1.65.64-3.45-.67-2.31-1.69h0c.92-.82-.08-2-1.61-1.85h0c-1.9.15-2.73-1.54-1.06-2.16h0c1.33-.5,1.12-1.81-.34-2.12h0c-1.83-.38-1.55-2.14.36-2.26h0c1.53-.1,2.15-1.35,1-2h0c-1.44-.84-.1-2.37,1.72-2h0c1.46.32,2.79-.66,2.16-1.58h0c-.8-1.15,1.37-2.19,2.78-1.34h0c1.14.69,3,.15,2.95-.87h0c0-1.26,2.6-1.63,3.37-.47h0A2.21,2.21,0,0,0,27,35Z"/><path class="cls-4" d="M26.68,36.93h0c.62-.92,2.75-.63,2.74.37h0c0,.79,1.47,1.22,2.39.68h0c1.15-.67,2.91.14,2.26,1.05h0c-.51.72.57,1.49,1.76,1.24h0c1.47-.31,2.56.89,1.39,1.55h0c-.93.53-.43,1.52.81,1.59h0c1.55.1,1.78,1.48.3,1.78h0c-1.19.24-1.36,1.27-.28,1.66h0c1.36.49.68,1.82-.86,1.7h0c-1.24-.09-2,.81-1.31,1.45h0c.92.8-.53,1.84-1.87,1.33h0c-1.08-.4-2.39.21-2.12,1h0c.33,1-1.66,1.53-2.56.72h0c-.72-.65-2.31-.43-2.56.35h0c-.31,1-2.49,1-2.8,0h0c-.25-.78-1.83-1-2.56-.35h0c-.9.81-2.89.25-2.55-.72h0c.27-.78-1.05-1.39-2.12-1h0c-1.34.51-2.8-.53-1.88-1.33h0c.75-.64-.06-1.54-1.3-1.45h0c-1.55.12-2.22-1.21-.87-1.7h0c1.09-.39.92-1.42-.27-1.66h0c-1.49-.3-1.26-1.68.29-1.78h0c1.24-.07,1.74-1.06.81-1.59h0c-1.17-.66-.08-1.86,1.4-1.55h0c1.18.25,2.27-.52,1.75-1.24h0c-.65-.91,1.12-1.72,2.26-1.05h0c.92.54,2.41.11,2.4-.68h0c0-1,2.11-1.29,2.73-.37h0A1.84,1.84,0,0,0,26.68,36.93Z"/><path class="cls-3" d="M26.71,39.47h0c1-.85,3.31-.42,3.27.61h0c0,.73,1.2,1.25,2.38,1h0c1.68-.34,3.11.79,2,1.61h0c-.77.57-.29,1.42.91,1.62h0c1.71.29,1.71,1.69,0,2h0c-1.2.2-1.68,1-.91,1.62h0c1.09.82-.34,1.95-2,1.6h0c-1.18-.24-2.42.28-2.38,1h0c0,1-2.26,1.46-3.27.61h0a2.64,2.64,0,0,0-2.95,0h0c-1,.85-3.31.42-3.26-.61h0c0-.73-1.21-1.25-2.39-1h0c-1.68.35-3.11-.78-2-1.6h0c.77-.58.3-1.42-.91-1.62h0c-1.71-.3-1.71-1.7,0-2h0c1.21-.2,1.68-1.05.91-1.62h0c-1.09-.82.34-1.95,2-1.61h0c1.18.25,2.42-.27,2.39-1h0c-.05-1,2.25-1.46,3.26-.61h0A2.64,2.64,0,0,0,26.71,39.47Z"/><path class="cls-4" d="M26.31,40.82h0c.68-.64,2.22-.31,2.19.47h0c0,.55.8.94,1.59.75h0c1.13-.26,2.08.6,1.35,1.22h0c-.51.43-.19,1.07.61,1.22h0c1.15.22,1.15,1.28,0,1.5h0c-.8.15-1.12.79-.61,1.22h0c.73.62-.22,1.48-1.35,1.22h0c-.79-.19-1.62.21-1.59.75h0c0,.78-1.51,1.11-2.19.47h0a1.58,1.58,0,0,0-2,0h0c-.67.64-2.22.31-2.18-.47h0c0-.54-.81-.94-1.6-.75h0c-1.12.26-2.08-.6-1.35-1.22h0c.52-.43.2-1.07-.61-1.22h0c-1.14-.22-1.14-1.28,0-1.5h0c.81-.15,1.13-.79.61-1.22h0c-.73-.62.23-1.48,1.35-1.22h0c.79.19,1.62-.2,1.6-.75h0c0-.78,1.51-1.11,2.18-.47h0A1.58,1.58,0,0,0,26.31,40.82Z"/><path class="cls-3" d="M26.11,43.23h0c1.1-.35,2.38.21,2.17.94h0c-.09.29.07.58.43.79h0c.88.51.39,1.41-.83,1.52h0a1.59,1.59,0,0,0-1.12.49h0a2.06,2.06,0,0,1-2.68,0h0A1.59,1.59,0,0,0,23,46.48h0c-1.22-.11-1.71-1-.82-1.52h0a.72.72,0,0,0,.43-.79h0c-.21-.73,1.06-1.29,2.16-.94h0A2.49,2.49,0,0,0,26.11,43.23Z"/><path class="cls-1" d="M72.62,30.11h0c.86-1.34,3.82-.91,3.8.54h0c0,1.16,2,1.78,3.33,1h0c1.59-1,4,.22,3.15,1.54h0c-.72,1.06.79,2.19,2.43,1.82h0c2-.46,3.57,1.3,2,2.26h0c-1.3.77-.61,2.21,1.12,2.33h0c2.15.13,2.47,2.16.41,2.59h0c-1.66.35-1.89,1.86-.38,2.44h0c1.88.71.94,2.65-1.21,2.48h0c-1.72-.13-2.85,1.18-1.82,2.12h0c1.29,1.17-.74,2.68-2.6,1.94h0c-1.49-.59-3.32.3-2.94,1.44h0c.46,1.42-2.3,2.24-3.56,1.06h0c-1-.95-3.21-.63-3.56.51h0c-.43,1.42-3.46,1.42-3.89,0h0c-.34-1.14-2.55-1.46-3.56-.51h0c-1.25,1.18-4,.36-3.55-1.06h0c.37-1.14-1.45-2-3-1.44h0c-1.86.74-3.89-.77-2.6-1.94h0c1-.94-.1-2.25-1.82-2.12h0c-2.15.17-3.08-1.77-1.2-2.48h0c1.51-.58,1.27-2.09-.38-2.44h0c-2.06-.43-1.75-2.46.4-2.59h0c1.73-.12,2.43-1.56,1.13-2.33h0c-1.62-1-.11-2.72,1.94-2.26h0c1.65.37,3.16-.76,2.44-1.82h0c-.9-1.32,1.55-2.52,3.15-1.54h0c1.28.79,3.34.17,3.32-1h0c0-1.45,3-1.88,3.81-.54h0A2.48,2.48,0,0,0,72.62,30.11Z"/><path class="cls-2" d="M72.3,32.29h0c.7-1.05,3.1-.71,3.09.43h0c0,.91,1.66,1.4,2.7.78h0c1.29-.77,3.28.17,2.56,1.21h0c-.59.83.64,1.71,2,1.42h0c1.67-.36,2.9,1,1.58,1.78h0c-1,.61-.49,1.74.92,1.83h0c1.74.11,2,1.7.33,2h0c-1.35.28-1.54,1.46-.31,1.91h0c1.53.56.77,2.08-1,2h0c-1.4-.1-2.31.93-1.48,1.67h0c1,.91-.6,2.1-2.11,1.52h0c-1.21-.46-2.7.24-2.39,1.13h0c.38,1.12-1.87,1.77-2.89.84h0c-.82-.75-2.61-.5-2.89.4h0c-.35,1.11-2.81,1.11-3.16,0h0c-.28-.9-2.07-1.15-2.89-.4h0c-1,.93-3.27.28-2.89-.84h0c.31-.89-1.17-1.59-2.39-1.13h0c-1.51.58-3.16-.61-2.11-1.52h0c.84-.74-.08-1.77-1.48-1.67h0c-1.74.13-2.5-1.39-1-2h0c1.23-.45,1-1.63-.3-1.91h0c-1.68-.34-1.42-1.93.33-2h0c1.4-.09,2-1.22.91-1.83h0c-1.32-.75-.09-2.14,1.58-1.78h0c1.34.29,2.56-.59,2-1.42h0c-.73-1,1.26-2,2.55-1.21h0c1,.62,2.72.13,2.7-.78h0c0-1.14,2.39-1.48,3.09-.43h0A2.05,2.05,0,0,0,72.3,32.29Z"/><path class="cls-1" d="M72.33,35.21h0c1.14-1,3.75-.48,3.69.7h0c0,.84,1.36,1.44,2.7,1.16h0c1.89-.4,3.5.9,2.27,1.84h0c-.86.66-.33,1.63,1,1.86h0c1.93.34,1.93,1.95,0,2.28h0c-1.36.24-1.89,1.2-1,1.86h0c1.23.94-.38,2.24-2.27,1.85h0c-1.34-.28-2.74.31-2.7,1.15h0c.06,1.18-2.55,1.68-3.69.7h0a2.94,2.94,0,0,0-3.33,0h0c-1.14,1-3.74.48-3.68-.7h0c0-.84-1.36-1.43-2.7-1.15h0c-1.9.39-3.5-.91-2.28-1.85h0c.87-.66.34-1.62-1-1.86h0c-1.93-.33-1.93-1.94,0-2.28h0c1.37-.23,1.9-1.2,1-1.86h0c-1.22-.94.38-2.24,2.28-1.84h0c1.34.28,2.74-.32,2.7-1.16h0c-.06-1.18,2.54-1.68,3.68-.7h0A2.94,2.94,0,0,0,72.33,35.21Z"/><path class="cls-2" d="M71.89,36.77h0c.76-.74,2.5-.37,2.46.53h0c0,.63.91,1.08,1.8.87h0c1.27-.3,2.35.68,1.53,1.39h0c-.58.5-.23,1.23.68,1.41h0c1.3.25,1.3,1.46,0,1.72h0c-.91.17-1.26.9-.68,1.4h0c.82.71-.26,1.7-1.53,1.4h0c-.89-.22-1.83.24-1.8.86h0c0,.9-1.7,1.27-2.46.54h0a1.79,1.79,0,0,0-2.23,0h0c-.76.73-2.5.36-2.47-.54h0c0-.62-.91-1.08-1.8-.86h0c-1.27.3-2.34-.69-1.52-1.4h0c.58-.5.22-1.23-.69-1.4h0c-1.29-.26-1.29-1.47,0-1.72h0c.91-.18,1.27-.91.69-1.41h0c-.82-.71.25-1.69,1.52-1.39h0c.89.21,1.83-.24,1.8-.87h0c0-.9,1.71-1.27,2.47-.53h0A1.79,1.79,0,0,0,71.89,36.77Z"/><path class="cls-1" d="M71.66,39.53h0c1.24-.4,2.68.24,2.44,1.08h0a.82.82,0,0,0,.49.9h0c1,.6.44,1.63-.94,1.75h0a1.86,1.86,0,0,0-1.26.56h0a2.29,2.29,0,0,1-3,0h0a1.89,1.89,0,0,0-1.27-.56h0c-1.38-.12-1.93-1.15-.93-1.75h0a.8.8,0,0,0,.48-.9h0c-.23-.84,1.21-1.48,2.44-1.08h0A2.8,2.8,0,0,0,71.66,39.53Z"/><path class="cls-1" d="M89.25,10.05h0c.86-1.37,3.82-.93,3.8.56h0c0,1.21,2,1.84,3.33,1h0c1.59-1,4,.22,3.14,1.59h0c-.72,1.09.79,2.25,2.44,1.87h0c2.05-.47,3.56,1.35,1.94,2.34h0c-1.3.8-.6,2.28,1.13,2.4h0c2.15.14,2.47,2.23.4,2.68h0c-1.65.36-1.89,1.92-.38,2.51h0c1.89.74,1,2.74-1.2,2.57h0c-1.72-.14-2.85,1.22-1.82,2.18h0c1.29,1.21-.74,2.77-2.6,2h0c-1.5-.61-3.32.31-3,1.48h0c.47,1.47-2.29,2.32-3.55,1.1h0c-1-1-3.21-.66-3.56.52h0c-.43,1.47-3.46,1.47-3.89,0h0c-.35-1.18-2.55-1.5-3.56-.52h0c-1.26,1.22-4,.37-3.55-1.1h0c.37-1.17-1.45-2.09-3-1.48h0c-1.86.76-3.89-.8-2.6-2h0c1-1-.1-2.32-1.82-2.18h0c-2.15.17-3.09-1.83-1.2-2.57h0c1.51-.59,1.27-2.15-.38-2.51h0c-2.07-.45-1.75-2.54.4-2.68h0c1.73-.12,2.43-1.6,1.13-2.4h0c-1.62-1-.11-2.81,1.94-2.34h0c1.65.38,3.16-.78,2.44-1.87h0c-.9-1.37,1.55-2.6,3.14-1.59h0c1.28.81,3.35.18,3.33-1h0c0-1.49,2.94-1.93,3.8-.56h0A2.42,2.42,0,0,0,89.25,10.05Z"/><path class="cls-5" d="M88.93,12.31h0c.7-1.08,3.1-.74,3.09.44h0c0,.95,1.66,1.45,2.7.81h0c1.29-.8,3.28.17,2.55,1.24h0c-.58.86.65,1.78,2,1.48h0c1.67-.38,2.9,1,1.58,1.83h0c-1,.63-.49,1.8.91,1.89h0c1.75.11,2,1.75.33,2.11h0c-1.34.28-1.53,1.5-.3,2h0c1.52.58.76,2.15-1,2h0c-1.4-.1-2.32,1-1.48,1.72h0c1,1-.6,2.17-2.11,1.58h0c-1.22-.48-2.7.24-2.39,1.16h0c.38,1.15-1.87,1.82-2.89.86h0c-.82-.77-2.61-.51-2.89.41h0c-.35,1.16-2.81,1.16-3.16,0h0c-.28-.92-2.07-1.18-2.89-.41h0c-1,1-3.27.29-2.89-.86h0c.31-.92-1.18-1.64-2.39-1.16h0c-1.51.59-3.16-.63-2.11-1.58h0c.83-.76-.08-1.82-1.48-1.72h0c-1.75.14-2.51-1.43-1-2h0c1.23-.47,1-1.69-.31-2h0c-1.67-.36-1.41-2,.33-2.11h0c1.41-.09,2-1.26.92-1.89h0c-1.32-.78-.09-2.21,1.58-1.83h0c1.33.3,2.56-.62,2-1.48h0c-.72-1.07,1.27-2,2.56-1.24h0c1,.64,2.71.14,2.7-.81h0c0-1.18,2.39-1.52,3.09-.44h0A2,2,0,0,0,88.93,12.31Z"/><path class="cls-1" d="M89,15.32h0c1.14-1,3.74-.49,3.69.73h0c0,.86,1.36,1.48,2.69,1.19h0c1.9-.41,3.51.93,2.28,1.9h0c-.87.68-.33,1.68,1,1.92h0c1.93.35,1.93,2,0,2.36h0c-1.36.24-1.9,1.24-1,1.92h0c1.23,1-.38,2.31-2.28,1.9h0c-1.33-.29-2.73.33-2.69,1.19h0c0,1.22-2.55,1.74-3.69.73h0a2.87,2.87,0,0,0-3.33,0h0c-1.14,1-3.74.49-3.69-.73h0c0-.86-1.35-1.48-2.69-1.19h0c-1.9.41-3.51-.93-2.28-1.9h0c.87-.68.33-1.68-1-1.92h0c-1.93-.35-1.93-2,0-2.36h0c1.36-.24,1.9-1.24,1-1.92h0c-1.23-1,.38-2.31,2.28-1.9h0c1.34.29,2.73-.33,2.69-1.19h0c0-1.22,2.55-1.74,3.69-.73h0A2.87,2.87,0,0,0,89,15.32Z"/><path class="cls-5" d="M88.51,16.93h0c.76-.76,2.5-.37,2.47.55h0c0,.65.91,1.11,1.8.9h0c1.27-.31,2.34.7,1.52,1.43h0c-.58.52-.22,1.27.69,1.46h0c1.29.26,1.29,1.51,0,1.77h0c-.91.18-1.27.94-.69,1.45h0c.82.73-.25,1.75-1.52,1.44h0c-.89-.22-1.83.25-1.8.9h0c0,.92-1.71,1.31-2.47.55h0a1.74,1.74,0,0,0-2.23,0h0c-.76.76-2.5.37-2.46-.55h0c0-.65-.91-1.12-1.8-.9h0c-1.27.31-2.35-.71-1.53-1.44h0c.58-.51.23-1.27-.68-1.45h0c-1.3-.26-1.3-1.51,0-1.77h0c.91-.19,1.26-.94.68-1.46h0c-.82-.73.26-1.74,1.53-1.43h0c.89.21,1.83-.25,1.8-.9h0c0-.92,1.7-1.31,2.46-.55h0A1.74,1.74,0,0,0,88.51,16.93Z"/><path class="cls-1" d="M88.29,19.78h0c1.23-.41,2.67.25,2.44,1.11h0a.86.86,0,0,0,.48.94h0c1,.61.45,1.68-.93,1.8h0a1.85,1.85,0,0,0-1.27.58h0a2.21,2.21,0,0,1-3,0h0a1.85,1.85,0,0,0-1.27-.58h0c-1.38-.12-1.93-1.19-.93-1.8h0a.86.86,0,0,0,.48-.94h0c-.24-.86,1.21-1.52,2.44-1.11h0A2.63,2.63,0,0,0,88.29,19.78Z"/><path class="cls-1" d="M19.2,49.37h0c.77-1.37,3.39-.94,3.37.56h0c0,1.21,1.82,1.84,2.95,1h0c1.41-1,3.58.22,2.79,1.59h0c-.64,1.09.7,2.25,2.15,1.87h0c1.82-.47,3.16,1.34,1.73,2.34h0c-1.15.79-.54,2.28,1,2.4h0c1.91.14,2.19,2.23.36,2.68h0c-1.46.36-1.67,1.92-.33,2.51h0c1.66.74.83,2.74-1.07,2.57h0c-1.53-.14-2.53,1.22-1.61,2.18h0c1.14,1.21-.66,2.77-2.31,2h0c-1.32-.61-2.94.31-2.61,1.48h0c.42,1.46-2,2.32-3.14,1.1h0c-.89-1-2.85-.66-3.16.52h0c-.38,1.47-3.06,1.47-3.44,0h0c-.31-1.18-2.26-1.5-3.16-.52h0c-1.11,1.22-3.56.36-3.14-1.1h0C9.9,71.42,8.28,70.5,7,71.11H7c-1.65.76-3.45-.8-2.31-2h0c.92-1-.08-2.32-1.61-2.18H3C1.14,67.09.31,65.09,2,64.35H2c1.33-.59,1.13-2.15-.34-2.51h0C-.19,61.39.09,59.3,2,59.16H2c1.53-.12,2.15-1.61,1-2.4H3c-1.44-1-.1-2.81,1.72-2.34h0c1.46.38,2.79-.78,2.16-1.87h0C6.08,51.18,8.25,50,9.66,51h0c1.14.81,3,.18,2.95-1h0c0-1.5,2.61-1.93,3.37-.56h0A2,2,0,0,0,19.2,49.37Z"/><path class="cls-5" d="M18.92,51.63h0c.62-1.08,2.75-.74,2.74.44h0c0,.94,1.47,1.44,2.39.81h0c1.15-.8,2.91.17,2.26,1.24h0c-.51.86.57,1.78,1.76,1.48h0c1.47-.38,2.56,1,1.39,1.83h0c-.93.63-.43,1.8.81,1.89h0c1.55.11,1.78,1.75.3,2.1h0c-1.19.29-1.36,1.51-.28,2h0c1.36.58.68,2.15-.86,2h0c-1.24-.11-2.05,1-1.31,1.72h0c.92,1-.53,2.17-1.87,1.57h0c-1.08-.48-2.39.25-2.12,1.17h0c.33,1.15-1.65,1.82-2.56.86h0a1.61,1.61,0,0,0-2.56.41h0c-.31,1.16-2.49,1.16-2.8,0h0a1.61,1.61,0,0,0-2.56-.41h0c-.9,1-2.89.29-2.55-.86h0c.27-.92-1-1.65-2.12-1.17H9c-1.34.6-2.8-.62-1.87-1.57h0c.74-.76-.07-1.83-1.31-1.72h0c-1.55.14-2.22-1.43-.87-2h0c1.09-.47.92-1.69-.27-2h0c-1.49-.35-1.26-2,.29-2.1H5c1.24-.09,1.74-1.26.81-1.89h0c-1.17-.78-.08-2.21,1.4-1.83h0c1.18.3,2.27-.62,1.75-1.48h0c-.64-1.07,1.12-2,2.26-1.24h0c.92.63,2.41.13,2.4-.81h0c0-1.18,2.11-1.52,2.73-.44h0A1.64,1.64,0,0,0,18.92,51.63Z"/><path class="cls-1" d="M19,54.64h0c1-1,3.32-.49,3.27.73h0c0,.86,1.2,1.48,2.38,1.19h0c1.68-.41,3.11.93,2,1.9h0c-.77.68-.29,1.68.91,1.92h0c1.71.35,1.71,2,0,2.35h0c-1.2.25-1.68,1.25-.91,1.93h0c1.09,1-.34,2.31-2,1.9h0c-1.18-.29-2.42.33-2.38,1.19h0C22.27,69,20,69.48,19,68.48h0a2.31,2.31,0,0,0-2.95,0h0c-1,1-3.31.49-3.26-.73h0c0-.86-1.21-1.48-2.39-1.19h0c-1.68.41-3.11-.93-2-1.9h0c.77-.68.3-1.68-.91-1.93h0c-1.71-.34-1.71-2,0-2.35h0c1.21-.24,1.68-1.24.91-1.92h0c-1.09-1,.34-2.31,2-1.9h0c1.18.29,2.42-.33,2.39-1.19h0c-.05-1.22,2.25-1.74,3.26-.73h0A2.31,2.31,0,0,0,19,54.64Z"/><path class="cls-5" d="M18.55,56.25h0c.68-.76,2.22-.37,2.19.55h0c0,.65.8,1.11,1.59.9h0c1.13-.31,2.08.7,1.35,1.43h0c-.51.52-.19,1.27.61,1.45h0c1.15.27,1.15,1.52,0,1.78h0c-.8.18-1.12.94-.61,1.45h0c.73.73-.22,1.75-1.35,1.44h0c-.79-.22-1.62.25-1.59.9h0c0,.92-1.51,1.31-2.19.54h0a1.42,1.42,0,0,0-2,0h0c-.67.77-2.21.38-2.18-.54h0c0-.65-.81-1.12-1.6-.9h0c-1.12.31-2.07-.71-1.35-1.44h0c.52-.51.2-1.27-.61-1.45h0c-1.14-.26-1.14-1.51,0-1.78h0c.81-.18,1.13-.93.61-1.45h0c-.72-.73.23-1.74,1.35-1.43h0c.79.21,1.62-.25,1.6-.9h0c0-.92,1.51-1.31,2.18-.55h0A1.4,1.4,0,0,0,18.55,56.25Z"/><path class="cls-1" d="M18.36,59.1h0c1.09-.41,2.37.25,2.16,1.11h0a.88.88,0,0,0,.43.94h0c.88.61.39,1.68-.83,1.8h0a1.57,1.57,0,0,0-1.12.58h0a1.8,1.8,0,0,1-2.67,0h0A1.58,1.58,0,0,0,15.2,63h0c-1.22-.12-1.71-1.19-.82-1.8h0a.9.9,0,0,0,.43-.94h0c-.21-.86,1.07-1.52,2.16-1.11h0A2.07,2.07,0,0,0,18.36,59.1Z"/><path class="cls-6" d="M40.31,154c4.07,12.28,10,10.88,10,10.88s11.09,0,15.52-.84,4.43-1.67,4.43-1.67c13.31-19.24,0-40.16,0-40.16-2.4-4.36-1.47-7.65.35-10a15.75,15.75,0,0,1,6.26-4.41s0,2.67,0-1.66-6.41-3.56-6.41-3.56c-15.32,8-23.16,0-23.16,0-4.11-2-6.05,0-6.05,0-2.42,2.15,0,5.22,0,5.22a44,44,0,0,0,5,3.51c3.69,6.69-1.46,13.38-1.46,13.38S37,143.91,40.31,154Z"/><path class="cls-7" d="M70.24,111.29s-4.43-6.7-6.65,7.53c0,0,6.65,26.54,0,45.48l4.43-.82,2.22-1.16a35.47,35.47,0,0,0,2.87-34.24c-8.41-19.3-.31-.76-.31-.76s-6.55-10.57-2.89-14.14Z"/><path class="cls-8" d="M49.18,157.3s-5.54-22.68,0-34.76"/><path class="cls-9" d="M53.29,105.6c3.65-1-11-37.34-11-37.34v8.88l5,25.42"/><path class="cls-9" d="M58.18,106.11s-1.83-29.84-4.31-36.59S50.29,67,50.29,67V89.88l1.81,15.38"/><path class="cls-9" d="M61.48,105.76s-4.32-33,0-40.09c0,0,5.44,23.15,2.11,39"/><path class="cls-9" d="M71,65.67s-7.45,19.1-7.45,20.65a13.21,13.21,0,0,0,1.08,4S74,69.41,71,65.67Z"/><path class="cls-9" d="M63.59,101.25S81.33,67.79,78,65.28c0,0-12.19,27.36-15.52,30.83"/><path class="cls-9" d="M66.75,104.25S77.69,69.46,90,63.6c0,0-16.6,29.47-17.09,39"/><path class="cls-3" d="M100.75,39.64h0c1.06-1.88,4.69-1.28,4.67.77h0c0,1.64,2.51,2.51,4.09,1.4h0c1.95-1.39,5,.3,3.86,2.17h0c-.88,1.49,1,3.08,3,2.56h0c2.52-.65,4.38,1.84,2.39,3.2h0c-1.59,1.09-.74,3.12,1.39,3.28h0c2.64.2,3,3,.5,3.67h0c-2,.49-2.33,2.62-.47,3.43h0c2.31,1,1.16,3.74-1.48,3.51h0c-2.12-.19-3.5,1.66-2.23,3h0c1.58,1.64-.91,3.78-3.2,2.74h0c-1.84-.84-4.08.42-3.62,2h0c.57,2-2.82,3.16-4.37,1.5h0c-1.23-1.34-4-.9-4.37.71h0c-.53,2-4.25,2-4.78,0h0c-.42-1.61-3.14-2-4.37-.71h0c-1.55,1.66-5,.5-4.37-1.5h0c.46-1.61-1.78-2.87-3.62-2h0c-2.29,1-4.78-1.1-3.2-2.74h0c1.27-1.33-.11-3.18-2.23-3h0c-2.64.23-3.79-2.5-1.48-3.51h0c1.86-.81,1.57-2.94-.47-3.43h0c-2.53-.62-2.14-3.47.5-3.67h0c2.12-.16,3-2.19,1.39-3.28h0c-2-1.36-.13-3.85,2.38-3.2h0c2,.52,3.88-1.07,3-2.56h0c-1.1-1.87,1.9-3.56,3.86-2.17h0c1.57,1.11,4.11.24,4.09-1.4h0c0-2,3.61-2.65,4.67-.77h0A2.78,2.78,0,0,0,100.75,39.64Z"/><path class="cls-4" d="M100.35,42.72h0c.87-1.47,3.82-1,3.8.61h0c0,1.29,2,2,3.32,1.1h0c1.59-1.09,4,.24,3.14,1.7h0c-.72,1.18.79,2.43,2.43,2h0c2-.51,3.56,1.44,1.94,2.51h0c-1.3.85-.6,2.45,1.12,2.58h0c2.15.15,2.47,2.39.41,2.88h0c-1.65.39-1.89,2.06-.38,2.69h0c1.88.8.94,2.94-1.2,2.76h0c-1.72-.15-2.85,1.31-1.82,2.35h0c1.29,1.29-.74,3-2.59,2.15h0c-1.5-.65-3.32.33-2.94,1.6h0c.46,1.57-2.3,2.49-3.55,1.17h0c-1-1-3.21-.7-3.55.57h0C100.05,71,97,71,96.6,69.41h0c-.35-1.27-2.55-1.62-3.55-.57h0c-1.26,1.32-4,.4-3.55-1.17h0c.37-1.27-1.45-2.25-2.94-1.6h0c-1.86.82-3.88-.86-2.6-2.15h0c1-1-.09-2.5-1.81-2.35h0c-2.14.18-3.08-2-1.2-2.76h0c1.51-.63,1.27-2.3-.38-2.69h0c-2.06-.49-1.74-2.73.41-2.88h0c1.72-.13,2.41-1.73,1.12-2.58h0c-1.62-1.07-.11-3,1.94-2.51h0c1.64.41,3.15-.84,2.43-2h0c-.9-1.46,1.55-2.79,3.14-1.7h0c1.27.87,3.33.19,3.32-1.1h0c0-1.61,2.93-2.08,3.79-.61h0A2.29,2.29,0,0,0,100.35,42.72Z"/><path class="cls-3" d="M100.4,46.84h0c1.4-1.38,4.59-.67,4.52,1h0c0,1.17,1.67,2,3.32,1.62h0c2.33-.56,4.3,1.28,2.79,2.6h0c-1.06.94-.4,2.3,1.27,2.63h0c2.37.48,2.37,2.75,0,3.22h0c-1.67.33-2.33,1.7-1.27,2.63h0c1.51,1.32-.46,3.16-2.79,2.6h0c-1.65-.39-3.36.45-3.32,1.63h0c.07,1.67-3.12,2.37-4.52,1h0a3.25,3.25,0,0,0-4.1,0h0c-1.39,1.38-4.59.68-4.52-1h0c0-1.18-1.67-2-3.32-1.63h0c-2.33.56-4.3-1.28-2.79-2.6h0c1.06-.93.4-2.3-1.27-2.63h0c-2.37-.47-2.37-2.74,0-3.22h0c1.67-.33,2.33-1.69,1.27-2.63h0c-1.51-1.32.46-3.16,2.79-2.6h0c1.65.4,3.36-.45,3.32-1.62h0c-.07-1.67,3.13-2.38,4.52-1h0A3.23,3.23,0,0,0,100.4,46.84Z"/><path class="cls-4" d="M99.85,49h0c.93-1,3.07-.51,3,.75h0c0,.89,1.12,1.53,2.22,1.23h0c1.56-.42,2.88,1,1.87,2h0c-.71.71-.27,1.74.85,2h0c1.58.36,1.58,2.07,0,2.43h0c-1.12.25-1.56,1.28-.85,2h0c1,1-.31,2.39-1.87,2h0c-1.1-.3-2.25.34-2.22,1.22h0c0,1.27-2.09,1.8-3,.75h0a2,2,0,0,0-2.74,0h0c-.94,1.05-3.07.52-3-.75h0c0-.88-1.11-1.52-2.21-1.22h0c-1.56.42-2.88-1-1.87-2h0c.71-.7.27-1.73-.85-2h0c-1.59-.36-1.59-2.07,0-2.43h0c1.12-.25,1.56-1.28.85-2h0c-1-1,.31-2.38,1.87-2h0c1.1.3,2.24-.34,2.21-1.23h0c0-1.26,2.09-1.79,3-.75h0A2,2,0,0,0,99.85,49Z"/><path class="cls-3" d="M99.57,52.94h0c1.52-.56,3.29.34,3,1.52h0a1.21,1.21,0,0,0,.59,1.28h0c1.23.84.55,2.3-1.14,2.47h0a2.15,2.15,0,0,0-1.56.79h0a2.55,2.55,0,0,1-3.71,0h0a2.15,2.15,0,0,0-1.55-.79h0c-1.7-.17-2.37-1.63-1.15-2.47h0a1.21,1.21,0,0,0,.6-1.28h0c-.29-1.18,1.48-2.08,3-1.52h0A2.88,2.88,0,0,0,99.57,52.94Z"/><path class="cls-3" d="M97.9,24.14h0c.77-1.15,3.39-.78,3.37.47h0c0,1,1.82,1.54,3,.86h0c1.41-.85,3.58.18,2.79,1.32h0c-.64.92.7,1.89,2.16,1.57h0c1.81-.4,3.15,1.12,1.72,1.95h0c-1.15.67-.54,1.92,1,2h0c1.91.12,2.19,1.87.36,2.24h0c-1.46.31-1.67,1.61-.33,2.1h0c1.66.62.84,2.29-1.07,2.15h0c-1.52-.12-2.52,1-1.61,1.83h0c1.14,1-.65,2.31-2.3,1.67h0c-1.32-.51-2.94.26-2.6,1.24h0c.41,1.23-2,1.94-3.15.92h0c-.89-.82-2.85-.55-3.15.44h0c-.39,1.23-3.07,1.23-3.45,0h0c-.31-1-2.26-1.26-3.15-.44h0c-1.12,1-3.57.31-3.15-.92h0c.33-1-1.29-1.75-2.61-1.24h0c-1.65.64-3.44-.67-2.3-1.67h0c.91-.81-.09-2-1.62-1.83h0c-1.9.14-2.73-1.53-1.06-2.15h0c1.34-.49,1.13-1.79-.34-2.1h0c-1.83-.37-1.54-2.12.36-2.24h0c1.53-.09,2.15-1.34,1-2h0c-1.44-.83-.1-2.35,1.72-1.95h0c1.46.32,2.8-.65,2.16-1.57h0c-.8-1.14,1.37-2.17,2.79-1.32h0c1.13.68,2.95.14,2.94-.86h0c0-1.25,2.61-1.62,3.37-.47h0A2.22,2.22,0,0,0,97.9,24.14Z"/><path class="cls-4" d="M97.62,26h0c.62-.91,2.75-.62,2.74.36h0c0,.79,1.47,1.21,2.39.68h0c1.15-.67,2.91.14,2.27,1h0c-.52.72.56,1.48,1.75,1.23h0c1.47-.31,2.56.88,1.4,1.54h0c-.94.52-.44,1.5.81,1.57h0c1.54.1,1.77,1.47.29,1.77h0c-1.19.23-1.36,1.26-.28,1.65h0c1.36.48.68,1.79-.86,1.68h0c-1.24-.09-2,.8-1.31,1.44h0c.93.79-.53,1.81-1.87,1.31h0c-1.08-.4-2.39.21-2.12,1h0c.34,1-1.65,1.52-2.56.72h0c-.72-.64-2.31-.43-2.56.34h0c-.31,1-2.49,1-2.8,0h0c-.24-.77-1.83-1-2.56-.34h0c-.9.8-2.89.24-2.55-.72h0c.27-.77-1-1.38-2.12-1h0c-1.34.5-2.8-.52-1.87-1.31h0c.74-.64-.07-1.53-1.31-1.44h0c-1.55.11-2.22-1.2-.87-1.68h0c1.09-.39.92-1.42-.27-1.65h0c-1.48-.3-1.26-1.67.29-1.77h0c1.24-.07,1.75-1.05.81-1.57h0c-1.16-.66-.07-1.85,1.4-1.54h0c1.18.25,2.27-.51,1.75-1.23h0c-.64-.9,1.12-1.71,2.27-1h0c.92.53,2.4.11,2.39-.68h0c0-1,2.11-1.27,2.73-.36h0A1.86,1.86,0,0,0,97.62,26Z"/><path class="cls-3" d="M97.65,28.55h0c1-.85,3.32-.42,3.27.6h0c0,.72,1.2,1.24,2.39,1h0c1.68-.35,3.1.78,2,1.59h0c-.76.57-.29,1.4.91,1.61h0c1.72.28,1.72,1.67,0,2h0c-1.2.21-1.67,1-.91,1.61h0c1.09.81-.33,1.93-2,1.59h0c-1.19-.24-2.43.27-2.39,1h0c0,1-2.26,1.46-3.27.61h0a2.68,2.68,0,0,0-3,0h0c-1,.85-3.31.42-3.26-.61h0c0-.72-1.2-1.23-2.39-1h0c-1.68.34-3.1-.78-2-1.59h0c.77-.57.3-1.4-.91-1.61h0c-1.71-.29-1.71-1.68,0-2h0c1.21-.21,1.68-1,.91-1.61h0c-1.08-.81.34-1.94,2-1.59h0c1.19.24,2.42-.28,2.39-1h0c0-1,2.25-1.45,3.26-.6h0A2.68,2.68,0,0,0,97.65,28.55Z"/><path class="cls-4" d="M97.26,29.89h0c.67-.64,2.21-.31,2.18.46h0c0,.54.8.93,1.6.75h0c1.12-.26,2.07.59,1.34,1.2h0c-.51.43-.19,1.06.61,1.21h0c1.15.22,1.15,1.27,0,1.49h0c-.8.15-1.12.78-.61,1.21h0c.73.61-.22,1.46-1.34,1.2h0c-.8-.18-1.62.21-1.6.75h0c0,.78-1.51,1.1-2.18.46h0a1.62,1.62,0,0,0-2,0h0c-.67.64-2.21.32-2.18-.46h0c0-.54-.8-.93-1.6-.75h0c-1.12.26-2.07-.59-1.35-1.2h0c.52-.43.2-1.06-.61-1.21h0c-1.14-.22-1.14-1.27,0-1.49h0c.81-.15,1.13-.78.61-1.21h0c-.72-.61.23-1.46,1.35-1.2h0c.8.18,1.62-.21,1.6-.75h0c0-.77,1.51-1.1,2.18-.46h0A1.62,1.62,0,0,0,97.26,29.89Z"/><path class="cls-3" d="M97.06,32.27h0c1.09-.34,2.37.21,2.16.93h0a.72.72,0,0,0,.43.79h0c.88.51.39,1.4-.83,1.5h0A1.72,1.72,0,0,0,97.7,36h0A2,2,0,0,1,95,36h0a1.73,1.73,0,0,0-1.13-.49h0c-1.22-.1-1.71-1-.82-1.5h0a.72.72,0,0,0,.43-.79h0c-.21-.72,1.07-1.27,2.16-.93h0A2.35,2.35,0,0,0,97.06,32.27Z"/><path class="cls-3" d="M41.58,52.77h0c.86-1.46,3.82-1,3.81.6h0c0,1.28,2,2,3.32,1.09h0c1.6-1.08,4,.23,3.15,1.68h0c-.72,1.17.79,2.4,2.43,2h0c2.05-.51,3.57,1.42,2,2.48h0c-1.3.84-.6,2.43,1.12,2.55h0c2.16.15,2.47,2.37.41,2.85h0c-1.65.38-1.89,2-.38,2.67h0c1.88.78,1,2.9-1.2,2.72h0c-1.73-.14-2.85,1.3-1.82,2.32h0c1.28,1.28-.74,2.94-2.61,2.13h0c-1.49-.65-3.32.33-2.94,1.58h0c.47,1.55-2.3,2.46-3.55,1.17h0c-1-1-3.22-.7-3.56.55h0c-.44,1.56-3.46,1.56-3.89,0h0c-.35-1.25-2.56-1.6-3.57-.55h0c-1.25,1.29-4,.38-3.55-1.17h0c.38-1.25-1.45-2.23-2.94-1.58h0c-1.87.81-3.89-.85-2.61-2.13h0c1-1-.09-2.46-1.82-2.32h0c-2.14.18-3.08-1.94-1.2-2.72h0c1.51-.63,1.28-2.29-.38-2.67h0c-2.06-.48-1.74-2.7.41-2.85h0c1.72-.12,2.42-1.71,1.12-2.55h0c-1.62-1.06-.1-3,1.95-2.48h0c1.64.4,3.15-.83,2.43-2h0c-.89-1.45,1.56-2.76,3.15-1.68h0c1.28.86,3.34.19,3.33-1.09h0c0-1.6,2.94-2.06,3.8-.6h0A2.33,2.33,0,0,0,41.58,52.77Z"/><path class="cls-4" d="M41.26,55.17h0c.7-1.15,3.11-.79,3.09.47h0c0,1,1.66,1.53,2.7.85h0c1.3-.84,3.29.19,2.56,1.33h0c-.59.91.64,1.88,2,1.56h0c1.66-.39,2.89,1.12,1.58,1.95h0c-1.06.67-.49,1.91.91,2h0c1.75.12,2,1.86.33,2.24h0c-1.34.3-1.54,1.6-.31,2.09h0c1.53.62.77,2.28-1,2.14h0c-1.4-.11-2.31,1-1.47,1.83h0c1,1-.6,2.31-2.12,1.67h0c-1.21-.51-2.69.26-2.39,1.24h0c.38,1.22-1.86,1.93-2.88.91h0c-.82-.81-2.62-.54-2.9.44h0c-.35,1.23-2.81,1.23-3.16,0h0c-.28-1-2.07-1.25-2.89-.44h0c-1,1-3.26.31-2.88-.91h0c.3-1-1.18-1.75-2.39-1.24h0c-1.52.64-3.16-.67-2.12-1.67h0c.84-.81-.08-1.94-1.48-1.83h0c-1.74.14-2.5-1.52-1-2.14h0c1.22-.49,1-1.79-.31-2.09h0c-1.68-.38-1.42-2.12.33-2.24h0c1.4-.1,2-1.34.91-2h0C25.09,60.5,26.32,59,28,59.38h0c1.34.32,2.56-.65,2-1.56h0c-.73-1.14,1.26-2.17,2.56-1.33h0c1,.68,2.71.15,2.7-.85h0c0-1.26,2.39-1.62,3.09-.47h0A1.92,1.92,0,0,0,41.26,55.17Z"/><path class="cls-3" d="M41.3,58.37h0c1.14-1.07,3.74-.53,3.68.77h0c0,.92,1.36,1.57,2.7,1.26h0c1.9-.43,3.5,1,2.28,2h0c-.87.72-.34,1.78,1,2h0c1.93.37,1.93,2.13,0,2.5h0c-1.37.26-1.9,1.32-1,2h0c1.22,1-.38,2.46-2.28,2h0c-1.34-.3-2.74.35-2.7,1.27h0c.06,1.29-2.54,1.84-3.68.77h0a2.72,2.72,0,0,0-3.33,0h0c-1.14,1.07-3.75.52-3.69-.77h0c0-.92-1.36-1.57-2.7-1.27h0c-1.89.44-3.5-1-2.27-2h0c.86-.72.33-1.78-1-2h0c-1.93-.37-1.93-2.13,0-2.5h0c1.36-.26,1.89-1.32,1-2h0c-1.23-1,.38-2.46,2.27-2h0c1.34.31,2.74-.34,2.7-1.26h0c-.06-1.3,2.55-1.84,3.69-.77h0A2.75,2.75,0,0,0,41.3,58.37Z"/><path class="cls-4" d="M40.85,60.08h0c.76-.81,2.5-.4,2.46.58h0c0,.69.91,1.19,1.81,1h0c1.26-.32,2.34.75,1.52,1.53h0c-.58.55-.22,1.35.69,1.54h0c1.29.28,1.29,1.61,0,1.89h0c-.91.19-1.27,1-.69,1.54h0c.82.78-.26,1.86-1.52,1.53h0c-.9-.23-1.83.26-1.81,1h0c0,1-1.7,1.39-2.46.59h0a1.67,1.67,0,0,0-2.23,0h0c-.76.8-2.5.39-2.46-.59h0c0-.69-.91-1.18-1.81-1h0c-1.27.33-2.34-.75-1.52-1.53h0c.58-.54.22-1.35-.69-1.54h0c-1.29-.28-1.29-1.61,0-1.89h0c.91-.19,1.27-1,.69-1.54h0c-.82-.78.25-1.85,1.52-1.53h0c.9.24,1.83-.26,1.81-1h0c0-1,1.7-1.39,2.46-.58h0A1.67,1.67,0,0,0,40.85,60.08Z"/><path class="cls-3" d="M40.62,63.1h0c1.24-.43,2.68.27,2.44,1.19h0a.93.93,0,0,0,.49,1h0c1,.65.45,1.79-.93,1.92h0a1.77,1.77,0,0,0-1.27.61h0a2.12,2.12,0,0,1-3,0h0a1.77,1.77,0,0,0-1.27-.61h0c-1.38-.13-1.93-1.27-.93-1.92h0a.93.93,0,0,0,.49-1h0c-.24-.92,1.2-1.62,2.44-1.19h0A2.32,2.32,0,0,0,40.62,63.1Z"/><path class="cls-3" d="M61.14,6h0c.93-1.54,4.15-1,4.13.63h0c0,1.34,2.22,2.05,3.61,1.14h0c1.73-1.13,4.39.25,3.41,1.77h0c-.78,1.23.86,2.53,2.65,2.1h0c2.22-.53,3.87,1.5,2.11,2.61h0c-1.41.89-.65,2.55,1.22,2.68h0c2.34.16,2.68,2.5.44,3h0c-1.79.4-2,2.14-.41,2.8h0c2,.83,1,3.06-1.31,2.87h0c-1.87-.15-3.09,1.36-2,2.44h0c1.39,1.35-.81,3.09-2.83,2.24h0c-1.62-.68-3.6.35-3.2,1.66h0c.51,1.64-2.49,2.59-3.85,1.23h0c-1.1-1.1-3.49-.73-3.87.58h0c-.47,1.64-3.75,1.64-4.22,0h0c-.38-1.31-2.77-1.68-3.87-.58h0c-1.36,1.36-4.36.41-3.86-1.23h0c.41-1.31-1.57-2.34-3.19-1.66h0c-2,.85-4.23-.89-2.83-2.24h0c1.12-1.08-.1-2.59-2-2.44h0c-2.33.19-3.34-2-1.3-2.87h0c1.64-.66,1.38-2.4-.41-2.8h0c-2.24-.5-1.9-2.84.44-3h0c1.87-.13,2.63-1.79,1.22-2.68h0c-1.76-1.11-.12-3.14,2.11-2.61h0c1.79.43,3.43-.87,2.64-2.1h0c-1-1.52,1.69-2.9,3.42-1.77h0c1.39.91,3.63.2,3.61-1.14h0c0-1.68,3.2-2.17,4.13-.63h0A2.59,2.59,0,0,0,61.14,6Z"/><path class="cls-4" d="M60.79,8.49h0c.76-1.21,3.37-.82,3.35.49h0c0,1.06,1.81,1.62,2.94.9h0c1.4-.89,3.56.2,2.77,1.39h0c-.63,1,.7,2,2.15,1.65h0c1.81-.42,3.14,1.18,1.71,2.05h0c-1.14.7-.53,2,1,2.11h0c1.89.13,2.17,2,.35,2.35h0c-1.45.32-1.66,1.69-.33,2.21h0c1.66.65.83,2.4-1.06,2.25h0c-1.52-.12-2.52,1.07-1.61,1.92h0c1.14,1.06-.65,2.43-2.29,1.76h0c-1.32-.54-2.93.27-2.6,1.3h0c.41,1.29-2,2-3.13,1h0c-.89-.86-2.84-.57-3.14.46h0c-.38,1.29-3,1.29-3.43,0h0c-.31-1-2.25-1.32-3.14-.46h0c-1.11,1.08-3.55.33-3.13-1h0c.33-1-1.28-1.84-2.6-1.3h0c-1.64.67-3.43-.7-2.29-1.76h0c.91-.85-.09-2-1.61-1.92h0c-1.89.15-2.72-1.6-1.06-2.25h0c1.33-.52,1.12-1.89-.33-2.21h0c-1.82-.39-1.54-2.22.35-2.35h0c1.53-.1,2.14-1.41,1-2.11h0c-1.43-.87-.1-2.47,1.71-2.05h0c1.45.34,2.78-.68,2.15-1.65h0c-.79-1.19,1.37-2.28,2.77-1.39h0c1.13.72,3,.16,2.93-.9h0c0-1.31,2.6-1.7,3.36-.49h0A2.13,2.13,0,0,0,60.79,8.49Z"/><path class="cls-3" d="M60.83,11.86h0c1.23-1.13,4.06-.56,4,.81h0c0,1,1.47,1.65,2.93,1.33h0c2.06-.46,3.8,1,2.47,2.12h0c-.94.76-.36,1.88,1.12,2.15h0c2.09.39,2.09,2.24,0,2.63h0c-1.48.27-2.06,1.38-1.12,2.15h0c1.33,1.08-.41,2.58-2.47,2.12h0c-1.46-.32-3,.37-2.93,1.33h0c.06,1.37-2.77,1.94-4,.81h0a3.06,3.06,0,0,0-3.62,0h0c-1.24,1.13-4.06.56-4-.81h0c0-1-1.48-1.65-2.93-1.33h0c-2.06.46-3.8-1-2.47-2.12h0c.94-.77.36-1.88-1.12-2.15h0c-2.1-.39-2.1-2.24,0-2.63h0c1.48-.27,2.06-1.39,1.12-2.15h0c-1.33-1.08.41-2.58,2.47-2.12h0c1.45.32,3-.37,2.93-1.33h0c-.06-1.37,2.76-1.94,4-.81h0A3.06,3.06,0,0,0,60.83,11.86Z"/><path class="cls-4" d="M60.34,13.65h0c.83-.85,2.72-.42,2.68.61h0c0,.73,1,1.25,1.95,1h0c1.38-.35,2.55.79,1.66,1.6h0c-.63.58-.24,1.42.74,1.63h0c1.41.29,1.41,1.69,0,2h0c-1,.2-1.37,1.05-.74,1.62h0c.89.82-.28,1.95-1.66,1.61h0c-1-.25-2,.27-1.95,1h0c0,1-1.85,1.46-2.68.61h0a1.85,1.85,0,0,0-2.42,0h0c-.83.85-2.72.42-2.67-.61h0c0-.73-1-1.25-2-1h0c-1.38.34-2.55-.79-1.66-1.61h0c.63-.57.25-1.42-.74-1.62h0c-1.41-.29-1.41-1.69,0-2h0c1-.21,1.37-1.05.74-1.63h0c-.89-.81.28-2,1.66-1.6h0c1,.24,2-.28,2-1h0c0-1,1.84-1.46,2.67-.61h0A1.85,1.85,0,0,0,60.34,13.65Z"/><path class="cls-3" d="M60.1,16.83h0c1.34-.45,2.9.28,2.65,1.25h0a1,1,0,0,0,.52,1.05h0c1.09.68.49,1.87-1,2h0a2,2,0,0,0-1.38.65h0a2.36,2.36,0,0,1-3.27,0h0a2,2,0,0,0-1.38-.65h0c-1.5-.14-2.09-1.33-1-2h0a1,1,0,0,0,.52-1.05h0c-.25-1,1.32-1.7,2.66-1.25h0A2.61,2.61,0,0,0,60.1,16.83Z"/><path class="cls-1" d="M26.27,12.64h0c1-1.5,4.26-1,4.24.61h0c0,1.32,2.28,2,3.71,1.13h0c1.77-1.11,4.5.24,3.5,1.73h0c-.8,1.2.88,2.47,2.72,2.05h0c2.28-.52,4,1.47,2.16,2.56h0c-1.44.87-.67,2.5,1.26,2.62h0c2.39.16,2.75,2.44.45,2.94h0c-1.84.39-2.11,2.1-.42,2.74h0c2.09.81,1,3-1.34,2.81h0c-1.92-.15-3.18,1.33-2,2.39h0c1.43,1.32-.83,3-2.9,2.19h0c-1.67-.67-3.7.34-3.28,1.63h0c.52,1.6-2.56,2.53-4,1.2h0c-1.13-1.08-3.59-.72-4,.57h0c-.48,1.61-3.85,1.61-4.34,0h0c-.38-1.29-2.84-1.65-4-.57h0c-1.4,1.33-4.48.4-4-1.2h0c.42-1.29-1.62-2.3-3.28-1.63h0c-2.08.84-4.34-.87-2.9-2.19H8c1.15-1.06-.11-2.54-2-2.39h0C3.54,32,2.5,29.83,4.6,29h0c1.68-.64,1.42-2.35-.43-2.74h0c-2.29-.5-1.94-2.78.46-2.94h0c1.92-.12,2.7-1.75,1.25-2.62h0c-1.8-1.09-.12-3.08,2.17-2.56h0c1.83.42,3.51-.85,2.71-2.05h0c-1-1.49,1.73-2.84,3.51-1.73h0c1.42.89,3.72.19,3.7-1.13h0c0-1.63,3.28-2.11,4.24-.61h0A2.72,2.72,0,0,0,26.27,12.64Z"/><path class="cls-2" d="M25.92,15.11h0c.78-1.18,3.46-.81,3.44.48h0c0,1,1.85,1.58,3,.88h0c1.44-.87,3.66.19,2.85,1.37h0c-.66.94.71,1.94,2.2,1.61h0c1.86-.41,3.23,1.15,1.76,2h0c-1.18.69-.55,2,1,2.07h0c1.95.12,2.23,1.92.37,2.3h0c-1.5.31-1.72,1.65-.35,2.16h0c1.7.63.86,2.35-1.09,2.2h0c-1.56-.11-2.58,1.05-1.64,1.88h0c1.16,1-.67,2.38-2.36,1.72h0c-1.35-.52-3,.27-2.66,1.28h0c.42,1.26-2.08,2-3.22.94h0c-.91-.84-2.91-.56-3.22.45h0c-.39,1.27-3.13,1.27-3.52,0h0c-.31-1-2.31-1.29-3.22-.45h0c-1.14,1-3.64.32-3.22-.94h0c.34-1-1.31-1.8-2.66-1.28h0c-1.69.66-3.52-.68-2.36-1.72h0c.93-.83-.09-2-1.65-1.88h0c-1.94.15-2.79-1.57-1.08-2.2h0c1.36-.51,1.15-1.85-.35-2.16H8c-1.86-.38-1.58-2.18.37-2.3h0c1.56-.1,2.19-1.38,1-2.07h0c-1.47-.85-.1-2.41,1.76-2h0c1.49.33,2.85-.67,2.2-1.61h0c-.81-1.18,1.41-2.24,2.85-1.37h0c1.16.7,3,.15,3-.88h0c0-1.29,2.66-1.66,3.44-.48h0A2.27,2.27,0,0,0,25.92,15.11Z"/><path class="cls-1" d="M26,18.4h0c1.27-1.1,4.17-.54,4.11.8h0c0,.94,1.51,1.62,3,1.3h0c2.12-.45,3.91,1,2.54,2.08h0c-1,.75-.37,1.84,1.15,2.1h0c2.15.38,2.15,2.2,0,2.58h0c-1.52.26-2.11,1.35-1.15,2.1h0c1.37,1.06-.42,2.53-2.54,2.08h0c-1.49-.32-3,.36-3,1.3h0c.06,1.34-2.84,1.9-4.11.8h0a3.23,3.23,0,0,0-3.71,0h0c-1.27,1.1-4.17.54-4.1-.8h0c0-.94-1.52-1.62-3-1.3h0c-2.11.45-3.91-1-2.54-2.08h0c1-.75.37-1.84-1.14-2.1h0c-2.16-.38-2.16-2.2,0-2.58h0c1.51-.26,2.11-1.35,1.14-2.1h0c-1.37-1.06.43-2.53,2.54-2.08h0c1.49.32,3-.36,3-1.3h0c-.07-1.34,2.83-1.9,4.1-.8h0A3.23,3.23,0,0,0,26,18.4Z"/><path class="cls-2" d="M25.45,20.16h0c.85-.83,2.79-.41,2.75.6h0c0,.71,1,1.22,2,1h0c1.41-.33,2.61.78,1.7,1.58h0c-.65.56-.25,1.38.76,1.58h0c1.44.29,1.44,1.66,0,2h0c-1,.2-1.41,1-.76,1.58h0c.91.8-.29,1.91-1.7,1.58h0c-1-.24-2,.27-2,1h0c0,1-1.9,1.43-2.75.6h0a2,2,0,0,0-2.48,0h0c-.85.83-2.79.41-2.74-.6h0c0-.71-1-1.22-2-1h0c-1.42.33-2.62-.78-1.7-1.58h0c.64-.56.25-1.38-.77-1.58h0c-1.44-.29-1.44-1.66,0-2h0c1-.2,1.41-1,.77-1.58h0c-.92-.8.28-1.91,1.7-1.58h0c1,.24,2-.27,2-1h0c-.05-1,1.89-1.43,2.74-.6h0A2,2,0,0,0,25.45,20.16Z"/><path class="cls-1" d="M25.2,23.28h0c1.38-.45,3,.27,2.72,1.22h0a.93.93,0,0,0,.54,1h0c1.12.67.5,1.84-1,2h0a2.1,2.1,0,0,0-1.41.64h0a2.51,2.51,0,0,1-3.36,0h0a2.08,2.08,0,0,0-1.41-.64h0c-1.54-.13-2.15-1.3-1-2h0a.93.93,0,0,0,.54-1h0c-.26-.95,1.34-1.67,2.72-1.22h0A3,3,0,0,0,25.2,23.28Z"/><path class="cls-1" d="M66.37,50.16h0c.78-1.29,3.49-.88,3.47.52h0c0,1.13,1.87,1.73,3,1h0c1.46-.95,3.7.2,2.88,1.48h0c-.66,1,.72,2.12,2.23,1.76h0c1.87-.44,3.26,1.26,1.78,2.19h0c-1.19.75-.55,2.14,1,2.25h0c2,.14,2.25,2.09.37,2.52h0c-1.52.34-1.73,1.79-.35,2.35h0c1.72.69.86,2.56-1.1,2.4h0c-1.58-.12-2.61,1.15-1.66,2.05h0c1.17,1.13-.68,2.6-2.38,1.88h0c-1.37-.57-3,.29-2.7,1.39h0c.43,1.38-2.1,2.18-3.25,1h0c-.92-.92-2.93-.61-3.25.49h0c-.39,1.38-3.16,1.38-3.56,0h0c-.31-1.1-2.33-1.41-3.25-.49h0c-1.15,1.15-3.68.35-3.25-1h0c.34-1.1-1.33-2-2.69-1.39h0c-1.71.72-3.56-.75-2.38-1.88h0c.94-.9-.09-2.17-1.67-2.05h0c-2,.16-2.82-1.71-1.1-2.4h0c1.38-.56,1.17-2-.34-2.35h0c-1.89-.43-1.6-2.38.37-2.52h0c1.58-.11,2.21-1.5,1-2.25h0c-1.49-.93-.1-2.63,1.77-2.19h0c1.51.36,2.89-.73,2.23-1.76h0c-.82-1.28,1.42-2.43,2.88-1.48h0c1.17.76,3,.16,3-1h0c0-1.4,2.69-1.81,3.48-.52h0A2.18,2.18,0,0,0,66.37,50.16Z"/><path class="cls-2" d="M66.07,52.27h0c.64-1,2.84-.69,2.83.42h0c0,.88,1.52,1.35,2.47.75h0c1.18-.74,3,.16,2.34,1.17h0c-.54.81.58,1.66,1.8,1.38h0c1.53-.35,2.65,1,1.45,1.72h0c-1,.59-.45,1.69.83,1.77h0c1.6.11,1.84,1.64.31,2h0c-1.23.26-1.41,1.41-.29,1.84h0c1.4.55.71,2-.89,1.89h0c-1.28-.1-2.12.9-1.35,1.61h0c1,.89-.55,2-1.93,1.48h0c-1.11-.45-2.47.23-2.19,1.09h0c.35,1.08-1.71,1.71-2.64.81h0c-.75-.72-2.39-.48-2.64.39h0c-.32,1.08-2.57,1.08-2.89,0h0c-.26-.87-1.9-1.11-2.65-.39h0c-.93.9-3,.27-2.63-.81h0c.28-.86-1.08-1.54-2.19-1.09h0c-1.38.56-2.89-.59-1.93-1.48h0c.76-.71-.07-1.71-1.35-1.61h0c-1.6.13-2.29-1.34-.9-1.89h0c1.12-.43.95-1.58-.28-1.84h0c-1.53-.34-1.3-1.87.3-2h0c1.28-.08,1.8-1.18.84-1.77h0c-1.2-.73-.08-2.07,1.44-1.72h0c1.22.28,2.34-.57,1.81-1.38h0c-.67-1,1.15-1.91,2.34-1.17h0c1,.6,2.48.13,2.47-.75h0c0-1.11,2.18-1.43,2.82-.42h0A1.79,1.79,0,0,0,66.07,52.27Z"/><path class="cls-1" d="M66.11,55.1h0c1-1,3.42-.47,3.37.68h0c0,.81,1.24,1.38,2.46,1.11h0c1.73-.38,3.21.88,2.08,1.79h0c-.79.64-.3,1.57.94,1.8h0c1.77.32,1.77,1.88,0,2.2h0c-1.24.23-1.73,1.17-.94,1.81h0c1.13.91-.35,2.17-2.08,1.78h0c-1.22-.27-2.5.31-2.46,1.12h0c0,1.14-2.33,1.62-3.37.68h0a2.57,2.57,0,0,0-3,0h0c-1,.94-3.42.46-3.37-.68h0c0-.81-1.24-1.39-2.46-1.12h0c-1.74.39-3.21-.87-2.09-1.78h0c.8-.64.31-1.58-.94-1.81h0c-1.76-.32-1.76-1.88,0-2.2h0c1.25-.23,1.74-1.16.94-1.8h0c-1.12-.91.35-2.17,2.09-1.79h0c1.22.27,2.5-.3,2.46-1.11h0c0-1.15,2.33-1.63,3.37-.68h0A2.6,2.6,0,0,0,66.11,55.1Z"/><path class="cls-2" d="M65.7,56.6h0c.69-.71,2.28-.35,2.25.52h0c0,.61.83,1,1.65.84h0c1.16-.29,2.14.66,1.39,1.35h0c-.53.48-.2,1.19.63,1.36h0c1.18.24,1.18,1.42,0,1.66h0c-.83.18-1.16.88-.63,1.36h0c.75.69-.23,1.64-1.39,1.35h0c-.82-.2-1.68.23-1.65.84h0c0,.87-1.56,1.23-2.25.52h0a1.55,1.55,0,0,0-2,0h0c-.7.71-2.29.35-2.25-.52h0c0-.61-.83-1-1.65-.84h0c-1.16.29-2.15-.66-1.39-1.35h0c.52-.48.2-1.18-.63-1.36h0c-1.19-.24-1.19-1.42,0-1.66h0c.83-.17,1.15-.88.63-1.36h0c-.76-.69.23-1.64,1.39-1.35h0c.82.2,1.67-.23,1.65-.84h0c0-.87,1.55-1.23,2.25-.52h0A1.55,1.55,0,0,0,65.7,56.6Z"/><path class="cls-1" d="M65.49,59.27h0c1.13-.38,2.45.24,2.23,1h0a.82.82,0,0,0,.44.88h0c.92.57.41,1.57-.85,1.69h0a1.7,1.7,0,0,0-1.16.54h0a2,2,0,0,1-2.76,0h0a1.65,1.65,0,0,0-1.15-.54h0c-1.27-.12-1.77-1.12-.86-1.69h0a.81.81,0,0,0,.45-.88h0c-.22-.81,1.1-1.43,2.23-1h0A2.19,2.19,0,0,0,65.49,59.27Z"/><path class="cls-1" d="M49.74,31h0c.79-1.38,3.49-.94,3.48.56h0c0,1.2,1.87,1.84,3,1h0c1.45-1,3.69.22,2.87,1.58h0c-.65,1.1.73,2.26,2.23,1.88h0c1.88-.48,3.26,1.34,1.78,2.33h0c-1.19.8-.55,2.29,1,2.4h0c2,.15,2.26,2.24.37,2.69h0c-1.51.36-1.73,1.91-.35,2.51h0c1.72.73.87,2.73-1.1,2.56h0c-1.57-.13-2.6,1.22-1.66,2.19h0c1.17,1.2-.68,2.76-2.38,2h0c-1.37-.61-3,.31-2.69,1.49h0c.42,1.46-2.1,2.31-3.25,1.09h0c-.92-1-2.94-.65-3.26.53h0c-.39,1.47-3.16,1.47-3.55,0h0C46,54.63,44,54.3,43,55.28h0c-1.15,1.22-3.68.37-3.25-1.09h0c.34-1.18-1.32-2.1-2.69-1.49h0c-1.7.76-3.56-.8-2.38-2h0c.94-1-.09-2.32-1.66-2.19h0c-2,.17-2.82-1.83-1.1-2.56h0c1.38-.6,1.16-2.15-.35-2.51h0C29.72,43,30,40.9,32,40.75h0c1.58-.11,2.22-1.6,1-2.4h0c-1.48-1-.1-2.81,1.78-2.33h0c1.5.38,2.88-.78,2.22-1.88h0c-.82-1.36,1.42-2.6,2.88-1.58h0c1.17.81,3.06.17,3-1h0c0-1.5,2.69-1.94,3.48-.56h0A2.09,2.09,0,0,0,49.74,31Z"/><path class="cls-5" d="M49.45,33.22h0c.64-1.08,2.84-.73,2.82.44h0c0,1,1.52,1.45,2.47.81h0c1.19-.79,3,.18,2.34,1.25h0c-.54.86.59,1.77,1.81,1.47h0c1.52-.37,2.64,1.06,1.44,1.84h0c-1,.62-.45,1.79.84,1.88h0c1.59.12,1.83,1.76.3,2.11h0c-1.23.28-1.41,1.51-.28,2h0c1.39.58.7,2.15-.9,2h0c-1.28-.11-2.11,1-1.35,1.71h0c1,1-.55,2.18-1.93,1.58h0c-1.11-.48-2.47.24-2.19,1.17h0c.35,1.15-1.7,1.82-2.64.86h0c-.74-.77-2.38-.52-2.64.41h0c-.32,1.15-2.57,1.15-2.89,0h0c-.26-.93-1.89-1.18-2.64-.41h0c-.93,1-3,.29-2.64-.86h0c.28-.93-1.08-1.65-2.19-1.17h0c-1.38.6-2.88-.63-1.93-1.58h0C38,48,37.18,46.9,35.9,47h0c-1.6.13-2.29-1.44-.89-2h0c1.12-.46.94-1.69-.29-2h0c-1.53-.35-1.29-2,.31-2.11h0c1.28-.09,1.8-1.26.83-1.88h0c-1.2-.78-.08-2.21,1.44-1.84h0c1.23.3,2.35-.61,1.81-1.47h0c-.66-1.07,1.16-2,2.34-1.25h0c.95.64,2.48.14,2.47-.81h0c0-1.17,2.18-1.52,2.82-.44h0A1.73,1.73,0,0,0,49.45,33.22Z"/><path class="cls-1" d="M49.48,36.24h0c1-1,3.42-.5,3.37.72h0c0,.87,1.24,1.48,2.46,1.19h0c1.74-.41,3.21.94,2.09,1.91h0c-.8.68-.31,1.68.94,1.92h0c1.76.34,1.76,2,0,2.35h0c-1.25.24-1.74,1.24-.94,1.92h0c1.12,1-.35,2.32-2.09,1.91h0c-1.22-.29-2.5.32-2.46,1.18h0c0,1.23-2.33,1.74-3.37.73h0a2.45,2.45,0,0,0-3,0h0c-1,1-3.42.5-3.37-.73h0c0-.86-1.24-1.47-2.46-1.18h0c-1.74.41-3.21-.94-2.08-1.91h0c.79-.68.3-1.68-.94-1.92h0c-1.77-.35-1.77-2,0-2.35h0c1.24-.24,1.73-1.24.94-1.92h0c-1.13-1,.34-2.32,2.08-1.91h0c1.22.29,2.5-.32,2.46-1.19h0c-.05-1.22,2.33-1.73,3.37-.72h0A2.45,2.45,0,0,0,49.48,36.24Z"/><path class="cls-5" d="M49.07,37.84h0c.69-.76,2.29-.37,2.25.55h0c0,.65.83,1.12,1.65.9h0c1.16-.31,2.14.71,1.39,1.44h0c-.53.51-.2,1.27.63,1.45h0c1.18.26,1.18,1.51,0,1.78h0c-.83.18-1.16.93-.63,1.45h0c.75.73-.23,1.74-1.39,1.43h0c-.82-.21-1.67.25-1.65.9h0c0,.92-1.56,1.31-2.25.55h0a1.49,1.49,0,0,0-2,0h0c-.69.76-2.29.37-2.25-.55h0c0-.65-.83-1.11-1.65-.9h0c-1.16.31-2.14-.7-1.39-1.43h0c.53-.52.2-1.27-.63-1.45h0c-1.18-.27-1.18-1.52,0-1.78h0c.83-.18,1.16-.94.63-1.45h0C41,40,42,39,43.13,39.29h0c.82.22,1.67-.25,1.65-.9h0c0-.92,1.56-1.31,2.25-.55h0A1.49,1.49,0,0,0,49.07,37.84Z"/><path class="cls-1" d="M48.86,40.69h0c1.13-.4,2.45.25,2.24,1.12h0a.87.87,0,0,0,.44.93h0c.91.62.41,1.68-.85,1.81h0a1.57,1.57,0,0,0-1.16.58h0a1.92,1.92,0,0,1-2.76,0h0a1.61,1.61,0,0,0-1.16-.58h0c-1.26-.13-1.77-1.19-.85-1.81h0a.88.88,0,0,0,.44-.93h0c-.22-.87,1.1-1.52,2.23-1.12h0A2.07,2.07,0,0,0,48.86,40.69Z"/></g></g></svg>