<svg xmlns="http://www.w3.org/2000/svg" width="145" height="150" viewBox="0 0 145 150"><defs><style>.cls-1{fill:#571d1c;}.cls-2{fill:#d6a463;}.cls-3{fill:#442218;}.cls-4{fill:#fff;}.cls-5{fill:#dbdad9;}.cls-6{fill:none;stroke:#000;stroke-miterlimit:10;}.cls-7{fill:#e51717;}</style></defs><g id="Instructions"><g id="frame-4" data-name="frame"><polygon class="cls-1" points="14.13 2.9 127.46 6.04 121.73 146.63 6.52 146.63 14.13 2.9"/><polygon class="cls-2" points="26.72 15.48 17.56 134.04 110.28 137.18 115.44 15.48 26.72 15.48"/><path class="cls-3" d="M119.48,137.28s29.13.28,19.17-20L122.46,64.47"/><path class="cls-4" d="M39.35,61.65A18.77,18.77,0,0,1,40.5,58.5C44.24,54.23,64.11,31,91.74,51.14A8.52,8.52,0,0,1,94.24,54a21.23,21.23,0,0,1,.63,19.75A8.65,8.65,0,0,1,88,80a8.3,8.3,0,0,0-6.87,4.19s-3,10.19-14.08,9.82A13.51,13.51,0,0,1,56,85.25S53.66,79,51.37,77.91c0,0-2.29-2.1-6.87-2.1-4.16,0-5.28-9.27-5.15-14.16"/><ellipse class="cls-5" cx="61.67" cy="60.07" rx="8.01" ry="7.34"/><ellipse cx="61.67" cy="60.07" rx="2.86" ry="2.62"/><ellipse class="cls-5" cx="82.28" cy="60.07" rx="8.01" ry="7.34"/><ellipse cx="82.28" cy="60.07" rx="2.86" ry="2.62"/><path d="M65.72,71.45s1.84-3,3.8-3.87a10.39,10.39,0,0,1,2.78,2.76,10.52,10.52,0,0,0,.62,1,3.23,3.23,0,0,1,.67,2.75s-.27,2.66-4.07,0c0,0-4.32,1.64-4.32-.53C65.2,73.57,65.2,72,65.72,71.45Z"/><path class="cls-6" d="M57.67,78.43s8,8.4,20.6,3.15"/><path class="cls-6" d="M64.54,80.47s-4,1.63-4,3.73"/><path class="cls-6" d="M69.69,81.65s1.14,3.25,0,4.47"/><path class="cls-6" d="M75.16,81.65s2.54,2.55,1.4,3.6"/><rect class="cls-4" x="63.39" y="94.58" width="9.98" height="6.29" rx="2.37"/><rect class="cls-4" x="64.54" y="101.93" width="9.98" height="6.29" rx="2.37"/><path d="M50.05,107.81S31,107.37,26.58,134.34l78.76,2.84s.52-30-11-32.31Z"/><polygon class="cls-4" points="63.39 110.29 61.67 135.53 76 136.02 78.27 109.02 70.83 107.81 63.39 110.29"/><path class="cls-7" d="M50.8,100.46s-2.29,10.5,1.14,14.69l14.73-6.25v-2.19Z"/><ellipse class="cls-7" cx="70.83" cy="107.81" rx="4.58" ry="2.62"/><path class="cls-7" d="M92,98.78l-17.56,7.41.73,2.48L95.44,111S94.26,101.29,92,98.78Z"/><ellipse cx="70.26" cy="115.15" rx="2.29" ry="2.1"/><ellipse cx="69.11" cy="123.54" rx="2.29" ry="2.1"/><ellipse cx="69.11" cy="131.94" rx="2.29" ry="2.1"/></g></g></svg>