<svg xmlns="http://www.w3.org/2000/svg" width="185" height="195" viewBox="0 0 185 195"><defs><style>.cls-1{fill:#571d1c;}.cls-2{fill:#d6a463;}.cls-3{fill:#442218;}.cls-4{fill:#fff;}.cls-5{fill:#dbdad9;}.cls-6{fill:none;stroke:#000;stroke-miterlimit:10;}.cls-7{fill:#e51717;}</style></defs><g id="Animated_items" data-name="Animated items"><g id="frame-3" data-name="frame"><polygon class="cls-1" points="11.45 2.16 163.36 6.32 155.69 192.16 1.26 192.16 11.45 2.16"/><polygon class="cls-2" points="28.33 18.8 16.06 175.51 140.34 179.68 147.25 18.8 28.33 18.8"/><path class="cls-3" d="M155.08,168.3s35.9.28,23.62-20.52L158.76,93.69"/><path class="cls-4" d="M45.26,79.82a24.7,24.7,0,0,1,1.54-4.16c5-5.64,31.65-36.42,68.69-9.73a11.42,11.42,0,0,1,3.34,3.73c2.45,4.43,6.6,14.68.85,26.11a11.51,11.51,0,0,1-9.2,8.32,11.16,11.16,0,0,0-9.21,5.55s-4,13.47-18.88,13c0,0-10.27-.5-14.88-11.59,0,0-3.07-8.33-6.13-9.71,0,0-3.07-2.78-9.21-2.78-5.57,0-7.08-12.25-6.91-18.72"/><ellipse class="cls-5" cx="75.19" cy="77.74" rx="10.74" ry="9.71"/><ellipse cx="75.19" cy="77.74" rx="3.84" ry="3.47"/><ellipse class="cls-5" cx="102.8" cy="77.74" rx="10.74" ry="9.71"/><ellipse cx="102.8" cy="77.74" rx="3.84" ry="3.47"/><path d="M80.61,92.78s2.46-3.91,5.1-5.12a13.87,13.87,0,0,1,3.71,3.65,14.31,14.31,0,0,0,.84,1.34,4.24,4.24,0,0,1,.89,3.64s-.35,3.51-5.44,0c0,0-5.8,2.16-5.8-.7C79.91,95.59,79.91,93.48,80.61,92.78Z"/><path class="cls-6" d="M69.82,102s10.74,11.1,27.61,4.16"/><path class="cls-6" d="M79,104.71s-5.37,2.16-5.37,4.93"/><path class="cls-6" d="M85.93,106.27s1.53,4.29,0,5.91"/><path class="cls-6" d="M93.26,106.27s3.41,3.37,1.87,4.76"/><rect class="cls-4" x="77.49" y="123.36" width="13.37" height="8.32" rx="3"/><rect class="cls-4" x="79.02" y="133.07" width="13.37" height="8.32" rx="3"/><path d="M59.61,140.84s-25.56-.57-31.46,35.08l105.56,3.76S134.42,140,119,137Z"/><polygon class="cls-4" points="77.49 144.13 75.19 177.49 94.39 178.14 97.43 142.44 87.46 140.84 77.49 144.13"/><path class="cls-7" d="M60.61,131.14S57.54,145,62.14,150.55l19.75-8.26V139.4Z"/><ellipse class="cls-7" cx="87.46" cy="140.84" rx="6.14" ry="3.47"/><path class="cls-7" d="M115.82,128.91l-23.53,9.8,1,3.27,27.19,3S118.86,132.22,115.82,128.91Z"/><ellipse cx="86.69" cy="150.55" rx="3.07" ry="2.77"/><ellipse cx="85.16" cy="161.65" rx="3.07" ry="2.77"/><ellipse cx="85.16" cy="172.74" rx="3.07" ry="2.77"/></g></g></svg>