<svg xmlns="http://www.w3.org/2000/svg" xmlns:xlink="http://www.w3.org/1999/xlink" width="767" height="362" viewBox="0 0 767 362"><defs><style>.cls-1{filter:url(#AI_SombrasDeInglete_1);}.cls-2{fill:#ee6b11;}.cls-3{fill:#62002d;}.cls-4{fill:#fff;}</style><filter id="AI_SombrasDeInglete_1" x="-20%" y="-20%" width="140%" height="140%" name="AI_SombrasDeInglete_1"><feGaussianBlur result="blur" stdDeviation="4" in="SourceAlpha"/><feOffset result="offsetBlur" dx="4" dy="4" in="blur"/><feSpecularLighting result="specOut" surfaceScale="5" specularExponent="10" in="blur"><fePointLight x="-5000" y="-10000" z="-20000"/></feSpecularLighting><feComposite result="specOut" operator="in" in="specOut" in2="SourceAlpha"/><feComposite result="litPaint" operator="arithmetic" k2="1" k3="1" in="SourceGraphic" in2="specOut"/><feMerge><feMergeNode in="offsetBlur"/><feMergeNode in="litPaint"/></feMerge></filter></defs><g id="Animated_items" data-name="Animated items"><g id="Rectangle" class="cls-1"><rect class="cls-2" x="21" y="14.34" width="730" height="335.66" rx="75.82"/></g><g id="Rectangle-2" data-name="Rectangle" class="cls-1"><rect class="cls-3" x="31.98" y="25.44" width="705.25" height="313.64" rx="75.82"/></g><path class="cls-4" d="M114.19,112a.52.52,0,0,1,.56.48v11.72c0,5-3.09,7.59-9,7.59s-8.9-2.61-9-7.59V112.52a.54.54,0,0,1,.56-.48H103a.52.52,0,0,1,.55.48v12.23a2,2,0,0,0,2.27,2c1.43,0,2.28-.76,2.28-2V112.52a.54.54,0,0,1,.55-.48Z"/><path class="cls-4" d="M121.92,117.16a8.4,8.4,0,0,1,5.24-1.57c4.42,0,6.82,1.77,6.82,6.15V131a.47.47,0,0,1-.49.42h-5.72a.42.42,0,0,1-.45-.42v-8.41c0-1.12-.59-1.77-1.59-1.77a2.06,2.06,0,0,0-2.15,1.58V131a.47.47,0,0,1-.49.42h-5.72a.46.46,0,0,1-.48-.42V116.37c0-.25.16-.39.45-.39H121a.53.53,0,0,1,.52.28Z"/><path class="cls-4" d="M146.39,116c.3,0,.49.17.49.39l-.36,2.73a.49.49,0,0,1-.48.42h-1.89V131c0,.26-.16.4-.45.4h-5.79c-.29,0-.45-.14-.45-.4V119.52h-1.73a.44.44,0,0,1-.45-.39V116.4a.44.44,0,0,1,.45-.42h1.79c.16-3.35,2.08-4.92,5.92-4.92h2.82c.3,0,.46.14.46.39v2.73a.41.41,0,0,1-.46.42c-1.23,0-1.91.42-2.08,1.38Z"/><path class="cls-4" d="M166.64,123.71c0,4.89-3.84,8.15-9.56,8.15s-9.55-3.26-9.55-8.12,3.83-8.15,9.55-8.15S166.64,118.85,166.64,123.71Zm-12.77,0a3.22,3.22,0,1,0,3.21-3.1A3,3,0,0,0,153.87,123.74Z"/><path class="cls-4" d="M178.76,116a.41.41,0,0,1,.45.39V120a.41.41,0,0,1-.45.39h-.85a3.26,3.26,0,0,0-2.76,1.18V131a.47.47,0,0,1-.49.42h-5.72a.46.46,0,0,1-.48-.42V116.4a.46.46,0,0,1,.48-.39h3.68a.59.59,0,0,1,.52.42l.48,1.24a5.94,5.94,0,0,1,4.29-1.69Z"/><path class="cls-4" d="M191.63,116c.29,0,.48.17.48.39l-.35,2.73a.51.51,0,0,1-.49.42h-2.08V131a.47.47,0,0,1-.49.42H183a.47.47,0,0,1-.49-.42v-11.5h-1.85a.43.43,0,0,1-.45-.39V116.4a.44.44,0,0,1,.45-.42h1.85v-3.06c0-.2.23-.37.49-.4l5.72-.48a.46.46,0,0,1,.49.4V116Z"/><path class="cls-4" d="M210,116a.47.47,0,0,1,.49.42V131a.48.48,0,0,1-.49.4h-3.67a.59.59,0,0,1-.52-.42l-.49-1a7.59,7.59,0,0,1-5.2,1.86c-4.23,0-6.73-2.33-6.73-6.16v-9.3a.47.47,0,0,1,.49-.42h5.72a.47.47,0,0,1,.49.42V125a1.57,1.57,0,0,0,1.72,1.6,2.66,2.66,0,0,0,2-.9v-9.3a.47.47,0,0,1,.49-.42Z"/><path class="cls-4" d="M217.88,117.16a8.39,8.39,0,0,1,5.23-1.57c4.42,0,6.83,1.77,6.83,6.15V131a.47.47,0,0,1-.49.42h-5.72c-.26,0-.49-.2-.45-.42v-8.41c0-1.12-.59-1.77-1.6-1.77a2.05,2.05,0,0,0-2.14,1.58V131a.47.47,0,0,1-.49.42h-5.72a.47.47,0,0,1-.49-.42V116.37c0-.25.17-.39.46-.39h3.64a.53.53,0,0,1,.52.28Z"/><path class="cls-4" d="M233.22,117.72a.4.4,0,0,1,.16-.53,15.31,15.31,0,0,1,7.05-1.6c5.63,0,8.23,2.55,8.23,8.15V131a.47.47,0,0,1-.49.42h-4.1a.51.51,0,0,1-.52-.42l-.22-.76a8.8,8.8,0,0,1-5.59,1.6c-3.74,0-6.21-2.08-6.18-5.17,0-2.76,2.5-4.58,6.18-4.58,1.88,0,3.57.59,4.22,1.49v-1.18c0-1.21-1-2-2.5-2a9.62,9.62,0,0,0-3.9.9c-.16.08-.36,0-.49-.23Zm8.74,8.66a2.57,2.57,0,0,0-1.79-.7c-.81,0-1.36.39-1.36,1s.55,1,1.36,1A2.61,2.61,0,0,0,242,127Z"/><path class="cls-4" d="M261.59,116c.29,0,.49.17.49.39l-.36,2.73a.5.5,0,0,1-.49.42h-2.08V131a.47.47,0,0,1-.49.42h-5.72a.46.46,0,0,1-.48-.42v-11.5H250.6a.44.44,0,0,1-.45-.39V116.4a.44.44,0,0,1,.45-.42h1.86v-3.06c0-.2.22-.37.48-.4l5.72-.48a.46.46,0,0,1,.49.4V116Z"/><path class="cls-4" d="M278.94,129.86c.07.2,0,.31-.23.43a14.19,14.19,0,0,1-6.72,1.57c-5.76,0-9.59-3.26-9.59-8.12s3.77-8.15,9.42-8.15c5.4,0,8.58,3,8.58,8.12a5.4,5.4,0,0,1-.13,1.26c0,.23-.19.34-.48.34H269.35s0,1.77,2.73,1.77a14,14,0,0,0,5-.93.35.35,0,0,1,.48.23Zm-5-7.5a2,2,0,0,0-2.18-2c-1.46,0-2.44.81-2.44,2Z"/><path class="cls-4" d="M288.43,111.06a.48.48,0,0,1,.49.39V131a.47.47,0,0,1-.49.42h-5.72a.47.47,0,0,1-.49-.42V111.45a.48.48,0,0,1,.49-.39Z"/><path class="cls-4" d="M309.55,116c.29,0,.42.2.36.39l-5.56,15.07c-1.56,4.21-4.26,5.65-8.42,5.65a9.37,9.37,0,0,1-5.52-1.52.48.48,0,0,1-.16-.48l1.82-3.17c.09-.2.26-.26.39-.17a6.58,6.58,0,0,0,3.18,1,2.68,2.68,0,0,0,3-2.28h-2.67a.58.58,0,0,1-.58-.39l-5.23-13.72c-.1-.19.06-.39.32-.39H297a.66.66,0,0,1,.62.39l2.5,8.83,2.47-8.83a.62.62,0,0,1,.59-.39Z"/><path class="cls-4" d="M333.63,116c.29,0,.42.2.36.39l-5.56,15.07c-1.56,4.21-4.26,5.65-8.42,5.65a9.37,9.37,0,0,1-5.52-1.52.49.49,0,0,1-.17-.48l1.82-3.17c.1-.2.26-.26.39-.17a6.64,6.64,0,0,0,3.19,1,2.68,2.68,0,0,0,3-2.28H320a.58.58,0,0,1-.58-.39l-5.24-13.72c-.09-.19.07-.39.33-.39h6.53a.68.68,0,0,1,.62.39l2.5,8.83,2.47-8.83a.62.62,0,0,1,.59-.39Z"/><path class="cls-4" d="M352.48,123.71c0,4.89-3.84,8.15-9.56,8.15s-9.55-3.26-9.55-8.12,3.83-8.15,9.55-8.15S352.48,118.85,352.48,123.71Zm-12.78,0a3.22,3.22,0,1,0,3.22-3.1A3,3,0,0,0,339.7,123.74Z"/><path class="cls-4" d="M370.71,116a.47.47,0,0,1,.48.42V131a.47.47,0,0,1-.48.4H367a.6.6,0,0,1-.52-.42l-.48-1a7.59,7.59,0,0,1-5.2,1.86c-4.23,0-6.73-2.33-6.73-6.16v-9.3a.46.46,0,0,1,.48-.42h5.72a.47.47,0,0,1,.49.42V125a1.57,1.57,0,0,0,1.72,1.6,2.69,2.69,0,0,0,2-.9v-9.3A.47.47,0,0,1,365,116Z"/><path class="cls-4" d="M393.22,129.81c.1.14,0,.33-.19.48a13.87,13.87,0,0,1-6,1.6c-5.89,0-9.79-3.26-9.79-8.15s3.9-8.15,9.79-8.15a13.73,13.73,0,0,1,6,1.6c.19.14.29.33.19.48l-1.88,3.42a.4.4,0,0,1-.59.17,6.39,6.39,0,0,0-3.12-.84c-2.37,0-3.93,1.32-3.93,3.32s1.56,3.31,3.93,3.31a6.29,6.29,0,0,0,3.12-.84.4.4,0,0,1,.59.17Z"/><path class="cls-4" d="M412.69,123.71c0,4.89-3.84,8.15-9.56,8.15s-9.55-3.26-9.55-8.12,3.83-8.15,9.55-8.15S412.69,118.85,412.69,123.71Zm-12.77,0a3.22,3.22,0,1,0,3.21-3.1A3,3,0,0,0,399.92,123.74Z"/><path class="cls-4" d="M430.92,116a.46.46,0,0,1,.48.42V131a.46.46,0,0,1-.48.4h-3.68a.6.6,0,0,1-.52-.42l-.48-1a7.59,7.59,0,0,1-5.2,1.86c-4.23,0-6.73-2.33-6.73-6.16v-9.3a.47.47,0,0,1,.49-.42h5.72a.46.46,0,0,1,.48.42V125a1.58,1.58,0,0,0,1.73,1.6,2.68,2.68,0,0,0,2-.9v-9.3a.47.47,0,0,1,.49-.42Z"/><path class="cls-4" d="M440,111.06a.48.48,0,0,1,.49.39V131a.47.47,0,0,1-.49.42h-5.72a.47.47,0,0,1-.49-.42V111.45a.48.48,0,0,1,.49-.39Z"/><path class="cls-4" d="M461,111.06a.48.48,0,0,1,.49.39V131a.47.47,0,0,1-.49.42h-3.68c-.22,0-.38-.17-.51-.42l-.49-1a8.41,8.41,0,0,1-5.5,1.86c-5.13,0-8.58-3.26-8.58-8.15s3.45-8.12,8.58-8.12a7.23,7.23,0,0,1,4,1.06v-5.2a.48.48,0,0,1,.49-.39ZM454.8,122a2.75,2.75,0,0,0-2.57-1.55,3,3,0,0,0-3,3.26c0,2,1.21,3.37,3,3.37a2.76,2.76,0,0,0,2.57-1.54Z"/><path class="cls-4" d="M473.09,117.16a8.4,8.4,0,0,1,5.24-1.57c4.42,0,6.82,1.77,6.82,6.15V131a.47.47,0,0,1-.49.42h-5.72a.42.42,0,0,1-.45-.42v-8.41c0-1.12-.59-1.77-1.59-1.77a2.06,2.06,0,0,0-2.15,1.58V131a.47.47,0,0,1-.49.42h-5.72a.47.47,0,0,1-.49-.42V116.37c0-.25.17-.39.46-.39h3.64a.53.53,0,0,1,.52.28Z"/><path class="cls-4" d="M505.88,123.71c0,4.89-3.83,8.15-9.55,8.15s-9.56-3.26-9.56-8.12,3.84-8.15,9.56-8.15S505.88,118.85,505.88,123.71Zm-12.77,0a3.22,3.22,0,1,0,3.22-3.1A3,3,0,0,0,493.11,123.74Z"/><path class="cls-4" d="M518.29,116c.3,0,.49.17.49.39l-.36,2.73a.49.49,0,0,1-.48.42h-2.08V131a.47.47,0,0,1-.49.42h-5.72a.47.47,0,0,1-.49-.42v-11.5h-1.85a.44.44,0,0,1-.46-.39V116.4a.44.44,0,0,1,.46-.42h1.85v-3.06c0-.2.23-.37.49-.4l5.72-.48a.46.46,0,0,1,.49.4V116Z"/><path class="cls-4" d="M542.73,111.06a.48.48,0,0,1,.49.39V131a.47.47,0,0,1-.49.42h-3.67c-.23,0-.39-.17-.52-.42l-.49-1a8.37,8.37,0,0,1-5.49,1.86c-5.14,0-8.58-3.26-8.58-8.15s3.44-8.12,8.58-8.12a7.21,7.21,0,0,1,4,1.06v-5.2a.48.48,0,0,1,.49-.39ZM536.52,122a2.75,2.75,0,0,0-2.56-1.55,3,3,0,0,0-3,3.26c0,2,1.21,3.37,3,3.37a2.76,2.76,0,0,0,2.56-1.54Z"/><path class="cls-4" d="M561.58,129.86c.06.2,0,.31-.23.43a14.23,14.23,0,0,1-6.73,1.57c-5.75,0-9.59-3.26-9.59-8.12s3.77-8.15,9.43-8.15c5.39,0,8.58,3,8.58,8.12a5.4,5.4,0,0,1-.13,1.26c0,.23-.2.34-.49.34H552s0,1.77,2.73,1.77a13.93,13.93,0,0,0,5-.93.36.36,0,0,1,.49.23Zm-5-7.5a2,2,0,0,0-2.18-2c-1.46,0-2.43.81-2.43,2Z"/><path class="cls-4" d="M580.33,129.81c.09.14,0,.33-.2.48a13.83,13.83,0,0,1-6,1.6c-5.88,0-9.78-3.26-9.78-8.15s3.9-8.15,9.78-8.15a13.7,13.7,0,0,1,6,1.6c.2.14.29.33.2.48l-1.89,3.42a.39.39,0,0,1-.58.17,6.45,6.45,0,0,0-3.12-.84c-2.38,0-3.94,1.32-3.94,3.32s1.56,3.31,3.94,3.31a6.34,6.34,0,0,0,3.12-.84.39.39,0,0,1,.58.17Z"/><path class="cls-4" d="M599.79,123.71c0,4.89-3.83,8.15-9.55,8.15s-9.56-3.26-9.56-8.12,3.84-8.15,9.56-8.15S599.79,118.85,599.79,123.71Zm-12.77,0a3.22,3.22,0,1,0,3.22-3.1A3,3,0,0,0,587,123.74Z"/><path class="cls-4" d="M611.91,116a.41.41,0,0,1,.45.39V120a.41.41,0,0,1-.45.39h-.85a3.26,3.26,0,0,0-2.76,1.18V131a.47.47,0,0,1-.49.42h-5.72a.46.46,0,0,1-.48-.42V116.4a.46.46,0,0,1,.48-.39h3.68a.59.59,0,0,1,.52.42l.48,1.24a5.94,5.94,0,0,1,4.29-1.69Z"/><path class="cls-4" d="M614,117.72a.4.4,0,0,1,.16-.53,15.31,15.31,0,0,1,7.05-1.6c5.63,0,8.23,2.55,8.23,8.15V131a.47.47,0,0,1-.49.42h-4.09c-.26,0-.53-.2-.53-.42l-.22-.76a8.8,8.8,0,0,1-5.59,1.6c-3.74,0-6.21-2.08-6.18-5.17,0-2.76,2.5-4.58,6.18-4.58,1.88,0,3.57.59,4.22,1.49v-1.18c0-1.21-1-2-2.5-2a9.62,9.62,0,0,0-3.9.9c-.16.08-.36,0-.49-.23Zm8.74,8.66a2.57,2.57,0,0,0-1.79-.7c-.81,0-1.36.39-1.36,1s.55,1,1.36,1a2.61,2.61,0,0,0,1.79-.7Z"/><path class="cls-4" d="M642.39,116c.29,0,.49.17.49.39l-.36,2.73a.5.5,0,0,1-.49.42H640V131a.47.47,0,0,1-.49.42h-5.72a.46.46,0,0,1-.48-.42v-11.5H631.4a.44.44,0,0,1-.45-.39V116.4a.44.44,0,0,1,.45-.42h1.86v-3.06c0-.2.22-.37.48-.4l5.72-.48a.46.46,0,0,1,.49.4V116Z"/><path class="cls-4" d="M659.74,129.86c.07.2,0,.31-.22.43a14.26,14.26,0,0,1-6.73,1.57c-5.75,0-9.59-3.26-9.59-8.12s3.77-8.15,9.43-8.15c5.39,0,8.58,3,8.58,8.12a6,6,0,0,1-.13,1.26c0,.23-.2.34-.49.34H650.16s0,1.77,2.72,1.77a14,14,0,0,0,5-.93.37.37,0,0,1,.49.23Zm-5-7.5a2,2,0,0,0-2.18-2c-1.46,0-2.44.81-2.44,2Z"/><path class="cls-4" d="M108.67,149.71c.29,0,.49.17.49.4l-.36,2.72a.49.49,0,0,1-.49.42h-2.08v11.5a.47.47,0,0,1-.49.42H100a.46.46,0,0,1-.48-.42v-11.5H97.68a.44.44,0,0,1-.45-.39v-2.73a.44.44,0,0,1,.45-.42h1.86v-3.06c0-.2.22-.37.48-.4l5.72-.47a.45.45,0,0,1,.49.39v3.54Z"/><path class="cls-4" d="M116.86,144.79a.46.46,0,0,1,.48.42v5.68a5.66,5.66,0,0,1,4.2-1.57c3.9,0,6.2,1.91,6.2,5.17v10.26a.46.46,0,0,1-.48.42h-5.72c-.26,0-.49-.2-.46-.42v-8.83c0-1.12-.58-1.77-1.59-1.77a2.07,2.07,0,0,0-2.15,1.58v9a.46.46,0,0,1-.48.42h-5.73a.47.47,0,0,1-.48-.42V145.21a.47.47,0,0,1,.48-.42Z"/><path class="cls-4" d="M145.91,163.6c.06.19,0,.31-.23.42a14.2,14.2,0,0,1-6.73,1.57c-5.75,0-9.58-3.26-9.58-8.12s3.76-8.15,9.42-8.15c5.4,0,8.58,3,8.58,8.12a5.54,5.54,0,0,1-.13,1.27c0,.22-.19.33-.49.33H136.32s0,1.77,2.73,1.77a13.93,13.93,0,0,0,5-.92.35.35,0,0,1,.49.22Zm-5-7.51a2,2,0,0,0-2.17-2.05c-1.47,0-2.44.82-2.44,2.05Z"/><path class="cls-4" d="M154.55,151.45a.4.4,0,0,1,.16-.53,15.31,15.31,0,0,1,7-1.6c5.63,0,8.23,2.56,8.23,8.15v7.28a.47.47,0,0,1-.49.42h-4.1a.51.51,0,0,1-.52-.42l-.22-.76a8.8,8.8,0,0,1-5.59,1.6c-3.74,0-6.21-2.08-6.18-5.17,0-2.75,2.5-4.58,6.18-4.58,1.88,0,3.57.59,4.22,1.49v-1.18c0-1.21-1-2-2.5-2a9.62,9.62,0,0,0-3.9.9c-.16.09-.36,0-.49-.22Zm8.74,8.66a2.57,2.57,0,0,0-1.79-.7c-.81,0-1.36.39-1.36,1s.55,1,1.36,1a2.57,2.57,0,0,0,1.79-.7Z"/><path class="cls-4" d="M178.53,144.79a.48.48,0,0,1,.49.4v19.56a.47.47,0,0,1-.49.42h-5.72a.47.47,0,0,1-.49-.42V145.19a.48.48,0,0,1,.49-.4Z"/><path class="cls-4" d="M192,149.71c.29,0,.49.17.49.4l-.36,2.72a.49.49,0,0,1-.49.42h-2.08v11.5a.46.46,0,0,1-.48.42h-5.72a.47.47,0,0,1-.49-.42v-11.5H181a.44.44,0,0,1-.46-.39v-2.73a.44.44,0,0,1,.46-.42h1.85v-3.06c0-.2.23-.37.49-.4l5.72-.47a.44.44,0,0,1,.48.39v3.54Z"/><path class="cls-4" d="M194.09,151.45a.41.41,0,0,1,.17-.53,15.31,15.31,0,0,1,7.05-1.6c5.62,0,8.22,2.56,8.22,8.15v7.28a.47.47,0,0,1-.49.42H205a.51.51,0,0,1-.52-.42l-.23-.76c-1.07,1-3.22,1.6-5.59,1.6-3.74,0-6.21-2.08-6.17-5.17,0-2.75,2.5-4.58,6.17-4.58,1.89,0,3.58.59,4.23,1.49v-1.18c0-1.21-1-2-2.51-2a9.69,9.69,0,0,0-3.9.9c-.16.09-.35,0-.48-.22Zm8.75,8.66a2.6,2.6,0,0,0-1.79-.7c-.81,0-1.37.39-1.37,1s.56,1,1.37,1a2.6,2.6,0,0,0,1.79-.7Z"/><path class="cls-4" d="M222.17,149.71a.42.42,0,0,1,.46.4v3.65a.42.42,0,0,1-.46.39h-.84a3.28,3.28,0,0,0-2.77,1.18v9.42a.46.46,0,0,1-.48.42h-5.72a.47.47,0,0,1-.49-.42V150.13a.48.48,0,0,1,.49-.39H216a.6.6,0,0,1,.52.42l.49,1.24a5.91,5.91,0,0,1,4.29-1.69Z"/><path class="cls-4" d="M229.8,151.45a.41.41,0,0,1,.17-.53,15.31,15.31,0,0,1,7.05-1.6c5.62,0,8.22,2.56,8.22,8.15v7.28a.47.47,0,0,1-.49.42h-4.09a.51.51,0,0,1-.52-.42l-.23-.76c-1.07,1-3.21,1.6-5.59,1.6-3.74,0-6.21-2.08-6.17-5.17,0-2.75,2.5-4.58,6.17-4.58,1.89,0,3.58.59,4.23,1.49v-1.18c0-1.21-1-2-2.51-2a9.69,9.69,0,0,0-3.9.9c-.16.09-.35,0-.48-.22Zm8.75,8.66a2.58,2.58,0,0,0-1.79-.7c-.81,0-1.37.39-1.37,1s.56,1,1.37,1a2.58,2.58,0,0,0,1.79-.7Z"/><path class="cls-4" d="M252.62,150.89a8.39,8.39,0,0,1,5.23-1.57c4.42,0,6.82,1.77,6.82,6.15v9.28a.46.46,0,0,1-.48.42h-5.72c-.26,0-.49-.2-.46-.42v-8.41c0-1.12-.58-1.77-1.59-1.77a2.07,2.07,0,0,0-2.15,1.58v8.6a.46.46,0,0,1-.48.42h-5.72a.47.47,0,0,1-.49-.42V150.11c0-.26.16-.4.45-.4h3.64a.54.54,0,0,1,.52.28Z"/><path class="cls-4" d="M285.05,144.79a.48.48,0,0,1,.49.4v19.56a.47.47,0,0,1-.49.42h-3.67c-.23,0-.39-.17-.52-.42l-.49-1a8.46,8.46,0,0,1-5.49,1.85c-5.14,0-8.58-3.26-8.58-8.15s3.44-8.12,8.58-8.12a7.13,7.13,0,0,1,4,1.07v-5.2a.48.48,0,0,1,.49-.4Zm-6.21,10.91a2.75,2.75,0,0,0-2.57-1.55,3,3,0,0,0-3,3.26c0,2,1.21,3.38,3,3.38a2.75,2.75,0,0,0,2.57-1.55Z"/><path class="cls-4" d="M302.69,149.71c.29,0,.49.17.49.4l-.36,2.72a.49.49,0,0,1-.49.42h-2.08v11.5a.46.46,0,0,1-.48.42h-5.72a.47.47,0,0,1-.49-.42v-11.5h-1.85a.44.44,0,0,1-.46-.39v-2.73a.44.44,0,0,1,.46-.42h1.85v-3.06c0-.2.23-.37.49-.4l5.72-.47a.44.44,0,0,1,.48.39v3.54Z"/><path class="cls-4" d="M310.88,144.79a.47.47,0,0,1,.49.42v5.68a5.64,5.64,0,0,1,4.19-1.57c3.9,0,6.21,1.91,6.21,5.17v10.26a.47.47,0,0,1-.49.42h-5.72c-.26,0-.49-.2-.46-.42v-8.83c0-1.12-.58-1.77-1.59-1.77a2.05,2.05,0,0,0-2.14,1.58v9a.47.47,0,0,1-.49.42h-5.72a.47.47,0,0,1-.49-.42V145.21a.47.47,0,0,1,.49-.42Z"/><path class="cls-4" d="M339.93,163.6c.07.19,0,.31-.22.42a14.26,14.26,0,0,1-6.73,1.57c-5.76,0-9.59-3.26-9.59-8.12s3.77-8.15,9.42-8.15c5.4,0,8.58,3,8.58,8.12a5.54,5.54,0,0,1-.13,1.27q0,.33-.48.33H330.34s0,1.77,2.73,1.77a14,14,0,0,0,5-.92.36.36,0,0,1,.49.22Zm-5-7.51a2,2,0,0,0-2.18-2.05c-1.46,0-2.44.82-2.44,2.05Z"/><path class="cls-4" d="M365.67,144.79a.48.48,0,0,1,.49.4v19.56a.47.47,0,0,1-.49.42H362c-.23,0-.39-.17-.52-.42l-.49-1a8.46,8.46,0,0,1-5.49,1.85c-5.14,0-8.58-3.26-8.58-8.15s3.44-8.12,8.58-8.12a7.13,7.13,0,0,1,4,1.07v-5.2a.48.48,0,0,1,.49-.4Zm-6.21,10.91a2.75,2.75,0,0,0-2.57-1.55,3,3,0,0,0-3,3.26c0,2,1.21,3.38,3,3.38a2.75,2.75,0,0,0,2.57-1.55Z"/><path class="cls-4" d="M384.51,163.6c.07.19,0,.31-.22.42a14.26,14.26,0,0,1-6.73,1.57c-5.75,0-9.59-3.26-9.59-8.12s3.77-8.15,9.43-8.15c5.39,0,8.58,3,8.58,8.12a6.15,6.15,0,0,1-.13,1.27c0,.22-.2.33-.49.33H374.93s0,1.77,2.73,1.77a14,14,0,0,0,5-.92.35.35,0,0,1,.49.22Zm-5-7.51a2,2,0,0,0-2.18-2.05c-1.46,0-2.44.82-2.44,2.05Z"/><path class="cls-4" d="M388.93,151.45a.4.4,0,0,1,.16-.53,15.38,15.38,0,0,1,7.06-1.6c5.62,0,8.22,2.56,8.22,8.15v7.28a.47.47,0,0,1-.49.42h-4.09a.51.51,0,0,1-.52-.42L399,164c-1.07,1-3.22,1.6-5.59,1.6-3.74,0-6.21-2.08-6.18-5.17,0-2.75,2.51-4.58,6.18-4.58,1.88,0,3.57.59,4.22,1.49v-1.18c0-1.21-1-2-2.5-2a9.62,9.62,0,0,0-3.9.9c-.16.09-.36,0-.49-.22Zm8.74,8.66a2.56,2.56,0,0,0-1.78-.7c-.82,0-1.37.39-1.37,1s.55,1,1.37,1a2.56,2.56,0,0,0,1.78-.7Z"/><path class="cls-4" d="M424.94,144.79a.48.48,0,0,1,.49.4v19.56a.47.47,0,0,1-.49.42h-3.67c-.23,0-.39-.17-.52-.42l-.49-1a8.46,8.46,0,0,1-5.49,1.85c-5.14,0-8.58-3.26-8.58-8.15s3.44-8.12,8.58-8.12a7.13,7.13,0,0,1,4,1.07v-5.2a.48.48,0,0,1,.49-.4Zm-6.21,10.91a2.75,2.75,0,0,0-2.57-1.55,3,3,0,0,0-3,3.26c0,2,1.21,3.38,3,3.38a2.75,2.75,0,0,0,2.57-1.55Z"/><path class="cls-4" d="M458.67,149.71c.26,0,.42.2.32.4l-5.29,14.67a.68.68,0,0,1-.59.39h-5a.83.83,0,0,1-.65-.39l-2.5-7.48-2.5,7.48a.83.83,0,0,1-.65.39h-5a.65.65,0,0,1-.58-.39l-5.3-14.67c-.1-.2.06-.4.32-.4h6.57a.64.64,0,0,1,.62.4l1.69,6.15,1.75-6.15a.57.57,0,0,1,.59-.4h5.07c.48,0,.52.11.58.4l1.76,6.15,1.69-6.15a.61.61,0,0,1,.61-.4Z"/><path class="cls-4" d="M467.15,146.42c0,1.66-1.43,2.79-3.58,2.79s-3.57-1.13-3.57-2.79,1.43-2.89,3.57-2.89S467.15,144.68,467.15,146.42Zm-.69,3.29a.48.48,0,0,1,.49.4v14.64a.47.47,0,0,1-.49.42h-5.72a.46.46,0,0,1-.48-.42V150.11a.46.46,0,0,1,.48-.4Z"/><path class="cls-4" d="M475.5,144.79a.48.48,0,0,1,.49.4v19.56a.47.47,0,0,1-.49.42h-5.72a.47.47,0,0,1-.49-.42V145.19a.48.48,0,0,1,.49-.4Z"/><path class="cls-4" d="M484.53,144.79a.48.48,0,0,1,.49.4v19.56a.47.47,0,0,1-.49.42h-5.72a.47.47,0,0,1-.49-.42V145.19a.48.48,0,0,1,.49-.4Z"/><path class="cls-4" d="M496.62,150.89a8.39,8.39,0,0,1,5.23-1.57c4.42,0,6.83,1.77,6.83,6.15v9.28a.47.47,0,0,1-.49.42h-5.72c-.26,0-.49-.2-.46-.42v-8.41c0-1.12-.58-1.77-1.59-1.77a2.05,2.05,0,0,0-2.14,1.58v8.6a.47.47,0,0,1-.49.42h-5.72a.47.47,0,0,1-.49-.42V150.11c0-.26.16-.4.46-.4h3.64a.56.56,0,0,1,.52.28Z"/><path class="cls-4" d="M529.41,157.44c0,4.89-3.84,8.15-9.56,8.15s-9.55-3.26-9.55-8.12,3.83-8.15,9.55-8.15S529.41,152.58,529.41,157.44Zm-12.78,0a3.22,3.22,0,1,0,3.22-3.09A3,3,0,0,0,516.63,157.47Z"/><path class="cls-4" d="M557.06,149.71c.26,0,.43.2.33.4l-5.3,14.67a.68.68,0,0,1-.59.39h-5a.83.83,0,0,1-.65-.39l-2.51-7.48-2.5,7.48a.83.83,0,0,1-.65.39h-5a.65.65,0,0,1-.58-.39l-5.3-14.67c-.1-.2.07-.4.33-.4h6.56a.64.64,0,0,1,.62.4l1.69,6.15,1.75-6.15a.57.57,0,0,1,.59-.4h5.07c.49,0,.52.11.58.4l1.76,6.15,1.69-6.15a.63.63,0,0,1,.62-.4Z"/><path class="cls-4" d="M569,144.79a.46.46,0,0,1,.48.42v5.68a5.66,5.66,0,0,1,4.2-1.57c3.9,0,6.2,1.91,6.2,5.17v10.26a.46.46,0,0,1-.48.42H573.7c-.26,0-.49-.2-.46-.42v-8.83c0-1.12-.58-1.77-1.59-1.77a2.07,2.07,0,0,0-2.15,1.58v9a.46.46,0,0,1-.48.42H563.3a.47.47,0,0,1-.49-.42V145.21a.47.47,0,0,1,.49-.42Z"/><path class="cls-4" d="M583.18,151.45a.41.41,0,0,1,.17-.53,15.31,15.31,0,0,1,7-1.6c5.62,0,8.22,2.56,8.22,8.15v7.28a.47.47,0,0,1-.49.42H594a.51.51,0,0,1-.52-.42l-.23-.76c-1.07,1-3.22,1.6-5.59,1.6-3.74,0-6.21-2.08-6.17-5.17,0-2.75,2.5-4.58,6.17-4.58,1.89,0,3.58.59,4.23,1.49v-1.18c0-1.21-1-2-2.51-2a9.69,9.69,0,0,0-3.9.9c-.16.09-.35,0-.48-.22Zm8.75,8.66a2.6,2.6,0,0,0-1.79-.7c-.81,0-1.37.39-1.37,1s.56,1,1.37,1a2.6,2.6,0,0,0,1.79-.7Z"/><path class="cls-4" d="M618.8,149.71c.29,0,.42.2.36.4l-5.75,14.67a.83.83,0,0,1-.65.39h-6.57a.65.65,0,0,1-.58-.39l-5.79-14.67c-.1-.2.07-.4.33-.4h6.11a.64.64,0,0,1,.61.4l2.6,8.12,2.6-8.12a.61.61,0,0,1,.59-.4Z"/><path class="cls-4" d="M635.54,163.6c.06.19,0,.31-.23.42a14.23,14.23,0,0,1-6.73,1.57c-5.75,0-9.59-3.26-9.59-8.12s3.77-8.15,9.43-8.15c5.39,0,8.58,3,8.58,8.12a5.54,5.54,0,0,1-.13,1.27c0,.22-.2.33-.49.33H626s0,1.77,2.73,1.77a13.93,13.93,0,0,0,5-.92.35.35,0,0,1,.49.22Zm-5-7.51a2,2,0,0,0-2.18-2.05c-1.46,0-2.43.82-2.43,2.05Z"/><path class="cls-4" d="M644.18,151.45a.39.39,0,0,1,.16-.53,15.31,15.31,0,0,1,7-1.6c5.62,0,8.22,2.56,8.22,8.15v7.28a.46.46,0,0,1-.48.42H655a.51.51,0,0,1-.52-.42l-.23-.76c-1.07,1-3.21,1.6-5.59,1.6-3.73,0-6.2-2.08-6.17-5.17,0-2.75,2.5-4.58,6.17-4.58,1.89,0,3.58.59,4.23,1.49v-1.18c0-1.21-1-2-2.5-2a9.62,9.62,0,0,0-3.9.9c-.17.09-.36,0-.49-.22Zm8.74,8.66a2.58,2.58,0,0,0-1.79-.7c-.81,0-1.36.39-1.36,1s.55,1,1.36,1a2.58,2.58,0,0,0,1.79-.7Z"/><path class="cls-4" d="M212.44,183.44c.29,0,.42.2.36.4l-5.75,14.67a.8.8,0,0,1-.65.39h-6.57a.64.64,0,0,1-.58-.39l-5.79-14.67c-.1-.2.07-.4.33-.4h6.11a.64.64,0,0,1,.61.4l2.6,8.12,2.6-8.12a.61.61,0,0,1,.59-.4Z"/><path class="cls-4" d="M229.18,197.33c.06.2,0,.31-.23.42a14.23,14.23,0,0,1-6.73,1.57c-5.75,0-9.59-3.26-9.59-8.12s3.77-8.15,9.43-8.15c5.39,0,8.58,3,8.58,8.12a5.42,5.42,0,0,1-.13,1.27c0,.22-.2.34-.49.34H219.59s0,1.77,2.73,1.77a13.93,13.93,0,0,0,5-.93.37.37,0,0,1,.49.22Zm-5-7.51a2,2,0,0,0-2.18-2c-1.46,0-2.43.82-2.43,2Z"/><path class="cls-4" d="M242.76,183.44a.41.41,0,0,1,.45.4v3.65a.41.41,0,0,1-.45.4h-.85a3.24,3.24,0,0,0-2.76,1.18v9.41a.47.47,0,0,1-.49.42h-5.72a.47.47,0,0,1-.49-.42V183.87a.48.48,0,0,1,.49-.4h3.67a.59.59,0,0,1,.52.42l.49,1.24a5.94,5.94,0,0,1,4.29-1.69Z"/><path class="cls-4" d="M263.33,183.44c.29,0,.42.2.36.4l-5.56,15.06c-1.56,4.22-4.26,5.65-8.42,5.65a9.51,9.51,0,0,1-5.53-1.51.51.51,0,0,1-.16-.48l1.82-3.18c.1-.2.26-.25.39-.17a6.48,6.48,0,0,0,3.19,1,2.68,2.68,0,0,0,3-2.27h-2.67a.57.57,0,0,1-.58-.4l-5.24-13.71c-.1-.2.07-.4.33-.4h6.53a.67.67,0,0,1,.62.4l2.5,8.82,2.47-8.82a.61.61,0,0,1,.58-.4Z"/><path class="cls-4" d="M270.41,194a.28.28,0,0,1,.42-.11,9,9,0,0,0,3.74,1.15c.68.06,1.14-.28,1.14-.7,0-1.43-7.12-1-7.12-6.27,0-3,3-5,7.37-5a14.38,14.38,0,0,1,6.38,1.6c.16.12.26.26.19.4l-1.66,3.31a.29.29,0,0,1-.42.12,8.18,8.18,0,0,0-3.74-1.16c-.68,0-1.13.23-1.13.68,0,1.49,7.11.95,7.11,6.29,0,3-2.86,5-7.18,5a15.33,15.33,0,0,1-6.56-1.6c-.17-.14-.27-.28-.2-.45Z"/><path class="cls-4" d="M285.65,185.19a.41.41,0,0,1,.16-.54,15.31,15.31,0,0,1,7.05-1.6c5.63,0,8.23,2.56,8.23,8.15v7.28a.47.47,0,0,1-.49.42h-4.1a.5.5,0,0,1-.52-.42l-.23-.76c-1.07,1-3.21,1.6-5.58,1.6-3.74,0-6.21-2.07-6.18-5.17,0-2.75,2.5-4.58,6.18-4.58,1.88,0,3.57.59,4.22,1.49v-1.18c0-1.21-1-2-2.5-2a9.46,9.46,0,0,0-3.9.9c-.16.08-.36,0-.49-.23Zm8.74,8.65a2.61,2.61,0,0,0-1.79-.7c-.81,0-1.36.4-1.36,1s.55,1,1.36,1a2.58,2.58,0,0,0,1.79-.71Z"/><path class="cls-4" d="M321.66,178.53a.46.46,0,0,1,.48.39v19.56a.46.46,0,0,1-.48.42H318c-.23,0-.39-.17-.52-.42l-.49-1a8.42,8.42,0,0,1-5.49,1.85c-5.13,0-8.58-3.26-8.58-8.15s3.45-8.12,8.58-8.12a7.17,7.17,0,0,1,4,1.07v-5.2a.46.46,0,0,1,.48-.39Zm-6.21,10.9a2.75,2.75,0,0,0-2.57-1.54,3,3,0,0,0-3,3.26c0,2,1.2,3.37,3,3.37a2.75,2.75,0,0,0,2.57-1.55Z"/><path class="cls-4" d="M336.7,179.51c6.89,0,11.47,3.85,11.47,9.7s-4.58,9.69-11.47,9.69h-7.54a.46.46,0,0,1-.46-.42V179.93a.47.47,0,0,1,.46-.42Zm.39,14.33c2.5,0,4.19-1.85,4.19-4.63s-1.69-4.64-4.19-4.64H335.4v9.27Z"/><path class="cls-4" d="M351.12,185.19a.42.42,0,0,1,.17-.54,15.31,15.31,0,0,1,7-1.6c5.62,0,8.22,2.56,8.22,8.15v7.28a.47.47,0,0,1-.49.42H362a.5.5,0,0,1-.52-.42l-.23-.76c-1.07,1-3.22,1.6-5.59,1.6-3.74,0-6.21-2.07-6.17-5.17,0-2.75,2.5-4.58,6.17-4.58,1.89,0,3.58.59,4.23,1.49v-1.18c0-1.21-1-2-2.51-2a9.53,9.53,0,0,0-3.9.9c-.16.08-.35,0-.48-.23Zm8.75,8.65a2.65,2.65,0,0,0-1.79-.7c-.81,0-1.37.4-1.37,1s.56,1,1.37,1a2.61,2.61,0,0,0,1.79-.71Z"/><path class="cls-4" d="M387.2,183.44c.29,0,.42.2.35.4L382,198.9c-1.56,4.22-4.26,5.65-8.42,5.65a9.51,9.51,0,0,1-5.53-1.51.51.51,0,0,1-.16-.48l1.82-3.18c.1-.2.26-.25.39-.17a6.48,6.48,0,0,0,3.19,1,2.66,2.66,0,0,0,2.95-2.27h-2.66a.6.6,0,0,1-.59-.4l-5.23-13.71c-.1-.2.07-.4.33-.4h6.53a.67.67,0,0,1,.62.4l2.5,8.82,2.47-8.82a.6.6,0,0,1,.58-.4Z"/><path class="cls-4" d="M411.57,191.17c0,4.89-3.84,8.15-9.56,8.15s-9.55-3.26-9.55-8.12,3.83-8.15,9.55-8.15S411.57,186.31,411.57,191.17Zm-12.78,0a3.22,3.22,0,1,0,3.22-3.09A3,3,0,0,0,398.79,191.2Z"/><path class="cls-4" d="M423.65,183.44c.3,0,.49.17.49.4l-.36,2.72a.49.49,0,0,1-.48.43h-1.89v11.52c0,.25-.16.39-.45.39h-5.79c-.29,0-.45-.14-.45-.39V187H413a.44.44,0,0,1-.45-.4v-2.72a.44.44,0,0,1,.45-.43h1.79c.16-3.34,2.08-4.91,5.92-4.91h2.82c.3,0,.46.14.46.39v2.73a.41.41,0,0,1-.46.42c-1.23,0-1.91.42-2.08,1.37Z"/><path class="cls-4" d="M440.13,183.44c.29,0,.49.17.49.4l-.36,2.72a.5.5,0,0,1-.49.43h-2.08v11.49a.47.47,0,0,1-.49.42h-5.72a.46.46,0,0,1-.48-.42V187h-1.86a.44.44,0,0,1-.45-.4v-2.72a.44.44,0,0,1,.45-.43H431v-3.06c0-.2.22-.36.48-.39l5.72-.48a.45.45,0,0,1,.49.39v3.54Z"/><path class="cls-4" d="M448.32,178.53a.46.46,0,0,1,.48.42v5.68a5.63,5.63,0,0,1,4.2-1.58c3.9,0,6.2,1.91,6.2,5.17v10.26a.46.46,0,0,1-.48.42H453c-.26,0-.49-.19-.46-.42v-8.82c0-1.13-.58-1.77-1.59-1.77a2.06,2.06,0,0,0-2.15,1.57v9a.46.46,0,0,1-.48.42h-5.73a.46.46,0,0,1-.48-.42V179a.46.46,0,0,1,.48-.42Z"/><path class="cls-4" d="M477.37,197.33c.06.2,0,.31-.23.42a14.2,14.2,0,0,1-6.73,1.57c-5.75,0-9.58-3.26-9.58-8.12s3.76-8.15,9.42-8.15c5.4,0,8.58,3,8.58,8.12a5.42,5.42,0,0,1-.13,1.27c0,.22-.19.34-.49.34H467.78s0,1.77,2.73,1.77a13.93,13.93,0,0,0,5-.93.36.36,0,0,1,.49.22Zm-5-7.51a2,2,0,0,0-2.17-2c-1.47,0-2.44.82-2.44,2Z"/><path class="cls-4" d="M492.87,179.51c6.89,0,11.47,3.85,11.47,9.7s-4.58,9.69-11.47,9.69h-7.54a.46.46,0,0,1-.46-.42V179.93a.47.47,0,0,1,.46-.42Zm.39,14.33c2.5,0,4.19-1.85,4.19-4.63s-1.69-4.64-4.19-4.64h-1.69v9.27Z"/><path class="cls-4" d="M522.18,197.33c.06.2,0,.31-.23.42a14.23,14.23,0,0,1-6.73,1.57c-5.75,0-9.59-3.26-9.59-8.12s3.77-8.15,9.43-8.15c5.4,0,8.58,3,8.58,8.12a5.42,5.42,0,0,1-.13,1.27c0,.22-.19.34-.49.34H512.59s0,1.77,2.73,1.77a13.93,13.93,0,0,0,5-.93.37.37,0,0,1,.49.22Zm-5-7.51a2,2,0,0,0-2.17-2c-1.47,0-2.44.82-2.44,2Z"/><path class="cls-4" d="M526.59,185.19a.42.42,0,0,1,.17-.54,15.31,15.31,0,0,1,7-1.6c5.62,0,8.22,2.56,8.22,8.15v7.28a.47.47,0,0,1-.49.42h-4.09a.5.5,0,0,1-.52-.42l-.23-.76c-1.07,1-3.22,1.6-5.59,1.6-3.74,0-6.21-2.07-6.17-5.17,0-2.75,2.5-4.58,6.17-4.58,1.89,0,3.58.59,4.23,1.49v-1.18c0-1.21-1-2-2.51-2a9.53,9.53,0,0,0-3.9.9c-.16.08-.35,0-.48-.23Zm8.75,8.65a2.65,2.65,0,0,0-1.79-.7c-.81,0-1.37.4-1.37,1s.56,1,1.37,1a2.61,2.61,0,0,0,1.79-.71Z"/><path class="cls-4" d="M562.6,178.53a.47.47,0,0,1,.49.39v19.56a.47.47,0,0,1-.49.42h-3.67c-.23,0-.39-.17-.52-.42l-.49-1a8.42,8.42,0,0,1-5.49,1.85c-5.14,0-8.58-3.26-8.58-8.15s3.44-8.12,8.58-8.12a7.11,7.11,0,0,1,4,1.07v-5.2a.47.47,0,0,1,.49-.39Zm-6.21,10.9a2.74,2.74,0,0,0-2.56-1.54,3,3,0,0,0-3,3.26c0,2,1.2,3.37,3,3.37a2.75,2.75,0,0,0,2.56-1.55Z"/><path class="cls-4" d="M293.3,48.72c.44,0,.78.29.54.67L283.07,66.17v11a.72.72,0,0,1-.74.59h-8.57a.71.71,0,0,1-.73-.59v-11L262.26,49.39c-.25-.38.09-.67.53-.67h10.14a1.28,1.28,0,0,1,1.12.67l4,7.59,4-7.59a1.3,1.3,0,0,1,1.12-.67Z"/><path class="cls-4" d="M308.12,78.4c-10.38,0-17.3-6.07-17.3-15.14S297.74,48,308.12,48s17.3,6.07,17.3,15.22S318.5,78.4,308.12,78.4Zm0-21.84a6.34,6.34,0,0,0-6.68,6.7,6.68,6.68,0,1,0,13.36,0A6.34,6.34,0,0,0,308.12,56.56Z"/><path class="cls-4" d="M354.28,48.72a.77.77,0,0,1,.83.71V67c0,7.47-4.63,11.39-13.46,11.39S328.3,74.48,328.2,67V49.43a.8.8,0,0,1,.83-.71h8.38a.77.77,0,0,1,.83.71V67.77c0,1.94,1.27,3.08,3.41,3.08s3.42-1.14,3.42-3V49.43a.79.79,0,0,1,.82-.71Z"/><path class="cls-4" d="M383.82,70.22a.61.61,0,0,1,.63.59l-.68,6.41a.81.81,0,0,1-.78.59h-17.6a.71.71,0,0,1-.73-.59V49.35a.7.7,0,0,1,.73-.63H374a.7.7,0,0,1,.73.63V70.22Z"/><path class="cls-4" d="M403.31,78.4c-10.38,0-17.3-6.07-17.3-15.14S392.93,48,403.31,48s17.31,6.07,17.31,15.22S413.69,78.4,403.31,78.4Zm0-21.84a6.33,6.33,0,0,0-6.67,6.7,6.68,6.68,0,1,0,13.35,0A6.34,6.34,0,0,0,403.31,56.56Z"/><path class="cls-4" d="M426.37,69a.56.56,0,0,1,.88-.33,20.64,20.64,0,0,0,6.77,2c1.56,0,2.58-.63,2.58-1.6,0-2.49-13.69-2.36-13.69-11.55,0-5.65,4.92-9.41,12.33-9.41a23.52,23.52,0,0,1,10.92,3c.39.21.53.55.39.76l-3.07,5.94a.57.57,0,0,1-.88.34A21.58,21.58,0,0,0,435.73,56c-1.51,0-2.49.59-2.49,1.52C433.24,60,447,59.8,447,69.08c0,5.61-5,9.36-12.52,9.36-4.09,0-8.38-1.1-10.82-2.78-.39-.26-.54-.55-.39-.76Z"/><path class="cls-4" d="M474.91,48.72c.44,0,.74.29.69.59l-.73,6.4a.81.81,0,0,1-.78.6h-7.27V77.22a.66.66,0,0,1-.68.59h-8.62a.72.72,0,0,1-.74-.59V56.31h-8.09a.66.66,0,0,1-.68-.6V49.35a.69.69,0,0,1,.68-.63Z"/></g></svg>