<svg xmlns="http://www.w3.org/2000/svg" xmlns:xlink="http://www.w3.org/1999/xlink" width="1920" height="1080" viewBox="0 0 1920 1080"><defs><style>.cls-1{isolation:isolate;}.cls-2{stroke-miterlimit:10;fill:url(#Degradado_sin_nombre_40);stroke:url(#Degradado_sin_nombre_4);}.cls-3{fill:#0b2c54;}.cls-4{fill:url(#Degradado_sin_nombre_14);}.cls-5{fill:url(#Degradado_sin_nombre_15);}.cls-6{fill:url(#Degradado_sin_nombre_16);}.cls-7{fill:url(#Degradado_sin_nombre_20);}.cls-8{fill:url(#Degradado_sin_nombre_20-2);}.cls-9{fill:url(#Degradado_sin_nombre_38);}.cls-10{opacity:0.9;mix-blend-mode:screen;}.cls-11{fill:url(#Degradado_sin_nombre_73);}.cls-12{fill:#4a0e06;}.cls-13{fill:#330200;}.cls-14{fill:#3a000f;}.cls-15{fill:#662368;}.cls-16{fill:#8d3b8d;}.cls-17{fill:#3e0147;}.cls-18{fill:#1c1318;}.cls-19{fill:#62002d;}.cls-20{fill:#666242;}.cls-21{fill:#847f51;}.cls-22{fill:#472b06;}</style><linearGradient id="Degradado_sin_nombre_40" x1="963.8" y1="-99.54" x2="968.94" y2="1273.65" gradientUnits="userSpaceOnUse"><stop offset="0" stop-color="#001636"/><stop offset="0.65" stop-color="#37417f"/></linearGradient><linearGradient id="Degradado_sin_nombre_4" x1="1.04" y1="536.66" x2="1931.32" y2="536.66" gradientUnits="userSpaceOnUse"><stop offset="0" stop-color="#6e015e"/><stop offset="1" stop-color="#8d3b8d"/></linearGradient><linearGradient id="Degradado_sin_nombre_14" x1="-82.74" y1="669.49" x2="529.26" y2="350.64" gradientUnits="userSpaceOnUse"><stop offset="0.39" stop-color="#001635"/><stop offset="0.77" stop-color="#202f60"/></linearGradient><linearGradient id="Degradado_sin_nombre_15" x1="613.6" y1="993.97" x2="410.46" y2="315.11" gradientUnits="userSpaceOnUse"><stop offset="0.47" stop-color="#001635"/><stop offset="0.77" stop-color="#202f60"/></linearGradient><linearGradient id="Degradado_sin_nombre_16" x1="1365.81" y1="702.78" x2="735.81" y2="314.49" gradientUnits="userSpaceOnUse"><stop offset="0.47" stop-color="#001635"/><stop offset="0.77" stop-color="#202f60"/></linearGradient><linearGradient id="Degradado_sin_nombre_20" x1="1827.62" y1="688.27" x2="1143.62" y2="351.41" gradientUnits="userSpaceOnUse"><stop offset="0.54" stop-color="#001635"/><stop offset="0.89" stop-color="#202f60"/></linearGradient><linearGradient id="Degradado_sin_nombre_20-2" x1="2093.43" y1="920.78" x2="1453.15" y2="506.78" xlink:href="#Degradado_sin_nombre_20"/><linearGradient id="Degradado_sin_nombre_38" x1="2.04" y1="851.83" x2="1930.32" y2="851.83" gradientUnits="userSpaceOnUse"><stop offset="0.07" stop-color="#125407"/><stop offset="0.08" stop-color="#125808"/><stop offset="0.14" stop-color="#0e750e"/><stop offset="0.2" stop-color="#0c8a13"/><stop offset="0.26" stop-color="#0a9716"/><stop offset="0.32" stop-color="#0a9b17"/><stop offset="0.53" stop-color="#106a0c"/><stop offset="0.65" stop-color="#125407"/></linearGradient><linearGradient id="Degradado_sin_nombre_73" x1="585.22" y1="52.92" x2="588.38" y2="304.81" gradientUnits="userSpaceOnUse"><stop offset="0" stop-color="#fff"/><stop offset="0.14" stop-color="#fff" stop-opacity="0.99"/><stop offset="0.27" stop-color="#fff" stop-opacity="0.94"/><stop offset="0.39" stop-color="#fff" stop-opacity="0.87"/><stop offset="0.51" stop-color="#fff" stop-opacity="0.77"/><stop offset="0.63" stop-color="#fff" stop-opacity="0.64"/><stop offset="0.74" stop-color="#fff" stop-opacity="0.48"/><stop offset="0.85" stop-color="#fff" stop-opacity="0.3"/><stop offset="0.96" stop-color="#fff" stop-opacity="0.08"/><stop offset="1" stop-color="#fff" stop-opacity="0"/></linearGradient></defs><g class="cls-1"><g id="Game_background_screen" data-name="Game background screen"><g id="sky-3" data-name="sky"><rect class="cls-2" x="1.54" y="-3.34" width="1929.29" height="1080"/></g><g id="clouds-3" data-name="clouds"><path class="cls-3" d="M268,112.47c0,36.3-25,65.73-55.88,65.73a49.48,49.48,0,0,1-28.71-9.33c-10.1,11.82-24,19.12-39.38,19.12a50.29,50.29,0,0,1-32.84-12.55c-10.22,13.34-25,21.72-41.49,21.72-21.39,0-40-14.13-49.35-34.89-30.15-.94-54.35-30-54.35-65.7,0-36.3,25-65.73,55.88-65.73a49.2,49.2,0,0,1,27.23,8.33C57.76,15.92,77.47-.34,100.41-.34c17.18,0,32.56,9.13,42.81,23.49a50.12,50.12,0,0,1,32-11.87c22.23,0,41.44,15.28,50.43,37.4C250,55.8,268,81.66,268,112.47Z"/><path class="cls-3" d="M772,488.62c0,32.81-20.38,59.41-45.52,59.41a37.66,37.66,0,0,1-23.38-8.44c-8.23,10.69-19.57,17.28-32.08,17.28-10,0-19.24-4.21-26.75-11.34-8.33,12.05-20.39,19.63-33.8,19.63-17.42,0-32.55-12.77-40.2-31.53-24.56-.86-44.27-27.11-44.27-59.38,0-32.81,20.38-59.41,45.52-59.41a37.34,37.34,0,0,1,22.18,7.53c7-21,23.06-35.71,41.75-35.71,14,0,26.53,8.25,34.87,21.23,7.39-6.76,16.39-10.73,26.1-10.73,18.11,0,33.76,13.81,41.08,33.81C757.36,437.4,772,460.77,772,488.62Z"/><path class="cls-3" d="M1237,130.47c0,36.3-25,65.73-55.88,65.73a49.48,49.48,0,0,1-28.71-9.33c-10.1,11.82-24,19.12-39.38,19.12a50.29,50.29,0,0,1-32.84-12.55c-10.22,13.34-25,21.72-41.49,21.72-21.39,0-40-14.13-49.35-34.89-30.15-.94-54.35-30-54.35-65.7,0-36.3,25-65.73,55.88-65.73a49.2,49.2,0,0,1,27.23,8.33c8.61-23.25,28.32-39.51,51.26-39.51,17.18,0,32.56,9.13,42.81,23.49a50.12,50.12,0,0,1,32-11.87c22.23,0,41.44,15.28,50.43,37.4C1219,73.8,1237,99.66,1237,130.47Z"/><path class="cls-3" d="M1975,71.62c0,27.67-15.49,50.09-34.6,50.09-6.5,0-12.58-2.59-17.78-7.11-6.25,9-14.87,14.57-24.38,14.57-7.6,0-14.63-3.55-20.34-9.56-6.32,10.16-15.49,16.55-25.69,16.55-13.24,0-24.74-10.77-30.56-26.58C1803,108.85,1788,86.72,1788,59.51c0-27.66,15.49-50.09,34.6-50.09a26.59,26.59,0,0,1,16.86,6.35c5.33-17.72,17.54-30.11,31.74-30.11,10.64,0,20.16,7,26.51,17.9,5.61-5.7,12.46-9,19.84-9,13.77,0,25.66,11.65,31.23,28.51C1963.88,28.44,1975,48.15,1975,71.62Z"/><path class="cls-3" d="M1467,486.62c0,27.67-19.63,50.09-43.85,50.09a39.58,39.58,0,0,1-22.53-7.11c-7.93,9-18.85,14.57-30.91,14.57a40.14,40.14,0,0,1-25.77-9.56c-8,10.16-19.64,16.55-32.56,16.55-16.78,0-31.36-10.77-38.73-26.58-23.66-.73-42.65-22.86-42.65-50.07,0-27.66,19.63-50.09,43.85-50.09a39.4,39.4,0,0,1,21.37,6.35c6.76-17.72,22.22-30.11,40.23-30.11,13.49,0,25.55,6.95,33.59,17.9a40,40,0,0,1,25.15-9.05c17.45,0,32.52,11.65,39.58,28.51C1452.9,443.44,1467,463.15,1467,486.62Z"/><path class="cls-3" d="M1973,408.48c0,29.87-20.55,54.08-45.89,54.08a40.55,40.55,0,0,1-23.57-7.68c-8.3,9.73-19.73,15.73-32.35,15.73a41.24,41.24,0,0,1-27-10.32c-8.39,11-20.55,17.87-34.07,17.87-17.57,0-32.82-11.63-40.53-28.7-24.76-.78-44.63-24.69-44.63-54.06,0-29.87,20.54-54.08,45.89-54.08a40.34,40.34,0,0,1,22.36,6.85c7.07-19.13,23.25-32.51,42.09-32.51,14.12,0,26.74,7.51,35.15,19.33a41.11,41.11,0,0,1,26.32-9.77c18.26,0,34,12.57,41.41,30.78C1958.24,361.85,1973,383.13,1973,408.48Z"/></g><g id="mountains-3" data-name="mountains"><path class="cls-4" d="M192.47,723.16H28.81c-61.65,0-100.88-64.72-71.5-117.92l85-153.91L142.49,270c21.72-39.31,78.23-39.31,99.95,0L342.61,451.33l85,153.91c29.39,53.2-9.85,117.92-71.49,117.92Z"/><path class="cls-5" d="M545.47,846.16H381.81c-61.65,0-100.88-64.72-71.5-117.92l85-153.91,101.08-183c21.32-38.6,76.81-38.6,98.13,0l101.08,183,85,153.91c29.39,53.2-9.85,117.92-71.49,117.92Z"/><path class="cls-6" d="M1086.47,723.16H922.81c-61.65,0-100.88-64.72-71.5-117.92l85-153.91,107.79-195.14c18.41-33.32,66.31-33.32,84.71,0l107.79,195.14,85,153.91c29.39,53.2-9.85,117.92-71.49,117.92Z"/><path class="cls-7" d="M1488.47,723.16H1324.81c-61.65,0-100.88-64.72-71.5-117.92l85-153.91L1442.85,262.1c19.82-35.89,71.41-35.89,91.24,0l104.52,189.23,85,153.91c29.39,53.2-9.85,117.92-71.49,117.92Z"/><path class="cls-8" d="M1794.47,914.16H1630.81c-61.65,0-100.88-64.72-71.5-117.92l85-153.91,101.56-183.86c21.12-38.23,76.06-38.23,97.17,0l101.56,183.86,85,153.91c29.39,53.2-9.85,117.92-71.49,117.92Z"/></g><g id="ground-3" data-name="ground"><rect class="cls-9" x="2.04" y="613.16" width="1928.29" height="477.34"/></g><g id="moon-3" data-name="moon"><image class="cls-10" width="698" height="698" transform="translate(237.61 -168.16)" xlink:href="Game-background-screen1.png"/><circle class="cls-11" cx="586.82" cy="181" r="108.5"/></g><g id="background_trees-4" data-name="background trees"><g id="background_trees-5" data-name="background trees"><path class="cls-12" d="M976.2,616.78H945s4.17-33.92,0-47.33-15-48.2-26.49-58.14l8.17-3.31s25.52,32.58,34.14,51.63c0,0,11.68-39.84,29.21-54.43v12.43s-24.29,39-18.45,52.49Z"/><path class="cls-12" d="M975.12,605.79a156,156,0,0,1-29,0l-1.07,11H976.2Z"/><path class="cls-13" d="M974.39,598.41a113.83,113.83,0,0,1-27.86.49l-.45,6.89s15.8,1.56,29,0Z"/><path class="cls-12" d="M973.3,587.43s-15.35.74-26.44-1.17l-.33,12.64s16.35,2,27.86-.49Z"/><path class="cls-13" d="M972.29,577.22a213.53,213.53,0,0,1-25.76,0l.33,9a122.08,122.08,0,0,0,26.44,1.17Z"/><path class="cls-12" d="M971.59,570.12s-18.56.18-26.58-.67a66.94,66.94,0,0,1,1.52,7.77s14,2,25.76,0Z"/><path class="cls-13" d="M970.69,565.42l-27.28-1.07,1.6,5.1,26.58.67A11.82,11.82,0,0,1,970.69,565.42Z"/><path class="cls-12" d="M957.5,554.11H940.05l3.36,10.24,27.28,1.07s-.31-7,1.6-11.31h-9.68l-1.78,5.52-2.75-5.52Z"/><polygon class="cls-13" points="972.29 554.11 973.88 550.21 963.98 550.21 962.61 554.11 972.29 554.11"/><polygon class="cls-12" points="974.51 548.5 973.88 550.21 963.98 550.21 964.6 548.5 974.51 548.5"/><polygon class="cls-13" points="976.85 542.74 974.51 548.5 964.6 548.5 966.96 542.41 976.85 542.74"/><polygon class="cls-12" points="981.31 533.29 970.93 533.29 966.96 542.41 976.85 542.74 981.31 533.29"/><polygon class="cls-13" points="955.66 549.8 938.55 549.8 940.05 554.11 958.08 554.11 955.66 549.8"/><polygon class="cls-13" points="950.3 541.08 935.3 541.08 938.55 549.8 955.66 549.8 950.3 541.08"/><polygon class="cls-12" points="944.47 532.33 931.66 532.33 935.3 541.08 950.3 541.08 944.47 532.33"/><polygon class="cls-13" points="928.16 525.01 939 524.53 944.47 532.33 931.66 532.33 928.16 525.01"/><polygon class="cls-13" points="984.74 526.8 974.14 526.8 970.93 533.29 981.31 533.29 984.74 526.8"/><path class="cls-12" d="M980.87,515.6s-5.25,8.33-6.73,11.2h10.6l5.3-9.17v-2Z"/><polygon class="cls-12" points="955.66 549.8 938.55 549.8 938.07 548.5 954.62 548.1 955.66 549.8"/><path class="cls-14" d="M897.73,489.1s6.77-.27,5.64-5-7.7-1.52-7.7-1.52l-3,2.21,1.63-2.87a2,2,0,0,0,.27-.92c0-1.21-.32-4.06-4.16-4.49-4.88-.56-4.71,6.28-4.71,6.28l-.55-2.14s0-3.59-5.26-3.32-2.25,6.08-2.25,6.08l1.88,2.48-2.74-.91s-5.16-1.3-6.66,1.74,3.38,4.69,3.38,4.69h4.59L875,492.83s-2.63,1.66-2.63,4.42,6.38,1.65,6.38,1.65a5.93,5.93,0,0,0,3.39-2.48l.75,1.93a4.37,4.37,0,0,0,3.77,3.09c3,.22,6-2.26,5.62-4.47l-1.12-2.21,3,1.38a19.18,19.18,0,0,0,6,.55c3-.27,7-3.05,3.32-6.08A7.85,7.85,0,0,0,897.73,489.1Z"/><path class="cls-15" d="M903.93,474.21s.59-3.53-1.17-4.76-4.68-.48-5.26.64a5.4,5.4,0,0,0-.59,2.25l-1.08-1.2s-3-2.17-5.35-1.05-.59,2.63-.59,2.63l1.76,1.87-1.76-.38s-5.27-.74-5.85,1.88c-.41,1.85,1.21,2.58,2.21,2.85a18.1,18.1,0,0,1,2,.63l1.67.64h-1.41a5.78,5.78,0,0,0-2.75.62c-.76.43-1.36,1.09-.69,2a4,4,0,0,0,3.47,1.5,5.62,5.62,0,0,1,.58,0l3.1,0V485a2.87,2.87,0,0,0,2.1,2.38l.86.31c2.34.75,3.51-2.63,3.51-2.63l1.17,1.13a5.45,5.45,0,0,0,4.09,1.12,2.07,2.07,0,0,0,1.77-1.88,2.57,2.57,0,0,0-1.07-2.37l-.28-.22h2s4.6.35,5.18-1.15-1.75-2.62-1.75-2.62l-1.8-.77,1.21-.73s2.53-1.33,2.43-2.35a2.11,2.11,0,0,0-1.26-2.14c-1.17-.75-6.44,1.12-6.44,1.12"/><path class="cls-16" d="M1007.41,522.62s-.43-3.49-2.23-4.47-4.1.11-4.31,1.27a5.92,5.92,0,0,0,.09,2.25l-1.23-1s-3.12-1.73-4.81-.35.18,2.61.18,2.61l2,1.6-1.59-.15s-4.66-.08-4.48,2.53a2.75,2.75,0,0,0,2.61,2.49,18.34,18.34,0,0,1,1.85.37l1.58.41-1.2.18a4,4,0,0,0-2.17.94,1.28,1.28,0,0,0-.06,2,3.53,3.53,0,0,0,3.33,1l.49-.09,2.64-.35.18.63a3.24,3.24,0,0,0,2.39,2.05c.25.07.52.13.81.19,2.19.44,2.3-3,2.3-3l1.29.94a4.77,4.77,0,0,0,3.76.59,1.7,1.7,0,0,0,1-2,3.09,3.09,0,0,0-1.52-2.16l-.29-.19,1.7-.24s4-.23,4.1-1.75-2.17-2.32-2.17-2.32l-1.73-.53.84-.85s1.8-1.61,1.45-2.58a2.53,2.53,0,0,0-1.62-1.92c-1.19-.58-5.17,1.88-5.17,1.88"/><path class="cls-16" d="M1026.21,470.72s-.42-3.5-2.23-4.47-4.1.11-4.3,1.27a5.63,5.63,0,0,0,.09,2.24l-1.24-1s-3.12-1.74-4.81-.36.19,2.61.19,2.61l2,1.6-1.58-.15s-4.67-.08-4.48,2.53a2.75,2.75,0,0,0,2.61,2.49,18.72,18.72,0,0,1,1.84.37l1.58.41-1.2.18a4,4,0,0,0-2.16.94,1.27,1.27,0,0,0-.06,2,3.56,3.56,0,0,0,3.32,1,4.37,4.37,0,0,1,.5-.09l2.63-.36.19.63a3.22,3.22,0,0,0,2.39,2.05c.24.07.51.13.81.19,2.18.44,2.3-3,2.3-3l1.28.95a4.8,4.8,0,0,0,3.77.58,1.71,1.71,0,0,0,1-2,3.07,3.07,0,0,0-1.53-2.16l-.29-.18,1.7-.25s4-.22,4.1-1.74-2.17-2.33-2.17-2.33l-1.72-.52.84-.86s1.79-1.6,1.45-2.58a2.49,2.49,0,0,0-1.63-1.91c-1.19-.59-5.17,1.88-5.17,1.88"/><path class="cls-17" d="M920.85,465.52s5.08-.22,4.23-4-5.78-1.24-5.78-1.24L917,462l1.22-2.33a1.6,1.6,0,0,0,.2-.76,3.32,3.32,0,0,0-3.11-3.66c-3.67-.46-3.54,5.12-3.54,5.12l-.42-1.75s0-2.92-3.95-2.7-1.69,5-1.69,5l1.41,2-2-.74s-3.88-1.06-5,1.42,2.54,3.83,2.54,3.83h3.45l-2.32,1.12a4.81,4.81,0,0,0-2,3.61c0,2.25,4.8,1.35,4.8,1.35a4.46,4.46,0,0,0,2.54-2l.56,1.58a3.42,3.42,0,0,0,2.83,2.52c2.25.18,4.51-1.84,4.23-3.65l-.85-1.8,2.26,1.13a13.51,13.51,0,0,0,4.51.45c2.26-.23,5.28-2.5,2.5-5A5.6,5.6,0,0,0,920.85,465.52Z"/><path class="cls-16" d="M935.31,473.65s6.77-.28,5.64-5-7.7-1.52-7.7-1.52l-3,2.21,1.63-2.86a2,2,0,0,0,.27-.93c0-1.2-.32-4.06-4.15-4.49-4.89-.55-4.72,6.28-4.72,6.28l-.55-2.14s0-3.59-5.26-3.31-2.25,6.07-2.25,6.07l1.88,2.48-2.74-.9s-5.16-1.3-6.66,1.73,3.38,4.69,3.38,4.69h4.59l-3.08,1.38S910,479,910,481.79s6.39,1.66,6.39,1.66a6,6,0,0,0,3.38-2.49l.75,1.93a4.37,4.37,0,0,0,3.77,3.09c3,.23,6-2.26,5.62-4.47l-1.12-2.2,3,1.38a19.52,19.52,0,0,0,6,.55c3-.28,7-3.06,3.32-6.08A7.79,7.79,0,0,0,935.31,473.65Z"/><path class="cls-18" d="M931,480s.59-3.53-1.17-4.76-4.68-.48-5.26.64a5.37,5.37,0,0,0-.59,2.25l-1.09-1.2s-3-2.17-5.35-1.05-.58,2.62-.58,2.62l1.75,1.87L917,480s-5.27-.75-5.85,1.87c-.42,1.85,1.21,2.58,2.2,2.85.68.19,1.35.39,2,.63L917,486h-1.41a5.78,5.78,0,0,0-2.75.63c-.76.43-1.36,1.09-.69,2a3.92,3.92,0,0,0,3.46,1.49,5.81,5.81,0,0,1,.59,0l3.1,0v.66a2.86,2.86,0,0,0,2.09,2.38q.39.15.87.3c2.34.75,3.51-2.62,3.51-2.62L926.9,492a5.48,5.48,0,0,0,4.09,1.13,2.07,2.07,0,0,0,1.77-1.88,2.55,2.55,0,0,0-1.08-2.37l-.27-.22h2s4.59.35,5.18-1.15-1.76-2.62-1.76-2.62l-1.79-.77,1.21-.73s2.53-1.34,2.43-2.35a2.11,2.11,0,0,0-1.26-2.14C936.26,478.14,931,480,931,480"/><path class="cls-16" d="M931.23,515.74s5.67-.22,4.72-4.08-6.45-1.25-6.45-1.25L927,512.23l1.36-2.35a1.68,1.68,0,0,0,.23-.77c0-1-.26-3.33-3.48-3.68-4.09-.46-3.94,5.15-3.94,5.15l-.46-1.75s0-2.95-4.4-2.72-1.89,5-1.89,5l1.57,2.05-2.29-.75s-4.31-1.07-5.57,1.43,2.83,3.85,2.83,3.85h3.84l-2.58,1.14a4.78,4.78,0,0,0-2.2,3.62c0,2.27,5.34,1.36,5.34,1.36a4.94,4.94,0,0,0,2.83-2l.63,1.59a3.63,3.63,0,0,0,3.16,2.54c2.5.18,5-1.86,4.7-3.67l-.94-1.82,2.52,1.14a16.29,16.29,0,0,0,5,.45c2.51-.23,5.87-2.51,2.78-5A6.63,6.63,0,0,0,931.23,515.74Z"/><path class="cls-17" d="M955.23,514.91s6.77-.27,5.64-5-7.71-1.51-7.71-1.51l-3,2.2,1.63-2.86a2,2,0,0,0,.26-.93c0-1.2-.31-4-4.15-4.49-4.88-.55-4.71,6.28-4.71,6.28l-.55-2.14s0-3.58-5.26-3.31-2.25,6.07-2.25,6.07l1.87,2.49-2.73-.91s-5.16-1.3-6.66,1.74,3.38,4.69,3.38,4.69h4.59l-3.09,1.38s-2.63,1.65-2.63,4.41,6.39,1.66,6.39,1.66a5.93,5.93,0,0,0,3.39-2.48l.75,1.93a4.35,4.35,0,0,0,3.77,3.08c3,.23,6-2.25,5.62-4.46l-1.13-2.21,3,1.38a19.14,19.14,0,0,0,6,.55c3-.27,7-3,3.32-6.08A7.81,7.81,0,0,0,955.23,514.91Z"/><path class="cls-19" d="M948.82,477.62s.58-3.59-1.14-4.84-4.58-.49-5.15.65a5.71,5.71,0,0,0-.57,2.29l-1.07-1.23s-2.94-2.2-5.23-1.06-.57,2.67-.57,2.67l1.71,1.9-1.71-.38s-5.15-.76-5.73,1.91c-.4,1.88,1.19,2.62,2.16,2.9a19.16,19.16,0,0,1,1.94.64l1.63.65h-1.38a5.46,5.46,0,0,0-2.69.64c-.75.43-1.33,1.11-.67,2.05a3.75,3.75,0,0,0,3.38,1.52l.58,0,3,0v.67a2.87,2.87,0,0,0,2,2.42c.25.1.53.21.84.31,2.29.76,3.43-2.67,3.43-2.67l1.15,1.15a5.22,5.22,0,0,0,4,1.14,2.07,2.07,0,0,0,1.73-1.92,2.62,2.62,0,0,0-1-2.4l-.27-.23h2s4.5.36,5.07-1.17-1.71-2.66-1.71-2.66l-1.76-.79,1.18-.74s2.48-1.36,2.39-2.39a2.2,2.2,0,0,0-1.24-2.18c-1.15-.76-6.3,1.14-6.3,1.14"/><path class="cls-18" d="M953.25,495.12s5.81-.24,4.84-4.22-6.61-1.29-6.61-1.29l-2.58,1.87,1.4-2.43a1.75,1.75,0,0,0,.23-.79c0-1-.27-3.44-3.57-3.81-4.19-.47-4,5.33-4,5.33l-.47-1.81s0-3.05-4.52-2.82-1.93,5.16-1.93,5.16l1.61,2.11-2.35-.77s-4.42-1.1-5.71,1.47,2.9,4,2.9,4h3.94l-2.65,1.17a5,5,0,0,0-2.26,3.75c0,2.35,5.48,1.41,5.48,1.41a5.11,5.11,0,0,0,2.91-2.11l.64,1.64a3.73,3.73,0,0,0,3.24,2.62c2.57.19,5.15-1.92,4.83-3.79l-1-1.88,2.58,1.17a16.46,16.46,0,0,0,5.16.47c2.58-.23,6-2.59,2.85-5.16A6.7,6.7,0,0,0,953.25,495.12Z"/><path class="cls-18" d="M1022,483.11s5.81-.23,4.84-4.22-6.61-1.29-6.61-1.29l-2.58,1.88,1.4-2.44a1.72,1.72,0,0,0,.23-.78c0-1-.27-3.45-3.56-3.82-4.2-.46-4,5.34-4,5.34l-.47-1.82s0-3-4.51-2.81-1.94,5.15-1.94,5.15l1.61,2.11-2.34-.77s-4.43-1.1-5.72,1.48,2.9,4,2.9,4h3.94l-2.65,1.17a5,5,0,0,0-2.26,3.76c0,2.34,5.49,1.4,5.49,1.4a5.1,5.1,0,0,0,2.9-2.11l.65,1.64a3.71,3.71,0,0,0,3.23,2.62c2.57.2,5.15-1.91,4.83-3.79l-1-1.87,2.58,1.17a16.81,16.81,0,0,0,5.16.47c2.58-.24,6-2.6,2.85-5.17A6.75,6.75,0,0,0,1022,483.11Z"/><path class="cls-18" d="M906.65,505.74s5.81-.23,4.84-4.22-6.61-1.29-6.61-1.29l-2.58,1.88,1.4-2.43a1.75,1.75,0,0,0,.23-.79c0-1-.27-3.44-3.57-3.81-4.19-.47-4,5.33-4,5.33l-.47-1.82s0-3-4.52-2.81-1.93,5.16-1.93,5.16l1.61,2.11-2.35-.77s-4.42-1.11-5.71,1.47,2.9,4,2.9,4h3.94l-2.65,1.17a4.93,4.93,0,0,0-2.26,3.75c0,2.34,5.48,1.4,5.48,1.4a5.05,5.05,0,0,0,2.91-2.11l.64,1.65a3.74,3.74,0,0,0,3.24,2.62c2.57.19,5.15-1.92,4.83-3.8l-1-1.87,2.58,1.17a16.81,16.81,0,0,0,5.16.47c2.58-.24,6-2.6,2.85-5.17A6.75,6.75,0,0,0,906.65,505.74Z"/><path class="cls-18" d="M1025,513.19s5.81-.23,4.84-4.21-6.61-1.29-6.61-1.29l-2.58,1.87,1.39-2.43a1.54,1.54,0,0,0,.23-.79c0-1-.26-3.44-3.56-3.81-4.19-.47-4,5.33-4,5.33l-.47-1.81s0-3.05-4.52-2.82-1.93,5.16-1.93,5.16l1.61,2.11-2.35-.77s-4.42-1.11-5.71,1.47,2.9,4,2.9,4h3.94l-2.65,1.17a5,5,0,0,0-2.26,3.75c0,2.34,5.48,1.41,5.48,1.41a5.11,5.11,0,0,0,2.91-2.11l.64,1.64a3.73,3.73,0,0,0,3.24,2.62c2.57.19,5.15-1.92,4.82-3.79l-1-1.88,2.58,1.17a16.46,16.46,0,0,0,5.16.47c2.58-.23,6-2.59,2.85-5.16A6.73,6.73,0,0,0,1025,513.19Z"/><path class="cls-18" d="M977.78,504.56s6.76-.27,5.64-5-7.71-1.52-7.71-1.52l-3,2.21,1.62-2.86a2,2,0,0,0,.27-.93c0-1.2-.31-4.05-4.15-4.49-4.88-.55-4.71,6.28-4.71,6.28l-.55-2.14s0-3.59-5.26-3.31-2.26,6.07-2.26,6.07l1.88,2.49-2.73-.91s-5.16-1.3-6.66,1.73,3.38,4.7,3.38,4.7h4.59L955,508.29s-2.63,1.65-2.63,4.41,6.39,1.66,6.39,1.66a5.9,5.9,0,0,0,3.38-2.48l.76,1.93a4.34,4.34,0,0,0,3.77,3.08c3,.23,6-2.25,5.62-4.46l-1.13-2.21,3,1.38a19.14,19.14,0,0,0,6,.55c3-.27,7-3,3.32-6.08A7.81,7.81,0,0,0,977.78,504.56Z"/><path class="cls-17" d="M963.53,497.7s3.84-.13,3.2-2.26-4.37-.69-4.37-.69l-1.7,1,.92-1.3a.72.72,0,0,0,.15-.42c0-.55-.17-1.85-2.35-2-2.77-.25-2.67,2.86-2.67,2.86l-.31-1s0-1.64-3-1.51-1.28,2.76-1.28,2.76l1.06,1.13-1.55-.41s-2.92-.59-3.77.79,1.91,2.13,1.91,2.13h2.61l-1.75.63s-1.49.76-1.49,2,3.62.76,3.62.76a3.47,3.47,0,0,0,1.91-1.13l.43.88a2.32,2.32,0,0,0,2.14,1.4c1.69.1,3.4-1,3.18-2l-.63-1,1.7.63a13.25,13.25,0,0,0,3.41.25c1.7-.12,4-1.39,1.88-2.77A5.18,5.18,0,0,0,963.53,497.7Z"/><path class="cls-17" d="M1025,523.78s3.83-.13,3.19-2.27-4.37-.69-4.37-.69l-1.7,1,.92-1.3a.81.81,0,0,0,.16-.43c0-.54-.18-1.84-2.36-2-2.77-.25-2.67,2.86-2.67,2.86l-.31-1s0-1.63-3-1.5-1.28,2.76-1.28,2.76l1.07,1.13-1.55-.41s-2.93-.59-3.78.79,1.92,2.13,1.92,2.13h2.6l-1.75.63s-1.49.75-1.49,2,3.62.75,3.62.75a3.49,3.49,0,0,0,1.92-1.13l.42.88a2.33,2.33,0,0,0,2.14,1.41c1.7.1,3.4-1,3.19-2l-.64-1,1.7.63a13.31,13.31,0,0,0,3.41.25c1.7-.13,4-1.39,1.88-2.77A5.16,5.16,0,0,0,1025,523.78Z"/><path class="cls-17" d="M895.51,502.8s3.84-.12,3.2-2.26-4.37-.69-4.37-.69l-1.7,1,.92-1.31a.74.74,0,0,0,.15-.42c0-.55-.18-1.84-2.35-2-2.77-.25-2.67,2.86-2.67,2.86l-.31-1s0-1.63-3-1.5-1.27,2.76-1.27,2.76l1.06,1.13-1.55-.41s-2.92-.6-3.77.79,1.91,2.13,1.91,2.13h2.61l-1.75.63s-1.5.75-1.5,2,3.63.75,3.63.75a3.47,3.47,0,0,0,1.91-1.13l.43.88a2.33,2.33,0,0,0,2.14,1.41c1.69.1,3.4-1,3.18-2l-.64-1,1.71.63a13.78,13.78,0,0,0,3.41.25c1.7-.13,4-1.39,1.88-2.77A5.14,5.14,0,0,0,895.51,502.8Z"/><path class="cls-17" d="M1004.92,456.13s4.48-.17,3.74-3.05-5.11-.94-5.11-.94l-2,1.36,1.08-1.76a1.08,1.08,0,0,0,.17-.57c0-.74-.2-2.49-2.75-2.76-3.24-.34-3.12,3.86-3.12,3.86l-.36-1.31s0-2.21-3.49-2-1.5,3.73-1.5,3.73l1.25,1.53-1.81-.56s-3.42-.8-4.42,1.07,2.24,2.88,2.24,2.88h3l-2,.85a3.56,3.56,0,0,0-1.74,2.71c0,1.69,4.23,1,4.23,1a3.89,3.89,0,0,0,2.24-1.52l.5,1.19a2.82,2.82,0,0,0,2.5,1.89c2,.14,4-1.39,3.73-2.74l-.75-1.36,2,.85a13.73,13.73,0,0,0,4,.34c2-.17,4.65-1.88,2.2-3.74A5.42,5.42,0,0,0,1004.92,456.13Z"/><path class="cls-17" d="M978.19,523s3.83-.12,3.19-2.26S977,520,977,520l-1.71,1,.93-1.3a.82.82,0,0,0,.15-.42c0-.55-.18-1.85-2.35-2-2.77-.25-2.67,2.85-2.67,2.85l-.32-1s0-1.63-3-1.51-1.28,2.77-1.28,2.77l1.07,1.13-1.55-.42s-2.92-.59-3.78.79,1.92,2.14,1.92,2.14h2.6l-1.75.63s-1.49.75-1.49,2,3.62.75,3.62.75a3.49,3.49,0,0,0,1.92-1.13l.43.88a2.31,2.31,0,0,0,2.13,1.4c1.7.11,3.4-1,3.19-2l-.64-1,1.71.62a13.47,13.47,0,0,0,3.4.26c1.71-.13,4-1.39,1.89-2.77A5.17,5.17,0,0,0,978.19,523Z"/><path class="cls-17" d="M934,493.37s4.7-.16,3.92-2.9-5.35-.88-5.35-.88l-2.09,1.29,1.13-1.67a1,1,0,0,0,.18-.54c0-.7-.21-2.37-2.88-2.62-3.4-.32-3.28,3.66-3.28,3.66l-.38-1.25s0-2.09-3.66-1.93-1.56,3.54-1.56,3.54l1.3,1.45-1.9-.53s-3.58-.76-4.63,1,2.35,2.73,2.35,2.73h3.19l-2.14.81s-1.83,1-1.83,2.57,4.44,1,4.44,1a4.22,4.22,0,0,0,2.35-1.44l.52,1.12a2.89,2.89,0,0,0,2.63,1.8c2.08.13,4.17-1.31,3.9-2.6l-.78-1.29,2.09.81a15.92,15.92,0,0,0,4.18.32c2.09-.16,4.88-1.78,2.31-3.54A6.17,6.17,0,0,0,934,493.37Z"/><path class="cls-17" d="M940.36,475s3.71-.14,3.09-2.52-4.22-.77-4.22-.77l-1.65,1.12.89-1.45a.93.93,0,0,0,.15-.47c0-.61-.17-2.05-2.27-2.27-2.68-.28-2.59,3.18-2.59,3.18l-.3-1.09s0-1.81-2.88-1.67-1.24,3.07-1.24,3.07l1,1.26-1.5-.46s-2.82-.66-3.65.88,1.86,2.37,1.86,2.37h2.51l-1.69.7a3,3,0,0,0-1.44,2.24c0,1.39,3.5.83,3.5.83a3.2,3.2,0,0,0,1.85-1.25l.42,1a2.32,2.32,0,0,0,2.06,1.56c1.64.11,3.29-1.15,3.08-2.26l-.61-1.12,1.64.7a11.38,11.38,0,0,0,3.3.28c1.65-.14,3.85-1.55,1.82-3.08A4.52,4.52,0,0,0,940.36,475Z"/><path class="cls-17" d="M1002.74,519s3.71-.14,3.09-2.52-4.22-.77-4.22-.77L1000,516.8l.9-1.45a.89.89,0,0,0,.14-.47c0-.6-.17-2-2.27-2.27-2.68-.28-2.58,3.18-2.58,3.18l-.3-1.08s0-1.82-2.89-1.68-1.23,3.07-1.23,3.07l1,1.26-1.5-.46s-2.83-.66-3.65.88,1.85,2.38,1.85,2.38H992l-1.69.69a3,3,0,0,0-1.45,2.24c0,1.4,3.5.84,3.5.84a3.28,3.28,0,0,0,1.86-1.26l.41,1a2.34,2.34,0,0,0,2.07,1.56c1.64.11,3.28-1.14,3.08-2.26l-.62-1.12,1.65.7a11.34,11.34,0,0,0,3.29.28c1.65-.14,3.85-1.55,1.82-3.08A4.52,4.52,0,0,0,1002.74,519Z"/><path class="cls-14" d="M972.89,484.27s6.77-.27,5.64-5-7.7-1.52-7.7-1.52l-3,2.21,1.63-2.87a1.92,1.92,0,0,0,.27-.92c0-1.21-.31-4.06-4.15-4.49-4.89-.56-4.72,6.28-4.72,6.28l-.55-2.14s0-3.59-5.26-3.32-2.25,6.08-2.25,6.08l1.88,2.48-2.74-.91s-5.15-1.3-6.66,1.74,3.38,4.69,3.38,4.69h4.59L950.16,488s-2.63,1.66-2.63,4.42,6.39,1.65,6.39,1.65a5.93,5.93,0,0,0,3.38-2.48l.75,1.93a4.37,4.37,0,0,0,3.77,3.09c3,.22,6-2.26,5.62-4.47l-1.12-2.21,3,1.38a19.18,19.18,0,0,0,6,.55c3-.27,7-3.05,3.32-6.08A7.85,7.85,0,0,0,972.89,484.27Z"/><path class="cls-14" d="M1041.06,509.24s6.77-.27,5.64-5-7.7-1.52-7.7-1.52l-3,2.21,1.63-2.87a1.92,1.92,0,0,0,.27-.92c0-1.21-.32-4.06-4.16-4.49-4.88-.56-4.71,6.28-4.71,6.28l-.55-2.14s0-3.59-5.26-3.32-2.25,6.08-2.25,6.08l1.88,2.48-2.74-.91s-5.16-1.3-6.66,1.74,3.38,4.69,3.38,4.69h4.59l-3.08,1.38s-2.63,1.66-2.63,4.42,6.38,1.65,6.38,1.65a5.93,5.93,0,0,0,3.39-2.48l.75,1.93a4.37,4.37,0,0,0,3.77,3.09c3,.22,6-2.26,5.62-4.47l-1.12-2.21,3,1.38a19.18,19.18,0,0,0,6,.55c3-.27,7-3.05,3.32-6.08A7.85,7.85,0,0,0,1041.06,509.24Z"/><path class="cls-14" d="M918.91,480.68s5.59-.22,4.66-4-6.37-1.23-6.37-1.23l-2.48,1.79,1.34-2.32a1.6,1.6,0,0,0,.23-.75c0-1-.26-3.29-3.43-3.64-4-.45-3.9,5.09-3.9,5.09l-.45-1.73s0-2.91-4.35-2.69-1.86,4.92-1.86,4.92l1.55,2-2.26-.74s-4.26-1.05-5.5,1.41,2.8,3.8,2.8,3.8h3.79l-2.55,1.12a4.71,4.71,0,0,0-2.18,3.58c0,2.24,5.28,1.34,5.28,1.34a5,5,0,0,0,2.8-2l.62,1.56a3.56,3.56,0,0,0,3.11,2.5c2.48.19,5-1.82,4.65-3.61l-.93-1.79,2.48,1.11a15.91,15.91,0,0,0,5,.45c2.48-.22,5.8-2.48,2.74-4.93A6.51,6.51,0,0,0,918.91,480.68Z"/><path class="cls-14" d="M984.92,458.47s6.76-.28,5.64-5-7.71-1.52-7.71-1.52l-3,2.21,1.62-2.86a2,2,0,0,0,.27-.93c0-1.2-.31-4.06-4.15-4.49-4.88-.55-4.71,6.28-4.71,6.28l-.55-2.14s0-3.59-5.26-3.31-2.26,6.07-2.26,6.07l1.88,2.48-2.73-.9s-5.16-1.3-6.66,1.73,3.38,4.69,3.38,4.69h4.59l-3.09,1.38s-2.63,1.66-2.63,4.42,6.39,1.66,6.39,1.66a5.94,5.94,0,0,0,3.38-2.49l.76,1.93a4.36,4.36,0,0,0,3.77,3.09c3,.23,6-2.26,5.62-4.47l-1.13-2.2,3,1.38a19.49,19.49,0,0,0,6,.55c3-.28,7-3.06,3.32-6.08A7.76,7.76,0,0,0,984.92,458.47Z"/><path class="cls-18" d="M988.5,476.43s5.08-.23,4.23-4.06-5.79-1.24-5.79-1.24l-2.26,1.8,1.23-2.33a1.87,1.87,0,0,0,.2-.76,3.34,3.34,0,0,0-3.12-3.66c-3.67-.45-3.54,5.12-3.54,5.12l-.41-1.74s0-2.93-3.95-2.71-1.7,5-1.7,5l1.42,2-2.06-.74s-3.87-1.07-5,1.41,2.54,3.83,2.54,3.83h3.45l-2.32,1.13a4.78,4.78,0,0,0-2,3.6c0,2.25,4.8,1.35,4.8,1.35a4.47,4.47,0,0,0,2.54-2l.57,1.57a3.4,3.4,0,0,0,2.83,2.52c2.25.18,4.5-1.84,4.22-3.64l-.84-1.81,2.25,1.13a13.25,13.25,0,0,0,4.52.45c2.26-.22,5.27-2.49,2.49-5A5.53,5.53,0,0,0,988.5,476.43Z"/><path class="cls-18" d="M900.56,490.92s5.08-.23,4.23-4.06-5.79-1.24-5.79-1.24l-2.25,1.8,1.22-2.33a1.87,1.87,0,0,0,.2-.76,3.33,3.33,0,0,0-3.12-3.66c-3.67-.45-3.54,5.12-3.54,5.12l-.41-1.74s0-2.93-4-2.71-1.69,5-1.69,5l1.41,2-2.06-.74s-3.87-1.07-5,1.41,2.54,3.83,2.54,3.83h3.45L883.48,494a4.78,4.78,0,0,0-2,3.6c0,2.25,4.8,1.35,4.8,1.35a4.44,4.44,0,0,0,2.54-2l.57,1.57a3.4,3.4,0,0,0,2.83,2.52c2.25.18,4.51-1.84,4.22-3.64l-.84-1.81,2.26,1.13a13.17,13.17,0,0,0,4.51.45c2.26-.22,5.27-2.49,2.5-5A5.56,5.56,0,0,0,900.56,490.92Z"/><path class="cls-17" d="M1014.05,499.33s5.08-.22,4.23-4.05-5.78-1.24-5.78-1.24l-2.26,1.8,1.22-2.33a1.6,1.6,0,0,0,.2-.76,3.32,3.32,0,0,0-3.11-3.66c-3.67-.45-3.54,5.12-3.54,5.12l-.42-1.75s0-2.92-4-2.7-1.69,5-1.69,5l1.41,2-2.05-.74s-3.88-1.06-5,1.42,2.54,3.83,2.54,3.83h3.45L997,502.38a4.78,4.78,0,0,0-2,3.6c0,2.25,4.8,1.35,4.8,1.35a4.46,4.46,0,0,0,2.54-2l.56,1.58a3.42,3.42,0,0,0,2.83,2.52c2.25.18,4.51-1.84,4.23-3.65l-.85-1.8,2.26,1.13a13.51,13.51,0,0,0,4.51.45c2.26-.23,5.28-2.5,2.5-5A5.59,5.59,0,0,0,1014.05,499.33Z"/><path class="cls-17" d="M913.71,513.82s5.08-.22,4.23-4.05-5.78-1.24-5.78-1.24l-2.26,1.8,1.22-2.33a1.6,1.6,0,0,0,.2-.76,3.32,3.32,0,0,0-3.11-3.66c-3.67-.45-3.54,5.12-3.54,5.12l-.42-1.75s0-2.92-4-2.7-1.69,5-1.69,5l1.41,2-2-.74s-3.88-1.06-5,1.42,2.54,3.83,2.54,3.83H899l-2.32,1.13a4.78,4.78,0,0,0-2,3.6c0,2.25,4.8,1.35,4.8,1.35a4.46,4.46,0,0,0,2.54-2l.56,1.58a3.42,3.42,0,0,0,2.83,2.52c2.25.18,4.51-1.84,4.23-3.65l-.85-1.8,2.26,1.13a13.51,13.51,0,0,0,4.51.45c2.26-.23,5.28-2.49,2.5-5A5.59,5.59,0,0,0,913.71,513.82Z"/><path class="cls-16" d="M969.32,512.84s.38-2.6-.75-3.51a2.46,2.46,0,0,0-3.38.48,4.39,4.39,0,0,0-.38,1.65l-.69-.88s-1.94-1.6-3.44-.77a1.13,1.13,0,0,0-.38,1.93l1.13,1.38-1.13-.28s-3.38-.55-3.75,1.38a1.77,1.77,0,0,0,1.41,2.1,11.9,11.9,0,0,1,1.27.47l1.07.47h-.9a3.34,3.34,0,0,0-1.77.46c-.49.32-.87.8-.44,1.49a2.37,2.37,0,0,0,2.22,1.1,2.41,2.41,0,0,1,.38,0l2,0v.48a2,2,0,0,0,1.34,1.75c.17.08.35.15.56.23,1.5.55,2.25-1.93,2.25-1.93l.75.82a3.23,3.23,0,0,0,2.63.83,1.47,1.47,0,0,0,1.14-1.39,2,2,0,0,0-.69-1.74l-.18-.16h1.29s3,.26,3.33-.85-1.13-1.93-1.13-1.93l-1.15-.57.78-.53s1.62-1,1.56-1.74a1.63,1.63,0,0,0-.81-1.58c-.75-.55-4.14.83-4.14.83"/><path class="cls-16" d="M965.94,454.88s.38-2.6-.75-3.51a2.46,2.46,0,0,0-3.38.47,4.46,4.46,0,0,0-.38,1.66l-.7-.88s-1.93-1.6-3.43-.78a1.14,1.14,0,0,0-.38,1.94l1.13,1.38-1.13-.28s-3.38-.55-3.76,1.38a1.78,1.78,0,0,0,1.42,2.1c.44.14.87.29,1.27.46l1.07.48H956a3.3,3.3,0,0,0-1.76.46c-.49.32-.87.8-.44,1.48a2.36,2.36,0,0,0,2.22,1.11l.38,0,2,0v.48a2,2,0,0,0,1.34,1.75l.55.23c1.51.55,2.26-1.94,2.26-1.94l.75.83a3.23,3.23,0,0,0,2.63.83,1.47,1.47,0,0,0,1.14-1.39,2,2,0,0,0-.69-1.74l-.18-.17h1.29s3,.26,3.33-.84-1.13-1.93-1.13-1.93l-1.15-.57.77-.54s1.63-1,1.57-1.73a1.62,1.62,0,0,0-.81-1.58c-.76-.55-4.14.83-4.14.83"/><path class="cls-16" d="M984,461.78s.38-2.6-.75-3.51a2.46,2.46,0,0,0-3.38.47,4.46,4.46,0,0,0-.38,1.66l-.7-.88s-1.93-1.6-3.43-.78a1.14,1.14,0,0,0-.38,1.94l1.13,1.38-1.13-.28s-3.38-.55-3.76,1.38a1.78,1.78,0,0,0,1.42,2.1c.44.14.86.29,1.27.46l1.07.48h-.91a3.3,3.3,0,0,0-1.76.46c-.49.32-.87.8-.44,1.48a2.36,2.36,0,0,0,2.22,1.11l.38,0,2,0v.48a2,2,0,0,0,1.34,1.75c.16.08.35.15.55.23,1.51.55,2.26-1.94,2.26-1.94l.75.83a3.23,3.23,0,0,0,2.63.83,1.45,1.45,0,0,0,1.13-1.39,2,2,0,0,0-.69-1.74l-.17-.17h1.29s3,.26,3.33-.84-1.13-1.93-1.13-1.93l-1.16-.57.78-.54s1.63-1,1.57-1.73a1.61,1.61,0,0,0-.82-1.58c-.75-.55-4.13.83-4.13.83"/><path class="cls-16" d="M1014.42,457.36s.38-2.6-.75-3.5a2.45,2.45,0,0,0-3.38.47,4.43,4.43,0,0,0-.38,1.65l-.7-.88s-1.93-1.6-3.43-.77a1.13,1.13,0,0,0-.38,1.93l1.13,1.38-1.13-.28s-3.38-.55-3.76,1.38a1.78,1.78,0,0,0,1.42,2.11,10.64,10.64,0,0,1,1.27.46l1.07.47h-.91a3.3,3.3,0,0,0-1.76.46c-.49.32-.87.81-.44,1.49a2.37,2.37,0,0,0,2.22,1.1h.38l2,0v.48a2.05,2.05,0,0,0,1.34,1.76l.55.22c1.51.55,2.26-1.93,2.26-1.93l.75.83a3.24,3.24,0,0,0,2.63.82,1.44,1.44,0,0,0,1.13-1.38,2,2,0,0,0-.69-1.75l-.17-.16H1016s2.95.26,3.33-.85-1.13-1.93-1.13-1.93l-1.16-.57.78-.53s1.63-1,1.57-1.74a1.6,1.6,0,0,0-.82-1.57c-.75-.56-4.13.82-4.13.82"/><path class="cls-16" d="M953.16,468.68s.38-2.6-.75-3.51a2.46,2.46,0,0,0-3.38.47,4.46,4.46,0,0,0-.38,1.66l-.69-.88s-1.94-1.6-3.44-.78a1.14,1.14,0,0,0-.38,1.94l1.13,1.38-1.13-.28s-3.38-.55-3.75,1.38a1.77,1.77,0,0,0,1.41,2.1c.44.14.87.29,1.27.46l1.07.48h-.9a3.34,3.34,0,0,0-1.77.46c-.49.32-.87.8-.44,1.48a2.37,2.37,0,0,0,2.23,1.11,2.29,2.29,0,0,1,.37,0l2,0v.48a2,2,0,0,0,1.34,1.75c.17.08.35.15.56.23,1.5.55,2.25-1.94,2.25-1.94l.75.83a3.23,3.23,0,0,0,2.63.83A1.47,1.47,0,0,0,954.3,477a2,2,0,0,0-.69-1.74l-.18-.17h1.29s2.95.26,3.33-.84-1.13-1.93-1.13-1.93l-1.15-.57.78-.54s1.62-1,1.56-1.73a1.62,1.62,0,0,0-.81-1.58c-.75-.55-4.14.83-4.14.83"/><path class="cls-14" d="M1011.41,480s.59-3.53-1.17-4.76-4.68-.48-5.26.64a5.37,5.37,0,0,0-.59,2.25l-1.08-1.2s-3-2.17-5.35-1.05-.59,2.62-.59,2.62l1.76,1.87-1.76-.37s-5.26-.75-5.85,1.87c-.41,1.85,1.21,2.58,2.21,2.85.67.19,1.34.39,2,.63l1.67.64H996a5.78,5.78,0,0,0-2.75.63c-.76.43-1.36,1.09-.69,2a3.94,3.94,0,0,0,3.47,1.49,5.61,5.61,0,0,1,.58,0l3.1,0v.66a2.88,2.88,0,0,0,2.1,2.38c.25.1.54.2.86.3,2.34.75,3.51-2.62,3.51-2.62l1.17,1.12a5.48,5.48,0,0,0,4.09,1.13,2.07,2.07,0,0,0,1.77-1.88,2.57,2.57,0,0,0-1.07-2.37l-.28-.22h2s4.6.35,5.18-1.15-1.75-2.62-1.75-2.62l-1.8-.77,1.21-.73s2.53-1.34,2.44-2.35a2.14,2.14,0,0,0-1.27-2.14c-1.17-.75-6.44,1.12-6.44,1.12"/><path class="cls-15" d="M1000.52,469.25s.58-3.53-1.17-4.77-4.69-.48-5.27.65a5.34,5.34,0,0,0-.59,2.24l-1.08-1.2s-3-2.17-5.35-1-.59,2.62-.59,2.62l1.76,1.87-1.76-.37s-5.26-.75-5.85,1.87c-.41,1.85,1.21,2.58,2.21,2.85a20.78,20.78,0,0,1,2,.63l1.66.64h-1.41a5.69,5.69,0,0,0-2.75.63c-.76.43-1.35,1.09-.69,2a4,4,0,0,0,3.47,1.5l.58,0,3.1,0,0,.65a2.84,2.84,0,0,0,2.09,2.38c.25.1.54.21.86.31,2.34.75,3.51-2.62,3.51-2.62l1.17,1.12a5.48,5.48,0,0,0,4.1,1.12,2.06,2.06,0,0,0,1.76-1.88,2.56,2.56,0,0,0-1.07-2.36l-.28-.23h2s4.6.35,5.18-1.14-1.75-2.63-1.75-2.63l-1.8-.77,1.21-.72s2.53-1.34,2.44-2.36a2.14,2.14,0,0,0-1.27-2.14c-1.17-.75-6.43,1.13-6.43,1.13"/><path class="cls-15" d="M917.09,498.5s.58-3.53-1.17-4.76-4.68-.48-5.27.64a5.48,5.48,0,0,0-.58,2.25l-1.09-1.2s-3-2.17-5.35-1.05S903,497,903,497l1.76,1.88L903,498.5s-5.26-.75-5.85,1.88c-.41,1.84,1.22,2.58,2.21,2.85a20.74,20.74,0,0,1,2,.62l1.66.64h-1.41a5.74,5.74,0,0,0-2.74.63c-.77.43-1.36,1.09-.69,2a3.93,3.93,0,0,0,3.46,1.5,5.72,5.72,0,0,1,.59,0l3.09,0,0,.65a2.85,2.85,0,0,0,2.09,2.38c.26.1.54.2.86.3,2.34.75,3.51-2.62,3.51-2.62l1.17,1.13a5.53,5.53,0,0,0,4.1,1.12,2.06,2.06,0,0,0,1.76-1.88,2.57,2.57,0,0,0-1.07-2.37l-.27-.22h2s4.6.35,5.18-1.15-1.75-2.62-1.75-2.62l-1.8-.77,1.21-.73s2.53-1.33,2.44-2.35a2.14,2.14,0,0,0-1.27-2.14c-1.17-.75-6.43,1.12-6.43,1.12"/><path class="cls-18" d="M968.57,461.24s.59-3.53-1.17-4.76-4.68-.48-5.26.64a5.4,5.4,0,0,0-.59,2.25l-1.09-1.2s-3-2.17-5.35-1.05-.58,2.62-.58,2.62l1.75,1.88-1.75-.38s-5.27-.75-5.85,1.87c-.41,1.85,1.21,2.58,2.2,2.86a19.89,19.89,0,0,1,2,.62l1.67.64h-1.41a5.78,5.78,0,0,0-2.75.63c-.76.43-1.36,1.09-.69,2a3.94,3.94,0,0,0,3.46,1.5,5.82,5.82,0,0,1,.59,0l3.1,0V472a2.87,2.87,0,0,0,2.09,2.38q.39.15.87.3c2.34.75,3.51-2.62,3.51-2.62l1.17,1.13a5.49,5.49,0,0,0,4.09,1.12,2.07,2.07,0,0,0,1.77-1.88,2.55,2.55,0,0,0-1.08-2.37l-.27-.22h2s4.59.35,5.18-1.15-1.76-2.62-1.76-2.62l-1.79-.77,1.21-.73s2.53-1.33,2.43-2.35a2.11,2.11,0,0,0-1.26-2.14c-1.17-.75-6.44,1.12-6.44,1.12"/><path class="cls-18" d="M946.78,455.72s.58-3.53-1.17-4.76-4.69-.48-5.27.64a5.4,5.4,0,0,0-.59,2.25l-1.08-1.2s-3-2.17-5.35-1-.59,2.62-.59,2.62l1.76,1.88-1.76-.38s-5.26-.75-5.85,1.87c-.41,1.85,1.21,2.58,2.21,2.86a20.74,20.74,0,0,1,2,.62l1.66.64h-1.41a5.81,5.81,0,0,0-2.75.63c-.76.43-1.35,1.09-.69,2a4,4,0,0,0,3.47,1.5,3.75,3.75,0,0,1,.58,0l3.1,0,0,.66a2.84,2.84,0,0,0,2.09,2.38c.25.1.54.2.86.3,2.34.75,3.51-2.62,3.51-2.62l1.17,1.13a5.53,5.53,0,0,0,4.1,1.12,2.06,2.06,0,0,0,1.76-1.88,2.57,2.57,0,0,0-1.07-2.37l-.28-.22h2s4.6.35,5.18-1.15-1.75-2.62-1.75-2.62l-1.8-.77,1.21-.73s2.53-1.34,2.44-2.35a2.14,2.14,0,0,0-1.27-2.14c-1.17-.75-6.43,1.12-6.43,1.12"/><path class="cls-19" d="M990.12,513.21s.49-3-1-4.08-3.92-.41-4.41.55a4.81,4.81,0,0,0-.48,1.93l-.91-1s-2.52-1.86-4.48-.9-.49,2.25-.49,2.25l1.47,1.6-1.47-.32s-4.41-.64-4.9,1.6c-.35,1.59,1,2.21,1.85,2.44a16.77,16.77,0,0,1,1.65.54l1.4.55h-1.18a4.74,4.74,0,0,0-2.3.54c-.64.37-1.14.93-.58,1.72a3.26,3.26,0,0,0,2.9,1.29l.49,0,2.59,0v.57a2.43,2.43,0,0,0,1.75,2,7.63,7.63,0,0,0,.73.26c2,.65,2.93-2.24,2.93-2.24l1,1a4.54,4.54,0,0,0,3.43,1,1.75,1.75,0,0,0,1.48-1.61,2.2,2.2,0,0,0-.9-2l-.23-.2h1.68s3.85.31,4.34-1-1.47-2.24-1.47-2.24l-1.5-.66,1-.62s2.12-1.15,2-2a1.82,1.82,0,0,0-1.06-1.83c-1-.64-5.39,1-5.39,1"/><path class="cls-19" d="M912.71,485.61s.49-3-1-4.08-3.92-.41-4.41.55a4.73,4.73,0,0,0-.49,1.93l-.91-1s-2.52-1.86-4.48-.9-.49,2.25-.49,2.25l1.47,1.6-1.47-.32s-4.41-.64-4.9,1.6c-.34,1.59,1,2.21,1.85,2.44a17,17,0,0,1,1.66.54l1.39.55h-1.18a4.63,4.63,0,0,0-2.3.54c-.64.37-1.14.93-.58,1.72a3.27,3.27,0,0,0,2.9,1.29,4.1,4.1,0,0,1,.49,0l2.6,0v.56a2.43,2.43,0,0,0,1.75,2,6.55,6.55,0,0,0,.72.26c2,.65,2.94-2.24,2.94-2.24l1,1a4.54,4.54,0,0,0,3.43,1,1.74,1.74,0,0,0,1.47-1.61,2.18,2.18,0,0,0-.9-2l-.22-.2h1.68s3.84.31,4.33-1-1.47-2.24-1.47-2.24l-1.5-.66,1-.63s2.12-1.14,2-2a1.82,1.82,0,0,0-1.06-1.83c-1-.64-5.38,1-5.38,1"/><path class="cls-19" d="M1027.22,491.41s.49-3-1-4.08-3.92-.41-4.41.55a4.7,4.7,0,0,0-.49,1.92l-.91-1s-2.52-1.86-4.48-.9-.49,2.24-.49,2.24l1.47,1.61-1.47-.32s-4.4-.64-4.89,1.6c-.35,1.58,1,2.21,1.84,2.44a17,17,0,0,1,1.66.54l1.39.55h-1.18a4.63,4.63,0,0,0-2.3.54c-.64.36-1.13.93-.58,1.72a3.23,3.23,0,0,0,2.9,1.28h.49l2.6,0v.56a2.44,2.44,0,0,0,1.75,2c.21.09.45.17.72.26,2,.64,2.94-2.24,2.94-2.24l1,1a4.54,4.54,0,0,0,3.43,1,1.74,1.74,0,0,0,1.47-1.61,2.22,2.22,0,0,0-.89-2l-.23-.19h1.68s3.84.3,4.33-1-1.47-2.24-1.47-2.24l-1.5-.66,1-.63s2.12-1.14,2-2a1.84,1.84,0,0,0-1.06-1.84c-1-.64-5.38,1-5.38,1"/><path class="cls-19" d="M1009.62,463.78s.63-3.75-1.27-5-5.09-.51-5.73.68a5.65,5.65,0,0,0-.63,2.38l-1.18-1.27s-3.27-2.3-5.82-1.11-.63,2.78-.63,2.78l1.9,2-1.9-.4s-5.73-.79-6.36,2c-.45,2,1.32,2.74,2.4,3,.73.2,1.46.41,2.15.67l1.81.68h-1.54a6.42,6.42,0,0,0-3,.66c-.83.46-1.48,1.16-.75,2.14a4.29,4.29,0,0,0,3.76,1.59l.64,0,3.37,0v.7a3.05,3.05,0,0,0,2.27,2.52c.28.11.59.22.94.33,2.54.79,3.82-2.78,3.82-2.78l1.27,1.19a6.05,6.05,0,0,0,4.45,1.19,2.22,2.22,0,0,0,1.92-2,2.7,2.7,0,0,0-1.17-2.51l-.3-.24h2.18s5,.38,5.64-1.21S1016,469,1016,469l-2-.82,1.32-.77s2.75-1.42,2.65-2.5a2.23,2.23,0,0,0-1.38-2.27c-1.27-.8-7,1.19-7,1.19"/><path class="cls-19" d="M930.22,500.22s.5-2.67-1-3.6-4-.36-4.5.49a3.65,3.65,0,0,0-.51,1.7l-.93-.91s-2.57-1.64-4.57-.79-.51,2-.51,2l1.51,1.41-1.51-.28s-4.5-.56-5,1.42c-.36,1.39,1,1.95,1.89,2.15a17.44,17.44,0,0,1,1.69.48l1.42.48H917a5.42,5.42,0,0,0-2.35.48c-.66.32-1.17.82-.59,1.52a3.6,3.6,0,0,0,3,1.13h.5l2.65,0v.49c0,.74.69,1.42,1.79,1.8.22.08.47.16.74.23,2,.57,3-2,3-2l1,.85a5.11,5.11,0,0,0,3.5.85,1.64,1.64,0,0,0,1.51-1.42,1.84,1.84,0,0,0-.91-1.79l-.24-.17h1.72s3.93.27,4.43-.87-1.5-2-1.5-2l-1.54-.58,1-.55s2.16-1,2.08-1.78-.08-1.05-1.08-1.62-5.51.85-5.51.85"/><path class="cls-14" d="M998.79,503.26s.4-2.67-.81-3.6-3.21-.37-3.62.48a4.46,4.46,0,0,0-.4,1.7l-.75-.9s-2.06-1.65-3.67-.8a1.15,1.15,0,0,0-.41,2l1.21,1.41-1.21-.28s-3.62-.57-4,1.41a1.84,1.84,0,0,0,1.52,2.16c.46.14.92.29,1.36.47l1.14.49h-1a3.66,3.66,0,0,0-1.89.47c-.52.33-.93.83-.47,1.53a2.59,2.59,0,0,0,2.38,1.13l.4,0,2.13,0v.5a2.13,2.13,0,0,0,1.44,1.8l.59.23c1.61.57,2.42-2,2.42-2l.8.85a3.58,3.58,0,0,0,2.82.85,1.52,1.52,0,0,0,1.21-1.43,2,2,0,0,0-.74-1.78l-.18-.17h1.38s3.16.26,3.56-.87-1.21-2-1.21-2l-1.23-.58.83-.55s1.74-1,1.67-1.78a1.62,1.62,0,0,0-.87-1.62c-.8-.57-4.42.85-4.42.85"/><path class="cls-14" d="M901.08,506.85s.4-2.67-.8-3.6-3.22-.37-3.63.48a4.46,4.46,0,0,0-.4,1.7l-.75-.91s-2.06-1.64-3.67-.79-.41,2-.41,2l1.21,1.42-1.21-.28s-3.62-.57-4,1.41a1.84,1.84,0,0,0,1.52,2.16c.46.14.92.29,1.36.47l1.14.49h-1a3.66,3.66,0,0,0-1.89.47c-.52.32-.93.82-.47,1.52a2.58,2.58,0,0,0,2.38,1.14l.4,0,2.13,0v.5a2.13,2.13,0,0,0,1.44,1.8l.6.23c1.6.56,2.41-2,2.41-2l.8.84a3.54,3.54,0,0,0,2.82.85,1.5,1.5,0,0,0,1.21-1.42,2,2,0,0,0-.73-1.79l-.19-.17h1.38s3.16.27,3.56-.86-1.21-2-1.21-2l-1.23-.59.83-.55s1.74-1,1.67-1.78a1.62,1.62,0,0,0-.86-1.61c-.81-.57-4.43.85-4.43.85"/><path class="cls-14" d="M933,464.34s.41-2.67-.8-3.6-3.22-.36-3.62.49a4.46,4.46,0,0,0-.4,1.7l-.75-.91s-2.07-1.64-3.68-.79-.4,2-.4,2l1.2,1.41-1.2-.28s-3.62-.57-4,1.42a1.83,1.83,0,0,0,1.52,2.15,11.48,11.48,0,0,1,1.36.48l1.15.48h-1a3.76,3.76,0,0,0-1.89.47c-.53.33-.94.83-.48,1.53a2.61,2.61,0,0,0,2.39,1.13h.4l2.13,0v.49a2.1,2.1,0,0,0,1.44,1.8,4.86,4.86,0,0,0,.59.23c1.61.57,2.41-2,2.41-2l.81.85a3.55,3.55,0,0,0,2.81.85,1.53,1.53,0,0,0,1.22-1.42,2,2,0,0,0-.74-1.79l-.19-.17h1.38s3.16.27,3.56-.87-1.2-2-1.2-2l-1.24-.58.83-.55s1.74-1,1.68-1.78a1.66,1.66,0,0,0-.87-1.62c-.81-.56-4.43.85-4.43.85"/><path class="cls-16" d="M995.5,499s6.76-.28,5.64-5-7.71-1.52-7.71-1.52l-3,2.21,1.63-2.86a2,2,0,0,0,.27-.93c0-1.2-.31-4.06-4.15-4.49-4.89-.55-4.71,6.28-4.71,6.28l-.55-2.14s0-3.59-5.26-3.31-2.26,6.07-2.26,6.07l1.88,2.48-2.73-.9s-5.16-1.3-6.66,1.73,3.38,4.69,3.38,4.69h4.59l-3.09,1.38s-2.63,1.66-2.63,4.42,6.39,1.66,6.39,1.66a6,6,0,0,0,3.38-2.49l.75,1.93a4.38,4.38,0,0,0,3.78,3.09c3,.23,6-2.26,5.62-4.47l-1.13-2.2,3,1.38a19.43,19.43,0,0,0,6,.55c3-.28,7-3.06,3.32-6.08A7.76,7.76,0,0,0,995.5,499Z"/><path class="cls-16" d="M905,496.18s3.42-.13,2.85-2.27-3.9-.69-3.9-.69l-1.51,1,.82-1.3a.86.86,0,0,0,.13-.43c0-.54-.15-1.85-2.09-2-2.47-.26-2.38,2.86-2.38,2.86l-.28-1s0-1.63-2.66-1.51-1.14,2.77-1.14,2.77l1,1.14-1.38-.42s-2.61-.59-3.37.8,1.71,2.14,1.71,2.14H895l-1.56.63a2.65,2.65,0,0,0-1.33,2c0,1.26,3.23.76,3.23.76a3,3,0,0,0,1.71-1.14l.38.89a2.11,2.11,0,0,0,1.9,1.4c1.52.11,3-1,2.85-2l-.57-1,1.52.63a10.5,10.5,0,0,0,3,.25c1.52-.13,3.55-1.39,1.68-2.78A4.25,4.25,0,0,0,905,496.18Z"/><path class="cls-12" d="M1925.25,628.78h-20.36s2.73-32.33,0-45.11-9.78-45.94-17.29-55.42l5.34-3.16s16.66,31.06,22.28,49.22c0,0,7.62-38,19.06-51.89v11.85s-15.85,37.14-12,50Z"/><path class="cls-12" d="M1924.54,618.3a69.73,69.73,0,0,1-19,0l-.7,10.48h20.36Z"/><path class="cls-13" d="M1924.07,611.27a51.21,51.21,0,0,1-18.18.46l-.3,6.57s10.31,1.49,19,0Z"/><path class="cls-12" d="M1923.36,600.81s-10,.7-17.26-1.12l-.21,12s10.67,1.9,18.18-.46Z"/><path class="cls-13" d="M1922.7,591.07a95.35,95.35,0,0,1-16.81,0l.21,8.62a55,55,0,0,0,17.26,1.12Z"/><path class="cls-12" d="M1922.24,584.31s-12.11.17-17.35-.64c0,0,.8,4.56,1,7.4,0,0,9.14,1.9,16.81,0Z"/><path class="cls-13" d="M1921.65,579.83l-17.8-1,1,4.86,17.35.64A16,16,0,0,1,1921.65,579.83Z"/><path class="cls-12" d="M1913,569h-11.38l2.19,9.77,17.8,1s-.2-6.71,1-10.79h-6.32l-1.16,5.27-1.8-5.27Z"/><polygon class="cls-13" points="1922.7 569.04 1923.74 565.32 1917.27 565.32 1916.38 569.04 1922.7 569.04"/><polygon class="cls-12" points="1924.14 563.7 1923.74 565.32 1917.27 565.32 1917.68 563.7 1924.14 563.7"/><polygon class="cls-13" points="1925.67 558.2 1924.14 563.7 1917.68 563.7 1919.22 557.89 1925.67 558.2"/><polygon class="cls-12" points="1928.59 549.2 1921.81 549.2 1919.22 557.89 1925.67 558.2 1928.59 549.2"/><polygon class="cls-13" points="1911.85 564.94 1900.68 564.94 1901.66 569.04 1913.42 569.04 1911.85 564.94"/><polygon class="cls-13" points="1908.35 556.62 1898.56 556.62 1900.68 564.94 1911.85 564.94 1908.35 556.62"/><polygon class="cls-12" points="1904.54 548.28 1896.18 548.28 1898.56 556.62 1908.35 556.62 1904.54 548.28"/><polygon class="cls-13" points="1893.9 541.31 1900.97 540.85 1904.54 548.28 1896.18 548.28 1893.9 541.31"/><polygon class="cls-12" points="1911.85 564.94 1900.68 564.94 1900.36 563.7 1911.16 563.31 1911.85 564.94"/><path class="cls-14" d="M1874,507.08s4.41-.26,3.68-4.73-5-1.45-5-1.45l-2,2.1,1.06-2.73a2.42,2.42,0,0,0,.17-.88c0-1.14-.2-3.87-2.7-4.28-3.19-.53-3.08,6-3.08,6l-.36-2s0-3.42-3.43-3.16-1.47,5.79-1.47,5.79l1.22,2.37-1.78-.87S1857,502,1856,504.85s2.21,4.47,2.21,4.47h3l-2,1.31a6.07,6.07,0,0,0-1.72,4.21c0,2.63,4.17,1.58,4.17,1.58a4.2,4.2,0,0,0,2.21-2.37l.49,1.84s.51,2.73,2.46,3,3.92-2.16,3.67-4.26l-.73-2.11,2,1.32a8.84,8.84,0,0,0,3.92.53c2-.27,4.58-2.92,2.17-5.8A4.16,4.16,0,0,0,1874,507.08Z"/><path class="cls-15" d="M1878.09,492.89s.38-3.37-.77-4.54a2.17,2.17,0,0,0-3.44.61,7.21,7.21,0,0,0-.38,2.14l-.71-1.14s-2-2.07-3.49-1a1.67,1.67,0,0,0-.38,2.5l1.15,1.78-1.15-.35s-3.44-.72-3.82,1.78a2.29,2.29,0,0,0,1.44,2.72,11.65,11.65,0,0,1,1.29.6l1.09.61H1868a2.77,2.77,0,0,0-1.79.6,1.45,1.45,0,0,0-.45,1.92,2.24,2.24,0,0,0,2.26,1.43,2.36,2.36,0,0,1,.38,0l2,0v.62a2.65,2.65,0,0,0,1.37,2.27l.56.29c1.52.71,2.29-2.5,2.29-2.5l.76,1.07a2.94,2.94,0,0,0,2.68,1.07c.78-.18,1.06-1,1.15-1.79a3,3,0,0,0-.7-2.26l-.18-.21h1.31s3,.34,3.38-1.09-1.15-2.5-1.15-2.5l-1.17-.74.79-.69s1.65-1.27,1.59-2.24a2.3,2.3,0,0,0-.82-2c-.77-.72-4.2,1.07-4.2,1.07"/><path class="cls-17" d="M1889.13,484.6a3.06,3.06,0,0,0,2.76-3.86c-.55-3.65-3.78-1.18-3.78-1.18l-1.47,1.72.8-2.23a2.48,2.48,0,0,0,.13-.72c0-.94-.15-3.16-2-3.49-2.39-.43-2.31,4.88-2.31,4.88l-.27-1.66s0-2.8-2.57-2.58-1.11,4.72-1.11,4.72l.92,1.94-1.34-.71s-2.53-1-3.26,1.35,1.65,3.65,1.65,3.65h2.25L1878,487.5a5.15,5.15,0,0,0-1.29,3.44c0,2.14,3.13,1.29,3.13,1.29a3.26,3.26,0,0,0,1.66-1.94l.37,1.51s.38,2.22,1.85,2.4,2.94-1.76,2.75-3.48l-.55-1.71,1.48,1.07a6.2,6.2,0,0,0,2.94.43,2.88,2.88,0,0,0,1.63-4.73A3,3,0,0,0,1889.13,484.6Z"/><path class="cls-16" d="M1898.56,492.35s4.42-.26,3.68-4.74-5-1.44-5-1.44l-2,2.1,1.07-2.73a2.42,2.42,0,0,0,.17-.88c0-1.15-.2-3.87-2.71-4.28-3.19-.53-3.07,6-3.07,6l-.36-2a3.07,3.07,0,0,0-3.44-3.15c-3.43.26-1.47,5.79-1.47,5.79l1.23,2.36-1.79-.86s-3.36-1.24-4.34,1.65,2.21,4.47,2.21,4.47h3l-2,1.32a6.07,6.07,0,0,0-1.72,4.21c0,2.63,4.17,1.58,4.17,1.58a4.2,4.2,0,0,0,2.21-2.37l.49,1.84s.51,2.73,2.46,2.94,3.91-2.15,3.67-4.25l-.74-2.11,2,1.32a8.81,8.81,0,0,0,3.93.52c2-.26,4.58-2.91,2.17-5.79A4.16,4.16,0,0,0,1898.56,492.35Z"/><path class="cls-18" d="M1895.74,498.41s.39-3.36-.76-4.54a2.18,2.18,0,0,0-3.44.62,7.21,7.21,0,0,0-.38,2.14l-.71-1.15s-2-2.06-3.49-1a1.66,1.66,0,0,0-.38,2.49l1.14,1.79-1.14-.36s-3.44-.71-3.82,1.79a2.27,2.27,0,0,0,1.44,2.71,11.65,11.65,0,0,1,1.29.6l1.09.61h-.92a2.82,2.82,0,0,0-1.79.6,1.45,1.45,0,0,0-.45,1.92,2.24,2.24,0,0,0,2.26,1.43l.38,0,2,0v.62a2.65,2.65,0,0,0,1.36,2.27,5,5,0,0,0,.57.29c1.52.72,2.29-2.5,2.29-2.5l.76,1.08a3,3,0,0,0,2.67,1.07c.79-.19,1.07-1,1.16-1.8a3,3,0,0,0-.7-2.25l-.18-.22h1.31s3,.34,3.38-1.09-1.15-2.5-1.15-2.5l-1.17-.73.79-.69s1.65-1.28,1.59-2.25a2.31,2.31,0,0,0-.82-2c-.77-.71-4.21,1.07-4.21,1.07"/><path class="cls-16" d="M1895.9,532.47s3.7-.21,3.08-3.89-4.21-1.19-4.21-1.19l-1.64,1.73.89-2.24a2.26,2.26,0,0,0,.15-.73c0-.94-.17-3.17-2.27-3.51-2.67-.43-2.57,4.92-2.57,4.92l-.3-1.68a2.54,2.54,0,0,0-2.88-2.59c-2.87.21-1.23,4.75-1.23,4.75l1,2-1.49-.71s-2.82-1-3.64,1.36,1.84,3.67,1.84,3.67h2.51l-1.68,1.08a5,5,0,0,0-1.44,3.46c0,2.16,3.49,1.3,3.49,1.3a3.51,3.51,0,0,0,1.85-1.95l.41,1.51s.42,2.24,2.06,2.42,3.27-1.77,3.07-3.5l-.62-1.73L1894,538a7.65,7.65,0,0,0,3.29.43c1.64-.22,3.83-2.4,1.81-4.77A3.52,3.52,0,0,0,1895.9,532.47Z"/><path class="cls-17" d="M1911.56,531.68s4.42-.26,3.68-4.74-5-1.44-5-1.44l-2,2.1,1.07-2.73a2.92,2.92,0,0,0,.17-.88c0-1.15-.2-3.87-2.71-4.28-3.19-.53-3.07,6-3.07,6l-.36-2a3.08,3.08,0,0,0-3.44-3.16c-3.43.26-1.47,5.79-1.47,5.79l1.23,2.36-1.79-.86s-3.36-1.24-4.34,1.65,2.2,4.48,2.2,4.48h3l-2,1.31a6.07,6.07,0,0,0-1.72,4.21c0,2.63,4.17,1.58,4.17,1.58a4.2,4.2,0,0,0,2.21-2.37l.49,1.84s.5,2.73,2.46,2.94,3.91-2.15,3.67-4.25l-.74-2.11,2,1.32a8.81,8.81,0,0,0,3.93.52c2-.26,4.58-2.91,2.17-5.79A4.18,4.18,0,0,0,1911.56,531.68Z"/><path class="cls-19" d="M1907.38,496.14s.38-3.43-.74-4.62a2.08,2.08,0,0,0-3.37.62,7.65,7.65,0,0,0-.37,2.18l-.69-1.16s-1.92-2.11-3.42-1a1.74,1.74,0,0,0-.37,2.54l1.12,1.82-1.12-.36s-3.36-.73-3.74,1.81a2.36,2.36,0,0,0,1.41,2.77,9.75,9.75,0,0,1,1.26.61l1.07.62h-.9a2.71,2.71,0,0,0-1.76.61,1.52,1.52,0,0,0-.44,1.95,2.17,2.17,0,0,0,2.21,1.45,2.41,2.41,0,0,1,.38,0l2,0v.64a2.74,2.74,0,0,0,1.34,2.31l.55.29c1.49.73,2.24-2.54,2.24-2.54l.75,1.09a2.83,2.83,0,0,0,2.61,1.09c.77-.19,1-1,1.13-1.83a3.13,3.13,0,0,0-.69-2.29l-.17-.22h1.28s2.93.34,3.31-1.11a2.71,2.71,0,0,0-1.12-2.54l-1.15-.75.77-.71s1.62-1.29,1.56-2.28a2.37,2.37,0,0,0-.81-2.07c-.75-.73-4.11,1.09-4.11,1.09"/><path class="cls-18" d="M1910.27,512.81s3.79-.22,3.16-4-4.32-1.23-4.32-1.23l-1.68,1.79.91-2.32a1.93,1.93,0,0,0,.15-.75c0-1-.17-3.28-2.32-3.63-2.74-.45-2.64,5.08-2.64,5.08l-.31-1.73a2.62,2.62,0,0,0-3-2.68c-2.94.22-1.26,4.91-1.26,4.91l1,2-1.53-.73s-2.89-1.06-3.73,1.4,1.9,3.8,1.9,3.8h2.57l-1.73,1.12a5.12,5.12,0,0,0-1.48,3.57c0,2.24,3.58,1.34,3.58,1.34a3.53,3.53,0,0,0,1.9-2l.42,1.57s.43,2.31,2.11,2.49,3.36-1.82,3.15-3.61l-.63-1.79,1.68,1.12a7.72,7.72,0,0,0,3.37.45c1.68-.23,3.93-2.48,1.86-4.93A3.6,3.6,0,0,0,1910.27,512.81Z"/><path class="cls-18" d="M1879.86,522.94s3.79-.22,3.16-4-4.32-1.23-4.32-1.23l-1.68,1.79.91-2.32a2.13,2.13,0,0,0,.15-.75c0-1-.17-3.28-2.33-3.64-2.73-.44-2.63,5.09-2.63,5.09l-.31-1.73a2.63,2.63,0,0,0-3-2.69c-2.95.23-1.26,4.92-1.26,4.92l1.05,2-1.53-.73s-2.89-1.06-3.73,1.4,1.89,3.8,1.89,3.8h2.57l-1.73,1.12a5.13,5.13,0,0,0-1.47,3.57c0,2.24,3.58,1.34,3.58,1.34a3.53,3.53,0,0,0,1.89-2l.43,1.57s.43,2.31,2.11,2.49,3.36-1.82,3.15-3.61l-.63-1.79,1.68,1.12a7.59,7.59,0,0,0,3.37.44c1.68-.22,3.93-2.47,1.86-4.92A3.6,3.6,0,0,0,1879.86,522.94Z"/><path class="cls-18" d="M1926.28,521.81s4.41-.26,3.68-4.73-5-1.45-5-1.45l-2,2.11L1924,515a2.66,2.66,0,0,0,.18-.89c0-1.14-.21-3.86-2.71-4.28-3.19-.52-3.08,6-3.08,6l-.36-2s0-3.42-3.43-3.16-1.47,5.79-1.47,5.79l1.22,2.37-1.78-.87s-3.37-1.24-4.35,1.66,2.21,4.47,2.21,4.47h3l-2,1.32a6,6,0,0,0-1.72,4.21c0,2.63,4.17,1.57,4.17,1.57a4.12,4.12,0,0,0,2.21-2.36l.49,1.84s.51,2.72,2.46,2.94,3.92-2.15,3.67-4.26l-.73-2.1,2,1.31a8.84,8.84,0,0,0,3.92.53c2-.26,4.58-2.91,2.17-5.8A4.16,4.16,0,0,0,1926.28,521.81Z"/><path class="cls-17" d="M1917,515.27s2.5-.12,2.09-2.15-2.85-.66-2.85-.66l-1.11,1,.6-1.25a1.07,1.07,0,0,0,.1-.4,1.76,1.76,0,0,0-1.54-1.95c-1.81-.24-1.74,2.73-1.74,2.73l-.2-.93s0-1.56-1.95-1.44-.84,2.64-.84,2.64l.7,1.07-1-.39s-1.91-.56-2.47.75,1.26,2,1.26,2h1.69l-1.14.6a2.58,2.58,0,0,0-1,1.91c0,1.2,2.36.72,2.36.72a2.19,2.19,0,0,0,1.25-1.08l.28.84s.29,1.24,1.4,1.34a2,2,0,0,0,2.08-1.94l-.42-.95,1.11.59a6.12,6.12,0,0,0,2.23.24c1.11-.12,2.59-1.32,1.22-2.63A2.61,2.61,0,0,0,1917,515.27Z"/><path class="cls-17" d="M1872.59,520.14s2.5-.12,2.08-2.16-2.85-.65-2.85-.65l-1.11.95.6-1.24a.82.82,0,0,0,.1-.4,1.75,1.75,0,0,0-1.53-1.95c-1.81-.24-1.74,2.72-1.74,2.72l-.21-.92s0-1.56-1.94-1.44-.84,2.63-.84,2.63l.7,1.08-1-.39s-1.91-.57-2.47.75,1.25,2,1.25,2h1.7l-1.14.6a2.55,2.55,0,0,0-1,1.91c0,1.2,2.36.72,2.36.72a2.22,2.22,0,0,0,1.25-1.08l.28.84s.29,1.24,1.39,1.34a2,2,0,0,0,2.08-1.94l-.41-1,1.11.6a6.09,6.09,0,0,0,2.22.24c1.11-.12,2.6-1.32,1.23-2.64A2.62,2.62,0,0,0,1872.59,520.14Z"/><path class="cls-17" d="M1926.55,539.34s2.5-.12,2.08-2.15-2.85-.66-2.85-.66l-1.11,1,.6-1.24a1,1,0,0,0,.1-.41,1.74,1.74,0,0,0-1.53-1.94c-1.81-.24-1.75,2.72-1.75,2.72l-.2-.93s0-1.55-2-1.43-.83,2.63-.83,2.63l.7,1.08-1-.4s-1.9-.56-2.46.76,1.25,2,1.25,2h1.7l-1.14.6a2.58,2.58,0,0,0-1,1.92c0,1.19,2.37.71,2.37.71a2.23,2.23,0,0,0,1.25-1.07l.28.83s.28,1.24,1.39,1.34a2,2,0,0,0,2.08-1.93l-.42-1,1.12.6a6.09,6.09,0,0,0,2.22.24c1.11-.12,2.6-1.33,1.23-2.64A2.61,2.61,0,0,0,1926.55,539.34Z"/><path class="cls-17" d="M1897.73,511.14s3.07-.15,2.56-2.75-3.49-.85-3.49-.85l-1.37,1.23.74-1.59a1.17,1.17,0,0,0,.12-.52,2.23,2.23,0,0,0-1.88-2.49c-2.22-.3-2.14,3.49-2.14,3.49l-.25-1.19s0-2-2.38-1.84-1,3.37-1,3.37l.86,1.38-1.24-.5s-2.34-.72-3,1,1.53,2.61,1.53,2.61h2.08l-1.4.76a3.34,3.34,0,0,0-1.19,2.46c0,1.53,2.9.91,2.9.91a2.7,2.7,0,0,0,1.53-1.37l.34,1.07s.35,1.59,1.71,1.71a2.45,2.45,0,0,0,2.55-2.48l-.51-1.22,1.37.76a7.22,7.22,0,0,0,2.72.31c1.37-.15,3.19-1.7,1.51-3.38A3.15,3.15,0,0,0,1897.73,511.14Z"/><path class="cls-17" d="M1901.86,493.58s2.42-.13,2-2.39-2.75-.73-2.75-.73l-1.08,1.06.59-1.38a1.13,1.13,0,0,0,.09-.45c0-.58-.11-2-1.48-2.16-1.75-.27-1.69,3-1.69,3l-.19-1a1.62,1.62,0,0,0-1.89-1.6c-1.88.14-.8,2.93-.8,2.93l.67,1.2-1-.43s-1.84-.63-2.38.83,1.21,2.27,1.21,2.27h1.64l-1.1.66a3,3,0,0,0-.94,2.13c0,1.33,2.28.8,2.28.8a2.18,2.18,0,0,0,1.21-1.2l.27.94s.28,1.37,1.35,1.48a2,2,0,0,0,2-2.15l-.4-1.07,1.07.67a5.25,5.25,0,0,0,2.15.27c1.08-.14,2.51-1.48,1.19-2.94A2.34,2.34,0,0,0,1901.86,493.58Z"/><path class="cls-14" d="M1923.09,502.48s4.42-.27,3.68-4.74-5-1.45-5-1.45l-2,2.11,1.06-2.73a2.66,2.66,0,0,0,.18-.88c0-1.15-.21-3.87-2.71-4.28-3.19-.53-3.08,6-3.08,6l-.36-2s0-3.42-3.43-3.15-1.47,5.78-1.47,5.78l1.23,2.37-1.79-.86s-3.36-1.24-4.35,1.65,2.21,4.47,2.21,4.47h3l-2,1.32a6.08,6.08,0,0,0-1.71,4.21c0,2.63,4.17,1.58,4.17,1.58a4.16,4.16,0,0,0,2.2-2.37l.49,1.84s.51,2.73,2.46,2.94,3.92-2.15,3.67-4.25l-.73-2.11,2,1.32a8.78,8.78,0,0,0,3.93.52c2-.26,4.58-2.91,2.16-5.8A4.14,4.14,0,0,0,1923.09,502.48Z"/><path class="cls-14" d="M1887.86,499.05s3.65-.21,3-3.84-4.15-1.17-4.15-1.17l-1.63,1.71.88-2.22a2.15,2.15,0,0,0,.15-.71c0-.93-.17-3.14-2.24-3.47-2.64-.43-2.54,4.85-2.54,4.85l-.3-1.65a2.51,2.51,0,0,0-2.84-2.56c-2.83.21-1.21,4.69-1.21,4.69l1,1.92-1.47-.7s-2.78-1-3.59,1.34,1.82,3.62,1.82,3.62h2.48l-1.67,1.07a4.88,4.88,0,0,0-1.42,3.41c0,2.13,3.45,1.28,3.45,1.28a3.44,3.44,0,0,0,1.82-1.92l.41,1.49s.42,2.21,2,2.39,3.23-1.75,3-3.45l-.61-1.71,1.62,1.07a7.41,7.41,0,0,0,3.25.42c1.62-.21,3.78-2.36,1.79-4.69A3.47,3.47,0,0,0,1887.86,499.05Z"/><path class="cls-14" d="M1930.94,477.88s4.41-.26,3.68-4.74-5-1.44-5-1.44l-2,2.1,1.06-2.73a2.66,2.66,0,0,0,.18-.88c0-1.15-.21-3.87-2.71-4.28-3.19-.53-3.08,6-3.08,6l-.36-2s0-3.42-3.43-3.15-1.47,5.79-1.47,5.79l1.22,2.36-1.78-.86s-3.37-1.24-4.35,1.65,2.21,4.48,2.21,4.48h3l-2,1.31a6.07,6.07,0,0,0-1.72,4.21c0,2.63,4.17,1.58,4.17,1.58a4.16,4.16,0,0,0,2.21-2.37l.49,1.84s.51,2.73,2.46,2.94,3.92-2.15,3.67-4.25l-.73-2.11,2,1.32a8.75,8.75,0,0,0,3.92.52c2-.26,4.58-2.91,2.17-5.79A4.13,4.13,0,0,0,1930.94,477.88Z"/><path class="cls-18" d="M1933.27,495a3.07,3.07,0,0,0,2.77-3.87c-.56-3.65-3.78-1.18-3.78-1.18l-1.47,1.72.79-2.23a2.19,2.19,0,0,0,.14-.72c0-.94-.16-3.16-2-3.49-2.39-.43-2.31,4.88-2.31,4.88l-.27-1.66s0-2.79-2.58-2.58-1.1,4.72-1.1,4.72l.92,1.94-1.34-.71s-2.53-1-3.27,1.35,1.66,3.65,1.66,3.65h2.25l-1.51,1.07a5.15,5.15,0,0,0-1.29,3.44c0,2.15,3.13,1.29,3.13,1.29a3.26,3.26,0,0,0,1.66-1.93l.37,1.5s.38,2.22,1.85,2.4,2.94-1.76,2.75-3.47l-.55-1.72,1.47,1.07a6.11,6.11,0,0,0,3,.43,2.89,2.89,0,0,0,1.63-4.73A3,3,0,0,0,1933.27,495Z"/><path class="cls-18" d="M1875.88,508.81a3.06,3.06,0,0,0,2.76-3.87c-.55-3.65-3.77-1.18-3.77-1.18l-1.48,1.72.8-2.23a2.18,2.18,0,0,0,.13-.72c0-.93-.15-3.15-2-3.49-2.4-.43-2.31,4.88-2.31,4.88l-.27-1.66s0-2.79-2.58-2.58-1.1,4.73-1.1,4.73l.92,1.93-1.34-.71s-2.53-1-3.27,1.35,1.66,3.65,1.66,3.65h2.25l-1.51,1.08a5.11,5.11,0,0,0-1.29,3.43c0,2.15,3.13,1.29,3.13,1.29a3.29,3.29,0,0,0,1.66-1.93l.36,1.5s.39,2.22,1.85,2.4,2.94-1.76,2.76-3.47l-.55-1.72,1.47,1.07a6.08,6.08,0,0,0,2.95.43,2.88,2.88,0,0,0,1.63-4.73A3,3,0,0,0,1875.88,508.81Z"/><path class="cls-17" d="M1884.47,530.64a3.06,3.06,0,0,0,2.76-3.86c-.55-3.65-3.78-1.18-3.78-1.18l-1.47,1.72.8-2.23a2.48,2.48,0,0,0,.13-.72c0-.94-.15-3.16-2-3.49-2.39-.43-2.31,4.88-2.31,4.88l-.27-1.66s0-2.8-2.57-2.58-1.11,4.72-1.11,4.72l.92,1.94-1.34-.71s-2.53-1-3.26,1.35,1.65,3.65,1.65,3.65h2.25l-1.51,1.07A5.15,5.15,0,0,0,1872,537c0,2.14,3.13,1.29,3.13,1.29a3.26,3.26,0,0,0,1.66-1.94l.37,1.51s.38,2.22,1.85,2.4,2.94-1.76,2.75-3.48l-.55-1.71,1.48,1.07a6.2,6.2,0,0,0,2.94.43,2.88,2.88,0,0,0,1.63-4.73A3,3,0,0,0,1884.47,530.64Z"/><path class="cls-16" d="M1920.76,529.71s.25-2.48-.49-3.35a1.31,1.31,0,0,0-2.21.45,6.15,6.15,0,0,0-.24,1.58l-.46-.84s-1.26-1.53-2.24-.74a1.35,1.35,0,0,0-.25,1.84l.74,1.32-.74-.26s-2.2-.53-2.45,1.31a1.72,1.72,0,0,0,.93,2,7.45,7.45,0,0,1,.83.45l.69.45h-.59a1.66,1.66,0,0,0-1.15.44,1.16,1.16,0,0,0-.29,1.41c.46,1.06,1.2,1.08,1.45,1.06l.25,0,1.3,0v.46a2,2,0,0,0,.88,1.67l.36.22c1,.52,1.47-1.84,1.47-1.84l.49.79s.74,1,1.72.78c.5-.13.68-.75.74-1.32a2.44,2.44,0,0,0-.45-1.66l-.11-.16h.84s1.92.25,2.17-.8a2,2,0,0,0-.74-1.84l-.75-.54.51-.52s1.06-.94,1-1.65a1.82,1.82,0,0,0-.53-1.5c-.49-.53-2.7.79-2.7.79"/><path class="cls-16" d="M1918.55,474.46s.25-2.48-.49-3.35a1.3,1.3,0,0,0-2.2.45,5.92,5.92,0,0,0-.25,1.58l-.45-.84s-1.27-1.52-2.25-.74a1.36,1.36,0,0,0-.24,1.85l.73,1.31-.73-.26s-2.21-.53-2.46,1.31a1.74,1.74,0,0,0,.93,2,7.36,7.36,0,0,1,.83.44l.7.45h-.59a1.68,1.68,0,0,0-1.16.44,1.16,1.16,0,0,0-.28,1.42c.45,1.06,1.19,1.08,1.45,1.05l.24,0,1.3,0V482a2,2,0,0,0,.87,1.68l.36.21c1,.53,1.48-1.84,1.48-1.84l.49.79s.73,1.05,1.71.79c.51-.14.69-.75.74-1.32a2.41,2.41,0,0,0-.45-1.67l-.11-.15h.84s1.93.24,2.17-.81a2,2,0,0,0-.73-1.84l-.76-.54.51-.51s1.06-.94,1-1.66a1.83,1.83,0,0,0-.53-1.5c-.49-.53-2.7.79-2.7.79"/><path class="cls-16" d="M1910.21,487.61s.25-2.48-.49-3.34a1.3,1.3,0,0,0-2.2.45,5.92,5.92,0,0,0-.25,1.58l-.45-.85s-1.27-1.52-2.25-.73a1.35,1.35,0,0,0-.24,1.84l.73,1.32-.73-.27s-2.21-.52-2.45,1.32a1.71,1.71,0,0,0,.92,2,6.59,6.59,0,0,1,.83.44l.7.45h-.59a1.69,1.69,0,0,0-1.15.44,1.18,1.18,0,0,0-.29,1.42c.45,1.06,1.19,1.08,1.45,1.05h.24l1.3,0v.46a2,2,0,0,0,.87,1.67l.37.21c1,.53,1.47-1.84,1.47-1.84l.49.79s.73,1.05,1.71.79c.51-.13.69-.75.74-1.32a2.37,2.37,0,0,0-.45-1.66l-.11-.16h.84s1.93.25,2.17-.81a2,2,0,0,0-.73-1.84l-.76-.54.51-.51s1.06-.94,1-1.65a1.84,1.84,0,0,0-.53-1.51c-.49-.52-2.7.79-2.7.79"/><path class="cls-15" d="M1886.67,516s.38-3.37-.76-4.54a2.17,2.17,0,0,0-3.44.61,7.21,7.21,0,0,0-.38,2.14l-.71-1.14s-2-2.07-3.49-1a1.68,1.68,0,0,0-.39,2.5l1.15,1.79-1.15-.36s-3.43-.71-3.81,1.78a2.29,2.29,0,0,0,1.44,2.72,12.56,12.56,0,0,1,1.29.6l1.08.61h-.92a2.84,2.84,0,0,0-1.79.6,1.45,1.45,0,0,0-.45,1.92,2.24,2.24,0,0,0,2.26,1.43l.38,0,2,0v.62a2.68,2.68,0,0,0,1.37,2.27c.17.1.35.19.56.29,1.53.71,2.29-2.5,2.29-2.5l.77,1.07a2.92,2.92,0,0,0,2.67,1.07c.78-.18,1.06-1,1.15-1.79a3,3,0,0,0-.7-2.26l-.18-.21h1.31s3,.34,3.38-1.09-1.14-2.5-1.14-2.5l-1.17-.74.79-.69s1.65-1.27,1.59-2.24a2.33,2.33,0,0,0-.83-2c-.76-.72-4.2,1.07-4.2,1.07"/><path class="cls-18" d="M1920.27,480.52s.38-3.36-.76-4.54a2.17,2.17,0,0,0-3.44.62,7.21,7.21,0,0,0-.38,2.14l-.71-1.15s-2-2.06-3.49-1a1.66,1.66,0,0,0-.38,2.49l1.14,1.79-1.14-.36s-3.44-.71-3.82,1.79a2.27,2.27,0,0,0,1.44,2.71,12.56,12.56,0,0,1,1.29.6l1.09.61h-.93a2.84,2.84,0,0,0-1.79.6,1.46,1.46,0,0,0-.45,1.92,2.24,2.24,0,0,0,2.26,1.43l.38,0,2,0v.62a2.65,2.65,0,0,0,1.36,2.27,4.86,4.86,0,0,0,.56.29c1.53.72,2.29-2.5,2.29-2.5l.77,1.08a2.94,2.94,0,0,0,2.67,1.07c.78-.19,1.06-1,1.15-1.8a3,3,0,0,0-.7-2.25l-.18-.22h1.31s3,.34,3.39-1.09-1.15-2.5-1.15-2.5l-1.17-.73.79-.69s1.65-1.28,1.59-2.25a2.29,2.29,0,0,0-.83-2c-.76-.71-4.2,1.07-4.2,1.07"/><path class="cls-18" d="M1906.05,475.26s.38-3.36-.77-4.54a2.17,2.17,0,0,0-3.44.61,7.29,7.29,0,0,0-.38,2.15l-.71-1.15s-2-2.07-3.49-1a1.67,1.67,0,0,0-.38,2.5l1.15,1.79-1.15-.36s-3.44-.71-3.82,1.79a2.27,2.27,0,0,0,1.44,2.71,11.65,11.65,0,0,1,1.29.6l1.09.61H1896a2.84,2.84,0,0,0-1.79.6,1.45,1.45,0,0,0-.45,1.92,2.24,2.24,0,0,0,2.26,1.43l.38,0,2,0v.62a2.64,2.64,0,0,0,1.37,2.27,5.75,5.75,0,0,0,.56.29c1.52.72,2.29-2.5,2.29-2.5l.76,1.07a3,3,0,0,0,2.68,1.08c.78-.19,1.06-1,1.15-1.8a3,3,0,0,0-.7-2.25l-.18-.22h1.31s3,.34,3.38-1.09-1.15-2.5-1.15-2.5l-1.17-.73.79-.7s1.65-1.27,1.59-2.24a2.3,2.3,0,0,0-.82-2c-.77-.71-4.2,1.07-4.2,1.07"/><path class="cls-19" d="M1883.81,503.75s.32-2.88-.64-3.89a1.8,1.8,0,0,0-2.88.53,6.23,6.23,0,0,0-.32,1.83l-.59-1s-1.64-1.77-2.92-.85a1.45,1.45,0,0,0-.32,2.14l1,1.52-1-.3s-2.88-.61-3.2,1.53a2,2,0,0,0,1.21,2.32,10.72,10.72,0,0,1,1.08.52l.91.52h-.77a2.35,2.35,0,0,0-1.5.51,1.27,1.27,0,0,0-.38,1.65,1.88,1.88,0,0,0,1.89,1.22,1.74,1.74,0,0,1,.32,0l1.69,0v.53a2.31,2.31,0,0,0,1.15,2,5.09,5.09,0,0,0,.47.24c1.27.62,1.91-2.14,1.91-2.14l.64.92a2.45,2.45,0,0,0,2.24.92c.65-.16.89-.87,1-1.54a2.62,2.62,0,0,0-.58-1.93l-.15-.18h1.09s2.52.29,2.84-.94-1-2.14-1-2.14l-1-.63.67-.59s1.38-1.09,1.33-1.92a2,2,0,0,0-.69-1.75c-.64-.61-3.52.92-3.52.92"/><path class="cls-19" d="M1895.24,517.68s.33-2.55-.65-3.43a2,2,0,0,0-2.94.46,4.82,4.82,0,0,0-.33,1.62l-.61-.87s-1.68-1.56-3-.75a1.18,1.18,0,0,0-.33,1.89l1,1.35-1-.27s-2.94-.54-3.27,1.35a1.72,1.72,0,0,0,1.23,2.05,10.73,10.73,0,0,1,1.11.45l.93.47h-.79a2.58,2.58,0,0,0-1.53.45,1,1,0,0,0-.39,1.45,2,2,0,0,0,1.94,1.08,1.69,1.69,0,0,1,.32,0l1.73,0v.47a2,2,0,0,0,1.17,1.71,3.61,3.61,0,0,0,.48.22c1.31.54,2-1.89,2-1.89l.66.81a2.64,2.64,0,0,0,2.28.81,1.41,1.41,0,0,0,1-1.35,2.13,2.13,0,0,0-.6-1.71l-.15-.16h1.12s2.56.25,2.89-.83-1-1.88-1-1.88l-1-.56.67-.52s1.42-1,1.36-1.7a1.64,1.64,0,0,0-.7-1.54c-.66-.54-3.6.81-3.6.81"/><path class="cls-14" d="M1876.22,524s.27-2.54-.52-3.43a1.43,1.43,0,0,0-2.37.46,6,6,0,0,0-.26,1.62l-.49-.86s-1.35-1.57-2.4-.76a1.35,1.35,0,0,0-.26,1.89l.79,1.35-.79-.27s-2.36-.54-2.62,1.35a1.76,1.76,0,0,0,1,2.06,6.08,6.08,0,0,1,.88.45l.75.46h-.63a1.88,1.88,0,0,0-1.24.45,1.17,1.17,0,0,0-.3,1.45,1.52,1.52,0,0,0,1.55,1.08h.26l1.39,0v.47a2.07,2.07,0,0,0,.94,1.72l.38.22c1,.54,1.58-1.89,1.58-1.89l.52.81a2,2,0,0,0,1.84.81c.54-.14.73-.77.79-1.36a2.35,2.35,0,0,0-.48-1.7l-.12-.17h.9s2.06.26,2.33-.82a2.05,2.05,0,0,0-.79-1.89l-.81-.56.55-.52s1.13-1,1.09-1.7a1.81,1.81,0,0,0-.57-1.54c-.52-.54-2.89.81-2.89.81"/><path class="cls-14" d="M1897.07,483.48s.26-2.55-.53-3.43a1.42,1.42,0,0,0-2.36.46,6,6,0,0,0-.26,1.62l-.49-.87s-1.35-1.56-2.4-.75a1.35,1.35,0,0,0-.26,1.89l.79,1.35-.79-.27s-2.36-.54-2.63,1.35a1.76,1.76,0,0,0,1,2.05,6.74,6.74,0,0,1,.89.45l.75.46h-.64a1.83,1.83,0,0,0-1.23.46,1.17,1.17,0,0,0-.31,1.45,1.52,1.52,0,0,0,1.56,1.08l.26,0,1.39,0v.48a2,2,0,0,0,.94,1.71,4.27,4.27,0,0,0,.38.22c1,.54,1.58-1.89,1.58-1.89l.52.81a2,2,0,0,0,1.84.81c.54-.14.73-.77.79-1.35a2.39,2.39,0,0,0-.48-1.71l-.12-.16h.9s2.06.25,2.32-.83a2,2,0,0,0-.78-1.89l-.81-.55.54-.52s1.14-1,1.1-1.7a1.87,1.87,0,0,0-.57-1.54c-.53-.54-2.89.81-2.89.81"/><path class="cls-16" d="M1937.84,516.54s4.42-.26,3.68-4.73-5-1.45-5-1.45l-2,2.1,1.07-2.73a2.92,2.92,0,0,0,.17-.88c0-1.15-.2-3.87-2.71-4.28-3.19-.53-3.07,6-3.07,6l-.36-2a3.08,3.08,0,0,0-3.44-3.16c-3.43.26-1.47,5.79-1.47,5.79l1.23,2.37-1.79-.87s-3.36-1.24-4.34,1.65,2.2,4.48,2.2,4.48h3l-2,1.31a6.08,6.08,0,0,0-1.71,4.21c0,2.63,4.17,1.58,4.17,1.58a4.16,4.16,0,0,0,2.2-2.37l.5,1.84s.5,2.73,2.46,2.94,3.91-2.15,3.67-4.25l-.74-2.11,2,1.32a8.9,8.9,0,0,0,3.93.53c2-.27,4.58-2.92,2.17-5.8A4.18,4.18,0,0,0,1937.84,516.54Z"/><path class="cls-16" d="M1878.76,513.82s2.23-.12,1.86-2.16-2.54-.66-2.54-.66l-1,1,.53-1.24a1,1,0,0,0,.09-.41,1.74,1.74,0,0,0-1.37-1.95c-1.61-.24-1.55,2.73-1.55,2.73l-.18-.93a1.47,1.47,0,0,0-1.74-1.44c-1.73.12-.74,2.64-.74,2.64l.62,1.08-.9-.39s-1.7-.57-2.2.75,1.12,2,1.12,2h1.51l-1,.6a2.67,2.67,0,0,0-.86,1.92c0,1.2,2.1.72,2.1.72a2,2,0,0,0,1.12-1.08l.25.84s.25,1.25,1.24,1.35a1.86,1.86,0,0,0,1.85-2l-.37-1,1,.6a5,5,0,0,0,2,.24c1-.12,2.31-1.33,1.09-2.64A2.19,2.19,0,0,0,1878.76,513.82Z"/></g></g><g id="grave"><polygon class="cls-20" points="1408.47 934.97 1400.11 999.48 1618.96 1009.07 1625.84 944.04 1408.47 934.97"/><polygon class="cls-21" points="1408.47 934.97 1597.6 762.23 1755.11 770.64 1625.84 944.04 1408.47 934.97"/><polygon class="cls-20" points="1618.96 1009.07 1755.11 822.72 1755.11 770.64 1625.84 944.04 1618.96 1009.07"/><polygon class="cls-22" points="1641.86 778.52 1641.86 712.77 1618.96 712.77 1618.96 693.83 1641.86 693.83 1641.86 658.07 1659.15 658.07 1659.15 693.83 1680.45 693.83 1680.45 712.77 1657.48 713.35 1656.92 778.52 1641.86 778.52"/></g></g></g></svg>