<svg xmlns="http://www.w3.org/2000/svg" width="225" height="415" viewBox="0 0 225 415"><defs><style>.cls-1{fill:#fff;}.cls-2{fill:#e0d982;}.cls-3{fill:#f3983e;}.cls-4{fill:#dd2458;}.cls-5{fill:#d6ba1a;}.cls-6{fill:#e3933a;}.cls-7{fill:#dbdad9;}.cls-8{fill:#f9c847;}.cls-9{fill:#c14a29;}.cls-10{fill:none;stroke:#000;stroke-miterlimit:10;}.cls-11{fill:#25bf25;}.cls-12{fill:#2692db;}.cls-13{fill:#a84726;}.cls-14{fill:#2a6d21;}.cls-15{fill:#c1b867;}</style></defs><g id="Animated_items" data-name="Animated items"><g id="male_skeleton-3" data-name="male skeleton"><path class="cls-1" d="M35.35,269.55l13.33-1.5,2.59,8.38a18.66,18.66,0,0,1-14.62,0Z"/><path class="cls-1" d="M36.65,276.43s-8.74,1.68-8.74,8.38c0,0,0,5.87,1.73,8.38,0,0,2.59,3.36,6,.84a6.43,6.43,0,0,1,6.06,0,7.42,7.42,0,0,0,5.68.41,4.39,4.39,0,0,1,2.13-.06c.92.2,2.35.09,3.44-2,0,0,2.6-5.87.87-9.22h0s-.87-5.87-2.6-6.71S36.65,276.43,36.65,276.43Z"/><path class="cls-1" d="M27.69,293.88s-7.13-.22-4.75,3.92C22.94,297.8,25.79,300.33,27.69,293.88Z"/><path class="cls-1" d="M32.37,296.87s-9,3.91-3.44,7.24C28.93,304.11,34.09,305.33,32.37,296.87Z"/><path class="cls-1" d="M40.15,297.13s-6.73,7-.25,8C39.9,305.09,45.14,304.26,40.15,297.13Z"/><path class="cls-1" d="M48.46,297.12s-4.63,8.46,1.89,7.76C50.35,304.88,55.19,302.77,48.46,297.12Z"/><path class="cls-1" d="M55.32,291.66s1.46,10.85,7.14,6C62.46,297.71,65.58,292.67,55.32,291.66Z"/><path class="cls-1" d="M194.46,254.28l-13.36.91-1,8.7a18.61,18.61,0,0,0,14.36-2.61Z"/><path class="cls-1" d="M194.5,261.28s8.91.09,10.19,6.68c0,0,1.11,5.76-.11,8.54a4.28,4.28,0,0,1-5.79,1.91,6.35,6.35,0,0,0-5.94,1.08,7.26,7.26,0,0,1-5.22,1.43,6.09,6.09,0,0,0-2.47.34c-.86.34-2.25.42-3.68-1.41,0,0-3.67-5.3-2.61-8.91h0s-.27-5.92,1.27-7.05S194.5,261.28,194.5,261.28Z"/><path class="cls-1" d="M206.62,276.83s7-1.49,5.42,3C212,279.83,209.71,282.83,206.62,276.83Z"/><path class="cls-1" d="M202.6,280.61s9.6,2.23,4.75,6.5C207.35,287.11,202.53,289.23,202.6,280.61Z"/><path class="cls-1" d="M195,282.24s7.94,5.7,1.76,7.79C196.77,290,191.47,290.15,195,282.24Z"/><path class="cls-1" d="M186.85,283.73s6.15,7.48-.38,8C186.47,291.69,181.32,290.48,186.85,283.73Z"/><path class="cls-1" d="M179.06,279.58s.65,10.93-5.85,7.23C173.21,286.81,169.19,282.4,179.06,279.58Z"/><path class="cls-2" d="M69.45,253s-11.35,80.28-6.54,93.37c0,0,33.8,4.28,45.91.92,0,0,10.33-52.42,11.66-97l5.28,9.1s2,85.47,3.34,89.22c0,0,33.73,3,55.19-2.48,0,0-20.94-101.9-22.68-102.74S69.45,253,69.45,253Z"/><path class="cls-3" d="M70.58,143.59S43,143.41,35.86,189.8c0,0-7.09,30.48-11.42,55.62,0,0-11.84,30.71,23.07,23.32,0,0,80.74-2.2,133.84-12.88a55.2,55.2,0,0,1,9.85-1.08c8.46-.13,26.21-3,13.3-26.29a32.41,32.41,0,0,1-4-13.44c-1.06-15.46-4.05-49.35-10.35-57.31,0,0-9.95-17.93-28.56-18.34S70.58,143.59,70.58,143.59Z"/><path class="cls-4" d="M46.52,107s-2.07,7,2.75,10.94S49.11,107.49,46.52,107Z"/><path class="cls-5" d="M54.82,125.57s-9.12-.21-4.14-7C50.68,118.58,59.45,119.86,54.82,125.57Z"/><path class="cls-4" d="M170.91,62.71s-2,6.41,2.65,10.09S173.41,63.2,170.91,62.71Z"/><path class="cls-5" d="M178.92,79.89s-8.8-.19-4-6.45C174.92,73.44,183.39,74.62,178.92,79.89Z"/><path class="cls-6" d="M51.12,88.14,26.73,102.76s-3.3,4.39,21,4.8l119.44-38s22.57-17.73,23-24C190.17,45.52,185.41,12.42,51.12,88.14Z"/><path class="cls-1" d="M53.89,84.12c15.18-18.18,59.93-59.41,121.88-7.94a8.5,8.5,0,0,1,2.33,3.06c3.34,7.53,13.34,36.33-16.49,60.16,0,0-12.11,7.54-15.57,15.08,0,0-3.47,10.9-15.58,9.22l-22,.18a39.94,39.94,0,0,1-11-3.62,15.73,15.73,0,0,1-5.65-4.74c-1.83-2.43-5.89-6.13-14.23-7.74,0,0-28.71-12.52-29.92-45.77A26.43,26.43,0,0,1,53.89,84.12Z"/><ellipse class="cls-7" cx="100.17" cy="95.81" rx="15.58" ry="14.25"/><ellipse cx="107.96" cy="97.49" rx="10.09" ry="7.77" transform="translate(-18.21 169.89) rotate(-71.93)"/><ellipse class="cls-7" cx="138.25" cy="94.97" rx="15.58" ry="14.25"/><path class="cls-8" d="M28.85,80c-1.34.59-6.05,3.46-6.29,15,0,0-2.88,13.41,9.24,5,0,0,53.66-38.55,142.8-57,0,0,17.3-1.68,15.57,2.51A14.63,14.63,0,0,0,186.71,33s0-3.35-14.71-2.51c0,0-69.64,3.33-142.08,49A9.24,9.24,0,0,1,28.85,80Z"/><path class="cls-8" d="M66,20s22.51-10.89,39-12.57c0,0,6.06-2.52,14.71,5L144,34.31,59.79,62.74s-2.46-21.83-2.46-23.5S52.14,24.15,66,20Z"/><path class="cls-9" d="M93.68,35.89l-35.63,11,1.74,15.88,20-9s40.69-15.65,45-15.06c0,0,18.42-4.24,19.18-4.34L131.24,22.85Z"/><path class="cls-4" d="M55,86s-2.29,8.68,3,13.64S57.87,86.67,55,86Z"/><path class="cls-5" d="M64.19,109.22s-10.09-.25-4.58-8.71C59.61,100.51,69.32,102.1,64.19,109.22Z"/><path class="cls-4" d="M189.15,44.09s-2.3,8.68,3,13.65S192,44.76,189.15,44.09Z"/><path class="cls-5" d="M198.33,67.32s-10.09-.26-4.58-8.72C193.75,58.6,203.46,60.19,198.33,67.32Z"/><path class="cls-4" d="M23.5,102s4.41,11.79,8.73,13.47S28.61,108.68,23.5,102Z"/><path class="cls-5" d="M38.23,124.31s-10.1-.25-4.59-8.72C33.64,115.59,43.36,117.19,38.23,124.31Z"/><path class="cls-10" d="M90.65,135.21s19.9,14.24,51.06-1.68"/><path class="cls-10" d="M98.13,133.53a16.16,16.16,0,0,0-.56,8.38"/><path class="cls-10" d="M105.36,136a13,13,0,0,0,.87,7.55"/><path class="cls-10" d="M116.91,136.91a23.08,23.08,0,0,1,1.57,7.49"/><path class="cls-10" d="M128.73,134.37a16.15,16.15,0,0,1,2.41,7.12"/><path d="M111.42,117.6s3-4.67,6.27-6.1a16.74,16.74,0,0,1,4.58,4.35,16.75,16.75,0,0,0,1,1.6c.71,1,1.68,2.66,1.1,4.34,0,0-.43,4.2-6.71,0,0,0-7.14,2.58-7.14-.83C110.55,121,110.55,118.44,111.42,117.6Z"/><ellipse class="cls-11" cx="80.7" cy="94.14" rx="2.6" ry="2.1"/><ellipse class="cls-11" cx="82.43" cy="87.43" rx="2.11" ry="2.58" transform="translate(-30.06 129.69) rotate(-67.28)"/><ellipse class="cls-11" cx="88.49" cy="81.56" rx="2.14" ry="2.54" transform="translate(-30.72 65.06) rotate(-34.79)"/><ellipse class="cls-11" cx="97.14" cy="78.21" rx="2.16" ry="2.52" transform="translate(-8.31 11.63) rotate(-6.57)"/><ellipse class="cls-11" cx="106.66" cy="79.05" rx="2.52" ry="2.16" transform="translate(-3.22 153.55) rotate(-70.68)"/><ellipse class="cls-11" cx="113.58" cy="82.4" rx="2.56" ry="2.13" transform="translate(-26.4 92.19) rotate(-39.96)"/><ellipse class="cls-11" cx="118.78" cy="89.95" rx="2.58" ry="2.1" transform="translate(-24.05 47.53) rotate(-20.59)"/><ellipse class="cls-11" cx="118.78" cy="99.17" rx="2.1" ry="2.59" transform="translate(-1.11 196.98) rotate(-79.07)"/><ellipse class="cls-11" cx="116.18" cy="105.87" rx="2.12" ry="2.57" transform="matrix(0.52, -0.85, 0.85, 0.52, -34.81, 149.54)"/><ellipse class="cls-11" cx="110.12" cy="110.9" rx="2.14" ry="2.54" transform="translate(-43.59 82.65) rotate(-34.79)"/><ellipse class="cls-11" cx="102.33" cy="114.25" rx="2.16" ry="2.51" transform="translate(-6.56 6.23) rotate(-3.38)"/><ellipse class="cls-11" cx="95.11" cy="112.9" rx="2.52" ry="2.16" transform="translate(-42.9 165.31) rotate(-70.68)"/><ellipse class="cls-11" cx="87.32" cy="109.55" rx="2.55" ry="2.13" transform="translate(-51.73 92.5) rotate(-44.45)"/><ellipse class="cls-11" cx="82.13" cy="103.68" rx="2.57" ry="2.11" transform="translate(-39.72 52.22) rotate(-28.72)"/><ellipse class="cls-11" cx="121.37" cy="84.08" rx="2.11" ry="2.58" transform="matrix(0.39, -0.92, 0.92, 0.39, -3.06, 163.56)"/><ellipse class="cls-11" cx="126.56" cy="80.73" rx="2.14" ry="2.54" transform="translate(-23.44 86.64) rotate(-34.79)"/><ellipse class="cls-11" cx="135.22" cy="77.37" rx="2.16" ry="2.52" transform="translate(-7.96 15.98) rotate(-6.57)"/><ellipse class="cls-11" cx="144.74" cy="78.21" rx="2.52" ry="2.16" transform="translate(23.05 188.93) rotate(-70.68)"/><ellipse class="cls-11" cx="151.66" cy="81.56" rx="2.56" ry="2.13" transform="translate(-16.97 116.45) rotate(-39.96)"/><ellipse class="cls-11" cx="156.85" cy="89.11" rx="2.58" ry="2.1" transform="translate(-21.32 60.87) rotate(-20.59)"/><ellipse class="cls-11" cx="156.85" cy="97.49" rx="2.1" ry="2.59" transform="translate(31.39 233.01) rotate(-79.07)"/><ellipse class="cls-11" cx="154.26" cy="104.19" rx="2.12" ry="2.57" transform="translate(-15.22 181.2) rotate(-58.47)"/><ellipse class="cls-11" cx="148.2" cy="109.22" rx="2.14" ry="2.54" transform="translate(-35.83 104.07) rotate(-34.79)"/><ellipse class="cls-11" cx="140.41" cy="112.58" rx="2.16" ry="2.51" transform="translate(-6.39 8.47) rotate(-3.38)"/><ellipse class="cls-11" cx="133.19" cy="111.23" rx="2.52" ry="2.16" transform="translate(-15.84 200.12) rotate(-70.68)"/><ellipse class="cls-11" cx="127.13" cy="109.55" rx="2.55" ry="2.13" transform="translate(-40.34 120.38) rotate(-44.45)"/><ellipse class="cls-11" cx="121.94" cy="104.52" rx="2.57" ry="2.11" transform="translate(-35.23 71.46) rotate(-28.72)"/><path class="cls-12" d="M78.81,123.32s-2.92-4.78-5.94-4.5-3.66,2.56-3.91,4.41S77.26,126.83,78.81,123.32Z"/><path class="cls-12" d="M78,129.3s-4.88-2.93-7.42-1.33-2,3.91-1.35,5.67S78.26,133.1,78,129.3Z"/><path class="cls-12" d="M80.51,133.26s-5.71.55-6.73,3.31.85,4.3,2.48,5.3S83.14,136.11,80.51,133.26Z"/><path class="cls-12" d="M153.14,131s1.43,5.38,4.4,5.93,4.26-1.47,5-3.19S155.64,128.08,153.14,131Z"/><path class="cls-12" d="M155.68,125.53s3.84,4.13,6.74,3.28,3.06-3.21,2.93-5.08S156.48,121.79,155.68,125.53Z"/><path class="cls-12" d="M154.37,121s5.64,1,7.41-1.36.42-4.35-.85-5.76S152.66,117.59,154.37,121Z"/><path class="cls-13" d="M39.42,174.41s63.92,28.16,154.28-8.67l3.77,19s-68.15,21.91-162.13,7.36Z"/><path class="cls-14" d="M30.5,211.89s105.4,6.73,168.67-13l1.8,19.7s-61.94,20.52-174.19,14Z"/><path class="cls-13" d="M22.71,252.13a17.31,17.31,0,0,0,7.93-.1,13.47,13.47,0,0,1,3.15-.52c15.39-.45,125.48-4.1,158.92-16.76,0,0,12.71-3.91,11.79-5.42s15.92,22.74-10.24,26.12c0,0-108.22,14.37-145.1,14.15a11.43,11.43,0,0,0-3,.37C40.57,271.37,20,275.54,22.71,252.13Z"/><ellipse cx="145.17" cy="97.49" rx="10.09" ry="7.77" transform="translate(7.47 205.27) rotate(-71.93)"/><path class="cls-1" d="M78.48,347.85,76.8,365.69s-1.84,5.15,1.68,6.77l9.57,1.61s6.93.84,5.2-4.19l2.47-21.35"/><path class="cls-1" d="M65.55,387.48s-8.34,1.68-10.23,0c0,0-5.24-5.08,3.8-8.83h2.6s8.93-5,14.6-6.46l11.73,1.88s12.12,1.68,2.6,10.9c0,0-12.21,4.73-14.33,8.23C76.32,393.2,66.42,398.38,65.55,387.48Z"/><path class="cls-1" d="M69.24,397.37s-6.32,4.65-3.89,9.55C65.35,406.92,71.39,408.39,69.24,397.37Z"/><path class="cls-1" d="M53,387.49s-4.85-2.48-6.49,3.28C46.51,390.77,48.06,397.38,53,387.49Z"/><path class="cls-1" d="M57.33,392.52s-4.86-2.49-6.49,3.27C50.84,395.79,52.39,402.41,57.33,392.52Z"/><path class="cls-1" d="M64.25,395.87s-4.85-2.48-6.49,3.28C57.76,399.15,59.31,405.76,64.25,395.87Z"/><path class="cls-1" d="M50.56,382.65s-5-2-7.11,1.08C43.45,383.73,44.61,387.72,50.56,382.65Z"/><path class="cls-1" d="M168.29,347.88,170,365.72s1.84,5.15-1.67,6.77l-9.55,1.61s-6.9.84-5.17-4.19l-2.47-21.35"/><path class="cls-1" d="M181.18,387.51s8.31,1.68,10.2,0c0,0,5.22-5.08-3.78-8.83H185s-8.9-5-14.56-6.46l-11.7,1.88s-12.08,1.68-2.58,10.9c0,0,12.17,4.73,14.28,8.23C170.44,393.23,180.32,398.41,181.18,387.51Z"/><path class="cls-1" d="M175.64,396.88s7.07,4.18,5.79,9.13C181.43,406,175.94,407.82,175.64,396.88Z"/><path class="cls-1" d="M195.42,389.2s4.84-2.49,6.47,3.27C201.89,392.47,200.35,399.09,195.42,389.2Z"/><path class="cls-1" d="M189.38,392.55s4.84-2.49,6.47,3.27C195.85,395.82,194.31,402.44,189.38,392.55Z"/><path class="cls-1" d="M182.47,395.9s4.85-2.48,6.47,3.28C188.94,399.18,187.4,405.79,182.47,395.9Z"/><path class="cls-1" d="M195.67,384s5.17-1.44,6.92,1.89C202.59,385.86,201,389.69,195.67,384Z"/><path class="cls-15" d="M168.46,324.44s.23,4.84,2.13,6.69a6,6,0,0,1,1.44,4.79s-.44,3.41,2.06,5.24,2.13,6.15,2.13,6.15l3.16-.56s-1.68-5.76-2.95-7.16c0,0-.65-.94-.07-1.45,0,0,.39-4.38-.88-5.78S167.88,325,168.46,324.44Z"/><path class="cls-15" d="M88.84,325.28s.23,4.84,2.13,6.69a6,6,0,0,1,1.44,4.78S92,340.17,94.47,342s2.13,6.16,2.13,6.16l3.16-.56s-1.68-5.76-3-7.16c0,0-.65-.94-.07-1.45,0,0,.39-4.38-.88-5.78S88.26,325.79,88.84,325.28Z"/><path class="cls-15" d="M143.09,326.22s.23,4.84-.84,6.83a8.64,8.64,0,0,0-.55,4.87s.56,3.37-.91,5.37-.88,6.3-.88,6.3l-2.07-.32s.62-5.87,1.32-7.36c0,0,.35-1-.07-1.45,0,0-.6-4.33.11-5.82S143.5,326.68,143.09,326.22Z"/><path class="cls-15" d="M68.66,322.87s.24,4.83-.84,6.82a8.73,8.73,0,0,0-.54,4.88s.55,3.37-.91,5.37-.88,6.3-.88,6.3l-2.08-.32s.62-5.87,1.33-7.36c0,0,.34-1-.07-1.45,0,0-.6-4.34.11-5.82S69.08,323.33,68.66,322.87Z"/></g></g></svg>