<svg xmlns="http://www.w3.org/2000/svg" width="225" height="414" viewBox="0 0 225 414"><defs><style>.cls-1{fill:#fff;}.cls-2{fill:#07202a;}.cls-3{fill:#902761;}.cls-4{fill:#7e2153;}.cls-5{fill:#bd2f59;}.cls-6{fill:#e900cf;}.cls-7{fill:none;stroke:#000;stroke-miterlimit:10;}.cls-8{fill:#dbdad9;}.cls-9{fill:#dd2443;}.cls-10{fill:#9229d6;}.cls-11{fill:#267ddb;}.cls-12{fill:#f9c847;}.cls-13{fill:#e3933a;}.cls-14{fill:#0a2a3a;}.cls-15{fill:#ed146c;}.cls-16{fill:#ef56b9;}</style></defs><g id="Animated_items" data-name="Animated items"><g id="happy_right" data-name="happy right"><path class="cls-1" d="M152.49,184s-.71,14.89-7,14.89-7.47-3.63-7.47-3.63,3-9.06,4.34-10.42S148.72,180,152.49,184Z"/><path class="cls-1" d="M142.83,208s-2.86,8.4-5.9,11.9-11.1-9.18-11.1-9.18,4.67-9.53,7.16-8.16C133,202.55,137.46,203.46,142.83,208Z"/><path class="cls-1" d="M135.89,202.41l6.3,3.69a2.67,2.67,0,0,0,3.66-1h0a2.74,2.74,0,0,0-1-3.71l-6.3-3.69a2.68,2.68,0,0,0-3.67,1h0A2.74,2.74,0,0,0,135.89,202.41Z"/><path class="cls-1" d="M78.32,341.12l-1.69,19.29s-1.85,5.57,1.69,7.32L88,369.48s7,.9,5.23-4.53l2.49-23.09"/><path class="cls-1" d="M65.31,384s-8.39,1.82-10.3,0c0,0-5.27-5.5,3.82-9.54h2.62s9-5.41,14.7-7l11.8,2s12.2,1.81,2.62,11.78c0,0-12.29,5.11-14.42,8.9C76.15,390.16,66.18,395.75,65.31,384Z"/><path class="cls-1" d="M69,394.64s-6.35,5.23-4.16,10.39C64.84,405,70.67,406.36,69,394.64Z"/><path class="cls-1" d="M52.68,384s-4.89-2.69-6.54,3.54C46.14,387.52,47.7,394.67,52.68,384Z"/><path class="cls-1" d="M57,389.42s-4.89-2.69-6.53,3.54C50.5,393,52.06,400.11,57,389.42Z"/><path class="cls-1" d="M64,393s-4.89-2.68-6.53,3.54C57.47,396.58,59,403.74,64,393Z"/><path class="cls-1" d="M50.22,378.75s-5-2.2-7.16,1.16C43.06,379.91,44.23,384.23,50.22,378.75Z"/><path class="cls-1" d="M155.82,336.59l1.68,19.29s1.84,5.57-1.68,7.32L146.21,365s-7,.9-5.21-4.54l-2.48-23.08"/><path class="cls-1" d="M168.79,379.44s8.36,1.82,10.26,0c0,0,5.26-5.5-3.8-9.54h-2.62s-9-5.41-14.65-7l-11.77,2s-12.16,1.81-2.61,11.78c0,0,12.26,5.11,14.38,8.89C158,385.62,167.92,391.22,168.79,379.44Z"/><path class="cls-1" d="M163.18,389.59s7.69,4.88,6.29,10.66C169.47,400.25,163.51,402.35,163.18,389.59Z"/><path class="cls-1" d="M183.12,381.26s4.87-2.68,6.51,3.54C189.63,384.8,188.08,392,183.12,381.26Z"/><path class="cls-1" d="M177,384.89s4.87-2.69,6.51,3.54C183.55,388.43,182,395.58,177,384.89Z"/><path class="cls-1" d="M170.09,388.51s4.87-2.68,6.51,3.54C176.6,392.05,175.05,399.2,170.09,388.51Z"/><path class="cls-1" d="M183.38,375.62s5.19-1.56,7,2C190.34,377.66,188.7,381.8,183.38,375.62Z"/><path class="cls-2" d="M66.55,157.63S.49,104,35.33,55.92H164.25s16.55,54.58-24.83,103.41Z"/><path class="cls-3" d="M71,217.34s-32.13,20.16-33,44.9c0,0-3.49,59.18-6.1,73.68,0,0,4.35,16.31-4.36,25.37,0,0,18.3,8.15,32.23-2.72,0,0,12.2-4,18.29-2,0,0,19.17,7.3,30.49-3.05,0,0,10-3.24,18.51,0,0,0,12.85,6,23.3-2.19,0,0,3.48-2.72,10.45-.91,0,0,24.39,5.44,27.88-2.71,0,0,11.32.9,16.55-1.82,0,0-10.46-16.31-11.33-23.56,0,0-19.16-60.71-24.39-68.86,0,0-14.8-39-33.1-40.78C136.37,212.68,73.46,215.66,71,217.34Z"/><path class="cls-4" d="M79.77,216.12S66.69,239,66.69,240.77,90.24,214.11,79.77,216.12Z"/><path class="cls-4" d="M98.56,216l-.25.55c-.94,2-4.09,9.08-3.53,11.87,0,0,5.88-6.69,8.49-12.12Z"/><path class="cls-4" d="M116.9,216s2.92,10.26,4.67,10.26c0,0,1.15-8.74-1.17-10.26S116.9,216,116.9,216Z"/><path class="cls-4" d="M128.47,214.78s15.74,9.68,16.61,18.74c0,0-17.39-13.71-19.58-18.18S128.47,214.78,128.47,214.78Z"/><path class="cls-5" d="M71.88,182.28s-.4,6.39,4,10.92,1.74,13.59,1.74,13.59L71,217.34s44.52,2.59,65.42-4.66c0,0-4.35-8.15-4.35-10.87,0,0-.87-4.53.87-8.16,0,0,2.61-6.34,0-10S71.88,182.28,71.88,182.28Z"/><path class="cls-1" d="M96.74,31.91S54.93,34.63,44.48,64.53c0,0-1.31,31.26,10,42.13s42.68,28.09,42.68,28.09,7.71,4.54,13,0c4.91-4.2,29.3-19.35,32.75-25.84a10.31,10.31,0,0,1,2-2.69c4.32-4.1,15.95-17.65,12.38-42.14C157.28,64.08,152.92,30.55,96.74,31.91Z"/><path class="cls-6" d="M122.91,63.08h0c1.51-2.39,5-1.17,4.88,1.72h0a2.73,2.73,0,0,0,3.58,2.82h0c2.52-1,4.65,2.22,3,4.51h0a3,3,0,0,0,1.37,4.56h0a3,3,0,0,1,0,5.58h0a3,3,0,0,0-1.37,4.56h0c1.63,2.29-.5,5.48-3,4.51h0a2.73,2.73,0,0,0-3.58,2.82h0c.08,2.89-3.37,4.11-4.88,1.72h0a2.58,2.58,0,0,0-4.43,0h0c-1.51,2.39-5,1.17-4.88-1.72h0A2.73,2.73,0,0,0,110,91.34h0c-2.52,1-4.65-2.22-3-4.51h0a3,3,0,0,0-1.37-4.56h0a3,3,0,0,1,0-5.58h0A3,3,0,0,0,107,72.13h0c-1.63-2.29.5-5.48,3-4.51h0a2.73,2.73,0,0,0,3.58-2.82h0c-.08-2.89,3.37-4.11,4.88-1.72h0A2.57,2.57,0,0,0,122.91,63.08Z"/><path class="cls-6" d="M91.65,63.08h0a2.67,2.67,0,0,1,4.91,1.72h0a2.74,2.74,0,0,0,3.6,2.82h0c2.53-1,4.67,2.22,3,4.51h0a3,3,0,0,0,1.38,4.56h0a3,3,0,0,1,0,5.58h0a3,3,0,0,0-1.38,4.56h0c1.64,2.29-.5,5.48-3,4.51h0a2.74,2.74,0,0,0-3.6,2.82h0a2.67,2.67,0,0,1-4.91,1.72h0a2.59,2.59,0,0,0-4.45,0h0a2.67,2.67,0,0,1-4.91-1.72h0a2.74,2.74,0,0,0-3.6-2.82h0c-2.53,1-4.67-2.22-3-4.51h0a3,3,0,0,0-1.38-4.56h0a3,3,0,0,1,0-5.58h0a3,3,0,0,0,1.38-4.56h0c-1.64-2.29.5-5.48,3-4.51h0a2.74,2.74,0,0,0,3.6-2.82h0a2.67,2.67,0,0,1,4.91-1.72h0A2.59,2.59,0,0,0,91.65,63.08Z"/><path class="cls-7" d="M134.86,67.76s-2.69,3.07-5.67,3.71"/><path class="cls-7" d="M136.27,69.82s-2.7,3.06-5.68,3.71"/><ellipse class="cls-8" cx="89.77" cy="79.03" rx="11.76" ry="12.23"/><ellipse cx="95.61" cy="79.03" rx="5.66" ry="9.51"/><ellipse class="cls-8" cx="120.26" cy="79.03" rx="11.76" ry="12.23"/><ellipse cx="126.8" cy="79.03" rx="5.66" ry="9.51"/><path d="M99,97.29s2.29-4.08,4.76-5.33a13.49,13.49,0,0,1,3.47,3.8,14.7,14.7,0,0,0,.78,1.4,4.82,4.82,0,0,1,.83,3.8s-.33,3.66-5.08,0c0,0-5.42,2.25-5.42-.73C98.3,100.23,98.3,98,99,97.29Z"/><path class="cls-7" d="M85.85,106.66s22.74,14.5,41-4.07"/><path class="cls-7" d="M93.1,107.32s2.33,4.78,2.33,7.5"/><path class="cls-7" d="M101.53,108a19.31,19.31,0,0,1,3.49,7.76"/><path class="cls-7" d="M111.72,107.32s4.62,3,4.62,5.69"/><path class="cls-7" d="M120.69,101.13a28.56,28.56,0,0,1,6.15,6.84"/><ellipse class="cls-9" cx="70.61" cy="96.24" rx="4.36" ry="4.53"/><ellipse class="cls-9" cx="135.07" cy="98.06" rx="4.36" ry="4.53"/><path class="cls-10" d="M78.28,115.67a.54.54,0,0,1-.33-.9c1-1.19,2.92-3.42,3.47-3.57a2.54,2.54,0,0,1,1.71,4,.68.68,0,0,1-.45.28A15.59,15.59,0,0,1,78.28,115.67Z"/><ellipse class="cls-11" cx="73.66" cy="116.18" rx="2.7" ry="3.94" transform="translate(-61.55 141.5) rotate(-68.23)"/><path class="cls-10" d="M69.28,113.3a.53.53,0,0,1-.58.75c-1.49-.29-4.31-.89-4.71-1.31s-.27-3.82,2.43-3.55a.72.72,0,0,1,.46.26A16.48,16.48,0,0,1,69.28,113.3Z"/><path class="cls-10" d="M72.63,112.26a.51.51,0,0,1-.93,0c-.71-1.39-2-4.06-2-4.64.09-.77,2.71-2.61,4.19-.24a.8.8,0,0,1,.09.53A16.89,16.89,0,0,1,72.63,112.26Z"/><path class="cls-10" d="M76.08,113.07a.52.52,0,0,1-.74-.57c.21-1.56.66-4.52,1-5a2.43,2.43,0,0,1,3.52,2.37.78.78,0,0,1-.23.49A16.09,16.09,0,0,1,76.08,113.07Z"/><path class="cls-10" d="M77.73,119.34a.54.54,0,0,1,.25-.92c1.48-.35,4.3-1,4.82-.75.69.29,1.7,3.4-.88,4.26a.63.63,0,0,1-.52-.05A15.58,15.58,0,0,1,77.73,119.34Z"/><path class="cls-10" d="M128.89,114.62a.52.52,0,0,1-.91-.22c-.4-1.52-1.13-4.42-.94-5a2.38,2.38,0,0,1,4.13.71.77.77,0,0,1,0,.54A17.17,17.17,0,0,1,128.89,114.62Z"/><ellipse class="cls-11" cx="126.75" cy="118.91" rx="3.98" ry="2.68" transform="translate(-46.72 108.3) rotate(-39.67)"/><path class="cls-10" d="M122,121.12a.53.53,0,0,1,.27.91c-1,1.14-3.09,3.26-3.64,3.37a2.55,2.55,0,0,1-1.5-4.07.68.68,0,0,1,.46-.25A15.34,15.34,0,0,1,122,121.12Z"/><path class="cls-10" d="M123,117.64a.53.53,0,0,1-.51.8c-1.51-.15-4.38-.48-4.81-.85s-.59-3.79,2.12-3.77a.71.71,0,0,1,.48.22A16.2,16.2,0,0,1,123,117.64Z"/><path class="cls-10" d="M125.59,115.09a.51.51,0,0,1-.87.33c-1.13-1-3.26-3.07-3.39-3.63-.17-.76,1.66-3.43,3.84-1.75a.8.8,0,0,1,.27.47A17.08,17.08,0,0,1,125.59,115.09Z"/><path class="cls-10" d="M131.53,117.12a.52.52,0,0,1-.6-.73c.53-1.48,1.59-4.26,2-4.59a2.47,2.47,0,0,1,2.94,3.11.7.7,0,0,1-.33.42A15.44,15.44,0,0,1,131.53,117.12Z"/><path class="cls-2" d="M101.19,38.12s-3.14,33.2-56.71,26.41l-9.15-8.61s71.43-77,128.92,0L156,59.63S124.37,72.88,101.19,38.12Z"/><rect class="cls-1" x="97.18" y="138.38" width="14.81" height="5.44" rx="2.72"/><rect class="cls-1" x="97.18" y="145.63" width="14.81" height="5.44" rx="2.72"/><rect class="cls-1" x="97.18" y="152.88" width="14.81" height="5.44" rx="2.72"/><path class="cls-1" d="M52.5,183.75s.69,14.89,6.79,14.89S66.55,195,66.55,195s-2.91-9.06-4.21-10.42S56.18,179.74,52.5,183.75Z"/><path class="cls-1" d="M61.9,207.7s2.79,8.4,5.75,11.9,10.8-9.18,10.8-9.18-4.55-9.53-7-8.16C71.48,202.26,67.13,203.17,61.9,207.7Z"/><path class="cls-1" d="M68.66,202.12l-6.13,3.69a2.57,2.57,0,0,1-3.57-1h0a2.78,2.78,0,0,1,1-3.71l6.13-3.68a2.57,2.57,0,0,1,3.57,1h0A2.77,2.77,0,0,1,68.66,202.12Z"/><path class="cls-1" d="M95.43,143.82s-13.93,3.62-20.9,10L83,155.6s6.32-5.44,12.41-4.54C95.43,151.06,98.05,145.63,95.43,143.82Z"/><path class="cls-12" d="M72.38,152.88s29.15,10.87,63.12,3.62c0,0,19.17,9.06,20.91,26.28,0,0-2.62,5.44-13.94,1.81,0,0-4.35,3.63-9.58-.9,0,0-1.69,5.46-10.43,2.27,0,0-3.51,3.16-9.6.44,0,0-2.65-.51-3.94,1.11,0,0-4.19,3.07-12.32-2.64,0,0-1.17-3-6.39-.28,0,0-7,3.63-13.07-.9,0,0-4.35,0-7-2.72a35.05,35.05,0,0,1-7.83,3.62,5.31,5.31,0,0,1-3.49-1.81s-9.58,2.72-8.71-.91S60.66,161.94,72.38,152.88Z"/><path class="cls-1" d="M112.7,143.82s23.67,10,22.8,12.68l-5.3,1.13s-5.83-5.43-16.38-6.9C113.82,150.73,111.67,146.53,112.7,143.82Z"/><path class="cls-13" d="M75.4,166.47s-5.23,6.34-4.35,9.06c0,0,4.35-5.44,4.35-9.06"/><path class="cls-13" d="M86,175.53c.76,1.81,4.25-3.62,3.38-4.53C89.34,171,85.2,173.72,86,175.53Z"/><path class="cls-13" d="M101.53,169.19s-.87,10.74,3,12.62C104.58,181.81,102.4,169.19,101.53,169.19Z"/><path class="cls-13" d="M118.08,164.66s-1.74,12.68,4.36,16.31C122.44,181,120.69,165.56,118.08,164.66Z"/><path class="cls-13" d="M139.37,172.81s.49,4.53,3.1,4.53S139.37,172.81,139.37,172.81Z"/><path class="cls-4" d="M37.4,363.89S52.75,326,50.14,323.23c0,0,7-3.19-8.27,41Z"/><path class="cls-4" d="M62.34,357.81s7.83-28.24,9.58-30.05-5.18,29-5.18,29Z"/><path class="cls-4" d="M100.66,309.64s0,9.06,2.61,12.68,1.75,9.07,1.75,9.07-.87,6.34,2.61,10S110.28,353,110.28,353l4.59-.77s-2-10.92-3.76-13.64c0,0-.87-1.81,0-2.71,0,0,.87-8.16-.87-10.88S99.79,310.54,100.66,309.64Z"/><path class="cls-4" d="M152.32,350.3s-8.11-21.63-7.24-25.26,12.2,24.47,12.2,24.47Z"/><path class="cls-4" d="M174.7,314.17s14.52,33.49,12.05,35.77,2.47-2.28,2.47-2.28S182.54,315.08,174.7,314.17Z"/><path class="cls-14" d="M54.93,59.09s21.78-19,34-19C88.9,40.06,61.9,59.09,54.93,59.09Z"/><path class="cls-14" d="M110.9,39.65S138,48.76,144.43,59.51C144.43,59.51,114.6,45.79,110.9,39.65Z"/><path class="cls-14" d="M43.17,60.45s19-26.79,40.42-29.71C83.59,30.74,57.11,29.64,43.17,60.45Z"/><path class="cls-14" d="M111.24,33.52s31.87,3,45.38,20.53C156.62,54.05,143.79,29.93,111.24,33.52Z"/><path class="cls-14" d="M38.41,74.55s-2.36,41.58,29.8,69.92C68.21,144.47,40.89,101,38.41,74.55Z"/><path class="cls-14" d="M127.1,144.47s34-22,37.69-65.67C164.79,78.8,146.39,127.13,127.1,144.47Z"/><path class="cls-14" d="M64.07,117.67S71.21,137,81.94,146C81.94,146,69.21,120.28,64.07,117.67Z"/><path class="cls-14" d="M116.51,141.14s17.42-10,24.48-22.29C141,118.85,118.29,135.49,116.51,141.14Z"/><path class="cls-15" d="M75.25,18.62h0c.7-1.38,3.1-.94,3.08.56h0c0,1.21,1.65,1.84,2.69,1h0c1.29-1,3.27.22,2.54,1.59h0c-.58,1.09.64,2.26,2,1.87h0C87.19,23.2,88.41,25,87.1,26h0c-1,.8-.48,2.29.91,2.4h0a1.36,1.36,0,0,1,.33,2.69h0a1.31,1.31,0,0,0-.3,2.51h0c1.52.74.76,2.74-1,2.57h0c-1.39-.14-2.3,1.22-1.47,2.19h0c1,1.2-.6,2.77-2.1,2h0c-1.21-.61-2.69.31-2.38,1.49h0c.38,1.46-1.86,2.32-2.88,1.1h0a1.69,1.69,0,0,0-2.87.52h0a1.68,1.68,0,0,1-3.15,0h0A1.7,1.7,0,0,0,69.33,43h0c-1,1.22-3.25.36-2.87-1.1h0c.3-1.18-1.17-2.1-2.38-1.49h0c-1.51.77-3.15-.8-2.11-2h0c.84-1-.07-2.33-1.47-2.19h0c-1.73.17-2.49-1.83-1-2.57h0a1.31,1.31,0,0,0-.31-2.51h0a1.36,1.36,0,0,1,.33-2.69h0c1.4-.11,2-1.6.91-2.4h0c-1.31-1-.08-2.81,1.57-2.34h0c1.33.39,2.55-.78,2-1.87h0c-.72-1.37,1.26-2.6,2.55-1.59h0c1,.81,2.7.18,2.69-1h0c0-1.5,2.37-1.94,3.07-.56h0A1.71,1.71,0,0,0,75.25,18.62Z"/><path class="cls-16" d="M75,20.88h0c.56-1.08,2.51-.74,2.5.44h0c0,.95,1.34,1.45,2.18.81h0c1-.8,2.65.17,2.06,1.24h0c-.47.86.52,1.78,1.6,1.48h0c1.35-.38,2.34,1,1.28,1.84h0c-.85.62-.39,1.79.74,1.88h0c1.41.12,1.62,1.76.27,2.11h0a1,1,0,0,0-.25,2h0c1.23.58.62,2.15-.79,2h0c-1.13-.1-1.88,1-1.2,1.72h0c.85,1-.48,2.18-1.71,1.58h0c-1-.48-2.18.24-1.93,1.17h0c.31,1.15-1.51,1.82-2.33.86h0a1.4,1.4,0,0,0-2.34.41h0a1.37,1.37,0,0,1-2.55,0h0A1.4,1.4,0,0,0,70.19,40h0c-.83,1-2.64.29-2.34-.86h0c.25-.93-.95-1.65-1.93-1.17h0c-1.22.6-2.55-.63-1.71-1.58h0c.68-.76-.06-1.82-1.19-1.72h0c-1.41.14-2-1.43-.79-2h0a1,1,0,0,0-.25-2h0c-1.36-.35-1.15-2,.27-2.11h0c1.13-.09,1.59-1.26.73-1.88h0c-1.06-.79-.07-2.22,1.28-1.84h0c1.08.3,2.07-.62,1.6-1.48h0c-.59-1.07,1-2,2.07-1.24h0c.84.64,2.19.14,2.18-.81h0c0-1.18,1.93-1.52,2.5-.44h0A1.42,1.42,0,0,0,75,20.88Z"/><path class="cls-15" d="M75,23.89h0c.92-1,3-.49,3,.73h0c0,.86,1.1,1.48,2.18,1.19h0c1.54-.41,2.84.94,1.85,1.91h0c-.7.68-.27,1.68.83,1.92h0c1.56.35,1.56,2,0,2.35h0c-1.1.25-1.53,1.25-.83,1.93h0c1,1-.31,2.31-1.85,1.9h0C79.1,35.53,78,36.15,78,37h0c0,1.23-2,1.74-3,.73h0a2,2,0,0,0-2.7,0h0c-.92,1-3,.5-3-.73h0c0-.86-1.1-1.48-2.18-1.19h0c-1.53.41-2.83-.93-1.84-1.9h0c.7-.68.27-1.68-.83-1.93h0c-1.56-.34-1.56-2,0-2.35h0c1.1-.24,1.53-1.24.83-1.92h0c-1-1,.31-2.32,1.84-1.91h0c1.08.29,2.21-.33,2.18-1.19h0c0-1.22,2.06-1.73,3-.73h0A2,2,0,0,0,75,23.89Z"/><path class="cls-16" d="M74.66,25.5h0c.62-.76,2-.37,2,.55h0a1.08,1.08,0,0,0,1.46.9h0c1-.31,1.9.71,1.23,1.44h0a.88.88,0,0,0,.56,1.45h0a.9.9,0,0,1,0,1.78h0a.88.88,0,0,0-.56,1.45h0c.67.73-.2,1.75-1.23,1.44h0a1.08,1.08,0,0,0-1.46.9h0c0,.92-1.37,1.31-2,.55h0a1.2,1.2,0,0,0-1.8,0h0c-.61.76-2,.37-2-.55h0a1.08,1.08,0,0,0-1.46-.9h0c-1,.31-1.89-.71-1.23-1.44h0a.88.88,0,0,0-.56-1.45h0a.9.9,0,0,1,0-1.78h0a.88.88,0,0,0,.56-1.45h0c-.66-.73.21-1.75,1.23-1.44h0a1.08,1.08,0,0,0,1.46-.9h0c0-.92,1.38-1.31,2-.55h0A1.2,1.2,0,0,0,74.66,25.5Z"/><path class="cls-15" d="M74.48,28.35h0c1-.4,2.16.26,2,1.12h0a.94.94,0,0,0,.4.94h0c.8.61.36,1.68-.76,1.8h0a1.39,1.39,0,0,0-1,.58h0a1.55,1.55,0,0,1-2.44,0h0a1.4,1.4,0,0,0-1-.58h0c-1.11-.12-1.56-1.19-.75-1.8h0a.93.93,0,0,0,.39-.94h0c-.19-.86,1-1.52,2-1.12h0A1.65,1.65,0,0,0,74.48,28.35Z"/><path class="cls-15" d="M50,25.87h0c.7-1.38,3.1-.94,3.08.56h0c0,1.21,1.65,1.84,2.69,1h0c1.29-1,3.27.22,2.54,1.59h0c-.58,1.09.64,2.26,2,1.87h0c1.66-.47,2.88,1.35,1.57,2.34h0c-1.05.8-.48,2.29.91,2.4h0a1.36,1.36,0,0,1,.33,2.69h0a1.31,1.31,0,0,0-.31,2.51h0c1.53.74.77,2.74-1,2.57h0c-1.39-.14-2.3,1.22-1.47,2.19h0c1,1.2-.6,2.76-2.1,2h0c-1.21-.61-2.69.31-2.38,1.49h0c.37,1.46-1.86,2.32-2.88,1.1h0a1.69,1.69,0,0,0-2.87.52h0a1.68,1.68,0,0,1-3.15,0h0a1.7,1.7,0,0,0-2.88-.52h0c-1,1.22-3.25.36-2.87-1.1h0c.3-1.18-1.17-2.1-2.38-1.49h0c-1.51.76-3.15-.8-2.11-2h0c.84-1-.07-2.33-1.47-2.19h0c-1.73.17-2.49-1.83-1-2.57h0A1.31,1.31,0,0,0,34,38.35h0a1.36,1.36,0,0,1,.33-2.69h0c1.4-.11,2-1.6.91-2.4h0c-1.31-1-.08-2.81,1.57-2.34h0c1.33.39,2.55-.78,2-1.87h0c-.72-1.37,1.26-2.6,2.55-1.59h0c1,.81,2.7.18,2.69-1h0c0-1.5,2.37-1.94,3.07-.56h0A1.72,1.72,0,0,0,50,25.87Z"/><path class="cls-16" d="M49.74,28.13h0c.56-1.08,2.51-.74,2.5.44h0c0,.95,1.34,1.45,2.18.81h0c1-.8,2.65.17,2.06,1.24h0c-.47.86.52,1.78,1.6,1.48h0c1.35-.38,2.34,1,1.28,1.83h0c-.85.63-.39,1.8.74,1.89h0c1.41.12,1.62,1.76.27,2.11h0a1,1,0,0,0-.25,2h0c1.23.58.62,2.15-.79,2h0c-1.13-.1-1.88,1-1.2,1.72h0c.85,1-.48,2.18-1.71,1.58h0c-1-.48-2.18.24-1.93,1.16h0c.31,1.16-1.51,1.83-2.33.87h0a1.4,1.4,0,0,0-2.34.41h0a1.37,1.37,0,0,1-2.55,0h0a1.4,1.4,0,0,0-2.34-.41h0c-.83,1-2.64.29-2.34-.87h0c.25-.92-1-1.64-1.93-1.16h0c-1.22.6-2.55-.63-1.71-1.58h0c.68-.76-.06-1.82-1.19-1.72h0c-1.41.14-2-1.43-.79-2h0a1,1,0,0,0-.25-2h0c-1.36-.35-1.15-2,.27-2.11h0c1.13-.09,1.59-1.26.73-1.89h0c-1.06-.78-.07-2.21,1.28-1.83h0c1.08.3,2.07-.62,1.6-1.48h0c-.59-1.07,1-2,2.07-1.24h0c.84.64,2.19.14,2.18-.81h0c0-1.18,1.93-1.52,2.5-.44h0A1.42,1.42,0,0,0,49.74,28.13Z"/><path class="cls-15" d="M49.77,31.14h0c.92-1,3-.49,3,.73h0c0,.86,1.1,1.48,2.18,1.19h0c1.54-.41,2.84.94,1.84,1.9h0c-.69.69-.26,1.69.84,1.93h0c1.56.35,1.56,2,0,2.35h0c-1.1.25-1.53,1.25-.84,1.93h0c1,1-.3,2.31-1.84,1.9h0c-1.08-.29-2.21.33-2.18,1.19h0c0,1.23-2.05,1.74-3,.73h0a2,2,0,0,0-2.7,0h0c-.92,1-3,.5-3-.73h0c0-.86-1.1-1.48-2.18-1.19h0c-1.53.41-2.83-.93-1.84-1.9h0c.7-.68.27-1.68-.83-1.93h0c-1.56-.34-1.56-2,0-2.35h0c1.1-.24,1.53-1.24.83-1.93h0c-1-1,.31-2.31,1.84-1.9h0c1.08.29,2.21-.33,2.18-1.19h0c0-1.22,2.06-1.74,3-.73h0A2,2,0,0,0,49.77,31.14Z"/><path class="cls-16" d="M49.4,32.75h0c.62-.76,2-.37,2,.55h0a1.08,1.08,0,0,0,1.46.9h0c1-.31,1.9.71,1.23,1.44h0a.88.88,0,0,0,.56,1.45h0a.9.9,0,0,1,0,1.78h0a.88.88,0,0,0-.56,1.45h0c.67.73-.2,1.75-1.23,1.44h0a1.08,1.08,0,0,0-1.46.9h0c0,.92-1.37,1.31-2,.55h0a1.2,1.2,0,0,0-1.8,0h0c-.61.76-2,.37-2-.55h0a1.08,1.08,0,0,0-1.46-.9h0c-1,.31-1.89-.71-1.23-1.44h0a.88.88,0,0,0-.56-1.45h0a.9.9,0,0,1,0-1.78h0a.88.88,0,0,0,.56-1.45h0c-.66-.73.21-1.75,1.23-1.44h0a1.08,1.08,0,0,0,1.46-.9h0c0-.92,1.38-1.31,2-.55h0A1.2,1.2,0,0,0,49.4,32.75Z"/><path class="cls-15" d="M49.22,35.6h0c1-.41,2.16.25,2,1.12h0a.94.94,0,0,0,.4.94h0c.8.61.36,1.68-.76,1.8h0a1.39,1.39,0,0,0-1,.58h0a1.55,1.55,0,0,1-2.44,0h0a1.4,1.4,0,0,0-1-.58h0c-1.11-.12-1.56-1.19-.75-1.8h0a.93.93,0,0,0,.39-.94h0c-.19-.87,1-1.53,2-1.12h0A1.65,1.65,0,0,0,49.22,35.6Z"/><path class="cls-15" d="M102.26,15.9h0c.69-1.37,3.09-.94,3.07.56h0c0,1.21,1.66,1.84,2.69,1h0c1.29-1,3.27.22,2.55,1.59h0c-.59,1.09.63,2.26,2,1.88h0c1.66-.48,2.89,1.34,1.58,2.33h0c-1,.8-.49,2.29.91,2.41h0a1.35,1.35,0,0,1,.32,2.68h0a1.31,1.31,0,0,0-.3,2.51h0c1.52.74.76,2.74-1,2.57h0c-1.4-.13-2.31,1.22-1.48,2.19h0c1,1.21-.59,2.77-2.1,2h0c-1.21-.62-2.68.31-2.38,1.48h0c.38,1.47-1.86,2.32-2.87,1.1h0a1.7,1.7,0,0,0-2.88.52h0a1.68,1.68,0,0,1-3.15,0h0a1.7,1.7,0,0,0-2.88-.52h0c-1,1.22-3.25.37-2.87-1.1h0c.31-1.17-1.17-2.1-2.38-1.48h0c-1.51.76-3.14-.8-2.1-2h0c.83-1-.08-2.32-1.47-2.19h0c-1.74.17-2.5-1.83-1-2.57h0a1.31,1.31,0,0,0-.3-2.51h0a1.35,1.35,0,0,1,.32-2.68h0c1.4-.12,2-1.61.91-2.41h0c-1.31-1-.08-2.81,1.58-2.33h0c1.33.38,2.55-.79,2-1.88h0c-.73-1.37,1.25-2.6,2.54-1.59h0c1,.81,2.7.18,2.69-1h0c0-1.5,2.38-1.93,3.07-.56h0A1.72,1.72,0,0,0,102.26,15.9Z"/><path class="cls-16" d="M102,18.16h0c.57-1.08,2.51-.74,2.5.44h0c0,.95,1.34,1.45,2.18.81h0c1-.8,2.66.17,2.07,1.25h0c-.48.86.52,1.77,1.6,1.47h0c1.34-.37,2.34,1.06,1.27,1.84h0c-.85.62-.39,1.79.74,1.89h0c1.41.11,1.62,1.75.27,2.1h0a1,1,0,0,0-.25,2h0c1.23.58.62,2.15-.79,2h0c-1.13-.11-1.87.95-1.2,1.71h0c.85.95-.48,2.18-1.7,1.58h0c-1-.48-2.18.24-1.94,1.17h0c.31,1.15-1.51,1.82-2.33.86h0a1.41,1.41,0,0,0-2.34.41h0a1.37,1.37,0,0,1-2.55,0h0a1.41,1.41,0,0,0-2.34-.41h0c-.82,1-2.64.29-2.33-.86h0c.24-.93-1-1.65-1.94-1.17h0c-1.22.6-2.55-.63-1.71-1.58h0c.68-.76-.06-1.82-1.19-1.71h0c-1.41.13-2-1.44-.79-2h0A1,1,0,0,0,89,28h0c-1.35-.35-1.15-2,.27-2.1h0c1.13-.1,1.59-1.27.74-1.89h0c-1.07-.78-.07-2.21,1.27-1.84h0c1.08.3,2.07-.61,1.6-1.47h0c-.59-1.08,1-2.05,2.07-1.25h0c.84.64,2.19.14,2.18-.81h0c0-1.18,1.93-1.52,2.5-.44h0A1.42,1.42,0,0,0,102,18.16Z"/><path class="cls-15" d="M102,21.18h0c.92-1,3-.5,3,.72h0c0,.87,1.1,1.48,2.18,1.19h0C108.72,22.68,110,24,109,25h0c-.7.68-.27,1.68.83,1.92h0c1.56.35,1.56,2,0,2.36h0c-1.1.24-1.53,1.24-.83,1.92h0c1,1-.31,2.32-1.84,1.91h0c-1.08-.29-2.22.32-2.18,1.19h0c0,1.22-2.06,1.73-3,.72h0a2,2,0,0,0-2.7,0h0c-.92,1-3,.5-3-.72h0c0-.87-1.09-1.48-2.17-1.19h0c-1.54.41-2.84-.94-1.85-1.91h0c.7-.68.27-1.68-.83-1.92h0c-1.56-.35-1.56-2,0-2.36h0c1.1-.24,1.53-1.24.83-1.92h0c-1-1,.31-2.32,1.85-1.91h0c1.08.29,2.21-.32,2.17-1.19h0c0-1.22,2.06-1.73,3-.72h0A2,2,0,0,0,102,21.18Z"/><path class="cls-16" d="M101.66,22.78h0c.62-.76,2-.37,2,.55h0a1.07,1.07,0,0,0,1.45.9h0c1-.31,1.9.71,1.24,1.44h0a.88.88,0,0,0,.55,1.45h0a.9.9,0,0,1,0,1.78h0a.88.88,0,0,0-.55,1.45h0c.66.74-.21,1.75-1.24,1.44h0a1.07,1.07,0,0,0-1.45.9h0c0,.92-1.38,1.31-2,.55h0a1.2,1.2,0,0,0-1.8,0h0c-.61.76-2,.37-2-.55h0a1.07,1.07,0,0,0-1.46-.9h0c-1,.31-1.89-.7-1.23-1.44h0a.88.88,0,0,0-.55-1.45h0a.9.9,0,0,1,0-1.78h0a.88.88,0,0,0,.55-1.45h0c-.66-.73.21-1.75,1.23-1.44h0a1.07,1.07,0,0,0,1.46-.9h0c0-.92,1.38-1.31,2-.55h0A1.2,1.2,0,0,0,101.66,22.78Z"/><path class="cls-15" d="M101.48,25.64h0c1-.41,2.17.25,2,1.11h0a.91.91,0,0,0,.39.94h0c.81.61.36,1.68-.76,1.8h0a1.39,1.39,0,0,0-1,.58h0a1.55,1.55,0,0,1-2.44,0h0a1.39,1.39,0,0,0-1-.58h0c-1.12-.12-1.57-1.19-.76-1.8h0a.91.91,0,0,0,.39-.94h0c-.19-.86,1-1.52,2-1.11h0A1.71,1.71,0,0,0,101.48,25.64Z"/><path class="cls-15" d="M128.39,20.43h0c.69-1.37,3.09-.94,3.07.56h0c0,1.21,1.66,1.85,2.69,1h0c1.29-1,3.27.22,2.55,1.59h0c-.59,1.09.64,2.26,2,1.88h0c1.65-.48,2.88,1.34,1.57,2.33h0c-1.05.8-.49,2.29.91,2.41h0a1.35,1.35,0,0,1,.33,2.68h0a1.31,1.31,0,0,0-.31,2.51h0c1.52.74.76,2.74-1,2.57h0c-1.4-.13-2.31,1.22-1.47,2.19h0c1,1.21-.6,2.77-2.11,2h0c-1.21-.61-2.68.31-2.38,1.48h0c.38,1.47-1.86,2.32-2.87,1.1h0a1.7,1.7,0,0,0-2.88.52h0a1.67,1.67,0,0,1-3.15,0h0a1.69,1.69,0,0,0-2.87-.52h0c-1,1.22-3.26.37-2.88-1.1h0c.31-1.17-1.17-2.09-2.38-1.48h0c-1.5.76-3.14-.8-2.1-2h0c.83-1-.08-2.32-1.47-2.19h0c-1.74.17-2.5-1.83-1-2.57h0a1.31,1.31,0,0,0-.3-2.51h0a1.35,1.35,0,0,1,.33-2.68h0c1.39-.12,2-1.61.91-2.41h0c-1.31-1-.09-2.81,1.57-2.33h0c1.33.38,2.55-.79,2-1.88h0c-.73-1.37,1.25-2.6,2.54-1.59h0c1,.82,2.7.18,2.69-1h0c0-1.5,2.38-1.93,3.08-.56h0A1.71,1.71,0,0,0,128.39,20.43Z"/><path class="cls-16" d="M128.13,22.69h0c.57-1.08,2.51-.74,2.5.44h0c0,.95,1.34,1.45,2.18.81h0c1.05-.8,2.66.17,2.07,1.25h0c-.47.86.52,1.77,1.6,1.47h0c1.34-.37,2.34,1.06,1.27,1.84h0c-.85.62-.39,1.8.74,1.89h0c1.42.11,1.62,1.75.27,2.11h0a1,1,0,0,0-.25,2h0c1.24.58.62,2.15-.79,2h0c-1.13-.11-1.87.95-1.19,1.72h0c.84.94-.49,2.17-1.71,1.57h0c-1-.48-2.18.24-1.94,1.17h0c.31,1.15-1.51,1.82-2.33.86h0a1.41,1.41,0,0,0-2.34.41h0a1.37,1.37,0,0,1-2.55,0h0a1.41,1.41,0,0,0-2.34-.41h0c-.82,1-2.64.29-2.33-.86h0c.24-.93-.95-1.65-1.94-1.17h0c-1.22.6-2.55-.63-1.7-1.57h0c.67-.77-.07-1.83-1.2-1.72h0c-1.41.13-2-1.44-.79-2h0a1,1,0,0,0-.25-2h0c-1.35-.36-1.14-2,.27-2.11h0c1.13-.09,1.59-1.27.74-1.89h0c-1.07-.78-.07-2.21,1.27-1.84h0c1.08.3,2.08-.61,1.6-1.47h0c-.59-1.08,1-2.05,2.07-1.25h0c.84.64,2.19.14,2.18-.81h0c0-1.18,1.93-1.52,2.5-.44h0A1.42,1.42,0,0,0,128.13,22.69Z"/><path class="cls-15" d="M128.16,25.71h0c.92-1,3-.5,3,.72h0c0,.87,1.1,1.48,2.18,1.19h0c1.53-.41,2.83.94,1.84,1.91h0c-.7.68-.27,1.68.83,1.92h0c1.56.35,1.56,2,0,2.36h0c-1.1.24-1.53,1.24-.83,1.92h0c1,1-.31,2.32-1.84,1.91h0c-1.08-.29-2.21.32-2.18,1.19h0c0,1.22-2.06,1.73-3,.72h0a2,2,0,0,0-2.69,0h0c-.92,1-3,.5-3-.72h0c0-.87-1.1-1.48-2.18-1.19h0c-1.54.41-2.84-.94-1.84-1.91h0c.7-.68.26-1.68-.84-1.92h0c-1.56-.35-1.56-2,0-2.36h0c1.1-.24,1.54-1.24.84-1.92h0c-1-1,.3-2.32,1.84-1.91h0c1.08.29,2.21-.32,2.18-1.19h0c0-1.22,2.05-1.73,3-.72h0A2,2,0,0,0,128.16,25.71Z"/><path class="cls-16" d="M127.8,27.32h0c.61-.77,2-.38,2,.54h0a1.07,1.07,0,0,0,1.46.9h0c1-.31,1.89.71,1.23,1.44h0a.88.88,0,0,0,.55,1.45h0a.9.9,0,0,1,0,1.78h0a.89.89,0,0,0-.55,1.46h0c.66.73-.21,1.74-1.23,1.43h0a1.07,1.07,0,0,0-1.46.9h0c0,.92-1.38,1.31-2,.55h0a1.21,1.21,0,0,0-1.81,0h0c-.61.76-2,.37-2-.55h0a1.07,1.07,0,0,0-1.45-.9h0c-1,.31-1.9-.7-1.24-1.43h0a.89.89,0,0,0-.55-1.46h0a.9.9,0,0,1,0-1.78h0a.88.88,0,0,0,.55-1.45h0c-.66-.73.21-1.75,1.24-1.44h0a1.06,1.06,0,0,0,1.45-.9h0c0-.92,1.38-1.31,2-.54h0A1.23,1.23,0,0,0,127.8,27.32Z"/><path class="cls-15" d="M127.61,30.17h0c1-.41,2.17.25,2,1.11h0a.91.91,0,0,0,.39.94h0c.81.61.36,1.68-.75,1.81h0a1.39,1.39,0,0,0-1,.57h0a1.55,1.55,0,0,1-2.44,0h0a1.38,1.38,0,0,0-1-.57h0c-1.12-.13-1.56-1.2-.76-1.81h0a.91.91,0,0,0,.39-.94h0c-.19-.86,1-1.52,2-1.11h0A1.71,1.71,0,0,0,127.61,30.17Z"/><path class="cls-15" d="M154.52,27.68h0c.7-1.37,3.09-.94,3.08.56h0c0,1.21,1.65,1.84,2.68,1h0c1.29-1,3.27.22,2.55,1.59h0c-.58,1.09.64,2.26,2,1.88h0c1.65-.48,2.88,1.34,1.57,2.33h0c-1.05.8-.49,2.29.91,2.41h0a1.35,1.35,0,0,1,.33,2.68h0a1.31,1.31,0,0,0-.31,2.51h0c1.52.74.76,2.74-1,2.57h0c-1.4-.14-2.31,1.22-1.47,2.19h0c1,1.21-.6,2.77-2.11,2h0c-1.21-.62-2.68.3-2.38,1.48h0c.38,1.47-1.86,2.32-2.87,1.1h0a1.7,1.7,0,0,0-2.88.52h0a1.67,1.67,0,0,1-3.14,0h0A1.7,1.7,0,0,0,148.6,52h0c-1,1.22-3.25.37-2.88-1.1h0c.31-1.18-1.17-2.1-2.38-1.48h0c-1.5.76-3.14-.8-2.1-2h0c.83-1-.08-2.33-1.47-2.19h0c-1.74.17-2.5-1.83-1-2.57h0a1.31,1.31,0,0,0-.31-2.51h0a1.35,1.35,0,0,1,.33-2.68h0c1.39-.12,2-1.61.91-2.41h0c-1.31-1-.09-2.81,1.57-2.33h0c1.33.38,2.55-.79,2-1.88h0c-.73-1.37,1.25-2.6,2.54-1.59h0c1,.81,2.7.18,2.69-1h0c0-1.5,2.38-1.93,3.08-.56h0A1.71,1.71,0,0,0,154.52,27.68Z"/><path class="cls-16" d="M154.26,29.94h0c.57-1.08,2.51-.74,2.5.44h0c0,.95,1.34,1.45,2.18.81h0c1.05-.8,2.66.17,2.07,1.25h0c-.47.86.52,1.77,1.6,1.47h0c1.34-.37,2.34,1.06,1.28,1.84h0c-.86.62-.4,1.79.73,1.88h0c1.42.12,1.62,1.76.27,2.11h0a1,1,0,0,0-.25,2h0c1.24.58.62,2.15-.79,2h0c-1.13-.11-1.87.95-1.19,1.71h0c.84.95-.49,2.18-1.71,1.58h0c-1-.48-2.18.24-1.94,1.17h0c.31,1.15-1.5,1.82-2.33.86h0a1.41,1.41,0,0,0-2.34.41h0a1.37,1.37,0,0,1-2.55,0h0a1.41,1.41,0,0,0-2.34-.41h0c-.82,1-2.64.29-2.33-.86h0c.25-.93-1-1.65-1.93-1.17h0c-1.23.6-2.56-.63-1.71-1.58h0c.67-.76-.07-1.82-1.2-1.71h0c-1.41.13-2-1.44-.79-2h0a1,1,0,0,0-.25-2h0c-1.35-.35-1.14-2,.27-2.11h0c1.13-.09,1.59-1.26.74-1.88h0c-1.06-.78-.07-2.21,1.28-1.84h0c1.08.3,2.07-.61,1.59-1.47h0c-.58-1.08,1-2,2.07-1.25h0c.84.64,2.19.14,2.18-.81h0c0-1.18,1.94-1.52,2.5-.44h0A1.42,1.42,0,0,0,154.26,29.94Z"/><path class="cls-15" d="M154.29,33h0c.92-1,3-.5,3,.72h0c0,.87,1.1,1.48,2.18,1.19h0c1.53-.41,2.83.94,1.84,1.91h0c-.7.68-.27,1.68.83,1.92h0c1.56.35,1.56,2,0,2.36h0c-1.1.24-1.53,1.24-.83,1.92h0c1,1-.31,2.32-1.84,1.91h0c-1.08-.29-2.21.32-2.18,1.18h0c0,1.23-2.06,1.74-3,.73h0a2,2,0,0,0-2.69,0h0c-.92,1-3,.5-3-.73h0c0-.86-1.1-1.47-2.18-1.18h0c-1.54.41-2.84-.94-1.84-1.91h0c.7-.68.26-1.68-.84-1.92h0c-1.56-.35-1.56-2,0-2.36h0c1.1-.24,1.54-1.24.84-1.92h0c-1-1,.3-2.32,1.84-1.91h0c1.08.29,2.21-.32,2.18-1.19h0c-.05-1.22,2.06-1.73,3-.72h0A2,2,0,0,0,154.29,33Z"/><path class="cls-16" d="M153.93,34.56h0c.61-.76,2-.37,2,.55h0a1.07,1.07,0,0,0,1.46.9h0c1-.31,1.89.71,1.23,1.44h0a.88.88,0,0,0,.55,1.45h0a.9.9,0,0,1,0,1.78h0a.88.88,0,0,0-.55,1.45h0c.66.74-.21,1.75-1.23,1.44h0a1.07,1.07,0,0,0-1.46.9h0c0,.92-1.38,1.31-2,.55h0a1.2,1.2,0,0,0-1.8,0h0c-.62.76-2,.37-2-.55h0a1.07,1.07,0,0,0-1.45-.9h0c-1,.31-1.9-.7-1.23-1.44h0a.88.88,0,0,0-.56-1.45h0a.9.9,0,0,1,0-1.78h0a.88.88,0,0,0,.56-1.45h0c-.67-.73.2-1.75,1.23-1.44h0a1.07,1.07,0,0,0,1.45-.9h0c0-.92,1.38-1.31,2-.55h0A1.2,1.2,0,0,0,153.93,34.56Z"/><path class="cls-15" d="M153.75,37.42h0c1-.41,2.16.25,2,1.11h0a.91.91,0,0,0,.39.94h0c.81.61.36,1.68-.75,1.8h0a1.4,1.4,0,0,0-1,.58h0a1.55,1.55,0,0,1-2.44,0h0a1.39,1.39,0,0,0-1-.58h0c-1.12-.12-1.56-1.19-.76-1.8h0a.94.94,0,0,0,.4-.94h0c-.19-.86,1-1.52,2-1.11h0A1.74,1.74,0,0,0,153.75,37.42Z"/><path class="cls-7" d="M80.57,71.07s-3.77-1.67-5.24-4.28"/><path class="cls-7" d="M79.17,73.81s-3.78-1.67-5.24-4.28"/></g></g></svg>