<svg xmlns="http://www.w3.org/2000/svg" width="225" height="415" viewBox="0 0 225 415"><defs><style>.cls-1{fill:#fff;}.cls-2{fill:#e0d982;}.cls-3{fill:#f3983e;}.cls-4{fill:#dd2458;}.cls-5{fill:#d6ba1a;}.cls-6{fill:#e3933a;}.cls-7{fill:#dbdad9;}.cls-8{fill:#f9c847;}.cls-9{fill:#c14a29;}.cls-10{fill:none;stroke:#000;stroke-miterlimit:10;}.cls-11{fill:#25bf25;}.cls-12{fill:#2692db;}.cls-13{fill:#a84726;}.cls-14{fill:#2a6d21;}.cls-15{fill:#c1b867;}</style></defs><g id="Animated_items" data-name="Animated items"><g id="happy_left" data-name="happy left"><path class="cls-1" d="M37.21,267.6l13.32-1.49,2.59,8.38a18.63,18.63,0,0,1-14.61,0Z"/><path class="cls-1" d="M38.51,274.49s-8.75,1.67-8.75,8.38c0,0,0,5.86,1.73,8.38,0,0,2.6,3.35,6.06.84a6.39,6.39,0,0,1,6.06,0,7.36,7.36,0,0,0,5.67.4,4.55,4.55,0,0,1,2.14-.05c.91.2,2.34.08,3.44-2,0,0,2.59-5.87.86-9.22h0s-.86-5.87-2.6-6.7S38.51,274.49,38.51,274.49Z"/><path class="cls-1" d="M29.55,291.94s-7.14-.23-4.76,3.91C24.79,295.85,27.65,298.39,29.55,291.94Z"/><path class="cls-1" d="M34.23,294.93s-9,3.91-3.44,7.24C30.79,302.17,35.94,303.39,34.23,294.93Z"/><path class="cls-1" d="M42,295.18s-6.72,7-.24,8C41.76,303.15,47,302.32,42,295.18Z"/><path class="cls-1" d="M50.31,295.18s-4.62,8.46,1.89,7.76C52.2,302.94,57,300.83,50.31,295.18Z"/><path class="cls-1" d="M57.18,289.71s1.45,10.86,7.13,6.06C64.31,295.77,67.43,290.72,57.18,289.71Z"/><path class="cls-1" d="M196.32,252.34l-13.37.9L182,262a18.58,18.58,0,0,0,14.35-2.61Z"/><path class="cls-1" d="M196.35,259.34s8.91.08,10.19,6.67c0,0,1.12,5.77-.1,8.55a4.27,4.27,0,0,1-5.79,1.9,6.39,6.39,0,0,0-6,1.09,7.22,7.22,0,0,1-5.21,1.43,6,6,0,0,0-2.48.33c-.86.34-2.25.42-3.68-1.4,0,0-3.67-5.31-2.6-8.91h0s-.27-5.92,1.27-7.05S196.35,259.34,196.35,259.34Z"/><path class="cls-1" d="M208.48,274.89s7-1.5,5.41,3C213.89,277.89,211.57,280.89,208.48,274.89Z"/><path class="cls-1" d="M204.45,278.66s9.6,2.24,4.76,6.51C209.21,285.17,204.38,287.28,204.45,278.66Z"/><path class="cls-1" d="M196.86,280.3s7.94,5.69,1.76,7.79C198.62,288.09,193.32,288.21,196.86,280.3Z"/><path class="cls-1" d="M188.7,281.78s6.15,7.49-.38,8C188.32,289.74,183.17,288.53,188.7,281.78Z"/><path class="cls-1" d="M180.92,277.63s.64,10.93-5.85,7.23C175.07,284.86,171,280.46,180.92,277.63Z"/><path class="cls-2" d="M71.3,251S60,331.3,64.76,344.38c0,0,33.8,4.28,45.92.93,0,0,10.32-52.43,11.65-97l5.28,9.1s2,85.47,3.34,89.22c0,0,33.73,3,55.19-2.48,0,0-20.94-101.89-22.67-102.73S71.3,251,71.3,251Z"/><path class="cls-3" d="M72.43,141.64s-27.62-.18-34.72,46.22c0,0-7.09,30.47-11.41,55.62,0,0-11.85,30.71,23.07,23.31,0,0,80.74-2.19,133.84-12.87a54.19,54.19,0,0,1,9.84-1.08c8.46-.13,26.21-3,13.31-26.29a32.26,32.26,0,0,1-4-13.45c-1.06-15.46-4.06-49.35-10.35-57.3,0,0-10-17.93-28.56-18.35S72.43,141.64,72.43,141.64Z"/><path class="cls-4" d="M48.37,105S46.3,112,51.12,115.94,51,105.54,48.37,105Z"/><path class="cls-5" d="M56.67,123.62s-9.12-.2-4.14-7C52.53,116.64,61.3,117.91,56.67,123.62Z"/><path class="cls-4" d="M172.76,60.76s-2,6.42,2.66,10.1S175.26,61.25,172.76,60.76Z"/><path class="cls-5" d="M180.77,77.94s-8.8-.18-4-6.45C176.77,71.49,185.24,72.67,180.77,77.94Z"/><path class="cls-6" d="M53,86.19,28.58,100.81s-3.3,4.39,21,4.8L169,67.59s22.57-17.72,23-24C192,43.58,187.27,10.47,53,86.19Z"/><path class="cls-1" d="M55.75,82.17C70.93,64,115.67,22.77,177.63,74.24A8.5,8.5,0,0,1,180,77.3c3.34,7.52,13.34,36.32-16.48,60.15,0,0-12.12,7.54-15.58,15.09,0,0-3.46,10.89-15.58,9.22l-21.94.17a40.1,40.1,0,0,1-11-3.61,15.91,15.91,0,0,1-5.65-4.74c-1.83-2.44-5.88-6.13-14.23-7.75,0,0-28.71-12.51-29.92-45.77A26.4,26.4,0,0,1,55.75,82.17Z"/><ellipse class="cls-7" cx="102.02" cy="93.87" rx="15.58" ry="14.25"/><ellipse cx="94.46" cy="96.18" rx="7.78" ry="10.07" transform="translate(-22.54 29.22) rotate(-15.74)"/><ellipse class="cls-7" cx="140.1" cy="93.03" rx="15.58" ry="14.25"/><path class="cls-8" d="M30.7,78.08c-1.34.58-6.05,3.46-6.29,15,0,0-2.87,13.41,9.24,5,0,0,53.66-38.56,142.8-57,0,0,17.31-1.68,15.58,2.51A14.62,14.62,0,0,0,188.56,31s0-3.35-14.71-2.52c0,0-69.64,3.33-142.08,49A8.55,8.55,0,0,1,30.7,78.08Z"/><path class="cls-8" d="M67.84,18s22.5-10.9,38.94-12.58c0,0,6.06-2.51,14.71,5l24.34,21.9L61.64,60.8S59.18,39,59.18,37.29,54,22.21,67.84,18Z"/><path class="cls-9" d="M95.53,33.94l-35.63,11L61.64,60.8l20-9s40.69-15.64,45.05-15c0,0,18.42-4.24,19.17-4.34L133.09,20.91Z"/><path class="cls-4" d="M56.86,84.06s-2.29,8.67,3,13.64S59.72,84.72,56.86,84.06Z"/><path class="cls-5" d="M66,107.28S56,107,61.46,98.56C61.46,98.56,71.18,100.15,66,107.28Z"/><path class="cls-4" d="M191,42.15s-2.29,8.67,3.05,13.64S193.87,42.81,191,42.15Z"/><path class="cls-5" d="M200.19,65.37s-10.1-.25-4.59-8.72C195.6,56.65,205.32,58.25,200.19,65.37Z"/><path class="cls-4" d="M25.35,100.09s4.41,11.8,8.74,13.47S30.46,106.74,25.35,100.09Z"/><path class="cls-5" d="M40.08,122.36s-10.09-.25-4.58-8.71C35.5,113.65,45.21,115.24,40.08,122.36Z"/><path class="cls-10" d="M92.5,133.26s19.91,14.25,51.06-1.68"/><path class="cls-10" d="M100,131.58a16.16,16.16,0,0,0-.55,8.39"/><path class="cls-10" d="M107.21,134.1a13,13,0,0,0,.87,7.54"/><path class="cls-10" d="M118.76,135a23.19,23.19,0,0,1,1.57,7.5"/><path class="cls-10" d="M130.58,132.42a16.08,16.08,0,0,1,2.41,7.13"/><path d="M113.27,115.66s3-4.67,6.28-6.11a16.69,16.69,0,0,1,4.57,4.36c.33.54.65,1.09,1,1.6.71.94,1.68,2.66,1.1,4.34,0,0-.43,4.19-6.7,0,0,0-7.14,2.57-7.14-.84C112.41,119,112.41,116.5,113.27,115.66Z"/><ellipse class="cls-11" cx="82.55" cy="92.19" rx="2.6" ry="2.1"/><ellipse class="cls-11" cx="84.28" cy="85.49" rx="2.11" ry="2.58" transform="translate(-27.12 130.21) rotate(-67.28)"/><ellipse class="cls-11" cx="90.34" cy="79.62" rx="2.14" ry="2.54" transform="translate(-29.28 65.77) rotate(-34.79)"/><ellipse class="cls-11" cx="98.99" cy="76.27" rx="2.16" ry="2.52" transform="translate(-8.07 11.82) rotate(-6.57)"/><ellipse class="cls-11" cx="108.51" cy="77.11" rx="2.52" ry="2.16" transform="translate(-0.15 154) rotate(-70.68)"/><ellipse class="cls-11" cx="115.44" cy="80.46" rx="2.56" ry="2.13" transform="translate(-24.72 92.93) rotate(-39.96)"/><ellipse class="cls-11" cx="120.63" cy="88" rx="2.58" ry="2.1" transform="translate(-23.25 48.06) rotate(-20.59)"/><ellipse class="cls-11" cx="120.63" cy="97.22" rx="2.1" ry="2.59" transform="translate(2.3 197.23) rotate(-79.07)"/><ellipse class="cls-11" cx="118.03" cy="103.93" rx="2.12" ry="2.57" transform="translate(-32.27 150.19) rotate(-58.47)"/><ellipse class="cls-11" cx="111.97" cy="108.95" rx="2.14" ry="2.54" transform="translate(-42.15 83.36) rotate(-34.79)"/><ellipse class="cls-11" cx="104.19" cy="112.31" rx="2.16" ry="2.51" transform="translate(-6.44 6.34) rotate(-3.38)"/><ellipse class="cls-11" cx="96.96" cy="110.96" rx="2.52" ry="2.16" transform="translate(-39.82 165.76) rotate(-70.68)"/><ellipse class="cls-11" cx="89.17" cy="107.61" rx="2.55" ry="2.13" transform="translate(-49.84 93.24) rotate(-44.45)"/><ellipse class="cls-11" cx="83.98" cy="101.74" rx="2.57" ry="2.11" transform="translate(-38.56 52.87) rotate(-28.72)"/><ellipse class="cls-11" cx="123.22" cy="82.13" rx="2.11" ry="2.58" transform="translate(-0.13 164.08) rotate(-67.28)"/><ellipse class="cls-11" cx="128.42" cy="78.78" rx="2.14" ry="2.54" transform="translate(-22 87.35) rotate(-34.79)"/><ellipse class="cls-11" cx="137.07" cy="75.43" rx="2.16" ry="2.52" transform="translate(-7.73 16.18) rotate(-6.57)"/><ellipse class="cls-11" cx="146.59" cy="76.27" rx="2.52" ry="2.16" transform="translate(26.13 189.38) rotate(-70.68)"/><ellipse class="cls-11" cx="153.51" cy="79.62" rx="2.56" ry="2.13" transform="translate(-15.29 117.19) rotate(-39.96)"/><ellipse class="cls-11" cx="158.71" cy="87.16" rx="2.58" ry="2.1" transform="translate(-20.52 61.4) rotate(-20.59)"/><ellipse class="cls-11" cx="158.71" cy="95.54" rx="2.1" ry="2.59" transform="translate(34.8 233.26) rotate(-79.07)"/><ellipse class="cls-11" cx="156.11" cy="102.25" rx="2.12" ry="2.57" transform="translate(-12.68 181.85) rotate(-58.47)"/><ellipse class="cls-11" cx="150.05" cy="107.28" rx="2.14" ry="2.54" transform="translate(-34.39 104.78) rotate(-34.79)"/><ellipse class="cls-11" cx="142.26" cy="110.63" rx="2.16" ry="2.51" transform="translate(-6.27 8.58) rotate(-3.38)"/><ellipse class="cls-11" cx="135.04" cy="109.28" rx="2.52" ry="2.16" transform="translate(-12.76 200.57) rotate(-70.68)"/><ellipse class="cls-11" cx="128.98" cy="107.61" rx="2.55" ry="2.13" transform="translate(-38.45 121.12) rotate(-44.45)"/><ellipse class="cls-11" cx="123.79" cy="102.58" rx="2.57" ry="2.11" transform="translate(-34.06 72.11) rotate(-28.72)"/><path class="cls-12" d="M80.66,121.38s-2.92-4.78-5.94-4.51-3.66,2.56-3.91,4.42S79.11,124.89,80.66,121.38Z"/><path class="cls-12" d="M79.81,127.35s-4.88-2.93-7.42-1.33-2,3.92-1.35,5.68S80.12,131.16,79.81,127.35Z"/><path class="cls-12" d="M82.36,131.32s-5.71.54-6.72,3.3.85,4.3,2.48,5.31S85,134.16,82.36,131.32Z"/><path class="cls-12" d="M155,129.09s1.43,5.38,4.4,5.93,4.26-1.47,5-3.18S157.49,126.14,155,129.09Z"/><path class="cls-12" d="M157.53,123.59s3.84,4.12,6.74,3.27,3.07-3.21,2.93-5.08S158.33,119.85,157.53,123.59Z"/><path class="cls-12" d="M156.22,119.09s5.64,1,7.41-1.36.43-4.36-.85-5.76S154.52,115.64,156.22,119.09Z"/><path class="cls-13" d="M41.27,172.47s63.92,28.16,154.29-8.67l3.77,19s-68.16,21.91-162.14,7.37Z"/><path class="cls-14" d="M32.35,210s105.4,6.73,168.67-13l1.8,19.7s-61.94,20.52-174.19,14Z"/><path class="cls-13" d="M24.57,250.18a17.18,17.18,0,0,0,7.92-.09,13,13,0,0,1,3.15-.53c15.4-.45,125.49-4.09,158.92-16.76,0,0,12.71-3.9,11.8-5.41s15.91,22.74-10.25,26.12c0,0-108.22,14.37-145.1,14.14a12.32,12.32,0,0,0-3,.37C42.42,269.43,21.84,273.59,24.57,250.18Z"/><ellipse cx="133.07" cy="95.54" rx="7.78" ry="10.07" transform="translate(-20.92 39.67) rotate(-15.74)"/><path class="cls-1" d="M80.33,345.9l-1.67,17.85s-1.84,5.15,1.67,6.76l9.58,1.62s6.92.84,5.19-4.19l2.47-21.36"/><path class="cls-1" d="M67.4,385.54s-8.33,1.68-10.22,0c0,0-5.24-5.09,3.79-8.83h2.6s8.93-5,14.6-6.47l11.74,1.89S102,373.81,92.5,383c0,0-12.21,4.72-14.33,8.23C78.17,391.26,68.27,396.44,67.4,385.54Z"/><path class="cls-1" d="M71.1,395.43s-6.33,4.65-3.9,9.55C67.2,405,73.25,406.45,71.1,395.43Z"/><path class="cls-1" d="M54.86,385.55s-4.86-2.49-6.5,3.27C48.36,388.82,49.91,395.44,54.86,385.55Z"/><path class="cls-1" d="M59.18,390.57s-4.85-2.48-6.49,3.28C52.69,393.85,54.24,400.47,59.18,390.57Z"/><path class="cls-1" d="M66.11,393.93s-4.86-2.49-6.49,3.27C59.62,397.2,61.16,403.82,66.11,393.93Z"/><path class="cls-1" d="M52.41,380.71s-5-2-7.11,1.07C45.3,381.78,46.46,385.78,52.41,380.71Z"/><path class="cls-1" d="M170.14,345.93l1.67,17.85s1.84,5.15-1.67,6.76l-9.54,1.62s-6.91.84-5.18-4.19L153,346.61"/><path class="cls-1" d="M183,385.57s8.31,1.68,10.2,0c0,0,5.22-5.09-3.78-8.83h-2.6s-8.9-5-14.56-6.47l-11.69,1.89s-12.08,1.68-2.59,10.9c0,0,12.18,4.72,14.28,8.23C172.29,391.29,182.17,396.47,183,385.57Z"/><path class="cls-1" d="M177.49,394.93s7.07,4.19,5.79,9.14C183.28,404.07,177.79,405.87,177.49,394.93Z"/><path class="cls-1" d="M197.27,387.25s4.84-2.48,6.47,3.28C203.74,390.53,202.2,397.14,197.27,387.25Z"/><path class="cls-1" d="M191.23,390.6s4.84-2.48,6.47,3.28C197.7,393.88,196.16,400.5,191.23,390.6Z"/><path class="cls-1" d="M184.33,394s4.84-2.49,6.47,3.27C190.8,397.23,189.26,403.85,184.33,394Z"/><path class="cls-1" d="M197.53,382s5.16-1.44,6.91,1.89C204.44,383.92,202.81,387.75,197.53,382Z"/><path class="cls-15" d="M170.31,322.5s.23,4.83,2.13,6.69a6,6,0,0,1,1.44,4.78s-.44,3.42,2.07,5.24,2.13,6.16,2.13,6.16l3.15-.56s-1.67-5.76-2.95-7.16c0,0-.65-.94-.07-1.45,0,0,.39-4.38-.88-5.78S169.73,323,170.31,322.5Z"/><path class="cls-15" d="M90.69,323.33s.23,4.84,2.13,6.7a6,6,0,0,1,1.44,4.78s-.44,3.41,2.07,5.24,2.13,6.16,2.13,6.16l3.15-.56s-1.67-5.77-3-7.16c0,0-.65-.94-.07-1.45,0,0,.39-4.39-.88-5.78S90.11,323.84,90.69,323.33Z"/><path class="cls-15" d="M144.94,324.27s.24,4.84-.84,6.83a8.7,8.7,0,0,0-.54,4.87s.55,3.37-.91,5.38-.88,6.29-.88,6.29l-2.08-.32s.62-5.86,1.33-7.35c0,0,.34-1-.07-1.45,0,0-.6-4.34.11-5.83S145.36,324.74,144.94,324.27Z"/><path class="cls-15" d="M70.52,320.92s.23,4.84-.85,6.83a8.7,8.7,0,0,0-.54,4.87s.55,3.37-.91,5.38-.88,6.29-.88,6.29L65.26,344s.62-5.87,1.33-7.35c0,0,.34-1-.07-1.45,0,0-.6-4.34.11-5.83S70.93,321.39,70.52,320.92Z"/></g></g></svg>