<svg xmlns="http://www.w3.org/2000/svg" width="240" height="570" viewBox="0 0 240 570"><defs><style>.cls-1{fill:#fff;}.cls-2{fill:#e0d982;}.cls-3{fill:#f3983e;}.cls-4{fill:#dd2458;}.cls-5{fill:#d6ba1a;}.cls-6{fill:#e3933a;}.cls-7{fill:#dbdad9;}.cls-8{fill:#f9c847;}.cls-9{fill:#c14a29;}.cls-10{fill:none;stroke:#000;stroke-miterlimit:10;}.cls-11{fill:#25bf25;}.cls-12{fill:#2692db;}.cls-13{fill:#a84726;}.cls-14{fill:#2a6d21;}.cls-15{fill:#c1b867;}</style></defs><g id="Animated_items" data-name="Animated items"><g id="happy_left" data-name="happy left"><path class="cls-1" d="M19.81,373.41l16.47-2.12,3.22,11.84a20.47,20.47,0,0,1-18.09,0Z"/><path class="cls-1" d="M21.41,383.13S10.6,385.5,10.6,395c0,0,0,8.29,2.14,11.84,0,0,3.21,4.73,7.49,1.18a7.09,7.09,0,0,1,7.49,0s2.6,1.92,7,.58a4.84,4.84,0,0,1,2.64-.08c1.13.28,2.91.12,4.26-2.86,0,0,3.21-8.29,1.07-13h0s-1.07-8.28-3.21-9.47S21.41,383.13,21.41,383.13Z"/><path class="cls-1" d="M10.33,407.78s-8.82-.32-5.88,5.53C4.45,413.31,8,416.89,10.33,407.78Z"/><path class="cls-1" d="M16.12,412S5,417.53,11.87,422.24C11.87,422.24,18.24,424,16.12,412Z"/><path class="cls-1" d="M25.74,412.36s-8.32,9.91-.3,11.26C25.44,423.62,31.91,422.45,25.74,412.36Z"/><path class="cls-1" d="M36,412.36s-5.72,11.95,2.34,11C38.36,423.32,44.34,420.34,36,412.36Z"/><path class="cls-1" d="M44.51,404.64S46.3,420,53.33,413.2C53.33,413.2,57.19,406.06,44.51,404.64Z"/><path class="cls-1" d="M216.6,351.85l-16.53,1.28-1.18,12.29a20.55,20.55,0,0,0,17.76-3.69Z"/><path class="cls-1" d="M216.65,361.73s11,.12,12.6,9.43c0,0,1.38,8.15-.13,12.07,0,0-2.37,5.31-7.16,2.7,0,0-3.55-1.68-7.36,1.52a8.29,8.29,0,0,1-6.45,2,6.44,6.44,0,0,0-3.06.47c-1.06.48-2.78.59-4.55-2,0,0-4.53-7.49-3.22-12.58h0s-.33-8.36,1.57-10S216.65,361.73,216.65,361.73Z"/><path class="cls-1" d="M231.64,383.7s8.61-2.11,6.7,4.24C238.34,387.94,235.47,392.17,231.64,383.7Z"/><path class="cls-1" d="M226.66,389s11.88,3.15,5.88,9.19C232.54,398.22,226.57,401.21,226.66,389Z"/><path class="cls-1" d="M217.28,391.34s9.82,8,2.17,11C219.45,402.34,212.9,402.51,217.28,391.34Z"/><path class="cls-1" d="M207.18,393.44s7.61,10.57-.47,11.24C206.71,404.68,200.34,403,207.18,393.44Z"/><path class="cls-1" d="M197.56,387.58s.79,15.43-7.24,10.21C190.32,397.79,185.34,391.56,197.56,387.58Z"/><path class="cls-2" d="M62,350s-14,113.4-8.08,131.88c0,0,41.8,6,56.79,1.31,0,0,12.77-74.06,14.41-137.07L131.63,359s2.44,120.73,4.13,126c0,0,41.71,4.28,68.26-3.5,0,0-25.91-143.93-28.05-145.11S62,350,62,350Z"/><path class="cls-3" d="M63.38,195.49s-34.17-.25-42.94,65.28c0,0-8.77,43-14.13,78.56,0,0-14.65,43.38,28.54,32.94,0,0,99.86-3.11,165.54-18.19a59.53,59.53,0,0,1,12.17-1.53C223,352.37,245,348.31,229,315.42a50.49,50.49,0,0,1-4.92-19c-1.31-21.84-5-69.71-12.8-80.94,0,0-12.31-25.33-35.33-25.92S63.38,195.49,63.38,195.49Z"/><path class="cls-4" d="M33.62,143.75s-2.56,9.82,3.4,15.44S36.82,144.5,33.62,143.75Z"/><path class="cls-5" d="M43.88,170s-11.27-.29-5.12-9.87C38.76,160.17,49.61,162,43.88,170Z"/><path class="cls-4" d="M187.47,81.25S185,90.31,190.75,95.5,190.56,81.94,187.47,81.25Z"/><path class="cls-5" d="M197.37,105.52s-10.88-.27-4.94-9.11C192.43,96.41,202.9,98.07,197.37,105.52Z"/><path class="cls-6" d="M39.31,117.17,9.14,137.82s-4.09,6.2,26,6.78L182.84,90.89s27.92-25,28.46-33.91C211.3,57,205.41,10.21,39.31,117.17Z"/><path class="cls-1" d="M42.74,111.49c18.78-25.67,74.12-83.91,150.74-11.21a11.88,11.88,0,0,1,2.88,4.32c4.13,10.63,16.5,51.31-20.39,85,0,0-15,10.65-19.26,21.31,0,0-4.29,15.39-19.27,13l-27.14.25A44.77,44.77,0,0,1,96.74,219a20.51,20.51,0,0,1-7-6.69c-2.26-3.44-7.27-8.66-17.6-10.94,0,0-35.51-17.68-37-64.65A40.76,40.76,0,0,1,42.74,111.49Z"/><ellipse class="cls-7" cx="99.97" cy="128.01" rx="19.27" ry="20.13"/><ellipse cx="90.62" cy="131.27" rx="9.69" ry="14.13" transform="translate(-22.02 18.33) rotate(-10.3)"/><ellipse class="cls-7" cx="147.07" cy="126.82" rx="19.27" ry="20.13"/><path class="cls-8" d="M11.76,105.7c-1.66.83-7.48,4.89-7.78,21.12,0,0-3.55,19,11.43,7.11,0,0,66.37-54.46,176.62-80.5,0,0,21.41-2.37,19.27,3.55A23,23,0,0,0,207,39.22s0-4.74-18.19-3.55c0,0-86.14,4.7-175.74,69.21A10,10,0,0,1,11.76,105.7Z"/><path class="cls-8" d="M57.69,20.87S85.52,5.48,105.86,3.11c0,0,7.49-3.55,18.2,7.1l30.1,30.93L50,81.29S47,50.47,47,48.1,40.57,26.79,57.69,20.87Z"/><path class="cls-9" d="M92,43.36,47.88,58.87,50,81.29l24.7-12.76s50.32-22.09,55.71-21.26c0,0,22.79-6,23.72-6.13L138.4,25Z"/><path class="cls-4" d="M44.11,114.15s-2.83,12.25,3.77,19.27S47.66,115.09,44.11,114.15Z"/><path class="cls-5" d="M55.48,147s-12.49-.36-5.67-12.31C49.81,134.64,61.82,136.89,55.48,147Z"/><path class="cls-4" d="M210,55s-2.83,12.25,3.77,19.27S213.57,55.89,210,55Z"/><path class="cls-5" d="M221.39,87.76s-12.49-.36-5.67-12.32C215.72,75.44,227.73,77.69,221.39,87.76Z"/><path class="cls-4" d="M5.14,136.8s5.46,16.66,10.81,19S11.46,146.19,5.14,136.8Z"/><path class="cls-5" d="M23.36,168.26S10.88,167.9,17.69,156C17.69,156,29.71,158.2,23.36,168.26Z"/><path class="cls-10" d="M88.2,183.65s24.62,20.13,63.15-2.37"/><path class="cls-10" d="M97.45,181.28a25.82,25.82,0,0,0-.69,11.84"/><path class="cls-10" d="M106.4,184.83a20.75,20.75,0,0,0,1.07,10.66"/><path class="cls-10" d="M120.68,186.05a36.83,36.83,0,0,1,1.94,10.59"/><path class="cls-10" d="M135.3,182.47a24.81,24.81,0,0,1,3,10.06"/><path d="M113.89,158.79s3.75-6.6,7.76-8.63c0,0,4,2.94,5.66,6.15a24.79,24.79,0,0,0,1.27,2.26c.88,1.34,2.08,3.76,1.36,6.14,0,0-.53,5.92-8.29,0,0,0-8.83,3.63-8.83-1.19C112.82,163.52,112.82,160,113.89,158.79Z"/><ellipse class="cls-11" cx="75.89" cy="125.64" rx="3.21" ry="2.96"/><ellipse class="cls-11" cx="78.03" cy="116.17" rx="2.87" ry="3.32" transform="translate(-60.05 93.44) rotate(-46.76)"/><ellipse class="cls-11" cx="85.52" cy="107.88" rx="2.72" ry="3.49" transform="translate(-31.23 34.93) rotate(-19.6)"/><ellipse class="cls-11" cx="96.23" cy="103.15" rx="2.68" ry="3.55" transform="translate(-6.05 6) rotate(-3.46)"/><ellipse class="cls-11" cx="108" cy="104.33" rx="3.53" ry="2.69" transform="translate(-14.08 191.78) rotate(-79.62)"/><ellipse class="cls-11" cx="116.56" cy="109.07" rx="3.42" ry="2.78" transform="matrix(0.51, -0.86, 0.86, 0.51, -36.48, 154.46)"/><ellipse class="cls-11" cx="122.99" cy="119.72" rx="3.3" ry="2.88" transform="matrix(0.76, -0.65, 0.65, 0.76, -48.31, 108.98)"/><ellipse class="cls-11" cx="122.99" cy="132.74" rx="2.93" ry="3.24" transform="translate(-49.94 186.06) rotate(-64.32)"/><ellipse class="cls-11" cx="119.78" cy="142.22" rx="2.82" ry="3.37" transform="translate(-61.88 102.57) rotate(-37.58)"/><ellipse class="cls-11" cx="112.28" cy="149.32" rx="2.72" ry="3.49" transform="translate(-43.57 46.31) rotate(-19.6)"/><ellipse class="cls-11" cx="102.65" cy="154.05" rx="2.68" ry="3.55" transform="translate(-4.73 3.26) rotate(-1.78)"/><ellipse class="cls-11" cx="93.72" cy="152.15" rx="3.53" ry="2.69" transform="translate(-72.82 216.93) rotate(-79.62)"/><ellipse class="cls-11" cx="84.08" cy="147.41" rx="3.44" ry="2.76" transform="translate(-85.43 155.51) rotate(-63.04)"/><ellipse class="cls-11" cx="77.66" cy="139.13" rx="3.35" ry="2.83" transform="translate(-78.69 108.42) rotate(-49.72)"/><ellipse class="cls-11" cx="126.2" cy="111.43" rx="2.87" ry="3.32" transform="translate(-41.43 127.04) rotate(-46.76)"/><ellipse class="cls-11" cx="132.62" cy="106.7" rx="2.72" ry="3.49" transform="translate(-28.1 50.66) rotate(-19.6)"/><ellipse class="cls-11" cx="143.33" cy="101.96" rx="2.68" ry="3.55" transform="translate(-5.9 8.84) rotate(-3.46)"/><ellipse class="cls-11" cx="155.1" cy="103.15" rx="3.53" ry="2.69" transform="translate(25.7 237.13) rotate(-79.62)"/><ellipse class="cls-11" cx="163.66" cy="107.88" rx="3.42" ry="2.78" transform="translate(-12.18 194.5) rotate(-59.62)"/><ellipse class="cls-11" cx="170.09" cy="118.54" rx="3.3" ry="2.88" transform="translate(-36.18 139.37) rotate(-40.64)"/><ellipse class="cls-11" cx="170.09" cy="130.38" rx="2.93" ry="3.24" transform="translate(-21.12 227.16) rotate(-64.32)"/><ellipse class="cls-11" cx="166.87" cy="139.85" rx="2.82" ry="3.37" transform="translate(-50.66 130.81) rotate(-37.58)"/><ellipse class="cls-11" cx="159.38" cy="146.95" rx="2.72" ry="3.49" transform="translate(-40.05 61.96) rotate(-19.6)"/><ellipse class="cls-11" cx="149.75" cy="151.69" rx="2.68" ry="3.55" transform="translate(-4.63 4.72) rotate(-1.78)"/><ellipse class="cls-11" cx="140.81" cy="149.78" rx="3.53" ry="2.69" transform="translate(-31.88 261.32) rotate(-79.62)"/><ellipse class="cls-11" cx="133.32" cy="147.41" rx="3.44" ry="2.76" transform="translate(-58.52 199.4) rotate(-63.04)"/><ellipse class="cls-11" cx="126.9" cy="140.31" rx="3.35" ry="2.83" transform="translate(-62.19 146.4) rotate(-49.72)"/><path class="cls-12" d="M73.55,166.87s-3.61-6.76-7.34-6.37-4.53,3.62-4.84,6.24S71.64,171.82,73.55,166.87Z"/><path class="cls-12" d="M72.5,175.3s-6-4.13-9.17-1.87-2.5,5.53-1.67,8S72.88,180.68,72.5,175.3Z"/><path class="cls-12" d="M75.66,180.91s-7.07.76-8.32,4.67,1,6.07,3.07,7.49S78.91,184.92,75.66,180.91Z"/><path class="cls-12" d="M165.49,177.76s1.76,7.6,5.44,8.38,5.27-2.08,6.23-4.5S168.58,173.59,165.49,177.76Z"/><path class="cls-12" d="M168.63,170s4.75,5.84,8.33,4.64,3.8-4.54,3.63-7.18S169.62,164.7,168.63,170Z"/><path class="cls-12" d="M167,163.63s7,1.44,9.17-1.92.52-6.15-1.06-8.14S164.9,158.77,167,163.63Z"/><path class="cls-13" d="M24.83,239s79.06,39.77,190.83-12.24l4.66,26.78S136,284.52,19.79,264Z"/><path class="cls-14" d="M13.81,292s130.36,9.51,208.61-18.33l2.23,27.82S148,330.45,9.2,321.27Z"/><path class="cls-13" d="M4.17,348.8a18.81,18.81,0,0,0,9.81-.13,14.46,14.46,0,0,1,3.9-.74c19-.64,155.2-5.78,196.55-23.68,0,0,15.72-5.51,14.59-7.65s19.68,32.13-12.67,36.9c0,0-133.85,20.3-179.47,20a12.91,12.91,0,0,0-3.75.52C26.26,376,.8,381.87,4.17,348.8Z"/><ellipse cx="138.38" cy="130.38" rx="9.69" ry="14.13" transform="translate(-21.09 26.85) rotate(-10.3)"/><path class="cls-1" d="M73.15,484l-2.08,25.2s-2.27,7.28,2.08,9.56L85,521.05s8.56,1.19,6.42-5.92L94.47,485"/><path class="cls-1" d="M57.16,540s-10.31,2.37-12.65,0c0,0-6.48-7.18,4.69-12.47h3.22s11-7.06,18.06-9.13L85,521.05s15,2.37,3.21,15.39c0,0-15.11,6.68-17.72,11.63C70.48,548.07,58.23,555.38,57.16,540Z"/><path class="cls-1" d="M61.72,554s-7.82,6.57-4.81,13.49C56.91,567.45,64.38,569.52,61.72,554Z"/><path class="cls-1" d="M41.64,540s-6-3.51-8,4.63C33.61,544.63,35.52,554,41.64,540Z"/><path class="cls-1" d="M47,547.11s-6-3.51-8,4.62C39,551.73,40.87,561.08,47,547.11Z"/><path class="cls-1" d="M55.55,551.84s-6-3.51-8,4.63C47.52,556.47,49.44,565.81,55.55,551.84Z"/><path class="cls-1" d="M38.61,533.17s-6.14-2.87-8.79,1.52C29.82,534.69,31.26,540.33,38.61,533.17Z"/><path class="cls-1" d="M184.23,484.05l2.07,25.21s2.27,7.27-2.07,9.55l-11.81,2.28s-8.53,1.19-6.4-5.91L163,485"/><path class="cls-1" d="M200.17,540s10.28,2.36,12.61,0c0,0,6.47-7.19-4.67-12.48H204.9s-11-7.06-18-9.13l-14.47,2.66s-14.94,2.37-3.2,15.4c0,0,15.06,6.68,17.67,11.62C186.89,548.11,199.1,555.43,200.17,540Z"/><path class="cls-1" d="M193.31,553.27s8.76,5.9,7.16,12.9C200.47,566.17,193.69,568.72,193.31,553.27Z"/><path class="cls-1" d="M217.78,542.41s6-3.51,8,4.63C225.78,547,223.88,556.38,217.78,542.41Z"/><path class="cls-1" d="M210.31,547.15s6-3.51,8,4.63C218.31,551.78,216.41,561.12,210.31,547.15Z"/><path class="cls-1" d="M201.77,551.88s6-3.51,8,4.63C209.78,556.51,207.87,565.85,201.77,551.88Z"/><path class="cls-1" d="M218.1,535s6.39-2,8.55,2.66C226.65,537.7,224.64,543.11,218.1,535Z"/><path class="cls-15" d="M184.43,450.94s.29,6.84,2.64,9.46,1.78,6.75,1.78,6.75-.54,4.83,2.56,7.41,2.63,8.69,2.63,8.69l3.9-.79s-2.07-8.14-3.64-10.11c0,0-.81-1.33-.09-2.05,0,0,.48-6.19-1.09-8.16S183.72,451.67,184.43,450.94Z"/><path class="cls-15" d="M86,452.13s.29,6.83,2.64,9.45,1.78,6.76,1.78,6.76-.54,4.82,2.55,7.4,2.63,8.7,2.63,8.7l3.91-.79s-2.07-8.14-3.65-10.12c0,0-.8-1.32-.09-2,0,0,.49-6.19-1.09-8.16S85.24,452.85,86,452.13Z"/><path class="cls-15" d="M153.06,453.46s.29,6.83-1,9.64-.67,6.88-.67,6.88.68,4.76-1.13,7.6-1.09,8.89-1.09,8.89l-2.57-.45s.77-8.29,1.65-10.39c0,0,.42-1.39-.09-2.05,0,0-.74-6.13.13-8.23S153.57,454.12,153.06,453.46Z"/><path class="cls-15" d="M61,448.72s.29,6.84-1,9.64-.68,6.89-.68,6.89.69,4.76-1.12,7.59-1.09,8.89-1.09,8.89l-2.57-.45s.76-8.29,1.64-10.39c0,0,.43-1.39-.09-2.05,0,0-.74-6.12.14-8.22S61.52,449.38,61,448.72Z"/></g></g></svg>