<svg xmlns="http://www.w3.org/2000/svg" width="225" height="414" viewBox="0 0 225 414"><defs><style>.cls-1{fill:#fff;}.cls-2{fill:#07202a;}.cls-3{fill:#902761;}.cls-4{fill:#7e2153;}.cls-5{fill:#bd2f59;}.cls-6{fill:#e900cf;}.cls-7{fill:none;stroke:#000;stroke-miterlimit:10;}.cls-8{fill:#dbdad9;}.cls-9{fill:#dd2443;}.cls-10{fill:#9229d6;}.cls-11{fill:#267ddb;}.cls-12{fill:#f9c847;}.cls-13{fill:#e3933a;}.cls-14{fill:#0a2a3a;}.cls-15{fill:#ed146c;}.cls-16{fill:#ef56b9;}</style></defs><g id="Animated_items" data-name="Animated items"><path class="cls-1" d="M158.44,194s-.7,14.88-7,14.88S144,205.3,144,205.3s3-9.06,4.33-10.42S154.67,190,158.44,194Z"/><path class="cls-1" d="M148.79,218s-2.87,8.4-5.91,11.91-11.1-9.19-11.1-9.19,4.68-9.53,7.16-8.15C138.94,212.55,143.42,213.45,148.79,218Z"/><path class="cls-1" d="M141.84,212.41l6.3,3.68a2.68,2.68,0,0,0,3.67-1h0a2.76,2.76,0,0,0-1-3.72l-6.31-3.68a2.67,2.67,0,0,0-3.66,1h0A2.75,2.75,0,0,0,141.84,212.41Z"/><path class="cls-1" d="M84.27,351.12l-1.68,19.29s-1.86,5.57,1.68,7.31l9.64,1.75s7,.91,5.22-4.53l2.49-23.09"/><path class="cls-1" d="M71.26,394s-8.39,1.81-10.29,0c0,0-5.28-5.5,3.81-9.55H67.4s9-5.4,14.7-7l11.81,2s12.19,1.81,2.61,11.78c0,0-12.29,5.11-14.42,8.9C82.1,400.15,72.13,405.75,71.26,394Z"/><path class="cls-1" d="M75,404.64S68.6,409.87,70.79,415C70.79,415,76.63,416.36,75,404.64Z"/><path class="cls-1" d="M58.63,394s-4.89-2.69-6.53,3.54C52.1,397.52,53.65,404.67,58.63,394Z"/><path class="cls-1" d="M63,399.41s-4.89-2.68-6.54,3.54C56.45,403,58,410.11,63,399.41Z"/><path class="cls-1" d="M70,403s-4.89-2.69-6.54,3.54C63.42,406.58,65,413.73,70,403Z"/><path class="cls-1" d="M56.17,388.74s-5-2.19-7.15,1.17C49,389.91,50.18,394.23,56.17,388.74Z"/><path class="cls-1" d="M161.77,346.58l1.68,19.3s1.85,5.56-1.68,7.31l-9.61,1.75s-6.95.91-5.21-4.53l-2.48-23.09"/><path class="cls-1" d="M174.74,389.44s8.37,1.81,10.26,0c0,0,5.26-5.5-3.8-9.55h-2.61s-9-5.4-14.66-7l-11.77,2s-12.16,1.81-2.6,11.78c0,0,12.25,5.11,14.37,8.9C163.93,395.62,173.87,401.22,174.74,389.44Z"/><path class="cls-1" d="M169.14,399.59s7.68,4.88,6.29,10.66C175.43,410.25,169.47,412.35,169.14,399.59Z"/><path class="cls-1" d="M189.07,391.26s4.88-2.69,6.51,3.54C195.58,394.8,194,402,189.07,391.26Z"/><path class="cls-1" d="M183,394.88s4.88-2.68,6.52,3.54C189.51,398.42,188,405.57,183,394.88Z"/><path class="cls-1" d="M176,398.51s4.88-2.69,6.52,3.54C182.56,402.05,181,409.2,176,398.51Z"/><path class="cls-1" d="M189.33,385.61s5.2-1.56,7,2C196.29,387.65,194.65,391.79,189.33,385.61Z"/><path class="cls-2" d="M72.51,167.63S6.45,113.94,41.29,65.92H170.2s16.55,54.58-24.82,103.4Z"/><path class="cls-3" d="M76.9,227.34s-32.13,20.16-33,44.9c0,0-3.48,59.17-6.1,73.67,0,0,4.36,16.31-4.35,25.37,0,0,18.29,8.16,32.23-2.72,0,0,12.19-4,18.29-2,0,0,19.16,7.3,30.48-3.05,0,0,10-3.24,18.51,0,0,0,12.85,6,23.3-2.19,0,0,3.49-2.72,10.46-.91,0,0,24.39,5.44,27.87-2.72,0,0,11.32.91,16.55-1.81,0,0-10.45-16.31-11.32-23.56,0,0-19.17-60.71-24.39-68.87,0,0-14.81-39-33.1-40.77C142.33,222.68,79.42,225.65,76.9,227.34Z"/><path class="cls-4" d="M85.73,226.11S72.64,249,72.64,250.77,96.2,224.11,85.73,226.11Z"/><path class="cls-4" d="M104.52,226l-.26.54c-.93,2-4.08,9.08-3.52,11.88,0,0,5.88-6.69,8.49-12.13Z"/><path class="cls-4" d="M122.85,226s2.93,10.26,4.67,10.26c0,0,1.15-8.74-1.17-10.26S122.85,226,122.85,226Z"/><path class="cls-4" d="M134.43,224.78s15.74,9.68,16.61,18.74c0,0-17.4-13.72-19.59-18.19S134.43,224.78,134.43,224.78Z"/><path class="cls-5" d="M77.84,192.27s-.4,6.39,4,10.92,1.74,13.6,1.74,13.6L76.9,227.34s44.52,2.59,65.43-4.66c0,0-4.36-8.16-4.36-10.88,0,0-.87-4.53.87-8.15,0,0,2.62-6.35,0-10S77.84,192.27,77.84,192.27Z"/><path class="cls-1" d="M102.7,41.9S60.89,44.62,50.43,74.52c0,0-1.3,31.27,10,42.14s42.68,28.09,42.68,28.09,7.72,4.53,13,0c4.91-4.21,29.3-19.35,32.76-25.85a10.44,10.44,0,0,1,2-2.69c4.32-4.1,16-17.65,12.38-42.14C163.23,74.07,158.88,40.54,102.7,41.9Z"/><path class="cls-6" d="M128.86,73.07h0c1.51-2.39,5-1.17,4.89,1.73h0a2.72,2.72,0,0,0,3.57,2.82h0c2.52-1,4.66,2.21,3,4.51h0a3,3,0,0,0,1.36,4.56h0a3,3,0,0,1,0,5.57h0a3,3,0,0,0-1.36,4.56h0c1.63,2.3-.51,5.48-3,4.51h0a2.72,2.72,0,0,0-3.57,2.82h0c.07,2.9-3.38,4.12-4.89,1.72h0a2.57,2.57,0,0,0-4.42,0h0c-1.51,2.4-5,1.18-4.89-1.72h0a2.73,2.73,0,0,0-3.58-2.82h0c-2.51,1-4.65-2.21-3-4.51h0a3,3,0,0,0-1.36-4.56h0a3,3,0,0,1,0-5.57h0A3,3,0,0,0,113,82.13h0c-1.63-2.3.51-5.49,3-4.51h0a2.73,2.73,0,0,0,3.58-2.82h0c-.07-2.9,3.38-4.12,4.89-1.73h0A2.56,2.56,0,0,0,128.86,73.07Z"/><path class="cls-6" d="M97.6,73.07h0a2.68,2.68,0,0,1,4.92,1.73h0a2.73,2.73,0,0,0,3.59,2.82h0c2.53-1,4.68,2.21,3,4.51h0a3,3,0,0,0,1.37,4.56h0a3,3,0,0,1,0,5.57h0a3,3,0,0,0-1.37,4.56h0c1.64,2.3-.51,5.48-3,4.51h0a2.73,2.73,0,0,0-3.59,2.82h0a2.67,2.67,0,0,1-4.92,1.72h0a2.59,2.59,0,0,0-4.44,0h0a2.67,2.67,0,0,1-4.92-1.72h0a2.73,2.73,0,0,0-3.59-2.82h0c-2.53,1-4.68-2.21-3-4.51h0a3,3,0,0,0-1.37-4.56h0a3,3,0,0,1,0-5.57h0a3,3,0,0,0,1.37-4.56h0c-1.64-2.3.51-5.49,3-4.51h0a2.73,2.73,0,0,0,3.59-2.82h0a2.68,2.68,0,0,1,4.92-1.73h0A2.58,2.58,0,0,0,97.6,73.07Z"/><path class="cls-7" d="M140.82,77.76s-2.7,3.06-5.68,3.71"/><path class="cls-7" d="M142.22,79.81s-2.7,3.07-5.68,3.71"/><ellipse class="cls-8" cx="95.73" cy="89.02" rx="11.76" ry="12.23"/><ellipse cx="89.63" cy="89.02" rx="5.66" ry="9.51"/><ellipse class="cls-8" cx="126.21" cy="89.02" rx="11.76" ry="12.23"/><ellipse cx="120.12" cy="89.02" rx="5.66" ry="9.51"/><path d="M104.91,107.29s2.3-4.08,4.76-5.34a13.65,13.65,0,0,1,3.47,3.8,14.86,14.86,0,0,0,.78,1.41,4.76,4.76,0,0,1,.84,3.79s-.33,3.67-5.09,0c0,0-5.41,2.25-5.41-.73C104.26,110.22,104.26,108,104.91,107.29Z"/><path class="cls-7" d="M91.81,116.66s22.74,14.5,41-4.08"/><path class="cls-7" d="M99.06,117.31s2.33,4.79,2.33,7.5"/><path class="cls-7" d="M107.49,118a19.37,19.37,0,0,1,3.48,7.75"/><path class="cls-7" d="M117.67,117.31s4.62,3,4.62,5.69"/><path class="cls-7" d="M126.65,111.12a28.34,28.34,0,0,1,6.14,6.85"/><ellipse class="cls-9" cx="76.56" cy="106.24" rx="4.36" ry="4.53"/><ellipse class="cls-9" cx="141.02" cy="108.05" rx="4.36" ry="4.53"/><path class="cls-10" d="M84.23,125.66a.54.54,0,0,1-.32-.9c1-1.19,2.92-3.42,3.46-3.56a2.54,2.54,0,0,1,1.71,4,.72.72,0,0,1-.44.28A15.38,15.38,0,0,1,84.23,125.66Z"/><ellipse class="cls-11" cx="79.61" cy="126.17" rx="2.7" ry="3.94" transform="translate(-67.09 153.31) rotate(-68.23)"/><path class="cls-10" d="M75.24,123.29a.54.54,0,0,1-.59.75c-1.49-.29-4.31-.89-4.7-1.3s-.27-3.83,2.43-3.55a.66.66,0,0,1,.46.26A16.94,16.94,0,0,1,75.24,123.29Z"/><path class="cls-10" d="M78.58,122.26a.5.5,0,0,1-.92,0c-.72-1.39-2-4.06-2-4.64.08-.76,2.7-2.6,4.18-.24a.78.78,0,0,1,.09.54A17.13,17.13,0,0,1,78.58,122.26Z"/><path class="cls-10" d="M82,123.07a.52.52,0,0,1-.75-.58c.21-1.56.66-4.52,1-4.94a2.42,2.42,0,0,1,3.51,2.37.71.71,0,0,1-.23.48A15.64,15.64,0,0,1,82,123.07Z"/><path class="cls-10" d="M83.68,129.34a.55.55,0,0,1,.26-.93c1.47-.35,4.29-1,4.81-.75.69.3,1.71,3.41-.87,4.27a.72.72,0,0,1-.52-.05A16.46,16.46,0,0,1,83.68,129.34Z"/><path class="cls-10" d="M134.84,124.61a.5.5,0,0,1-.9-.21c-.41-1.52-1.14-4.42-.95-5,.25-.73,3.19-1.94,4.14.7a.81.81,0,0,1,0,.55A16.78,16.78,0,0,1,134.84,124.61Z"/><ellipse class="cls-11" cx="132.7" cy="128.9" rx="3.98" ry="2.68" transform="translate(-51.73 114.41) rotate(-39.67)"/><path class="cls-10" d="M128,131.11a.54.54,0,0,1,.28.92c-1.06,1.13-3.09,3.25-3.64,3.37a2.55,2.55,0,0,1-1.51-4.07.7.7,0,0,1,.46-.26A15.35,15.35,0,0,1,128,131.11Z"/><path class="cls-10" d="M129,127.64a.53.53,0,0,1-.52.8c-1.51-.15-4.37-.48-4.8-.86s-.6-3.78,2.11-3.76a.68.68,0,0,1,.48.21A16.86,16.86,0,0,1,129,127.64Z"/><path class="cls-10" d="M131.55,125.09a.51.51,0,0,1-.87.33c-1.14-1-3.26-3.07-3.39-3.64-.18-.75,1.66-3.42,3.84-1.75a.76.76,0,0,1,.26.47A17.49,17.49,0,0,1,131.55,125.09Z"/><path class="cls-10" d="M137.49,127.11a.53.53,0,0,1-.61-.73c.54-1.47,1.6-4.26,2.06-4.59a2.47,2.47,0,0,1,2.93,3.11.73.73,0,0,1-.32.43A15.83,15.83,0,0,1,137.49,127.11Z"/><path class="cls-2" d="M107.14,48.12S104,81.32,50.43,74.52l-9.14-8.6s71.42-77,128.91,0L162,69.63S130.32,82.87,107.14,48.12Z"/><rect class="cls-1" x="103.13" y="148.37" width="14.81" height="5.44" rx="2.7"/><rect class="cls-1" x="103.13" y="155.62" width="14.81" height="5.44" rx="2.7"/><rect class="cls-1" x="103.13" y="162.87" width="14.81" height="5.44" rx="2.7"/><path class="cls-1" d="M58.46,193.75s.68,14.88,6.78,14.88S72.51,205,72.51,205,69.6,196,68.29,194.59,62.13,189.74,58.46,193.75Z"/><path class="cls-1" d="M67.85,217.69s2.79,8.41,5.75,11.91,10.8-9.19,10.8-9.19-4.55-9.53-7-8.15C77.44,212.26,73.08,213.16,67.85,217.69Z"/><path class="cls-1" d="M74.62,212.12l-6.14,3.68a2.57,2.57,0,0,1-3.57-1h0a2.81,2.81,0,0,1,1-3.72L72,207.41a2.56,2.56,0,0,1,3.57,1h0A2.79,2.79,0,0,1,74.62,212.12Z"/><path class="cls-1" d="M101.39,153.81s-13.94,3.62-20.91,10l8.5,1.81s6.31-5.44,12.41-4.53C101.39,161.06,104,155.62,101.39,153.81Z"/><path class="cls-12" d="M78.34,162.87s29.15,10.88,63.12,3.63c0,0,19.16,9.06,20.9,26.27,0,0-2.61,5.44-13.94,1.82,0,0-4.35,3.62-9.58-.91,0,0-1.68,5.46-10.42,2.28,0,0-3.51,3.16-9.61.44,0,0-2.64-.51-3.94,1.1,0,0-4.19,3.07-12.32-2.64,0,0-1.16-3-6.39-.27,0,0-7,3.62-13.06-.91,0,0-4.36,0-7-2.72a35.55,35.55,0,0,1-7.84,3.63,5.28,5.28,0,0,1-3.48-1.82s-9.59,2.72-8.72-.9S66.61,171.93,78.34,162.87Z"/><path class="cls-1" d="M118.65,153.81s23.68,10,22.81,12.69l-5.31,1.13s-5.83-5.44-16.38-6.91C119.77,160.72,117.63,156.53,118.65,153.81Z"/><path class="cls-13" d="M81.35,176.46s-5.22,6.35-4.35,9.07c0,0,4.35-5.44,4.35-9.07"/><path class="cls-13" d="M91.92,185.53c.76,1.81,4.24-3.63,3.37-4.54C95.29,181,91.15,183.71,91.92,185.53Z"/><path class="cls-13" d="M107.49,179.18s-.87,10.75,3,12.62C110.53,191.8,108.36,179.18,107.49,179.18Z"/><path class="cls-13" d="M124,174.65s-1.75,12.69,4.35,16.31C128.39,191,126.65,175.56,124,174.65Z"/><path class="cls-13" d="M145.32,182.81s.49,4.53,3.1,4.53S145.32,182.81,145.32,182.81Z"/><path class="cls-4" d="M43.35,373.88s15.36-37.94,12.74-40.65c0,0,7-3.19-8.27,41Z"/><path class="cls-4" d="M68.3,367.8s7.83-28.23,9.57-30-5.18,29-5.18,29Z"/><path class="cls-4" d="M106.62,319.63s0,9.06,2.61,12.69,1.74,9.06,1.74,9.06-.87,6.34,2.61,10S116.23,363,116.23,363l4.59-.77s-2-10.91-3.75-13.63c0,0-.87-1.81,0-2.72,0,0,.87-8.15-.87-10.87S105.74,320.54,106.62,319.63Z"/><path class="cls-4" d="M158.27,360.3S150.17,338.66,151,335s12.19,24.46,12.19,24.46Z"/><path class="cls-4" d="M180.65,324.16s14.53,33.49,12.06,35.78,2.47-2.29,2.47-2.29S188.49,325.07,180.65,324.16Z"/><path class="cls-14" d="M60.89,69.09s21.77-19,34-19C94.86,50.06,67.85,69.09,60.89,69.09Z"/><path class="cls-14" d="M116.85,49.64s27.06,9.11,33.53,19.86C150.38,69.5,120.55,55.79,116.85,49.64Z"/><path class="cls-14" d="M49.13,70.45s19-26.8,40.41-29.71C89.54,40.74,63.06,39.64,49.13,70.45Z"/><path class="cls-14" d="M117.2,43.51s31.87,3,45.38,20.53C162.58,64,149.74,39.92,117.2,43.51Z"/><path class="cls-14" d="M44.36,84.55S42,126.12,74.16,154.47C74.16,154.47,46.84,111,44.36,84.55Z"/><path class="cls-14" d="M133.05,154.46s34-22,37.69-65.67C170.74,88.79,152.35,137.12,133.05,154.46Z"/><path class="cls-14" d="M70,127.67S77.17,147,87.9,155.94C87.9,155.94,75.16,130.28,70,127.67Z"/><path class="cls-14" d="M122.47,151.14s17.41-10,24.47-22.29C146.94,128.85,124.25,145.48,122.47,151.14Z"/><path class="cls-15" d="M81.21,28.62h0c.7-1.38,3.09-.94,3.07.56h0c0,1.2,1.66,1.84,2.69,1h0c1.29-1,3.27.23,2.55,1.59h0c-.58,1.1.64,2.26,2,1.88h0c1.65-.48,2.88,1.34,1.57,2.34h0c-1,.79-.49,2.28.91,2.4h0a1.35,1.35,0,0,1,.33,2.68h0A1.32,1.32,0,0,0,94,43.61h0c1.52.74.76,2.73-1,2.56h0c-1.4-.13-2.31,1.22-1.47,2.19h0c1,1.21-.6,2.77-2.11,2h0c-1.21-.61-2.68.31-2.38,1.48h0c.38,1.47-1.86,2.32-2.87,1.1h0a1.7,1.7,0,0,0-2.88.53h0a1.68,1.68,0,0,1-3.15,0h0A1.69,1.69,0,0,0,75.29,53h0c-1,1.22-3.25.37-2.88-1.1h0c.31-1.17-1.17-2.09-2.38-1.48h0c-1.5.76-3.14-.8-2.1-2h0c.83-1-.08-2.32-1.47-2.19h0c-1.74.17-2.5-1.82-1-2.56h0a1.32,1.32,0,0,0-.31-2.52h0a1.35,1.35,0,0,1,.33-2.68h0c1.39-.12,2-1.61.91-2.4h0c-1.31-1-.09-2.82,1.57-2.34h0c1.33.38,2.55-.78,2-1.88h0c-.73-1.36,1.25-2.6,2.54-1.59h0c1,.82,2.7.18,2.69-1h0c0-1.5,2.38-1.94,3.08-.56h0A1.72,1.72,0,0,0,81.21,28.62Z"/><path class="cls-16" d="M81,30.87h0c.57-1.08,2.51-.73,2.5.44h0c0,.95,1.34,1.45,2.18.81h0c1.05-.79,2.66.18,2.07,1.25h0c-.47.86.52,1.77,1.6,1.47h0c1.34-.37,2.34,1.06,1.27,1.84h0c-.85.63-.39,1.8.74,1.89h0c1.42.11,1.62,1.75.27,2.11h0a1,1,0,0,0-.25,2h0c1.24.58.62,2.15-.79,2h0c-1.13-.11-1.87,1-1.19,1.72h0c.84,1-.49,2.17-1.71,1.57h0c-1-.48-2.18.25-1.94,1.17h0C86,50.28,84.2,51,83.37,50h0a1.4,1.4,0,0,0-2.34.42h0a1.37,1.37,0,0,1-2.55,0h0A1.4,1.4,0,0,0,76.14,50h0c-.82,1-2.64.29-2.33-.86h0c.25-.92-1-1.65-1.93-1.17h0c-1.23.6-2.56-.62-1.71-1.57h0c.67-.76-.07-1.83-1.2-1.72h0c-1.41.13-2-1.44-.79-2h0a1,1,0,0,0-.25-2h0c-1.35-.36-1.14-2,.27-2.11h0c1.13-.09,1.59-1.26.74-1.89h0c-1.07-.78-.07-2.21,1.27-1.84h0c1.09.3,2.08-.61,1.6-1.47h0c-.58-1.07,1-2,2.07-1.25h0c.84.64,2.19.14,2.18-.81h0c0-1.17,1.94-1.52,2.5-.44h0A1.42,1.42,0,0,0,81,30.87Z"/><path class="cls-15" d="M81,33.89h0c.92-1,3-.5,3,.73h0c0,.86,1.1,1.48,2.18,1.19h0c1.53-.41,2.83.93,1.84,1.9h0c-.7.68-.27,1.68.83,1.93h0c1.56.34,1.56,2,0,2.35h0c-1.1.24-1.53,1.24-.83,1.92h0c1,1-.31,2.32-1.84,1.91h0c-1.08-.29-2.21.33-2.18,1.19h0c0,1.22-2.06,1.73-3,.73h0a2,2,0,0,0-2.69,0h0c-.92,1-3,.49-3-.73h0c0-.86-1.1-1.48-2.18-1.19h0c-1.54.41-2.84-.94-1.84-1.91h0c.7-.68.26-1.68-.84-1.92h0c-1.56-.35-1.56-2,0-2.35h0c1.1-.25,1.54-1.25.84-1.93h0c-1-1,.3-2.31,1.84-1.9h0c1.08.29,2.21-.33,2.18-1.19h0c0-1.23,2.06-1.74,3-.73h0A2,2,0,0,0,81,33.89Z"/><path class="cls-16" d="M80.62,35.5h0c.61-.76,2-.38,2,.55h0a1.08,1.08,0,0,0,1.46.9h0c1-.31,1.89.7,1.23,1.43h0a.89.89,0,0,0,.55,1.46h0a.89.89,0,0,1,0,1.77h0a.89.89,0,0,0-.55,1.46h0c.66.73-.21,1.74-1.23,1.44h0a1.07,1.07,0,0,0-1.46.89h0c0,.93-1.38,1.31-2,.55h0a1.22,1.22,0,0,0-1.8,0h0c-.62.76-2,.38-2-.55h0a1.06,1.06,0,0,0-1.45-.89h0c-1,.3-1.9-.71-1.24-1.44h0a.89.89,0,0,0-.55-1.46h0a.89.89,0,0,1,0-1.77h0a.89.89,0,0,0,.55-1.46h0c-.66-.73.21-1.74,1.24-1.43h0a1.07,1.07,0,0,0,1.45-.9h0c0-.93,1.38-1.31,2-.55h0A1.22,1.22,0,0,0,80.62,35.5Z"/><path class="cls-15" d="M80.43,38.35h0c1-.41,2.17.25,2,1.11h0a.91.91,0,0,0,.39.94h0c.81.61.36,1.68-.75,1.81h0a1.36,1.36,0,0,0-1,.58h0a1.56,1.56,0,0,1-2.44,0h0a1.36,1.36,0,0,0-1-.58h0C76.44,42.08,76,41,76.8,40.4h0a.94.94,0,0,0,.4-.94h0c-.2-.86,1-1.52,2-1.11h0A1.71,1.71,0,0,0,80.43,38.35Z"/><path class="cls-15" d="M56,35.86h0c.7-1.37,3.09-.93,3.07.57h0c0,1.2,1.66,1.84,2.69,1h0c1.29-1,3.27.23,2.55,1.59h0c-.58,1.1.64,2.26,2,1.88h0c1.65-.48,2.88,1.34,1.57,2.34h0c-1,.79-.49,2.28.91,2.4h0A1.35,1.35,0,0,1,69,48.34h0a1.32,1.32,0,0,0-.31,2.52h0c1.52.74.76,2.73-1,2.56h0c-1.4-.13-2.31,1.22-1.47,2.19h0c1,1.21-.6,2.77-2.11,2h0C63,57,61.5,57.93,61.8,59.1h0c.38,1.47-1.86,2.32-2.87,1.1h0a1.7,1.7,0,0,0-2.88.53h0a1.68,1.68,0,0,1-3.15,0h0A1.69,1.69,0,0,0,50,60.2h0c-1,1.22-3.25.37-2.88-1.1h0c.31-1.17-1.17-2.09-2.38-1.48h0c-1.5.76-3.14-.8-2.1-2h0c.83-1-.08-2.32-1.47-2.19h0c-1.74.17-2.5-1.82-1-2.56h0a1.32,1.32,0,0,0-.31-2.52h0a1.35,1.35,0,0,1,.33-2.68h0c1.39-.12,2-1.61.91-2.4h0c-1.31-1-.09-2.82,1.57-2.34h0c1.33.38,2.55-.78,2-1.88h0c-.73-1.36,1.25-2.6,2.54-1.59h0c1,.82,2.7.18,2.69-1h0c0-1.5,2.38-1.94,3.08-.57h0A1.71,1.71,0,0,0,56,35.86Z"/><path class="cls-16" d="M55.69,38.12h0c.57-1.08,2.51-.74,2.5.44h0c0,.95,1.34,1.45,2.18.81h0c1.05-.8,2.66.17,2.07,1.25h0c-.47.86.52,1.77,1.6,1.47h0c1.34-.37,2.34,1.06,1.27,1.84h0c-.85.63-.39,1.8.74,1.89h0c1.42.11,1.62,1.75.27,2.11h0a1,1,0,0,0-.25,2h0c1.24.58.62,2.15-.79,2h0c-1.13-.11-1.87,1-1.19,1.72h0c.84.94-.49,2.17-1.71,1.57h0c-1-.48-2.18.25-1.94,1.17h0c.31,1.15-1.5,1.82-2.33.86h0a1.4,1.4,0,0,0-2.34.42h0a1.37,1.37,0,0,1-2.55,0h0a1.4,1.4,0,0,0-2.34-.42h0c-.82,1-2.64.29-2.33-.86h0c.25-.92-.95-1.65-1.93-1.17h0c-1.23.6-2.56-.63-1.71-1.57h0c.67-.76-.07-1.83-1.2-1.72h0c-1.41.13-2-1.44-.79-2h0a1,1,0,0,0-.25-2h0c-1.35-.36-1.14-2,.27-2.11h0c1.13-.09,1.59-1.26.74-1.89h0c-1.07-.78-.07-2.21,1.27-1.84h0c1.08.3,2.08-.61,1.6-1.47h0c-.58-1.08,1-2,2.07-1.25h0c.84.64,2.19.14,2.18-.81h0c0-1.18,1.94-1.52,2.5-.44h0A1.42,1.42,0,0,0,55.69,38.12Z"/><path class="cls-15" d="M55.72,41.14h0c.92-1,3-.5,3,.73h0c0,.86,1.1,1.47,2.18,1.19h0c1.53-.41,2.83.93,1.84,1.9h0c-.7.68-.27,1.68.83,1.92h0c1.56.35,1.56,2,0,2.36h0c-1.1.24-1.53,1.24-.83,1.92h0c1,1-.31,2.32-1.84,1.91h0c-1.08-.29-2.21.33-2.18,1.19h0c0,1.22-2.06,1.73-3,.72h0A2,2,0,0,0,53,55h0c-.92,1-3,.5-3-.72h0c0-.86-1.1-1.48-2.18-1.19h0c-1.54.41-2.84-.94-1.84-1.91h0c.7-.68.26-1.68-.84-1.92h0c-1.56-.35-1.56-2,0-2.36h0c1.1-.24,1.54-1.24.84-1.92h0c-1-1,.3-2.31,1.84-1.9h0c1.08.28,2.21-.33,2.18-1.19h0c0-1.23,2.06-1.74,3-.73h0A2,2,0,0,0,55.72,41.14Z"/><path class="cls-16" d="M55.36,42.75h0c.61-.77,2-.38,2,.55h0a1.07,1.07,0,0,0,1.46.89h0c1-.31,1.89.71,1.23,1.44h0a.89.89,0,0,0,.55,1.46h0a.89.89,0,0,1,0,1.77h0A.89.89,0,0,0,60,50.32h0c.66.73-.21,1.74-1.23,1.43h0a1.08,1.08,0,0,0-1.46.9h0c0,.93-1.38,1.31-2,.55h0a1.2,1.2,0,0,0-1.8,0h0c-.62.76-2,.38-2-.55h0a1.07,1.07,0,0,0-1.45-.9h0c-1,.31-1.9-.7-1.24-1.43h0a.89.89,0,0,0-.55-1.46h0a.89.89,0,0,1,0-1.77h0a.89.89,0,0,0,.55-1.46h0c-.66-.73.21-1.75,1.24-1.44h0a1.06,1.06,0,0,0,1.45-.89h0c0-.93,1.38-1.32,2-.55h0A1.22,1.22,0,0,0,55.36,42.75Z"/><path class="cls-15" d="M55.17,45.6h0c1-.41,2.17.25,2,1.11h0a.91.91,0,0,0,.39.94h0c.81.61.36,1.68-.75,1.81h0a1.36,1.36,0,0,0-1,.58h0a1.56,1.56,0,0,1-2.44,0h0a1.36,1.36,0,0,0-1-.58h0c-1.12-.13-1.56-1.2-.76-1.81h0a.94.94,0,0,0,.4-.94h0c-.2-.86,1-1.52,2-1.11h0A1.71,1.71,0,0,0,55.17,45.6Z"/><path class="cls-15" d="M108.21,25.9h0c.7-1.38,3.09-.94,3.08.56h0c0,1.2,1.65,1.84,2.69,1h0c1.28-1,3.26.22,2.54,1.58h0c-.58,1.1.64,2.26,2,1.88h0c1.66-.48,2.88,1.34,1.57,2.34h0c-1,.8-.49,2.29.91,2.4h0a1.36,1.36,0,0,1,.33,2.69h0a1.31,1.31,0,0,0-.31,2.51h0c1.52.74.77,2.74-1,2.57h0c-1.39-.14-2.31,1.22-1.47,2.18h0c1,1.21-.6,2.77-2.11,2h0c-1.2-.61-2.68.31-2.38,1.49h0c.38,1.46-1.85,2.32-2.87,1.09h0a1.7,1.7,0,0,0-2.88.53h0a1.67,1.67,0,0,1-3.14,0h0a1.7,1.7,0,0,0-2.88-.53h0c-1,1.23-3.25.37-2.87-1.09h0C99.72,48,98.24,47,97,47.65h0c-1.5.76-3.14-.8-2.1-2h0c.84-1-.08-2.32-1.47-2.18h0c-1.74.17-2.49-1.83-1-2.57h0a1.31,1.31,0,0,0-.31-2.51h0a1.36,1.36,0,0,1,.33-2.69h0c1.39-.11,2-1.6.91-2.4h0c-1.31-1-.09-2.82,1.57-2.34h0c1.33.38,2.55-.78,2-1.88h0c-.73-1.36,1.25-2.6,2.54-1.58h0c1,.81,2.7.17,2.69-1h0c0-1.5,2.38-1.94,3.08-.56h0A1.72,1.72,0,0,0,108.21,25.9Z"/><path class="cls-16" d="M108,28.16h0c.57-1.09,2.51-.74,2.5.44h0c0,.94,1.35,1.44,2.18.8h0c1.05-.79,2.66.18,2.07,1.25h0c-.47.86.52,1.78,1.6,1.48h0c1.35-.38,2.34,1,1.28,1.83h0c-.86.63-.4,1.8.74,1.89h0c1.41.11,1.62,1.75.26,2.11h0a1,1,0,0,0-.25,2h0c1.24.58.62,2.15-.79,2h0c-1.13-.11-1.87,1-1.19,1.72h0c.84.95-.49,2.17-1.71,1.58h0c-1-.48-2.18.24-1.93,1.16h0c.3,1.15-1.51,1.82-2.34.86h0a1.39,1.39,0,0,0-2.33.42h0a1.38,1.38,0,0,1-2.56,0h0a1.4,1.4,0,0,0-2.34-.42h0c-.82,1-2.64.29-2.33-.86h0c.25-.92-1-1.64-1.93-1.16h0c-1.23.59-2.56-.63-1.71-1.58h0c.68-.76-.06-1.83-1.2-1.72h0c-1.41.13-2-1.44-.79-2h0a1,1,0,0,0-.25-2h0c-1.35-.36-1.14-2,.27-2.11h0c1.14-.09,1.59-1.26.74-1.89h0c-1.06-.78-.07-2.21,1.28-1.83h0c1.08.3,2.07-.62,1.6-1.48h0c-.59-1.07,1-2,2.06-1.25h0c.84.64,2.2.14,2.19-.8h0c0-1.18,1.93-1.53,2.49-.44h0A1.43,1.43,0,0,0,108,28.16Z"/><path class="cls-15" d="M108,31.17h0c.92-1,3-.49,3,.73h0c0,.86,1.1,1.48,2.18,1.19h0c1.53-.41,2.83.93,1.84,1.9h0c-.7.69-.27,1.68.83,1.93h0c1.57.34,1.57,2,0,2.35h0c-1.1.24-1.53,1.24-.83,1.93h0c1,1-.31,2.31-1.84,1.9h0c-1.08-.29-2.21.33-2.18,1.19h0c.05,1.22-2.06,1.74-3,.73h0a2,2,0,0,0-2.69,0h0c-.92,1-3,.49-3-.73h0c0-.86-1.1-1.48-2.18-1.19h0c-1.53.41-2.83-.93-1.84-1.9h0c.7-.69.27-1.69-.83-1.93h0c-1.57-.34-1.57-2,0-2.35h0c1.1-.25,1.53-1.24.83-1.93h0c-1-1,.31-2.31,1.84-1.9h0c1.08.29,2.21-.33,2.18-1.19h0c0-1.22,2.06-1.74,3-.73h0A2,2,0,0,0,108,31.17Z"/><path class="cls-16" d="M107.62,32.78h0c.61-.76,2-.37,2,.55h0a1.08,1.08,0,0,0,1.46.9h0c1-.31,1.89.7,1.23,1.43h0a.89.89,0,0,0,.56,1.46h0a.9.9,0,0,1,0,1.78h0a.88.88,0,0,0-.56,1.45h0c.66.73-.21,1.75-1.23,1.44h0a1.07,1.07,0,0,0-1.46.9h0c0,.92-1.38,1.31-2,.54h0a1.22,1.22,0,0,0-1.8,0h0c-.62.77-2,.38-2-.54h0a1.07,1.07,0,0,0-1.46-.9h0c-1,.31-1.9-.71-1.23-1.44h0a.88.88,0,0,0-.56-1.45h0a.9.9,0,0,1,0-1.78h0a.89.89,0,0,0,.56-1.46h0c-.67-.73.2-1.74,1.23-1.43h0a1.08,1.08,0,0,0,1.46-.9h0c0-.92,1.37-1.31,2-.55h0A1.2,1.2,0,0,0,107.62,32.78Z"/><path class="cls-15" d="M107.44,35.63h0c1-.41,2.16.25,2,1.12h0a.92.92,0,0,0,.39.93h0c.81.62.36,1.68-.75,1.81h0a1.4,1.4,0,0,0-1,.58h0a1.55,1.55,0,0,1-2.44,0h0a1.37,1.37,0,0,0-1-.58h0c-1.12-.13-1.56-1.19-.75-1.81h0a.92.92,0,0,0,.39-.93h0c-.19-.87,1-1.53,2-1.12h0A1.74,1.74,0,0,0,107.44,35.63Z"/><path class="cls-15" d="M134.34,30.43h0c.7-1.38,3.09-.94,3.08.56h0c0,1.2,1.65,1.84,2.69,1h0c1.29-1,3.27.22,2.54,1.58h0c-.58,1.1.64,2.26,2,1.88h0c1.66-.47,2.88,1.34,1.57,2.34h0c-1.05.8-.48,2.29.91,2.4h0a1.36,1.36,0,0,1,.33,2.69h0a1.31,1.31,0,0,0-.31,2.51h0c1.52.74.77,2.74-1,2.57h0c-1.39-.14-2.3,1.22-1.47,2.18h0c1,1.21-.6,2.77-2.1,2h0c-1.21-.61-2.69.31-2.39,1.49h0c.38,1.46-1.85,2.32-2.87,1.09h0a1.7,1.7,0,0,0-2.88.53h0a1.67,1.67,0,0,1-3.14,0h0a1.7,1.7,0,0,0-2.88-.53h0c-1,1.23-3.25.37-2.87-1.09h0c.3-1.18-1.18-2.1-2.38-1.49h0c-1.51.76-3.15-.8-2.11-2h0c.84-1-.08-2.32-1.47-2.18h0c-1.74.17-2.49-1.83-1-2.57h0a1.31,1.31,0,0,0-.31-2.51h0a1.36,1.36,0,0,1,.33-2.69h0c1.4-.11,2-1.6.91-2.4h0c-1.31-1-.09-2.81,1.57-2.34h0c1.33.38,2.55-.78,2-1.88h0c-.72-1.36,1.26-2.6,2.54-1.58h0c1,.81,2.71.17,2.69-1h0c0-1.5,2.38-1.94,3.08-.56h0A1.72,1.72,0,0,0,134.34,30.43Z"/><path class="cls-16" d="M134.08,32.69h0c.57-1.09,2.52-.74,2.5.44h0c0,.94,1.35,1.44,2.19.8h0c1-.79,2.65.18,2.06,1.25h0c-.47.86.52,1.78,1.6,1.48h0c1.35-.38,2.34,1.05,1.28,1.83h0c-.85.63-.4,1.8.74,1.89h0c1.41.11,1.62,1.76.26,2.11h0a1,1,0,0,0-.25,2h0c1.24.58.63,2.15-.79,2h0c-1.13-.11-1.87,1-1.19,1.72h0c.84.95-.49,2.17-1.71,1.58h0c-1-.48-2.18.24-1.93,1.16h0c.3,1.15-1.51,1.83-2.34.87h0a1.39,1.39,0,0,0-2.33.41h0a1.38,1.38,0,0,1-2.56,0h0a1.39,1.39,0,0,0-2.33-.41h0c-.83,1-2.65.28-2.34-.87h0c.25-.92-1-1.64-1.93-1.16h0c-1.22.59-2.55-.63-1.71-1.58h0c.68-.76-.06-1.83-1.2-1.72h0c-1.41.13-2-1.44-.78-2h0a1,1,0,0,0-.25-2h0c-1.36-.35-1.15-2,.26-2.11h0c1.14-.09,1.59-1.26.74-1.89h0c-1.06-.78-.07-2.21,1.28-1.83h0c1.08.3,2.07-.62,1.6-1.48h0c-.59-1.07,1-2,2.06-1.25h0c.84.64,2.2.14,2.19-.8h0c0-1.18,1.93-1.53,2.49-.44h0A1.43,1.43,0,0,0,134.08,32.69Z"/><path class="cls-15" d="M134.11,35.7h0c.92-1,3-.49,3,.73h0c0,.86,1.1,1.48,2.18,1.19h0c1.54-.41,2.84.93,1.84,1.9h0c-.7.69-.27,1.68.83,1.93h0c1.57.34,1.57,2,0,2.35h0c-1.1.25-1.53,1.24-.83,1.93h0c1,1-.3,2.31-1.84,1.9h0c-1.08-.29-2.21.33-2.18,1.19h0c0,1.22-2.06,1.74-3,.73h0a2,2,0,0,0-2.69,0h0c-.92,1-3,.49-3-.73h0c0-.86-1.1-1.48-2.18-1.19h0c-1.53.41-2.83-.93-1.84-1.9h0c.7-.69.27-1.68-.83-1.93h0c-1.56-.34-1.56-2,0-2.35h0c1.1-.25,1.53-1.24.83-1.93h0c-1-1,.31-2.31,1.84-1.9h0c1.08.29,2.21-.33,2.18-1.19h0c0-1.22,2.06-1.74,3-.73h0A2,2,0,0,0,134.11,35.7Z"/><path class="cls-16" d="M133.75,37.31h0c.62-.76,2-.37,2,.55h0a1.08,1.08,0,0,0,1.46.9h0c1-.31,1.89.7,1.23,1.44h0a.88.88,0,0,0,.56,1.45h0a.9.9,0,0,1,0,1.78h0a.88.88,0,0,0-.56,1.45h0c.66.73-.2,1.75-1.23,1.44h0a1.08,1.08,0,0,0-1.46.9h0c0,.92-1.37,1.31-2,.55h0a1.2,1.2,0,0,0-1.8,0h0c-.62.76-2,.37-2-.55h0a1.08,1.08,0,0,0-1.46-.9h0c-1,.31-1.9-.71-1.23-1.44h0a.88.88,0,0,0-.56-1.45h0a.9.9,0,0,1,0-1.78h0a.88.88,0,0,0,.56-1.45h0c-.67-.74.2-1.75,1.23-1.44h0a1.08,1.08,0,0,0,1.46-.9h0c0-.92,1.37-1.31,2-.55h0A1.2,1.2,0,0,0,133.75,37.31Z"/><path class="cls-15" d="M133.57,40.16h0c1-.41,2.16.25,2,1.12h0a.92.92,0,0,0,.39.93h0c.81.62.36,1.68-.75,1.81h0a1.37,1.37,0,0,0-1,.58h0a1.55,1.55,0,0,1-2.44,0h0a1.41,1.41,0,0,0-1-.58h0c-1.11-.13-1.56-1.19-.75-1.81h0a.92.92,0,0,0,.39-.93h0c-.19-.87,1-1.53,2-1.12h0A1.74,1.74,0,0,0,133.57,40.16Z"/><path class="cls-15" d="M160.47,37.68h0c.7-1.38,3.09-.94,3.08.56h0c0,1.2,1.65,1.84,2.69,1h0c1.29-1,3.27.22,2.54,1.58h0c-.58,1.1.64,2.26,2,1.88h0c1.66-.48,2.88,1.34,1.57,2.34h0c-1,.8-.48,2.29.91,2.4h0a1.36,1.36,0,0,1,.33,2.69h0a1.31,1.31,0,0,0-.31,2.51h0c1.53.74.77,2.74-1,2.57h0c-1.39-.14-2.3,1.22-1.47,2.18h0c1,1.21-.6,2.77-2.1,2h0c-1.21-.61-2.69.31-2.38,1.49h0c.37,1.46-1.86,2.31-2.88,1.09h0a1.7,1.7,0,0,0-2.88.53h0a1.67,1.67,0,0,1-3.14,0h0a1.7,1.7,0,0,0-2.88-.53h0c-1,1.22-3.25.37-2.87-1.09h0c.3-1.18-1.17-2.1-2.38-1.49h0c-1.51.76-3.15-.8-2.11-2h0c.84-1-.07-2.32-1.47-2.18h0c-1.74.17-2.49-1.83-1-2.57h0a1.31,1.31,0,0,0-.31-2.51h0a1.36,1.36,0,0,1,.33-2.69h0c1.4-.11,2-1.6.91-2.4h0c-1.31-1-.08-2.82,1.57-2.34h0c1.33.38,2.55-.78,2-1.88h0c-.72-1.36,1.26-2.6,2.55-1.58h0c1,.81,2.7.17,2.68-1h0c0-1.5,2.38-1.94,3.08-.56h0A1.72,1.72,0,0,0,160.47,37.68Z"/><path class="cls-16" d="M160.22,39.93h0c.56-1.08,2.51-.73,2.49.45h0c0,.94,1.35,1.44,2.19.8h0c1-.79,2.65.18,2.06,1.25h0c-.47.86.52,1.78,1.6,1.48h0c1.35-.38,2.34,1.05,1.28,1.83h0c-.85.63-.4,1.8.74,1.89h0c1.41.11,1.62,1.75.26,2.11h0a1,1,0,0,0-.24,2h0c1.23.58.62,2.15-.79,2h0c-1.14-.11-1.88,1-1.2,1.72h0c.85.95-.48,2.17-1.71,1.58h0c-1-.48-2.18.24-1.93,1.16h0c.31,1.15-1.51,1.82-2.33.86h0a1.4,1.4,0,0,0-2.34.42h0a1.38,1.38,0,0,1-2.56,0h0a1.39,1.39,0,0,0-2.33-.42h0c-.83,1-2.64.29-2.34-.86h0c.25-.92-.95-1.64-1.93-1.16h0c-1.22.59-2.55-.63-1.71-1.58h0c.68-.76-.06-1.83-1.19-1.72h0c-1.41.13-2-1.44-.79-2h0a1,1,0,0,0-.25-2h0c-1.36-.36-1.15-2,.26-2.11h0c1.14-.09,1.6-1.26.74-1.89h0c-1.06-.78-.07-2.21,1.28-1.83h0c1.08.3,2.07-.62,1.6-1.48h0c-.59-1.07,1-2,2.06-1.25h0c.84.64,2.2.14,2.19-.8h0c0-1.18,1.93-1.53,2.5-.45h0A1.42,1.42,0,0,0,160.22,39.93Z"/><path class="cls-15" d="M160.24,43h0c.92-1,3-.49,3,.73h0c0,.86,1.1,1.48,2.18,1.19h0c1.54-.41,2.84.93,1.84,1.9h0c-.7.69-.26,1.68.84,1.93h0c1.56.34,1.56,2,0,2.35h0c-1.1.24-1.54,1.24-.84,1.93h0c1,1-.3,2.31-1.84,1.9h0c-1.08-.29-2.21.33-2.18,1.19h0c.05,1.22-2.06,1.74-3,.73h0a2,2,0,0,0-2.69,0h0c-.92,1-3,.49-3-.73h0c0-.86-1.1-1.48-2.18-1.19h0c-1.53.41-2.83-.93-1.84-1.9h0c.7-.69.27-1.69-.83-1.93h0c-1.56-.35-1.56-2,0-2.35h0c1.1-.25,1.53-1.24.83-1.93h0c-1-1,.31-2.31,1.84-1.9h0c1.08.29,2.21-.33,2.18-1.19h0c0-1.22,2.06-1.74,3-.73h0A2,2,0,0,0,160.24,43Z"/><path class="cls-16" d="M159.88,44.56h0c.62-.76,2-.37,2,.55h0a1.08,1.08,0,0,0,1.46.9h0c1-.31,1.9.7,1.23,1.43h0a.89.89,0,0,0,.56,1.46h0a.9.9,0,0,1,0,1.78h0a.88.88,0,0,0-.56,1.45h0c.67.73-.2,1.75-1.23,1.44h0a1.07,1.07,0,0,0-1.46.9h0c0,.92-1.37,1.31-2,.54h0a1.22,1.22,0,0,0-1.8,0h0c-.62.77-2,.38-2-.54h0a1.07,1.07,0,0,0-1.46-.9h0c-1,.31-1.89-.71-1.23-1.44h0a.88.88,0,0,0-.56-1.45h0a.9.9,0,0,1,0-1.78h0a.89.89,0,0,0,.56-1.46h0c-.66-.73.2-1.74,1.23-1.43h0a1.08,1.08,0,0,0,1.46-.9h0c0-.92,1.37-1.31,2-.55h0A1.2,1.2,0,0,0,159.88,44.56Z"/><path class="cls-15" d="M159.7,47.41h0c1-.41,2.16.25,2,1.12h0a.92.92,0,0,0,.39.93h0c.81.62.37,1.68-.75,1.81h0a1.37,1.37,0,0,0-1,.58h0a1.55,1.55,0,0,1-2.44,0h0a1.4,1.4,0,0,0-1-.58h0c-1.11-.13-1.56-1.19-.75-1.81h0a.91.91,0,0,0,.39-.93h0c-.19-.87,1-1.53,2-1.12h0A1.74,1.74,0,0,0,159.7,47.41Z"/><path class="cls-7" d="M86.53,81.07s-3.78-1.67-5.24-4.28"/><path class="cls-7" d="M85.12,83.81s-3.77-1.67-5.24-4.28"/></g></svg>