<svg xmlns="http://www.w3.org/2000/svg" width="272" height="580" viewBox="0 0 272 580"><defs><style>.cls-1{fill:#fff;}.cls-2{fill:#07202a;}.cls-3{fill:#902761;}.cls-4{fill:#7e2153;}.cls-5{fill:#bd2f59;}.cls-6{fill:#e900cf;}.cls-7{fill:none;stroke:#000;stroke-miterlimit:10;}.cls-8{fill:#dbdad9;}.cls-9{fill:#dd2443;}.cls-10{fill:#9229d6;}.cls-11{fill:#267ddb;}.cls-12{fill:#f9c847;}.cls-13{fill:#e3933a;}.cls-14{fill:#0a2a3a;}.cls-15{fill:#ed146c;}.cls-16{fill:#ef56b9;}</style></defs><g id="Animated_items" data-name="Animated items"><g id="happy_right" data-name="happy right"><path class="cls-1" d="M188.53,252s-1,21.75-9.87,21.75-10.58-5.3-10.58-5.3,4.24-13.24,6.14-15.23S183.19,246.17,188.53,252Z"/><path class="cls-1" d="M174.85,287s-4,12.28-8.36,17.39S150.76,291,150.76,291s6.63-13.93,10.15-11.92C160.91,279.08,167.25,280.4,174.85,287Z"/><path class="cls-1" d="M165,278.88l8.93,5.38a3.72,3.72,0,0,0,5.19-1.45h0a4.08,4.08,0,0,0-1.39-5.43L168.81,272a3.71,3.71,0,0,0-5.19,1.45h0A4.08,4.08,0,0,0,165,278.88Z"/><path class="cls-1" d="M83.46,481.6l-2.39,28.2s-2.63,8.14,2.39,10.69l13.65,2.56s9.87,1.32,7.4-6.62L108,482.68"/><path class="cls-1" d="M65,544.24s-11.89,2.65-14.59,0c0,0-7.47-8,5.41-14h3.71s12.73-7.9,20.82-10.21l16.73,3s17.27,2.65,3.7,17.21c0,0-17.41,7.48-20.43,13C80.38,553.27,66.26,561.45,65,544.24Z"/><path class="cls-1" d="M70.26,559.83s-9,7.64-5.9,15.18C64.36,575,72.63,577,70.26,559.83Z"/><path class="cls-1" d="M47.13,544.25s-6.92-3.93-9.25,5.17C37.88,549.42,40.08,559.87,47.13,544.25Z"/><path class="cls-1" d="M53.3,552.19s-6.92-3.92-9.25,5.18C44.05,557.37,46.25,567.82,53.3,552.19Z"/><path class="cls-1" d="M63.17,557.49s-6.92-3.93-9.25,5.18C53.92,562.67,56.12,573.12,63.17,557.49Z"/><path class="cls-1" d="M43.65,536.6s-7.08-3.21-10.14,1.7C33.51,538.3,35.17,544.61,43.65,536.6Z"/><path class="cls-1" d="M193.24,475l2.39,28.2s2.61,8.14-2.39,10.69l-13.61,2.56s-9.84,1.32-7.38-6.63l-3.51-33.74"/><path class="cls-1" d="M211.62,537.61s11.85,2.65,14.54,0c0,0,7.45-8-5.39-14h-3.7s-12.69-7.9-20.76-10.21l-16.68,3s-17.22,2.64-3.69,17.21c0,0,17.36,7.47,20.37,13C196.31,546.65,210.39,554.83,211.62,537.61Z"/><path class="cls-1" d="M203.68,552.45s10.89,7.13,8.91,15.58C212.59,568,204.15,571.1,203.68,552.45Z"/><path class="cls-1" d="M231.92,540.27s6.91-3.92,9.23,5.18C241.15,545.45,239,555.9,231.92,540.27Z"/><path class="cls-1" d="M223.31,545.57s6.91-3.93,9.23,5.18C232.54,550.75,230.34,561.2,223.31,545.57Z"/><path class="cls-1" d="M213.47,550.87s6.9-3.93,9.22,5.17C222.69,556,220.5,566.5,213.47,550.87Z"/><path class="cls-1" d="M232.29,532s7.36-2.28,9.86,3C242.15,535,239.83,541.06,232.29,532Z"/><path class="cls-2" d="M66.79,213.43S-26.8,135,22.56,64.77H205.19S228.63,144.55,170,215.91Z"/><path class="cls-3" d="M73,300.7S27.5,330.16,26.26,366.32c0,0-4.93,86.49-8.63,107.68,0,0,6.17,23.84-6.17,37.08,0,0,25.91,11.92,45.65-4,0,0,17.28-5.87,25.92-2.94,0,0,27.14,10.67,43.18-4.45,0,0,14.19-4.74,26.22,0,0,0,18.21,8.71,33-3.21,0,0,4.93-4,14.8-1.32,0,0,34.55,7.94,39.49-4,0,0,16,1.32,23.45-2.65,0,0-14.81-23.84-16.05-34.44,0,0-27.14-88.73-34.55-100.65,0,0-21-56.94-46.89-59.59C165.7,293.89,76.58,298.24,73,300.7Z"/><path class="cls-4" d="M85.52,298.9S67,332.29,67,334.94,100.35,296,85.52,298.9Z"/><path class="cls-4" d="M112.13,298.76l-.36.79c-1.32,2.94-5.78,13.27-5,17.36,0,0,8.33-9.78,12-17.73Z"/><path class="cls-4" d="M138.11,298.76s4.15,15,6.61,15c0,0,1.63-12.77-1.65-15S138.11,298.76,138.11,298.76Z"/><path class="cls-4" d="M154.51,297s22.3,14.15,23.53,27.4c0,0-24.64-20.05-27.74-26.58S154.51,297,154.51,297Z"/><path class="cls-5" d="M74.34,249.45s-.57,9.34,5.6,16,2.47,19.87,2.47,19.87L73,300.7s63.07,3.78,92.68-6.81c0,0-6.17-11.92-6.17-15.9,0,0-1.23-6.62,1.24-11.91,0,0,3.7-9.28,0-14.57S74.34,249.45,74.34,249.45Z"/><path class="cls-1" d="M109.56,29.68s-59.23,4-74,47.67c0,0-1.85,45.69,14.19,61.59S110.17,180,110.17,180s10.93,6.62,18.42,0c7-6.15,41.51-28.28,46.41-37.78a15,15,0,0,1,2.77-3.92c6.13-6,22.6-25.8,17.55-61.6C195.32,76.69,189.15,27.69,109.56,29.68Z"/><path class="cls-6" d="M146.62,75.24h0c2.14-3.5,7-1.72,6.93,2.52h0c-.08,3,2.55,5.12,5.06,4.11h0c3.57-1.41,6.59,3.24,4.28,6.6h0c-1.62,2.36-.62,5.82,1.94,6.66h0c3.63,1.2,3.63,7,0,8.15h0c-2.56.84-3.56,4.3-1.94,6.67h0c2.31,3.35-.71,8-4.28,6.59h0c-2.51-1-5.14,1.13-5.06,4.12h0c.1,4.23-4.79,6-6.93,2.52h0a3.57,3.57,0,0,0-6.26,0h0c-2.14,3.49-7,1.71-6.93-2.52h0c.08-3-2.55-5.12-5.06-4.12h0c-3.57,1.42-6.59-3.24-4.28-6.59h0c1.62-2.37.62-5.83-1.94-6.67h0c-3.63-1.2-3.63-7,0-8.15h0c2.56-.84,3.56-4.3,1.94-6.66h0c-2.31-3.36.71-8,4.28-6.6h0c2.51,1,5.14-1.13,5.06-4.11h0c-.1-4.24,4.79-6,6.93-2.52h0A3.58,3.58,0,0,0,146.62,75.24Z"/><path class="cls-6" d="M102.34,75.24h0c2.15-3.5,7.07-1.72,7,2.52h0c-.07,3,2.57,5.12,5.09,4.11h0c3.59-1.41,6.63,3.24,4.31,6.6h0c-1.64,2.36-.63,5.82,1.94,6.66h0c3.65,1.2,3.65,7,0,8.15h0c-2.57.84-3.58,4.3-1.94,6.67h0c2.32,3.35-.72,8-4.31,6.59h0c-2.52-1-5.16,1.13-5.09,4.12h0c.11,4.23-4.81,6-7,2.52h0a3.6,3.6,0,0,0-6.3,0h0c-2.15,3.49-7.06,1.71-7-2.52h0c.08-3-2.56-5.12-5.09-4.12h0c-3.58,1.42-6.62-3.24-4.3-6.59h0c1.63-2.37.62-5.83-2-6.67h0c-3.65-1.2-3.65-7,0-8.15h0c2.57-.84,3.58-4.3,2-6.66h0c-2.32-3.36.72-8,4.3-6.6h0c2.53,1,5.17-1.13,5.09-4.11h0c-.1-4.24,4.81-6,7-2.52h0A3.61,3.61,0,0,0,102.34,75.24Z"/><path class="cls-7" d="M163.56,82.08s-3.82,4.48-8,5.43"/><path class="cls-7" d="M165.55,85.08s-3.82,4.49-8,5.43"/><ellipse class="cls-8" cx="99.68" cy="98.54" rx="16.66" ry="17.88"/><ellipse cx="107.96" cy="98.54" rx="8.02" ry="13.91"/><ellipse class="cls-8" cx="142.87" cy="98.54" rx="16.66" ry="17.88"/><ellipse cx="152.14" cy="98.54" rx="8.02" ry="13.91"/><path d="M112.7,125.24s3.25-6,6.74-7.8c0,0,3.49,2.66,4.91,5.56.35.7.7,1.39,1.11,2,.76,1.21,1.81,3.39,1.18,5.55,0,0-.46,5.35-7.2,0,0,0-7.67,3.29-7.67-1.07C111.77,129.53,111.77,126.31,112.7,125.24Z"/><path class="cls-7" d="M94.13,138.94s32.22,21.19,58.06-6"/><path class="cls-7" d="M104.4,139.89s3.31,7,3.31,11"/><path class="cls-7" d="M116.34,140.85a28.78,28.78,0,0,1,4.94,11.33"/><path class="cls-7" d="M130.78,139.89s6.54,4.34,6.54,8.32"/><path class="cls-7" d="M143.49,130.85a41,41,0,0,1,8.7,10"/><ellipse class="cls-9" cx="72.54" cy="123.71" rx="6.17" ry="6.62"/><ellipse class="cls-9" cx="163.85" cy="126.36" rx="6.17" ry="6.62"/><path class="cls-10" d="M83.4,152.1a.79.79,0,0,1-.46-1.32c1.41-1.74,4.13-5,4.91-5.21,1-.27,4.68,2.48,2.42,5.82a1,1,0,0,1-.63.41A21.24,21.24,0,0,1,83.4,152.1Z"/><ellipse class="cls-11" cx="76.86" cy="152.84" rx="3.94" ry="5.61" transform="translate(-93.97 162.12) rotate(-66.41)"/><path class="cls-10" d="M70.66,148.63a.77.77,0,0,1-.83,1.1c-2.11-.43-6.11-1.3-6.67-1.91-.74-.81-.38-5.59,3.45-5.19a1,1,0,0,1,.64.38A24.45,24.45,0,0,1,70.66,148.63Z"/><path class="cls-10" d="M75.4,147.12a.71.71,0,0,1-1.32,0c-1-2-2.87-5.93-2.77-6.78.12-1.12,3.83-3.81,5.92-.35a1.1,1.1,0,0,1,.13.78A25.35,25.35,0,0,1,75.4,147.12Z"/><path class="cls-10" d="M80.29,148.3a.74.74,0,0,1-1.06-.83c.31-2.28.94-6.61,1.48-7.24.72-.82,5.19-.65,5,3.47a1.15,1.15,0,0,1-.33.71A22.59,22.59,0,0,1,80.29,148.3Z"/><path class="cls-10" d="M82.62,157.47a.8.8,0,0,1,.36-1.36c2.09-.51,6.09-1.41,6.82-1.09,1,.43,2.42,5-1.24,6.23a.89.89,0,0,1-.73-.07A22.46,22.46,0,0,1,82.62,157.47Z"/><path class="cls-10" d="M155.09,150.56a.7.7,0,0,1-1.27-.32c-.58-2.21-1.61-6.45-1.34-7.26.35-1.07,4.51-2.83,5.85,1a1.16,1.16,0,0,1,0,.8A24.94,24.94,0,0,1,155.09,150.56Z"/><ellipse class="cls-11" cx="152.07" cy="156.83" rx="5.71" ry="3.86" transform="translate(-65.89 142.16) rotate(-42.03)"/><path class="cls-10" d="M145.38,160.06a.8.8,0,0,1,.39,1.34c-1.49,1.66-4.38,4.76-5.16,4.92-1,.22-4.55-2.74-2.13-5.94a1,1,0,0,1,.65-.38A21.24,21.24,0,0,1,145.38,160.06Z"/><path class="cls-10" d="M146.81,155a.77.77,0,0,1-.73,1.17c-2.13-.22-6.19-.7-6.8-1.25-.8-.73-.85-5.53,3-5.5a.94.94,0,0,1,.67.31A24,24,0,0,1,146.81,155Z"/><path class="cls-10" d="M150.43,151.25a.72.72,0,0,1-1.23.49c-1.61-1.53-4.62-4.49-4.81-5.32-.24-1.1,2.35-5,5.44-2.55a1.13,1.13,0,0,1,.38.69A26.09,26.09,0,0,1,150.43,151.25Z"/><path class="cls-10" d="M158.84,154.21a.76.76,0,0,1-.86-1.06c.76-2.15,2.26-6.23,2.92-6.71.87-.64,5.2.58,4.16,4.55a1.07,1.07,0,0,1-.46.62A21.84,21.84,0,0,1,158.84,154.21Z"/><path class="cls-2" d="M115.86,38.76s-4.45,48.53-80.34,38.59l-13-12.58s101.19-112.57,182.63,0L193.54,70.2S148.69,89.56,115.86,38.76Z"/><rect class="cls-1" x="110.17" y="185.29" width="20.98" height="7.95" rx="2.72"/><rect class="cls-1" x="110.17" y="195.88" width="20.98" height="7.95" rx="2.72"/><rect class="cls-1" x="110.17" y="206.48" width="20.98" height="7.95" rx="2.72"/><path class="cls-1" d="M46.89,251.6s1,21.76,9.61,21.76,10.29-5.3,10.29-5.3-4.12-13.24-6-15.23S52.09,245.74,46.89,251.6Z"/><path class="cls-1" d="M60.2,286.6s3.94,12.28,8.14,17.4,15.3-13.42,15.3-13.42-6.44-13.93-9.87-11.92C73.77,278.66,67.6,280,60.2,286.6Z"/><path class="cls-1" d="M69.78,278.46l-8.69,5.38A3.58,3.58,0,0,1,56,282.38h0A4.13,4.13,0,0,1,57.39,277l8.68-5.39A3.59,3.59,0,0,1,71.13,273h0A4.15,4.15,0,0,1,69.78,278.46Z"/><path class="cls-1" d="M107.71,193.24S88,198.53,78.09,207.8l12,2.65s8.95-7.94,17.59-6.62C107.71,203.83,111.41,195.88,107.71,193.24Z"/><path class="cls-12" d="M75.05,206.48s41.29,15.89,89.42,5.3c0,0,27.15,13.24,29.61,38.4,0,0-3.7,7.95-19.74,2.65,0,0-6.17,5.3-13.57-1.32,0,0-2.4,8-14.77,3.33,0,0-5,4.61-13.62.64,0,0-3.74-.75-5.57,1.61,0,0-5.94,4.49-17.46-3.86,0,0-1.64-4.37-9-.4,0,0-9.87,5.3-18.51-1.32,0,0-6.17,0-9.87-4,0,0-6.17,4-11.11,5.3a7.4,7.4,0,0,1-4.93-2.65s-13.58,4-12.34-1.32S58.43,219.72,75.05,206.48Z"/><path class="cls-1" d="M132.16,193.24s33.54,14.56,32.31,18.54L157,213.43s-8.26-7.94-23.2-10.1C133.75,203.33,130.71,197.21,132.16,193.24Z"/><path class="cls-13" d="M79.32,226.34s-7.4,9.27-6.17,13.25c0,0,6.17-8,6.17-13.25"/><path class="cls-13" d="M94.29,239.59c1.08,2.65,6-5.3,4.78-6.62C99.07,233,93.21,236.94,94.29,239.59Z"/><path class="cls-13" d="M116.34,230.32s-1.23,15.7,4.32,18.44C120.66,248.76,117.58,230.32,116.34,230.32Z"/><path class="cls-13" d="M139.79,223.7s-2.47,18.54,6.17,23.83C146,247.53,143.49,225,139.79,223.7Z"/><path class="cls-13" d="M169.94,235.61s.7,6.63,4.4,6.63S169.94,235.61,169.94,235.61Z"/><path class="cls-4" d="M25.49,514.88s21.75-55.45,18.05-59.42c0,0,9.87-4.66-11.72,59.91Z"/><path class="cls-4" d="M60.82,506s11.1-41.26,13.57-43.91-7.34,42.42-7.34,42.42Z"/><path class="cls-4" d="M115.11,435.59s0,13.25,3.7,18.54,2.47,13.25,2.47,13.25-1.24,9.27,3.7,14.56S128.73,499,128.73,499l6.51-1.14s-2.86-15.95-5.32-19.92c0,0-1.24-2.65,0-4,0,0,1.23-11.92-1.24-15.89S113.87,436.92,115.11,435.59Z"/><path class="cls-4" d="M188.29,495S176.81,463.4,178,458.11s17.28,35.75,17.28,35.75Z"/><path class="cls-4" d="M220,442.21s20.57,49,17.07,52.29l3.5-3.34S231.1,443.54,220,442.21Z"/><path class="cls-14" d="M50.33,69.41S81.17,41.6,98.45,41.6C98.45,41.6,60.2,69.41,50.33,69.41Z"/><path class="cls-14" d="M129.61,41S168,54.3,177.11,70C177.11,70,134.85,50,129.61,41Z"/><path class="cls-14" d="M33.67,71.4S60.56,32.23,90.92,28C90.92,28,53.41,26.37,33.67,71.4Z"/><path class="cls-14" d="M130.1,32s45.15,4.36,64.29,30C194.39,62,176.21,26.79,130.1,32Z"/><path class="cls-14" d="M26.92,92s-3.34,60.77,42.21,102.2C69.13,194.2,30.43,130.59,26.92,92Z"/><path class="cls-14" d="M152.56,194.19s48.16-32.14,53.4-96C206,98.21,179.89,168.85,152.56,194.19Z"/><path class="cls-14" d="M63.27,155s10.12,28.22,25.32,41.32C88.59,196.35,70.55,158.84,63.27,155Z"/><path class="cls-14" d="M137.57,189.33s24.66-14.62,34.67-32.58C172.24,156.75,140.09,181.06,137.57,189.33Z"/><path class="cls-15" d="M79.12,10.26h0c1-2,4.38-1.37,4.35.82h0c0,1.76,2.35,2.69,3.81,1.5h0c1.83-1.48,4.63.32,3.61,2.32h0c-.83,1.6.9,3.3,2.79,2.74h0c2.34-.69,4.08,2,2.22,3.42h0c-1.48,1.17-.69,3.34,1.29,3.51h0a2,2,0,0,1,.47,3.93h0a1.93,1.93,0,0,0-.44,3.67h0c2.16,1.08,1.09,4-1.37,3.75h0c-2-.2-3.27,1.78-2.09,3.2h0c1.47,1.76-.85,4-3,2.93h0c-1.71-.89-3.8.45-3.37,2.17h0c.53,2.14-2.63,3.39-4.07,1.61h0a2.38,2.38,0,0,0-4.08.76h0c-.49,2.15-4,2.15-4.46,0h0a2.37,2.37,0,0,0-4.07-.76h0c-1.44,1.78-4.61.53-4.07-1.61h0c.43-1.72-1.66-3.06-3.38-2.17h0c-2.13,1.11-4.45-1.17-3-2.93h0c1.18-1.42-.11-3.4-2.08-3.2h0c-2.46.25-3.53-2.67-1.38-3.75h0a1.93,1.93,0,0,0-.43-3.67h0a2,2,0,0,1,.46-3.93h0c2-.17,2.78-2.34,1.29-3.51h0C56.31,19.61,58,17,60.39,17.64h0c1.88.56,3.61-1.14,2.79-2.74h0c-1-2,1.78-3.8,3.6-2.32h0c1.47,1.19,3.83.26,3.81-1.5h0c0-2.19,3.37-2.83,4.36-.82h0A2.4,2.4,0,0,0,79.12,10.26Z"/><path class="cls-16" d="M78.75,13.56h0c.8-1.58,3.56-1.08,3.54.64h0c0,1.39,1.9,2.12,3.09,1.18h0c1.49-1.16,3.76.26,2.93,1.83h0c-.67,1.25.74,2.59,2.27,2.15h0c1.9-.55,3.31,1.54,1.81,2.69h0c-1.21.91-.56,2.62,1,2.75h0c2,.17,2.3,2.57.38,3.09h0a1.5,1.5,0,0,0-.35,2.88h0c1.75.85.88,3.15-1.12,2.95h0c-1.61-.16-2.65,1.4-1.69,2.51h0c1.19,1.39-.69,3.18-2.43,2.31h0c-1.39-.7-3.08.35-2.73,1.7h0c.43,1.68-2.14,2.67-3.31,1.26h0a2,2,0,0,0-3.31.61h0a1.93,1.93,0,0,1-3.62,0h0a2,2,0,0,0-3.31-.61h0c-1.17,1.41-3.74.42-3.31-1.26h0c.35-1.35-1.35-2.4-2.74-1.7h0c-1.73.87-3.61-.92-2.42-2.31h0c1-1.11-.09-2.67-1.69-2.51h0c-2,.2-2.87-2.1-1.12-2.95h0a1.5,1.5,0,0,0-.35-2.88h0c-1.92-.52-1.62-2.92.38-3.09h0c1.6-.13,2.25-1.84,1-2.75h0c-1.5-1.15-.1-3.24,1.81-2.69h0c1.53.44,2.94-.9,2.27-2.15h0c-.84-1.57,1.44-3,2.92-1.83h0c1.19.94,3.11.21,3.1-1.18h0c0-1.72,2.73-2.22,3.54-.64h0A2,2,0,0,0,78.75,13.56Z"/><path class="cls-15" d="M78.79,18h0C80.1,16.49,83.08,17.24,83,19h0c0,1.26,1.56,2.16,3.09,1.74h0c2.17-.6,4,1.36,2.61,2.78h0c-1,1-.38,2.46,1.18,2.81h0c2.21.51,2.21,2.94,0,3.44h0c-1.56.36-2.17,1.82-1.18,2.82h0C90.11,34,88.27,36,86.1,35.4h0C84.57,35,83,35.88,83,37.14h0c.07,1.79-2.91,2.54-4.22,1.06h0a2.72,2.72,0,0,0-3.81,0h0c-1.31,1.48-4.29.73-4.22-1.06h0c0-1.26-1.56-2.16-3.09-1.74h0c-2.17.6-4-1.36-2.61-2.78h0c1-1,.38-2.46-1.18-2.82h0c-2.21-.5-2.21-2.93,0-3.44h0c1.56-.35,2.17-1.81,1.18-2.81h0c-1.41-1.42.44-3.38,2.61-2.78h0c1.53.42,3.13-.48,3.09-1.74h0C70.69,17.24,73.67,16.49,75,18h0A2.72,2.72,0,0,0,78.79,18Z"/><path class="cls-16" d="M78.28,20.32h0c.87-1.12,2.86-.55,2.82.8h0a1.52,1.52,0,0,0,2.06,1.31h0c1.46-.45,2.69,1,1.75,2.1h0a1.3,1.3,0,0,0,.79,2.13h0a1.32,1.32,0,0,1,0,2.6h0a1.29,1.29,0,0,0-.79,2.12h0c.94,1.07-.29,2.55-1.75,2.1h0A1.52,1.52,0,0,0,81.1,34.8h0c0,1.34-1.95,1.91-2.82.8h0a1.67,1.67,0,0,0-2.55,0h0c-.88,1.11-2.87.54-2.83-.8h0a1.52,1.52,0,0,0-2.06-1.32h0c-1.45.45-2.69-1-1.74-2.1h0a1.3,1.3,0,0,0-.79-2.12h0a1.32,1.32,0,0,1,0-2.6h0a1.3,1.3,0,0,0,.79-2.13h0c-.95-1.07.29-2.55,1.74-2.1h0a1.52,1.52,0,0,0,2.06-1.31h0c0-1.35,1.95-1.92,2.83-.8h0A1.68,1.68,0,0,0,78.28,20.32Z"/><path class="cls-15" d="M78,24.48h0c1.41-.59,3.07.37,2.8,1.64h0a1.35,1.35,0,0,0,.55,1.36h0c1.14.9.51,2.46-1.07,2.64h0a2,2,0,0,0-1.45.85h0a2.16,2.16,0,0,1-3.45,0h0a2,2,0,0,0-1.46-.85h0c-1.58-.18-2.21-1.74-1.06-2.64h0a1.35,1.35,0,0,0,.55-1.36h0c-.27-1.27,1.38-2.23,2.8-1.64h0A2.32,2.32,0,0,0,78,24.48Z"/><path class="cls-15" d="M43.33,20.85h0c1-2,4.38-1.37,4.36.82h0c0,1.76,2.34,2.69,3.81,1.51h0c1.82-1.49,4.63.32,3.6,2.32h0c-.82,1.6.91,3.3,2.79,2.74h0c2.35-.7,4.08,2,2.23,3.42h0c-1.49,1.16-.69,3.34,1.29,3.51h0a2,2,0,0,1,.46,3.92h0a1.93,1.93,0,0,0-.43,3.67h0c2.15,1.08,1.08,4-1.38,3.76h0c-2-.2-3.27,1.78-2.08,3.19h0c1.47,1.77-.85,4-3,2.94h0c-1.72-.9-3.81.45-3.38,2.17h0c.54,2.14-2.63,3.39-4.07,1.6h0a2.38,2.38,0,0,0-4.08.77h0c-.49,2.15-4,2.15-4.45,0h0a2.38,2.38,0,0,0-4.08-.77h0c-1.44,1.79-4.6.54-4.07-1.6h0c.43-1.72-1.66-3.07-3.37-2.17h0c-2.13,1.11-4.46-1.17-3-2.94h0c1.18-1.41-.11-3.39-2.09-3.19h0c-2.46.24-3.53-2.68-1.37-3.76h0a1.93,1.93,0,0,0-.44-3.67h0a2,2,0,0,1,.47-3.92h0c2-.17,2.77-2.35,1.28-3.51h0c-1.85-1.46-.12-4.12,2.23-3.42h0c1.89.56,3.62-1.14,2.79-2.74h0c-1-2,1.78-3.81,3.61-2.32h0c1.46,1.18,3.82.25,3.8-1.51h0c0-2.19,3.37-2.83,4.36-.82h0A2.4,2.4,0,0,0,43.33,20.85Z"/><path class="cls-16" d="M43,24.15h0c.8-1.58,3.55-1.07,3.54.65h0c0,1.38,1.9,2.11,3.09,1.18h0c1.48-1.17,3.76.25,2.93,1.82h0c-.67,1.26.73,2.59,2.26,2.16h0c1.91-.55,3.32,1.54,1.81,2.68h0c-1.21.92-.56,2.63,1,2.76h0A1.55,1.55,0,0,1,58,38.48h0a1.51,1.51,0,0,0-.35,2.89h0c1.75.85.88,3.14-1.12,3h0c-1.6-.16-2.65,1.4-1.69,2.51h0c1.2,1.38-.69,3.18-2.42,2.3h0c-1.39-.7-3.09.36-2.74,1.71h0c.44,1.68-2.14,2.66-3.31,1.26h0a2,2,0,0,0-3.31.6h0a1.92,1.92,0,0,1-3.61,0h0a2,2,0,0,0-3.32-.6h0c-1.16,1.4-3.74.42-3.3-1.26h0c.35-1.35-1.35-2.41-2.74-1.71h0c-1.73.88-3.62-.92-2.42-2.3h0c1-1.11-.09-2.67-1.69-2.51h0c-2,.19-2.87-2.1-1.12-3h0a1.51,1.51,0,0,0-.36-2.89h0c-1.91-.52-1.62-2.92.38-3.08h0c1.61-.13,2.26-1.84,1.05-2.76h0c-1.51-1.14-.1-3.23,1.81-2.68h0c1.53.43,2.93-.9,2.26-2.16h0c-.83-1.57,1.45-3,2.93-1.82h0c1.19.93,3.11.2,3.09-1.18h0c0-1.72,2.74-2.23,3.54-.65h0A2,2,0,0,0,43,24.15Z"/><path class="cls-15" d="M43,28.56h0c1.3-1.47,4.28-.72,4.22,1.06h0c0,1.26,1.55,2.17,3.08,1.74h0c2.18-.6,4,1.37,2.61,2.79h0c-1,1-.38,2.45,1.18,2.81h0c2.21.5,2.21,2.93,0,3.44h0c-1.56.36-2.17,1.81-1.18,2.81h0c1.41,1.42-.43,3.39-2.61,2.79h0c-1.53-.43-3.13.48-3.08,1.73h0c.06,1.79-2.92,2.54-4.22,1.07h0a2.73,2.73,0,0,0-3.82,0h0c-1.3,1.47-4.28.72-4.22-1.07h0c.05-1.25-1.56-2.16-3.09-1.73h0c-2.17.6-4-1.37-2.61-2.79h0c1-1,.38-2.45-1.17-2.81h0c-2.22-.51-2.22-2.94,0-3.44h0c1.55-.36,2.17-1.82,1.17-2.81h0c-1.4-1.42.44-3.39,2.61-2.79h0c1.53.43,3.14-.48,3.09-1.74h0c-.06-1.78,2.92-2.53,4.22-1.06h0A2.73,2.73,0,0,0,43,28.56Z"/><path class="cls-16" d="M42.49,30.91h0c.87-1.11,2.87-.54,2.83.8h0A1.52,1.52,0,0,0,47.38,33h0c1.45-.45,2.68,1,1.74,2.1h0a1.3,1.3,0,0,0,.79,2.12h0a1.32,1.32,0,0,1,0,2.6h0A1.3,1.3,0,0,0,49.12,42h0c.94,1.07-.29,2.55-1.74,2.1h0a1.52,1.52,0,0,0-2.06,1.31h0c0,1.35-2,1.92-2.83.8h0a1.68,1.68,0,0,0-2.55,0h0c-.87,1.12-2.86.55-2.82-.8h0a1.52,1.52,0,0,0-2.07-1.31h0c-1.45.45-2.68-1-1.74-2.1h0a1.3,1.3,0,0,0-.79-2.13h0a1.32,1.32,0,0,1,0-2.6h0a1.3,1.3,0,0,0,.79-2.12h0c-.94-1.07.29-2.55,1.74-2.1h0a1.52,1.52,0,0,0,2.07-1.32h0c0-1.34,2-1.91,2.82-.8h0A1.67,1.67,0,0,0,42.49,30.91Z"/><path class="cls-15" d="M42.24,35.08h0c1.41-.6,3.06.37,2.79,1.63h0a1.36,1.36,0,0,0,.56,1.37h0c1.14.89.51,2.45-1.07,2.64h0a1.93,1.93,0,0,0-1.45.85h0a2.17,2.17,0,0,1-3.46,0h0a1.93,1.93,0,0,0-1.45-.85h0C36.58,40.53,36,39,37.09,38.08h0a1.38,1.38,0,0,0,.56-1.37h0c-.27-1.26,1.38-2.23,2.79-1.63h0A2.34,2.34,0,0,0,42.24,35.08Z"/><path class="cls-15" d="M117.37,6.29h0c1-2,4.38-1.38,4.36.82h0c0,1.76,2.34,2.69,3.81,1.5h0c1.82-1.48,4.63.32,3.6,2.32h0c-.82,1.6.91,3.3,2.79,2.74h0c2.35-.69,4.08,2,2.23,3.42h0c-1.49,1.16-.69,3.34,1.29,3.51h0a2,2,0,0,1,.46,3.92h0a1.94,1.94,0,0,0-.43,3.68h0c2.15,1.08,1.08,4-1.38,3.75h0c-2-.2-3.27,1.78-2.09,3.2h0c1.48,1.76-.84,4-3,2.93h0c-1.71-.89-3.8.45-3.37,2.17h0c.54,2.14-2.63,3.39-4.07,1.6h0a2.38,2.38,0,0,0-4.08.77h0c-.49,2.15-4,2.15-4.45,0h0a2.38,2.38,0,0,0-4.08-.77h0c-1.44,1.79-4.61.54-4.07-1.6h0c.43-1.72-1.66-3.06-3.37-2.17h0c-2.14,1.11-4.46-1.17-3-2.93h0c1.18-1.42-.11-3.4-2.09-3.2h0c-2.46.25-3.53-2.67-1.38-3.75h0a1.94,1.94,0,0,0-.43-3.68h0a2,2,0,0,1,.46-3.92h0c2-.17,2.78-2.35,1.29-3.51h0c-1.85-1.46-.12-4.11,2.23-3.42h0c1.89.56,3.61-1.14,2.79-2.74h0c-1-2,1.78-3.8,3.6-2.32h0c1.47,1.19,3.83.26,3.81-1.5h0c0-2.2,3.37-2.84,4.36-.82h0A2.4,2.4,0,0,0,117.37,6.29Z"/><path class="cls-16" d="M117,9.59h0c.8-1.58,3.55-1.08,3.53.64h0c0,1.38,1.91,2.11,3.1,1.18h0c1.48-1.16,3.76.25,2.92,1.82h0c-.67,1.26.74,2.6,2.27,2.16h0c1.91-.55,3.31,1.54,1.81,2.68h0c-1.21.92-.56,2.63,1,2.76h0c2,.17,2.3,2.57.38,3.08h0a1.51,1.51,0,0,0-.35,2.89h0c1.75.85.88,3.14-1.12,2.95h0c-1.6-.16-2.65,1.4-1.69,2.51h0c1.19,1.39-.69,3.18-2.42,2.3h0c-1.39-.7-3.09.36-2.74,1.71h0c.43,1.68-2.14,2.66-3.31,1.26h0a2,2,0,0,0-3.31.6h0a1.93,1.93,0,0,1-3.62,0h0a2,2,0,0,0-3.31-.6h0c-1.17,1.4-3.74.42-3.3-1.26h0c.35-1.35-1.35-2.41-2.74-1.71h0c-1.74.88-3.62-.91-2.42-2.3h0c1-1.11-.09-2.67-1.7-2.51h0c-2,.19-2.86-2.1-1.11-2.95h0a1.51,1.51,0,0,0-.36-2.89h0c-1.92-.51-1.62-2.91.38-3.08h0c1.61-.13,2.25-1.84,1-2.76h0c-1.51-1.14-.1-3.23,1.81-2.68h0c1.53.44,2.93-.9,2.26-2.16h0c-.83-1.57,1.44-3,2.93-1.82h0c1.19.93,3.1.2,3.09-1.18h0c0-1.72,2.74-2.22,3.54-.64h0A2,2,0,0,0,117,9.59Z"/><path class="cls-15" d="M117.05,14h0c1.3-1.47,4.28-.72,4.22,1.07h0c0,1.26,1.55,2.16,3.08,1.74h0c2.18-.6,4,1.36,2.61,2.78h0c-1,1-.38,2.46,1.18,2.81h0c2.21.51,2.21,2.94,0,3.44h0c-1.56.36-2.17,1.82-1.18,2.82h0c1.41,1.41-.43,3.38-2.61,2.78h0c-1.53-.42-3.13.48-3.08,1.74h0c.06,1.78-2.92,2.54-4.22,1.06h0a2.73,2.73,0,0,0-3.82,0h0c-1.3,1.48-4.29.72-4.22-1.06h0c0-1.26-1.56-2.16-3.09-1.74h0c-2.17.6-4-1.37-2.61-2.78h0c1-1,.38-2.46-1.18-2.82h0c-2.21-.5-2.21-2.93,0-3.44h0c1.56-.35,2.17-1.81,1.18-2.81h0c-1.4-1.42.44-3.38,2.61-2.78h0c1.53.42,3.13-.48,3.09-1.74h0c-.07-1.79,2.92-2.54,4.22-1.07h0A2.73,2.73,0,0,0,117.05,14Z"/><path class="cls-16" d="M116.53,16.34h0c.87-1.11,2.87-.54,2.82.81h0a1.52,1.52,0,0,0,2.07,1.31h0c1.45-.45,2.68,1,1.74,2.1h0a1.3,1.3,0,0,0,.79,2.13h0a1.31,1.31,0,0,1,0,2.59h0a1.3,1.3,0,0,0-.79,2.13h0c.94,1.07-.29,2.55-1.74,2.1h0a1.52,1.52,0,0,0-2.07,1.31h0c.05,1.35-1.95,1.92-2.82.8h0a1.68,1.68,0,0,0-2.55,0h0c-.87,1.12-2.87.55-2.82-.8h0a1.52,1.52,0,0,0-2.07-1.31h0c-1.45.45-2.68-1-1.74-2.1h0a1.3,1.3,0,0,0-.79-2.13h0a1.31,1.31,0,0,1,0-2.59h0a1.3,1.3,0,0,0,.79-2.13h0c-.94-1.07.29-2.55,1.74-2.1h0a1.52,1.52,0,0,0,2.07-1.31h0c0-1.35,2-1.92,2.82-.81h0A1.67,1.67,0,0,0,116.53,16.34Z"/><path class="cls-15" d="M116.27,20.51h0c1.42-.6,3.07.37,2.8,1.63h0a1.37,1.37,0,0,0,.55,1.37h0c1.15.9.52,2.46-1.06,2.64h0a2,2,0,0,0-1.46.85h0a2.16,2.16,0,0,1-3.45,0h0a1.93,1.93,0,0,0-1.45-.85h0c-1.58-.18-2.21-1.74-1.07-2.64h0a1.37,1.37,0,0,0,.55-1.37h0c-.27-1.26,1.39-2.23,2.8-1.63h0A2.32,2.32,0,0,0,116.27,20.51Z"/><path class="cls-15" d="M154.39,12.91h0c1-2,4.38-1.38,4.36.82h0c0,1.76,2.34,2.69,3.81,1.5h0c1.82-1.48,4.63.32,3.6,2.32h0c-.82,1.6.9,3.3,2.79,2.74h0c2.35-.69,4.08,2,2.23,3.42h0c-1.49,1.17-.69,3.34,1.28,3.51h0a2,2,0,0,1,.47,3.93h0a1.94,1.94,0,0,0-.44,3.67h0c2.16,1.08,1.09,4-1.37,3.75h0c-2-.2-3.27,1.78-2.09,3.2h0c1.48,1.76-.84,4-3,2.93h0c-1.71-.89-3.8.45-3.37,2.17h0c.54,2.14-2.63,3.39-4.07,1.61h0a2.38,2.38,0,0,0-4.08.76h0c-.49,2.15-4,2.15-4.45,0h0a2.38,2.38,0,0,0-4.08-.76h0c-1.44,1.78-4.61.53-4.07-1.61h0c.43-1.72-1.66-3.06-3.37-2.17h0c-2.14,1.11-4.46-1.17-3-2.93h0c1.18-1.42-.11-3.4-2.09-3.2h0c-2.46.25-3.53-2.67-1.38-3.75h0a1.93,1.93,0,0,0-.43-3.67h0a2,2,0,0,1,.46-3.93h0c2-.17,2.78-2.34,1.29-3.51h0c-1.85-1.45-.12-4.11,2.23-3.42h0c1.88.56,3.61-1.14,2.79-2.74h0c-1-2,1.78-3.8,3.6-2.32h0c1.47,1.19,3.83.26,3.81-1.5h0c0-2.2,3.37-2.83,4.36-.82h0A2.4,2.4,0,0,0,154.39,12.91Z"/><path class="cls-16" d="M154,16.21h0c.81-1.58,3.56-1.08,3.54.64h0c0,1.38,1.91,2.12,3.1,1.18h0c1.48-1.16,3.76.26,2.92,1.82h0c-.67,1.26.74,2.6,2.27,2.16h0c1.91-.55,3.31,1.54,1.81,2.68h0c-1.21.92-.56,2.63,1,2.76h0c2,.17,2.3,2.57.38,3.09h0a1.5,1.5,0,0,0-.35,2.88h0c1.75.85.88,3.14-1.12,2.95h0c-1.6-.16-2.65,1.4-1.69,2.51h0c1.19,1.39-.69,3.18-2.42,2.31h0c-1.39-.71-3.09.35-2.74,1.7h0c.43,1.68-2.14,2.66-3.31,1.26h0a2,2,0,0,0-3.31.6h0a1.93,1.93,0,0,1-3.62,0h0a2,2,0,0,0-3.31-.6h0c-1.17,1.4-3.74.42-3.3-1.26h0c.34-1.35-1.35-2.41-2.74-1.7h0c-1.74.87-3.62-.92-2.42-2.31h0c1-1.11-.09-2.67-1.7-2.51h0c-2,.19-2.87-2.1-1.12-2.95h0a1.5,1.5,0,0,0-.35-2.88h0c-1.92-.52-1.62-2.92.38-3.09h0c1.61-.13,2.25-1.84,1-2.76h0c-1.51-1.14-.1-3.23,1.8-2.68h0c1.53.44,2.94-.9,2.27-2.16h0c-.83-1.56,1.44-3,2.93-1.82h0c1.19.94,3.1.2,3.09-1.18h0c0-1.72,2.74-2.22,3.54-.64h0A2,2,0,0,0,154,16.21Z"/><path class="cls-15" d="M154.06,20.62h0c1.31-1.48,4.29-.73,4.22,1.06h0c0,1.26,1.56,2.16,3.09,1.74h0c2.18-.6,4,1.36,2.61,2.78h0c-1,1-.38,2.46,1.18,2.81h0c2.21.51,2.21,2.94,0,3.44h0c-1.56.36-2.17,1.82-1.18,2.82h0c1.41,1.41-.43,3.38-2.61,2.78h0c-1.53-.42-3.13.48-3.09,1.74h0c.07,1.79-2.91,2.54-4.22,1.06h0a2.72,2.72,0,0,0-3.81,0h0c-1.31,1.48-4.29.73-4.22-1.06h0c0-1.26-1.56-2.16-3.09-1.74h0c-2.17.6-4-1.37-2.61-2.78h0c1-1,.38-2.46-1.18-2.82h0c-2.21-.5-2.21-2.93,0-3.44h0c1.56-.35,2.17-1.81,1.18-2.81h0c-1.4-1.42.44-3.38,2.61-2.78h0c1.53.42,3.13-.48,3.09-1.74h0c-.07-1.79,2.91-2.54,4.22-1.06h0A2.74,2.74,0,0,0,154.06,20.62Z"/><path class="cls-16" d="M153.55,23h0c.87-1.12,2.87-.55,2.82.8h0a1.52,1.52,0,0,0,2.07,1.31h0c1.45-.45,2.68,1,1.74,2.1h0a1.3,1.3,0,0,0,.79,2.13h0a1.31,1.31,0,0,1,0,2.59h0a1.31,1.31,0,0,0-.79,2.13h0c.94,1.07-.29,2.55-1.74,2.1h0a1.52,1.52,0,0,0-2.07,1.31h0c0,1.35-2,1.92-2.82.81h0a1.67,1.67,0,0,0-2.55,0h0c-.87,1.11-2.87.54-2.82-.81h0a1.52,1.52,0,0,0-2.07-1.31h0c-1.45.45-2.68-1-1.74-2.1h0a1.31,1.31,0,0,0-.79-2.13h0a1.31,1.31,0,0,1,0-2.59h0a1.3,1.3,0,0,0,.79-2.13h0c-.94-1.07.29-2.55,1.74-2.1h0a1.52,1.52,0,0,0,2.07-1.31h0c-.05-1.35,1.95-1.92,2.82-.8h0A1.68,1.68,0,0,0,153.55,23Z"/><path class="cls-15" d="M153.29,27.13h0c1.42-.59,3.07.37,2.8,1.63h0a1.36,1.36,0,0,0,.55,1.37h0c1.15.9.52,2.46-1.07,2.64h0a2,2,0,0,0-1.45.85h0a2.16,2.16,0,0,1-3.45,0h0a2,2,0,0,0-1.45-.85h0c-1.58-.18-2.21-1.74-1.07-2.64h0a1.36,1.36,0,0,0,.55-1.37h0c-.27-1.26,1.39-2.22,2.8-1.63h0A2.32,2.32,0,0,0,153.29,27.13Z"/><path class="cls-15" d="M191.41,23.5h0c1-2,4.38-1.37,4.36.82h0c0,1.76,2.34,2.69,3.8,1.5h0c1.83-1.48,4.64.33,3.61,2.32h0c-.83,1.61.9,3.31,2.79,2.75h0c2.35-.7,4.08,2,2.23,3.41h0c-1.49,1.17-.69,3.35,1.28,3.52h0a2,2,0,0,1,.47,3.92h0a1.93,1.93,0,0,0-.44,3.67h0c2.16,1.08,1.09,4-1.37,3.76h0c-2-.2-3.27,1.78-2.09,3.19h0c1.48,1.77-.84,4-3,2.94h0c-1.71-.9-3.8.45-3.37,2.17h0c.53,2.14-2.63,3.39-4.07,1.6h0a2.38,2.38,0,0,0-4.08.77h0c-.49,2.15-4,2.15-4.45,0h0a2.38,2.38,0,0,0-4.08-.77h0c-1.44,1.79-4.61.54-4.07-1.6h0c.43-1.72-1.66-3.07-3.37-2.17h0c-2.14,1.11-4.46-1.17-3-2.94h0c1.19-1.41-.11-3.39-2.08-3.19h0c-2.46.24-3.53-2.68-1.38-3.76h0a1.93,1.93,0,0,0-.43-3.67h0a2,2,0,0,1,.46-3.92h0c2-.17,2.78-2.35,1.29-3.52h0c-1.85-1.45-.12-4.11,2.23-3.41h0c1.88.56,3.61-1.14,2.79-2.75h0c-1-2,1.78-3.8,3.6-2.32h0c1.47,1.19,3.83.26,3.81-1.5h0c0-2.19,3.37-2.83,4.36-.82h0A2.4,2.4,0,0,0,191.41,23.5Z"/><path class="cls-16" d="M191,26.8h0c.81-1.58,3.56-1.08,3.54.65h0c0,1.38,1.91,2.11,3.1,1.18h0c1.48-1.17,3.76.25,2.92,1.82h0c-.67,1.26.74,2.59,2.27,2.15h0c1.9-.54,3.31,1.55,1.81,2.69h0c-1.21.92-.56,2.63,1,2.76h0c2,.16,2.3,2.56.38,3.08h0a1.51,1.51,0,0,0-.35,2.89h0c1.75.84.88,3.14-1.12,2.94h0c-1.6-.15-2.65,1.41-1.69,2.52h0c1.19,1.38-.69,3.17-2.42,2.3h0c-1.39-.7-3.09.36-2.74,1.71h0c.43,1.68-2.14,2.66-3.31,1.26h0a2,2,0,0,0-3.31.6h0a1.93,1.93,0,0,1-3.62,0h0a2,2,0,0,0-3.31-.6h0c-1.17,1.4-3.74.42-3.31-1.26h0c.35-1.35-1.34-2.41-2.73-1.71h0c-1.74.87-3.62-.92-2.43-2.3h0c1-1.11-.08-2.67-1.69-2.52h0c-2,.2-2.87-2.1-1.12-2.94h0a1.51,1.51,0,0,0-.35-2.89h0c-1.92-.52-1.62-2.92.38-3.08h0c1.6-.13,2.25-1.84,1-2.76h0c-1.5-1.14-.09-3.23,1.81-2.69h0c1.53.44,2.94-.89,2.27-2.15h0c-.83-1.57,1.44-3,2.93-1.82h0c1.19.93,3.1.2,3.09-1.18h0c0-1.73,2.74-2.23,3.54-.65h0A2,2,0,0,0,191,26.8Z"/><path class="cls-15" d="M191.08,31.21h0c1.31-1.48,4.29-.72,4.22,1.06h0c0,1.26,1.56,2.16,3.09,1.74h0c2.17-.6,4,1.37,2.61,2.78h0c-1,1-.38,2.46,1.18,2.82h0c2.21.5,2.21,2.93,0,3.44h0c-1.56.35-2.17,1.81-1.18,2.81h0c1.41,1.42-.44,3.38-2.61,2.78h0c-1.53-.42-3.13.48-3.09,1.74h0c.07,1.79-2.91,2.54-4.22,1.07h0a2.72,2.72,0,0,0-3.81,0h0c-1.31,1.47-4.29.72-4.22-1.07h0c0-1.26-1.56-2.16-3.09-1.74h0c-2.17.6-4-1.36-2.61-2.78h0c1-1,.38-2.46-1.18-2.81h0c-2.21-.51-2.21-2.94,0-3.44h0c1.56-.36,2.17-1.82,1.18-2.82h0c-1.41-1.41.44-3.38,2.61-2.78h0c1.53.42,3.13-.48,3.09-1.74h0c-.07-1.78,2.91-2.54,4.22-1.06h0A2.72,2.72,0,0,0,191.08,31.21Z"/><path class="cls-16" d="M190.57,33.56h0c.87-1.11,2.86-.55,2.82.8h0a1.53,1.53,0,0,0,2.07,1.32h0c1.45-.46,2.68,1,1.74,2.1h0A1.3,1.3,0,0,0,198,39.9h0a1.32,1.32,0,0,1,0,2.6h0a1.3,1.3,0,0,0-.79,2.12h0c.94,1.07-.29,2.56-1.74,2.11h0A1.52,1.52,0,0,0,193.39,48h0c0,1.35-1.95,1.92-2.82.8h0a1.68,1.68,0,0,0-2.55,0h0c-.87,1.12-2.87.55-2.82-.8h0a1.53,1.53,0,0,0-2.07-1.31h0c-1.45.45-2.68-1-1.74-2.11h0a1.3,1.3,0,0,0-.79-2.12h0a1.32,1.32,0,0,1,0-2.6h0a1.3,1.3,0,0,0,.79-2.12h0c-.94-1.07.29-2.56,1.74-2.1h0a1.53,1.53,0,0,0,2.07-1.32h0c0-1.35,2-1.91,2.82-.8h0A1.67,1.67,0,0,0,190.57,33.56Z"/><path class="cls-15" d="M190.31,37.73h0c1.42-.6,3.07.36,2.8,1.63h0a1.38,1.38,0,0,0,.55,1.37h0c1.15.89.51,2.45-1.07,2.64h0a2,2,0,0,0-1.45.84h0a2.16,2.16,0,0,1-3.45,0h0a2,2,0,0,0-1.45-.84h0c-1.58-.19-2.22-1.75-1.07-2.64h0a1.38,1.38,0,0,0,.55-1.37h0c-.27-1.27,1.38-2.23,2.8-1.63h0A2.41,2.41,0,0,0,190.31,37.73Z"/><path class="cls-7" d="M86.65,86.92s-5.35-2.44-7.42-6.25"/><path class="cls-7" d="M84.66,90.92s-5.35-2.44-7.42-6.25"/></g></g></svg>