<svg xmlns="http://www.w3.org/2000/svg" width="225" height="414" viewBox="0 0 225 414"><defs><style>.cls-1{fill:#fff;}.cls-2{fill:#07202a;}.cls-3{fill:#902761;}.cls-4{fill:#7e2153;}.cls-5{fill:#bd2f59;}.cls-6{fill:#e900cf;}.cls-7{fill:#dbdad9;}.cls-8{fill:none;stroke:#000;stroke-miterlimit:10;}.cls-9{fill:#dd2443;}.cls-10{fill:#9229d6;}.cls-11{fill:#267ddb;}.cls-12{fill:#f9c847;}.cls-13{fill:#e3933a;}.cls-14{fill:#0a2a3a;}.cls-15{fill:#ed146c;}.cls-16{fill:#ef56b9;}</style></defs><g id="Animated_items" data-name="Animated items"><g id="happy_down" data-name="happy down"><path class="cls-1" d="M153.73,179.88s-.71,14.88-7,14.88-7.47-3.62-7.47-3.62,3-9.07,4.33-10.43S150,175.86,153.73,179.88Z"/><path class="cls-1" d="M144.07,203.82s-2.86,8.4-5.91,11.9-11.09-9.18-11.09-9.18,4.67-9.53,7.16-8.16C134.23,198.38,138.7,199.29,144.07,203.82Z"/><path class="cls-1" d="M137.12,198.25l6.3,3.68a2.67,2.67,0,0,0,3.67-1h0a2.74,2.74,0,0,0-1-3.71l-6.3-3.68a2.68,2.68,0,0,0-3.67,1h0A2.75,2.75,0,0,0,137.12,198.25Z"/><path class="cls-1" d="M79.56,337l-1.69,19.3s-1.85,5.56,1.69,7.31l9.63,1.75s7,.91,5.23-4.53l2.49-23.09"/><path class="cls-1" d="M66.55,379.81s-8.4,1.81-10.3,0c0,0-5.27-5.5,3.82-9.55h2.62s9-5.4,14.7-7l11.8,2s12.2,1.81,2.62,11.78c0,0-12.3,5.11-14.42,8.9C77.39,386,67.42,391.59,66.55,379.81Z"/><path class="cls-1" d="M70.24,390.48s-6.35,5.22-4.17,10.38C66.07,400.86,71.91,402.2,70.24,390.48Z"/><path class="cls-1" d="M53.92,379.81s-4.89-2.68-6.54,3.55C47.38,383.36,48.94,390.51,53.92,379.81Z"/><path class="cls-1" d="M58.27,385.25s-4.89-2.68-6.53,3.54C51.74,388.79,53.29,395.94,58.27,385.25Z"/><path class="cls-1" d="M65.24,388.88s-4.89-2.69-6.53,3.54C58.71,392.42,60.26,399.57,65.24,388.88Z"/><path class="cls-1" d="M51.45,374.58s-5-2.19-7.15,1.17C44.3,375.75,45.47,380.07,51.45,374.58Z"/><path class="cls-1" d="M157.05,332.42l1.69,19.3s1.84,5.56-1.69,7.31l-9.6,1.75s-6.95.9-5.21-4.53l-2.48-23.09"/><path class="cls-1" d="M170,375.28s8.36,1.81,10.26,0c0,0,5.26-5.5-3.81-9.55h-2.61s-9-5.4-14.65-7l-11.77,2s-12.16,1.81-2.61,11.78c0,0,12.26,5.11,14.38,8.9C159.22,381.46,169.16,387.06,170,375.28Z"/><path class="cls-1" d="M164.42,385.43s7.69,4.87,6.29,10.66C170.71,396.09,164.75,398.19,164.42,385.43Z"/><path class="cls-1" d="M184.36,377.1s4.87-2.69,6.51,3.54C190.87,380.64,189.32,387.79,184.36,377.1Z"/><path class="cls-1" d="M178.28,380.72s4.87-2.69,6.51,3.54C184.79,384.26,183.24,391.41,178.28,380.72Z"/><path class="cls-1" d="M171.33,384.35s4.87-2.69,6.51,3.54C177.84,387.89,176.29,395,171.33,384.35Z"/><path class="cls-1" d="M184.61,371.45s5.2-1.56,7,2C191.58,373.49,189.93,377.63,184.61,371.45Z"/><path class="cls-2" d="M67.79,153.47S1.73,99.78,36.57,51.75H165.48S182,106.34,140.66,155.16Z"/><path class="cls-3" d="M72.19,213.18s-32.13,20.15-33,44.9c0,0-3.48,59.17-6.09,73.67,0,0,4.35,16.31-4.36,25.37,0,0,18.29,8.16,32.23-2.72,0,0,12.19-4,18.29-2,0,0,19.16,7.3,30.49-3,0,0,10-3.25,18.5,0,0,0,12.86,6,23.31-2.2,0,0,3.48-2.71,10.45-.9,0,0,24.39,5.43,27.87-2.72,0,0,11.33.91,16.55-1.81,0,0-10.45-16.31-11.32-23.56,0,0-19.16-60.71-24.39-68.87,0,0-14.81-39-33.1-40.77C137.61,208.52,74.7,211.49,72.19,213.18Z"/><path class="cls-4" d="M81,212s-13.08,22.84-13.08,24.66S91.48,209.94,81,212Z"/><path class="cls-4" d="M99.8,211.85s-.1.19-.26.54c-.93,2-4.08,9.08-3.52,11.88,0,0,5.88-6.69,8.49-12.13Z"/><path class="cls-4" d="M118.14,211.85s2.92,10.26,4.66,10.26c0,0,1.15-8.74-1.16-10.26S118.14,211.85,118.14,211.85Z"/><path class="cls-4" d="M129.71,210.61s15.74,9.69,16.61,18.75c0,0-17.39-13.72-19.58-18.19S129.71,210.61,129.71,210.61Z"/><path class="cls-5" d="M73.12,178.11s-.4,6.39,3.95,10.92,1.75,13.6,1.75,13.6l-6.63,10.55s44.52,2.58,65.42-4.66c0,0-4.35-8.16-4.35-10.88,0,0-.87-4.53.87-8.15,0,0,2.61-6.35,0-10S73.12,178.11,73.12,178.11Z"/><path class="cls-1" d="M98,27.74S56.17,30.46,45.72,60.36c0,0-1.31,31.26,10,42.14s42.68,28.09,42.68,28.09,7.72,4.53,13,0c4.91-4.21,29.29-19.35,32.75-25.85a10.68,10.68,0,0,1,2-2.69c4.33-4.1,16-17.65,12.39-42.14C158.52,59.91,154.16,26.38,98,27.74Z"/><path class="cls-6" d="M124.14,58.91h0c1.51-2.39,5-1.17,4.89,1.73h0a2.72,2.72,0,0,0,3.58,2.81h0c2.52-1,4.65,2.22,3,4.52h0A3,3,0,0,0,137,72.53h0a3,3,0,0,1,0,5.57h0a3,3,0,0,0-1.37,4.56h0c1.63,2.3-.5,5.48-3,4.51h0A2.73,2.73,0,0,0,129,90h0c.08,2.9-3.38,4.11-4.89,1.72h0a2.57,2.57,0,0,0-4.42,0h0c-1.51,2.39-5,1.18-4.89-1.72h0a2.72,2.72,0,0,0-3.57-2.82h0c-2.52,1-4.65-2.21-3-4.51h0a3,3,0,0,0-1.37-4.56h0a3,3,0,0,1,0-5.57h0A3,3,0,0,0,108.24,68h0c-1.63-2.3.5-5.49,3-4.52h0a2.71,2.71,0,0,0,3.57-2.81h0c-.07-2.9,3.38-4.12,4.89-1.73h0A2.56,2.56,0,0,0,124.14,58.91Z"/><path class="cls-6" d="M92.89,58.91h0c1.51-2.39,5-1.17,4.91,1.73h0a2.73,2.73,0,0,0,3.59,2.81h0c2.53-1,4.68,2.22,3,4.52h0a3,3,0,0,0,1.37,4.56h0a3,3,0,0,1,0,5.57h0a3,3,0,0,0-1.37,4.56h0c1.64,2.3-.51,5.48-3,4.51h0A2.74,2.74,0,0,0,97.8,90h0a2.67,2.67,0,0,1-4.91,1.72h0a2.59,2.59,0,0,0-4.45,0h0A2.67,2.67,0,0,1,83.53,90h0a2.74,2.74,0,0,0-3.6-2.82h0c-2.53,1-4.67-2.21-3-4.51h0a3,3,0,0,0-1.38-4.56h0a3,3,0,0,1,0-5.57h0A3,3,0,0,0,76.9,68h0c-1.64-2.3.5-5.49,3-4.52h0a2.73,2.73,0,0,0,3.6-2.81h0a2.67,2.67,0,0,1,4.91-1.73h0A2.59,2.59,0,0,0,92.89,58.91Z"/><ellipse class="cls-7" cx="91.01" cy="74.86" rx="11.76" ry="12.23"/><ellipse class="cls-7" cx="121.5" cy="74.86" rx="11.76" ry="12.23"/><ellipse cx="121.74" cy="81.2" rx="9.08" ry="6.16"/><ellipse cx="90.84" cy="81.2" rx="9.08" ry="6.16"/><path class="cls-8" d="M136.1,63.6s-2.7,3.06-5.68,3.71"/><path class="cls-8" d="M137.51,65.65s-2.7,3.07-5.68,3.71"/><path d="M100.2,93.13S102.49,89,105,87.79a13.62,13.62,0,0,1,3.48,3.8,13.57,13.57,0,0,0,.78,1.4,4.83,4.83,0,0,1,.83,3.8s-.33,3.67-5.09,0c0,0-5.41,2.25-5.41-.73C99.54,96.06,99.54,93.86,100.2,93.13Z"/><path class="cls-8" d="M87.09,102.5s22.74,14.5,41-4.08"/><path class="cls-8" d="M94.34,103.15s2.33,4.78,2.33,7.5"/><path class="cls-8" d="M102.77,103.81a19.37,19.37,0,0,1,3.48,7.75"/><path class="cls-8" d="M113,103.15s4.62,3,4.62,5.69"/><path class="cls-8" d="M121.93,97a28.5,28.5,0,0,1,6.15,6.85"/><ellipse class="cls-9" cx="71.85" cy="92.08" rx="4.36" ry="4.53"/><ellipse class="cls-9" cx="136.31" cy="93.89" rx="4.36" ry="4.53"/><path class="cls-10" d="M79.52,111.5a.54.54,0,0,1-.33-.9c1-1.19,2.92-3.42,3.46-3.56a2.54,2.54,0,0,1,1.72,4,.79.79,0,0,1-.45.28A15.33,15.33,0,0,1,79.52,111.5Z"/><ellipse class="cls-11" cx="74.9" cy="112.01" rx="2.7" ry="3.94" transform="matrix(0.37, -0.93, 0.93, 0.37, -56.9, 140.03)"/><path class="cls-10" d="M70.52,109.13a.53.53,0,0,1-.58.75c-1.49-.29-4.32-.89-4.71-1.3-.52-.56-.27-3.83,2.43-3.56a.72.72,0,0,1,.46.26A17.3,17.3,0,0,1,70.52,109.13Z"/><path class="cls-10" d="M73.87,108.1a.51.51,0,0,1-.93,0c-.71-1.39-2-4.06-2-4.64.09-.76,2.7-2.6,4.18-.24a.7.7,0,0,1,.09.53A16.93,16.93,0,0,1,73.87,108.1Z"/><path class="cls-10" d="M77.32,108.91a.52.52,0,0,1-.74-.58c.21-1.56.66-4.52,1-5a2.44,2.44,0,0,1,3.52,2.37.75.75,0,0,1-.23.49A16.3,16.3,0,0,1,77.32,108.91Z"/><path class="cls-10" d="M79,115.18a.54.54,0,0,1,.25-.93c1.48-.35,4.3-1,4.82-.75.69.3,1.7,3.4-.88,4.27a.72.72,0,0,1-.52,0A16.23,16.23,0,0,1,79,115.18Z"/><path class="cls-10" d="M130.12,110.45a.51.51,0,0,1-.9-.22c-.4-1.51-1.13-4.42-.94-5a2.38,2.38,0,0,1,4.13.71.77.77,0,0,1,0,.54A16.72,16.72,0,0,1,130.12,110.45Z"/><ellipse class="cls-11" cx="127.99" cy="114.74" rx="3.98" ry="2.68" transform="translate(-43.78 108.14) rotate(-39.67)"/><path class="cls-10" d="M123.26,117a.54.54,0,0,1,.28.92c-1.05,1.13-3.09,3.25-3.64,3.36a2.54,2.54,0,0,1-1.51-4.06.72.72,0,0,1,.46-.26A15.35,15.35,0,0,1,123.26,117Z"/><path class="cls-10" d="M124.28,113.48a.53.53,0,0,1-.52.8c-1.5-.15-4.37-.48-4.8-.86s-.6-3.79,2.12-3.77a.74.74,0,0,1,.47.22A16.35,16.35,0,0,1,124.28,113.48Z"/><path class="cls-10" d="M126.83,110.93a.51.51,0,0,1-.87.32c-1.13-1-3.26-3.06-3.39-3.63-.17-.75,1.66-3.43,3.84-1.75a.76.76,0,0,1,.26.47A17.06,17.06,0,0,1,126.83,110.93Z"/><path class="cls-10" d="M132.77,113a.53.53,0,0,1-.61-.73c.54-1.47,1.6-4.26,2.06-4.59a2.47,2.47,0,0,1,2.94,3.11.75.75,0,0,1-.33.43A15.83,15.83,0,0,1,132.77,113Z"/><path class="cls-2" d="M102.43,34S99.29,67.16,45.72,60.36l-9.15-8.61s71.43-77,128.91,0l-8.22,3.71S125.61,68.71,102.43,34Z"/><rect class="cls-1" x="98.41" y="134.21" width="14.81" height="5.44" rx="2.72"/><rect class="cls-1" x="98.41" y="141.46" width="14.81" height="5.44" rx="2.72"/><rect class="cls-1" x="98.41" y="148.71" width="14.81" height="5.44" rx="2.72"/><path class="cls-1" d="M53.74,179.59s.69,14.88,6.78,14.88,7.27-3.62,7.27-3.62-2.91-9.07-4.22-10.42S57.41,175.57,53.74,179.59Z"/><path class="cls-1" d="M63.14,203.53s2.78,8.4,5.75,11.91,10.8-9.19,10.8-9.19-4.55-9.53-7-8.16C72.72,198.09,68.36,199,63.14,203.53Z"/><path class="cls-1" d="M69.9,198l-6.13,3.68a2.57,2.57,0,0,1-3.57-1h0a2.8,2.8,0,0,1,.95-3.72l6.14-3.68a2.57,2.57,0,0,1,3.57,1h0A2.81,2.81,0,0,1,69.9,198Z"/><path class="cls-1" d="M96.67,139.65s-13.93,3.62-20.9,10l8.49,1.81s6.32-5.44,12.41-4.53C96.67,146.9,99.29,141.46,96.67,139.65Z"/><path class="cls-12" d="M73.62,148.71s29.15,10.87,63.12,3.62c0,0,19.16,9.07,20.91,26.28,0,0-2.62,5.44-13.94,1.82,0,0-4.36,3.62-9.58-.91,0,0-1.69,5.46-10.43,2.28,0,0-3.51,3.16-9.61.44,0,0-2.64-.51-3.93,1.1,0,0-4.2,3.07-12.33-2.64,0,0-1.16-3-6.38-.27,0,0-7,3.62-13.07-.91,0,0-4.35,0-7-2.72a35.3,35.3,0,0,1-7.84,3.63,5.28,5.28,0,0,1-3.48-1.82s-9.58,2.72-8.71-.9S61.89,157.77,73.62,148.71Z"/><path class="cls-1" d="M113.94,139.65s23.67,10,22.8,12.68l-5.3,1.14s-5.84-5.44-16.38-6.91C115.06,146.56,112.91,142.37,113.94,139.65Z"/><path class="cls-13" d="M76.64,162.3s-5.23,6.35-4.36,9.06c0,0,4.36-5.43,4.36-9.06"/><path class="cls-13" d="M87.2,171.36c.76,1.82,4.25-3.62,3.38-4.53C90.58,166.83,86.44,169.55,87.2,171.36Z"/><path class="cls-13" d="M102.77,165s-.87,10.75,3,12.62C105.82,177.64,103.64,165,102.77,165Z"/><path class="cls-13" d="M119.32,160.49s-1.74,12.69,4.35,16.31C123.67,176.8,121.93,161.4,119.32,160.49Z"/><path class="cls-13" d="M140.61,168.65s.49,4.53,3.1,4.53S140.61,168.65,140.61,168.65Z"/><path class="cls-4" d="M38.64,359.72S54,321.78,51.38,319.06c0,0,7-3.19-8.28,41Z"/><path class="cls-4" d="M63.58,353.64s7.83-28.23,9.57-30.05-5.17,29-5.17,29Z"/><path class="cls-4" d="M101.9,305.47s0,9.06,2.61,12.69,1.74,9.06,1.74,9.06-.87,6.34,2.62,10,2.64,11.68,2.64,11.68l4.6-.77s-2-10.91-3.76-13.63c0,0-.87-1.81,0-2.72,0,0,.87-8.16-.87-10.87S101,306.38,101.9,305.47Z"/><path class="cls-4" d="M153.55,346.13s-8.1-21.63-7.23-25.25,12.2,24.46,12.2,24.46Z"/><path class="cls-4" d="M175.94,310s14.52,33.49,12.05,35.78l2.47-2.29S183.78,310.91,175.94,310Z"/><path class="cls-14" d="M56.17,54.93s21.78-19,34-19C90.14,35.9,63.14,54.93,56.17,54.93Z"/><path class="cls-14" d="M112.14,35.48s27.06,9.11,33.52,19.86C145.66,55.34,115.83,41.62,112.14,35.48Z"/><path class="cls-14" d="M44.41,56.28s19-26.79,40.42-29.7C84.83,26.58,58.35,25.48,44.41,56.28Z"/><path class="cls-14" d="M112.48,29.35s31.87,3,45.38,20.53C157.86,49.88,145,25.76,112.48,29.35Z"/><path class="cls-14" d="M39.65,70.38S37.29,112,69.45,140.31C69.45,140.31,42.12,96.79,39.65,70.38Z"/><path class="cls-14" d="M128.33,140.3s34-22,37.7-65.67C166,74.63,147.63,123,128.33,140.3Z"/><path class="cls-14" d="M65.31,113.51s7.14,19.31,17.87,28.27C83.18,141.78,70.45,116.12,65.31,113.51Z"/><path class="cls-14" d="M117.75,137s17.41-10,24.48-22.28C142.23,114.69,119.53,131.32,117.75,137Z"/><path class="cls-15" d="M76.49,14.45h0c.7-1.37,3.09-.93,3.08.57h0c0,1.2,1.65,1.84,2.69,1h0c1.29-1,3.27.22,2.54,1.59h0c-.58,1.1.64,2.26,2,1.88h0c1.66-.48,2.88,1.34,1.57,2.34h0c-1,.79-.48,2.28.91,2.4h0a1.35,1.35,0,0,1,.33,2.68h0a1.32,1.32,0,0,0-.31,2.52h0c1.52.73.77,2.73-1,2.56h0c-1.39-.13-2.3,1.22-1.47,2.19h0c1,1.21-.6,2.77-2.1,2h0c-1.21-.61-2.69.31-2.39,1.48h0c.38,1.47-1.85,2.32-2.87,1.1h0a1.7,1.7,0,0,0-2.88.53h0a1.67,1.67,0,0,1-3.14,0h0a1.7,1.7,0,0,0-2.88-.53h0c-1,1.22-3.25.37-2.87-1.1h0c.3-1.17-1.17-2.09-2.38-1.48h0c-1.51.76-3.15-.8-2.11-2h0c.84-1-.08-2.32-1.47-2.19h0c-1.74.17-2.49-1.83-1-2.56h0a1.32,1.32,0,0,0-.31-2.52h0a1.35,1.35,0,0,1,.33-2.68h0c1.4-.12,2-1.61.91-2.4h0c-1.31-1-.09-2.82,1.57-2.34h0c1.33.38,2.55-.78,2-1.88h0C64.52,16.26,66.5,15,67.79,16h0c1,.82,2.7.18,2.68-1h0c0-1.5,2.38-1.94,3.08-.57h0A1.71,1.71,0,0,0,76.49,14.45Z"/><path class="cls-16" d="M76.24,16.71h0c.56-1.08,2.51-.74,2.49.44h0c0,1,1.35,1.45,2.19.81h0c1-.8,2.65.17,2.06,1.25h0c-.47.86.52,1.77,1.6,1.47h0c1.35-.37,2.34,1.06,1.28,1.84h0c-.85.63-.4,1.8.74,1.89h0c1.41.11,1.62,1.75.26,2.11h0a1,1,0,0,0-.25,2h0c1.24.58.63,2.15-.78,2h0c-1.14-.11-1.88,1-1.2,1.72h0c.84.94-.49,2.17-1.71,1.57h0c-1-.48-2.18.25-1.93,1.17h0c.31,1.15-1.51,1.82-2.33.86h0a1.41,1.41,0,0,0-2.34.41h0a1.38,1.38,0,0,1-2.56,0h0a1.4,1.4,0,0,0-2.33-.41h0c-.83,1-2.64.29-2.34-.86h0c.25-.92-1-1.65-1.93-1.17h0c-1.22.6-2.55-.63-1.71-1.57h0c.68-.76-.06-1.83-1.19-1.72h0c-1.42.13-2-1.44-.79-2h0a1,1,0,0,0-.25-2h0c-1.36-.36-1.15-2,.26-2.11h0c1.14-.09,1.59-1.26.74-1.89h0c-1.06-.78-.07-2.21,1.28-1.84h0c1.08.3,2.07-.61,1.6-1.47h0c-.59-1.08,1-2.05,2.06-1.25h0c.84.64,2.2.14,2.19-.81h0c0-1.18,1.93-1.52,2.5-.44h0A1.42,1.42,0,0,0,76.24,16.71Z"/><path class="cls-15" d="M76.26,19.73h0c.92-1,3-.5,3,.73h0c0,.86,1.1,1.47,2.18,1.19h0c1.54-.42,2.84.93,1.84,1.9h0c-.7.68-.27,1.68.84,1.92h0c1.56.35,1.56,2,0,2.36h0c-1.11.24-1.54,1.24-.84,1.92h0c1,1-.3,2.32-1.84,1.91h0c-1.08-.29-2.21.32-2.18,1.19h0c.05,1.22-2.06,1.73-3,.72h0a2,2,0,0,0-2.69,0h0c-.92,1-3,.5-3-.72h0c0-.87-1.1-1.48-2.18-1.19h0c-1.53.41-2.83-.94-1.84-1.91h0c.7-.68.27-1.68-.83-1.92h0c-1.56-.35-1.56-2,0-2.36h0c1.1-.24,1.53-1.24.83-1.92h0c-1-1,.31-2.32,1.84-1.9h0c1.08.28,2.21-.33,2.18-1.19h0c0-1.23,2.06-1.74,3-.73h0A2,2,0,0,0,76.26,19.73Z"/><path class="cls-16" d="M75.9,21.34h0c.62-.77,2-.38,2,.55h0a1.07,1.07,0,0,0,1.46.89h0c1-.31,1.9.71,1.23,1.44h0a.89.89,0,0,0,.56,1.46h0a.89.89,0,0,1,0,1.77h0a.89.89,0,0,0-.56,1.46h0c.67.73-.2,1.74-1.23,1.43h0a1.08,1.08,0,0,0-1.46.9h0c0,.93-1.37,1.31-2,.55h0a1.2,1.2,0,0,0-1.8,0h0c-.62.76-2,.38-2-.55h0a1.08,1.08,0,0,0-1.46-.9h0c-1,.31-1.9-.7-1.23-1.43h0a.89.89,0,0,0-.56-1.46h0a.89.89,0,0,1,0-1.77h0a.89.89,0,0,0,.56-1.46h0c-.67-.73.2-1.75,1.23-1.44h0a1.07,1.07,0,0,0,1.46-.89h0c0-.93,1.37-1.32,2-.55h0A1.22,1.22,0,0,0,75.9,21.34Z"/><path class="cls-15" d="M75.72,24.19h0c1-.41,2.16.25,2,1.11h0a.93.93,0,0,0,.39.94h0c.81.61.37,1.68-.75,1.81h0a1.34,1.34,0,0,0-1,.58h0a1.56,1.56,0,0,1-2.44,0h0a1.38,1.38,0,0,0-1-.58h0c-1.11-.13-1.56-1.2-.75-1.81h0a.93.93,0,0,0,.39-.94h0c-.19-.86,1-1.52,2-1.11h0A1.74,1.74,0,0,0,75.72,24.19Z"/><path class="cls-15" d="M51.23,21.7h0c.7-1.37,3.09-.94,3.08.56h0c0,1.21,1.65,1.85,2.69,1h0c1.29-1,3.27.22,2.54,1.59h0c-.58,1.09.64,2.26,2,1.88h0c1.66-.48,2.88,1.34,1.57,2.33h0c-1,.8-.48,2.29.91,2.41h0a1.35,1.35,0,0,1,.33,2.68h0A1.31,1.31,0,0,0,64,36.69h0c1.52.74.77,2.74-1,2.57h0c-1.39-.13-2.3,1.22-1.47,2.19h0c1,1.21-.6,2.77-2.1,2h0c-1.21-.61-2.69.31-2.39,1.48h0c.38,1.47-1.85,2.32-2.87,1.1h0a1.7,1.7,0,0,0-2.88.52h0a1.67,1.67,0,0,1-3.14,0h0A1.7,1.7,0,0,0,45.31,46h0c-1,1.22-3.25.37-2.87-1.1h0c.3-1.17-1.17-2.09-2.38-1.48h0c-1.51.76-3.15-.8-2.11-2h0c.84-1-.08-2.32-1.47-2.19h0c-1.74.17-2.49-1.83-1-2.57h0a1.31,1.31,0,0,0-.31-2.51h0a1.35,1.35,0,0,1,.33-2.68h0c1.4-.12,2-1.61.91-2.41h0c-1.31-1-.09-2.81,1.57-2.33h0c1.33.38,2.55-.79,2-1.88h0c-.72-1.37,1.26-2.6,2.55-1.59h0c1,.82,2.7.18,2.68-1h0c0-1.5,2.38-1.93,3.08-.56h0A1.71,1.71,0,0,0,51.23,21.7Z"/><path class="cls-16" d="M51,24h0c.56-1.08,2.51-.74,2.49.44h0c0,1,1.35,1.45,2.19.81h0c1-.8,2.65.17,2.06,1.25h0c-.47.86.52,1.77,1.6,1.47h0c1.35-.37,2.34,1.06,1.28,1.84h0c-.85.63-.4,1.8.74,1.89h0c1.41.11,1.62,1.75.26,2.11h0a1,1,0,0,0-.25,2h0c1.24.58.63,2.15-.78,2h0c-1.14-.11-1.88,1-1.2,1.72h0c.84.94-.49,2.17-1.71,1.57h0c-1-.48-2.18.24-1.93,1.17h0c.31,1.15-1.51,1.82-2.34.86h0a1.4,1.4,0,0,0-2.33.41h0a1.38,1.38,0,0,1-2.56,0h0a1.4,1.4,0,0,0-2.33-.41h0c-.83,1-2.64.29-2.34-.86h0c.25-.93-.95-1.65-1.93-1.17h0c-1.22.6-2.55-.63-1.71-1.57h0c.68-.77-.06-1.83-1.19-1.72h0c-1.42.13-2-1.44-.79-2h0a1,1,0,0,0-.25-2h0c-1.36-.36-1.15-2,.26-2.11h0c1.14-.09,1.59-1.26.74-1.89h0c-1.06-.78-.07-2.21,1.28-1.84h0c1.08.3,2.07-.61,1.6-1.47h0c-.59-1.08,1-2.05,2.06-1.25h0c.84.64,2.2.14,2.19-.81h0c0-1.18,1.93-1.52,2.5-.44h0A1.42,1.42,0,0,0,51,24Z"/><path class="cls-15" d="M51,27h0c.92-1,3-.5,3,.72h0c0,.87,1.1,1.48,2.18,1.19h0c1.54-.41,2.84.94,1.84,1.91h0c-.7.68-.27,1.68.84,1.92h0c1.56.35,1.56,2,0,2.36h0c-1.11.24-1.54,1.24-.84,1.92h0c1,1-.3,2.32-1.84,1.91h0c-1.08-.29-2.21.32-2.18,1.19h0c.05,1.22-2.06,1.73-3,.72h0a2,2,0,0,0-2.69,0h0c-.92,1-3,.5-3-.72h0c0-.87-1.1-1.48-2.18-1.19h0c-1.53.41-2.83-.94-1.84-1.91h0c.7-.68.27-1.68-.83-1.92h0c-1.56-.35-1.56-2,0-2.36h0c1.1-.24,1.53-1.24.83-1.92h0c-1-1,.31-2.32,1.84-1.91h0c1.08.29,2.21-.32,2.18-1.19h0c0-1.22,2.06-1.73,3-.72h0A2,2,0,0,0,51,27Z"/><path class="cls-16" d="M50.64,28.59h0c.62-.77,2-.38,2,.54h0a1.07,1.07,0,0,0,1.46.9h0c1-.31,1.9.71,1.23,1.44h0a.88.88,0,0,0,.56,1.45h0a.9.9,0,0,1,0,1.78h0a.89.89,0,0,0-.56,1.46h0c.67.73-.2,1.74-1.23,1.43h0a1.08,1.08,0,0,0-1.46.9h0c0,.92-1.37,1.31-2,.55h0a1.2,1.2,0,0,0-1.8,0h0c-.62.76-2,.37-2-.55h0a1.08,1.08,0,0,0-1.46-.9h0c-1,.31-1.9-.7-1.23-1.43h0a.89.89,0,0,0-.56-1.46h0a.9.9,0,0,1,0-1.78h0a.88.88,0,0,0,.56-1.45h0c-.67-.73.2-1.75,1.23-1.44h0a1.07,1.07,0,0,0,1.46-.9h0c0-.92,1.37-1.31,2-.54h0A1.22,1.22,0,0,0,50.64,28.59Z"/><path class="cls-15" d="M50.46,31.44h0c1-.41,2.16.25,2,1.11h0a.93.93,0,0,0,.39.94h0c.81.61.37,1.68-.75,1.81h0a1.37,1.37,0,0,0-1,.57h0a1.55,1.55,0,0,1-2.44,0h0a1.4,1.4,0,0,0-1-.57h0c-1.11-.13-1.56-1.2-.75-1.81h0a.93.93,0,0,0,.39-.94h0c-.19-.86,1-1.52,2-1.11h0A1.74,1.74,0,0,0,50.46,31.44Z"/><path class="cls-15" d="M103.49,11.74h0c.7-1.38,3.1-.94,3.08.56h0c0,1.2,1.66,1.84,2.69,1h0c1.29-1,3.27.23,2.54,1.59h0c-.58,1.1.64,2.26,2,1.88h0c1.66-.48,2.88,1.34,1.57,2.34h0c-1,.79-.48,2.28.91,2.4h0a1.35,1.35,0,0,1,.33,2.68h0a1.32,1.32,0,0,0-.3,2.52h0c1.52.74.76,2.73-1,2.56h0c-1.39-.13-2.3,1.22-1.47,2.19h0c1,1.21-.6,2.77-2.1,2h0c-1.21-.61-2.69.31-2.38,1.48h0c.38,1.47-1.86,2.32-2.88,1.1h0a1.69,1.69,0,0,0-2.87.53h0a1.68,1.68,0,0,1-3.15,0h0a1.7,1.7,0,0,0-2.88-.53h0c-1,1.22-3.25.37-2.87-1.1h0c.3-1.17-1.17-2.09-2.38-1.48h0c-1.51.76-3.15-.8-2.11-2h0c.84-1-.07-2.32-1.47-2.19h0c-1.73.17-2.49-1.82-1-2.56h0a1.32,1.32,0,0,0-.31-2.52h0a1.35,1.35,0,0,1,.33-2.68h0c1.4-.12,2-1.61.91-2.4h0c-1.31-1-.08-2.82,1.57-2.34h0c1.33.38,2.56-.78,2-1.88h0c-.72-1.36,1.26-2.6,2.55-1.59h0c1,.82,2.7.18,2.69-1h0c0-1.5,2.37-1.94,3.07-.56h0A1.72,1.72,0,0,0,103.49,11.74Z"/><path class="cls-16" d="M103.24,14h0c.56-1.08,2.51-.73,2.5.44h0c0,1,1.34,1.45,2.18.81h0c1-.79,2.65.18,2.06,1.25h0c-.47.86.52,1.77,1.6,1.47h0c1.35-.37,2.34,1.06,1.28,1.84h0c-.85.63-.39,1.8.74,1.89h0c1.41.11,1.62,1.75.27,2.11h0a1,1,0,0,0-.25,2h0c1.23.58.62,2.15-.79,2h0c-1.13-.11-1.87,1-1.2,1.72h0c.85.95-.48,2.17-1.71,1.57h0c-1-.48-2.18.25-1.93,1.17h0c.31,1.15-1.51,1.82-2.33.86h0a1.4,1.4,0,0,0-2.34.42h0a1.37,1.37,0,0,1-2.55,0h0a1.4,1.4,0,0,0-2.34-.42h0c-.83,1-2.64.29-2.34-.86h0c.25-.92-1-1.65-1.93-1.17h0c-1.22.6-2.55-.62-1.71-1.57h0c.68-.76-.06-1.83-1.19-1.72h0c-1.41.13-2-1.44-.79-2h0a1,1,0,0,0-.25-2h0c-1.36-.36-1.15-2,.27-2.11h0c1.13-.09,1.59-1.26.73-1.89h0C90.16,19,91.15,17.59,92.5,18h0c1.08.3,2.07-.61,1.6-1.47h0c-.59-1.07,1-2,2.07-1.25h0c.84.64,2.19.14,2.18-.81h0c0-1.17,1.93-1.52,2.5-.44h0A1.42,1.42,0,0,0,103.24,14Z"/><path class="cls-15" d="M103.27,17h0c.92-1,3-.5,3,.73h0c0,.86,1.1,1.48,2.18,1.19h0c1.54-.41,2.84.93,1.85,1.9h0c-.7.68-.27,1.68.83,1.93h0c1.56.34,1.56,2,0,2.35h0c-1.1.24-1.53,1.24-.83,1.92h0c1,1-.31,2.32-1.85,1.91h0c-1.08-.29-2.21.33-2.18,1.19h0c.05,1.22-2,1.73-3,.73h0a2,2,0,0,0-2.7,0h0c-.92,1-3,.49-3-.73h0c0-.86-1.1-1.48-2.18-1.19h0c-1.53.41-2.83-.94-1.84-1.91h0c.7-.68.27-1.68-.83-1.92h0c-1.56-.35-1.56-2,0-2.35h0c1.1-.25,1.53-1.25.83-1.93h0c-1-1,.31-2.31,1.84-1.9h0c1.08.29,2.21-.33,2.18-1.19h0c0-1.23,2.06-1.74,3-.73h0A2,2,0,0,0,103.27,17Z"/><path class="cls-16" d="M102.9,18.62h0c.62-.76,2-.38,2,.55h0a1.07,1.07,0,0,0,1.45.9h0c1-.31,1.9.7,1.23,1.43h0a.89.89,0,0,0,.56,1.46h0a.89.89,0,0,1,0,1.77h0a.89.89,0,0,0-.56,1.46h0c.67.73-.2,1.75-1.23,1.44h0a1.06,1.06,0,0,0-1.45.89h0c0,.93-1.38,1.32-2,.55h0a1.22,1.22,0,0,0-1.8,0h0c-.61.77-2,.38-2-.55h0a1.07,1.07,0,0,0-1.46-.89h0c-1,.31-1.89-.71-1.23-1.44h0a.89.89,0,0,0-.56-1.46h0a.89.89,0,0,1,0-1.77h0a.89.89,0,0,0,.56-1.46h0c-.66-.73.21-1.74,1.23-1.43h0a1.08,1.08,0,0,0,1.46-.9h0c0-.93,1.38-1.31,2-.55h0A1.2,1.2,0,0,0,102.9,18.62Z"/><path class="cls-15" d="M102.72,21.47h0c1-.41,2.17.25,2,1.12h0a.93.93,0,0,0,.4.93h0c.8.61.36,1.68-.76,1.81h0a1.36,1.36,0,0,0-1,.58h0a1.56,1.56,0,0,1-2.44,0h0a1.36,1.36,0,0,0-1-.58h0c-1.11-.13-1.56-1.2-.75-1.81h0a.91.91,0,0,0,.39-.93h0c-.19-.87,1-1.53,2-1.12h0A1.71,1.71,0,0,0,102.72,21.47Z"/><path class="cls-15" d="M129.63,16.27h0c.69-1.38,3.09-.94,3.07.56h0c0,1.2,1.66,1.84,2.69,1h0c1.29-1,3.27.22,2.54,1.58h0c-.58,1.1.64,2.26,2,1.88h0c1.66-.48,2.89,1.34,1.58,2.34h0c-1,.8-.49,2.29.91,2.4h0a1.36,1.36,0,0,1,.32,2.69h0a1.31,1.31,0,0,0-.3,2.51h0c1.52.74.76,2.74-1,2.57h0c-1.39-.14-2.3,1.22-1.47,2.18h0c1,1.21-.59,2.77-2.1,2h0c-1.21-.61-2.69.31-2.38,1.48h0c.38,1.47-1.86,2.32-2.87,1.1h0a1.7,1.7,0,0,0-2.88.53h0a1.68,1.68,0,0,1-3.15,0h0a1.7,1.7,0,0,0-2.88-.53h0c-1,1.22-3.25.37-2.87-1.1h0c.3-1.17-1.17-2.09-2.38-1.48h0c-1.51.76-3.14-.8-2.1-2h0c.83-1-.08-2.32-1.48-2.18h0c-1.73.17-2.49-1.83-1-2.57h0a1.31,1.31,0,0,0-.3-2.51h0a1.36,1.36,0,0,1,.32-2.69h0c1.4-.11,2-1.6.91-2.4h0c-1.31-1-.08-2.82,1.58-2.34h0c1.33.38,2.55-.78,2-1.88h0c-.72-1.36,1.26-2.6,2.55-1.58h0c1,.81,2.7.17,2.69-1h0c0-1.5,2.38-1.94,3.07-.56h0A1.73,1.73,0,0,0,129.63,16.27Z"/><path class="cls-16" d="M129.37,18.52h0c.56-1.08,2.51-.73,2.5.45h0c0,.94,1.34,1.44,2.18.8h0c1-.79,2.65.18,2.07,1.25h0c-.48.86.52,1.77,1.6,1.47h0c1.34-.37,2.34,1.06,1.27,1.84h0c-.85.63-.39,1.8.74,1.89h0c1.41.11,1.62,1.75.27,2.11h0a1,1,0,0,0-.25,2h0c1.23.58.62,2.15-.79,2h0c-1.13-.11-1.87,1-1.2,1.72h0c.85,1-.48,2.17-1.71,1.57h0c-1-.48-2.18.25-1.93,1.17h0c.31,1.15-1.51,1.82-2.33.86h0a1.4,1.4,0,0,0-2.34.42h0a1.37,1.37,0,0,1-2.55,0h0a1.4,1.4,0,0,0-2.34-.42h0c-.83,1-2.64.29-2.33-.86h0c.24-.92-1-1.65-1.94-1.17h0c-1.22.6-2.55-.62-1.71-1.57h0c.68-.76-.06-1.83-1.19-1.72h0c-1.41.13-2-1.44-.79-2h0a1,1,0,0,0-.25-2h0c-1.35-.36-1.15-2,.27-2.11h0c1.13-.09,1.59-1.26.74-1.89h0c-1.07-.78-.07-2.21,1.27-1.84h0c1.08.3,2.07-.61,1.6-1.47h0c-.59-1.07,1-2,2.07-1.25h0c.84.64,2.19.14,2.18-.8h0c0-1.18,1.93-1.53,2.5-.45h0A1.42,1.42,0,0,0,129.37,18.52Z"/><path class="cls-15" d="M129.4,21.54h0c.92-1,3-.5,3,.73h0c0,.86,1.09,1.48,2.18,1.19h0c1.53-.41,2.83.93,1.84,1.9h0c-.7.68-.27,1.68.83,1.93h0c1.56.34,1.56,2,0,2.35h0c-1.1.24-1.53,1.24-.83,1.93h0c1,1-.31,2.31-1.84,1.9h0c-1.09-.29-2.22.33-2.18,1.19h0c0,1.22-2.06,1.74-3,.73h0a2,2,0,0,0-2.7,0h0c-.92,1-3,.49-3-.73h0c0-.86-1.09-1.48-2.18-1.19h0c-1.53.41-2.83-.94-1.84-1.9h0c.7-.69.27-1.69-.83-1.93h0c-1.56-.35-1.56-2,0-2.35h0c1.1-.25,1.53-1.25.83-1.93h0c-1-1,.31-2.31,1.84-1.9h0c1.09.29,2.22-.33,2.18-1.19h0c0-1.23,2.06-1.74,3-.73h0A2,2,0,0,0,129.4,21.54Z"/><path class="cls-16" d="M129,23.15h0c.62-.76,2-.38,2,.55h0a1.07,1.07,0,0,0,1.45.9h0c1-.31,1.9.7,1.23,1.43h0a.89.89,0,0,0,.56,1.46h0a.89.89,0,0,1,0,1.77h0a.89.89,0,0,0-.56,1.46h0c.67.73-.2,1.75-1.23,1.44h0a1.06,1.06,0,0,0-1.45.89h0c0,.93-1.38,1.32-2,.55h0a1.22,1.22,0,0,0-1.8,0h0c-.61.77-2,.38-2-.55h0a1.07,1.07,0,0,0-1.46-.89h0c-1,.31-1.89-.71-1.23-1.44h0a.89.89,0,0,0-.55-1.46h0a.89.89,0,0,1,0-1.77h0a.89.89,0,0,0,.55-1.46h0c-.66-.73.21-1.74,1.23-1.43h0a1.08,1.08,0,0,0,1.46-.9h0c0-.93,1.38-1.31,2-.55h0A1.2,1.2,0,0,0,129,23.15Z"/><path class="cls-15" d="M128.85,26h0c1-.41,2.17.25,2,1.12h0a.91.91,0,0,0,.39.93h0c.8.62.36,1.68-.76,1.81h0a1.39,1.39,0,0,0-1,.58h0a1.56,1.56,0,0,1-2.44,0h0a1.39,1.39,0,0,0-1-.58h0c-1.12-.13-1.57-1.19-.76-1.81h0a.91.91,0,0,0,.39-.93h0c-.19-.87,1-1.53,2-1.12h0A1.71,1.71,0,0,0,128.85,26Z"/><path class="cls-15" d="M155.76,23.52h0c.69-1.38,3.09-.94,3.07.56h0c0,1.2,1.66,1.84,2.69,1h0c1.29-1,3.27.23,2.55,1.59h0c-.59,1.1.63,2.26,2,1.88h0c1.66-.48,2.89,1.34,1.58,2.34h0c-1.05.79-.49,2.28.91,2.4h0a1.35,1.35,0,0,1,.33,2.68h0a1.32,1.32,0,0,0-.31,2.52h0c1.52.74.76,2.73-1,2.56h0c-1.4-.13-2.31,1.22-1.48,2.19h0c1,1.21-.59,2.77-2.1,2h0c-1.21-.61-2.68.31-2.38,1.48h0c.38,1.47-1.86,2.32-2.87,1.1h0a1.7,1.7,0,0,0-2.88.53h0a1.68,1.68,0,0,1-3.15,0h0a1.7,1.7,0,0,0-2.88-.53h0c-1,1.22-3.25.37-2.87-1.1h0c.31-1.17-1.17-2.09-2.38-1.48h0c-1.5.76-3.14-.8-2.1-2h0c.83-1-.08-2.32-1.47-2.19h0c-1.74.17-2.5-1.82-1-2.56h0a1.32,1.32,0,0,0-.3-2.52h0a1.35,1.35,0,0,1,.32-2.68h0c1.4-.12,2-1.61.91-2.4h0c-1.3-1-.08-2.82,1.58-2.34h0c1.33.38,2.55-.78,2-1.88h0c-.73-1.36,1.25-2.6,2.54-1.59h0c1,.82,2.7.18,2.69-1h0c0-1.5,2.38-1.94,3.07-.56h0A1.73,1.73,0,0,0,155.76,23.52Z"/><path class="cls-16" d="M155.5,25.77h0c.57-1.08,2.51-.73,2.5.44h0c0,.95,1.34,1.45,2.18.81h0c1-.79,2.66.18,2.07,1.25h0c-.48.86.52,1.77,1.6,1.47h0c1.34-.37,2.34,1.06,1.27,1.84h0c-.85.63-.39,1.8.74,1.89h0c1.41.11,1.62,1.75.27,2.11h0a1,1,0,0,0-.25,2h0c1.23.58.62,2.15-.79,2h0c-1.13-.11-1.87,1-1.2,1.72h0c.85,1-.48,2.17-1.7,1.57h0c-1-.48-2.18.25-1.94,1.17h0c.31,1.15-1.51,1.82-2.33.86h0a1.4,1.4,0,0,0-2.34.42h0a1.37,1.37,0,0,1-2.55,0h0a1.4,1.4,0,0,0-2.34-.42h0c-.82,1-2.64.29-2.33-.86h0c.24-.92-1-1.65-1.94-1.17h0c-1.22.6-2.55-.62-1.71-1.57h0c.68-.76-.06-1.83-1.19-1.72h0c-1.41.13-2-1.44-.79-2h0a1,1,0,0,0-.25-2h0c-1.35-.36-1.15-2,.27-2.11h0c1.13-.09,1.59-1.26.74-1.89h0c-1.07-.78-.07-2.21,1.27-1.84h0c1.08.3,2.07-.61,1.6-1.47h0c-.59-1.07,1-2,2.07-1.25h0c.84.64,2.19.14,2.18-.81h0c0-1.17,1.93-1.52,2.5-.44h0A1.42,1.42,0,0,0,155.5,25.77Z"/><path class="cls-15" d="M155.53,28.79h0c.92-1,3-.5,3,.73h0c0,.86,1.1,1.48,2.18,1.19h0c1.53-.41,2.83.93,1.84,1.9h0c-.7.68-.27,1.68.83,1.93h0c1.56.34,1.56,2,0,2.35h0c-1.1.24-1.53,1.24-.83,1.92h0c1,1-.31,2.32-1.84,1.91h0c-1.08-.29-2.21.33-2.18,1.19h0c0,1.22-2.06,1.73-3,.73h0a2,2,0,0,0-2.7,0h0c-.92,1-3,.49-3-.73h0c0-.86-1.1-1.48-2.18-1.19h0c-1.54.41-2.84-.94-1.85-1.91h0c.7-.68.27-1.68-.83-1.92h0c-1.56-.35-1.56-2,0-2.35h0c1.1-.25,1.53-1.25.83-1.93h0c-1-1,.31-2.31,1.85-1.9h0c1.08.29,2.21-.33,2.18-1.19h0c-.05-1.23,2-1.74,3-.73h0A2,2,0,0,0,155.53,28.79Z"/><path class="cls-16" d="M155.17,30.4h0c.61-.76,2-.38,2,.55h0a1.07,1.07,0,0,0,1.45.9h0c1-.31,1.9.7,1.24,1.43h0a.89.89,0,0,0,.55,1.46h0a.89.89,0,0,1,0,1.77h0a.89.89,0,0,0-.55,1.46h0c.66.73-.21,1.74-1.24,1.44h0a1.06,1.06,0,0,0-1.45.89h0c0,.93-1.38,1.31-2,.55h0a1.23,1.23,0,0,0-1.81,0h0c-.61.76-2,.38-2-.55h0a1.07,1.07,0,0,0-1.46-.89h0c-1,.3-1.89-.71-1.23-1.44h0a.89.89,0,0,0-.55-1.46h0a.89.89,0,0,1,0-1.77h0a.89.89,0,0,0,.55-1.46h0c-.66-.73.21-1.74,1.23-1.43h0a1.08,1.08,0,0,0,1.46-.9h0c0-.93,1.38-1.31,2-.55h0A1.23,1.23,0,0,0,155.17,30.4Z"/><path class="cls-15" d="M155,33.25h0c1-.41,2.17.25,2,1.11h0a.91.91,0,0,0,.39.94h0c.81.61.36,1.68-.76,1.81h0a1.36,1.36,0,0,0-1,.58h0a1.56,1.56,0,0,1-2.44,0h0a1.36,1.36,0,0,0-1-.58h0c-1.12-.13-1.56-1.2-.76-1.81h0a.91.91,0,0,0,.39-.94h0c-.19-.86,1-1.52,2-1.11h0A1.71,1.71,0,0,0,155,33.25Z"/><path class="cls-8" d="M81.81,66.91S78,65.24,76.57,62.63"/><path class="cls-8" d="M80.41,69.64S76.63,68,75.17,65.37"/></g></g></svg>