<svg xmlns="http://www.w3.org/2000/svg" width="272" height="580" viewBox="0 0 272 580"><defs><style>.cls-1{fill:#fff;}.cls-2{fill:#07202a;}.cls-3{fill:#902761;}.cls-4{fill:#7e2153;}.cls-5{fill:#bd2f59;}.cls-6{fill:#e900cf;}.cls-7{fill:none;stroke:#000;stroke-miterlimit:10;}.cls-8{fill:#dbdad9;}.cls-9{fill:#dd2443;}.cls-10{fill:#9229d6;}.cls-11{fill:#267ddb;}.cls-12{fill:#f9c847;}.cls-13{fill:#e3933a;}.cls-14{fill:#0a2a3a;}.cls-15{fill:#ed146c;}.cls-16{fill:#ef56b9;}</style></defs><g id="Animated_items" data-name="Animated items"><path class="cls-1" d="M191.48,252s-1,21.76-9.87,21.76-10.57-5.3-10.57-5.3,4.23-13.24,6.13-15.23S186.14,246.16,191.48,252Z"/><path class="cls-1" d="M177.81,287s-4.06,12.28-8.37,17.4S153.72,291,153.72,291s6.62-13.92,10.14-11.92C163.86,279.07,170.2,280.4,177.81,287Z"/><path class="cls-1" d="M168,278.87l8.93,5.39a3.74,3.74,0,0,0,5.2-1.46h0a4.1,4.1,0,0,0-1.39-5.43L171.77,272a3.73,3.73,0,0,0-5.2,1.46h0A4.08,4.08,0,0,0,168,278.87Z"/><path class="cls-1" d="M86.41,481.6,84,509.8s-2.62,8.13,2.39,10.69L100.06,523s9.87,1.33,7.41-6.62L111,482.68"/><path class="cls-1" d="M68,544.23s-11.89,2.65-14.58,0c0,0-7.48-8,5.4-14h3.71s12.74-7.9,20.83-10.22l16.72,3s17.28,2.65,3.7,17.22c0,0-17.41,7.47-20.42,13C83.34,553.27,69.21,561.45,68,544.23Z"/><path class="cls-1" d="M73.21,559.83s-9,7.64-5.9,15.17C67.31,575,75.58,577,73.21,559.83Z"/><path class="cls-1" d="M50.09,544.24s-6.93-3.92-9.26,5.18C40.83,549.42,43,559.87,50.09,544.24Z"/><path class="cls-1" d="M56.26,552.19s-6.93-3.93-9.26,5.17C47,557.36,49.21,567.82,56.26,552.19Z"/><path class="cls-1" d="M66.13,557.48s-6.93-3.92-9.26,5.18C56.87,562.66,59.08,573.11,66.13,557.48Z"/><path class="cls-1" d="M46.6,536.59s-7.08-3.21-10.14,1.7C36.46,538.29,38.12,544.61,46.6,536.59Z"/><path class="cls-1" d="M196.2,475l2.38,28.2s2.62,8.13-2.38,10.69l-13.61,2.55s-9.84,1.32-7.38-6.62l-3.52-33.74"/><path class="cls-1" d="M214.58,537.61s11.85,2.65,14.53,0c0,0,7.46-8-5.38-14H220s-12.69-7.9-20.75-10.22l-16.68,3s-17.23,2.65-3.69,17.22c0,0,17.36,7.47,20.37,13C199.27,546.64,213.35,554.83,214.58,537.61Z"/><path class="cls-1" d="M206.64,552.44s10.89,7.13,8.91,15.58C215.55,568,207.1,571.09,206.64,552.44Z"/><path class="cls-1" d="M234.88,540.27s6.9-3.93,9.22,5.17C244.1,545.44,241.91,555.9,234.88,540.27Z"/><path class="cls-1" d="M226.26,545.57s6.91-3.93,9.23,5.17C235.49,550.74,233.29,561.19,226.26,545.57Z"/><path class="cls-1" d="M216.42,550.86s6.91-3.92,9.23,5.18C225.65,556,223.45,566.49,216.42,550.86Z"/><path class="cls-1" d="M235.24,532s7.37-2.28,9.86,3C245.1,535,242.78,541.05,235.24,532Z"/><path class="cls-2" d="M69.74,213.43S-23.84,135,25.52,64.77H208.14S231.59,144.54,173,215.9Z"/><path class="cls-3" d="M76,300.69s-45.52,29.47-46.75,65.63c0,0-4.94,86.48-8.64,107.67,0,0,6.17,23.84-6.17,37.09,0,0,25.91,11.91,45.66-4,0,0,17.27-5.86,25.91-2.93,0,0,27.15,10.67,43.19-4.46,0,0,14.18-4.74,26.22,0,0,0,18.2,8.72,33-3.2,0,0,4.94-4,14.81-1.33,0,0,34.55,7.95,39.48-4,0,0,16.05,1.32,23.45-2.65,0,0-14.81-23.84-16-34.43,0,0-27.15-88.73-34.55-100.65,0,0-21-57-46.89-59.6C168.66,293.88,79.53,298.23,76,300.69Z"/><path class="cls-4" d="M88.47,298.9s-18.53,33.39-18.53,36S103.3,296,88.47,298.9Z"/><path class="cls-4" d="M115.09,298.75s-.14.29-.36.79c-1.33,2.94-5.79,13.28-5,17.36,0,0,8.33-9.78,12-17.72Z"/><path class="cls-4" d="M141.07,298.75s4.14,15,6.61,15c0,0,1.63-12.78-1.65-15S141.07,298.75,141.07,298.75Z"/><path class="cls-4" d="M157.46,297s22.3,14.15,23.54,27.39c0,0-24.65-20-27.75-26.58S157.46,297,157.46,297Z"/><path class="cls-5" d="M77.29,249.45s-.56,9.34,5.6,16,2.47,19.86,2.47,19.86L76,300.69s63.07,3.79,92.69-6.81c0,0-6.17-11.92-6.17-15.89,0,0-1.24-6.62,1.23-11.92,0,0,3.7-9.27,0-14.57S77.29,249.45,77.29,249.45Z"/><path class="cls-1" d="M112.51,29.67s-59.23,4-74,47.68c0,0-1.85,45.69,14.19,61.58S113.13,180,113.13,180s10.93,6.62,18.42,0c7-6.15,41.5-28.29,46.4-37.78a15.27,15.27,0,0,1,2.78-3.93c6.12-6,22.59-25.79,17.54-61.59C198.27,76.69,192.1,27.69,112.51,29.67Z"/><path class="cls-6" d="M149.58,75.23h0c2.14-3.49,7-1.71,6.92,2.52h0c-.07,3,2.55,5.12,5.07,4.12h0c3.56-1.42,6.59,3.24,4.28,6.59h0c-1.63,2.37-.63,5.82,1.93,6.67h0c3.63,1.19,3.63,7,0,8.15h0c-2.56.84-3.56,4.3-1.93,6.66h0c2.31,3.36-.72,8-4.28,6.59h0c-2.52-1-5.14,1.14-5.07,4.12h0c.11,4.24-4.78,6-6.92,2.52h0a3.59,3.59,0,0,0-6.27,0h0c-2.14,3.49-7,1.72-6.92-2.52h0c.07-3-2.56-5.12-5.07-4.12h0c-3.57,1.42-6.59-3.23-4.28-6.59h0c1.63-2.36.62-5.82-1.93-6.66h0c-3.64-1.2-3.64-7,0-8.15h0c2.55-.85,3.56-4.3,1.93-6.67h0c-2.31-3.35.71-8,4.28-6.59h0c2.51,1,5.14-1.14,5.07-4.12h0c-.11-4.23,4.78-6,6.92-2.52h0A3.59,3.59,0,0,0,149.58,75.23Z"/><path class="cls-6" d="M105.29,75.23h0c2.15-3.49,7.07-1.71,7,2.52h0c-.08,3,2.56,5.12,5.09,4.12h0c3.58-1.42,6.62,3.24,4.3,6.59h0c-1.63,2.37-.63,5.82,1.95,6.67h0c3.65,1.19,3.65,7,0,8.15h0c-2.58.84-3.58,4.3-1.95,6.66h0c2.32,3.36-.72,8-4.3,6.59h0c-2.53-1-5.17,1.14-5.09,4.12h0c.1,4.24-4.82,6-7,2.52h0a3.6,3.6,0,0,0-6.29,0h0c-2.15,3.49-7.07,1.72-7-2.52h0c.07-3-2.57-5.12-5.1-4.12h0c-3.58,1.42-6.62-3.23-4.3-6.59h0c1.64-2.36.63-5.82-1.94-6.66h0c-3.65-1.2-3.65-7,0-8.15h0c2.57-.85,3.58-4.3,1.94-6.67h0c-2.32-3.35.72-8,4.3-6.59h0c2.53,1,5.17-1.14,5.1-4.12h0c-.11-4.23,4.81-6,7-2.52h0A3.6,3.6,0,0,0,105.29,75.23Z"/><path class="cls-7" d="M166.52,82.08s-3.82,4.48-8.05,5.42"/><path class="cls-7" d="M168.51,85.08s-3.82,4.48-8,5.42"/><ellipse class="cls-8" cx="102.64" cy="98.54" rx="16.66" ry="17.88"/><ellipse cx="94" cy="98.54" rx="8.02" ry="13.91"/><ellipse class="cls-8" cx="145.83" cy="98.54" rx="16.66" ry="17.88"/><ellipse cx="137.19" cy="98.54" rx="8.02" ry="13.91"/><path d="M115.65,125.24s3.25-6,6.74-7.81c0,0,3.49,2.66,4.92,5.56a20.05,20.05,0,0,0,1.1,2.05c.76,1.21,1.81,3.4,1.19,5.55,0,0-.47,5.36-7.21,0,0,0-7.67,3.29-7.67-1.07C114.72,129.52,114.72,126.31,115.65,125.24Z"/><path class="cls-7" d="M97.09,138.93s32.21,21.19,58.06-6"/><path class="cls-7" d="M107.35,139.89s3.31,7,3.31,11"/><path class="cls-7" d="M119.3,140.85a28.59,28.59,0,0,1,4.93,11.33"/><path class="cls-7" d="M133.73,139.89s6.54,4.34,6.54,8.31"/><path class="cls-7" d="M146.44,130.84a41.28,41.28,0,0,1,8.71,10"/><ellipse class="cls-9" cx="75.49" cy="123.7" rx="6.17" ry="6.62"/><ellipse class="cls-9" cx="166.8" cy="126.35" rx="6.17" ry="6.62"/><path class="cls-10" d="M86.35,152.09a.8.8,0,0,1-.46-1.32c1.41-1.73,4.14-5,4.91-5.2,1-.28,4.69,2.48,2.43,5.81a1,1,0,0,1-.64.41A21.24,21.24,0,0,1,86.35,152.09Z"/><ellipse class="cls-11" cx="79.81" cy="152.84" rx="3.94" ry="5.61" transform="translate(-92.19 164.82) rotate(-66.41)"/><path class="cls-10" d="M73.61,148.63a.77.77,0,0,1-.83,1.09c-2.1-.42-6.11-1.29-6.66-1.9-.74-.81-.38-5.6,3.44-5.19a1,1,0,0,1,.65.38A24.05,24.05,0,0,1,73.61,148.63Z"/><path class="cls-10" d="M78.35,147.12a.71.71,0,0,1-1.31,0c-1-2-2.87-5.93-2.78-6.78.13-1.12,3.83-3.81,5.93-.36a1.23,1.23,0,0,1,.13.78A25.83,25.83,0,0,1,78.35,147.12Z"/><path class="cls-10" d="M83.24,148.3a.74.74,0,0,1-1-.84c.3-2.28.93-6.61,1.48-7.23.72-.83,5.19-.66,5,3.46a1.09,1.09,0,0,1-.32.71A23,23,0,0,1,83.24,148.3Z"/><path class="cls-10" d="M85.58,157.46a.79.79,0,0,1,.35-1.35c2.1-.51,6.09-1.42,6.83-1.09,1,.42,2.41,5-1.24,6.23a1,1,0,0,1-.74-.07A22.68,22.68,0,0,1,85.58,157.46Z"/><path class="cls-10" d="M158.05,150.56a.72.72,0,0,1-1.28-.32c-.57-2.22-1.61-6.46-1.34-7.26.35-1.07,4.51-2.83,5.86,1a1.13,1.13,0,0,1,0,.79A25,25,0,0,1,158.05,150.56Z"/><ellipse class="cls-11" cx="155.02" cy="156.82" rx="5.71" ry="3.86" transform="translate(-65.13 144.14) rotate(-42.03)"/><path class="cls-10" d="M148.33,160.05a.8.8,0,0,1,.39,1.35c-1.49,1.65-4.37,4.75-5.15,4.92-1,.21-4.56-2.75-2.14-5.95a1,1,0,0,1,.65-.37A21.16,21.16,0,0,1,148.33,160.05Z"/><path class="cls-10" d="M149.77,155a.78.78,0,0,1-.73,1.17c-2.14-.22-6.2-.7-6.8-1.26-.81-.73-.85-5.53,3-5.5a1,1,0,0,1,.68.32A24,24,0,0,1,149.77,155Z"/><path class="cls-10" d="M153.39,151.25a.72.72,0,0,1-1.24.48c-1.6-1.53-4.62-4.48-4.8-5.31-.25-1.1,2.35-5,5.44-2.55a1.07,1.07,0,0,1,.37.68A26,26,0,0,1,153.39,151.25Z"/><path class="cls-10" d="M161.8,154.21a.77.77,0,0,1-.86-1.07c.76-2.15,2.26-6.23,2.91-6.71.87-.63,5.2.58,4.16,4.55a1.07,1.07,0,0,1-.46.62A22.18,22.18,0,0,1,161.8,154.21Z"/><path class="cls-2" d="M118.81,38.75s-4.45,48.53-80.34,38.6L25.52,64.77s101.18-112.57,182.62,0L196.5,70.19S151.65,89.55,118.81,38.75Z"/><rect class="cls-1" x="113.13" y="185.28" width="20.98" height="7.95" rx="1.81"/><rect class="cls-1" x="113.13" y="195.88" width="20.98" height="7.95" rx="1.81"/><rect class="cls-1" x="113.13" y="206.47" width="20.98" height="7.95" rx="1.81"/><path class="cls-1" d="M49.84,251.6s1,21.75,9.61,21.75,10.29-5.29,10.29-5.29-4.12-13.25-6-15.23S55,245.74,49.84,251.6Z"/><path class="cls-1" d="M63.15,286.6S67.1,298.88,71.29,304,86.6,290.57,86.6,290.57s-6.45-13.92-9.87-11.92C76.73,278.65,70.56,280,63.15,286.6Z"/><path class="cls-1" d="M72.73,278.45,64,283.83A3.56,3.56,0,0,1,59,282.38h0A4.15,4.15,0,0,1,60.34,277L69,271.57A3.58,3.58,0,0,1,74.09,273h0A4.16,4.16,0,0,1,72.73,278.45Z"/><path class="cls-1" d="M110.66,193.23S90.92,198.53,81,207.8l12,2.65s8.94-7.95,17.58-6.62C110.66,203.83,114.36,195.88,110.66,193.23Z"/><path class="cls-12" d="M78,206.47s41.3,15.9,89.42,5.3c0,0,27.15,13.24,29.62,38.41,0,0-3.7,7.94-19.75,2.65,0,0-6.17,5.29-13.57-1.33,0,0-2.39,8-14.77,3.33,0,0-5,4.62-13.61.64,0,0-3.75-.74-5.58,1.62,0,0-5.94,4.49-17.46-3.86,0,0-1.64-4.38-9-.4,0,0-9.88,5.29-18.51-1.33,0,0-6.17,0-9.88-4,0,0-6.17,4-11.1,5.3a7.41,7.41,0,0,1-4.94-2.65s-13.57,4-12.34-1.33S61.39,219.72,78,206.47Z"/><path class="cls-1" d="M135.12,193.23s33.54,14.57,32.3,18.54l-7.51,1.66s-8.27-8-23.21-10.1C136.7,203.33,133.66,197.2,135.12,193.23Z"/><path class="cls-13" d="M82.28,226.34s-7.41,9.27-6.17,13.24c0,0,6.17-7.94,6.17-13.24"/><path class="cls-13" d="M97.24,239.58c1.08,2.65,6-5.29,4.78-6.62C102,233,96.16,236.93,97.24,239.58Z"/><path class="cls-13" d="M119.3,230.31s-1.24,15.71,4.32,18.45C123.62,248.76,120.53,230.31,119.3,230.31Z"/><path class="cls-13" d="M142.74,223.69s-2.47,18.54,6.17,23.84C148.91,247.53,146.44,225,142.74,223.69Z"/><path class="cls-13" d="M172.9,235.61s.69,6.62,4.39,6.62S172.9,235.61,172.9,235.61Z"/><path class="cls-4" d="M28.44,514.87s21.75-55.44,18.05-59.42c0,0,9.87-4.66-11.72,59.92Z"/><path class="cls-4" d="M63.78,506s11.09-41.26,13.56-43.91S70,504.49,70,504.49Z"/><path class="cls-4" d="M118.06,435.59s0,13.24,3.7,18.54,2.47,13.24,2.47,13.24-1.23,9.27,3.7,14.57S131.68,499,131.68,499l6.51-1.13s-2.85-15.95-5.32-19.92c0,0-1.23-2.65,0-4,0,0,1.23-11.92-1.23-15.89S116.83,436.91,118.06,435.59Z"/><path class="cls-4" d="M191.24,495S179.76,463.4,181,458.1s17.27,35.76,17.27,35.76Z"/><path class="cls-4" d="M223,442.21s20.57,49,17.07,52.28l3.5-3.33S234.06,443.53,223,442.21Z"/><path class="cls-14" d="M53.28,69.4S84.13,41.59,101.4,41.59C101.4,41.59,63.15,69.4,53.28,69.4Z"/><path class="cls-14" d="M132.57,41S170.9,54.3,180.06,70C180.06,70,137.8,50,132.57,41Z"/><path class="cls-14" d="M36.62,71.39S63.52,32.23,93.88,28C93.88,28,56.36,26.36,36.62,71.39Z"/><path class="cls-14" d="M133.05,32s45.15,4.36,64.29,30C197.34,62,179.16,26.78,133.05,32Z"/><path class="cls-14" d="M29.87,92s-3.34,60.76,42.22,102.19C72.09,194.19,33.38,130.58,29.87,92Z"/><path class="cls-14" d="M155.51,194.18s48.17-32.14,53.4-96C208.91,98.2,182.85,168.84,155.51,194.18Z"/><path class="cls-14" d="M66.22,155s10.12,28.23,25.32,41.32C91.54,196.34,73.51,158.84,66.22,155Z"/><path class="cls-14" d="M140.52,189.32s24.67-14.62,34.68-32.57C175.2,156.75,143,181.06,140.52,189.32Z"/><path class="cls-15" d="M82.07,10.25h0c1-2,4.38-1.37,4.36.82h0c0,1.76,2.34,2.69,3.81,1.51h0c1.82-1.49,4.63.32,3.6,2.31h0c-.82,1.61.91,3.31,2.79,2.75h0c2.35-.7,4.08,2,2.23,3.42h0c-1.49,1.16-.69,3.34,1.29,3.51h0a2,2,0,0,1,.46,3.92h0a1.93,1.93,0,0,0-.43,3.67h0c2.15,1.08,1.08,4-1.38,3.76h0c-2-.2-3.27,1.78-2.08,3.19h0c1.47,1.77-.85,4-3,2.94h0c-1.71-.9-3.8.45-3.37,2.17h0c.54,2.14-2.63,3.39-4.07,1.6h0a2.38,2.38,0,0,0-4.08.77h0c-.49,2.15-4,2.15-4.45,0h0a2.38,2.38,0,0,0-4.08-.77h0c-1.44,1.79-4.6.54-4.07-1.6h0C70,42.5,68,41.15,66.24,42.05h0c-2.14,1.11-4.46-1.17-3-2.94h0c1.18-1.41-.11-3.39-2.09-3.19h0c-2.46.24-3.53-2.68-1.37-3.76h0a1.93,1.93,0,0,0-.44-3.67h0a2,2,0,0,1,.47-3.92h0c2-.17,2.77-2.35,1.28-3.51h0c-1.85-1.46-.12-4.12,2.23-3.42h0c1.89.56,3.62-1.14,2.79-2.75h0c-1-2,1.78-3.8,3.61-2.31h0c1.46,1.18,3.82.25,3.8-1.51h0c0-2.19,3.37-2.83,4.36-.82h0A2.4,2.4,0,0,0,82.07,10.25Z"/><path class="cls-16" d="M81.71,13.55h0c.8-1.58,3.55-1.07,3.54.65h0c0,1.38,1.9,2.11,3.09,1.18h0c1.48-1.17,3.76.25,2.93,1.82h0c-.67,1.26.73,2.59,2.26,2.16h0c1.91-.55,3.32,1.54,1.81,2.68h0c-1.21.92-.56,2.63,1,2.76h0a1.55,1.55,0,0,1,.37,3.08h0a1.51,1.51,0,0,0-.35,2.89h0c1.75.85.88,3.14-1.12,2.95h0c-1.6-.16-2.65,1.4-1.69,2.51h0c1.2,1.38-.69,3.18-2.42,2.3h0c-1.39-.7-3.09.36-2.74,1.71h0c.43,1.68-2.14,2.66-3.31,1.26h0a2,2,0,0,0-3.31.6h0a1.93,1.93,0,0,1-3.62,0h0a2,2,0,0,0-3.31-.6h0c-1.17,1.4-3.74.42-3.3-1.26h0c.35-1.35-1.35-2.41-2.74-1.71h0c-1.73.88-3.62-.92-2.42-2.3h0c1-1.11-.09-2.67-1.7-2.51h0c-2,.19-2.86-2.1-1.11-2.95h0a1.51,1.51,0,0,0-.36-2.89h0c-1.92-.52-1.62-2.92.38-3.08h0c1.61-.13,2.26-1.84,1-2.76h0c-1.51-1.14-.1-3.23,1.81-2.68h0c1.53.43,2.93-.9,2.26-2.16h0c-.83-1.57,1.45-3,2.93-1.82h0c1.19.93,3.11.2,3.09-1.18h0c0-1.72,2.74-2.23,3.54-.65h0A2,2,0,0,0,81.71,13.55Z"/><path class="cls-15" d="M81.75,18h0C83.05,16.49,86,17.24,86,19h0c0,1.26,1.55,2.17,3.08,1.74h0c2.18-.6,4,1.37,2.61,2.79h0c-1,1-.38,2.45,1.18,2.81h0c2.21.5,2.21,2.93,0,3.44h0c-1.56.36-2.17,1.81-1.18,2.81h0C93.07,34,91.23,36,89.05,35.4h0c-1.53-.43-3.13.48-3.08,1.73h0c.06,1.79-2.92,2.54-4.22,1.07h0a2.73,2.73,0,0,0-3.82,0h0c-1.3,1.47-4.28.72-4.22-1.07h0c0-1.25-1.56-2.16-3.09-1.73h0c-2.17.6-4-1.37-2.61-2.79h0c1-1,.38-2.45-1.18-2.81h0c-2.21-.51-2.21-2.94,0-3.44h0C68.39,26,69,24.54,68,23.55h0c-1.4-1.42.44-3.39,2.61-2.79h0c1.53.43,3.13-.48,3.09-1.74h0c-.06-1.78,2.92-2.53,4.22-1.06h0A2.73,2.73,0,0,0,81.75,18Z"/><path class="cls-16" d="M81.23,20.31h0c.87-1.11,2.87-.54,2.82.8h0a1.52,1.52,0,0,0,2.07,1.32h0c1.45-.45,2.68,1,1.74,2.1h0a1.3,1.3,0,0,0,.79,2.12h0a1.32,1.32,0,0,1,0,2.6h0a1.3,1.3,0,0,0-.79,2.13h0c.94,1.07-.29,2.55-1.74,2.1h0a1.52,1.52,0,0,0-2.07,1.31h0c0,1.35-2,1.92-2.82.8h0a1.68,1.68,0,0,0-2.55,0h0c-.87,1.12-2.86.55-2.82-.8h0a1.52,1.52,0,0,0-2.07-1.31h0c-1.45.45-2.68-1-1.74-2.1h0a1.3,1.3,0,0,0-.79-2.13h0a1.32,1.32,0,0,1,0-2.6h0a1.3,1.3,0,0,0,.79-2.12h0c-.94-1.07.29-2.55,1.74-2.1h0a1.52,1.52,0,0,0,2.07-1.32h0c0-1.34,2-1.91,2.82-.8h0A1.67,1.67,0,0,0,81.23,20.31Z"/><path class="cls-15" d="M81,24.48h0c1.42-.6,3.07.37,2.8,1.63h0a1.38,1.38,0,0,0,.55,1.37h0c1.15.89.52,2.45-1.06,2.64h0a1.93,1.93,0,0,0-1.45.85h0a2.17,2.17,0,0,1-3.46,0h0a1.93,1.93,0,0,0-1.45-.85h0c-1.58-.19-2.21-1.75-1.07-2.64h0a1.38,1.38,0,0,0,.55-1.37h0c-.27-1.26,1.39-2.23,2.8-1.63h0A2.32,2.32,0,0,0,81,24.48Z"/><path class="cls-15" d="M46.29,20.85h0c1-2,4.37-1.37,4.35.82h0c0,1.76,2.35,2.69,3.81,1.5h0c1.83-1.48,4.63.32,3.61,2.32h0c-.83,1.6.9,3.3,2.79,2.74h0c2.34-.69,4.08,2,2.22,3.42h0c-1.49,1.17-.69,3.34,1.29,3.51h0a2,2,0,0,1,.47,3.93h0a1.93,1.93,0,0,0-.44,3.67h0c2.16,1.08,1.08,4-1.38,3.75h0c-2-.2-3.26,1.78-2.08,3.2h0c1.47,1.76-.85,4-3,2.93h0c-1.71-.89-3.8.45-3.37,2.17h0c.53,2.14-2.64,3.39-4.07,1.61h0a2.38,2.38,0,0,0-4.08.76h0c-.5,2.15-4,2.15-4.46,0h0a2.37,2.37,0,0,0-4.07-.76h0c-1.44,1.78-4.61.53-4.07-1.61h0c.43-1.72-1.66-3.06-3.38-2.17h0c-2.13,1.11-4.45-1.17-3-2.93h0c1.18-1.42-.11-3.4-2.08-3.2h0c-2.46.25-3.53-2.67-1.38-3.75h0a1.93,1.93,0,0,0-.43-3.67h0A2,2,0,0,1,24,35.16h0c2-.17,2.78-2.34,1.29-3.51h0c-1.86-1.45-.12-4.11,2.23-3.42h0c1.88.56,3.61-1.14,2.79-2.74h0c-1-2,1.77-3.8,3.6-2.32h0c1.47,1.19,3.83.26,3.81-1.5h0c0-2.19,3.37-2.83,4.36-.82h0A2.4,2.4,0,0,0,46.29,20.85Z"/><path class="cls-16" d="M45.92,24.15h0c.8-1.58,3.56-1.08,3.54.64h0c0,1.39,1.9,2.12,3.09,1.18h0c1.49-1.16,3.76.26,2.93,1.82h0c-.67,1.26.74,2.6,2.27,2.16h0c1.9-.55,3.31,1.54,1.8,2.69h0c-1.2.91-.56,2.62,1.05,2.75h0c2,.17,2.3,2.57.38,3.09h0a1.5,1.5,0,0,0-.36,2.88h0c1.76.85.88,3.15-1.11,3h0c-1.61-.16-2.66,1.4-1.7,2.51h0c1.2,1.39-.68,3.18-2.42,2.31h0c-1.39-.71-3.09.35-2.74,1.7h0c.44,1.68-2.13,2.67-3.3,1.26h0A2,2,0,0,0,46,52.7h0a1.93,1.93,0,0,1-3.62,0h0a2,2,0,0,0-3.31-.61h0c-1.17,1.41-3.74.42-3.31-1.26h0c.35-1.35-1.35-2.41-2.74-1.7h0c-1.73.87-3.61-.92-2.42-2.31h0c1-1.11-.09-2.67-1.69-2.51h0c-2,.2-2.87-2.1-1.12-3h0a1.5,1.5,0,0,0-.35-2.88h0c-1.92-.52-1.63-2.92.38-3.09h0c1.6-.13,2.25-1.84,1-2.75h0c-1.5-1.15-.1-3.24,1.81-2.69h0c1.53.44,2.94-.9,2.27-2.16h0c-.84-1.56,1.44-3,2.92-1.82h0c1.19.94,3.11.21,3.1-1.18h0c0-1.72,2.73-2.22,3.54-.64h0A2,2,0,0,0,45.92,24.15Z"/><path class="cls-15" d="M46,28.56h0c1.3-1.48,4.29-.73,4.22,1.06h0c0,1.26,1.56,2.16,3.09,1.74h0c2.17-.6,4,1.36,2.61,2.78h0c-1,1-.38,2.46,1.18,2.81h0c2.21.51,2.21,2.94,0,3.44h0c-1.56.36-2.17,1.82-1.18,2.82h0c1.4,1.41-.44,3.38-2.61,2.78h0c-1.53-.42-3.13.48-3.09,1.74h0c.07,1.79-2.92,2.54-4.22,1.06h0a2.73,2.73,0,0,0-3.82,0h0c-1.3,1.48-4.28.73-4.22-1.06h0c0-1.26-1.55-2.16-3.08-1.74h0c-2.18.6-4-1.37-2.61-2.78h0c1-1,.38-2.46-1.18-2.82h0c-2.21-.5-2.21-2.93,0-3.44h0c1.56-.35,2.17-1.81,1.18-2.81h0c-1.41-1.42.43-3.38,2.61-2.78h0c1.53.42,3.13-.48,3.08-1.74h0c-.06-1.79,2.92-2.54,4.22-1.06h0A2.73,2.73,0,0,0,46,28.56Z"/><path class="cls-16" d="M45.45,30.91h0c.87-1.12,2.86-.55,2.82.8h0A1.52,1.52,0,0,0,50.33,33h0c1.46-.45,2.69,1,1.75,2.1h0a1.3,1.3,0,0,0,.79,2.13h0a1.32,1.32,0,0,1,0,2.6h0A1.29,1.29,0,0,0,52.08,42h0c.94,1.07-.29,2.55-1.75,2.1h0a1.52,1.52,0,0,0-2.06,1.31h0c0,1.35-2,1.92-2.82.81h0a1.67,1.67,0,0,0-2.55,0h0c-.88,1.11-2.87.54-2.83-.81h0A1.52,1.52,0,0,0,38,44.07h0c-1.45.45-2.69-1-1.75-2.1h0a1.29,1.29,0,0,0-.78-2.12h0a1.32,1.32,0,0,1,0-2.6h0a1.3,1.3,0,0,0,.78-2.13h0c-.94-1.07.3-2.55,1.75-2.1h0a1.52,1.52,0,0,0,2.06-1.31h0c0-1.35,2-1.92,2.83-.8h0A1.68,1.68,0,0,0,45.45,30.91Z"/><path class="cls-15" d="M45.19,35.07h0c1.41-.59,3.07.37,2.8,1.63h0a1.36,1.36,0,0,0,.55,1.37h0c1.14.9.51,2.46-1.07,2.64h0a2,2,0,0,0-1.45.85h0a2.17,2.17,0,0,1-3.46,0h0a2,2,0,0,0-1.45-.85h0c-1.58-.18-2.21-1.74-1.06-2.64h0a1.36,1.36,0,0,0,.55-1.37h0c-.27-1.26,1.38-2.22,2.8-1.63h0A2.32,2.32,0,0,0,45.19,35.07Z"/><path class="cls-15" d="M120.32,6.28h0c1-2,4.38-1.37,4.36.82h0c0,1.76,2.35,2.69,3.81,1.5h0c1.83-1.48,4.63.33,3.6,2.32h0c-.82,1.6.91,3.3,2.79,2.75h0c2.35-.7,4.09,2,2.23,3.41h0c-1.49,1.17-.69,3.35,1.29,3.51h0a2,2,0,0,1,.47,3.93h0a1.93,1.93,0,0,0-.44,3.67h0c2.15,1.08,1.08,4-1.38,3.75h0c-2-.2-3.26,1.79-2.08,3.2h0c1.47,1.76-.85,4-3,2.93h0c-1.71-.89-3.81.46-3.38,2.17h0c.54,2.14-2.63,3.39-4.07,1.61h0a2.37,2.37,0,0,0-4.07.77h0c-.5,2.15-4,2.15-4.46,0h0a2.38,2.38,0,0,0-4.08-.77h0c-1.43,1.78-4.6.53-4.07-1.61h0c.43-1.71-1.66-3.06-3.37-2.17h0c-2.13,1.12-4.45-1.17-3-2.93h0c1.18-1.41-.11-3.4-2.08-3.2h0c-2.46.25-3.54-2.67-1.38-3.75h0a1.93,1.93,0,0,0-.44-3.67h0a2,2,0,0,1,.47-3.93h0c2-.16,2.78-2.34,1.29-3.51h0c-1.86-1.45-.12-4.11,2.22-3.41h0c1.89.55,3.62-1.15,2.79-2.75h0c-1-2,1.78-3.8,3.61-2.32h0c1.46,1.19,3.82.26,3.81-1.5h0c0-2.19,3.37-2.83,4.35-.82h0A2.4,2.4,0,0,0,120.32,6.28Z"/><path class="cls-16" d="M120,9.58h0c.8-1.58,3.56-1.08,3.54.64h0c0,1.39,1.9,2.12,3.09,1.18h0c1.48-1.16,3.76.26,2.93,1.83h0c-.67,1.26.73,2.59,2.26,2.15h0c1.91-.54,3.32,1.55,1.81,2.69h0c-1.21.91-.56,2.62,1,2.76h0c2,.16,2.3,2.56.38,3.08h0a1.5,1.5,0,0,0-.36,2.88h0c1.75.85.88,3.15-1.11,2.95h0c-1.61-.15-2.66,1.4-1.7,2.51h0c1.2,1.39-.69,3.18-2.42,2.31h0c-1.39-.7-3.09.35-2.74,1.7h0c.44,1.69-2.13,2.67-3.3,1.26h0a2,2,0,0,0-3.31.61h0a1.93,1.93,0,0,1-3.62,0h0a2,2,0,0,0-3.31-.61h0c-1.17,1.41-3.74.43-3.31-1.26h0c.35-1.35-1.35-2.4-2.74-1.7h0c-1.73.87-3.62-.92-2.42-2.31h0c1-1.11-.09-2.66-1.69-2.51h0c-2,.2-2.87-2.1-1.12-2.95h0a1.51,1.51,0,0,0-.35-2.88h0a1.55,1.55,0,0,1,.37-3.08h0c1.61-.14,2.26-1.85,1-2.76h0c-1.51-1.14-.1-3.23,1.81-2.69h0c1.53.44,2.93-.89,2.26-2.15h0c-.83-1.57,1.45-3,2.93-1.83h0c1.19.94,3.11.21,3.09-1.18h0c0-1.72,2.74-2.22,3.54-.64h0A2,2,0,0,0,120,9.58Z"/><path class="cls-15" d="M120,14h0c1.3-1.48,4.28-.73,4.22,1.06h0c0,1.26,1.56,2.16,3.09,1.74h0c2.17-.6,4,1.37,2.61,2.78h0c-1,1-.38,2.46,1.17,2.82h0c2.22.5,2.22,2.93,0,3.44h0c-1.55.35-2.17,1.81-1.17,2.81h0c1.4,1.42-.44,3.38-2.61,2.78h0c-1.53-.42-3.14.48-3.09,1.74h0c.06,1.79-2.92,2.54-4.22,1.06h0a2.75,2.75,0,0,0-3.82,0h0c-1.3,1.48-4.28.73-4.22-1.06h0c.05-1.26-1.55-2.16-3.08-1.74h0c-2.18.6-4-1.36-2.61-2.78h0c1-1,.38-2.46-1.18-2.81h0c-2.21-.51-2.21-2.94,0-3.44h0c1.56-.36,2.17-1.82,1.18-2.82h0c-1.41-1.41.43-3.38,2.61-2.78h0c1.53.42,3.13-.48,3.08-1.74h0c-.06-1.79,2.92-2.54,4.22-1.06h0A2.73,2.73,0,0,0,120,14Z"/><path class="cls-16" d="M119.49,16.34h0c.87-1.11,2.86-.55,2.82.8h0a1.52,1.52,0,0,0,2.06,1.31h0c1.46-.45,2.69,1,1.75,2.11h0a1.29,1.29,0,0,0,.78,2.12h0a1.32,1.32,0,0,1,0,2.6h0a1.29,1.29,0,0,0-.78,2.12h0c.94,1.07-.29,2.56-1.75,2.1h0a1.52,1.52,0,0,0-2.06,1.32h0c0,1.35-2,1.91-2.82.8h0a1.68,1.68,0,0,0-2.56,0h0c-.87,1.11-2.86.55-2.82-.8h0a1.52,1.52,0,0,0-2.06-1.32h0c-1.46.46-2.69-1-1.75-2.1h0a1.29,1.29,0,0,0-.79-2.12h0a1.32,1.32,0,0,1,0-2.6h0a1.29,1.29,0,0,0,.79-2.12h0c-.94-1.07.29-2.56,1.75-2.11h0a1.52,1.52,0,0,0,2.06-1.31h0c0-1.35,2-1.91,2.82-.8h0A1.69,1.69,0,0,0,119.49,16.34Z"/><path class="cls-15" d="M119.23,20.51h0c1.41-.6,3.06.36,2.79,1.63h0a1.38,1.38,0,0,0,.56,1.37h0c1.14.89.51,2.45-1.07,2.64h0a2,2,0,0,0-1.45.84h0a2.17,2.17,0,0,1-3.46,0h0a2,2,0,0,0-1.45-.84h0c-1.58-.19-2.21-1.75-1.07-2.64h0a1.36,1.36,0,0,0,.56-1.37h0c-.27-1.27,1.38-2.23,2.79-1.63h0A2.43,2.43,0,0,0,119.23,20.51Z"/><path class="cls-15" d="M157.34,12.9h0c1-2,4.38-1.37,4.36.82h0c0,1.76,2.34,2.69,3.81,1.5h0c1.82-1.48,4.63.33,3.6,2.32h0c-.82,1.61.91,3.31,2.79,2.75h0c2.35-.7,4.09,2,2.23,3.41h0c-1.49,1.17-.69,3.35,1.29,3.52h0a2,2,0,0,1,.46,3.92h0a1.93,1.93,0,0,0-.43,3.67h0c2.15,1.08,1.08,4-1.38,3.76h0c-2-.2-3.26,1.78-2.08,3.19h0c1.47,1.77-.85,4.05-3,2.94h0c-1.72-.9-3.81.45-3.38,2.17h0c.54,2.14-2.63,3.39-4.07,1.6h0a2.37,2.37,0,0,0-4.07.77h0c-.5,2.15-4,2.15-4.46,0h0a2.38,2.38,0,0,0-4.08-.77h0c-1.43,1.79-4.6.54-4.07-1.6h0c.43-1.72-1.66-3.07-3.37-2.17h0c-2.13,1.11-4.45-1.17-3-2.94h0c1.18-1.41-.11-3.39-2.09-3.19h0c-2.46.24-3.53-2.68-1.37-3.76h0a1.93,1.93,0,0,0-.44-3.67h0a2,2,0,0,1,.47-3.92h0c2-.17,2.77-2.35,1.29-3.52h0c-1.86-1.45-.12-4.11,2.22-3.41h0c1.89.56,3.62-1.14,2.79-2.75h0c-1-2,1.78-3.8,3.61-2.32h0c1.46,1.19,3.82.26,3.81-1.5h0c0-2.19,3.37-2.83,4.35-.82h0A2.4,2.4,0,0,0,157.34,12.9Z"/><path class="cls-16" d="M157,16.2h0c.8-1.58,3.55-1.08,3.54.65h0c0,1.38,1.9,2.11,3.09,1.18h0c1.48-1.17,3.76.25,2.93,1.82h0c-.67,1.26.73,2.59,2.26,2.15h0c1.91-.54,3.32,1.55,1.81,2.69h0c-1.21.92-.56,2.63,1,2.76h0c2,.16,2.29,2.56.38,3.08h0a1.51,1.51,0,0,0-.36,2.89h0c1.75.84.88,3.14-1.12,2.94h0c-1.6-.15-2.65,1.41-1.69,2.52h0c1.2,1.38-.69,3.17-2.42,2.3h0c-1.39-.7-3.09.36-2.74,1.71h0c.44,1.68-2.14,2.66-3.3,1.26h0a2,2,0,0,0-3.32.6h0a1.92,1.92,0,0,1-3.61,0h0a2,2,0,0,0-3.32-.6h0c-1.16,1.4-3.74.42-3.3-1.26h0c.35-1.35-1.35-2.41-2.74-1.71h0c-1.73.87-3.62-.92-2.42-2.3h0c1-1.11-.09-2.67-1.69-2.52h0c-2,.2-2.87-2.1-1.12-2.94h0a1.51,1.51,0,0,0-.35-2.89h0a1.55,1.55,0,0,1,.37-3.08h0c1.61-.13,2.26-1.84,1.05-2.76h0c-1.51-1.14-.1-3.23,1.81-2.69h0c1.53.44,2.93-.89,2.26-2.15h0c-.83-1.57,1.45-3,2.93-1.82h0c1.19.93,3.11.2,3.09-1.18h0c0-1.73,2.74-2.23,3.54-.65h0A2,2,0,0,0,157,16.2Z"/><path class="cls-15" d="M157,20.61h0c1.3-1.48,4.28-.72,4.22,1.06h0c-.05,1.26,1.55,2.16,3.09,1.74h0c2.17-.6,4,1.37,2.6,2.78h0c-1,1-.38,2.46,1.18,2.82h0c2.22.5,2.22,2.93,0,3.44h0c-1.56.35-2.17,1.81-1.18,2.81h0c1.41,1.42-.43,3.38-2.6,2.78h0c-1.54-.42-3.14.48-3.09,1.74h0c.06,1.79-2.92,2.54-4.22,1.07h0a2.73,2.73,0,0,0-3.82,0h0c-1.3,1.47-4.28.72-4.22-1.07h0c.05-1.26-1.55-2.16-3.09-1.74h0c-2.17.6-4-1.36-2.6-2.78h0c1-1,.38-2.46-1.18-2.81h0c-2.22-.51-2.22-2.94,0-3.44h0c1.56-.36,2.17-1.82,1.18-2.82h0c-1.41-1.41.43-3.38,2.6-2.78h0c1.54.42,3.14-.48,3.09-1.74h0c-.06-1.78,2.92-2.54,4.22-1.06h0A2.73,2.73,0,0,0,157,20.61Z"/><path class="cls-16" d="M156.5,23h0c.88-1.11,2.87-.55,2.83.8h0a1.52,1.52,0,0,0,2.06,1.32h0c1.45-.46,2.69,1,1.75,2.1h0a1.29,1.29,0,0,0,.78,2.12h0a1.32,1.32,0,0,1,0,2.6h0a1.29,1.29,0,0,0-.78,2.12h0c.94,1.07-.3,2.56-1.75,2.11h0a1.52,1.52,0,0,0-2.06,1.31h0c0,1.35-2,1.91-2.83.8h0a1.68,1.68,0,0,0-2.55,0h0c-.87,1.11-2.86.55-2.82-.8h0a1.52,1.52,0,0,0-2.06-1.31h0c-1.46.45-2.69-1-1.75-2.11h0a1.29,1.29,0,0,0-.79-2.12h0a1.32,1.32,0,0,1,0-2.6h0a1.29,1.29,0,0,0,.79-2.12h0c-.94-1.07.29-2.56,1.75-2.1h0a1.52,1.52,0,0,0,2.06-1.32h0c0-1.35,2-1.91,2.82-.8h0A1.67,1.67,0,0,0,156.5,23Z"/><path class="cls-15" d="M156.25,27.13h0c1.41-.6,3.06.36,2.79,1.63h0a1.38,1.38,0,0,0,.56,1.37h0c1.14.89.51,2.45-1.07,2.64h0a2,2,0,0,0-1.45.84h0a2.17,2.17,0,0,1-3.46,0h0a2,2,0,0,0-1.45-.84h0c-1.58-.19-2.21-1.75-1.07-2.64h0a1.38,1.38,0,0,0,.56-1.37h0c-.27-1.27,1.38-2.23,2.79-1.63h0A2.43,2.43,0,0,0,156.25,27.13Z"/><path class="cls-15" d="M194.36,23.5h0c1-2,4.38-1.38,4.36.82h0c0,1.76,2.34,2.69,3.81,1.5h0c1.82-1.48,4.63.32,3.6,2.32h0c-.82,1.6.91,3.3,2.79,2.74h0c2.35-.69,4.08,2,2.23,3.42h0c-1.49,1.17-.69,3.34,1.29,3.51h0a2,2,0,0,1,.46,3.93h0a1.93,1.93,0,0,0-.43,3.67h0c2.15,1.08,1.08,4-1.38,3.75h0c-2-.2-3.27,1.78-2.08,3.2h0c1.47,1.76-.85,4-3,2.93h0c-1.72-.89-3.81.45-3.38,2.17h0c.54,2.14-2.63,3.39-4.07,1.61h0a2.37,2.37,0,0,0-4.07.76h0c-.5,2.15-4,2.15-4.46,0h0a2.38,2.38,0,0,0-4.08-.76h0c-1.44,1.78-4.6.53-4.07-1.61h0c.43-1.72-1.66-3.06-3.37-2.17h0c-2.13,1.11-4.45-1.17-3-2.93h0c1.18-1.42-.11-3.4-2.09-3.2h0c-2.46.25-3.53-2.67-1.37-3.75h0a1.93,1.93,0,0,0-.44-3.67h0a2,2,0,0,1,.47-3.93h0c2-.17,2.77-2.34,1.29-3.51h0c-1.86-1.45-.13-4.11,2.22-3.42h0c1.89.56,3.62-1.14,2.79-2.74h0c-1-2,1.78-3.8,3.61-2.32h0c1.46,1.19,3.82.26,3.81-1.5h0c0-2.2,3.37-2.83,4.35-.82h0A2.4,2.4,0,0,0,194.36,23.5Z"/><path class="cls-16" d="M194,26.8h0c.8-1.58,3.55-1.08,3.54.64h0c0,1.38,1.9,2.12,3.09,1.18h0c1.48-1.16,3.76.26,2.93,1.82h0c-.67,1.26.73,2.6,2.26,2.16h0c1.91-.55,3.32,1.54,1.81,2.68h0c-1.21.92-.56,2.63,1.05,2.76h0c2,.17,2.29,2.57.38,3.09h0A1.5,1.5,0,0,0,208.7,44h0c1.75.85.88,3.14-1.12,3h0c-1.6-.16-2.65,1.4-1.69,2.51h0c1.2,1.39-.69,3.18-2.42,2.31h0c-1.39-.71-3.09.35-2.74,1.7h0c.44,1.68-2.14,2.66-3.3,1.26h0a2,2,0,0,0-3.32.6h0a1.92,1.92,0,0,1-3.61,0h0a2,2,0,0,0-3.32-.6h0c-1.16,1.4-3.74.42-3.3-1.26h0c.35-1.35-1.35-2.41-2.74-1.7h0c-1.73.87-3.62-.92-2.42-2.31h0c1-1.11-.09-2.67-1.69-2.51h0c-2,.19-2.87-2.1-1.12-3h0a1.5,1.5,0,0,0-.36-2.88h0c-1.91-.52-1.62-2.92.38-3.09h0c1.61-.13,2.26-1.84,1-2.76h0c-1.51-1.14-.1-3.23,1.81-2.68h0c1.53.44,2.93-.9,2.26-2.16h0c-.83-1.56,1.45-3,2.93-1.82h0c1.19.94,3.11.2,3.09-1.18h0c0-1.72,2.74-2.22,3.54-.64h0A2,2,0,0,0,194,26.8Z"/><path class="cls-15" d="M194,31.2h0c1.3-1.47,4.28-.72,4.22,1.07h0c0,1.26,1.55,2.16,3.09,1.74h0c2.17-.6,4,1.36,2.6,2.78h0c-1,1-.38,2.46,1.18,2.81h0c2.22.51,2.22,2.94,0,3.44h0c-1.56.36-2.17,1.82-1.18,2.82h0c1.41,1.41-.43,3.38-2.6,2.78h0c-1.54-.42-3.14.48-3.09,1.74h0c.06,1.79-2.92,2.54-4.22,1.06h0a2.73,2.73,0,0,0-3.82,0h0c-1.3,1.48-4.28.73-4.22-1.06h0c.05-1.26-1.55-2.16-3.09-1.74h0c-2.17.6-4-1.37-2.6-2.78h0c1-1,.38-2.46-1.18-2.82h0c-2.22-.5-2.22-2.93,0-3.44h0c1.56-.35,2.17-1.81,1.18-2.81h0c-1.41-1.42.43-3.38,2.6-2.78h0c1.54.42,3.14-.48,3.09-1.74h0c-.06-1.79,2.92-2.54,4.22-1.07h0A2.73,2.73,0,0,0,194,31.2Z"/><path class="cls-16" d="M193.52,33.56h0c.88-1.12,2.87-.55,2.83.8h0a1.52,1.52,0,0,0,2.06,1.31h0c1.45-.45,2.69,1,1.74,2.1h0a1.3,1.3,0,0,0,.79,2.13h0a1.31,1.31,0,0,1,0,2.59h0a1.3,1.3,0,0,0-.79,2.13h0c.95,1.07-.29,2.55-1.74,2.1h0A1.52,1.52,0,0,0,196.35,48h0c0,1.35-1.95,1.92-2.83.81h0a1.67,1.67,0,0,0-2.55,0h0c-.87,1.11-2.86.54-2.82-.81h0a1.52,1.52,0,0,0-2.07-1.31h0c-1.45.45-2.68-1-1.74-2.1h0a1.3,1.3,0,0,0-.79-2.13h0a1.31,1.31,0,0,1,0-2.59h0a1.3,1.3,0,0,0,.79-2.13h0c-.94-1.07.29-2.55,1.74-2.1h0a1.52,1.52,0,0,0,2.07-1.31h0c0-1.35,1.95-1.92,2.82-.8h0A1.68,1.68,0,0,0,193.52,33.56Z"/><path class="cls-15" d="M193.27,37.72h0c1.41-.59,3.06.37,2.79,1.63h0a1.35,1.35,0,0,0,.56,1.37h0c1.14.9.51,2.46-1.07,2.64h0a2,2,0,0,0-1.45.85h0a2.17,2.17,0,0,1-3.46,0h0a2,2,0,0,0-1.45-.85h0c-1.58-.18-2.21-1.74-1.07-2.64h0a1.37,1.37,0,0,0,.56-1.37h0c-.27-1.26,1.38-2.22,2.79-1.63h0A2.34,2.34,0,0,0,193.27,37.72Z"/><path class="cls-7" d="M89.6,86.91s-5.34-2.44-7.42-6.25"/><path class="cls-7" d="M87.61,90.92s-5.34-2.44-7.42-6.26"/></g></svg>