<svg xmlns="http://www.w3.org/2000/svg" width="272" height="580" viewBox="0 0 272 580"><defs><style>.cls-1{fill:#fff;}.cls-2{fill:#07202a;}.cls-3{fill:#902761;}.cls-4{fill:#7e2153;}.cls-5{fill:#bd2f59;}.cls-6{fill:#e900cf;}.cls-7{fill:#dbdad9;}.cls-8{fill:none;stroke:#000;stroke-miterlimit:10;}.cls-9{fill:#dd2443;}.cls-10{fill:#9229d6;}.cls-11{fill:#267ddb;}.cls-12{fill:#f9c847;}.cls-13{fill:#e3933a;}.cls-14{fill:#0a2a3a;}.cls-15{fill:#ed146c;}.cls-16{fill:#ef56b9;}</style></defs><g id="Animated_items" data-name="Animated items"><g id="happy_down-2" data-name="happy down"><path class="cls-1" d="M189.77,256.86s-1,21.76-9.87,21.76-10.58-5.3-10.58-5.3,4.24-13.25,6.14-15.23S184.42,251,189.77,256.86Z"/><path class="cls-1" d="M176.09,291.86s-4.05,12.28-8.37,17.4S152,295.83,152,295.83s6.62-13.92,10.14-11.92C162.14,283.91,168.48,285.24,176.09,291.86Z"/><path class="cls-1" d="M166.25,283.71l8.93,5.38a3.71,3.71,0,0,0,5.19-1.45h0a4.09,4.09,0,0,0-1.39-5.43l-8.93-5.38a3.72,3.72,0,0,0-5.19,1.45h0A4.08,4.08,0,0,0,166.25,283.71Z"/><path class="cls-1" d="M84.7,486.44l-2.4,28.2s-2.62,8.13,2.4,10.69l13.65,2.55s9.87,1.32,7.4-6.62l3.52-33.74"/><path class="cls-1" d="M66.26,549.07s-11.88,2.65-14.58,0c0,0-7.47-8,5.41-14H60.8s12.73-7.9,20.82-10.22l16.73,3s17.27,2.65,3.7,17.22c0,0-17.41,7.47-20.43,13C81.62,558.1,67.5,566.29,66.26,549.07Z"/><path class="cls-1" d="M71.5,564.67s-9,7.63-5.91,15.17C65.59,579.84,73.87,581.79,71.5,564.67Z"/><path class="cls-1" d="M48.37,549.08s-6.92-3.93-9.25,5.18C39.12,554.26,41.32,564.71,48.37,549.08Z"/><path class="cls-1" d="M54.54,557s-6.93-3.93-9.25,5.17C45.29,562.2,47.49,572.65,54.54,557Z"/><path class="cls-1" d="M64.41,562.32s-6.92-3.92-9.25,5.18C55.16,567.5,57.36,578,64.41,562.32Z"/><path class="cls-1" d="M44.88,541.43s-7.07-3.21-10.13,1.7C34.75,543.13,36.4,549.45,44.88,541.43Z"/><path class="cls-1" d="M194.48,479.82,196.87,508s2.61,8.14-2.39,10.69l-13.61,2.56s-9.84,1.32-7.38-6.62L170,480.89"/><path class="cls-1" d="M212.86,542.45s11.85,2.65,14.54,0c0,0,7.45-8-5.39-14h-3.7s-12.69-7.9-20.76-10.22l-16.68,3s-17.22,2.65-3.69,17.21c0,0,17.36,7.48,20.37,13C197.55,551.48,211.63,559.66,212.86,542.45Z"/><path class="cls-1" d="M204.92,557.28s10.89,7.13,8.91,15.58C213.83,572.86,205.39,575.93,204.92,557.28Z"/><path class="cls-1" d="M233.16,545.11s6.91-3.93,9.23,5.17C242.39,550.28,240.19,560.73,233.16,545.11Z"/><path class="cls-1" d="M224.55,550.4s6.9-3.92,9.23,5.18C233.78,555.58,231.58,566,224.55,550.4Z"/><path class="cls-1" d="M214.71,555.7s6.9-3.92,9.22,5.18C223.93,560.88,221.74,571.33,214.71,555.7Z"/><path class="cls-1" d="M233.53,536.86s7.36-2.29,9.86,3C243.39,539.84,241.06,545.89,233.53,536.86Z"/><path class="cls-2" d="M68,218.27S-25.56,139.8,23.8,69.61H206.43s23.44,79.77-35.17,151.13Z"/><path class="cls-3" d="M74.25,305.53S28.74,335,27.5,371.16c0,0-4.93,86.48-8.64,107.67,0,0,6.17,23.84-6.17,37.08,0,0,25.92,11.92,45.66-4,0,0,17.28-5.86,25.91-2.93,0,0,27.15,10.67,43.19-4.46,0,0,14.19-4.74,26.22,0,0,0,18.21,8.71,33-3.2,0,0,4.94-4,14.81-1.33,0,0,34.55,8,39.49-4,0,0,16,1.32,23.44-2.65,0,0-14.8-23.84-16-34.43,0,0-27.15-88.74-34.55-100.65,0,0-21-56.95-46.89-59.6C166.94,298.72,77.82,303.07,74.25,305.53Z"/><path class="cls-4" d="M86.76,303.74s-18.54,33.39-18.54,36S101.59,300.81,86.76,303.74Z"/><path class="cls-4" d="M113.37,303.59l-.36.79c-1.32,2.94-5.78,13.28-5,17.36,0,0,8.33-9.78,12-17.72Z"/><path class="cls-4" d="M139.35,303.59s4.14,15,6.61,15c0,0,1.63-12.78-1.65-15S139.35,303.59,139.35,303.59Z"/><path class="cls-4" d="M155.75,301.79s22.3,14.15,23.53,27.39c0,0-24.64-20.05-27.75-26.58S155.75,301.79,155.75,301.79Z"/><path class="cls-5" d="M75.58,254.28s-.57,9.34,5.6,16,2.47,19.86,2.47,19.86l-9.4,15.42s63.07,3.78,92.69-6.81c0,0-6.17-11.92-6.17-15.89,0,0-1.23-6.62,1.23-11.92,0,0,3.71-9.27,0-14.57S75.58,254.28,75.58,254.28Z"/><path class="cls-1" d="M110.79,34.51s-59.23,4-74,47.68c0,0-1.86,45.69,14.19,61.58s60.46,41.06,60.46,41.06,10.93,6.62,18.42,0c7-6.15,41.5-28.29,46.4-37.78a15.27,15.27,0,0,1,2.78-3.93c6.13-6,22.6-25.8,17.55-61.59C196.56,81.53,190.39,32.52,110.79,34.51Z"/><path class="cls-6" d="M147.86,80.07h0c2.14-3.49,7-1.71,6.93,2.52h0c-.08,3,2.55,5.12,5.06,4.12h0c3.57-1.42,6.59,3.23,4.28,6.59h0c-1.62,2.37-.62,5.82,1.94,6.67h0c3.63,1.19,3.63,7,0,8.14h0c-2.56.85-3.56,4.3-1.94,6.67h0c2.31,3.36-.71,8-4.28,6.59h0c-2.51-1-5.14,1.14-5.06,4.12h0c.1,4.23-4.79,6-6.93,2.52h0a3.58,3.58,0,0,0-6.26,0h0c-2.14,3.49-7,1.71-6.93-2.52h0c.08-3-2.55-5.12-5.07-4.12h0c-3.56,1.42-6.58-3.23-4.28-6.59h0c1.63-2.37.63-5.82-1.93-6.67h0c-3.63-1.19-3.63-7,0-8.14h0c2.56-.85,3.56-4.3,1.93-6.67h0c-2.3-3.36.72-8,4.28-6.59h0c2.52,1,5.15-1.14,5.07-4.12h0c-.1-4.23,4.79-6,6.93-2.52h0A3.58,3.58,0,0,0,147.86,80.07Z"/><path class="cls-6" d="M103.58,80.07h0c2.15-3.49,7.06-1.71,7,2.52h0c-.07,3,2.57,5.12,5.09,4.12h0c3.59-1.42,6.63,3.23,4.3,6.59h0c-1.63,2.37-.62,5.82,1.95,6.67h0c3.65,1.19,3.65,7,0,8.14h0c-2.57.85-3.58,4.3-1.95,6.67h0c2.33,3.36-.71,8-4.3,6.59h0c-2.52-1-5.16,1.14-5.09,4.12h0c.1,4.23-4.81,6-7,2.52h0a3.61,3.61,0,0,0-6.3,0h0c-2.15,3.49-7.06,1.71-7-2.52h0c.08-3-2.57-5.12-5.09-4.12h0c-3.59,1.42-6.63-3.23-4.3-6.59h0c1.63-2.37.62-5.82-2-6.67h0c-3.65-1.19-3.65-7,0-8.14h0c2.57-.85,3.58-4.3,2-6.67h0c-2.33-3.36.71-8,4.3-6.59h0c2.52,1,5.17-1.14,5.09-4.12h0c-.1-4.23,4.81-6,7-2.52h0A3.61,3.61,0,0,0,103.58,80.07Z"/><ellipse class="cls-7" cx="100.92" cy="103.38" rx="16.66" ry="17.88"/><ellipse class="cls-7" cx="144.11" cy="103.38" rx="16.66" ry="17.88"/><ellipse cx="144.46" cy="112.64" rx="12.86" ry="9"/><ellipse cx="100.68" cy="112.64" rx="12.86" ry="9"/><path class="cls-8" d="M164.8,86.91s-3.82,4.49-8,5.43"/><path class="cls-8" d="M166.79,89.92s-3.82,4.48-8,5.42"/><path d="M113.93,130.08s3.26-6,6.74-7.81c0,0,3.49,2.66,4.92,5.56.35.7.7,1.4,1.11,2,.76,1.21,1.8,3.4,1.18,5.55,0,0-.46,5.36-7.21,0,0,0-7.67,3.29-7.67-1.07C113,134.36,113,131.15,113.93,130.08Z"/><path class="cls-8" d="M95.37,143.77s32.21,21.19,58.06-6"/><path class="cls-8" d="M105.64,144.73s3.3,7,3.3,11"/><path class="cls-8" d="M117.58,145.69A28.69,28.69,0,0,1,122.52,157"/><path class="cls-8" d="M132,144.73s6.55,4.34,6.55,8.31"/><path class="cls-8" d="M144.73,135.68a41.12,41.12,0,0,1,8.7,10"/><ellipse class="cls-9" cx="73.78" cy="128.54" rx="6.17" ry="6.62"/><ellipse class="cls-9" cx="165.09" cy="131.19" rx="6.17" ry="6.62"/><path class="cls-10" d="M84.64,156.93a.79.79,0,0,1-.46-1.32c1.41-1.73,4.13-5,4.9-5.2,1-.28,4.69,2.48,2.43,5.81a1,1,0,0,1-.63.41A21.24,21.24,0,0,1,84.64,156.93Z"/><ellipse class="cls-11" cx="78.09" cy="157.68" rx="3.94" ry="5.61" transform="translate(-97.66 166.15) rotate(-66.41)"/><path class="cls-10" d="M71.89,153.47a.76.76,0,0,1-.82,1.09c-2.11-.42-6.11-1.3-6.67-1.9-.74-.81-.38-5.6,3.44-5.2a1,1,0,0,1,.65.38A24.4,24.4,0,0,1,71.89,153.47Z"/><path class="cls-10" d="M76.63,152a.71.71,0,0,1-1.31,0c-1-2-2.87-5.94-2.78-6.78.13-1.13,3.84-3.81,5.93-.36a1.11,1.11,0,0,1,.13.78A25.52,25.52,0,0,1,76.63,152Z"/><path class="cls-10" d="M81.53,153.14a.75.75,0,0,1-1.06-.84c.3-2.28.94-6.61,1.48-7.23.72-.83,5.19-.66,5,3.46a1.06,1.06,0,0,1-.32.71A22.86,22.86,0,0,1,81.53,153.14Z"/><path class="cls-10" d="M83.86,162.3a.8.8,0,0,1,.36-1.35c2.09-.51,6.09-1.42,6.82-1.09,1,.42,2.42,5-1.24,6.23a1,1,0,0,1-.74-.08A22.67,22.67,0,0,1,83.86,162.3Z"/><path class="cls-10" d="M156.33,155.39a.71.71,0,0,1-1.28-.31c-.57-2.22-1.6-6.46-1.34-7.27.35-1.06,4.51-2.82,5.86,1a1.13,1.13,0,0,1,0,.79A24.94,24.94,0,0,1,156.33,155.39Z"/><ellipse class="cls-11" cx="153.3" cy="161.66" rx="5.71" ry="3.86" transform="translate(-68.81 144.23) rotate(-42.03)"/><path class="cls-10" d="M146.61,164.89a.8.8,0,0,1,.4,1.34c-1.5,1.66-4.38,4.76-5.16,4.92-1,.22-4.56-2.74-2.14-5.94a1,1,0,0,1,.66-.37A21.09,21.09,0,0,1,146.61,164.89Z"/><path class="cls-10" d="M148.05,159.82a.77.77,0,0,1-.73,1.16c-2.13-.21-6.19-.69-6.8-1.25-.8-.73-.85-5.53,3-5.5a.93.93,0,0,1,.68.32A24,24,0,0,1,148.05,159.82Z"/><path class="cls-10" d="M151.67,156.09a.72.72,0,0,1-1.23.48c-1.61-1.53-4.62-4.48-4.81-5.31-.25-1.1,2.35-5,5.44-2.56a1.09,1.09,0,0,1,.37.69A25.58,25.58,0,0,1,151.67,156.09Z"/><path class="cls-10" d="M160.08,159.05a.77.77,0,0,1-.86-1.07c.76-2.15,2.26-6.23,2.92-6.71.87-.64,5.2.58,4.16,4.55a1.09,1.09,0,0,1-.47.62A21.85,21.85,0,0,1,160.08,159.05Z"/><path class="cls-2" d="M117.1,43.59s-4.45,48.53-80.34,38.6l-13-12.58S125-43,206.43,69.61L194.78,75S149.93,94.39,117.1,43.59Z"/><rect class="cls-1" x="111.41" y="190.12" width="20.98" height="7.95" rx="2.72"/><rect class="cls-1" x="111.41" y="200.72" width="20.98" height="7.95" rx="2.72"/><rect class="cls-1" x="111.41" y="211.31" width="20.98" height="7.95" rx="2.72"/><path class="cls-1" d="M48.13,256.44s1,21.75,9.6,21.75,10.3-5.3,10.3-5.3-4.13-13.24-6-15.23S53.33,250.58,48.13,256.44Z"/><path class="cls-1" d="M61.44,291.44s3.94,12.28,8.14,17.39,15.3-13.42,15.3-13.42S78.43,281.48,75,283.49C75,283.49,68.84,284.81,61.44,291.44Z"/><path class="cls-1" d="M71,283.29l-8.68,5.38a3.58,3.58,0,0,1-5.06-1.45h0a4.14,4.14,0,0,1,1.36-5.43l8.68-5.38a3.57,3.57,0,0,1,5.06,1.45h0A4.14,4.14,0,0,1,71,283.29Z"/><path class="cls-1" d="M108.94,198.07s-19.74,5.3-29.61,14.57l12,2.65s9-7.95,17.58-6.63C108.94,208.66,112.65,200.72,108.94,198.07Z"/><path class="cls-12" d="M76.29,211.31s41.29,15.89,89.42,5.3c0,0,27.14,13.24,29.61,38.41,0,0-3.7,7.94-19.74,2.64,0,0-6.17,5.3-13.58-1.32,0,0-2.39,8-14.77,3.33,0,0-5,4.62-13.61.64,0,0-3.74-.74-5.57,1.62,0,0-5.94,4.49-17.46-3.86,0,0-1.65-4.38-9-.41,0,0-9.87,5.3-18.51-1.32,0,0-6.17,0-9.87-4,0,0-6.17,4-11.11,5.29A7.4,7.4,0,0,1,57.12,255s-13.58,4-12.34-1.33S59.67,224.56,76.29,211.31Z"/><path class="cls-1" d="M133.4,198.07s33.54,14.57,32.31,18.54l-7.52,1.66s-8.26-8-23.2-10.1C135,208.17,132,202,133.4,198.07Z"/><path class="cls-13" d="M80.56,231.18s-7.4,9.27-6.17,13.24c0,0,6.17-7.94,6.17-13.24"/><path class="cls-13" d="M95.52,244.42c1.08,2.65,6-5.3,4.79-6.62C100.31,237.8,94.44,241.77,95.52,244.42Z"/><path class="cls-13" d="M117.58,235.15s-1.23,15.7,4.32,18.45C121.9,253.6,118.81,235.15,117.58,235.15Z"/><path class="cls-13" d="M141,228.53s-2.47,18.54,6.17,23.84C147.2,252.37,144.73,229.85,141,228.53Z"/><path class="cls-13" d="M171.18,240.45s.7,6.62,4.4,6.62S171.18,240.45,171.18,240.45Z"/><path class="cls-4" d="M26.73,519.71s21.75-55.45,18.05-59.42c0,0,9.87-4.66-11.73,59.91Z"/><path class="cls-4" d="M62.06,510.82s11.1-41.26,13.57-43.91-7.34,42.42-7.34,42.42Z"/><path class="cls-4" d="M116.35,440.43s0,13.24,3.7,18.54,2.47,13.24,2.47,13.24-1.24,9.27,3.7,14.57S130,503.86,130,503.86l6.51-1.13s-2.86-16-5.33-19.93c0,0-1.23-2.64,0-4,0,0,1.24-11.92-1.23-15.89S115.11,441.75,116.35,440.43Z"/><path class="cls-4" d="M189.53,499.86s-11.48-31.62-10.25-36.92,17.28,35.76,17.28,35.76Z"/><path class="cls-4" d="M221.23,447.05s20.58,48.95,17.08,52.28,3.5-3.33,3.5-3.33S232.34,448.37,221.23,447.05Z"/><path class="cls-14" d="M51.56,74.24S82.41,46.43,99.69,46.43C99.69,46.43,61.44,74.24,51.56,74.24Z"/><path class="cls-14" d="M130.85,45.82s38.33,13.31,47.5,29C178.35,74.85,136.09,54.8,130.85,45.82Z"/><path class="cls-14" d="M34.9,76.23S61.8,37.07,92.16,32.81C92.16,32.81,54.65,31.2,34.9,76.23Z"/><path class="cls-14" d="M131.34,36.87s45.15,4.36,64.29,30C195.63,66.87,177.45,31.62,131.34,36.87Z"/><path class="cls-14" d="M28.16,96.84S24.82,157.6,70.37,199C70.37,199,31.67,135.42,28.16,96.84Z"/><path class="cls-14" d="M153.8,199s48.16-32.14,53.39-96C207.19,103,181.13,173.68,153.8,199Z"/><path class="cls-14" d="M64.51,159.86s10.12,28.23,25.32,41.32C89.83,201.18,71.79,163.67,64.51,159.86Z"/><path class="cls-14" d="M138.81,194.16s24.66-14.62,34.67-32.57C173.48,161.59,141.33,185.89,138.81,194.16Z"/><path class="cls-15" d="M80.35,15.09h0c1-2,4.38-1.37,4.36.82h0c0,1.76,2.35,2.69,3.81,1.5h0c1.83-1.48,4.63.33,3.61,2.32h0c-.83,1.6.9,3.31,2.78,2.75h0c2.35-.7,4.09,2,2.23,3.41h0c-1.49,1.17-.69,3.35,1.29,3.52h0a2,2,0,0,1,.47,3.92h0A1.93,1.93,0,0,0,98.46,37h0c2.16,1.08,1.08,4-1.38,3.76h0c-2-.2-3.26,1.78-2.08,3.19h0c1.47,1.77-.85,4-3,2.94h0c-1.71-.9-3.8.45-3.37,2.17h0c.53,2.14-2.64,3.39-4.07,1.6h0a2.38,2.38,0,0,0-4.08.77h0c-.5,2.15-4,2.15-4.46,0h0A2.38,2.38,0,0,0,72,50.66h0c-1.43,1.79-4.6.54-4.07-1.6h0c.44-1.72-1.66-3.07-3.37-2.17h0c-2.13,1.11-4.45-1.17-3-2.94h0c1.18-1.41-.11-3.39-2.08-3.19h0C57,41,55.92,38.08,58.08,37h0a1.93,1.93,0,0,0-.44-3.67h0a2,2,0,0,1,.47-3.92h0c2-.17,2.78-2.35,1.29-3.52h0c-1.86-1.45-.12-4.11,2.23-3.41h0c1.88.56,3.61-1.15,2.79-2.75h0c-1-2,1.77-3.8,3.6-2.32h0c1.46,1.19,3.83.26,3.81-1.5h0c0-2.19,3.37-2.83,4.36-.82h0A2.39,2.39,0,0,0,80.35,15.09Z"/><path class="cls-16" d="M80,18.39h0c.8-1.58,3.56-1.08,3.54.65h0c0,1.38,1.9,2.11,3.09,1.18h0c1.48-1.17,3.76.25,2.93,1.82h0c-.67,1.26.73,2.59,2.26,2.15h0c1.91-.54,3.32,1.55,1.81,2.69h0c-1.21.92-.56,2.63,1,2.76h0c2,.16,2.3,2.56.38,3.08h0a1.51,1.51,0,0,0-.36,2.89h0c1.75.84.88,3.14-1.11,2.94h0C92,38.4,90.92,40,91.88,41.07h0c1.2,1.38-.68,3.17-2.42,2.3h0c-1.39-.7-3.09.36-2.74,1.71h0c.44,1.68-2.13,2.66-3.3,1.26h0a2,2,0,0,0-3.31.6h0a1.93,1.93,0,0,1-3.62,0h0a2,2,0,0,0-3.31-.6h0c-1.17,1.4-3.74.42-3.31-1.26h0c.35-1.35-1.35-2.41-2.74-1.71h0c-1.73.87-3.61-.92-2.42-2.3h0c1-1.11-.09-2.67-1.69-2.52h0c-2,.2-2.87-2.1-1.12-2.94h0a1.51,1.51,0,0,0-.35-2.89h0a1.55,1.55,0,0,1,.37-3.08h0c1.61-.13,2.26-1.84,1-2.76h0c-1.5-1.14-.1-3.23,1.81-2.69h0c1.53.44,2.93-.89,2.27-2.15h0c-.84-1.57,1.44-3,2.92-1.82h0c1.19.93,3.11.2,3.1-1.18h0c0-1.73,2.73-2.23,3.53-.65h0A2,2,0,0,0,80,18.39Z"/><path class="cls-15" d="M80,22.8h0c1.3-1.48,4.28-.72,4.22,1.06h0c0,1.26,1.56,2.16,3.09,1.74h0c2.17-.6,4,1.37,2.61,2.78h0c-1,1-.38,2.46,1.18,2.82h0c2.21.5,2.21,2.93,0,3.44h0C89.57,35,89,36.45,90,37.45h0c1.4,1.42-.44,3.38-2.61,2.78h0c-1.53-.42-3.13.48-3.09,1.74h0c.06,1.79-2.92,2.54-4.22,1.07h0a2.73,2.73,0,0,0-3.82,0h0c-1.3,1.47-4.28.72-4.22-1.07h0c.05-1.26-1.55-2.16-3.08-1.74h0c-2.18.6-4-1.36-2.61-2.78h0c1-1,.38-2.46-1.18-2.81h0c-2.21-.51-2.21-2.94,0-3.44h0c1.56-.36,2.17-1.82,1.18-2.82h0C64.89,27,66.73,25,68.91,25.6h0C70.44,26,72,25.12,72,23.86h0c-.06-1.78,2.92-2.54,4.22-1.06h0A2.73,2.73,0,0,0,80,22.8Z"/><path class="cls-16" d="M79.52,25.15h0c.87-1.11,2.86-.55,2.82.8h0a1.52,1.52,0,0,0,2.06,1.32h0c1.46-.46,2.69,1,1.75,2.1h0a1.29,1.29,0,0,0,.79,2.12h0a1.32,1.32,0,0,1,0,2.6h0a1.29,1.29,0,0,0-.79,2.12h0c.94,1.07-.29,2.56-1.75,2.11h0a1.52,1.52,0,0,0-2.06,1.31h0c0,1.35-2,1.91-2.82.8h0a1.69,1.69,0,0,0-2.56,0h0c-.87,1.11-2.86.55-2.82-.8h0a1.52,1.52,0,0,0-2.06-1.31h0c-1.46.45-2.69-1-1.75-2.11h0a1.29,1.29,0,0,0-.79-2.12h0a1.32,1.32,0,0,1,0-2.6h0a1.29,1.29,0,0,0,.79-2.12h0c-.94-1.07.29-2.56,1.75-2.1h0A1.52,1.52,0,0,0,74.14,26h0c0-1.35,2-1.91,2.82-.8h0A1.68,1.68,0,0,0,79.52,25.15Z"/><path class="cls-15" d="M79.26,29.32h0c1.41-.6,3.06.36,2.79,1.63h0a1.38,1.38,0,0,0,.56,1.37h0c1.14.89.51,2.45-1.07,2.64h0a2,2,0,0,0-1.45.84h0a2.17,2.17,0,0,1-3.46,0h0A2,2,0,0,0,75.18,35h0c-1.58-.19-2.21-1.75-1.07-2.64h0A1.36,1.36,0,0,0,74.67,31h0c-.27-1.27,1.38-2.23,2.79-1.63h0A2.43,2.43,0,0,0,79.26,29.32Z"/><path class="cls-15" d="M44.57,25.69h0c1-2,4.38-1.38,4.36.82h0c0,1.76,2.34,2.69,3.81,1.5h0c1.82-1.48,4.63.32,3.6,2.32h0c-.82,1.6.91,3.3,2.79,2.74h0c2.35-.69,4.08,2,2.23,3.42h0c-1.49,1.17-.69,3.34,1.29,3.51h0a2,2,0,0,1,.46,3.93h0a1.93,1.93,0,0,0-.43,3.67h0c2.15,1.08,1.08,4-1.38,3.75h0c-2-.2-3.27,1.78-2.09,3.2h0c1.48,1.76-.84,4-3,2.93h0c-1.71-.89-3.8.45-3.37,2.17h0c.54,2.14-2.63,3.39-4.07,1.61h0a2.38,2.38,0,0,0-4.08.76h0c-.49,2.15-4,2.15-4.45,0h0a2.38,2.38,0,0,0-4.08-.76h0c-1.44,1.78-4.61.53-4.07-1.61h0c.43-1.72-1.66-3.06-3.37-2.17h0c-2.14,1.11-4.46-1.17-3-2.93h0c1.18-1.42-.11-3.4-2.09-3.2h0c-2.46.25-3.53-2.67-1.38-3.75h0a1.93,1.93,0,0,0-.43-3.67h0A2,2,0,0,1,22.32,40h0c2-.17,2.78-2.34,1.29-3.51h0c-1.85-1.45-.12-4.11,2.23-3.42h0c1.88.56,3.61-1.14,2.79-2.74h0c-1-2,1.78-3.8,3.6-2.32h0c1.47,1.19,3.83.26,3.81-1.5h0c0-2.2,3.37-2.83,4.36-.82h0A2.4,2.4,0,0,0,44.57,25.69Z"/><path class="cls-16" d="M44.21,29h0c.8-1.58,3.55-1.08,3.53.64h0c0,1.38,1.91,2.12,3.1,1.18h0c1.48-1.16,3.76.26,2.92,1.82h0c-.67,1.26.74,2.6,2.27,2.16h0c1.91-.55,3.31,1.54,1.81,2.68h0c-1.21.92-.56,2.63,1,2.76h0c2,.17,2.3,2.57.38,3.09h0a1.5,1.5,0,0,0-.35,2.88h0c1.75.85.88,3.14-1.12,2.95h0c-1.6-.16-2.65,1.4-1.69,2.51h0c1.19,1.39-.69,3.18-2.42,2.31h0c-1.39-.71-3.09.35-2.74,1.7h0c.43,1.68-2.14,2.66-3.31,1.26h0a2,2,0,0,0-3.31.6h0a1.93,1.93,0,0,1-3.62,0h0a2,2,0,0,0-3.31-.6h0c-1.17,1.4-3.74.42-3.3-1.26h0c.35-1.35-1.35-2.41-2.74-1.7h0c-1.74.87-3.62-.92-2.42-2.31h0c1-1.11-.09-2.67-1.7-2.51h0c-2,.19-2.86-2.1-1.11-2.95h0a1.5,1.5,0,0,0-.36-2.88h0c-1.92-.52-1.62-2.92.38-3.09h0c1.61-.13,2.25-1.84,1.05-2.76h0c-1.51-1.14-.1-3.23,1.8-2.68h0c1.54.44,2.94-.9,2.27-2.16h0c-.83-1.56,1.44-3,2.93-1.82h0c1.19.94,3.1.2,3.09-1.18h0c0-1.72,2.74-2.22,3.54-.64h0A2,2,0,0,0,44.21,29Z"/><path class="cls-15" d="M44.25,33.39h0c1.3-1.47,4.28-.72,4.22,1.07h0c0,1.26,1.55,2.16,3.08,1.74h0c2.18-.6,4,1.36,2.61,2.78h0c-1,1-.38,2.46,1.18,2.81h0c2.21.51,2.21,2.94,0,3.44h0c-1.56.36-2.17,1.82-1.18,2.82h0c1.41,1.41-.43,3.38-2.61,2.78h0c-1.53-.42-3.13.48-3.08,1.74h0c.06,1.79-2.92,2.54-4.22,1.06h0a2.73,2.73,0,0,0-3.82,0h0c-1.3,1.48-4.29.73-4.22-1.06h0c0-1.26-1.56-2.16-3.09-1.74h0c-2.17.6-4-1.37-2.61-2.78h0c1-1,.38-2.46-1.18-2.82h0c-2.21-.5-2.21-2.93,0-3.44h0C30.89,41.44,31.5,40,30.51,39h0c-1.4-1.42.44-3.38,2.61-2.78h0c1.53.42,3.13-.48,3.09-1.74h0c-.07-1.79,2.92-2.54,4.22-1.07h0A2.73,2.73,0,0,0,44.25,33.39Z"/><path class="cls-16" d="M43.73,35.75h0c.87-1.12,2.87-.55,2.82.8h0a1.52,1.52,0,0,0,2.07,1.31h0c1.45-.45,2.68,1,1.74,2.1h0a1.3,1.3,0,0,0,.79,2.13h0a1.31,1.31,0,0,1,0,2.59h0a1.3,1.3,0,0,0-.79,2.13h0c.94,1.07-.29,2.55-1.74,2.1h0a1.52,1.52,0,0,0-2.07,1.31h0c.05,1.35-1.95,1.92-2.82.81h0a1.67,1.67,0,0,0-2.55,0h0c-.87,1.11-2.87.54-2.82-.81h0a1.52,1.52,0,0,0-2.07-1.31h0c-1.45.45-2.68-1-1.74-2.1h0a1.3,1.3,0,0,0-.79-2.13h0a1.31,1.31,0,0,1,0-2.59h0A1.3,1.3,0,0,0,34.55,40h0c-.94-1.07.29-2.55,1.74-2.1h0a1.52,1.52,0,0,0,2.07-1.31h0c0-1.35,2-1.92,2.82-.8h0A1.68,1.68,0,0,0,43.73,35.75Z"/><path class="cls-15" d="M43.47,39.91h0c1.42-.59,3.07.37,2.8,1.63h0a1.36,1.36,0,0,0,.55,1.37h0c1.15.9.52,2.46-1.06,2.64h0a2,2,0,0,0-1.46.85h0a2.16,2.16,0,0,1-3.45,0h0a2,2,0,0,0-1.45-.85h0c-1.58-.18-2.21-1.74-1.07-2.64h0a1.36,1.36,0,0,0,.55-1.37h0c-.27-1.26,1.39-2.22,2.8-1.63h0A2.32,2.32,0,0,0,43.47,39.91Z"/><path class="cls-15" d="M118.61,11.12h0c1-2,4.38-1.37,4.36.82h0c0,1.76,2.34,2.69,3.8,1.5h0c1.83-1.48,4.64.32,3.61,2.32h0c-.83,1.6.9,3.3,2.79,2.74h0c2.35-.69,4.08,2,2.23,3.42h0c-1.49,1.17-.69,3.34,1.28,3.51h0a2,2,0,0,1,.47,3.93h0a1.93,1.93,0,0,0-.44,3.67h0c2.16,1.08,1.09,4-1.37,3.75h0c-2-.2-3.27,1.79-2.09,3.2h0c1.48,1.76-.84,4.05-3,2.93h0c-1.71-.89-3.8.45-3.37,2.17h0c.53,2.14-2.63,3.39-4.07,1.61h0a2.38,2.38,0,0,0-4.08.76h0c-.49,2.15-4,2.15-4.45,0h0a2.38,2.38,0,0,0-4.08-.76h0c-1.44,1.78-4.61.53-4.07-1.61h0c.43-1.72-1.66-3.06-3.37-2.17h0c-2.14,1.12-4.46-1.17-3-2.93h0c1.19-1.41-.11-3.4-2.08-3.2h0c-2.46.25-3.53-2.67-1.38-3.75h0a1.93,1.93,0,0,0-.43-3.67h0a2,2,0,0,1,.46-3.93h0c2-.17,2.78-2.34,1.29-3.51h0c-1.85-1.45-.12-4.11,2.23-3.42h0c1.88.56,3.61-1.14,2.79-2.74h0c-1-2,1.78-3.8,3.6-2.32h0c1.47,1.19,3.83.26,3.81-1.5h0c0-2.19,3.37-2.83,4.36-.82h0A2.4,2.4,0,0,0,118.61,11.12Z"/><path class="cls-16" d="M118.24,14.42h0c.81-1.58,3.56-1.08,3.54.64h0c0,1.39,1.91,2.12,3.1,1.18h0c1.48-1.16,3.76.26,2.92,1.83h0c-.67,1.25.74,2.59,2.27,2.15h0c1.9-.55,3.31,1.54,1.81,2.69h0c-1.21.91-.56,2.62,1,2.76h0c2,.16,2.3,2.56.38,3.08h0a1.5,1.5,0,0,0-.35,2.88h0c1.75.85.88,3.15-1.12,2.95h0c-1.6-.16-2.65,1.4-1.69,2.51h0c1.19,1.39-.69,3.18-2.42,2.31h0c-1.39-.7-3.09.35-2.74,1.7h0c.43,1.68-2.14,2.67-3.31,1.26h0a2,2,0,0,0-3.31.61h0a1.93,1.93,0,0,1-3.62,0h0a2,2,0,0,0-3.31-.61h0c-1.17,1.41-3.74.42-3.31-1.26h0c.35-1.35-1.34-2.4-2.73-1.7h0c-1.74.87-3.62-.92-2.43-2.31h0c1-1.11-.08-2.67-1.69-2.51h0c-2,.2-2.87-2.1-1.12-2.95h0a1.5,1.5,0,0,0-.35-2.88h0c-1.92-.52-1.62-2.92.38-3.08h0c1.6-.14,2.25-1.85,1-2.76h0c-1.5-1.15-.09-3.24,1.81-2.69h0c1.53.44,2.94-.9,2.27-2.15h0c-.84-1.57,1.44-3,2.93-1.83h0c1.19.94,3.1.21,3.09-1.18h0c0-1.72,2.74-2.22,3.54-.64h0A2,2,0,0,0,118.24,14.42Z"/><path class="cls-15" d="M118.28,18.83h0c1.31-1.48,4.29-.73,4.22,1.06h0c0,1.26,1.56,2.16,3.09,1.74h0c2.17-.6,4,1.36,2.61,2.78h0c-1,1-.38,2.46,1.18,2.82h0c2.21.5,2.21,2.93,0,3.43h0c-1.56.36-2.17,1.82-1.18,2.82h0c1.41,1.42-.44,3.38-2.61,2.78h0c-1.53-.42-3.13.48-3.09,1.74h0c.07,1.79-2.91,2.54-4.22,1.06h0a2.72,2.72,0,0,0-3.81,0h0c-1.31,1.48-4.29.73-4.22-1.06h0c0-1.26-1.56-2.16-3.09-1.74h0c-2.17.6-4-1.36-2.61-2.78h0c1-1,.38-2.46-1.18-2.82h0c-2.21-.5-2.21-2.93,0-3.43h0c1.56-.36,2.17-1.82,1.18-2.82h0c-1.41-1.42.44-3.38,2.61-2.78h0c1.53.42,3.13-.48,3.09-1.74h0c-.07-1.79,2.91-2.54,4.22-1.06h0A2.72,2.72,0,0,0,118.28,18.83Z"/><path class="cls-16" d="M117.77,21.18h0c.87-1.12,2.86-.55,2.82.8h0a1.52,1.52,0,0,0,2.07,1.31h0c1.45-.45,2.68,1,1.74,2.1h0a1.3,1.3,0,0,0,.79,2.13h0a1.32,1.32,0,0,1,0,2.6h0a1.3,1.3,0,0,0-.79,2.12h0c.94,1.07-.29,2.55-1.74,2.1h0a1.52,1.52,0,0,0-2.07,1.32h0c0,1.34-2,1.91-2.82.8h0a1.67,1.67,0,0,0-2.55,0h0c-.87,1.11-2.87.54-2.82-.8h0a1.53,1.53,0,0,0-2.07-1.32h0c-1.45.45-2.68-1-1.74-2.1h0a1.3,1.3,0,0,0-.79-2.12h0a1.32,1.32,0,0,1,0-2.6h0a1.3,1.3,0,0,0,.79-2.13h0c-.94-1.07.29-2.55,1.74-2.1h0A1.53,1.53,0,0,0,112.4,22h0c-.05-1.35,1.95-1.92,2.82-.8h0A1.68,1.68,0,0,0,117.77,21.18Z"/><path class="cls-15" d="M117.51,25.34h0c1.42-.59,3.07.37,2.8,1.64h0a1.38,1.38,0,0,0,.55,1.37h0c1.15.89.51,2.45-1.07,2.63h0a2,2,0,0,0-1.45.85h0a2.16,2.16,0,0,1-3.45,0h0a2,2,0,0,0-1.45-.85h0c-1.58-.18-2.22-1.74-1.07-2.63h0a1.38,1.38,0,0,0,.55-1.37h0c-.27-1.27,1.38-2.23,2.8-1.64h0A2.32,2.32,0,0,0,117.51,25.34Z"/><path class="cls-15" d="M155.63,17.74h0c1-2,4.38-1.37,4.35.82h0c0,1.76,2.35,2.69,3.81,1.5h0c1.83-1.48,4.63.33,3.61,2.32h0c-.83,1.6.9,3.3,2.79,2.75h0c2.35-.7,4.08,2,2.22,3.41h0c-1.48,1.17-.69,3.35,1.29,3.52h0a2,2,0,0,1,.47,3.92h0a1.93,1.93,0,0,0-.44,3.67h0c2.16,1.08,1.09,4-1.37,3.75h0c-2-.2-3.27,1.79-2.09,3.2h0c1.47,1.76-.85,4-3,2.93h0c-1.71-.89-3.8.46-3.37,2.17h0c.53,2.15-2.63,3.39-4.07,1.61h0a2.38,2.38,0,0,0-4.08.77h0c-.49,2.15-4,2.15-4.45,0h0a2.38,2.38,0,0,0-4.08-.77h0c-1.44,1.78-4.61.54-4.07-1.61h0c.43-1.71-1.66-3.06-3.38-2.17h0c-2.13,1.12-4.45-1.17-3-2.93h0c1.19-1.41-.11-3.4-2.08-3.2h0c-2.46.25-3.53-2.67-1.38-3.75h0a1.93,1.93,0,0,0-.43-3.67h0a2,2,0,0,1,.46-3.92h0c2-.17,2.78-2.35,1.29-3.52h0c-1.85-1.45-.12-4.11,2.23-3.41h0c1.88.55,3.61-1.15,2.79-2.75h0c-1-2,1.78-3.8,3.6-2.32h0c1.47,1.19,3.83.26,3.81-1.5h0c0-2.19,3.37-2.83,4.36-.82h0A2.4,2.4,0,0,0,155.63,17.74Z"/><path class="cls-16" d="M155.26,21h0c.8-1.58,3.56-1.08,3.54.65h0c0,1.38,1.9,2.11,3.09,1.18h0c1.49-1.17,3.77.25,2.93,1.82h0c-.67,1.26.74,2.59,2.27,2.15h0c1.9-.54,3.31,1.55,1.81,2.69h0c-1.21.91-.56,2.62,1,2.76h0c2,.16,2.3,2.56.38,3.08h0a1.5,1.5,0,0,0-.35,2.88h0c1.75.85.88,3.15-1.12,3h0c-1.6-.15-2.65,1.4-1.69,2.52h0c1.19,1.38-.69,3.17-2.43,2.3h0c-1.39-.7-3.08.35-2.73,1.7h0c.43,1.69-2.14,2.67-3.31,1.26h0a2,2,0,0,0-3.31.61h0a1.93,1.93,0,0,1-3.62,0h0a2,2,0,0,0-3.31-.61h0c-1.17,1.41-3.74.43-3.31-1.26h0c.35-1.35-1.34-2.4-2.74-1.7h0c-1.73.87-3.61-.92-2.42-2.3h0c1-1.12-.09-2.67-1.69-2.52h0c-2,.2-2.87-2.1-1.12-3h0a1.5,1.5,0,0,0-.35-2.88h0c-1.92-.52-1.62-2.92.38-3.08h0c1.6-.14,2.25-1.85,1-2.76h0c-1.5-1.14-.09-3.23,1.81-2.69h0c1.53.44,2.94-.89,2.27-2.15h0c-.84-1.57,1.44-3,2.92-1.82h0c1.19.93,3.11.2,3.1-1.18h0c0-1.73,2.73-2.23,3.54-.65h0A2,2,0,0,0,155.26,21Z"/><path class="cls-15" d="M155.3,25.45h0c1.31-1.48,4.29-.73,4.22,1.06h0c0,1.26,1.56,2.16,3.09,1.74h0c2.17-.6,4,1.37,2.61,2.78h0c-1,1-.38,2.46,1.18,2.82h0c2.21.5,2.21,2.93,0,3.44h0c-1.56.35-2.17,1.81-1.18,2.81h0c1.41,1.42-.44,3.38-2.61,2.78h0c-1.53-.42-3.13.48-3.09,1.74h0c.07,1.79-2.91,2.54-4.22,1.07h0a2.72,2.72,0,0,0-3.81,0h0c-1.31,1.47-4.29.72-4.22-1.07h0c0-1.26-1.56-2.16-3.09-1.74h0c-2.17.6-4-1.36-2.61-2.78h0c1-1,.38-2.46-1.18-2.81h0c-2.21-.51-2.21-2.94,0-3.44h0c1.56-.36,2.17-1.82,1.18-2.82h0c-1.41-1.41.44-3.38,2.61-2.78h0c1.53.42,3.13-.48,3.09-1.74h0c-.07-1.79,2.91-2.54,4.22-1.06h0A2.72,2.72,0,0,0,155.3,25.45Z"/><path class="cls-16" d="M154.79,27.8h0c.87-1.11,2.86-.55,2.82.8h0a1.53,1.53,0,0,0,2.07,1.32h0c1.45-.46,2.68,1,1.74,2.1h0a1.3,1.3,0,0,0,.79,2.12h0a1.32,1.32,0,0,1,0,2.6h0a1.3,1.3,0,0,0-.79,2.12h0c.94,1.07-.29,2.56-1.74,2.1h0a1.53,1.53,0,0,0-2.07,1.32h0c0,1.35-2,1.91-2.82.8h0a1.67,1.67,0,0,0-2.55,0h0c-.88,1.11-2.87.55-2.83-.8h0A1.53,1.53,0,0,0,147.35,41h0c-1.45.46-2.69-1-1.74-2.1h0a1.3,1.3,0,0,0-.79-2.12h0a1.32,1.32,0,0,1,0-2.6h0a1.3,1.3,0,0,0,.79-2.12h0c-1-1.07.29-2.56,1.74-2.1h0a1.53,1.53,0,0,0,2.06-1.32h0c0-1.35,2-1.91,2.83-.8h0A1.68,1.68,0,0,0,154.79,27.8Z"/><path class="cls-15" d="M154.53,32h0c1.41-.6,3.07.36,2.8,1.63h0a1.38,1.38,0,0,0,.55,1.37h0c1.14.89.51,2.45-1.07,2.64h0a2,2,0,0,0-1.45.84h0a2.16,2.16,0,0,1-3.45,0h0a2,2,0,0,0-1.45-.84h0c-1.59-.19-2.22-1.75-1.07-2.64h0a1.38,1.38,0,0,0,.55-1.37h0c-.27-1.27,1.38-2.23,2.8-1.63h0A2.41,2.41,0,0,0,154.53,32Z"/><path class="cls-15" d="M192.65,28.34h0c1-2,4.38-1.38,4.35.82h0c0,1.76,2.35,2.69,3.81,1.5h0c1.83-1.48,4.63.32,3.61,2.32h0c-.83,1.6.9,3.3,2.79,2.74h0c2.34-.69,4.08,2,2.22,3.42h0c-1.48,1.16-.69,3.34,1.29,3.51h0a2,2,0,0,1,.47,3.92h0a1.94,1.94,0,0,0-.44,3.68h0c2.16,1.08,1.09,4-1.37,3.75h0c-2-.2-3.27,1.78-2.09,3.2h0c1.47,1.76-.85,4-3,2.93h0c-1.71-.89-3.8.45-3.37,2.17h0c.53,2.14-2.63,3.39-4.07,1.6h0a2.38,2.38,0,0,0-4.08.77h0c-.49,2.15-4,2.15-4.46,0h0a2.37,2.37,0,0,0-4.07-.77h0c-1.44,1.79-4.61.54-4.07-1.6h0c.43-1.72-1.66-3.06-3.38-2.17h0c-2.13,1.11-4.45-1.17-3-2.93h0c1.18-1.42-.11-3.4-2.08-3.2h0c-2.46.25-3.53-2.67-1.38-3.75h0a1.94,1.94,0,0,0-.43-3.68h0a2,2,0,0,1,.46-3.92h0c2-.17,2.78-2.35,1.29-3.51h0c-1.85-1.46-.12-4.11,2.23-3.42h0c1.88.56,3.61-1.14,2.79-2.74h0c-1-2,1.78-3.8,3.6-2.32h0c1.47,1.19,3.83.26,3.81-1.5h0c0-2.2,3.37-2.84,4.36-.82h0A2.4,2.4,0,0,0,192.65,28.34Z"/><path class="cls-16" d="M192.28,31.64h0c.8-1.58,3.56-1.08,3.54.64h0c0,1.38,1.9,2.11,3.09,1.18h0c1.49-1.16,3.76.25,2.93,1.82h0c-.67,1.26.74,2.6,2.27,2.16h0c1.9-.55,3.31,1.54,1.8,2.68h0c-1.2.92-.56,2.63,1.05,2.76h0c2,.17,2.3,2.57.38,3.08h0a1.51,1.51,0,0,0-.35,2.89h0c1.75.85.88,3.14-1.12,2.95h0c-1.61-.16-2.66,1.4-1.7,2.51h0c1.2,1.39-.68,3.18-2.42,2.3h0c-1.39-.7-3.08.36-2.74,1.71h0c.44,1.68-2.13,2.66-3.3,1.26h0a2,2,0,0,0-3.31.6h0a1.93,1.93,0,0,1-3.62,0h0a2,2,0,0,0-3.31-.6h0c-1.17,1.4-3.74.42-3.31-1.26h0c.35-1.35-1.35-2.41-2.74-1.71h0c-1.73.88-3.61-.91-2.42-2.3h0c1-1.11-.09-2.67-1.69-2.51h0c-2,.19-2.87-2.1-1.12-2.95h0a1.51,1.51,0,0,0-.35-2.89h0c-1.92-.51-1.63-2.91.38-3.08h0c1.6-.13,2.25-1.84,1-2.76h0c-1.5-1.14-.1-3.23,1.81-2.68h0c1.53.44,2.94-.9,2.27-2.16h0c-.84-1.57,1.44-3,2.92-1.82h0c1.19.93,3.11.2,3.1-1.18h0c0-1.72,2.73-2.22,3.54-.64h0A2,2,0,0,0,192.28,31.64Z"/><path class="cls-15" d="M192.32,36h0c1.31-1.47,4.29-.72,4.22,1.07h0c0,1.26,1.56,2.16,3.09,1.74h0c2.17-.6,4,1.36,2.61,2.78h0c-1,1-.38,2.46,1.18,2.81h0c2.21.51,2.21,2.94,0,3.44h0c-1.56.36-2.17,1.82-1.18,2.82h0c1.4,1.41-.44,3.38-2.61,2.78h0c-1.53-.42-3.13.48-3.09,1.74h0c.07,1.78-2.91,2.53-4.22,1.06h0a2.72,2.72,0,0,0-3.81,0h0c-1.31,1.47-4.29.72-4.22-1.06h0c0-1.26-1.56-2.16-3.09-1.74h0c-2.18.6-4-1.37-2.61-2.78h0c1-1,.38-2.46-1.18-2.82h0c-2.21-.5-2.21-2.93,0-3.44h0c1.56-.35,2.17-1.81,1.18-2.81h0c-1.41-1.42.43-3.38,2.61-2.78h0c1.53.42,3.13-.48,3.09-1.74h0c-.07-1.79,2.91-2.54,4.22-1.07h0A2.72,2.72,0,0,0,192.32,36Z"/><path class="cls-16" d="M191.81,38.39h0c.87-1.11,2.86-.54,2.82.81h0a1.52,1.52,0,0,0,2.06,1.31h0c1.46-.45,2.69,1,1.75,2.1h0a1.3,1.3,0,0,0,.79,2.13h0a1.31,1.31,0,0,1,0,2.59h0a1.3,1.3,0,0,0-.79,2.13h0c.94,1.07-.29,2.55-1.75,2.1h0a1.52,1.52,0,0,0-2.06,1.31h0c0,1.35-1.95,1.92-2.82.8h0a1.68,1.68,0,0,0-2.55,0h0c-.88,1.12-2.87.55-2.83-.8h0a1.52,1.52,0,0,0-2.06-1.31h0c-1.45.45-2.69-1-1.75-2.1h0a1.3,1.3,0,0,0-.78-2.13h0a1.31,1.31,0,0,1,0-2.59h0a1.3,1.3,0,0,0,.78-2.13h0c-.94-1.07.3-2.55,1.75-2.1h0a1.52,1.52,0,0,0,2.06-1.31h0c0-1.35,1.95-1.92,2.83-.81h0A1.67,1.67,0,0,0,191.81,38.39Z"/><path class="cls-15" d="M191.55,42.56h0c1.41-.6,3.07.37,2.8,1.63h0a1.37,1.37,0,0,0,.55,1.37h0c1.14.9.51,2.46-1.07,2.64h0a1.93,1.93,0,0,0-1.45.85h0a2.16,2.16,0,0,1-3.45,0h0a2,2,0,0,0-1.46-.85h0c-1.58-.18-2.21-1.74-1.06-2.64h0a1.37,1.37,0,0,0,.55-1.37h0c-.27-1.26,1.38-2.23,2.8-1.63h0A2.32,2.32,0,0,0,191.55,42.56Z"/><path class="cls-8" d="M87.89,91.75s-5.35-2.44-7.43-6.25"/><path class="cls-8" d="M85.9,95.75s-5.35-2.43-7.43-6.25"/></g></g></svg>