<svg xmlns="http://www.w3.org/2000/svg" width="240" height="570" viewBox="0 0 240 570"><defs><style>.cls-1{fill:#fff;}.cls-2{fill:#e0d982;}.cls-3{fill:#f3983e;}.cls-4{fill:#dd2458;}.cls-5{fill:#d6ba1a;}.cls-6{fill:#e3933a;}.cls-7{fill:#dbdad9;}.cls-8{fill:#f9c847;}.cls-9{fill:#c14a29;}.cls-10{fill:none;stroke:#000;stroke-miterlimit:10;}.cls-11{fill:#25bf25;}.cls-12{fill:#2692db;}.cls-13{fill:#a84726;}.cls-14{fill:#2a6d21;}.cls-15{fill:#c1b867;}</style></defs><g id="Animated_items" data-name="Animated items"><g id="happy_down-2" data-name="happy down"><path class="cls-1" d="M17.67,373l16.47-2.12,3.21,11.84a20.45,20.45,0,0,1-18.08,0Z"/><path class="cls-1" d="M19.27,382.7S8.45,385.07,8.45,394.54c0,0,0,8.29,2.14,11.84,0,0,3.21,4.74,7.5,1.18a7.09,7.09,0,0,1,7.49,0s2.6,1.92,7,.58a4.84,4.84,0,0,1,2.64-.08c1.13.28,2.9.12,4.25-2.86,0,0,3.22-8.29,1.07-13h0s-1.07-8.28-3.21-9.47S19.27,382.7,19.27,382.7Z"/><path class="cls-1" d="M8.19,407.35s-8.82-.32-5.88,5.54C2.31,412.89,5.84,416.46,8.19,407.35Z"/><path class="cls-1" d="M14,411.58S2.82,417.1,9.73,421.81C9.73,421.81,16.1,423.53,14,411.58Z"/><path class="cls-1" d="M23.59,411.94s-8.31,9.9-.3,11.25C23.29,423.19,29.77,422,23.59,411.94Z"/><path class="cls-1" d="M33.87,411.93s-5.72,11.95,2.34,11C36.21,422.89,42.19,419.91,33.87,411.93Z"/><path class="cls-1" d="M42.37,404.21s1.79,15.33,8.82,8.56C51.19,412.77,55.05,405.63,42.37,404.21Z"/><path class="cls-1" d="M214.46,351.42l-16.53,1.28L196.75,365a20.49,20.49,0,0,0,17.75-3.69Z"/><path class="cls-1" d="M214.5,361.3s11,.13,12.6,9.43c0,0,1.39,8.15-.12,12.08,0,0-2.37,5.3-7.16,2.69,0,0-3.55-1.68-7.36,1.52a8.29,8.29,0,0,1-6.45,2,6.4,6.4,0,0,0-3.06.47c-1.07.48-2.78.59-4.55-2,0,0-4.54-7.49-3.23-12.58h0s-.33-8.36,1.58-10S214.5,361.3,214.5,361.3Z"/><path class="cls-1" d="M229.5,383.27s8.61-2.11,6.69,4.24C236.19,387.51,233.32,391.74,229.5,383.27Z"/><path class="cls-1" d="M224.52,388.6s11.87,3.16,5.88,9.19C230.4,397.79,224.43,400.78,224.52,388.6Z"/><path class="cls-1" d="M215.14,390.92s9.82,8,2.17,11C217.31,401.92,210.76,402.08,215.14,390.92Z"/><path class="cls-1" d="M205,393s7.61,10.58-.47,11.25C204.57,404.26,198.2,402.54,205,393Z"/><path class="cls-1" d="M195.41,387.15s.8,15.43-7.24,10.21C188.17,397.36,183.19,391.13,195.41,387.15Z"/><path class="cls-2" d="M59.83,349.56S45.8,463,51.74,481.43c0,0,41.81,6.05,56.79,1.31,0,0,12.77-74.05,14.42-137.06l6.53,12.85s2.45,120.73,4.13,126c0,0,41.72,4.28,68.26-3.5,0,0-25.9-143.93-28-145.11S59.83,349.56,59.83,349.56Z"/><path class="cls-3" d="M61.24,195.06s-34.18-.25-42.95,65.28c0,0-8.77,43-14.12,78.56,0,0-14.65,43.38,28.53,32.94,0,0,99.87-3.11,165.55-18.19a58.83,58.83,0,0,1,12.17-1.52c10.47-.19,32.42-4.25,16.46-37.14A50.5,50.5,0,0,1,222,296c-1.31-21.84-5-69.71-12.8-80.94,0,0-12.31-25.33-35.32-25.92S61.24,195.06,61.24,195.06Z"/><path class="cls-4" d="M31.48,143.32s-2.56,9.82,3.4,15.44S34.68,144.07,31.48,143.32Z"/><path class="cls-5" d="M41.74,169.61s-11.28-.29-5.12-9.87C36.62,159.74,47.47,161.54,41.74,169.61Z"/><path class="cls-4" d="M185.33,80.82s-2.47,9.06,3.28,14.26S188.42,81.51,185.33,80.82Z"/><path class="cls-5" d="M195.23,105.09s-10.88-.27-4.94-9.11C190.29,96,200.76,97.64,195.23,105.09Z"/><path class="cls-6" d="M37.17,116.74,7,137.39s-4.09,6.2,26,6.78L180.7,90.46s27.92-25,28.45-33.91C209.15,56.55,203.27,9.79,37.17,116.74Z"/><path class="cls-1" d="M40.6,111.06c18.77-25.67,74.11-83.91,150.74-11.21a11.81,11.81,0,0,1,2.87,4.33c4.14,10.62,16.5,51.31-20.38,85,0,0-15,10.66-19.27,21.31,0,0-4.28,15.39-19.27,13l-27.14.25a44.87,44.87,0,0,1-13.56-5.11,20.29,20.29,0,0,1-7-6.69c-2.26-3.44-7.28-8.66-17.6-10.94,0,0-35.51-17.67-37-64.65A40.7,40.7,0,0,1,40.6,111.06Z"/><ellipse class="cls-7" cx="97.83" cy="127.58" rx="19.27" ry="20.13"/><ellipse cx="97.97" cy="137.1" rx="13.65" ry="10.02"/><ellipse class="cls-7" cx="144.93" cy="126.4" rx="19.27" ry="20.13"/><path class="cls-8" d="M9.62,105.27c-1.66.83-7.49,4.89-7.78,21.13,0,0-3.56,18.94,11.43,7.1,0,0,66.36-54.46,176.62-80.5,0,0,21.4-2.37,19.26,3.55a23,23,0,0,0-4.28-17.76s0-4.74-18.2-3.55c0,0-86.13,4.7-175.73,69.21A10,10,0,0,1,9.62,105.27Z"/><path class="cls-8" d="M55.55,20.44S83.38,5.05,103.72,2.68c0,0,7.49-3.55,18.19,7.11L152,40.71,47.89,80.87s-3-30.83-3-33.2S38.42,26.36,55.55,20.44Z"/><path class="cls-9" d="M89.8,42.93,45.74,58.44l2.15,22.43,24.7-12.76S122.91,46,128.3,46.84c0,0,22.78-6,23.72-6.13L136.26,24.52Z"/><path class="cls-4" d="M42,113.72S39.14,126,45.74,133,45.51,114.66,42,113.72Z"/><path class="cls-5" d="M53.33,146.52s-12.48-.35-5.67-12.31C47.66,134.21,59.68,136.46,53.33,146.52Z"/><path class="cls-4" d="M207.88,54.53s-2.83,12.25,3.77,19.27S211.43,55.47,207.88,54.53Z"/><path class="cls-5" d="M219.25,87.33S206.76,87,213.58,75C213.58,75,225.59,77.27,219.25,87.33Z"/><path class="cls-4" d="M3,136.37s5.45,16.66,10.8,19S9.32,145.76,3,136.37Z"/><path class="cls-5" d="M21.22,167.83s-12.49-.35-5.67-12.31C15.55,155.52,27.57,157.77,21.22,167.83Z"/><path class="cls-10" d="M86.06,183.22s24.62,20.13,63.15-2.37"/><path class="cls-10" d="M95.31,180.85a25.82,25.82,0,0,0-.69,11.84"/><path class="cls-10" d="M104.25,184.41a20.71,20.71,0,0,0,1.07,10.65"/><path class="cls-10" d="M118.54,185.62a36.83,36.83,0,0,1,1.94,10.59"/><path class="cls-10" d="M133.15,182a24.74,24.74,0,0,1,3,10.06"/><path d="M111.75,158.36s3.74-6.6,7.76-8.62c0,0,4,2.94,5.66,6.14.4.78.8,1.54,1.27,2.27.87,1.33,2.08,3.75,1.36,6.13,0,0-.53,5.92-8.29,0,0,0-8.83,3.64-8.83-1.18C110.68,163.1,110.68,159.54,111.75,158.36Z"/><ellipse class="cls-11" cx="73.75" cy="125.21" rx="3.21" ry="2.96"/><ellipse class="cls-11" cx="75.89" cy="115.74" rx="2.87" ry="3.32" transform="translate(-60.42 91.74) rotate(-46.76)"/><ellipse class="cls-11" cx="83.38" cy="107.45" rx="2.72" ry="3.49" transform="translate(-31.21 34.19) rotate(-19.6)"/><ellipse class="cls-11" cx="94.08" cy="102.72" rx="2.68" ry="3.55" transform="translate(-6.03 5.87) rotate(-3.46)"/><ellipse class="cls-11" cx="105.86" cy="103.9" rx="3.53" ry="2.69" transform="translate(-15.41 189.32) rotate(-79.62)"/><ellipse class="cls-11" cx="114.42" cy="108.64" rx="3.42" ry="2.78" transform="translate(-37.17 152.4) rotate(-59.62)"/><ellipse class="cls-11" cx="120.84" cy="119.29" rx="3.3" ry="2.88" transform="translate(-48.55 107.48) rotate(-40.64)"/><ellipse class="cls-11" cx="120.84" cy="132.32" rx="2.93" ry="3.24" transform="translate(-50.77 183.89) rotate(-64.32)"/><ellipse class="cls-11" cx="117.63" cy="141.79" rx="2.82" ry="3.37" transform="translate(-62.07 101.18) rotate(-37.58)"/><ellipse class="cls-11" cx="110.14" cy="148.89" rx="2.72" ry="3.49" transform="translate(-43.56 45.56) rotate(-19.6)"/><ellipse class="cls-11" cx="100.51" cy="153.63" rx="2.68" ry="3.55" transform="translate(-4.72 3.19) rotate(-1.78)"/><ellipse class="cls-11" cx="91.57" cy="151.72" rx="3.53" ry="2.69" transform="translate(-74.16 214.47) rotate(-79.62)"/><ellipse class="cls-11" cx="81.94" cy="146.99" rx="3.44" ry="2.76" transform="translate(-86.22 153.37) rotate(-63.04)"/><ellipse class="cls-11" cx="75.52" cy="138.7" rx="3.35" ry="2.83" transform="translate(-79.12 106.64) rotate(-49.72)"/><ellipse class="cls-11" cx="124.06" cy="111.01" rx="2.87" ry="3.32" transform="translate(-41.8 125.34) rotate(-46.76)"/><ellipse class="cls-11" cx="130.48" cy="106.27" rx="2.72" ry="3.49" transform="translate(-28.08 49.91) rotate(-19.6)"/><ellipse class="cls-11" cx="141.18" cy="101.54" rx="2.68" ry="3.55" transform="translate(-5.87 8.71) rotate(-3.46)"/><ellipse class="cls-11" cx="152.96" cy="102.72" rx="3.53" ry="2.69" transform="translate(24.37 234.67) rotate(-79.62)"/><ellipse class="cls-11" cx="161.52" cy="107.45" rx="3.42" ry="2.78" transform="translate(-12.87 192.44) rotate(-59.62)"/><ellipse class="cls-11" cx="167.94" cy="118.11" rx="3.3" ry="2.88" transform="translate(-36.42 137.87) rotate(-40.64)"/><ellipse class="cls-11" cx="167.94" cy="129.95" rx="2.93" ry="3.24" transform="translate(-21.95 224.99) rotate(-64.32)"/><ellipse class="cls-11" cx="164.73" cy="139.42" rx="2.82" ry="3.37" transform="translate(-50.85 129.41) rotate(-37.58)"/><ellipse class="cls-11" cx="157.24" cy="146.52" rx="2.72" ry="3.49" transform="translate(-40.03 61.22) rotate(-19.6)"/><ellipse class="cls-11" cx="147.6" cy="151.26" rx="2.68" ry="3.55" transform="translate(-4.62 4.65) rotate(-1.78)"/><ellipse class="cls-11" cx="138.67" cy="149.35" rx="3.53" ry="2.69" transform="translate(-33.22 258.86) rotate(-79.62)"/><ellipse class="cls-11" cx="131.18" cy="146.99" rx="3.44" ry="2.76" transform="translate(-59.31 197.25) rotate(-63.04)"/><ellipse class="cls-11" cx="124.76" cy="139.88" rx="3.35" ry="2.83" transform="translate(-62.62 144.62) rotate(-49.72)"/><path class="cls-12" d="M71.41,166.44s-3.61-6.76-7.34-6.37-4.53,3.62-4.84,6.24S69.49,171.4,71.41,166.44Z"/><path class="cls-12" d="M70.36,174.88s-6-4.14-9.17-1.88-2.5,5.53-1.68,8S70.74,180.25,70.36,174.88Z"/><path class="cls-12" d="M73.52,180.48s-7.07.77-8.32,4.67,1,6.07,3.07,7.49S76.77,184.5,73.52,180.48Z"/><path class="cls-12" d="M163.35,177.33s1.76,7.61,5.44,8.38,5.26-2.07,6.23-4.5S166.44,173.16,163.35,177.33Z"/><path class="cls-12" d="M166.49,169.56s4.75,5.83,8.33,4.63,3.79-4.54,3.63-7.18S167.48,164.28,166.49,169.56Z"/><path class="cls-12" d="M164.87,163.2s7,1.44,9.17-1.92.52-6.15-1.06-8.14S162.76,158.34,164.87,163.2Z"/><path class="cls-13" d="M22.69,238.6s79.06,39.78,190.83-12.24l4.66,26.78s-84.3,30.95-200.53,10.41Z"/><path class="cls-14" d="M11.66,291.55s130.37,9.5,208.62-18.34L222.51,301S145.89,330,7.06,320.84Z"/><path class="cls-13" d="M2,348.37a18.66,18.66,0,0,0,9.8-.13,14.61,14.61,0,0,1,3.9-.74c19-.64,155.2-5.78,196.56-23.68,0,0,15.72-5.51,14.59-7.64s19.68,32.12-12.67,36.89c0,0-133.85,20.3-179.47,20a13.26,13.26,0,0,0-3.75.52C24.12,375.56-1.34,381.44,2,348.37Z"/><ellipse cx="145.72" cy="137.1" rx="13.65" ry="10.02"/><path class="cls-1" d="M71,483.58l-2.07,25.21s-2.27,7.27,2.07,9.55l11.85,2.28s8.56,1.19,6.42-5.92l3-30.16"/><path class="cls-1" d="M55,539.57s-10.31,2.36-12.64,0c0,0-6.49-7.19,4.68-12.48h3.22s11-7.06,18.07-9.13l14.51,2.66s15,2.37,3.21,15.39c0,0-15.11,6.68-17.72,11.63C68.34,547.64,56.09,555,55,539.57Z"/><path class="cls-1" d="M59.58,553.53S51.76,560.1,54.77,567C54.77,567,62.24,569.09,59.58,553.53Z"/><path class="cls-1" d="M39.49,539.57s-6-3.5-8,4.63C31.47,544.2,33.38,553.55,39.49,539.57Z"/><path class="cls-1" d="M44.85,546.68s-6-3.51-8,4.62C36.82,551.3,38.73,560.65,44.85,546.68Z"/><path class="cls-1" d="M53.41,551.41s-6-3.51-8,4.63C45.38,556,47.29,565.38,53.41,551.41Z"/><path class="cls-1" d="M36.47,532.74s-6.14-2.87-8.79,1.52C27.68,534.26,29.11,539.9,36.47,532.74Z"/><path class="cls-1" d="M182.09,483.62l2.06,25.21s2.27,7.27-2.06,9.55l-11.81,2.29s-8.54,1.18-6.4-5.92l-3-30.17"/><path class="cls-1" d="M198,539.61s10.28,2.37,12.61,0c0,0,6.46-7.19-4.68-12.47h-3.21s-11-7.07-18-9.14l-14.47,2.67s-14.94,2.36-3.2,15.39c0,0,15.06,6.68,17.67,11.62C184.75,547.68,197,555,198,539.61Z"/><path class="cls-1" d="M191.17,552.84s8.75,5.9,7.16,12.9C198.33,565.74,191.54,568.29,191.17,552.84Z"/><path class="cls-1" d="M215.64,542s6-3.5,8,4.63C223.64,546.61,221.73,556,215.64,542Z"/><path class="cls-1" d="M208.17,546.72s6-3.51,8,4.63C216.17,551.35,214.26,560.69,208.17,546.72Z"/><path class="cls-1" d="M199.63,551.46s6-3.51,8,4.62C207.63,556.08,205.73,565.43,199.63,551.46Z"/><path class="cls-1" d="M216,534.61s6.38-2,8.55,2.67C224.51,537.28,222.49,542.69,216,534.61Z"/><path class="cls-15" d="M182.29,450.52s.29,6.83,2.64,9.45,1.78,6.76,1.78,6.76-.54,4.82,2.55,7.4,2.64,8.69,2.64,8.69l3.9-.78s-2.07-8.15-3.65-10.12c0,0-.8-1.33-.08-2.05,0,0,.48-6.19-1.1-8.16S181.58,451.24,182.29,450.52Z"/><path class="cls-15" d="M83.81,451.7s.29,6.83,2.64,9.45,1.78,6.76,1.78,6.76-.54,4.82,2.56,7.4,2.63,8.7,2.63,8.7l3.9-.79s-2.07-8.14-3.64-10.11c0,0-.81-1.33-.09-2.05,0,0,.48-6.19-1.09-8.17S83.1,452.42,83.81,451.7Z"/><path class="cls-15" d="M150.92,453s.29,6.83-1,9.64-.68,6.89-.68,6.89.69,4.75-1.12,7.59S147,486,147,486l-2.57-.45s.77-8.29,1.64-10.39c0,0,.43-1.39-.08-2.05,0,0-.75-6.13.13-8.23S151.43,453.69,150.92,453Z"/><path class="cls-15" d="M58.86,448.29s.29,6.84-1,9.65-.67,6.88-.67,6.88.68,4.76-1.13,7.59-1.09,8.89-1.09,8.89l-2.56-.45s.76-8.29,1.64-10.39c0,0,.42-1.39-.09-2,0,0-.74-6.12.13-8.22S59.37,449,58.86,448.29Z"/></g></g></svg>