<svg xmlns="http://www.w3.org/2000/svg" width="225" height="415" viewBox="0 0 225 415"><defs><style>.cls-1{fill:#fff;}.cls-2{fill:#e0d982;}.cls-3{fill:#f3983e;}.cls-4{fill:#dd2458;}.cls-5{fill:#d6ba1a;}.cls-6{fill:#e3933a;}.cls-7{fill:#dbdad9;}.cls-8{fill:#f9c847;}.cls-9{fill:#c14a29;}.cls-10{fill:none;stroke:#000;stroke-miterlimit:10;}.cls-11{fill:#25bf25;}.cls-12{fill:#2692db;}.cls-13{fill:#a84726;}.cls-14{fill:#2a6d21;}.cls-15{fill:#c1b867;}</style></defs><g id="Animated_items" data-name="Animated items"><g id="happy_down-2" data-name="happy down"><path class="cls-1" d="M36.06,270.17l13.33-1.49L52,277.06a18.66,18.66,0,0,1-14.62,0Z"/><path class="cls-1" d="M37.36,277.06s-8.74,1.67-8.74,8.38c0,0,0,5.87,1.73,8.38,0,0,2.59,3.35,6,.84a6.4,6.4,0,0,1,6.06,0,7.42,7.42,0,0,0,5.68.41,4.39,4.39,0,0,1,2.13-.06c.92.2,2.35.09,3.44-2,0,0,2.6-5.86.87-9.22h0s-.87-5.86-2.6-6.7S37.36,277.06,37.36,277.06Z"/><path class="cls-1" d="M28.4,294.51s-7.13-.23-4.75,3.92C23.65,298.43,26.5,301,28.4,294.51Z"/><path class="cls-1" d="M33.08,297.5s-9,3.91-3.44,7.24C29.64,304.74,34.8,306,33.08,297.5Z"/><path class="cls-1" d="M40.86,297.75s-6.73,7-.25,8C40.61,305.72,45.85,304.89,40.86,297.75Z"/><path class="cls-1" d="M49.17,297.75s-4.63,8.46,1.89,7.76C51.06,305.51,55.9,303.4,49.17,297.75Z"/><path class="cls-1" d="M56,292.28s1.45,10.86,7.13,6.06C63.17,298.34,66.29,293.29,56,292.28Z"/><path class="cls-1" d="M195.17,254.91l-13.36.91-1,8.7a18.61,18.61,0,0,0,14.36-2.61Z"/><path class="cls-1" d="M195.21,261.91s8.91.08,10.19,6.67c0,0,1.11,5.77-.11,8.55A4.28,4.28,0,0,1,199.5,279a6.35,6.35,0,0,0-5.94,1.08,7.26,7.26,0,0,1-5.22,1.43,5.77,5.77,0,0,0-2.47.34c-.86.33-2.25.41-3.68-1.41,0,0-3.67-5.31-2.61-8.91h0s-.27-5.92,1.27-7.05S195.21,261.91,195.21,261.91Z"/><path class="cls-1" d="M207.33,277.46s7-1.5,5.42,3C212.75,280.46,210.43,283.46,207.33,277.46Z"/><path class="cls-1" d="M203.31,281.24s9.6,2.23,4.75,6.5C208.06,287.74,203.24,289.86,203.31,281.24Z"/><path class="cls-1" d="M195.72,282.87s7.94,5.69,1.76,7.79C197.48,290.66,192.18,290.78,195.72,282.87Z"/><path class="cls-1" d="M187.56,284.35s6.15,7.49-.38,8C187.18,292.32,182,291.1,187.56,284.35Z"/><path class="cls-1" d="M179.77,280.2s.65,10.93-5.85,7.23C173.92,287.43,169.9,283,179.77,280.2Z"/><path class="cls-2" d="M70.16,253.59S58.81,333.87,63.62,347c0,0,33.8,4.28,45.91.93,0,0,10.33-52.43,11.66-97l5.28,9.11s2,85.47,3.34,89.21c0,0,33.73,3,55.19-2.48,0,0-20.94-101.89-22.68-102.73S70.16,253.59,70.16,253.59Z"/><path class="cls-3" d="M71.29,144.21S43.66,144,36.57,190.43c0,0-7.09,30.47-11.42,55.62,0,0-11.84,30.71,23.07,23.32,0,0,80.74-2.2,133.85-12.88a54.09,54.09,0,0,1,9.84-1.08c8.46-.13,26.21-3,13.3-26.29a32.41,32.41,0,0,1-4-13.45c-1.06-15.46-4-49.35-10.35-57.3,0,0-9.95-17.93-28.56-18.35S71.29,144.21,71.29,144.21Z"/><path class="cls-4" d="M47.23,107.58s-2.07,7,2.75,10.94S49.82,108.11,47.23,107.58Z"/><path class="cls-5" d="M55.53,126.19s-9.12-.2-4.14-7C51.39,119.21,60.16,120.48,55.53,126.19Z"/><path class="cls-4" d="M171.62,63.33s-2,6.42,2.65,10.1S174.12,63.82,171.62,63.33Z"/><path class="cls-5" d="M179.63,80.52s-8.8-.19-4-6.45C175.63,74.07,184.1,75.24,179.63,80.52Z"/><path class="cls-6" d="M51.83,88.76,27.44,103.39s-3.3,4.38,21,4.79l119.44-38s22.57-17.72,23-24C190.88,46.15,186.12,13.05,51.83,88.76Z"/><path class="cls-1" d="M54.61,84.75c15.18-18.18,59.92-59.41,121.87-7.94a8.41,8.41,0,0,1,2.33,3.06c3.34,7.52,13.34,36.33-16.49,60.15,0,0-12.11,7.55-15.57,15.09,0,0-3.46,10.89-15.58,9.22l-21.95.17a39.68,39.68,0,0,1-11-3.61,15.73,15.73,0,0,1-5.65-4.74c-1.83-2.43-5.89-6.13-14.23-7.75,0,0-28.71-12.51-29.92-45.76A26.37,26.37,0,0,1,54.61,84.75Z"/><ellipse class="cls-7" cx="100.88" cy="96.44" rx="15.58" ry="14.25"/><ellipse cx="100.99" cy="103.18" rx="11.04" ry="7.1"/><ellipse class="cls-7" cx="138.96" cy="95.6" rx="15.58" ry="14.25"/><path class="cls-8" d="M29.56,80.65c-1.34.58-6,3.46-6.29,14.95,0,0-2.88,13.41,9.24,5,0,0,53.66-38.55,142.8-57,0,0,17.3-1.68,15.57,2.51a14.63,14.63,0,0,0-3.46-12.57s0-3.35-14.71-2.51c0,0-69.64,3.33-142.08,49A8.55,8.55,0,0,1,29.56,80.65Z"/><path class="cls-8" d="M66.69,20.59S89.2,9.69,105.64,8c0,0,6.06-2.52,14.71,5l24.34,21.89L60.5,63.37S58,41.54,58,39.87,52.85,24.78,66.69,20.59Z"/><path class="cls-9" d="M94.39,36.51l-35.63,11L60.5,63.37l20-9s40.69-15.64,45-15c0,0,18.42-4.24,19.18-4.34L132,23.48Z"/><path class="cls-4" d="M55.71,86.63s-2.29,8.67,3,13.64S58.58,87.29,55.71,86.63Z"/><path class="cls-5" d="M64.9,109.85s-10.09-.25-4.58-8.72C60.32,101.13,70,102.73,64.9,109.85Z"/><path class="cls-4" d="M189.86,44.72s-2.3,8.68,3,13.64S192.72,45.39,189.86,44.72Z"/><path class="cls-5" d="M199,67.94s-10.09-.25-4.58-8.71C194.46,59.23,204.17,60.82,199,67.94Z"/><path class="cls-4" d="M24.21,102.67s4.41,11.79,8.73,13.47S29.32,109.31,24.21,102.67Z"/><path class="cls-5" d="M38.94,124.94s-10.1-.26-4.59-8.72C34.35,116.22,44.07,117.81,38.94,124.94Z"/><path class="cls-10" d="M91.36,135.83s19.9,14.25,51.06-1.67"/><path class="cls-10" d="M98.84,134.16a16.16,16.16,0,0,0-.56,8.38"/><path class="cls-10" d="M106.07,136.67a13,13,0,0,0,.87,7.54"/><path class="cls-10" d="M117.62,137.53a23.19,23.19,0,0,1,1.57,7.5"/><path class="cls-10" d="M129.44,135a16.22,16.22,0,0,1,2.41,7.13"/><path d="M112.13,118.23s3-4.67,6.27-6.11a16.85,16.85,0,0,1,4.58,4.36,18.11,18.11,0,0,0,1,1.6c.71.94,1.68,2.66,1.1,4.34,0,0-.43,4.19-6.71,0,0,0-7.14,2.58-7.14-.84C111.26,121.58,111.26,119.07,112.13,118.23Z"/><ellipse class="cls-11" cx="81.41" cy="94.76" rx="2.6" ry="2.1"/><ellipse class="cls-11" cx="83.14" cy="88.06" rx="2.11" ry="2.58" transform="translate(-30.2 130.73) rotate(-67.28)"/><ellipse class="cls-11" cx="89.2" cy="82.19" rx="2.14" ry="2.54" transform="translate(-30.95 65.58) rotate(-34.79)"/><ellipse class="cls-11" cx="97.85" cy="78.84" rx="2.16" ry="2.52" transform="translate(-8.38 11.71) rotate(-6.57)"/><ellipse class="cls-11" cx="107.37" cy="79.68" rx="2.52" ry="2.16" transform="translate(-3.34 154.64) rotate(-70.68)"/><ellipse class="cls-11" cx="114.29" cy="83.03" rx="2.56" ry="2.13" transform="translate(-26.64 92.79) rotate(-39.96)"/><ellipse class="cls-11" cx="119.49" cy="90.57" rx="2.58" ry="2.1" transform="translate(-24.22 47.82) rotate(-20.59)"/><ellipse class="cls-11" cx="119.49" cy="99.79" rx="2.1" ry="2.59" transform="translate(-1.15 198.19) rotate(-79.07)"/><ellipse class="cls-11" cx="116.89" cy="106.5" rx="2.12" ry="2.57" transform="translate(-35.01 150.44) rotate(-58.47)"/><ellipse class="cls-11" cx="110.83" cy="111.53" rx="2.14" ry="2.54" transform="translate(-43.82 83.17) rotate(-34.79)"/><ellipse class="cls-11" cx="103.04" cy="114.88" rx="2.16" ry="2.51" transform="translate(-6.59 6.27) rotate(-3.38)"/><ellipse class="cls-11" cx="95.82" cy="113.53" rx="2.52" ry="2.16" transform="translate(-43.02 166.4) rotate(-70.68)"/><ellipse class="cls-11" cx="88.03" cy="110.18" rx="2.55" ry="2.13" transform="translate(-51.97 93.17) rotate(-44.45)"/><ellipse class="cls-11" cx="82.84" cy="104.31" rx="2.57" ry="2.11" transform="translate(-39.93 52.64) rotate(-28.72)"/><ellipse class="cls-11" cx="122.08" cy="84.71" rx="2.11" ry="2.58" transform="translate(-3.2 164.6) rotate(-67.28)"/><ellipse class="cls-11" cx="127.27" cy="81.35" rx="2.14" ry="2.54" transform="translate(-23.67 87.15) rotate(-34.79)"/><ellipse class="cls-11" cx="135.93" cy="78" rx="2.16" ry="2.52" transform="translate(-8.03 16.06) rotate(-6.57)"/><ellipse class="cls-11" cx="145.45" cy="78.84" rx="2.52" ry="2.16" transform="translate(22.93 190.02) rotate(-70.68)"/><ellipse class="cls-11" cx="152.37" cy="82.19" rx="2.56" ry="2.13" transform="translate(-17.21 117.05) rotate(-39.96)"/><ellipse class="cls-11" cx="157.56" cy="89.73" rx="2.58" ry="2.1" transform="translate(-21.49 61.16) rotate(-20.59)"/><ellipse class="cls-11" cx="157.56" cy="98.12" rx="2.1" ry="2.59" transform="translate(31.35 234.22) rotate(-79.07)"/><ellipse class="cls-11" cx="154.97" cy="104.82" rx="2.12" ry="2.57" transform="translate(-15.41 182.1) rotate(-58.47)"/><ellipse class="cls-11" cx="148.91" cy="109.85" rx="2.14" ry="2.54" transform="matrix(0.82, -0.57, 0.57, 0.82, -36.06, 104.59)"/><ellipse class="cls-11" cx="141.12" cy="113.2" rx="2.16" ry="2.51" transform="translate(-6.43 8.51) rotate(-3.38)"/><ellipse class="cls-11" cx="133.9" cy="111.85" rx="2.52" ry="2.16" transform="translate(-15.95 201.21) rotate(-70.68)"/><ellipse class="cls-11" cx="127.84" cy="110.18" rx="2.55" ry="2.13" transform="translate(-40.58 121.05) rotate(-44.45)"/><ellipse class="cls-11" cx="122.65" cy="105.15" rx="2.57" ry="2.11" transform="translate(-35.44 71.87) rotate(-28.72)"/><path class="cls-12" d="M79.52,124s-2.92-4.78-5.94-4.51-3.66,2.56-3.91,4.42S78,127.46,79.52,124Z"/><path class="cls-12" d="M78.67,129.92s-4.88-2.92-7.42-1.32-2,3.91-1.35,5.67S79,133.73,78.67,129.92Z"/><path class="cls-12" d="M81.22,133.89s-5.71.54-6.73,3.31.85,4.29,2.48,5.3S83.85,136.73,81.22,133.89Z"/><path class="cls-12" d="M153.85,131.66s1.43,5.39,4.4,5.93,4.26-1.46,5-3.18S156.35,128.71,153.85,131.66Z"/><path class="cls-12" d="M156.39,126.16s3.84,4.13,6.74,3.28,3.06-3.22,2.93-5.08S157.19,122.42,156.39,126.16Z"/><path class="cls-12" d="M155.08,121.66s5.64,1,7.41-1.36.42-4.35-.85-5.76S153.38,118.22,155.08,121.66Z"/><path class="cls-13" d="M40.13,175s63.92,28.16,154.28-8.67l3.77,19S130,207.25,36.05,192.7Z"/><path class="cls-14" d="M31.21,212.52s105.4,6.73,168.67-13l1.8,19.7s-61.94,20.52-174.19,14Z"/><path class="cls-13" d="M23.42,252.75a17.23,17.23,0,0,0,7.93-.09,14,14,0,0,1,3.15-.53C49.89,251.68,160,248,193.42,235.37c0,0,12.71-3.9,11.79-5.41S221.13,252.7,195,256.08c0,0-108.22,14.37-145.1,14.14a12.32,12.32,0,0,0-3,.37C41.28,272,20.7,276.16,23.42,252.75Z"/><ellipse cx="139.6" cy="103.18" rx="11.04" ry="7.1"/><path class="cls-1" d="M79.19,348.47l-1.68,17.85s-1.84,5.15,1.68,6.76l9.57,1.62s6.93.84,5.2-4.19l2.47-21.35"/><path class="cls-1" d="M66.26,388.11s-8.34,1.68-10.22,0c0,0-5.25-5.09,3.79-8.83h2.6s8.93-5,14.6-6.47l11.73,1.89s12.12,1.68,2.6,10.9c0,0-12.21,4.73-14.33,8.23C77,393.83,67.13,399,66.26,388.11Z"/><path class="cls-1" d="M70,398s-6.32,4.65-3.89,9.55C66.06,407.55,72.1,409,70,398Z"/><path class="cls-1" d="M53.71,388.12s-4.85-2.49-6.49,3.27C47.22,391.39,48.77,398,53.71,388.12Z"/><path class="cls-1" d="M58,393.15s-4.86-2.49-6.49,3.27C51.55,396.42,53.1,403,58,393.15Z"/><path class="cls-1" d="M65,396.5s-4.85-2.49-6.49,3.27C58.47,399.77,60,406.39,65,396.5Z"/><path class="cls-1" d="M51.27,383.28s-5-2-7.11,1.07C44.16,384.35,45.32,388.35,51.27,383.28Z"/><path class="cls-1" d="M169,348.5l1.67,17.85s1.84,5.15-1.67,6.76l-9.55,1.62s-6.9.84-5.17-4.19l-2.47-21.35"/><path class="cls-1" d="M181.89,388.14s8.31,1.68,10.2,0c0,0,5.22-5.09-3.78-8.83h-2.6s-8.9-5-14.56-6.47l-11.7,1.89s-12.08,1.68-2.58,10.9c0,0,12.17,4.73,14.28,8.23C171.15,393.86,181,399,181.89,388.14Z"/><path class="cls-1" d="M176.35,397.51s7.07,4.18,5.79,9.13C182.14,406.64,176.65,408.44,176.35,397.51Z"/><path class="cls-1" d="M196.13,389.82s4.84-2.48,6.47,3.28C202.6,393.1,201.06,399.71,196.13,389.82Z"/><path class="cls-1" d="M190.09,393.18s4.84-2.49,6.47,3.27C196.56,396.45,195,403.07,190.09,393.18Z"/><path class="cls-1" d="M183.18,396.53s4.85-2.49,6.48,3.27C189.66,399.8,188.11,406.42,183.18,396.53Z"/><path class="cls-1" d="M196.38,384.6s5.17-1.44,6.92,1.89C203.3,386.49,201.67,390.32,196.38,384.6Z"/><path class="cls-15" d="M169.17,325.07s.23,4.84,2.13,6.69a6,6,0,0,1,1.44,4.78s-.44,3.42,2.06,5.24,2.13,6.16,2.13,6.16l3.16-.56s-1.68-5.76-3-7.16c0,0-.65-.94-.07-1.45,0,0,.39-4.38-.88-5.78S168.59,325.58,169.17,325.07Z"/><path class="cls-15" d="M89.55,325.91s.23,4.83,2.13,6.69a6,6,0,0,1,1.44,4.78s-.44,3.41,2.06,5.24,2.13,6.16,2.13,6.16l3.16-.56s-1.68-5.76-3-7.16c0,0-.65-.94-.07-1.45,0,0,.39-4.38-.88-5.78S89,326.42,89.55,325.91Z"/><path class="cls-15" d="M143.8,326.85s.23,4.83-.84,6.82a8.68,8.68,0,0,0-.55,4.88s.56,3.37-.91,5.37-.88,6.3-.88,6.3l-2.07-.32s.62-5.87,1.33-7.36c0,0,.34-1-.08-1.45,0,0-.6-4.34.11-5.82S144.21,327.31,143.8,326.85Z"/><path class="cls-15" d="M69.37,323.49s.24,4.84-.84,6.83a8.7,8.7,0,0,0-.54,4.87s.55,3.37-.91,5.38-.88,6.29-.88,6.29l-2.08-.32s.62-5.86,1.33-7.35c0,0,.34-1-.07-1.45,0,0-.6-4.34.11-5.83S69.79,324,69.37,323.49Z"/></g></g></svg>