<svg xmlns="http://www.w3.org/2000/svg" width="240" height="570" viewBox="0 0 240 570"><defs><style>.cls-1{fill:#fff;}.cls-2{fill:#e0d982;}.cls-3{fill:#f3983e;}.cls-4{fill:#dd2458;}.cls-5{fill:#d6ba1a;}.cls-6{fill:#e3933a;}.cls-7{fill:#dbdad9;}.cls-8{fill:#f9c847;}.cls-9{fill:#c14a29;}.cls-10{fill:none;stroke:#000;stroke-miterlimit:10;}.cls-11{fill:#25bf25;}.cls-12{fill:#2692db;}.cls-13{fill:#a84726;}.cls-14{fill:#2a6d21;}.cls-15{fill:#c1b867;}</style></defs><g id="Animated_items" data-name="Animated items"><g id="male_skeleton-3" data-name="male skeleton"><path class="cls-1" d="M19,374.35l16.47-2.11,3.21,11.84a20.48,20.48,0,0,1-18.08,0Z"/><path class="cls-1" d="M20.56,384.08S9.74,386.44,9.74,395.92c0,0,0,8.28,2.14,11.83,0,0,3.21,4.74,7.5,1.19a7.07,7.07,0,0,1,7.49,0s2.6,1.92,7,.57a4.94,4.94,0,0,1,2.64-.08c1.13.29,2.9.13,4.25-2.86,0,0,3.21-8.29,1.07-13h0s-1.07-8.29-3.21-9.47S20.56,384.08,20.56,384.08Z"/><path class="cls-1" d="M9.48,408.73s-8.82-.32-5.88,5.53C3.6,414.26,7.13,417.83,9.48,408.73Z"/><path class="cls-1" d="M15.27,413S4.11,418.47,11,423.18C11,423.18,17.39,424.9,15.27,413Z"/><path class="cls-1" d="M24.88,413.31s-8.31,9.9-.3,11.25C24.58,424.56,31.06,423.39,24.88,413.31Z"/><path class="cls-1" d="M35.16,413.31s-5.72,11.94,2.34,10.95C37.5,424.26,43.48,421.28,35.16,413.31Z"/><path class="cls-1" d="M43.66,405.58s1.79,15.34,8.82,8.56C52.48,414.14,56.34,407,43.66,405.58Z"/><path class="cls-1" d="M215.75,352.79l-16.53,1.28L198,366.36a20.51,20.51,0,0,0,17.75-3.68Z"/><path class="cls-1" d="M215.79,362.68s11,.12,12.6,9.43c0,0,1.39,8.14-.12,12.07,0,0-2.37,5.31-7.17,2.69,0,0-3.54-1.67-7.35,1.53,0,0-2.12,2.29-6.45,2a6.53,6.53,0,0,0-3.06.48c-1.07.47-2.78.58-4.55-2,0,0-4.54-7.49-3.23-12.58h0s-.33-8.37,1.58-10S215.79,362.68,215.79,362.68Z"/><path class="cls-1" d="M230.79,384.64s8.61-2.11,6.69,4.24C237.48,388.88,234.61,393.12,230.79,384.64Z"/><path class="cls-1" d="M225.81,390s11.87,3.15,5.88,9.18C231.69,399.16,225.72,402.15,225.81,390Z"/><path class="cls-1" d="M216.43,392.29s9.82,8,2.17,11C218.6,403.29,212.05,403.46,216.43,392.29Z"/><path class="cls-1" d="M206.33,394.38s7.61,10.58-.47,11.25C205.86,405.63,199.49,403.91,206.33,394.38Z"/><path class="cls-1" d="M196.7,388.52s.8,15.44-7.24,10.21C189.46,398.73,184.48,392.51,196.7,388.52Z"/><path class="cls-2" d="M61.12,350.93S47.09,464.33,53,482.8c0,0,41.81,6.05,56.79,1.31,0,0,12.77-74.05,14.42-137.06l6.53,12.86s2.45,120.72,4.13,126c0,0,41.72,4.28,68.26-3.5,0,0-25.9-143.92-28-145.11S61.12,350.93,61.12,350.93Z"/><path class="cls-3" d="M62.53,196.43s-34.18-.25-42.95,65.29c0,0-8.77,43-14.12,78.55,0,0-14.65,43.38,28.53,32.94,0,0,99.87-3.11,165.55-18.19a58.83,58.83,0,0,1,12.17-1.52c10.47-.19,32.42-4.25,16.46-37.13a50.55,50.55,0,0,1-4.93-19c-1.31-21.84-5-69.71-12.8-80.94,0,0-12.31-25.32-35.32-25.92S62.53,196.43,62.53,196.43Z"/><path class="cls-4" d="M32.77,144.69s-2.56,9.82,3.4,15.45S36,145.44,32.77,144.69Z"/><path class="cls-5" d="M43,171s-11.28-.28-5.12-9.87C37.91,161.11,48.76,162.92,43,171Z"/><path class="cls-4" d="M186.62,82.19s-2.47,9.07,3.28,14.26S189.71,82.89,186.62,82.19Z"/><path class="cls-5" d="M196.52,106.46s-10.88-.26-4.94-9.11C191.58,97.35,202.05,99,196.52,106.46Z"/><path class="cls-6" d="M38.46,118.11,8.29,138.77s-4.09,6.19,26,6.77L182,91.84s27.92-25,28.45-33.92C210.44,57.92,204.56,11.16,38.46,118.11Z"/><path class="cls-1" d="M41.89,112.44C60.66,86.77,116,28.52,192.63,101.22a11.81,11.81,0,0,1,2.87,4.33c4.14,10.62,16.5,51.31-20.38,85,0,0-15,10.66-19.27,21.31,0,0-4.28,15.39-19.27,13l-27.14.24A45,45,0,0,1,95.88,220a20.42,20.42,0,0,1-7-6.7c-2.26-3.43-7.28-8.65-17.6-10.94,0,0-35.51-17.67-37-64.65A40.65,40.65,0,0,1,41.89,112.44Z"/><ellipse class="cls-7" cx="99.12" cy="128.95" rx="19.27" ry="20.13"/><ellipse cx="108.75" cy="131.32" rx="14.12" ry="9.69" transform="translate(-42.18 210.64) rotate(-78.09)"/><ellipse class="cls-7" cx="146.22" cy="127.77" rx="19.27" ry="20.13"/><path class="cls-8" d="M10.91,106.65c-1.66.82-7.49,4.88-7.78,21.12,0,0-3.56,18.94,11.43,7.1,0,0,66.36-54.46,176.62-80.5,0,0,21.4-2.37,19.26,3.55a23,23,0,0,0-4.28-17.76s0-4.73-18.2-3.55c0,0-86.13,4.71-175.73,69.21A9.12,9.12,0,0,1,10.91,106.65Z"/><path class="cls-8" d="M56.84,21.81S84.67,6.42,105,4.06c0,0,7.49-3.56,18.19,7.1l30.11,30.92L49.18,82.24s-3-30.83-3-33.2S39.71,27.73,56.84,21.81Z"/><path class="cls-9" d="M91.09,44.31,47,59.81l2.15,22.43,24.7-12.76s50.32-22.1,55.71-21.27c0,0,22.78-6,23.72-6.13L137.55,25.89Z"/><path class="cls-4" d="M43.26,115.09S40.43,127.35,47,134.37,46.8,116,43.26,115.09Z"/><path class="cls-5" d="M54.62,147.9s-12.48-.36-5.67-12.32C49,135.58,61,137.83,54.62,147.9Z"/><path class="cls-4" d="M209.17,55.9s-2.83,12.25,3.77,19.27S212.72,56.84,209.17,55.9Z"/><path class="cls-5" d="M220.54,88.7s-12.49-.35-5.67-12.31C214.87,76.39,226.88,78.64,220.54,88.7Z"/><path class="cls-4" d="M4.29,137.75s5.45,16.66,10.8,19S10.61,147.13,4.29,137.75Z"/><path class="cls-5" d="M22.51,169.2s-12.49-.35-5.67-12.31C16.84,156.89,28.86,159.14,22.51,169.2Z"/><path class="cls-10" d="M87.35,184.6s24.62,20.12,63.15-2.37"/><path class="cls-10" d="M96.6,182.23a25.79,25.79,0,0,0-.69,11.84"/><path class="cls-10" d="M105.54,185.78a20.71,20.71,0,0,0,1.07,10.65"/><path class="cls-10" d="M119.83,187a36.81,36.81,0,0,1,1.94,10.58"/><path class="cls-10" d="M134.44,183.41a24.8,24.8,0,0,1,3,10.06"/><path d="M113,159.73s3.74-6.59,7.76-8.62c0,0,4,2.94,5.66,6.15.4.77.8,1.54,1.27,2.26.87,1.33,2.08,3.75,1.36,6.13,0,0-.53,5.92-8.29,0,0,0-8.83,3.64-8.83-1.18C112,164.47,112,160.92,113,159.73Z"/><ellipse class="cls-11" cx="75.04" cy="126.59" rx="3.21" ry="2.96"/><ellipse class="cls-11" cx="77.18" cy="117.11" rx="2.87" ry="3.32" transform="translate(-61.01 93.11) rotate(-46.76)"/><ellipse class="cls-11" cx="84.67" cy="108.83" rx="2.72" ry="3.49" transform="translate(-31.59 34.7) rotate(-19.6)"/><ellipse class="cls-11" cx="95.37" cy="104.09" rx="2.68" ry="3.55" transform="translate(-6.11 5.95) rotate(-3.46)"/><ellipse class="cls-11" cx="107.15" cy="105.28" rx="3.53" ry="2.69" transform="translate(-15.7 191.71) rotate(-79.62)"/><ellipse class="cls-11" cx="115.71" cy="110.01" rx="3.42" ry="2.78" transform="translate(-37.72 154.19) rotate(-59.62)"/><ellipse class="cls-11" cx="122.13" cy="120.67" rx="3.3" ry="2.88" transform="translate(-49.13 108.65) rotate(-40.64)"/><ellipse class="cls-11" cx="122.13" cy="133.69" rx="2.93" ry="3.24" transform="translate(-51.28 185.83) rotate(-64.32)"/><ellipse class="cls-11" cx="118.92" cy="143.16" rx="2.82" ry="3.37" transform="translate(-62.64 102.25) rotate(-37.58)"/><ellipse class="cls-11" cx="111.43" cy="150.26" rx="2.72" ry="3.49" transform="translate(-43.94 46.07) rotate(-19.6)"/><ellipse class="cls-11" cx="101.8" cy="155" rx="2.68" ry="3.55" transform="translate(-4.76 3.23) rotate(-1.78)"/><ellipse class="cls-11" cx="92.86" cy="153.09" rx="3.53" ry="2.69" transform="translate(-74.45 216.87) rotate(-79.62)"/><ellipse class="cls-11" cx="83.23" cy="148.36" rx="3.44" ry="2.76" transform="translate(-86.74 155.27) rotate(-63.04)"/><ellipse class="cls-11" cx="76.81" cy="140.07" rx="3.35" ry="2.83" transform="translate(-79.71 108.11) rotate(-49.72)"/><ellipse class="cls-11" cx="125.35" cy="112.38" rx="2.87" ry="3.32" transform="translate(-42.39 126.71) rotate(-46.76)"/><ellipse class="cls-11" cx="131.77" cy="107.64" rx="2.72" ry="3.49" transform="translate(-28.47 50.43) rotate(-19.6)"/><ellipse class="cls-11" cx="142.47" cy="102.91" rx="2.68" ry="3.55" transform="translate(-5.95 8.79) rotate(-3.46)"/><ellipse class="cls-11" cx="154.25" cy="104.09" rx="3.53" ry="2.69" transform="translate(24.08 237.07) rotate(-79.62)"/><ellipse class="cls-11" cx="162.81" cy="108.83" rx="3.42" ry="2.78" transform="translate(-13.42 194.23) rotate(-59.62)"/><ellipse class="cls-11" cx="169.23" cy="119.48" rx="3.3" ry="2.88" transform="translate(-37 139.04) rotate(-40.64)"/><ellipse class="cls-11" cx="169.23" cy="131.32" rx="2.93" ry="3.24" transform="translate(-22.45 226.93) rotate(-64.32)"/><ellipse class="cls-11" cx="166.02" cy="140.79" rx="2.82" ry="3.37" transform="translate(-51.42 130.48) rotate(-37.58)"/><ellipse class="cls-11" cx="158.53" cy="147.9" rx="2.72" ry="3.49" transform="translate(-40.42 61.73) rotate(-19.6)"/><ellipse class="cls-11" cx="148.89" cy="152.63" rx="2.68" ry="3.55" transform="translate(-4.66 4.69) rotate(-1.78)"/><ellipse class="cls-11" cx="139.96" cy="150.73" rx="3.53" ry="2.69" transform="translate(-33.51 261.25) rotate(-79.62)"/><ellipse class="cls-11" cx="132.47" cy="148.36" rx="3.44" ry="2.76" transform="translate(-59.83 199.15) rotate(-63.04)"/><ellipse class="cls-11" cx="126.05" cy="141.26" rx="3.35" ry="2.83" transform="translate(-63.21 146.09) rotate(-49.72)"/><path class="cls-12" d="M72.7,167.81s-3.61-6.76-7.34-6.36-4.53,3.61-4.84,6.24S70.78,172.77,72.7,167.81Z"/><path class="cls-12" d="M71.65,176.25s-6-4.14-9.17-1.88-2.5,5.53-1.68,8S72,181.62,71.65,176.25Z"/><path class="cls-12" d="M74.81,181.85s-7.07.77-8.32,4.67,1.05,6.07,3.06,7.49S78.06,185.87,74.81,181.85Z"/><path class="cls-12" d="M164.64,178.71s1.76,7.6,5.44,8.37,5.26-2.07,6.23-4.49S167.73,174.54,164.64,178.71Z"/><path class="cls-12" d="M167.78,170.93s4.75,5.83,8.33,4.63,3.79-4.54,3.63-7.18S168.77,165.65,167.78,170.93Z"/><path class="cls-12" d="M166.16,164.57s7,1.45,9.17-1.91.52-6.15-1.06-8.14S164.05,159.71,166.16,164.57Z"/><path class="cls-13" d="M24,240S103,279.75,214.81,227.73l4.66,26.79s-84.3,31-200.53,10.4Z"/><path class="cls-14" d="M13,292.92s130.37,9.5,208.62-18.34l2.23,27.82s-76.62,29-215.45,19.82Z"/><path class="cls-13" d="M3.32,349.74a18.66,18.66,0,0,0,9.8-.13,15,15,0,0,1,3.9-.74c19-.64,155.2-5.78,196.56-23.67,0,0,15.72-5.51,14.59-7.65s19.68,32.12-12.67,36.89c0,0-133.85,20.3-179.47,20a13.26,13.26,0,0,0-3.75.52C25.41,376.93,0,382.81,3.32,349.74Z"/><ellipse cx="154.78" cy="131.32" rx="14.12" ry="9.69" transform="translate(-5.65 255.68) rotate(-78.09)"/><path class="cls-1" d="M72.29,485l-2.07,25.21s-2.28,7.27,2.07,9.55L84.14,522s8.56,1.18,6.42-5.92l3-30.17"/><path class="cls-1" d="M56.3,540.94s-10.31,2.37-12.64,0c0,0-6.49-7.19,4.68-12.47h3.22s11-7.06,18.07-9.14L84.14,522s15,2.36,3.21,15.39c0,0-15.11,6.68-17.72,11.62C69.63,549,57.38,556.33,56.3,540.94Z"/><path class="cls-1" d="M60.87,554.9s-7.82,6.57-4.81,13.5C56.06,568.4,63.53,570.47,60.87,554.9Z"/><path class="cls-1" d="M40.78,541s-6-3.51-8,4.62C32.76,545.57,34.67,554.92,40.78,541Z"/><path class="cls-1" d="M46.14,548.05s-6-3.51-8,4.63C38.11,552.68,40,562,46.14,548.05Z"/><path class="cls-1" d="M54.7,552.79s-6-3.51-8,4.62C46.67,557.41,48.58,566.76,54.7,552.79Z"/><path class="cls-1" d="M37.76,534.11s-6.14-2.87-8.79,1.52C29,535.63,30.4,541.28,37.76,534.11Z"/><path class="cls-1" d="M183.38,485l2.06,25.21s2.27,7.27-2.06,9.56L171.57,522s-8.54,1.18-6.4-5.92l-3-30.16"/><path class="cls-1" d="M199.32,541s10.28,2.37,12.61,0c0,0,6.46-7.19-4.68-12.47H204s-11-7.06-18-9.13L171.57,522s-14.94,2.37-3.2,15.39c0,0,15.06,6.68,17.67,11.63C186,549.06,198.25,556.37,199.32,541Z"/><path class="cls-1" d="M192.46,554.21s8.75,5.91,7.16,12.9C199.62,567.11,192.83,569.66,192.46,554.21Z"/><path class="cls-1" d="M216.93,543.36s6-3.51,8,4.62C224.93,548,223,557.33,216.93,543.36Z"/><path class="cls-1" d="M209.46,548.09s6-3.51,8,4.63C217.46,552.72,215.55,562.06,209.46,548.09Z"/><path class="cls-1" d="M200.92,552.83s6-3.51,8,4.63C208.92,557.46,207,566.8,200.92,552.83Z"/><path class="cls-1" d="M217.25,536s6.38-2,8.55,2.67C225.8,538.65,223.78,544.06,217.25,536Z"/><path class="cls-15" d="M183.58,451.89s.29,6.83,2.64,9.45S188,468.1,188,468.1s-.54,4.82,2.55,7.4,2.64,8.7,2.64,8.7l3.9-.79s-2.07-8.14-3.65-10.12c0,0-.8-1.32-.08-2.05,0,0,.48-6.19-1.1-8.16S182.87,452.61,183.58,451.89Z"/><path class="cls-15" d="M85.1,453.07s.29,6.84,2.64,9.46,1.78,6.75,1.78,6.75-.54,4.82,2.56,7.4,2.63,8.7,2.63,8.7l3.9-.79s-2.07-8.14-3.64-10.11c0,0-.81-1.33-.09-2.05,0,0,.48-6.19-1.09-8.16S84.39,453.8,85.1,453.07Z"/><path class="cls-15" d="M152.21,454.4s.29,6.84-1,9.64-.68,6.89-.68,6.89.69,4.76-1.12,7.59-1.09,8.89-1.09,8.89l-2.57-.45s.77-8.29,1.64-10.39c0,0,.43-1.39-.08-2.05,0,0-.75-6.12.13-8.22S152.72,455.06,152.21,454.4Z"/><path class="cls-15" d="M60.15,449.67s.29,6.83-1,9.64-.67,6.88-.67,6.88.68,4.76-1.13,7.6-1.09,8.89-1.09,8.89l-2.56-.46s.76-8.28,1.64-10.38c0,0,.42-1.4-.09-2,0,0-.74-6.13.13-8.23S60.66,450.32,60.15,449.67Z"/></g></g></svg>