<svg xmlns="http://www.w3.org/2000/svg" xmlns:xlink="http://www.w3.org/1999/xlink" width="133" height="136" viewBox="0 0 133 136"><defs><style>.cls-1{filter:url(#AI_SombrasDeInglete_1);}.cls-2{fill:#3e0147;}</style><filter id="AI_SombrasDeInglete_1" x="-20%" y="-20%" width="140%" height="140%" name="AI_SombrasDeInglete_1"><feGaussianBlur result="blur" stdDeviation="4" in="SourceAlpha"/><feOffset result="offsetBlur" dx="4" dy="4" in="blur"/><feSpecularLighting result="specOut" surfaceScale="5" specularExponent="10" in="blur"><fePointLight x="-5000" y="-10000" z="-20000"/></feSpecularLighting><feComposite result="specOut" operator="in" in="specOut" in2="SourceAlpha"/><feComposite result="litPaint" operator="arithmetic" k2="1" k3="1" in="SourceGraphic" in2="specOut"/><feMerge><feMergeNode in="offsetBlur"/><feMergeNode in="litPaint"/></feMerge></filter></defs><g id="Animated_items" data-name="Animated items"><g class="cls-1"><path class="cls-2" d="M109.88,50.88v50.86c0,2.22-2.42,4-5.38,4H84.76c-3,0-5.39-1.81-5.39-4V71.85H48v29.89c0,2.22-2.42,4-5.38,4H22.85c-3,0-5.38-1.81-5.38-4V50.94a3.48,3.48,0,0,1,2.15-3l21-10.51,20-10a7.15,7.15,0,0,1,6.19,0l20,10L107.8,48A3.39,3.39,0,0,1,109.88,50.88Z"/></g></g></svg>