<svg xmlns="http://www.w3.org/2000/svg" xmlns:xlink="http://www.w3.org/1999/xlink" width="80" height="85" viewBox="0 0 80 85"><defs><style>.cls-1{filter:url(#AI_DesenfoqueGaussiano_4);}.cls-2{fill:#fff;}.cls-3{fill:#3e0147;}</style><filter id="AI_DesenfoqueGaussiano_4" name="AI_DesenfoqueGaussiano_4"><feGaussianBlur stdDeviation="4"/></filter></defs><g id="Animated_items" data-name="Animated items"><g class="cls-1"><rect x="10.71" y="10.05" width="65" height="65" rx="12"/></g><rect class="cls-2" x="6.71" y="8.05" width="65" height="65" rx="12"/><path class="cls-3" d="M63.54,31.35V63.51a2.68,2.68,0,0,1-2.79,2.54H50.54a2.68,2.68,0,0,1-2.79-2.54V44.61H31.5v18.9a2.67,2.67,0,0,1-2.78,2.54H18.5a2.68,2.68,0,0,1-2.79-2.54V31.39a2.23,2.23,0,0,1,1.12-1.9l10.84-6.65L38,16.5a3.11,3.11,0,0,1,3.2,0l10.35,6.34,10.89,6.67A2.17,2.17,0,0,1,63.54,31.35Z"/></g></svg>