<svg xmlns="http://www.w3.org/2000/svg" xmlns:xlink="http://www.w3.org/1999/xlink" width="133" height="136" viewBox="0 0 133 136"><defs><style>.cls-1{filter:url(#AI_SombrasDeInglete_1);}.cls-2{fill:#8d3b8d;}</style><filter id="AI_SombrasDeInglete_1" x="-20%" y="-20%" width="140%" height="140%" name="AI_SombrasDeInglete_1"><feGaussianBlur result="blur" stdDeviation="4" in="SourceAlpha"/><feOffset result="offsetBlur" dx="4" dy="4" in="blur"/><feSpecularLighting result="specOut" surfaceScale="5" specularExponent="10" in="blur"><fePointLight x="-5000" y="-10000" z="-20000"/></feSpecularLighting><feComposite result="specOut" operator="in" in="specOut" in2="SourceAlpha"/><feComposite result="litPaint" operator="arithmetic" k2="1" k3="1" in="SourceGraphic" in2="specOut"/><feMerge><feMergeNode in="offsetBlur"/><feMergeNode in="litPaint"/></feMerge></filter></defs><g id="Animated_items" data-name="Animated items"><g class="cls-1"><path class="cls-2" d="M112,45.66v61.68c0,2.69-2.56,4.89-5.69,4.89H85.42c-3.13,0-5.7-2.2-5.7-4.89V71.09H46.51v36.25c0,2.69-2.56,4.89-5.69,4.89H19.94c-3.13,0-5.7-2.2-5.7-4.89V45.74a4.29,4.29,0,0,1,2.28-3.66L38.68,29.34,59.84,17.17a6.7,6.7,0,0,1,6.55,0L87.55,29.34l22.24,12.79A4.11,4.11,0,0,1,112,45.66Z"/></g></g></svg>