<svg xmlns="http://www.w3.org/2000/svg" xmlns:xlink="http://www.w3.org/1999/xlink" width="841" height="429" viewBox="0 0 841 429"><defs><style>.cls-1{filter:url(#AI_SombrasDeInglete_1);}.cls-2{fill:#ee6b11;}.cls-3{fill:#62002d;}.cls-4{fill:#ed146c;}.cls-5{fill:#ef56b9;}.cls-6{fill:#fff;}</style><filter id="AI_SombrasDeInglete_1" x="-20%" y="-20%" width="140%" height="140%" name="AI_SombrasDeInglete_1"><feGaussianBlur result="blur" stdDeviation="4" in="SourceAlpha"/><feOffset result="offsetBlur" dx="4" dy="4" in="blur"/><feSpecularLighting result="specOut" surfaceScale="5" specularExponent="10" in="blur"><fePointLight x="-5000" y="-10000" z="-20000"/></feSpecularLighting><feComposite result="specOut" operator="in" in="specOut" in2="SourceAlpha"/><feComposite result="litPaint" operator="arithmetic" k2="1" k3="1" in="SourceGraphic" in2="specOut"/><feMerge><feMergeNode in="offsetBlur"/><feMergeNode in="litPaint"/></feMerge></filter></defs><g id="Animated_items" data-name="Animated items"><g id="Rectangle" class="cls-1"><rect class="cls-2" x="26.04" y="7.55" width="772" height="407.04" rx="75.82"/></g><g id="Rectangle-2" data-name="Rectangle" class="cls-1"><rect class="cls-3" x="39.2" y="21.01" width="745.96" height="380.32" rx="75.82"/></g><path class="cls-4" d="M743.88,59h0c2.15-1.33,4.87,1.3,3.49,3.38h0a2.52,2.52,0,0,0,2.57,3.71h0c2.59-.33,4,3.07,1.87,4.36h0c-1.75,1-1.22,3.7.86,4.29h0c2.59.73,2.53,4.31-.07,4.59h0a2.26,2.26,0,0,0-1,4.13h0a2.27,2.27,0,0,1-2,4h0a2.23,2.23,0,0,0-2.68,3.25h0a2.29,2.29,0,0,1-3.59,2.77h0a2.31,2.31,0,0,0-3.9,1.81h0c.26,2.57-3.29,3.37-4.56,1h0c-1-1.87-3.77-1.83-4.44.07h0c-.84,2.36-4.52,1.67-4.73-.89h0a2.57,2.57,0,0,0-4.23-1.7h0a2.54,2.54,0,0,1-4.09-2.65h0A2.56,2.56,0,0,0,714.11,88h0c-2.43.85-4.56-2.23-2.74-4h0c1.46-1.38.37-3.91-1.75-4.08h0c-2.65-.21-3.37-3.77-.92-4.58h0a2.31,2.31,0,0,0,.07-4.3h0c-2.42-1.23-1.59-4.66,1.06-4.41h0a2.23,2.23,0,0,0,1.88-3.77h0a2.26,2.26,0,0,1,2.86-3.47h0a2.26,2.26,0,0,0,3.36-2.59h0c-.8-2.5,2.44-4,4.16-1.94h0c1.39,1.65,4,1.06,4.27-1h0c.29-2.52,4-2.58,4.74-.07h0c.61,2,3.36,2.52,4.43.83h0c1.34-2.11,4.86-.7,4.52,1.81h0A2.57,2.57,0,0,0,743.88,59Z"/><path class="cls-5" d="M741.49,61.91h0c1.72-1,3.94,1.09,2.85,2.73h0c-.87,1.31.44,3.15,2.11,3h0c2.09-.23,3.3,2.48,1.56,3.48h0c-1.39.81-.93,2.92.75,3.41h0c2.09.62,2.09,3.45,0,3.65h0a1.77,1.77,0,0,0-.75,3.26h0a1.77,1.77,0,0,1-1.56,3.17h0a1.73,1.73,0,0,0-2.11,2.55h0c1.08,1.85-1.15,3.53-2.86,2.15h0c-1.38-1.1-3.31-.24-3.11,1.4h0c.24,2-2.61,2.63-3.65.76h0c-.85-1.5-3.06-1.5-3.58,0h0c-.64,1.86-3.61,1.27-3.82-.77h0a2.1,2.1,0,0,0-3.41-1.39h0a2.09,2.09,0,0,1-3.33-2.16h0a2.1,2.1,0,0,0-2.66-2.55h0c-1.95.65-3.7-1.82-2.26-3.17h0c1.16-1.09.26-3.11-1.46-3.27h0c-2.13-.19-2.75-3-.79-3.64h0c1.57-.49,1.57-2.61,0-3.41h0c-1.95-1-1.33-3.72.8-3.49h0a1.74,1.74,0,0,0,1.47-3h0a1.78,1.78,0,0,1,2.26-2.72h0a1.76,1.76,0,0,0,2.67-2h0c-.68-2,1.91-3.15,3.33-1.49h0c1.13,1.33,3.25.89,3.41-.71h0c.21-2,3.18-2,3.82,0h0c.51,1.6,2.73,2,3.57.71h0c1.06-1.65,3.9-.49,3.65,1.49h0A2.13,2.13,0,0,0,741.49,61.91Z"/><path class="cls-4" d="M738.8,66.15h0c2.11-.63,4.38,1.86,3.21,3.53h0c-.82,1.18.09,3,1.76,3.5h0c2.37.72,2.84,3.7.67,4.22h0c-1.53.36-1.87,2.12-.66,3.39h0c1.72,1.8.21,4.12-2.13,3.29h0c-1.66-.59-3.12.44-2.83,2h0c.41,2.19-2.5,3-4.12,1.1h0c-1.15-1.31-3.18-1.4-3.92-.17h0c-1,1.74-4.25.69-4.53-1.5h0a2.9,2.9,0,0,0-3.51-2.27h0c-2.11.63-4.38-1.86-3.21-3.53h0c.82-1.18-.09-3-1.76-3.51h0c-2.37-.72-2.84-3.69-.67-4.21h0c1.53-.37,1.87-2.12.66-3.39h0c-1.72-1.81-.21-4.13,2.13-3.29h0c1.66.59,3.12-.45,2.83-2h0c-.41-2.19,2.5-3,4.12-1.11h0c1.15,1.32,3.18,1.41,3.92.18h0c1-1.75,4.25-.69,4.53,1.5h0A2.9,2.9,0,0,0,738.8,66.15Z"/><path class="cls-5" d="M736.87,68.09h0c1.49-.54,3,1.19,2.09,2.45h0A1.68,1.68,0,0,0,740,73h0a1.58,1.58,0,0,1,.3,3h0a1.51,1.51,0,0,0-.59,2.51h0a1.51,1.51,0,0,1-1.61,2.48h0a1.49,1.49,0,0,0-2,1.56h0a1.59,1.59,0,0,1-2.91,1h0a1.67,1.67,0,0,0-2.71,0h0a1.72,1.72,0,0,1-3.09-.92h0a1.79,1.79,0,0,0-2.34-1.52h0a1.72,1.72,0,0,1-2.1-2.45h0a1.66,1.66,0,0,0-1.08-2.48h0c-1.61-.44-1.83-2.59-.3-3h0a1.5,1.5,0,0,0,.6-2.5h0a1.51,1.51,0,0,1,1.61-2.49h0a1.49,1.49,0,0,0,2-1.56h0a1.58,1.58,0,0,1,2.9-1h0a1.67,1.67,0,0,0,2.71,0h0a1.72,1.72,0,0,1,3.09.91h0A1.79,1.79,0,0,0,736.87,68.09Z"/><path class="cls-4" d="M734.05,71.92h0c1.67.27,2.59,2.18,1.55,3.23h0a1.61,1.61,0,0,0-.34,1.64h0c.5,1.53-1,2.65-2.61,1.88h0a2.14,2.14,0,0,0-1.86,0h0a2.32,2.32,0,0,1-3.18-2.06h0a2.1,2.1,0,0,0-.8-1.67h0c-1.34-1.12-.95-3,.65-3.16h0a1.6,1.6,0,0,0,1.36-1h0c.54-1.37,2.65-1.31,3.58.1h0A2.49,2.49,0,0,0,734.05,71.92Z"/><path class="cls-4" d="M712.43,50.5h0c2.15-1.34,4.87,1.29,3.49,3.38h0c-1.11,1.67.48,4,2.57,3.7h0c2.59-.33,4,3.07,1.87,4.36h0c-1.75,1-1.22,3.69.86,4.28h0c2.59.73,2.53,4.31-.07,4.59h0a2.26,2.26,0,0,0-1,4.13h0a2.27,2.27,0,0,1-2,4h0a2.23,2.23,0,0,0-2.68,3.25h0A2.29,2.29,0,0,1,711.88,85h0a2.31,2.31,0,0,0-3.9,1.81h0c.26,2.57-3.29,3.37-4.56,1h0c-1-1.87-3.77-1.83-4.44.07h0c-.84,2.36-4.52,1.67-4.73-.89h0a2.57,2.57,0,0,0-4.23-1.7h0a2.54,2.54,0,0,1-4.09-2.65h0a2.56,2.56,0,0,0-3.27-3.17h0c-2.43.86-4.56-2.23-2.74-4h0c1.46-1.39.37-3.92-1.75-4.09h0c-2.65-.21-3.37-3.77-.92-4.58h0a2.31,2.31,0,0,0,.07-4.3h0c-2.42-1.23-1.59-4.66,1.06-4.41h0a2.23,2.23,0,0,0,1.87-3.77h0a2.27,2.27,0,0,1,2.87-3.47h0a2.26,2.26,0,0,0,3.36-2.59h0c-.81-2.49,2.44-4,4.16-1.94h0c1.39,1.66,4,1.06,4.27-1h0c.29-2.52,4-2.58,4.74-.07h0c.61,2,3.36,2.52,4.43.83h0c1.34-2.11,4.86-.7,4.52,1.81h0A2.58,2.58,0,0,0,712.43,50.5Z"/><path class="cls-5" d="M710,53.43h0c1.72-1,3.94,1.09,2.85,2.73h0c-.87,1.31.44,3.15,2.11,3h0c2.09-.23,3.3,2.48,1.56,3.48h0c-1.39.81-.93,2.92.75,3.42h0c2.09.61,2.08,3.45,0,3.64h0a1.77,1.77,0,0,0-.75,3.26h0A1.77,1.77,0,0,1,715,76.1h0a1.73,1.73,0,0,0-2.11,2.55h0c1.08,1.86-1.15,3.53-2.86,2.15h0c-1.38-1.1-3.31-.24-3.11,1.4h0c.24,2-2.61,2.63-3.66.76h0c-.84-1.5-3-1.5-3.57,0h0c-.64,1.86-3.61,1.27-3.82-.77h0a2.1,2.1,0,0,0-3.41-1.39h0a2.09,2.09,0,0,1-3.33-2.16h0a2.1,2.1,0,0,0-2.66-2.55h0c-2,.65-3.7-1.82-2.26-3.17h0c1.16-1.08.26-3.11-1.46-3.26h0c-2.13-.2-2.75-3-.79-3.65h0c1.57-.49,1.57-2.6,0-3.41h0c-2-1-1.33-3.72.8-3.48h0a1.74,1.74,0,0,0,1.47-3h0a1.78,1.78,0,0,1,2.26-2.73h0a1.76,1.76,0,0,0,2.67-2h0c-.68-2,1.91-3.15,3.32-1.49h0c1.14,1.33,3.26.89,3.42-.71h0c.21-2,3.18-2,3.82,0h0c.51,1.6,2.73,2,3.57.71h0c1.06-1.65,3.9-.49,3.65,1.5h0A2.13,2.13,0,0,0,710,53.43Z"/><path class="cls-4" d="M707.35,57.67h0c2.11-.63,4.38,1.86,3.21,3.53h0c-.82,1.18.09,3,1.76,3.5h0c2.37.73,2.84,3.7.67,4.22h0c-1.53.36-1.87,2.12-.66,3.39h0c1.72,1.8.21,4.13-2.13,3.29h0c-1.66-.59-3.12.44-2.83,2h0c.41,2.19-2.5,3-4.12,1.1h0c-1.15-1.31-3.18-1.4-3.92-.17h0c-1.05,1.75-4.25.69-4.53-1.5h0a2.9,2.9,0,0,0-3.51-2.27h0c-2.11.63-4.38-1.86-3.21-3.53h0c.82-1.18-.09-3-1.76-3.51h0C684,67,683.48,64,685.65,63.5h0c1.53-.36,1.87-2.12.66-3.39h0c-1.72-1.8-.21-4.13,2.13-3.29h0c1.66.59,3.12-.44,2.83-2h0c-.41-2.19,2.5-3,4.12-1.11h0c1.15,1.32,3.18,1.41,3.92.18h0c1.05-1.75,4.25-.69,4.53,1.5h0A2.9,2.9,0,0,0,707.35,57.67Z"/><path class="cls-5" d="M705.42,59.61h0c1.49-.54,3,1.19,2.09,2.45h0a1.68,1.68,0,0,0,1.08,2.49h0a1.58,1.58,0,0,1,.3,3h0a1.5,1.5,0,0,0-.59,2.5h0a1.51,1.51,0,0,1-1.61,2.48h0a1.5,1.5,0,0,0-2,1.56h0a1.59,1.59,0,0,1-2.91,1h0a1.67,1.67,0,0,0-2.71,0h0a1.72,1.72,0,0,1-3.09-.92h0a1.79,1.79,0,0,0-2.34-1.52h0a1.72,1.72,0,0,1-2.1-2.45h0a1.66,1.66,0,0,0-1.08-2.48h0a1.59,1.59,0,0,1-.3-3h0a1.5,1.5,0,0,0,.6-2.5h0a1.51,1.51,0,0,1,1.61-2.48h0a1.5,1.5,0,0,0,2-1.57h0a1.58,1.58,0,0,1,2.9-1h0a1.67,1.67,0,0,0,2.71,0h0a1.72,1.72,0,0,1,3.09.91h0A1.79,1.79,0,0,0,705.42,59.61Z"/><path class="cls-4" d="M702.6,63.44h0c1.67.28,2.59,2.18,1.55,3.23h0a1.61,1.61,0,0,0-.34,1.64h0c.5,1.54-1,2.65-2.61,1.89h0a2.11,2.11,0,0,0-1.86-.06h0a2.32,2.32,0,0,1-3.18-2.06h0a2.1,2.1,0,0,0-.8-1.67h0c-1.34-1.12-1-3,.65-3.16h0a1.6,1.6,0,0,0,1.36-1h0c.54-1.37,2.65-1.31,3.58.11h0A2.44,2.44,0,0,0,702.6,63.44Z"/><path class="cls-4" d="M723.31,77.82h0c2.15-1.34,4.87,1.29,3.49,3.38h0a2.52,2.52,0,0,0,2.57,3.7h0c2.6-.33,4,3.07,1.87,4.37h0c-1.75,1-1.21,3.69.86,4.28h0c2.59.74,2.54,4.31-.07,4.6h0a2.25,2.25,0,0,0-1,4.12h0a2.27,2.27,0,0,1-2,4h0a2.23,2.23,0,0,0-2.68,3.25h0c1.31,2.32-1.48,4.47-3.59,2.77h0a2.31,2.31,0,0,0-3.9,1.82h0c.26,2.56-3.28,3.36-4.55,1h0c-1-1.87-3.78-1.83-4.45.07h0c-.83,2.37-4.52,1.67-4.73-.89h0a2.56,2.56,0,0,0-4.22-1.7h0a2.53,2.53,0,0,1-4.09-2.65h0a2.56,2.56,0,0,0-3.27-3.16h0c-2.43.85-4.57-2.23-2.75-4h0c1.46-1.39.38-3.92-1.75-4.09h0c-2.65-.2-3.36-3.77-.92-4.58h0a2.3,2.3,0,0,0,.07-4.29h0c-2.41-1.23-1.59-4.66,1.06-4.41h0a2.23,2.23,0,0,0,1.88-3.77h0A2.27,2.27,0,0,1,694,78.25h0a2.26,2.26,0,0,0,3.36-2.59h0c-.8-2.49,2.44-4,4.17-1.94h0c1.38,1.66,4,1.06,4.26-1h0c.3-2.52,4-2.57,4.75-.07h0a2.51,2.51,0,0,0,4.43.83h0c1.34-2.11,4.85-.7,4.51,1.81h0A2.58,2.58,0,0,0,723.31,77.82Z"/><path class="cls-5" d="M720.93,80.76h0c1.72-1,3.93,1.08,2.85,2.72h0c-.87,1.31.44,3.16,2.11,3h0c2.08-.23,3.3,2.48,1.56,3.49h0c-1.4.8-.94,2.92.74,3.41h0c2.09.61,2.09,3.45,0,3.64h0a1.77,1.77,0,0,0-.75,3.26h0a1.78,1.78,0,0,1-1.57,3.18h0a1.73,1.73,0,0,0-2.11,2.54h0c1.08,1.86-1.14,3.53-2.85,2.16h0c-1.38-1.11-3.31-.24-3.12,1.39h0c.24,2-2.6,2.63-3.65.76h0c-.84-1.5-3.06-1.5-3.57,0h0c-.65,1.87-3.62,1.27-3.82-.76h0a2.11,2.11,0,0,0-3.42-1.4h0A2.08,2.08,0,0,1,700,106h0a2.11,2.11,0,0,0-2.67-2.55h0c-1.94.65-3.69-1.82-2.25-3.17h0c1.16-1.08.25-3.1-1.46-3.26h0c-2.13-.2-2.75-3-.8-3.65h0c1.58-.49,1.58-2.6,0-3.41h0c-2-1-1.34-3.71.8-3.48h0a1.74,1.74,0,0,0,1.46-3h0a1.78,1.78,0,0,1,2.26-2.72h0a1.76,1.76,0,0,0,2.67-2h0c-.67-2,1.92-3.15,3.33-1.49h0c1.13,1.33,3.25.89,3.42-.71h0c.2-2,3.18-2,3.82,0h0c.51,1.6,2.72,2,3.57.72h0c1.05-1.66,3.89-.5,3.65,1.49h0A2.13,2.13,0,0,0,720.93,80.76Z"/><path class="cls-4" d="M718.23,85h0c2.11-.63,4.39,1.86,3.22,3.53h0c-.82,1.18.09,3,1.76,3.51h0c2.37.72,2.84,3.69.67,4.21h0c-1.53.36-1.88,2.12-.66,3.39h0c1.71,1.8.21,4.13-2.14,3.29h0c-1.65-.59-3.12.44-2.83,2h0c.42,2.19-2.49,3-4.12,1.11h0c-1.14-1.32-3.17-1.41-3.91-.18h0c-1.05,1.75-4.25.69-4.54-1.5h0a2.89,2.89,0,0,0-3.5-2.27h0c-2.11.63-4.39-1.86-3.22-3.53h0c.82-1.18-.09-3-1.76-3.5h0c-2.36-.72-2.84-3.7-.67-4.22h0c1.53-.36,1.88-2.12.66-3.39h0c-1.71-1.8-.21-4.12,2.14-3.29h0c1.65.59,3.12-.44,2.83-2h0c-.42-2.19,2.49-3,4.12-1.1h0c1.14,1.31,3.17,1.4,3.91.17h0c1-1.74,4.25-.69,4.54,1.5h0A2.89,2.89,0,0,0,718.23,85Z"/><path class="cls-5" d="M716.3,86.94h0a1.72,1.72,0,0,1,2.1,2.44h0a1.67,1.67,0,0,0,1.08,2.49h0a1.59,1.59,0,0,1,.3,3h0a1.49,1.49,0,0,0-.59,2.5h0a1.51,1.51,0,0,1-1.62,2.48h0a1.5,1.5,0,0,0-2,1.56h0a1.58,1.58,0,0,1-2.9,1h0a1.67,1.67,0,0,0-2.71,0h0a1.72,1.72,0,0,1-3.09-.91h0a1.79,1.79,0,0,0-2.35-1.52h0c-1.49.54-3-1.19-2.09-2.45h0a1.68,1.68,0,0,0-1.08-2.49h0a1.58,1.58,0,0,1-.3-3h0a1.5,1.5,0,0,0,.59-2.5h0a1.51,1.51,0,0,1,1.61-2.48h0a1.5,1.5,0,0,0,2-1.56h0a1.59,1.59,0,0,1,2.91-1h0a1.67,1.67,0,0,0,2.71,0h0a1.72,1.72,0,0,1,3.09.92h0A1.79,1.79,0,0,0,716.3,86.94Z"/><path class="cls-4" d="M713.48,90.77h0c1.67.27,2.59,2.17,1.56,3.22h0a1.59,1.59,0,0,0-.34,1.64h0c.49,1.54-1.05,2.65-2.62,1.89h0a2.11,2.11,0,0,0-1.86-.06h0a2.31,2.31,0,0,1-3.17-2.06h0a2.14,2.14,0,0,0-.81-1.67h0c-1.34-1.12-1-3,.66-3.16h0a1.58,1.58,0,0,0,1.35-1h0c.54-1.37,2.66-1.31,3.58.11h0A2.51,2.51,0,0,0,713.48,90.77Z"/><path class="cls-4" d="M116,46.75h0c1.08-2.29,4.8-1.56,4.77.94h0a2.52,2.52,0,0,0,4.17,1.71h0c2-1.69,5.07.37,3.95,2.64h0a2.38,2.38,0,0,0,3.05,3.13h0c2.57-.79,4.47,2.24,2.44,3.89h0a2.26,2.26,0,0,0,1.41,4h0a2.27,2.27,0,0,1,.51,4.47h0a2.23,2.23,0,0,0-.48,4.18h0a2.29,2.29,0,0,1-1.5,4.28h0A2.3,2.3,0,0,0,132,79.64h0c1.61,2-.93,4.61-3.27,3.35h0c-1.87-1-4.16.51-3.69,2.47h0c.59,2.44-2.88,3.86-4.46,1.83h0a2.56,2.56,0,0,0-4.46.87h0a2.54,2.54,0,0,1-4.88,0h0a2.56,2.56,0,0,0-4.46-.87h0c-1.58,2-5,.61-4.46-1.83h0c.47-2-1.82-3.49-3.69-2.47h0c-2.34,1.26-4.88-1.34-3.26-3.35h0A2.31,2.31,0,0,0,93.12,76h0a2.29,2.29,0,0,1-1.5-4.28h0a2.23,2.23,0,0,0-.48-4.18h0a2.27,2.27,0,0,1,.51-4.47h0a2.26,2.26,0,0,0,1.41-4h0c-2-1.65-.13-4.68,2.44-3.89h0a2.38,2.38,0,0,0,3-3.13h0c-1.12-2.27,2-4.33,4-2.64h0a2.52,2.52,0,0,0,4.17-1.71h0c0-2.5,3.69-3.23,4.77-.94h0A2.57,2.57,0,0,0,116,46.75Z"/><path class="cls-5" d="M115.6,50.51h0c.88-1.8,3.9-1.22,3.88.74h0c0,1.57,2.08,2.41,3.38,1.34h0c1.63-1.32,4.12.29,3.21,2.08h0c-.73,1.43.8,3,2.48,2.46h0c2.09-.63,3.63,1.76,2,3.06h0a1.76,1.76,0,0,0,1.14,3.14h0a1.77,1.77,0,0,1,.42,3.51h0a1.74,1.74,0,0,0-.39,3.29h0c1.92,1,1,3.58-1.22,3.36h0c-1.76-.18-2.91,1.6-1.86,2.87h0c1.31,1.57-.75,3.62-2.65,2.62h0c-1.52-.8-3.38.41-3,1.94h0c.48,1.92-2.34,3-3.61,1.44h0a2.11,2.11,0,0,0-3.63.69h0a2.08,2.08,0,0,1-4,0h0a2.11,2.11,0,0,0-3.63-.69h0c-1.27,1.6-4.09.48-3.61-1.44h0c.38-1.53-1.48-2.74-3-1.94h0c-1.9,1-4-1-2.65-2.62h0c1.05-1.27-.1-3-1.86-2.87h0c-2.18.22-3.14-2.39-1.22-3.36h0a1.74,1.74,0,0,0-.39-3.29h0a1.77,1.77,0,0,1,.42-3.51h0A1.76,1.76,0,0,0,97,60.19h0c-1.65-1.3-.11-3.69,2-3.06h0c1.68.5,3.21-1,2.48-2.46h0c-.91-1.79,1.58-3.4,3.21-2.08h0c1.3,1.07,3.4.23,3.38-1.34h0c0-2,3-2.54,3.88-.74h0A2.12,2.12,0,0,0,115.6,50.51Z"/><path class="cls-4" d="M115.65,55.54h0c1.42-1.68,4.69-.83,4.62,1.21h0c0,1.43,1.7,2.46,3.38,2h0c2.38-.68,4.39,1.56,2.85,3.17h0c-1.08,1.14-.41,2.8,1.29,3.21h0c2.43.57,2.43,3.34,0,3.92h0c-1.7.4-2.37,2.07-1.29,3.21h0c1.54,1.61-.47,3.85-2.85,3.17h0c-1.68-.48-3.43.54-3.38,2h0c.07,2-3.2,2.89-4.62,1.21h0a2.91,2.91,0,0,0-4.18,0h0c-1.43,1.68-4.69.83-4.62-1.21h0c.05-1.44-1.7-2.46-3.38-2h0c-2.38.68-4.4-1.56-2.86-3.17h0c1.09-1.14.42-2.81-1.29-3.21h0c-2.42-.58-2.42-3.35,0-3.92h0c1.71-.41,2.38-2.07,1.29-3.21h0c-1.54-1.61.48-3.85,2.86-3.17h0c1.68.48,3.43-.55,3.38-2h0c-.07-2,3.19-2.89,4.62-1.21h0A2.91,2.91,0,0,0,115.65,55.54Z"/><path class="cls-5" d="M115.08,58.22h0a1.72,1.72,0,0,1,3.09.91h0a1.67,1.67,0,0,0,2.26,1.5h0A1.58,1.58,0,0,1,122.34,63h0a1.5,1.5,0,0,0,.87,2.42h0a1.51,1.51,0,0,1,0,3h0a1.51,1.51,0,0,0-.87,2.43h0c1,1.21-.31,2.91-1.91,2.39h0a1.67,1.67,0,0,0-2.26,1.5h0a1.72,1.72,0,0,1-3.09.91h0a1.79,1.79,0,0,0-2.79,0h0a1.72,1.72,0,0,1-3.09-.91h0a1.67,1.67,0,0,0-2.26-1.5h0c-1.59.52-2.94-1.18-1.91-2.39h0a1.5,1.5,0,0,0-.86-2.43h0a1.51,1.51,0,0,1,0-3h0A1.49,1.49,0,0,0,105,63h0a1.58,1.58,0,0,1,1.91-2.39h0a1.67,1.67,0,0,0,2.26-1.5h0a1.72,1.72,0,0,1,3.09-.91h0A1.79,1.79,0,0,0,115.08,58.22Z"/><path class="cls-4" d="M114.8,63h0c1.55-.68,3.36.41,3.06,1.85h0a1.62,1.62,0,0,0,.61,1.57h0c1.25,1,.56,2.79-1.17,3h0a2.15,2.15,0,0,0-1.59,1h0a2.31,2.31,0,0,1-3.78,0h0a2.15,2.15,0,0,0-1.59-1h0c-1.73-.21-2.42-2-1.17-3h0a1.6,1.6,0,0,0,.61-1.57h0c-.3-1.44,1.51-2.53,3.06-1.85h0A2.47,2.47,0,0,0,114.8,63Z"/><path class="cls-4" d="M85,56.75h0c1.08-2.29,4.8-1.56,4.77.94h0a2.52,2.52,0,0,0,4.17,1.71h0c2-1.69,5.07.37,4,2.64h0a2.38,2.38,0,0,0,3,3.13h0c2.57-.79,4.47,2.24,2.44,3.89h0a2.26,2.26,0,0,0,1.41,4h0a2.27,2.27,0,0,1,.51,4.47h0a2.23,2.23,0,0,0-.48,4.18h0a2.29,2.29,0,0,1-1.5,4.28h0A2.3,2.3,0,0,0,101,89.64h0c1.61,2-.93,4.61-3.27,3.35h0c-1.87-1-4.16.51-3.69,2.47h0c.59,2.44-2.88,3.86-4.46,1.83h0a2.56,2.56,0,0,0-4.46.87h0a2.54,2.54,0,0,1-4.88,0h0a2.56,2.56,0,0,0-4.46-.87h0c-1.58,2-5,.61-4.46-1.83h0c.47-2-1.82-3.49-3.69-2.47h0c-2.34,1.26-4.88-1.34-3.26-3.35h0A2.31,2.31,0,0,0,62.12,86h0a2.29,2.29,0,0,1-1.5-4.28h0a2.23,2.23,0,0,0-.48-4.18h0a2.27,2.27,0,0,1,.51-4.47h0a2.26,2.26,0,0,0,1.41-4h0c-2-1.65-.13-4.68,2.44-3.89h0a2.38,2.38,0,0,0,3-3.13h0c-1.12-2.27,2-4.33,4-2.64h0a2.52,2.52,0,0,0,4.17-1.71h0c0-2.5,3.69-3.23,4.77-.94h0A2.57,2.57,0,0,0,85,56.75Z"/><path class="cls-5" d="M84.6,60.51h0c.88-1.8,3.9-1.22,3.88.74h0c0,1.57,2.08,2.41,3.38,1.34h0c1.63-1.32,4.12.29,3.21,2.08h0c-.73,1.43.8,3,2.48,2.46h0c2.09-.63,3.63,1.76,2,3.06h0a1.76,1.76,0,0,0,1.14,3.14h0a1.77,1.77,0,0,1,.42,3.51h0a1.74,1.74,0,0,0-.39,3.29h0c1.92,1,1,3.58-1.22,3.36h0c-1.76-.18-2.91,1.6-1.86,2.87h0C98.93,87.93,96.87,90,95,89h0c-1.52-.8-3.38.41-3,1.94h0c.48,1.92-2.34,3-3.61,1.44h0a2.11,2.11,0,0,0-3.63.69h0a2.08,2.08,0,0,1-4,0h0a2.11,2.11,0,0,0-3.63-.69h0c-1.27,1.6-4.09.48-3.61-1.44h0c.38-1.53-1.48-2.74-3-1.94h0c-1.9,1-4-1-2.65-2.62h0c1.05-1.27-.1-3-1.86-2.87h0c-2.18.22-3.14-2.39-1.22-3.36h0a1.74,1.74,0,0,0-.39-3.29h0a1.77,1.77,0,0,1,.42-3.51h0A1.76,1.76,0,0,0,66,70.19h0c-1.65-1.3-.11-3.69,2-3.06h0c1.68.5,3.21-1,2.48-2.46h0c-.91-1.79,1.58-3.4,3.21-2.08h0c1.3,1.07,3.4.23,3.38-1.34h0c0-2,3-2.54,3.88-.74h0A2.12,2.12,0,0,0,84.6,60.51Z"/><path class="cls-4" d="M84.65,65.54h0c1.42-1.68,4.69-.83,4.62,1.21h0c0,1.43,1.7,2.46,3.38,2h0C95,68.05,97,70.29,95.5,71.9h0c-1.08,1.14-.41,2.8,1.29,3.21h0c2.43.57,2.43,3.34,0,3.92h0c-1.7.4-2.37,2.07-1.29,3.21h0c1.54,1.61-.47,3.85-2.85,3.17h0c-1.68-.48-3.43.54-3.38,2h0c.07,2-3.2,2.89-4.62,1.21h0a2.91,2.91,0,0,0-4.18,0h0c-1.43,1.68-4.69.83-4.62-1.21h0c.05-1.44-1.7-2.46-3.38-2h0c-2.38.68-4.4-1.56-2.86-3.17h0C70.7,81.1,70,79.43,68.32,79h0c-2.42-.58-2.42-3.35,0-3.92h0C70,74.7,70.7,73,69.61,71.9h0c-1.54-1.61.48-3.85,2.86-3.17h0c1.68.48,3.43-.55,3.38-2h0c-.07-2,3.19-2.89,4.62-1.21h0A2.91,2.91,0,0,0,84.65,65.54Z"/><path class="cls-5" d="M84.08,68.22h0a1.72,1.72,0,0,1,3.09.91h0a1.67,1.67,0,0,0,2.26,1.5h0A1.58,1.58,0,0,1,91.34,73h0a1.5,1.5,0,0,0,.87,2.42h0a1.51,1.51,0,0,1,0,3h0a1.51,1.51,0,0,0-.87,2.43h0c1,1.21-.31,2.91-1.91,2.39h0a1.67,1.67,0,0,0-2.26,1.5h0a1.72,1.72,0,0,1-3.09.91h0a1.79,1.79,0,0,0-2.79,0h0a1.72,1.72,0,0,1-3.09-.91h0a1.67,1.67,0,0,0-2.26-1.5h0C74.35,83.74,73,82,74,80.83h0a1.5,1.5,0,0,0-.86-2.43h0a1.51,1.51,0,0,1,0-3h0A1.49,1.49,0,0,0,74,73h0a1.58,1.58,0,0,1,1.91-2.39h0a1.67,1.67,0,0,0,2.26-1.5h0a1.72,1.72,0,0,1,3.09-.91h0A1.79,1.79,0,0,0,84.08,68.22Z"/><path class="cls-4" d="M83.8,73h0c1.55-.68,3.36.41,3.06,1.85h0a1.62,1.62,0,0,0,.61,1.57h0c1.25,1,.56,2.79-1.17,3h0a2.15,2.15,0,0,0-1.59,1h0a2.31,2.31,0,0,1-3.78,0h0a2.15,2.15,0,0,0-1.59-1h0c-1.73-.21-2.42-2-1.17-3h0a1.6,1.6,0,0,0,.61-1.57h0c-.3-1.44,1.51-2.53,3.06-1.85h0A2.47,2.47,0,0,0,83.8,73Z"/><path class="cls-4" d="M109,73.75h0c1.08-2.29,4.8-1.56,4.77.94h0a2.52,2.52,0,0,0,4.17,1.71h0c2-1.69,5.07.37,4,2.64h0a2.38,2.38,0,0,0,3,3.13h0c2.57-.79,4.47,2.24,2.44,3.89h0a2.26,2.26,0,0,0,1.41,4h0a2.27,2.27,0,0,1,.51,4.47h0a2.23,2.23,0,0,0-.48,4.18h0a2.29,2.29,0,0,1-1.5,4.28h0a2.3,2.3,0,0,0-2.28,3.64h0c1.61,2-.93,4.61-3.27,3.35h0c-1.87-1-4.16.51-3.69,2.47h0c.59,2.44-2.88,3.86-4.46,1.83h0a2.56,2.56,0,0,0-4.46.87h0a2.54,2.54,0,0,1-4.88,0h0a2.56,2.56,0,0,0-4.46-.87h0c-1.58,2-5,.61-4.46-1.83h0c.47-2-1.82-3.49-3.69-2.47h0c-2.34,1.26-4.88-1.34-3.26-3.35h0A2.31,2.31,0,0,0,86.12,103h0a2.29,2.29,0,0,1-1.5-4.28h0a2.23,2.23,0,0,0-.48-4.18h0a2.27,2.27,0,0,1,.51-4.47h0a2.26,2.26,0,0,0,1.41-4h0c-2-1.65-.13-4.68,2.44-3.89h0a2.38,2.38,0,0,0,3-3.13h0c-1.12-2.27,2-4.33,4-2.64h0a2.52,2.52,0,0,0,4.17-1.71h0c0-2.5,3.69-3.23,4.77-.94h0A2.57,2.57,0,0,0,109,73.75Z"/><path class="cls-5" d="M108.6,77.51h0c.88-1.8,3.9-1.22,3.88.74h0c0,1.57,2.08,2.41,3.38,1.34h0c1.63-1.32,4.12.29,3.21,2.08h0c-.73,1.43.8,3,2.48,2.46h0c2.09-.63,3.63,1.76,2,3.06h0a1.76,1.76,0,0,0,1.14,3.14h0a1.77,1.77,0,0,1,.42,3.51h0a1.74,1.74,0,0,0-.39,3.29h0c1.92,1,1,3.58-1.22,3.36h0c-1.76-.18-2.91,1.6-1.86,2.87h0c1.31,1.57-.75,3.62-2.65,2.62h0c-1.52-.8-3.38.41-3,1.94h0c.48,1.92-2.34,3-3.61,1.44h0a2.11,2.11,0,0,0-3.63.69h0a2.08,2.08,0,0,1-4,0h0a2.11,2.11,0,0,0-3.63-.69h0c-1.27,1.6-4.09.48-3.61-1.44h0c.38-1.53-1.48-2.74-3-1.94h0c-1.9,1-4-1-2.65-2.62h0c1.05-1.27-.1-3-1.86-2.87h0c-2.18.22-3.14-2.39-1.22-3.36h0a1.74,1.74,0,0,0-.39-3.29h0a1.77,1.77,0,0,1,.42-3.51h0A1.76,1.76,0,0,0,90,87.19h0c-1.65-1.3-.11-3.69,2-3.06h0c1.68.5,3.21-1,2.48-2.46h0c-.91-1.79,1.58-3.4,3.21-2.08h0c1.3,1.07,3.4.23,3.38-1.34h0c0-2,3-2.54,3.88-.74h0A2.12,2.12,0,0,0,108.6,77.51Z"/><path class="cls-4" d="M108.65,82.54h0c1.42-1.68,4.69-.83,4.62,1.21h0c0,1.43,1.7,2.46,3.38,2h0c2.38-.68,4.39,1.56,2.85,3.17h0c-1.08,1.14-.41,2.8,1.29,3.21h0c2.43.57,2.43,3.34,0,3.92h0c-1.7.4-2.37,2.07-1.29,3.21h0c1.54,1.61-.47,3.85-2.85,3.17h0c-1.68-.48-3.43.54-3.38,2h0c.07,2-3.2,2.89-4.62,1.21h0a2.91,2.91,0,0,0-4.18,0h0c-1.43,1.68-4.69.83-4.62-1.21h0c.05-1.44-1.7-2.46-3.38-2h0c-2.38.68-4.4-1.56-2.86-3.17h0C94.7,98.1,94,96.43,92.32,96h0c-2.42-.58-2.42-3.35,0-3.92h0C94,91.7,94.7,90,93.61,88.9h0c-1.54-1.61.48-3.85,2.86-3.17h0c1.68.48,3.43-.55,3.38-2h0c-.07-2,3.19-2.89,4.62-1.21h0A2.91,2.91,0,0,0,108.65,82.54Z"/><path class="cls-5" d="M108.08,85.22h0a1.72,1.72,0,0,1,3.09.91h0a1.67,1.67,0,0,0,2.26,1.5h0A1.58,1.58,0,0,1,115.34,90h0a1.5,1.5,0,0,0,.87,2.42h0a1.51,1.51,0,0,1,0,3h0a1.51,1.51,0,0,0-.87,2.43h0c1,1.21-.31,2.91-1.91,2.39h0a1.67,1.67,0,0,0-2.26,1.5h0a1.72,1.72,0,0,1-3.09.91h0a1.79,1.79,0,0,0-2.79,0h0a1.72,1.72,0,0,1-3.09-.91h0a1.67,1.67,0,0,0-2.26-1.5h0C98.35,100.74,97,99,98,97.83h0a1.5,1.5,0,0,0-.86-2.43h0a1.51,1.51,0,0,1,0-3h0A1.49,1.49,0,0,0,98,90h0a1.58,1.58,0,0,1,1.91-2.39h0a1.67,1.67,0,0,0,2.26-1.5h0a1.72,1.72,0,0,1,3.09-.91h0A1.79,1.79,0,0,0,108.08,85.22Z"/><path class="cls-4" d="M107.8,90h0c1.55-.68,3.36.41,3.06,1.85h0a1.62,1.62,0,0,0,.61,1.57h0c1.25,1,.56,2.79-1.17,3h0a2.15,2.15,0,0,0-1.59,1h0a2.31,2.31,0,0,1-3.78,0h0a2.15,2.15,0,0,0-1.59-1h0c-1.73-.21-2.42-2-1.17-3h0a1.6,1.6,0,0,0,.61-1.57h0c-.3-1.44,1.51-2.53,3.06-1.85h0A2.47,2.47,0,0,0,107.8,90Z"/><path class="cls-6" d="M140.73,126a.45.45,0,0,1,.48.48l-.52,5.18a.58.58,0,0,1-.55.48H135v16.9a.49.49,0,0,1-.48.48h-6.09a.52.52,0,0,1-.51-.48v-16.9h-5.71a.49.49,0,0,1-.48-.48v-5.15a.52.52,0,0,1,.48-.51Z"/><path class="cls-6" d="M149,124.84a.53.53,0,0,1,.51.51v6.89a5.56,5.56,0,0,1,4.44-1.91c4.12,0,6.56,2.31,6.56,6.27V149a.53.53,0,0,1-.51.51h-6a.47.47,0,0,1-.48-.51v-10.7c0-1.37-.62-2.15-1.69-2.15a2.3,2.3,0,0,0-2.27,1.91V149a.53.53,0,0,1-.51.51h-6a.53.53,0,0,1-.52-.51V125.35a.53.53,0,0,1,.52-.51Z"/><path class="cls-6" d="M164,132.92a.55.55,0,0,1,.17-.65,14.53,14.53,0,0,1,7.47-1.94c5.94,0,8.69,3.1,8.69,9.88V149a.53.53,0,0,1-.51.51h-4.34a.56.56,0,0,1-.55-.51l-.24-.92c-1.13,1.19-3.4,1.94-5.91,1.94-4,0-6.56-2.52-6.53-6.27,0-3.34,2.65-5.56,6.53-5.56,2,0,3.78.72,4.47,1.81v-1.43a2.4,2.4,0,0,0-2.65-2.42,9,9,0,0,0-4.12,1.09c-.17.1-.38,0-.52-.27Zm9.25,10.5a2.56,2.56,0,0,0-1.89-.86c-.86,0-1.44.48-1.44,1.23s.58,1.23,1.44,1.23a2.55,2.55,0,0,0,1.89-.85Z"/><path class="cls-6" d="M188.12,132.24c1.1-1.2,3.44-1.91,5.54-1.91,4.67,0,7.22,2.14,7.22,7.46V149a.53.53,0,0,1-.52.51h-6.05a.47.47,0,0,1-.48-.51V138.85c0-1.37-.62-2.15-1.69-2.15a2.28,2.28,0,0,0-2.26,1.91V149a.53.53,0,0,1-.52.51h-6.05a.53.53,0,0,1-.52-.51V131.28a.43.43,0,0,1,.48-.48h3.86a.55.55,0,0,1,.54.34Z"/><path class="cls-6" d="M209.71,124.84a.52.52,0,0,1,.51.48v11.31l3.2-5.42a1,1,0,0,1,.79-.41h6.88c.27,0,.37.17.24.41l-5.09,8.35,6.22,9.58c.17.24,0,.41-.24.41H214.9a.92.92,0,0,1-.72-.41l-4-6.75V149a.53.53,0,0,1-.51.51h-6.05a.53.53,0,0,1-.52-.51V125.32a.52.52,0,0,1,.52-.48Z"/><path class="cls-6" d="M224.11,143.62a.28.28,0,0,1,.44-.14,8.63,8.63,0,0,0,4,1.4c.72.07,1.2-.34,1.2-.85,0-1.74-7.53-1.19-7.53-7.6,0-3.65,3.13-6.1,7.81-6.1a13.54,13.54,0,0,1,6.73,1.94c.18.14.28.31.21.48l-1.75,4a.29.29,0,0,1-.45.14,7.86,7.86,0,0,0-3.95-1.4c-.73-.07-1.21.27-1.21.82,0,1.8,7.53,1.15,7.53,7.63,0,3.65-3,6.1-7.6,6.1a14.64,14.64,0,0,1-6.94-1.94.55.55,0,0,1-.21-.55Z"/><path class="cls-6" d="M254.7,130.8a.48.48,0,0,1,.51.48l-.37,3.31a.56.56,0,0,1-.52.51h-2.2V149a.53.53,0,0,1-.51.51h-6.06A.53.53,0,0,1,245,149V135.1h-2a.49.49,0,0,1-.48-.48v-3.31a.5.5,0,0,1,.48-.51h2v-3.71a.55.55,0,0,1,.51-.48l6.06-.58a.5.5,0,0,1,.51.48v4.29Z"/><path class="cls-6" d="M275.77,140.18c0,5.93-4.06,9.88-10.11,9.88s-10.1-3.95-10.1-9.85,4.05-9.88,10.1-9.88S275.77,134.28,275.77,140.18Zm-13.51,0c0,2.22,1.37,3.72,3.4,3.72s3.41-1.5,3.41-3.75a3.39,3.39,0,0,0-3.41-3.72C263.63,136.46,262.26,138,262.26,140.21Z"/><path class="cls-6" d="M301.51,130.8a.36.36,0,0,1,.38.48L296,149.55c-1.65,5.12-4.5,6.85-8.9,6.85a9.07,9.07,0,0,1-5.85-1.84.67.67,0,0,1-.17-.58l1.93-3.85c.1-.24.27-.31.41-.2a6.3,6.3,0,0,0,3.37,1.22c1.75,0,2.65-.78,3.13-2.76h-2.82a.64.64,0,0,1-.62-.47L281,131.28a.34.34,0,0,1,.34-.48h6.91a.7.7,0,0,1,.65.48l2.65,10.7,2.61-10.7a.65.65,0,0,1,.62-.48Z"/><path class="cls-6" d="M321.45,140.18c0,5.93-4.06,9.88-10.11,9.88s-10.11-3.95-10.11-9.85,4.06-9.88,10.11-9.88S321.45,134.28,321.45,140.18Zm-13.51,0c0,2.22,1.37,3.72,3.4,3.72s3.4-1.5,3.4-3.75-1.37-3.72-3.4-3.72S307.94,138,307.94,140.21Z"/><path class="cls-6" d="M340.73,130.8a.53.53,0,0,1,.52.51v17.76a.53.53,0,0,1-.52.48h-3.89c-.27,0-.44-.24-.55-.51l-.51-1.23a7.46,7.46,0,0,1-5.5,2.25c-4.47,0-7.12-2.83-7.12-7.46V131.31a.53.53,0,0,1,.52-.51h6.05a.53.53,0,0,1,.51.51v10.44a1.79,1.79,0,0,0,1.83,1.94,2.71,2.71,0,0,0,2.09-1.09V131.31a.53.53,0,0,1,.52-.51Z"/><path class="cls-6" d="M347.43,152.35c-.21.54-.48.68-.83.61l-3.61-.89c-.51-.06-.61-.51-.41-.92l2.79-4c.24-.28.55-.55.79-.55h2.64c.59,0,.9.17.69.68Z"/><path class="cls-6" d="M366.47,130.8a.48.48,0,0,1,.52.48l-.38,3.31a.56.56,0,0,1-.52.51h-2.2V149a.53.53,0,0,1-.51.51h-6.05a.53.53,0,0,1-.52-.51V135.1h-2a.49.49,0,0,1-.48-.48v-3.31a.5.5,0,0,1,.48-.51h2v-3.71a.55.55,0,0,1,.52-.48l6.05-.58a.5.5,0,0,1,.51.48v4.29Z"/><path class="cls-6" d="M375.13,124.84a.53.53,0,0,1,.52.51v6.89a5.55,5.55,0,0,1,4.43-1.91c4.13,0,6.57,2.31,6.57,6.27V149a.53.53,0,0,1-.52.51h-6.05a.48.48,0,0,1-.48-.51v-10.7c0-1.37-.62-2.15-1.68-2.15a2.3,2.3,0,0,0-2.27,1.91V149a.53.53,0,0,1-.52.51h-6.05a.53.53,0,0,1-.51-.51V125.35a.53.53,0,0,1,.51-.51Z"/><path class="cls-6" d="M405.86,147.64c.07.24,0,.38-.24.51a13.41,13.41,0,0,1-7.12,1.91c-6.08,0-10.14-3.95-10.14-9.85s4-9.88,10-9.88c5.71,0,9.08,3.64,9.08,9.85a7.92,7.92,0,0,1-.14,1.53c0,.27-.21.41-.52.41h-11s0,2.15,2.89,2.15a13.07,13.07,0,0,0,5.26-1.13.37.37,0,0,1,.51.28Zm-5.29-9.1a2.27,2.27,0,0,0-2.31-2.49,2.39,2.39,0,0,0-2.57,2.49Z"/><path class="cls-6" d="M415,132.92a.53.53,0,0,1,.17-.65,14.49,14.49,0,0,1,7.46-1.94c5.95,0,8.7,3.1,8.7,9.88V149a.53.53,0,0,1-.52.51h-4.33a.56.56,0,0,1-.55-.51l-.24-.92c-1.13,1.19-3.4,1.94-5.91,1.94-3.95,0-6.57-2.52-6.53-6.27,0-3.34,2.64-5.56,6.53-5.56,2,0,3.78.72,4.47,1.81v-1.43a2.4,2.4,0,0,0-2.65-2.42,9.08,9.08,0,0,0-4.13,1.09c-.17.1-.37,0-.51-.27Zm9.25,10.5a2.58,2.58,0,0,0-1.89-.86c-.86,0-1.45.48-1.45,1.23s.59,1.23,1.45,1.23a2.56,2.56,0,0,0,1.89-.85Z"/><path class="cls-6" d="M440.37,124.84a.52.52,0,0,1,.51.48V149a.53.53,0,0,1-.51.51h-6.05a.53.53,0,0,1-.52-.51V125.32a.52.52,0,0,1,.52-.48Z"/><path class="cls-6" d="M454.56,130.8a.48.48,0,0,1,.52.48l-.38,3.31a.55.55,0,0,1-.52.51H452V149a.53.53,0,0,1-.51.51h-6.05a.53.53,0,0,1-.52-.51V135.1h-2a.49.49,0,0,1-.48-.48v-3.31a.5.5,0,0,1,.48-.51h2v-3.71a.55.55,0,0,1,.52-.48l6.05-.58a.5.5,0,0,1,.51.48v4.29Z"/><path class="cls-6" d="M456.83,132.92a.53.53,0,0,1,.17-.65,14.49,14.49,0,0,1,7.46-1.94c6,0,8.7,3.1,8.7,9.88V149a.53.53,0,0,1-.52.51h-4.33a.56.56,0,0,1-.55-.51l-.24-.92c-1.13,1.19-3.4,1.94-5.91,1.94-4,0-6.57-2.52-6.53-6.27,0-3.34,2.64-5.56,6.53-5.56,2,0,3.78.72,4.47,1.81v-1.43a2.4,2.4,0,0,0-2.65-2.42,9.08,9.08,0,0,0-4.13,1.09c-.17.1-.37,0-.51-.27Zm9.25,10.5a2.58,2.58,0,0,0-1.89-.86c-.86,0-1.45.48-1.45,1.23s.59,1.23,1.45,1.23a2.56,2.56,0,0,0,1.89-.85Z"/><path class="cls-6" d="M486.53,130.8a.47.47,0,0,1,.48.48v4.43a.47.47,0,0,1-.48.48h-.9a3.29,3.29,0,0,0-2.92,1.43V149a.53.53,0,0,1-.51.51h-6.06a.53.53,0,0,1-.51-.51V131.31a.52.52,0,0,1,.51-.47H480c.27,0,.45.24.55.51l.51,1.5a5.9,5.9,0,0,1,4.54-2Z"/><path class="cls-6" d="M490.3,143.62a.29.29,0,0,1,.45-.14,8.63,8.63,0,0,0,4,1.4c.72.07,1.2-.34,1.2-.85,0-1.74-7.53-1.19-7.53-7.6,0-3.65,3.13-6.1,7.8-6.1a13.55,13.55,0,0,1,6.74,1.94c.17.14.28.31.21.48l-1.75,4a.29.29,0,0,1-.45.14,7.89,7.89,0,0,0-4-1.4c-.72-.07-1.2.27-1.2.82,0,1.8,7.53,1.15,7.53,7.63,0,3.65-3,6.1-7.6,6.1a14.64,14.64,0,0,1-6.94-1.94c-.17-.17-.28-.34-.21-.55Z"/><path class="cls-6" d="M510.89,132.92a.55.55,0,0,1,.17-.65,14.53,14.53,0,0,1,7.47-1.94c5.94,0,8.69,3.1,8.69,9.88V149a.53.53,0,0,1-.51.51h-4.33a.56.56,0,0,1-.55-.51l-.25-.92c-1.13,1.19-3.4,1.94-5.91,1.94-3.95,0-6.56-2.52-6.53-6.27,0-3.34,2.65-5.56,6.53-5.56,2,0,3.78.72,4.47,1.81v-1.43a2.39,2.39,0,0,0-2.65-2.42,9,9,0,0,0-4.12,1.09c-.17.1-.38,0-.52-.27Zm9.25,10.5a2.56,2.56,0,0,0-1.89-.86c-.86,0-1.44.48-1.44,1.23s.58,1.23,1.44,1.23a2.55,2.55,0,0,0,1.89-.85Z"/><path class="cls-6" d="M540.59,130.8a.47.47,0,0,1,.48.48v4.43a.47.47,0,0,1-.48.48h-.89a3.27,3.27,0,0,0-2.92,1.43V149a.53.53,0,0,1-.52.51h-6a.53.53,0,0,1-.52-.51V131.31a.52.52,0,0,1,.52-.47h3.88c.28,0,.45.24.55.51l.52,1.5a5.89,5.89,0,0,1,4.54-2Z"/><path class="cls-6" d="M558.57,147.64c.07.24,0,.38-.24.51a13.41,13.41,0,0,1-7.12,1.91c-6.08,0-10.14-3.95-10.14-9.85s4-9.88,10-9.88c5.71,0,9.08,3.64,9.08,9.85a7.92,7.92,0,0,1-.14,1.53.46.46,0,0,1-.52.41h-11s0,2.15,2.88,2.15a13,13,0,0,0,5.26-1.13.38.38,0,0,1,.52.28Zm-5.3-9.1a2.26,2.26,0,0,0-2.3-2.49,2.39,2.39,0,0,0-2.58,2.49Z"/><path class="cls-6" d="M573.07,124.84a.53.53,0,0,1,.52.48V149a.53.53,0,0,1-.52.51H567a.53.53,0,0,1-.52-.51V125.32a.52.52,0,0,1,.52-.48Z"/><path class="cls-6" d="M595.72,140.18c0,5.93-4.05,9.88-10.1,9.88s-10.11-3.95-10.11-9.85,4.06-9.88,10.11-9.88S595.72,134.28,595.72,140.18Zm-13.51,0a3.39,3.39,0,0,0,3.41,3.72c2,0,3.4-1.5,3.4-3.75a3.39,3.39,0,0,0-3.4-3.72C583.59,136.46,582.21,138,582.21,140.21Z"/><path class="cls-6" d="M617.31,140.18c0,5.93-4.06,9.88-10.11,9.88s-10.11-3.95-10.11-9.85,4.06-9.88,10.11-9.88S617.31,134.28,617.31,140.18Zm-13.51,0c0,2.22,1.37,3.72,3.4,3.72s3.4-1.5,3.4-3.75-1.37-3.72-3.4-3.72S603.8,138,603.8,140.21Z"/><path class="cls-6" d="M625.79,124.84a.52.52,0,0,1,.52.48v11.31l3.2-5.42a1,1,0,0,1,.79-.41h6.87c.28,0,.38.17.24.41l-5.08,8.35,6.22,9.58c.17.24,0,.41-.24.41H631a.94.94,0,0,1-.73-.41l-4-6.75V149a.53.53,0,0,1-.52.51h-6a.53.53,0,0,1-.51-.51V125.32a.52.52,0,0,1,.51-.48Z"/><path class="cls-6" d="M647.55,126.82c0,2-1.51,3.37-3.78,3.37s-3.78-1.36-3.78-3.37a3.79,3.79,0,0,1,7.56,0Zm-.72,4a.52.52,0,0,1,.51.48V149a.53.53,0,0,1-.51.51h-6.05a.53.53,0,0,1-.52-.51V131.28a.52.52,0,0,1,.52-.48Z"/><path class="cls-6" d="M655.15,132.24c1.1-1.2,3.43-1.91,5.53-1.91,4.68,0,7.22,2.14,7.22,7.46V149a.53.53,0,0,1-.52.51h-6a.48.48,0,0,1-.48-.51V138.85c0-1.37-.62-2.15-1.68-2.15a2.3,2.3,0,0,0-2.27,1.91V149a.53.53,0,0,1-.52.51h-6a.53.53,0,0,1-.51-.51V131.28a.43.43,0,0,1,.48-.48h3.85a.57.57,0,0,1,.55.34Z"/><path class="cls-6" d="M682.09,147.1c-.55,1.09-2.2,1.8-4.12,1.8-5,0-8.35-3.57-8.35-9,0-6,3.09-9.61,8.35-9.61,2.65,0,4.74.71,5.64,1.94l.62-1a1,1,0,0,1,.79-.51h3.64a.49.49,0,0,1,.52.51v16.5c0,5.15-4.71,8.59-10.56,8.59-3.4,0-6.43-.78-8.11-2.14a.53.53,0,0,1-.21-.58l1.76-4.23c.1-.24.31-.34.51-.2a9.94,9.94,0,0,0,6,1.9c2.17,0,3.47-1.12,3.47-3.06Zm0-8.87a2.44,2.44,0,0,0-2.37-1.53c-1.72,0-2.71,1.19-2.71,3.24s1,3.27,2.71,3.27a2.44,2.44,0,0,0,2.37-1.53Z"/><path class="cls-6" d="M119.84,172.53a6.91,6.91,0,0,1,4.2-1.3c5.43,0,9.07,4,9.07,9.85S129.47,191,124,191a8.24,8.24,0,0,1-5.81-2.25l-.52,1.23c-.13.3-.31.51-.55.51h-3.88a.53.53,0,0,1-.52-.51V166.22a.52.52,0,0,1,.52-.48h6a.52.52,0,0,1,.51.48Zm0,10.73a2.91,2.91,0,0,0,2.72,1.88c1.89,0,3.16-1.64,3.16-4.09s-1.27-4-3.16-4a2.91,2.91,0,0,0-2.72,1.88Z"/><path class="cls-6" d="M152,188.55c.07.24,0,.37-.24.51a13.49,13.49,0,0,1-7.11,1.91c-6.09,0-10.15-4-10.15-9.85s4-9.89,10-9.89c5.7,0,9.07,3.65,9.07,9.85a7.3,7.3,0,0,1-.14,1.54c0,.27-.2.41-.51.41h-11s0,2.14,2.89,2.14a13.23,13.23,0,0,0,5.26-1.12.36.36,0,0,1,.51.27Zm-5.29-9.1a2.27,2.27,0,0,0-2.3-2.49,2.39,2.39,0,0,0-2.58,2.49Z"/><path class="cls-6" d="M156.65,173.82a.54.54,0,0,1,.18-.65,14.59,14.59,0,0,1,7.46-1.94c5.94,0,8.69,3.1,8.69,9.89V190a.53.53,0,0,1-.51.51h-4.33a.56.56,0,0,1-.55-.51l-.24-.92c-1.14,1.19-3.41,1.94-5.92,1.94-4,0-6.56-2.52-6.53-6.27,0-3.34,2.65-5.56,6.53-5.56,2,0,3.78.72,4.47,1.81v-1.44a2.4,2.4,0,0,0-2.65-2.42,9,9,0,0,0-4.12,1.1c-.17.1-.38,0-.52-.28Zm9.25,10.5a2.55,2.55,0,0,0-1.89-.85c-.86,0-1.44.48-1.44,1.23s.58,1.22,1.44,1.22a2.55,2.55,0,0,0,1.89-.85Z"/><path class="cls-6" d="M192.82,171.71a.53.53,0,0,1,.51.51V190a.52.52,0,0,1-.51.48h-3.89c-.27,0-.45-.24-.55-.51l-.51-1.23a7.5,7.5,0,0,1-5.51,2.25c-4.47,0-7.11-2.83-7.11-7.47V172.22a.53.53,0,0,1,.51-.51h6.05a.53.53,0,0,1,.52.51v10.43a1.78,1.78,0,0,0,1.82,1.94,2.75,2.75,0,0,0,2.1-1.09V172.22a.53.53,0,0,1,.51-.51Z"/><path class="cls-6" d="M207,171.71a.48.48,0,0,1,.52.48l-.38,3.3a.56.56,0,0,1-.52.51h-2.2V190a.53.53,0,0,1-.51.51h-6a.53.53,0,0,1-.52-.51V176h-2a.48.48,0,0,1-.48-.47v-3.31a.49.49,0,0,1,.48-.51h2V168a.54.54,0,0,1,.52-.47l6-.58a.49.49,0,0,1,.51.47v4.3Z"/><path class="cls-6" d="M216.46,167.72c0,2-1.51,3.37-3.78,3.37s-3.78-1.36-3.78-3.37a3.79,3.79,0,0,1,7.56,0Zm-.72,4a.52.52,0,0,1,.51.48V190a.53.53,0,0,1-.51.51h-6.05a.53.53,0,0,1-.52-.51V172.19a.52.52,0,0,1,.52-.48Z"/><path class="cls-6" d="M229.59,171.71a.48.48,0,0,1,.52.48l-.38,3.3a.56.56,0,0,1-.52.51h-2v14a.43.43,0,0,1-.48.48h-6.12a.43.43,0,0,1-.48-.48V176h-1.83a.48.48,0,0,1-.48-.47v-3.31a.49.49,0,0,1,.48-.51h1.9c.17-4.06,2.2-6,6.25-6h3a.43.43,0,0,1,.48.48v3.31a.46.46,0,0,1-.48.51c-1.3,0-2,.51-2.2,1.67Z"/><path class="cls-6" d="M248.7,171.71a.53.53,0,0,1,.52.51V190a.52.52,0,0,1-.52.48h-3.88c-.28,0-.45-.24-.55-.51l-.52-1.23a7.48,7.48,0,0,1-5.5,2.25c-4.47,0-7.12-2.83-7.12-7.47V172.22a.53.53,0,0,1,.52-.51h6a.53.53,0,0,1,.52.51v10.43a1.78,1.78,0,0,0,1.82,1.94,2.75,2.75,0,0,0,2.1-1.09V172.22a.53.53,0,0,1,.51-.51Z"/><path class="cls-6" d="M258.25,165.74a.52.52,0,0,1,.52.48V190a.53.53,0,0,1-.52.51h-6a.53.53,0,0,1-.52-.51V166.22a.52.52,0,0,1,.52-.48Z"/><path class="cls-6" d="M266.92,173.82a.52.52,0,0,1,.17-.65,14.59,14.59,0,0,1,7.46-1.94c5.94,0,8.69,3.1,8.69,9.89V190a.53.53,0,0,1-.51.51H278.4a.56.56,0,0,1-.55-.51l-.24-.92c-1.14,1.19-3.41,1.94-5.92,1.94-3.95,0-6.56-2.52-6.53-6.27,0-3.34,2.65-5.56,6.53-5.56,2,0,3.78.72,4.47,1.81v-1.44a2.39,2.39,0,0,0-2.64-2.42,9.05,9.05,0,0,0-4.13,1.1c-.17.1-.38,0-.51-.28Zm9.24,10.5a2.55,2.55,0,0,0-1.89-.85c-.86,0-1.44.48-1.44,1.23s.58,1.22,1.44,1.22a2.55,2.55,0,0,0,1.89-.85Z"/><path class="cls-6" d="M291,173.14c1.1-1.19,3.44-1.91,5.54-1.91,4.67,0,7.22,2.15,7.22,7.47V190a.53.53,0,0,1-.52.51h-6a.48.48,0,0,1-.48-.51v-10.2c0-1.36-.62-2.14-1.68-2.14a2.29,2.29,0,0,0-2.27,1.9V190a.53.53,0,0,1-.52.51h-6a.53.53,0,0,1-.52-.51V172.19a.44.44,0,0,1,.49-.48h3.85a.56.56,0,0,1,.55.34Z"/><path class="cls-6" d="M325.35,165.74a.53.53,0,0,1,.52.48V190a.53.53,0,0,1-.52.51h-3.89c-.24,0-.41-.21-.55-.51l-.51-1.23a8.24,8.24,0,0,1-5.81,2.25c-5.43,0-9.08-4-9.08-9.89s3.65-9.85,9.08-9.85a6.88,6.88,0,0,1,4.19,1.3v-6.31a.52.52,0,0,1,.52-.48ZM318.78,179a2.89,2.89,0,0,0-2.71-1.88c-1.89,0-3.17,1.57-3.17,4s1.28,4.09,3.17,4.09a2.89,2.89,0,0,0,2.71-1.88Z"/><path class="cls-6" d="M344,171.71a.48.48,0,0,1,.52.48l-.38,3.3a.56.56,0,0,1-.52.51h-2.2V190a.53.53,0,0,1-.51.51h-6.05a.53.53,0,0,1-.52-.51V176h-2a.48.48,0,0,1-.48-.47v-3.31a.49.49,0,0,1,.48-.51h2V168a.54.54,0,0,1,.52-.47l6.05-.58a.49.49,0,0,1,.51.47v4.3Z"/><path class="cls-6" d="M352.67,165.74a.53.53,0,0,1,.52.51v6.89a5.55,5.55,0,0,1,4.43-1.91c4.13,0,6.57,2.32,6.57,6.27V190a.53.53,0,0,1-.52.51h-6.05a.48.48,0,0,1-.48-.51V179.24c0-1.36-.62-2.15-1.68-2.15a2.3,2.3,0,0,0-2.27,1.91V190a.53.53,0,0,1-.52.51h-6.05a.53.53,0,0,1-.52-.51v-23.7a.53.53,0,0,1,.52-.51Z"/><path class="cls-6" d="M383.4,188.55c.07.24,0,.37-.24.51A13.5,13.5,0,0,1,376,191c-6.08,0-10.14-4-10.14-9.85s4-9.89,10-9.89c5.71,0,9.08,3.65,9.08,9.85a8,8,0,0,1-.14,1.54c0,.27-.21.41-.52.41h-11s0,2.14,2.89,2.14a13.23,13.23,0,0,0,5.26-1.12.36.36,0,0,1,.51.27Zm-5.29-9.1A2.27,2.27,0,0,0,375.8,177a2.4,2.4,0,0,0-2.58,2.49Z"/><path class="cls-6" d="M410.62,165.74a.52.52,0,0,1,.52.48V190a.53.53,0,0,1-.52.51h-3.88c-.24,0-.42-.21-.55-.51l-.52-1.23a8.21,8.21,0,0,1-5.81,2.25c-5.43,0-9.07-4-9.07-9.89s3.64-9.85,9.07-9.85a6.91,6.91,0,0,1,4.2,1.3v-6.31a.52.52,0,0,1,.51-.48ZM404.06,179a2.91,2.91,0,0,0-2.72-1.88c-1.89,0-3.16,1.57-3.16,4s1.27,4.09,3.16,4.09a2.91,2.91,0,0,0,2.72-1.88Z"/><path class="cls-6" d="M430.56,188.55c.07.24,0,.37-.24.51A13.53,13.53,0,0,1,423.2,191c-6.08,0-10.14-4-10.14-9.85s4-9.89,10-9.89c5.7,0,9.07,3.65,9.07,9.85a8,8,0,0,1-.13,1.54.46.46,0,0,1-.52.41h-11s0,2.14,2.88,2.14a13.16,13.16,0,0,0,5.26-1.12.37.37,0,0,1,.52.27Zm-5.3-9.1A2.27,2.27,0,0,0,423,177a2.39,2.39,0,0,0-2.58,2.49Z"/><path class="cls-6" d="M435.23,173.82a.53.53,0,0,1,.17-.65,14.59,14.59,0,0,1,7.46-1.94c5.95,0,8.7,3.1,8.7,9.89V190a.53.53,0,0,1-.52.51h-4.33a.56.56,0,0,1-.55-.51l-.24-.92c-1.13,1.19-3.4,1.94-5.91,1.94-4,0-6.57-2.52-6.54-6.27,0-3.34,2.65-5.56,6.54-5.56,2,0,3.78.72,4.46,1.81v-1.44a2.39,2.39,0,0,0-2.64-2.42,9.09,9.09,0,0,0-4.13,1.1c-.17.1-.38,0-.51-.28Zm9.24,10.5a2.53,2.53,0,0,0-1.89-.85c-.86,0-1.44.48-1.44,1.23s.58,1.22,1.44,1.22a2.53,2.53,0,0,0,1.89-.85Z"/><path class="cls-6" d="M473.31,165.74a.52.52,0,0,1,.52.48V190a.53.53,0,0,1-.52.51h-3.88c-.24,0-.41-.21-.55-.51l-.52-1.23a8.21,8.21,0,0,1-5.81,2.25c-5.43,0-9.07-4-9.07-9.89s3.64-9.85,9.07-9.85a6.89,6.89,0,0,1,4.2,1.3v-6.31a.52.52,0,0,1,.51-.48ZM466.75,179a2.91,2.91,0,0,0-2.72-1.88c-1.89,0-3.16,1.57-3.16,4s1.27,4.09,3.16,4.09a2.91,2.91,0,0,0,2.72-1.88Z"/><path class="cls-6" d="M509,171.71a.35.35,0,0,1,.35.48L503.73,190a.7.7,0,0,1-.62.48h-5.32a.84.84,0,0,1-.69-.48l-2.65-9.07L491.8,190a.84.84,0,0,1-.68.48h-5.33a.7.7,0,0,1-.62-.48l-5.61-17.79a.35.35,0,0,1,.35-.48h6.94a.67.67,0,0,1,.66.48l1.78,7.46,1.86-7.46a.61.61,0,0,1,.62-.48h5.36c.52,0,.55.13.62.48l1.86,7.46,1.78-7.46a.67.67,0,0,1,.66-.48Z"/><path class="cls-6" d="M518,167.72c0,2-1.51,3.37-3.78,3.37s-3.78-1.36-3.78-3.37a3.79,3.79,0,0,1,7.56,0Zm-.72,4a.52.52,0,0,1,.51.48V190a.53.53,0,0,1-.51.51h-6.05a.53.53,0,0,1-.52-.51V172.19a.52.52,0,0,1,.52-.48Z"/><path class="cls-6" d="M526.79,165.74a.52.52,0,0,1,.52.48V190a.53.53,0,0,1-.52.51h-6a.53.53,0,0,1-.51-.51V166.22a.52.52,0,0,1,.51-.48Z"/><path class="cls-6" d="M536.35,165.74a.52.52,0,0,1,.51.48V190a.53.53,0,0,1-.51.51H530.3a.53.53,0,0,1-.52-.51V166.22a.52.52,0,0,1,.52-.48Z"/><path class="cls-6" d="M550.89,172.53a6.86,6.86,0,0,1,4.19-1.3c5.43,0,9.08,4,9.08,9.85s-3.65,9.89-9.08,9.89a8.24,8.24,0,0,1-5.81-2.25l-.52,1.23c-.13.3-.3.51-.54.51h-3.89a.53.53,0,0,1-.52-.51V166.22a.52.52,0,0,1,.52-.48h6a.53.53,0,0,1,.52.48Zm0,10.73a2.89,2.89,0,0,0,2.71,1.88c1.89,0,3.16-1.64,3.16-4.09s-1.27-4-3.16-4a2.89,2.89,0,0,0-2.71,1.88Z"/><path class="cls-6" d="M583,188.55c.06.24,0,.37-.25.51a13.49,13.49,0,0,1-7.11,1.91c-6.09,0-10.14-4-10.14-9.85s4-9.89,10-9.89c5.7,0,9.07,3.65,9.07,9.85a7.3,7.3,0,0,1-.14,1.54c0,.27-.2.41-.51.41h-11s0,2.14,2.89,2.14a13.23,13.23,0,0,0,5.26-1.12.37.37,0,0,1,.52.27Zm-5.3-9.1a2.27,2.27,0,0,0-2.3-2.49,2.39,2.39,0,0,0-2.58,2.49Z"/><path class="cls-6" d="M592.16,173.82a.54.54,0,0,1,.18-.65,14.52,14.52,0,0,1,7.45-1.94c6,0,8.7,3.1,8.7,9.89V190a.53.53,0,0,1-.51.51h-4.33a.56.56,0,0,1-.55-.51l-.24-.92c-1.14,1.19-3.41,1.94-5.92,1.94-4,0-6.56-2.52-6.53-6.27,0-3.34,2.65-5.56,6.53-5.56,2,0,3.78.72,4.47,1.81v-1.44a2.4,2.4,0,0,0-2.65-2.42,9,9,0,0,0-4.12,1.1c-.17.1-.38,0-.52-.28Zm9.25,10.5a2.55,2.55,0,0,0-1.89-.85c-.86,0-1.44.48-1.44,1.23s.58,1.22,1.44,1.22a2.55,2.55,0,0,0,1.89-.85Z"/><path class="cls-6" d="M618,172.53a6.91,6.91,0,0,1,4.2-1.3c5.43,0,9.08,4,9.08,9.85s-3.65,9.89-9.08,9.89a8.24,8.24,0,0,1-5.81-2.25l-.52,1.23c-.13.3-.31.51-.55.51h-3.88A.53.53,0,0,1,611,190V166.22a.52.52,0,0,1,.52-.48h6a.52.52,0,0,1,.51.48Zm0,10.73a2.91,2.91,0,0,0,2.72,1.88c1.89,0,3.16-1.64,3.16-4.09s-1.27-4-3.16-4A2.91,2.91,0,0,0,618,179Z"/><path class="cls-6" d="M639.8,165.74a.52.52,0,0,1,.52.48V190a.53.53,0,0,1-.52.51h-6a.53.53,0,0,1-.51-.51V166.22a.52.52,0,0,1,.51-.48Z"/><path class="cls-6" d="M659.74,188.55c.07.24,0,.37-.24.51a13.5,13.5,0,0,1-7.12,1.91c-6.08,0-10.14-4-10.14-9.85s4-9.89,10-9.89c5.71,0,9.08,3.65,9.08,9.85a8,8,0,0,1-.14,1.54c0,.27-.21.41-.52.41h-11s0,2.14,2.89,2.14a13.23,13.23,0,0,0,5.26-1.12.36.36,0,0,1,.51.27Zm-5.29-9.1a2.27,2.27,0,0,0-2.31-2.49,2.4,2.4,0,0,0-2.58,2.49Z"/><path class="cls-6" d="M678.88,171.71a.48.48,0,0,1,.52.48l-.38,3.3a.55.55,0,0,1-.52.51h-2.2V190a.53.53,0,0,1-.51.51h-6a.53.53,0,0,1-.52-.51V176h-2a.48.48,0,0,1-.48-.47v-3.31a.49.49,0,0,1,.48-.51h2V168a.54.54,0,0,1,.52-.47l6-.58a.49.49,0,0,1,.51.47v4.3Z"/><path class="cls-6" d="M700,181.08c0,5.93-4.05,9.89-10.1,9.89s-10.11-4-10.11-9.85,4.06-9.89,10.11-9.89S700,175.19,700,181.08Zm-13.51,0a3.39,3.39,0,0,0,3.41,3.71c2,0,3.4-1.5,3.4-3.75a3.38,3.38,0,0,0-3.4-3.71C687.82,177.37,686.44,178.87,686.44,181.12Z"/><path class="cls-6" d="M334.13,229.38c.1.18,0,.41-.21.58a13.13,13.13,0,0,1-6.36,1.95c-6.22,0-10.35-4-10.35-9.89s4.13-9.88,10.35-9.88a13.11,13.11,0,0,1,6.36,1.94c.21.17.31.41.21.58l-2,4.16a.39.39,0,0,1-.61.2,6.13,6.13,0,0,0-3.3-1,4,4,0,1,0,0,8,6,6,0,0,0,3.3-1c.24-.17.48-.07.61.21Z"/><path class="cls-6" d="M352,229.45c.07.24,0,.38-.24.51a13.41,13.41,0,0,1-7.12,1.91c-6.08,0-10.14-4-10.14-9.85s4-9.88,10-9.88c5.71,0,9.08,3.64,9.08,9.85a7.92,7.92,0,0,1-.14,1.53c0,.27-.2.41-.52.41h-11s0,2.15,2.89,2.15A13.07,13.07,0,0,0,350,225a.37.37,0,0,1,.51.28Zm-5.29-9.1a2.27,2.27,0,0,0-2.31-2.49,2.39,2.39,0,0,0-2.57,2.49Z"/><path class="cls-6" d="M362,206.65a.52.52,0,0,1,.51.48v23.72a.53.53,0,0,1-.51.51H356a.53.53,0,0,1-.51-.51V207.13a.52.52,0,0,1,.51-.48Z"/><path class="cls-6" d="M382,229.45c.07.24,0,.38-.24.51a13.4,13.4,0,0,1-7.11,1.91c-6.09,0-10.15-4-10.15-9.85s4-9.88,10-9.88c5.71,0,9.08,3.64,9.08,9.85a7.2,7.2,0,0,1-.14,1.53c0,.27-.2.41-.51.41h-11s0,2.15,2.89,2.15A13.07,13.07,0,0,0,380,225a.37.37,0,0,1,.51.28Zm-5.29-9.1a2.27,2.27,0,0,0-2.3-2.49,2.39,2.39,0,0,0-2.58,2.49Z"/><path class="cls-6" d="M392.52,213.43a6.88,6.88,0,0,1,4.2-1.29c5.43,0,9.07,4,9.07,9.85s-3.64,9.88-9.07,9.88a8.17,8.17,0,0,1-5.81-2.25l-.52,1.23c-.14.31-.31.51-.55.51H386a.53.53,0,0,1-.52-.51V207.13a.52.52,0,0,1,.52-.48H392a.52.52,0,0,1,.51.48Zm0,10.74a2.91,2.91,0,0,0,2.72,1.87c1.89,0,3.16-1.63,3.16-4.09s-1.27-3.95-3.16-3.95a2.9,2.9,0,0,0-2.72,1.88Z"/><path class="cls-6" d="M418.61,212.61a.47.47,0,0,1,.48.48v4.43a.47.47,0,0,1-.48.48h-.89a3.3,3.3,0,0,0-2.93,1.43v11.42a.53.53,0,0,1-.51.51h-6a.53.53,0,0,1-.52-.51V213.13a.52.52,0,0,1,.52-.48h3.88c.28,0,.45.24.55.51l.52,1.5a5.87,5.87,0,0,1,4.54-2Z"/><path class="cls-6" d="M420.84,214.73a.55.55,0,0,1,.17-.65,14.49,14.49,0,0,1,7.46-1.94c5.95,0,8.7,3.1,8.7,9.88v8.83a.53.53,0,0,1-.51.51h-4.33a.56.56,0,0,1-.55-.51l-.25-.92c-1.13,1.19-3.4,1.94-5.91,1.94-3.95,0-6.57-2.52-6.53-6.27,0-3.34,2.65-5.56,6.53-5.56,2,0,3.78.72,4.47,1.81v-1.43a2.39,2.39,0,0,0-2.65-2.42,9,9,0,0,0-4.12,1.09c-.17.1-.38,0-.52-.27Zm9.25,10.5a2.56,2.56,0,0,0-1.89-.86c-.86,0-1.44.48-1.44,1.23s.58,1.23,1.44,1.23a2.55,2.55,0,0,0,1.89-.85Z"/><path class="cls-6" d="M450.85,212.61a.48.48,0,0,1,.52.48L451,216.4a.56.56,0,0,1-.52.51h-2.2v13.94a.53.53,0,0,1-.51.51h-6.05a.53.53,0,0,1-.52-.51V216.91h-2a.49.49,0,0,1-.48-.48v-3.3a.5.5,0,0,1,.48-.52h2V208.9a.56.56,0,0,1,.52-.48l6.05-.58a.5.5,0,0,1,.51.48v4.29Z"/><path class="cls-6" d="M469.21,229.45a.39.39,0,0,1-.25.51,13.37,13.37,0,0,1-7.11,1.91c-6.09,0-10.14-4-10.14-9.85s4-9.88,10-9.88c5.7,0,9.07,3.64,9.07,9.85a7.91,7.91,0,0,1-.13,1.53.46.46,0,0,1-.52.41h-11s0,2.15,2.89,2.15a13,13,0,0,0,5.26-1.13.38.38,0,0,1,.52.28Zm-5.3-9.1a2.27,2.27,0,0,0-2.3-2.49,2.39,2.39,0,0,0-2.58,2.49Z"/><path class="cls-6" d="M477.49,226.18c2.95,0,3.78,1.57,3.78,2.8s-.83,2.86-3.78,2.86-3.78-1.57-3.78-2.86S474.56,226.18,477.49,226.18Zm-2.51-.54a.52.52,0,0,1-.52-.48L474,208.35a.53.53,0,0,1,.51-.51h6.05a.53.53,0,0,1,.52.51l-.55,16.81a.52.52,0,0,1-.52.48Z"/><path class="cls-6" d="M489.58,226.18c3,0,3.79,1.57,3.79,2.8s-.83,2.86-3.79,2.86-3.78-1.57-3.78-2.86S486.66,226.18,489.58,226.18Zm-2.51-.54a.52.52,0,0,1-.51-.48L486,208.35a.53.53,0,0,1,.52-.51h6.05a.53.53,0,0,1,.52.51l-.55,16.81a.53.53,0,0,1-.52.48Z"/><path class="cls-6" d="M181.25,50.24c.46,0,.83.35.57.81L170.42,71.4V84.8a.78.78,0,0,1-.77.72h-9.07a.79.79,0,0,1-.78-.72V71.4L148.41,51.05c-.26-.46.1-.81.56-.81H159.7a1.34,1.34,0,0,1,1.18.81l4.23,9.21,4.23-9.21a1.35,1.35,0,0,1,1.19-.81Z"/><path class="cls-6" d="M196.92,86.23c-11,0-18.3-7.36-18.3-18.35s7.32-18.46,18.3-18.46,18.31,7.36,18.31,18.46S207.91,86.23,196.92,86.23Zm0-26.48c-4.22,0-7.06,3.27-7.06,8.13S192.7,76,196.92,76,204,72.73,204,67.88,201.15,59.75,196.92,59.75Z"/><path class="cls-6" d="M245.75,50.24a.86.86,0,0,1,.87.86V72.43c0,9-4.89,13.8-14.23,13.8s-14.12-4.75-14.23-13.8V51.1a.9.9,0,0,1,.88-.86h8.87a.86.86,0,0,1,.87.86V73.35a3.61,3.61,0,1,0,7.22.05V51.1a.9.9,0,0,1,.88-.86Z"/><path class="cls-6" d="M259.56,74.78c.16-.51.52-.67.93-.41a19.52,19.52,0,0,0,7.17,2.45c1.65,0,2.73-.76,2.73-1.94,0-3-14.49-2.86-14.49-14,0-6.85,5.21-11.4,13-11.4a22.47,22.47,0,0,1,11.55,3.68c.41.26.56.66.41.92l-3.25,7.21c-.15.51-.52.66-.93.41A20.79,20.79,0,0,0,269.46,59c-1.6,0-2.63.72-2.63,1.84,0,3,14.59,2.81,14.59,14.06,0,6.8-5.31,11.35-13.25,11.35-4.33,0-8.87-1.33-11.44-3.37-.42-.31-.57-.67-.42-.92Z"/><path class="cls-6" d="M316.38,84.85a.46.46,0,0,1-.46.67H305.71a1.22,1.22,0,0,1-1.09-.67l-1.54-5.37h-9.7l-1.54,5.37a1.22,1.22,0,0,1-1.09.67H280.54a.46.46,0,0,1-.46-.67L291.73,50.9a1.57,1.57,0,0,1,1.24-.66h10.52a1.57,1.57,0,0,1,1.24.66ZM298.23,62.46l-2.78,9.71H301Z"/><path class="cls-6" d="M347.26,50.24a.51.51,0,0,1,.52.71L336,84.8a1,1,0,0,1-.93.72H323.7a1.06,1.06,0,0,1-.93-.72L311,51a.51.51,0,0,1,.52-.71H323a1.07,1.07,0,0,1,1,.71l5.41,21,5.41-21a1.07,1.07,0,0,1,1-.71Z"/><path class="cls-6" d="M374.38,76.31a.74.74,0,0,1,.77.67V84.8a.78.78,0,0,1-.77.72h-24c-.36,0-.72-.41-.82-.77V51a.65.65,0,0,1,.72-.71h23.46a.8.8,0,0,1,.83.71v7.72a.78.78,0,0,1-.83.77H360.3v4h10.93a.61.61,0,0,1,.67.66l-.72,7.16a.9.9,0,0,1-.87.67h-10v4.34Z"/><path class="cls-6" d="M390.72,50.24c10.93,0,18.2,7,18.2,17.64s-7.27,17.64-18.2,17.64h-12a.78.78,0,0,1-.72-.77V51a.77.77,0,0,1,.72-.76Zm.62,26.07c4,0,6.65-3.37,6.65-8.43s-2.68-8.44-6.65-8.44h-2.68V76.31Z"/><path class="cls-6" d="M445.11,50.24a.67.67,0,0,1,.73.71l-.78,7.77a.87.87,0,0,1-.82.72h-7.69V84.8a.73.73,0,0,1-.72.72h-9.12a.79.79,0,0,1-.78-.72V59.44h-8.55a.74.74,0,0,1-.73-.72V51a.77.77,0,0,1,.73-.76Z"/><path class="cls-6" d="M476.41,50.24a.75.75,0,0,1,.77.76V84.8a.75.75,0,0,1-.77.72h-9.64a.74.74,0,0,1-.73-.72V73.35h-7.21V84.8a.75.75,0,0,1-.78.72h-9.64a.77.77,0,0,1-.72-.72V51a.77.77,0,0,1,.72-.76h9.64a.75.75,0,0,1,.78.76V64.35H466V51a.74.74,0,0,1,.73-.76Z"/><path class="cls-6" d="M505.59,76.31a.74.74,0,0,1,.77.67V84.8a.78.78,0,0,1-.77.72h-24c-.36,0-.72-.41-.82-.77V51a.65.65,0,0,1,.72-.71H505a.79.79,0,0,1,.82.71v7.72a.77.77,0,0,1-.82.77H491.51v4h10.93a.61.61,0,0,1,.67.66l-.72,7.16a.9.9,0,0,1-.87.67h-10v4.34Z"/><path class="cls-6" d="M528.63,50.24c10.93,0,18.2,7,18.2,17.64s-7.27,17.64-18.2,17.64h-12a.78.78,0,0,1-.72-.77V51a.77.77,0,0,1,.72-.76Zm.62,26.07c4,0,6.65-3.37,6.65-8.43s-2.68-8.44-6.65-8.44h-2.68V76.31Z"/><path class="cls-6" d="M574.42,76.31a.74.74,0,0,1,.77.67V84.8a.78.78,0,0,1-.77.72h-24c-.36,0-.72-.41-.82-.77V51a.64.64,0,0,1,.72-.71H573.8a.79.79,0,0,1,.82.71v7.72a.77.77,0,0,1-.82.77H560.34v4h10.93a.62.62,0,0,1,.67.66l-.72,7.16a.9.9,0,0,1-.88.67h-10v4.34Z"/><path class="cls-6" d="M611.69,84.85a.46.46,0,0,1-.46.67H601a1.19,1.19,0,0,1-1.08-.67l-1.55-5.37H588.7l-1.55,5.37a1.21,1.21,0,0,1-1.08.67H575.86a.47.47,0,0,1-.47-.67L587,50.9a1.57,1.57,0,0,1,1.24-.66H598.8a1.56,1.56,0,0,1,1.24.66ZM593.54,62.46l-2.78,9.71h5.57Z"/><path class="cls-6" d="M625.4,50.24c10.93,0,18.2,7,18.2,17.64s-7.27,17.64-18.2,17.64h-12a.78.78,0,0,1-.72-.77V51a.77.77,0,0,1,.72-.76ZM626,76.31c4,0,6.65-3.37,6.65-8.43S630,59.44,626,59.44h-2.68V76.31Z"/><path class="cls-6" d="M653.71,77.74c4.43,0,5.67,2.36,5.67,4.2s-1.24,4.29-5.67,4.29S648,83.88,648,81.94,649.32,77.74,653.71,77.74Zm-3.77-.81a.78.78,0,0,1-.77-.72L648.4,51a.78.78,0,0,1,.77-.76h9.07A.78.78,0,0,1,659,51l-.83,25.21a.78.78,0,0,1-.77.72Z"/></g></svg>