<svg xmlns="http://www.w3.org/2000/svg" width="80" height="55" viewBox="0 0 80 55"><defs><style>.cls-1{fill:#fff;}.cls-2{fill:#0b8414;}.cls-3{fill:#ea2199;}.cls-4{fill:#46a3e8;}</style></defs><g id="Animated_items" data-name="Animated items"><g id="skeleton_female_2" data-name="skeleton female 2"><path class="cls-1" d="M14.08,34.36s-28.35-7.07,1.71-26A22.36,22.36,0,0,1,22,5.63C28.5,4,43.05.94,55,4c6.16,1.55,10.86,5.61,12.54,10.73,1.42,4.3,1.89,10-2.42,15.17,0,0,24.6,3.75,4.56,11.26l.91,10.51S66,55,62.83,50.67c0,0-3.19,5.46-8.66.21,0,0-3.65,6-8.2,0,0,0-2.73,6.75-7.29,0,0,0-3.58,6.56-9.53.28,0,0-4.14,6.47-9.6.47V44.87S-3.23,45.62,14.08,34.36Z"/><path class="cls-2" d="M31.38,11h0a1.61,1.61,0,0,1,3,.65h0A1.66,1.66,0,0,0,36.72,13h0a1.64,1.64,0,0,1,2.13,2.27h0A1.66,1.66,0,0,0,40,17.67h0a1.6,1.6,0,0,1,.45,3h0A1.56,1.56,0,0,0,40,23.26h0a1.54,1.54,0,0,1-1.42,2.63h0a1.51,1.51,0,0,0-1.87,1.74h0A1.55,1.55,0,0,1,34,28.86h0a1.57,1.57,0,0,0-2.6.26h0a1.61,1.61,0,0,1-3-.65h0a1.66,1.66,0,0,0-2.33-1.32h0a1.66,1.66,0,0,1-2.14-2.28h0a1.64,1.64,0,0,0-1.16-2.39h0a1.6,1.6,0,0,1-.45-3h0a1.56,1.56,0,0,0,.43-2.56h0a1.54,1.54,0,0,1,1.42-2.63h0a1.51,1.51,0,0,0,1.87-1.74h0a1.55,1.55,0,0,1,2.73-1.23h0A1.58,1.58,0,0,0,31.38,11Z"/><path class="cls-2" d="M49.6,9.53h0a1.61,1.61,0,0,1,3,.65h0a1.66,1.66,0,0,0,2.33,1.32h0a1.65,1.65,0,0,1,2.14,2.27h0a1.65,1.65,0,0,0,1.17,2.4h0a1.6,1.6,0,0,1,.44,3h0a1.56,1.56,0,0,0-.43,2.56h0a1.54,1.54,0,0,1-1.41,2.63h0A1.51,1.51,0,0,0,55,26.13h0a1.55,1.55,0,0,1-2.73,1.23h0a1.57,1.57,0,0,0-2.6.26h0a1.62,1.62,0,0,1-3-.65h0a1.66,1.66,0,0,0-2.33-1.32h0a1.65,1.65,0,0,1-2.13-2.28h0A1.64,1.64,0,0,0,41,21h0a1.6,1.6,0,0,1-.45-3h0A1.56,1.56,0,0,0,41,15.39h0a1.54,1.54,0,0,1,1.41-2.63h0A1.51,1.51,0,0,0,44.27,11h0A1.55,1.55,0,0,1,47,9.79h0A1.57,1.57,0,0,0,49.6,9.53Z"/><path class="cls-3" d="M22.28,35.86s-10-3-6.38,3c0,0,3.65,4.5,7.29,4.5a20.87,20.87,0,0,0,6-5.6C31.39,34.36,27.75,31.36,22.28,35.86Z"/><path class="cls-3" d="M63.25,32.92s-8.63-5.16-7.14,1.44c0,0,2,5.16,5.51,6a24.14,24.14,0,0,0,7.6-4C72.51,33.55,70,29.83,63.25,32.92Z"/><path d="M37.06,33.49s2.11-3.62,4.88-5a16,16,0,0,1,4.78,2.45,14.19,14.19,0,0,0,1.17,1c.77.57,1.9,1.64,1.61,2.88,0,0,.19,3-6.13.83,0,0-6.16,2.68-6.63.31C36.74,35.93,36.39,34.18,37.06,33.49Z"/><ellipse cx="31.85" cy="19.73" rx="6.34" ry="6.79" transform="translate(-4.63 11.19) rotate(-18.6)"/><ellipse cx="50.07" cy="18.23" rx="6.34" ry="6.79" transform="matrix(0.95, -0.32, 0.32, 0.95, -3.2, 16.92)"/><path class="cls-4" d="M18.24,15.09a.59.59,0,0,1-1,.12c-1-1-2.73-3.05-2.75-3.53,0-.64,2.39-2.5,4.29-.76a.58.58,0,0,1,.18.42A11.68,11.68,0,0,1,18.24,15.09Z"/><path class="cls-4" d="M13.66,19.26c.36.25.24.68-.21.78a24.69,24.69,0,0,1-5,.86,1.94,1.94,0,0,1,.67-3.57.83.83,0,0,1,.54,0A18.11,18.11,0,0,1,13.66,19.26Z"/><path class="cls-4" d="M15.21,16.49c.11.37-.29.66-.73.53-1.48-.45-4.3-1.33-4.63-1.73s.35-3.17,3.09-2.56a.76.76,0,0,1,.43.28A12.43,12.43,0,0,1,15.21,16.49Z"/><path class="cls-4" d="M59.5,15.18a.42.42,0,0,1,0-.8c1.4-.61,4.09-1.74,4.67-1.68.77.08,2.62,2.33.24,3.61a.91.91,0,0,1-.54.07A19.39,19.39,0,0,1,59.5,15.18Z"/><path class="cls-4" d="M55.22,10.8a.56.56,0,0,1-.9-.29c-.19-1.3-.52-3.77-.24-4.2s3.58-1.17,4.17,1.11a.51.51,0,0,1-.1.44A14.73,14.73,0,0,1,55.22,10.8Z"/><path class="cls-4" d="M58.3,12.49c-.46,0-.74-.34-.52-.67.77-1.14,2.28-3.29,2.81-3.5.7-.28,3.73.78,2.57,2.92a.66.66,0,0,1-.4.3A19.16,19.16,0,0,1,58.3,12.49Z"/></g></g></svg>