<svg xmlns="http://www.w3.org/2000/svg" xmlns:xlink="http://www.w3.org/1999/xlink" width="333" height="320" viewBox="0 0 333 320"><defs><style>.cls-1{opacity:0.6;filter:url(#AI_DesenfoqueGaussiano_4);}.cls-2{filter:url(#AI_SombrasDeInglete_1);}.cls-3{fill:#62002d;}.cls-4{filter:url(#AI_DesenfoqueGaussiano_7);}.cls-5{fill:#fff;}</style><filter id="AI_DesenfoqueGaussiano_4" name="AI_DesenfoqueGaussiano_4"><feGaussianBlur stdDeviation="4"/></filter><filter id="AI_SombrasDeInglete_1" x="-20%" y="-20%" width="140%" height="140%" name="AI_SombrasDeInglete_1"><feGaussianBlur result="blur" stdDeviation="4" in="SourceAlpha"/><feOffset result="offsetBlur" dx="4" dy="4" in="blur"/><feSpecularLighting result="specOut" surfaceScale="5" specularExponent="10" in="blur"><fePointLight x="-5000" y="-10000" z="-20000"/></feSpecularLighting><feComposite result="specOut" operator="in" in="specOut" in2="SourceAlpha"/><feComposite result="litPaint" operator="arithmetic" k2="1" k3="1" in="SourceGraphic" in2="specOut"/><feMerge><feMergeNode in="offsetBlur"/><feMergeNode in="litPaint"/></feMerge></filter><filter id="AI_DesenfoqueGaussiano_7" name="AI_DesenfoqueGaussiano_7"><feGaussianBlur stdDeviation="7"/></filter></defs><g id="Animated_items" data-name="Animated items"><g id="Load_game" data-name="Load game"><g id="Start_screen-2" data-name="Start screen"><g class="cls-1"><path d="M99.24,93.55S92.58,35.89,112.57,15.8s53.3-7.86,60,10.49A121,121,0,0,1,179.2,63l12.37-19.59s34.27-35.44,60.92-17.09,6.66,42.8,6.66,42.8l-20,30.57,20-6.11s60-12.23,66.63,30.57c4.7,30.19-13.81,42.13-25.12,46.54a189.4,189.4,0,0,0-22.53,10.27l-19,10.45h16.09c11.4,0,22.71,3.34,31.27,10.25s15.46,17.8,7.85,32.91c-12.44,24.68-32.5,25.12-39.43,24.46a59.62,59.62,0,0,0-6.68-.3l-35.27.45-.17,10.69c-.25,15.83-9.09,30.63-23.82,38.87-2.92,1.63-6.17,3.3-9.8,5-26.65,12.23-40-42.8-40-42.8l-13.33,18.34s-20,24.46-46.64,18.35c-13.63-3.13-18.55-17.46-20.09-30.72-1.62-13.82,2.93-27.65,12.22-38.63l3.12-3.67H71.64s-52.35,5.76-59-18.7,20-42.8,20-42.8l20.46-12.59-13.8-11.87s-28.79-21.84-27.72-38.44S12.63,87.43,26,75.2,99.24,93.55,99.24,93.55"/></g><g class="cls-2"><path class="cls-3" d="M95.52,91S89,35.23,108.63,15.78s52.46-7.6,59,10.15a115.45,115.45,0,0,1,6.55,35.5l12.18-19s33.72-34.29,60-16.54,6.56,41.42,6.56,41.42L233.22,96.94,252.89,91s59-11.84,65.57,29.59c4.62,29.21-13.59,40.77-24.72,45a187.14,187.14,0,0,0-22.17,9.93L252.89,185.7h15.83c11.22,0,22.35,3.23,30.77,9.91s15.22,17.23,7.73,31.85c-12.25,23.89-32,24.32-38.81,23.67a60,60,0,0,0-6.57-.29l-34.71.44L227,261.63c-.25,15.32-8.94,29.64-23.43,37.61-2.88,1.58-6.09,3.19-9.66,4.8-26.22,11.84-39.34-41.42-39.34-41.42l-13.11,17.76S121.75,304,95.52,298.13c-13.42-3-18.26-16.9-19.78-29.73-1.59-13.37,2.89-26.76,12-37.38l3.06-3.56H68.35S16.83,233,10.28,209.37,30,167.94,30,167.94l20.14-12.18L36.5,144.28S8.17,123.14,9.22,107.08s1.06-22,14.17-33.81S95.52,91,95.52,91"/></g></g><g id="Load_game-2" data-name="Load game" class="cls-4"><path d="M129.66,132.61a.71.71,0,0,1,.67.74l-.72,8a.89.89,0,0,1-.83.74H110.12a.8.8,0,0,1-.78-.74V106.46a.8.8,0,0,1,.78-.79h9.15a.8.8,0,0,1,.77.79v26.15Z"/><path d="M162.08,127.59c0,9.2-6.1,15.33-15.2,15.33s-15.2-6.13-15.2-15.27,6.1-15.33,15.2-15.33S162.08,118.45,162.08,127.59Zm-20.32.06c0,3.43,2.07,5.76,5.12,5.76s5.11-2.33,5.11-5.82-2.06-5.75-5.11-5.75S141.76,124.16,141.76,127.65Z"/><path d="M166.78,116.34a.83.83,0,0,1,.26-1,21.26,21.26,0,0,1,11.22-3c8.94,0,13.08,4.81,13.08,15.33v13.68a.81.81,0,0,1-.78.8h-6.51a.85.85,0,0,1-.83-.8l-.36-1.42c-1.71,1.85-5.12,3-8.89,3-5.95,0-9.88-3.91-9.83-9.72.06-5.18,4-8.62,9.83-8.62,3,0,5.68,1.11,6.72,2.8v-2.22a3.65,3.65,0,0,0-4-3.75,13.39,13.39,0,0,0-6.21,1.69c-.26.16-.57,0-.77-.42Zm13.91,16.27a3.83,3.83,0,0,0-2.85-1.32,1.92,1.92,0,1,0,0,3.81,3.83,3.83,0,0,0,2.85-1.32Z"/><path d="M224.06,103.82a.8.8,0,0,1,.78.74v36.77a.81.81,0,0,1-.78.8h-5.84c-.36,0-.62-.32-.83-.8l-.77-1.9a12.2,12.2,0,0,1-8.74,3.49c-8.17,0-13.65-6.13-13.65-15.33s5.48-15.27,13.65-15.27a10.15,10.15,0,0,1,6.31,2v-9.77a.79.79,0,0,1,.77-.74Zm-9.87,20.5a4.38,4.38,0,0,0-4.09-2.91c-2.84,0-4.75,2.43-4.75,6.13s1.91,6.34,4.75,6.34a4.37,4.37,0,0,0,4.09-2.9Z"/><path d="M116.74,201.73c-.83,1.69-3.31,2.8-6.21,2.8C103,204.53,98,199,98,190.63c0-9.35,4.65-14.9,12.56-14.9,4,0,7.14,1.11,8.48,3l.93-1.48a1.59,1.59,0,0,1,1.19-.79h5.48a.74.74,0,0,1,.78.79v25.58c0,8-7.09,13.31-15.88,13.31-5.11,0-9.66-1.21-12.2-3.33a.84.84,0,0,1-.31-.9l2.64-6.55c.16-.37.47-.53.78-.32a14.59,14.59,0,0,0,9.09,3c3.26,0,5.23-1.74,5.23-4.75Zm0-13.74a3.71,3.71,0,0,0-3.57-2.38c-2.59,0-4.09,1.85-4.09,5s1.5,5.07,4.09,5.07a3.71,3.71,0,0,0,3.57-2.38Z"/><path d="M132.92,179.74a.83.83,0,0,1,.26-1,21.33,21.33,0,0,1,11.22-3c8.94,0,13.08,4.81,13.08,15.32v13.69a.81.81,0,0,1-.78.79h-6.51a.85.85,0,0,1-.83-.79l-.36-1.43c-1.71,1.85-5.12,3-8.9,3-5.94,0-9.87-3.91-9.82-9.72.05-5.18,4-8.61,9.82-8.61,3,0,5.69,1.11,6.73,2.8v-2.22a3.66,3.66,0,0,0-4-3.75,13.27,13.27,0,0,0-6.2,1.69c-.26.16-.57,0-.78-.42ZM146.83,196A3.8,3.8,0,0,0,144,194.7a1.92,1.92,0,1,0,0,3.8,3.8,3.8,0,0,0,2.85-1.32Z"/><path d="M169.21,178.69c1.65-1.85,4.65-3,8.12-3,3.72,0,6.56,1.53,7.7,4.17a11.15,11.15,0,0,1,8.94-4.17c6.93,0,11,4.33,11,11.62v17.44a.66.66,0,0,1-.73.74h-9.2a.65.65,0,0,1-.72-.74V188.94c-.11-2.11-1-3.33-2.54-3.33a3.38,3.38,0,0,0-3.36,3v16.22a.66.66,0,0,1-.72.74h-9.2a.66.66,0,0,1-.73-.74V188.94c0-2.27-1-3.33-2.53-3.33a3.5,3.5,0,0,0-3.41,3v16.22a.66.66,0,0,1-.73.74h-9.2a.65.65,0,0,1-.72-.74V177.21a.65.65,0,0,1,.72-.74h5.79a.85.85,0,0,1,.83.53Z"/><path d="M233.89,202.57c.1.37,0,.58-.37.79a19.79,19.79,0,0,1-10.7,3c-9.15,0-15.25-6.13-15.25-15.27s6-15.32,15-15.32c8.59,0,13.65,5.65,13.65,15.27a12.82,12.82,0,0,1-.2,2.38.69.69,0,0,1-.78.63h-16.6s0,3.33,4.35,3.33a19.25,19.25,0,0,0,7.91-1.74.55.55,0,0,1,.77.42Zm-8-14.11c0-2.32-1.39-3.85-3.46-3.85a3.65,3.65,0,0,0-3.88,3.85Z"/></g><g id="Loead_game" data-name="Loead game" class="cls-2"><path class="cls-5" d="M126.75,134.07a.71.71,0,0,1,.67.74l-.73,8a.88.88,0,0,1-.82.74H107.2a.79.79,0,0,1-.77-.74V107.92a.8.8,0,0,1,.77-.8h9.15a.81.81,0,0,1,.78.8v26.15Z"/><path class="cls-5" d="M159.16,129.05c0,9.2-6.1,15.32-15.2,15.32s-15.2-6.12-15.2-15.27,6.1-15.32,15.2-15.32S159.16,119.91,159.16,129.05Zm-20.32,0c0,3.44,2.07,5.76,5.12,5.76s5.12-2.32,5.12-5.81-2.07-5.76-5.12-5.76S138.84,125.62,138.84,129.1Z"/><path class="cls-5" d="M163.87,117.8a.84.84,0,0,1,.25-1,21.38,21.38,0,0,1,11.22-3c8.95,0,13.08,4.81,13.08,15.32v13.69a.8.8,0,0,1-.77.79h-6.52a.85.85,0,0,1-.82-.79l-.37-1.43c-1.7,1.85-5.11,3-8.89,3-5.94,0-9.87-3.91-9.82-9.72.05-5.18,4-8.61,9.82-8.61,3,0,5.69,1.11,6.72,2.8v-2.22a3.65,3.65,0,0,0-4-3.75,13.35,13.35,0,0,0-6.2,1.69c-.26.16-.57,0-.78-.42Zm13.9,16.27a3.78,3.78,0,0,0-2.84-1.32,1.92,1.92,0,1,0,0,3.8,3.78,3.78,0,0,0,2.84-1.32Z"/><path class="cls-5" d="M221.15,105.27a.79.79,0,0,1,.77.74v36.78a.8.8,0,0,1-.77.79h-5.84c-.37,0-.62-.32-.83-.79l-.78-1.9a12.15,12.15,0,0,1-8.73,3.48c-8.17,0-13.65-6.12-13.65-15.32s5.48-15.27,13.65-15.27a10.12,10.12,0,0,1,6.3,2V106a.8.8,0,0,1,.78-.74Zm-9.88,20.51a4.35,4.35,0,0,0-4.08-2.91c-2.85,0-4.76,2.43-4.76,6.13s1.91,6.34,4.76,6.34a4.35,4.35,0,0,0,4.08-2.91Z"/><path class="cls-5" d="M113.82,203.18c-.83,1.69-3.31,2.8-6.2,2.8-7.55,0-12.57-5.55-12.57-13.89,0-9.36,4.66-14.9,12.57-14.9,4,0,7.13,1.11,8.48,3l.93-1.48a1.55,1.55,0,0,1,1.19-.79h5.48a.74.74,0,0,1,.77.79v25.57c0,8-7.08,13.32-15.87,13.32-5.12,0-9.67-1.22-12.2-3.33a.85.85,0,0,1-.31-.9l2.64-6.55c.15-.37.46-.53.77-.32a14.62,14.62,0,0,0,9.1,3c3.26,0,5.22-1.74,5.22-4.76Zm0-13.74a3.69,3.69,0,0,0-3.57-2.37c-2.58,0-4.08,1.85-4.08,5s1.5,5.07,4.08,5.07a3.69,3.69,0,0,0,3.57-2.38Z"/><path class="cls-5" d="M130,181.2a.84.84,0,0,1,.26-1,21.35,21.35,0,0,1,11.22-3c8.94,0,13.08,4.8,13.08,15.32v13.68a.8.8,0,0,1-.77.8h-6.52a.86.86,0,0,1-.83-.8l-.36-1.42c-1.7,1.85-5.12,3-8.89,3-5.95,0-9.87-3.91-9.82-9.72,0-5.18,4-8.62,9.82-8.62,3,0,5.69,1.11,6.72,2.8V190a3.65,3.65,0,0,0-4-3.76,13.32,13.32,0,0,0-6.2,1.69c-.26.16-.57-.05-.78-.42Zm13.91,16.28a3.8,3.8,0,0,0-2.84-1.33,1.92,1.92,0,1,0,0,3.81,3.79,3.79,0,0,0,2.84-1.32Z"/><path class="cls-5" d="M166.3,180.14c1.65-1.84,4.65-2.95,8.11-2.95,3.72,0,6.57,1.53,7.71,4.17a11.13,11.13,0,0,1,8.94-4.17c6.93,0,11,4.33,11,11.62v17.44a.66.66,0,0,1-.72.74h-9.2a.67.67,0,0,1-.73-.74V190.4c-.1-2.12-1-3.33-2.53-3.33a3.37,3.37,0,0,0-3.36,3v16.22a.67.67,0,0,1-.73.74h-9.2a.66.66,0,0,1-.72-.74V190.4c0-2.28-1-3.33-2.54-3.33a3.51,3.51,0,0,0-3.41,3v16.22a.66.66,0,0,1-.72.74H159a.67.67,0,0,1-.73-.74V178.67a.66.66,0,0,1,.73-.74h5.79a.82.82,0,0,1,.82.52Z"/><path class="cls-5" d="M231,204a.61.61,0,0,1-.36.79,19.79,19.79,0,0,1-10.7,3c-9.15,0-15.26-6.13-15.26-15.27s6-15.32,15-15.32c8.58,0,13.65,5.65,13.65,15.27a11.87,11.87,0,0,1-.21,2.37.68.68,0,0,1-.78.64H215.72s0,3.33,4.34,3.33a19.19,19.19,0,0,0,7.91-1.75.56.56,0,0,1,.78.43Zm-8-14.11c0-2.33-1.4-3.86-3.46-3.86a3.65,3.65,0,0,0-3.88,3.86Z"/></g></g></g></svg>