<svg xmlns="http://www.w3.org/2000/svg" width="162" height="210" viewBox="0 0 162 210"><defs><style>.cls-1{fill:#dbc86a;}.cls-2{fill:#dd2458;}.cls-3{fill:#d6ba1a;}.cls-4{fill:#7f4c1d;}.cls-5{fill:#fff;}.cls-6{fill:#dbdad9;}.cls-7{fill:#9b5612;}.cls-8{fill:#316012;}.cls-9{fill:none;stroke:#000;stroke-miterlimit:10;}.cls-10{fill:#db1b40;}.cls-11{fill:#d8a927;}.cls-12{fill:#385dba;}.cls-13{fill:#ef8c20;}</style></defs><g id="Animated_items" data-name="Animated items"><g id="skeleton_male_2" data-name="skeleton male 2"><path class="cls-1" d="M42,106.56S19,106.43,13.14,141.72c0,0-5.89,23.18-9.48,42.31,0,0-9.82,23.37,19.15,17.74,0,0,67-1.67,111.05-9.79a48.67,48.67,0,0,1,8.17-.83c7-.1,21.75-2.28,11-20a23.19,23.19,0,0,1-3.3-10.24c-.88-11.76-3.37-37.54-8.59-43.59,0,0-8.26-13.64-23.7-14S42,106.56,42,106.56Z"/><path class="cls-2" d="M22,78.69S20.27,84,24.27,87,24.13,79.1,22,78.69Z"/><path class="cls-3" d="M28.87,92.85s-7.57-.15-3.44-5.31C25.43,87.54,32.71,88.51,28.87,92.85Z"/><path class="cls-2" d="M125.2,45s-1.66,4.89,2.2,7.68S127.27,45.41,125.2,45Z"/><path class="cls-3" d="M131.84,58.1s-7.3-.14-3.31-4.9C128.53,53.2,135.55,54.09,131.84,58.1Z"/><path class="cls-4" d="M25.8,64.38,5.56,75.5S2.82,78.84,23,79.15l99.1-28.92S140.82,36.74,141.18,32C141.18,32,137.23,6.78,25.8,64.38Z"/><path class="cls-5" d="M28.1,61.32c12.6-13.82,49.72-45.19,101.13-6a6.51,6.51,0,0,1,1.93,2.33c2.77,5.73,11.07,27.64-13.68,45.76,0,0-10,5.74-12.92,11.48,0,0-2.87,8.29-12.93,7L73.42,122a35.42,35.42,0,0,1-9.09-2.75,12.76,12.76,0,0,1-4.69-3.61c-1.52-1.85-4.89-4.66-11.81-5.89,0,0-23.83-9.52-24.83-34.82A19.11,19.11,0,0,1,28.1,61.32Z"/><ellipse class="cls-6" cx="66.5" cy="70.22" rx="12.93" ry="10.84"/><ellipse cx="72.96" cy="71.49" rx="7.76" ry="6.37" transform="translate(-23.11 106.21) rotate(-64.28)"/><ellipse class="cls-6" cx="98.1" cy="69.58" rx="12.93" ry="10.84"/><path class="cls-7" d="M7.32,58.2c-1.11.45-5,2.64-5.22,11.38,0,0-2.39,10.2,7.67,3.83,0,0,44.52-29.33,118.49-43.36,0,0,14.36-1.28,12.92,1.91a10.41,10.41,0,0,0-2.87-9.56s0-2.55-12.21-1.91c0,0-57.78,2.53-117.89,37.27A7.36,7.36,0,0,1,7.32,58.2Z"/><path class="cls-7" d="M38.13,12.51S56.8,4.23,70.45,3c0,0,5-1.91,12.21,3.83l20.19,16.65L33,45.06s-2-16.6-2-17.88S26.64,15.7,38.13,12.51Z"/><path class="cls-8" d="M61.11,24.63,31.55,33,33,45.06l16.57-6.87s33.77-11.9,37.38-11.46c0,0,15.28-3.22,15.91-3.3L92.28,14.71Z"/><path class="cls-2" d="M29,62.75s-1.9,6.6,2.53,10.38S31.4,63.26,29,62.75Z"/><path class="cls-3" d="M36.65,80.42s-8.38-.19-3.81-6.63C32.84,73.79,40.9,75,36.65,80.42Z"/><path class="cls-2" d="M140.33,30.87s-1.9,6.6,2.53,10.38S142.71,31.38,140.33,30.87Z"/><path class="cls-3" d="M148,48.54s-8.37-.19-3.8-6.63C144.15,41.91,152.21,43.12,148,48.54Z"/><path class="cls-2" d="M2.88,75s3.66,9,7.25,10.24S7.12,80,2.88,75Z"/><path class="cls-3" d="M15.1,91.9s-8.37-.19-3.8-6.63C11.3,85.27,19.36,86.48,15.1,91.9Z"/><path class="cls-9" d="M58.6,100.19S75.12,111,101,98.91"/><path class="cls-9" d="M64.81,98.91a11.37,11.37,0,0,0-.47,6.38"/><path class="cls-9" d="M70.81,100.82a9.06,9.06,0,0,0,.72,5.74"/><path class="cls-9" d="M80.39,101.48a16.35,16.35,0,0,1,1.3,5.7"/><path class="cls-9" d="M90.2,99.55a11.72,11.72,0,0,1,2,5.42"/><path d="M75.83,86.8s2.52-3.56,5.21-4.65a13.43,13.43,0,0,1,3.8,3.31,14.76,14.76,0,0,0,.85,1.22,3.52,3.52,0,0,1,.92,3.3s-.36,3.19-5.57,0c0,0-5.92,2-5.92-.63C75.12,89.35,75.12,87.43,75.83,86.8Z"/><ellipse class="cls-10" cx="50.34" cy="68.94" rx="2.15" ry="1.59"/><ellipse class="cls-10" cx="51.78" cy="63.84" rx="1.62" ry="2.12" transform="translate(-23.88 95.98) rotate(-73.97)"/><ellipse class="cls-10" cx="56.8" cy="59.38" rx="1.71" ry="2.01" transform="translate(-25.18 64.94) rotate(-50.15)"/><ellipse class="cls-10" cx="63.99" cy="56.83" rx="1.79" ry="1.92" transform="translate(-12.46 18.35) rotate(-14.89)"/><ellipse class="cls-10" cx="71.88" cy="57.47" rx="1.95" ry="1.76" transform="translate(-16.5 83.11) rotate(-54.82)"/><ellipse class="cls-10" cx="77.63" cy="60.02" rx="2.07" ry="1.66" transform="translate(-19.17 43.93) rotate(-28.27)"/><ellipse class="cls-10" cx="81.94" cy="65.76" rx="2.13" ry="1.61" transform="translate(-13.88 22.66) rotate(-14.53)"/><ellipse class="cls-10" cx="81.94" cy="72.77" rx="1.6" ry="2.15" transform="translate(-1.18 144.19) rotate(-82.28)"/><ellipse class="cls-10" cx="79.78" cy="77.87" rx="1.64" ry="2.1" transform="translate(-22.49 122.24) rotate(-67.75)"/><ellipse class="cls-10" cx="74.76" cy="81.7" rx="1.71" ry="2.01" transform="translate(-35.87 86.74) rotate(-50.15)"/><ellipse class="cls-10" cx="68.29" cy="84.25" rx="1.79" ry="1.91" transform="translate(-10.96 10.22) rotate(-7.92)"/><ellipse class="cls-10" cx="62.3" cy="83.22" rx="1.95" ry="1.76" transform="matrix(0.58, -0.82, 0.82, 0.58, -41.61, 86.19)"/><ellipse class="cls-10" cx="55.84" cy="80.67" rx="2.05" ry="1.68" transform="translate(-33.95 41.14) rotate(-31.55)"/><ellipse class="cls-10" cx="51.53" cy="76.21" rx="2.11" ry="1.63" transform="translate(-23.2 22.56) rotate(-20.26)"/><ellipse class="cls-10" cx="84.09" cy="61.29" rx="1.62" ry="2.12" transform="translate(1.96 125.19) rotate(-73.97)"/><ellipse class="cls-10" cx="88.4" cy="58.74" rx="1.71" ry="2.01" transform="translate(-13.34 88.97) rotate(-50.15)"/><ellipse class="cls-10" cx="95.58" cy="56.19" rx="1.79" ry="1.92" transform="translate(-11.23 26.45) rotate(-14.89)"/><ellipse class="cls-10" cx="103.48" cy="56.83" rx="1.95" ry="1.76" transform="translate(-2.59 108.66) rotate(-54.82)"/><ellipse class="cls-10" cx="109.23" cy="59.38" rx="2.07" ry="1.66" transform="translate(-15.1 58.81) rotate(-28.27)"/><ellipse class="cls-10" cx="113.53" cy="65.12" rx="2.13" ry="1.61" transform="translate(-12.71 30.57) rotate(-14.53)"/><ellipse class="cls-10" cx="113.53" cy="71.49" rx="1.6" ry="2.15" transform="translate(27.44 174.4) rotate(-82.28)"/><ellipse class="cls-10" cx="111.38" cy="76.59" rx="1.64" ry="2.1" transform="translate(-1.68 150.69) rotate(-67.75)"/><ellipse class="cls-10" cx="106.35" cy="80.42" rx="1.71" ry="2.01" transform="translate(-23.54 110.54) rotate(-50.15)"/><ellipse class="cls-10" cx="99.89" cy="82.97" rx="1.79" ry="1.91" transform="translate(-10.48 14.56) rotate(-7.92)"/><ellipse class="cls-10" cx="93.9" cy="81.95" rx="1.95" ry="1.76" transform="translate(-27.18 111.48) rotate(-54.82)"/><ellipse class="cls-10" cx="88.87" cy="80.67" rx="2.05" ry="1.68" transform="translate(-29.07 58.42) rotate(-31.55)"/><ellipse class="cls-10" cx="84.56" cy="76.84" rx="2.11" ry="1.63" transform="translate(-21.38 34.04) rotate(-20.26)"/><path class="cls-11" d="M48.77,91.15s-2.42-3.64-4.92-3.43-3,2-3.25,3.36S47.49,93.82,48.77,91.15Z"/><path class="cls-11" d="M48.07,95.69s-4-2.23-6.16-1-1.67,3-1.12,4.32S48.32,98.59,48.07,95.69Z"/><path class="cls-11" d="M50.19,98.71s-4.74.41-5.58,2.51.7,3.27,2,4S52.37,100.87,50.19,98.71Z"/><path class="cls-11" d="M110.45,97s1.19,4.1,3.66,4.52,3.52-1.12,4.17-2.43S112.53,94.77,110.45,97Z"/><path class="cls-11" d="M112.56,92.83s3.18,3.14,5.59,2.49,2.54-2.44,2.43-3.86S113.22,90,112.56,92.83Z"/><path class="cls-11" d="M111.47,89.4s4.68.78,6.15-1,.35-3.31-.71-4.38S110.06,86.78,111.47,89.4Z"/><path class="cls-12" d="M16.09,130s53,21.42,128-6.59l3.13,14.42s-56.55,16.67-134.53,5.61Z"/><path class="cls-13" d="M8.69,158.53s87.46,5.11,140-9.88l1.49,15S98.74,179.25,5.6,174.31Z"/><ellipse cx="103.84" cy="71.49" rx="7.76" ry="6.37" transform="translate(-5.63 134.03) rotate(-64.28)"/></g></g></svg>