<svg xmlns="http://www.w3.org/2000/svg" width="100" height="134" viewBox="0 0 100 134"><defs><style>.cls-1{fill:#dbc86a;}.cls-2{fill:#dd2458;}.cls-3{fill:#d6ba1a;}.cls-4{fill:#7f4c1d;}.cls-5{fill:#fff;}.cls-6{fill:#dbdad9;}.cls-7{fill:#9b5612;}.cls-8{fill:#316012;}.cls-9{fill:none;stroke:#000;stroke-miterlimit:10;}.cls-10{fill:#db1b40;}.cls-11{fill:#d8a927;}.cls-12{fill:#385dba;}.cls-13{fill:#ef8c20;}</style></defs><g id="Instructions"><g id="skeleton_male_2-2" data-name="skeleton male 2"><path class="cls-1" d="M32,68S19.28,67.94,16,90.41c0,0-3.26,14.75-5.25,26.93,0,0-5.44,14.87,10.6,11.29,0,0,37.1-1.07,61.5-6.24a24.66,24.66,0,0,1,4.52-.52c3.89-.06,12-1.45,6.12-12.73a16.24,16.24,0,0,1-1.83-6.51c-.49-7.49-1.86-23.9-4.75-27.75,0,0-4.58-8.68-13.13-8.88S32,68,32,68Z"/><path class="cls-2" d="M20.92,50.29s-1,3.37,1.26,5.29S22.11,50.55,20.92,50.29Z"/><path class="cls-3" d="M24.73,59.3s-4.19-.1-1.9-3.38C22.83,55.92,26.86,56.54,24.73,59.3Z"/><path class="cls-2" d="M78.07,28.86s-.91,3.11,1.22,4.89S79.22,29.1,78.07,28.86Z"/><path class="cls-3" d="M81.75,37.18s-4-.09-1.83-3.12C79.92,34.06,83.81,34.63,81.75,37.18Z"/><path class="cls-4" d="M23,41.18l-11.2,7.08s-1.52,2.12,9.65,2.32L76.35,32.17s10.38-8.58,10.58-11.63C86.93,20.54,84.74,4.51,23,41.18Z"/><path class="cls-5" d="M24.31,39.23c7-8.8,27.53-28.77,56-3.84a4.17,4.17,0,0,1,1.07,1.48C82.91,40.51,87.51,54.46,73.8,66c0,0-5.56,3.65-7.15,7.3,0,0-1.6,5.28-7.16,4.47l-10.09.08a17.53,17.53,0,0,1-5-1.75,7.24,7.24,0,0,1-2.6-2.29c-.84-1.18-2.7-3-6.54-3.75A25.77,25.77,0,0,1,21.48,47.89,13.23,13.23,0,0,1,24.31,39.23Z"/><ellipse class="cls-6" cx="45.57" cy="44.89" rx="7.16" ry="6.9"/><ellipse cx="49.15" cy="45.71" rx="4.86" ry="3.58" transform="translate(-7.77 81.26) rotate(-74.91)"/><ellipse class="cls-6" cx="63.07" cy="44.49" rx="7.16" ry="6.9"/><path class="cls-7" d="M12.8,37.25c-.62.28-2.78,1.67-2.89,7.24,0,0-1.32,6.49,4.24,2.43,0,0,24.66-18.67,65.62-27.59,0,0,8-.82,7.16,1.21a7.37,7.37,0,0,0-1.6-6.08s0-1.63-6.76-1.22c0,0-32,1.61-65.28,23.72A3.5,3.5,0,0,1,12.8,37.25Z"/><path class="cls-7" d="M29.86,8.16S40.2,2.89,47.76,2.08c0,0,2.78-1.22,6.76,2.43L65.7,15.11,27,28.88S25.89,18.31,25.89,17.5,23.5,10.19,29.86,8.16Z"/><path class="cls-8" d="M42.59,15.88,26.22,21.19l.8,7.69,9.17-4.37s18.7-7.58,20.7-7.3c0,0,8.46-2.05,8.81-2.1L59.85,9.56Z"/><path class="cls-2" d="M24.82,40.14s-1.06,4.2,1.4,6.61S26.13,40.46,24.82,40.14Z"/><path class="cls-3" d="M29,51.39s-4.64-.12-2.11-4.22C26.93,47.17,31.4,47.94,29,51.39Z"/><path class="cls-2" d="M86.45,19.85s-1,4.2,1.4,6.61S87.77,20.17,86.45,19.85Z"/><path class="cls-3" d="M90.67,31.1S86,31,88.57,26.87C88.57,26.87,93,27.65,90.67,31.1Z"/><path class="cls-2" d="M10.34,47.91s2,5.71,4,6.52S12.69,51.13,10.34,47.91Z"/><path class="cls-3" d="M17.11,58.69s-4.64-.12-2.11-4.22C15,54.47,19.47,55.24,17.11,58.69Z"/><path class="cls-9" d="M41.2,64s9.14,6.9,23.46-.81"/><path class="cls-9" d="M44.63,63.16a8.21,8.21,0,0,0-.25,4.06"/><path class="cls-9" d="M48,64.37A6.62,6.62,0,0,0,48.35,68"/><path class="cls-9" d="M53.26,64.79A11.77,11.77,0,0,1,54,68.42"/><path class="cls-9" d="M58.69,63.56A8.16,8.16,0,0,1,59.8,67"/><path d="M50.74,55.45a9.07,9.07,0,0,1,2.88-3,8,8,0,0,1,2.11,2.11,6.9,6.9,0,0,0,.47.77,2.5,2.5,0,0,1,.5,2.11s-.2,2-3.08,0c0,0-3.28,1.24-3.28-.41C50.34,57.07,50.34,55.85,50.74,55.45Z"/><ellipse class="cls-10" cx="36.62" cy="44.08" rx="1.19" ry="1.01"/><ellipse class="cls-10" cx="37.42" cy="40.84" rx="1.01" ry="1.2" transform="translate(-16.47 53.65) rotate(-60.88)"/><ellipse class="cls-10" cx="40.2" cy="37.99" rx="1" ry="1.21" transform="translate(-12.96 22.72) rotate(-27.35)"/><ellipse class="cls-10" cx="44.18" cy="36.37" rx="0.99" ry="1.22" transform="translate(-2.93 3.88) rotate(-4.87)"/><ellipse class="cls-10" cx="48.55" cy="36.78" rx="1.22" ry="1" transform="translate(0.75 74.52) rotate(-75.44)"/><ellipse class="cls-10" cx="51.73" cy="38.4" rx="1.21" ry="1" transform="translate(-11.37 51.4) rotate(-48.23)"/><ellipse class="cls-10" cx="54.12" cy="42.05" rx="1.2" ry="1.01" transform="translate(-13.09 28.63) rotate(-26.55)"/><ellipse class="cls-10" cx="54.12" cy="46.52" rx="1.01" ry="1.19" transform="translate(-4.39 87.38) rotate(-75.61)"/><ellipse class="cls-10" cx="52.93" cy="49.76" rx="1.01" ry="1.2" transform="translate(-19.1 59.24) rotate(-50.73)"/><ellipse class="cls-10" cx="50.14" cy="52.2" rx="1" ry="1.21" transform="translate(-18.38 28.87) rotate(-27.35)"/><ellipse class="cls-10" cx="46.56" cy="53.82" rx="0.99" ry="1.22" transform="translate(-2.3 2.08) rotate(-2.5)"/><ellipse class="cls-10" cx="43.24" cy="53.17" rx="1.22" ry="1" transform="translate(-19.09 81.66) rotate(-75.44)"/><ellipse class="cls-10" cx="39.67" cy="51.55" rx="1.21" ry="1" transform="translate(-25.38 51.86) rotate(-52.7)"/><ellipse class="cls-10" cx="37.28" cy="48.71" rx="1.2" ry="1.01" transform="translate(-21.55 31.34) rotate(-36.12)"/><ellipse class="cls-10" cx="55.31" cy="39.21" rx="1.01" ry="1.2" transform="translate(-5.86 68.45) rotate(-60.88)"/><ellipse class="cls-10" cx="57.7" cy="37.59" rx="1" ry="1.21" transform="translate(-10.82 30.71) rotate(-27.35)"/><ellipse class="cls-10" cx="61.67" cy="35.97" rx="0.99" ry="1.22" transform="translate(-2.83 5.36) rotate(-4.87)"/><ellipse class="cls-10" cx="66.05" cy="36.37" rx="1.22" ry="1" transform="translate(14.24 91.16) rotate(-75.44)"/><ellipse class="cls-10" cx="69.23" cy="37.99" rx="1.21" ry="1" transform="translate(-5.23 64.31) rotate(-48.23)"/><ellipse class="cls-10" cx="71.62" cy="41.65" rx="1.2" ry="1.01" transform="translate(-11.06 36.41) rotate(-26.55)"/><ellipse class="cls-10" cx="71.62" cy="45.71" rx="1.01" ry="1.19" transform="translate(9.54 103.71) rotate(-75.61)"/><ellipse class="cls-10" cx="70.42" cy="48.95" rx="1.01" ry="1.2" transform="translate(-12.05 72.48) rotate(-50.73)"/><ellipse class="cls-10" cx="67.64" cy="51.39" rx="1" ry="1.21" transform="translate(-16.05 36.82) rotate(-27.35)"/><ellipse class="cls-10" cx="64.06" cy="53.01" rx="0.99" ry="1.22" transform="translate(-2.25 2.84) rotate(-2.5)"/><ellipse class="cls-10" cx="60.74" cy="52.36" rx="1.22" ry="1" transform="translate(-5.2 97.99) rotate(-75.44)"/><ellipse class="cls-10" cx="57.96" cy="51.55" rx="1.21" ry="1" transform="translate(-18.17 66.41) rotate(-52.7)"/><ellipse class="cls-10" cx="55.57" cy="49.11" rx="1.2" ry="1.01" transform="translate(-18.27 42.2) rotate(-36.12)"/><path class="cls-11" d="M35.75,58.22S34.41,55.9,33,56s-1.69,1.24-1.8,2.14S35,59.91,35.75,58.22Z"/><path class="cls-11" d="M35.36,61.11s-2.24-1.42-3.4-.65a2.1,2.1,0,0,0-.63,2.75C31.64,64.06,35.5,63,35.36,61.11Z"/><path class="cls-11" d="M36.54,63s-2.63.26-3.09,1.6a2.07,2.07,0,0,0,1.14,2.57C35.34,67.68,37.74,64.41,36.54,63Z"/><path class="cls-11" d="M69.91,62s.65,2.61,2,2.87,2-.71,2.31-1.54S71.06,60.52,69.91,62Z"/><path class="cls-11" d="M71.07,59.28s1.77,2,3.1,1.59,1.41-1.55,1.35-2.46S71.44,57.47,71.07,59.28Z"/><path class="cls-11" d="M70.47,57.11s2.6.49,3.41-.66a2.1,2.1,0,0,0-.39-2.79C72.9,53,69.69,55.44,70.47,57.11Z"/><path class="cls-12" d="M17.65,83S47,96.59,88.55,78.76l1.73,9.18S59,98.55,15.78,91.51Z"/><path class="cls-13" d="M13.56,101.1s48.43,3.26,77.5-6.28l.83,9.54s-28.47,9.93-80,6.79Z"/><ellipse cx="66.25" cy="45.71" rx="4.86" ry="3.58" transform="translate(4.87 97.77) rotate(-74.91)"/></g></g></svg>