<svg xmlns="http://www.w3.org/2000/svg" xmlns:xlink="http://www.w3.org/1999/xlink" width="80" height="85" viewBox="0 0 80 85"><defs><style>.cls-1{filter:url(#AI_DesenfoqueGaussiano_4);}.cls-2{fill:#fff;}.cls-3{fill:#8d3b8d;}</style><filter id="AI_DesenfoqueGaussiano_4" name="AI_DesenfoqueGaussiano_4"><feGaussianBlur stdDeviation="4"/></filter></defs><g id="Animated_items" data-name="Animated items"><g class="cls-1"><rect x="7.71" y="9.05" width="65" height="65" rx="12"/></g><rect class="cls-2" x="4.71" y="8.05" width="65" height="65" rx="12"/><path class="cls-3" d="M61.71,18.83,61.64,51.4v.41c-.12,3.08-2.67,6.34-6.74,8.13-5.36,2.35-11.33,1.26-13.32-2.44s.72-8.6,6.08-11A13.19,13.19,0,0,1,57.35,46l.08-15.49s.37-2.27-2.89-1.77L32.93,35s-2.8,1-2.61,3.35l0,18.18c.61,3.4-2.05,7.31-6.66,9.33-5.36,2.35-11.32,1.26-13.32-2.43s.73-8.6,6.09-11A13.17,13.17,0,0,1,26,51.81V29.08s.06-5.63,5.55-6.81l23.2-6.38S61.06,13.29,61.71,18.83Z"/><rect x="-0.41" y="39.64" width="75.24" height="5" transform="translate(-18.9 38.66) rotate(-45)"/></g></svg>