<svg xmlns="http://www.w3.org/2000/svg" xmlns:xlink="http://www.w3.org/1999/xlink" width="80" height="85" viewBox="0 0 80 85"><defs><style>.cls-1{filter:url(#AI_DesenfoqueGaussiano_4);}.cls-2{fill:#fff;}.cls-3{fill:#662368;}</style><filter id="AI_DesenfoqueGaussiano_4" name="AI_DesenfoqueGaussiano_4"><feGaussianBlur stdDeviation="4"/></filter></defs><g id="Instructions"><g class="cls-1"><rect x="11.71" y="10.05" width="65" height="65" rx="12"/></g><rect class="cls-2" x="8.71" y="7.05" width="65" height="65" rx="12"/><path class="cls-3" d="M53.71,27.07V54.75c0,3.29-3.22,5.36-5.82,3.74l-11.1-7h0A4.63,4.63,0,0,0,33.22,51a6.5,6.5,0,0,1-1.47.17H22.84c-3.92,0-7.13-3.54-7.13-7.86V38.68c0-4.33,3.21-7.86,7.13-7.86h8.91a6.82,6.82,0,0,1,1.36.14,4.89,4.89,0,0,0,3.68-.67h0l11.1-7C50.49,21.7,53.71,23.77,53.71,27.07Z"/><path class="cls-3" d="M56.71,34.05s8,7.4,0,15.7l1,1.3s9-10,0-18h0Z"/><path class="cls-3" d="M61.71,31.18s8,10,0,21.12l1,1.75s9-13.45,0-24.21h0Z"/><rect x="6.88" y="36.5" width="75.24" height="5" transform="translate(-14.54 42.89) rotate(-45)"/></g></svg>