<svg xmlns="http://www.w3.org/2000/svg" width="128" height="98" viewBox="0 0 128 98"><defs><style>.cls-1{fill:#cb9566;}.cls-2{fill:#ba7d51;}.cls-3{opacity:0.39;}.cls-4{fill:#fff;}</style></defs><g id="Instructions"><g id="pan_de_muerto-2" data-name="pan de muerto"><path class="cls-1" d="M26,35S-26.6,87.77,26,92.16s86.69-1.75,86.31-7.91c0,0,40.55-7.91-29.6-63.27,0,0-20.88,9.66-41.43,0C41.3,21,27.77,32.4,26,35Z"/><path class="cls-2" d="M41.3,21S64-22.09,82.73,21C82.73,21,59.92,31.52,41.3,21Z"/><path class="cls-2" d="M47.65,41.19s10.52-22.85,17.54-3.51A19,19,0,0,1,64,43s2.34,8.79-4.68,12.3A6.81,6.81,0,0,0,57,60.53s0,7-2.34,8.78c0,0-2.34,14.07-11.69,15.82S37.12,64,38.29,64c0,0,4.93-6.42,7.14-6.73C45.43,57.31,48.82,51.74,47.65,41.19Z"/><path class="cls-2" d="M18.78,33.46s13.85-18.41,17.59,2.89a16.23,16.23,0,0,1-2,4.7s.88,9.37-6.5,10.26a5.28,5.28,0,0,0-3.11,4.28s-1.11,6.83-3.66,7.69c0,0-4.51,12.82-13.87,11.16S4.92,51.86,6.06,52.28c0,0,5.81-4.46,8-4C14.06,48.32,18.23,44.12,18.78,33.46Z"/><path class="cls-2" d="M73.61,54.82s-9-24.25,5.59-25.24c0,0,1,.77,2.64,3.89,0,0,6.28.7,5.3,11.72,0,0,0,3.93,2.13,5.47,0,0,4.2,3.09,4.23,7a28.44,28.44,0,0,1,4.32,22.74c-3,13.4-15.17-1.36-14.66-2.94,0,0-1.67-9.48-.89-12.6A16.55,16.55,0,0,0,73.61,54.82Z"/><path class="cls-2" d="M93.23,39.16S80.17,21,94.77,21a14.42,14.42,0,0,1,3.3,3s6.44.86,7.25,8.86a6.77,6.77,0,0,0,3,4.11s4.74,2.49,5.4,5.36c0,0,9,7.22,8,16.84s-15.52-1.83-15.26-2.95c0,0-3.23-7-2.94-9.25A20,20,0,0,0,93.23,39.16Z"/><g class="cls-3"><path class="cls-4" d="M59.63,24.11a.75.75,0,0,0,0-1.5.75.75,0,0,0,0,1.5Z"/></g><g class="cls-3"><path class="cls-4" d="M30.13,39.65a.75.75,0,0,0,0-1.5.75.75,0,0,0,0,1.5Z"/></g><g class="cls-3"><path class="cls-4" d="M35.39,54.34a.75.75,0,0,0,0-1.5.75.75,0,0,0,0,1.5Z"/></g><g class="cls-3"><path class="cls-4" d="M49.11,52.08a.75.75,0,0,0,0-1.5.75.75,0,0,0,0,1.5Z"/></g><g class="cls-3"><path class="cls-4" d="M44.79,42.47a.75.75,0,0,0,0-1.5.75.75,0,0,0,0,1.5Z"/></g><g class="cls-3"><path class="cls-4" d="M39.34,30.89a.75.75,0,0,0,0-1.5.75.75,0,0,0,0,1.5Z"/></g><g class="cls-3"><path class="cls-4" d="M23.36,40.21a.75.75,0,0,0,0-1.5.75.75,0,0,0,0,1.5Z"/></g><g class="cls-3"><path class="cls-4" d="M54.93,37.11a.75.75,0,0,0,0-1.5.75.75,0,0,0,0,1.5Z"/></g><g class="cls-3"><path class="cls-4" d="M50.42,26.09a.75.75,0,0,0,0-1.5.75.75,0,0,0,0,1.5Z"/></g><g class="cls-3"><path class="cls-4" d="M50.42,15.92a.75.75,0,0,0,0-1.5.75.75,0,0,0,0,1.5Z"/></g><g class="cls-3"><path class="cls-4" d="M60.76,7.16a.75.75,0,0,0,0-1.5.75.75,0,0,0,0,1.5Z"/></g><g class="cls-3"><path class="cls-4" d="M58.69,14.51a.75.75,0,0,0,0-1.5.75.75,0,0,0,0,1.5Z"/></g><g class="cls-3"><path class="cls-4" d="M70,8.29a.75.75,0,0,0,0-1.5.75.75,0,0,0,0,1.5Z"/></g><g class="cls-3"><path class="cls-4" d="M69.22,22.14a.75.75,0,0,0,0-1.5.75.75,0,0,0,0,1.5Z"/></g><g class="cls-3"><path class="cls-4" d="M65.08,47.28a.75.75,0,0,0,0-1.5.75.75,0,0,0,0,1.5Z"/></g><g class="cls-3"><path class="cls-4" d="M79.18,51.8a.75.75,0,0,0,0-1.5.75.75,0,0,0,0,1.5Z"/></g><g class="cls-3"><path class="cls-4" d="M70.53,42.47a.75.75,0,0,0,0-1.5.75.75,0,0,0,0,1.5Z"/></g><g class="cls-3"><path class="cls-4" d="M67,30.05a.75.75,0,0,0,0-1.5.75.75,0,0,0,0,1.5Z"/></g><g class="cls-3"><path class="cls-4" d="M73.73,15.64a.75.75,0,0,0,0-1.5.75.75,0,0,0,0,1.5Z"/></g><g class="cls-3"><path class="cls-4" d="M79.36,26.94a.75.75,0,0,0,0-1.5.75.75,0,0,0,0,1.5Z"/></g><g class="cls-3"><path class="cls-4" d="M77.3,36a.75.75,0,0,0,0-1.5.75.75,0,0,0,0,1.5Z"/></g><g class="cls-3"><path class="cls-4" d="M81.24,40.21a.75.75,0,0,0,0-1.5.75.75,0,0,0,0,1.5Z"/></g><g class="cls-3"><path class="cls-4" d="M98.91,38.8a.75.75,0,0,0,0-1.5.75.75,0,0,0,0,1.5Z"/></g><g class="cls-3"><path class="cls-4" d="M88,29.2a.75.75,0,0,0,0-1.5.75.75,0,0,0,0,1.5Z"/></g><g class="cls-3"><path class="cls-4" d="M90.64,47.56a.75.75,0,0,0,0-1.5.75.75,0,0,0,0,1.5Z"/></g><g class="cls-3"><path class="cls-4" d="M97.78,29.76a.75.75,0,0,0,0-1.5.75.75,0,0,0,0,1.5Z"/></g><g class="cls-3"><path class="cls-4" d="M28.25,30.89a.75.75,0,0,0,0-1.5.75.75,0,0,0,0,1.5Z"/></g><g class="cls-3"><path class="cls-4" d="M69.59,57.16a.75.75,0,0,0,0-1.5.75.75,0,0,0,0,1.5Z"/></g></g></g></svg>