<svg xmlns="http://www.w3.org/2000/svg" width="205" height="140" viewBox="0 0 205 140"><defs><style>.cls-1{fill:#cb9566;}.cls-2{fill:#ba7d51;}.cls-3{opacity:0.39;}.cls-4{fill:#fff;}</style></defs><g id="Animated_items" data-name="Animated items"><g id="pan_de_muerto" data-name="pan de muerto"><path class="cls-1" d="M41.77,50.32s-86.58,77.53,0,84,142.67-2.58,142-11.63c0,0,66.72-11.63-48.72-93,0,0-34.36,14.22-68.17,0C66.93,29.64,44.66,46.44,41.77,50.32Z"/><path class="cls-2" d="M66.93,29.64s37.38-63.32,68.17,0C135.1,29.64,97.57,45.15,66.93,29.64Z"/><path class="cls-2" d="M77.37,59.36s17.32-33.59,28.86-5.17c0,0,0,2.59-1.92,7.76,0,0,3.85,12.92-7.7,18.09a9.69,9.69,0,0,0-3.85,7.75s0,10.34-3.84,12.92c0,0-3.85,20.68-19.25,23.26S60.05,93,62,93c0,0,8.11-9.44,11.75-9.89C73.73,83.07,79.29,74.87,77.37,59.36Z"/><path class="cls-2" d="M29.86,48s22.8-27.06,29,4.25c0,0-.46,2.51-3.25,6.91,0,0,1.44,13.78-10.7,15.09a8.06,8.06,0,0,0-5.11,6.3s-1.84,10-6,11.31c0,0-7.42,18.84-22.82,16.41s-3.82-33.21-2-32.59c0,0,9.56-6.57,13.18-5.83C22.11,69.84,29,63.66,29.86,48Z"/><path class="cls-2" d="M120.09,79.4s-14.88-35.65,9.21-37.11c0,0,1.73,1.14,4.34,5.73,0,0,10.34,1,8.73,17.23,0,0,0,5.77,3.5,8,0,0,6.91,4.54,6.95,10.32A38.55,38.55,0,0,1,159.94,117c-5,19.71-25-2-24.13-4.32,0,0-2.75-13.93-1.46-18.52A25,25,0,0,0,120.09,79.4Z"/><path class="cls-2" d="M152.37,56.37S130.9,29.6,154.92,29.73c0,0,2,.91,5.42,4.39a14.22,14.22,0,0,1,11.93,13,10,10,0,0,0,5,6s7.8,3.65,8.89,7.88c0,0,14.74,10.62,13.25,24.76s-25.55-2.69-25.12-4.34c0,0-5.31-10.31-4.83-13.6C169.45,67.89,164.5,60.2,152.37,56.37Z"/><g class="cls-3"><path class="cls-4" d="M97.09,33.9a.75.75,0,0,0,0-1.5.75.75,0,0,0,0,1.5Z"/></g><g class="cls-3"><path class="cls-4" d="M48.54,56.74a.75.75,0,0,0,0-1.5.75.75,0,0,0,0,1.5Z"/></g><g class="cls-3"><path class="cls-4" d="M57.2,78.34a.75.75,0,0,0,0-1.5.75.75,0,0,0,0,1.5Z"/></g><g class="cls-3"><path class="cls-4" d="M79.78,75a.75.75,0,0,0,0-1.5.75.75,0,0,0,0,1.5Z"/></g><g class="cls-3"><path class="cls-4" d="M72.66,60.9a.75.75,0,0,0,0-1.5.75.75,0,0,0,0,1.5Z"/></g><g class="cls-3"><path class="cls-4" d="M63.7,43.87a.75.75,0,0,0,0-1.5.75.75,0,0,0,0,1.5Z"/></g><g class="cls-3"><path class="cls-4" d="M37.41,57.57a.75.75,0,0,0,0-1.5.75.75,0,0,0,0,1.5Z"/></g><g class="cls-3"><path class="cls-4" d="M89.36,53a.75.75,0,0,0,0-1.5.75.75,0,0,0,0,1.5Z"/></g><g class="cls-3"><path class="cls-4" d="M81.94,36.81a.75.75,0,0,0,0-1.5.75.75,0,0,0,0,1.5Z"/></g><g class="cls-3"><path class="cls-4" d="M81.94,21.85a.75.75,0,0,0,0-1.5.75.75,0,0,0,0,1.5Z"/></g><g class="cls-3"><path class="cls-4" d="M99,9a.75.75,0,0,0,0-1.5A.75.75,0,0,0,99,9Z"/></g><g class="cls-3"><path class="cls-4" d="M95.55,19.78a.75.75,0,0,0,0-1.5.75.75,0,0,0,0,1.5Z"/></g><g class="cls-3"><path class="cls-4" d="M114.1,10.64a.75.75,0,0,0,0-1.5.75.75,0,0,0,0,1.5Z"/></g><g class="cls-3"><path class="cls-4" d="M112.86,31a.75.75,0,0,0,0-1.5.75.75,0,0,0,0,1.5Z"/></g><g class="cls-3"><path class="cls-4" d="M106.06,68a.75.75,0,0,0,0-1.5.75.75,0,0,0,0,1.5Z"/></g><g class="cls-3"><path class="cls-4" d="M129.25,74.6a.75.75,0,0,0,0-1.5.75.75,0,0,0,0,1.5Z"/></g><g class="cls-3"><path class="cls-4" d="M115,60.9a.75.75,0,0,0,0-1.5.75.75,0,0,0,0,1.5Z"/></g><g class="cls-3"><path class="cls-4" d="M109.15,42.62a.75.75,0,0,0,0-1.5.75.75,0,0,0,0,1.5Z"/></g><g class="cls-3"><path class="cls-4" d="M120.29,21.44a.75.75,0,0,0,0-1.5.75.75,0,0,0,0,1.5Z"/></g><g class="cls-3"><path class="cls-4" d="M129.56,38.05a.75.75,0,0,0,0-1.5.75.75,0,0,0,0,1.5Z"/></g><g class="cls-3"><path class="cls-4" d="M126.16,51.34a.75.75,0,0,0,0-1.5.75.75,0,0,0,0,1.5Z"/></g><g class="cls-3"><path class="cls-4" d="M132.66,57.57a.75.75,0,0,0,0-1.5.75.75,0,0,0,0,1.5Z"/></g><g class="cls-3"><path class="cls-4" d="M161.72,55.5a.75.75,0,0,0,0-1.5.75.75,0,0,0,0,1.5Z"/></g><g class="cls-3"><path class="cls-4" d="M143.79,41.38a.75.75,0,0,0,0-1.5.75.75,0,0,0,0,1.5Z"/></g><g class="cls-3"><path class="cls-4" d="M148.12,68.37a.75.75,0,0,0,0-1.5.75.75,0,0,0,0,1.5Z"/></g><g class="cls-3"><path class="cls-4" d="M159.87,42.21a.75.75,0,0,0,0-1.5.75.75,0,0,0,0,1.5Z"/></g><g class="cls-3"><path class="cls-4" d="M45.45,43.87a.75.75,0,0,0,0-1.5.75.75,0,0,0,0,1.5Z"/></g><g class="cls-3"><path class="cls-4" d="M113.48,82.5a.75.75,0,0,0,0-1.5.75.75,0,0,0,0,1.5Z"/></g></g></g></svg>