<svg xmlns="http://www.w3.org/2000/svg" xmlns:xlink="http://www.w3.org/1999/xlink" width="221" height="186" viewBox="0 0 221 186"><defs><style>.cls-1{opacity:0.6;}.cls-1,.cls-4{filter:url(#AI_DesenfoqueGaussiano_4);}.cls-2{filter:url(#AI_SombrasDeInglete_1);}.cls-3{fill:#3e0147;}.cls-5{fill:#fff;}</style><filter id="AI_DesenfoqueGaussiano_4" name="AI_DesenfoqueGaussiano_4"><feGaussianBlur stdDeviation="4"/></filter><filter id="AI_SombrasDeInglete_1" x="-20%" y="-20%" width="140%" height="140%" name="AI_SombrasDeInglete_1"><feGaussianBlur result="blur" stdDeviation="4" in="SourceAlpha"/><feOffset result="offsetBlur" dx="4" dy="4" in="blur"/><feSpecularLighting result="specOut" surfaceScale="5" specularExponent="10" in="blur"><fePointLight x="-5000" y="-10000" z="-20000"/></feSpecularLighting><feComposite result="specOut" operator="in" in="specOut" in2="SourceAlpha"/><feComposite result="litPaint" operator="arithmetic" k2="1" k3="1" in="SourceGraphic" in2="specOut"/><feMerge><feMergeNode in="offsetBlur"/><feMergeNode in="litPaint"/></feMerge></filter></defs><g id="Animated_items" data-name="Animated items"><g class="cls-1"><path d="M74,58.36s-3.49-29.68,7-40,27.92-4,31.41,5.4a61.34,61.34,0,0,1,3.49,18.89l6.48-10.09s18-18.25,31.91-8.8,3.49,22,3.49,22L147.28,61.51l10.47-3.15s31.41-6.3,34.9,15.74c2.47,15.55-7.23,21.69-13.15,24a100.16,100.16,0,0,0-11.81,5.28l-9.94,5.38h8.43A26.41,26.41,0,0,1,182.56,114c4.55,3.61,8.1,9.17,4.11,17-6.52,12.71-17,12.93-20.66,12.59a33.83,33.83,0,0,0-3.49-.16l-18.48.24-.09,5.5a23.41,23.41,0,0,1-12.47,20q-2.29,1.26-5.14,2.55c-14,6.3-20.94-22-20.94-22l-7,9.45S88,171.7,74,168.55c-7.14-1.61-9.72-9-10.53-15.81a25.83,25.83,0,0,1,6.41-19.89L71.5,131h-12s-27.42,3-30.91-9.63,10.47-22,10.47-22l10.72-6.48L42.58,86.7S27.5,75.45,28.06,66.91s.56-11.7,7.54-18S74,58.36,74,58.36"/></g><g class="cls-2"><path class="cls-3" d="M72.59,57S69.2,28.2,79.35,18.17s27.07-3.92,30.46,5.23a59.58,59.58,0,0,1,3.38,18.32l6.28-9.78s17.41-17.69,30.94-8.54,3.38,21.37,3.38,21.37L143.64,60,153.79,57s30.46-6.11,33.84,15.26c2.39,15.07-7,21-12.76,23.23a98,98,0,0,0-11.44,5.13l-9.64,5.21H162a25.58,25.58,0,0,1,15.88,5.12c4.41,3.5,7.86,8.88,4,16.43-6.32,12.32-16.51,12.54-20,12.21a29.48,29.48,0,0,0-3.39-.15l-17.91.22-.08,5.34a22.68,22.68,0,0,1-12.1,19.4q-2.22,1.23-5,2.48C109.81,173,103,145.49,103,145.49l-6.77,9.16s-10.15,12.21-23.68,9.16c-6.93-1.57-9.42-8.72-10.21-15.34a25,25,0,0,1,6.21-19.28l1.58-1.83H58.57S32,130.23,28.6,118,38.75,96.66,38.75,96.66l10.39-6.29-7-5.92S27.51,73.55,28.06,65.26s.54-11.34,7.31-17.44S72.59,57,72.59,57"/></g><g class="cls-4"><path d="M84.12,65.52c5.32,0,8.51,2.88,8.51,7.22S89.44,80,84.12,80H82.87V86a.47.47,0,0,1-.48.42H76.94a.45.45,0,0,1-.42-.42V66a.46.46,0,0,1,.42-.45Zm.27,9a1.79,1.79,0,1,0,0-3.58H82.81v3.58Z"/><path d="M99.72,64.46a.46.46,0,0,1,.45.42V86a.46.46,0,0,1-.45.45H94.36a.46.46,0,0,1-.45-.45V64.88a.46.46,0,0,1,.45-.42Z"/><path d="M103.42,71.65a.48.48,0,0,1,.16-.58,12.78,12.78,0,0,1,6.6-1.73c5.26,0,7.69,2.77,7.69,8.81V86a.46.46,0,0,1-.46.45h-3.83a.49.49,0,0,1-.48-.45l-.22-.82a7.45,7.45,0,0,1-5.23,1.73c-3.5,0-5.81-2.25-5.78-5.59,0-3,2.35-5,5.78-5,1.77,0,3.35.64,4,1.61V76.72a2.13,2.13,0,0,0-2.35-2.16,8,8,0,0,0-3.65,1c-.15.09-.33,0-.45-.25ZM111.61,81a2.26,2.26,0,0,0-1.68-.76c-.76,0-1.27.42-1.27,1.09s.51,1.09,1.27,1.09a2.29,2.29,0,0,0,1.68-.75Z"/><path d="M137.18,69.77a.32.32,0,0,1,.33.42l-5.2,16.27c-1.46,4.55-4,6.1-7.88,6.1a8,8,0,0,1-5.17-1.64.58.58,0,0,1-.15-.51L120.82,87c.09-.22.24-.28.36-.19a5.55,5.55,0,0,0,3,1.1c1.55,0,2.34-.7,2.77-2.46h-2.5a.55.55,0,0,1-.54-.43L119,70.19a.3.3,0,0,1,.3-.42h6.12a.61.61,0,0,1,.57.42l2.35,9.53,2.31-9.53a.57.57,0,0,1,.55-.42Z"/><path d="M70.16,108.07a.48.48,0,0,1,.15-.58,12.83,12.83,0,0,1,6.6-1.73c5.26,0,7.7,2.76,7.7,8.8v7.86a.48.48,0,0,1-.46.46H80.32a.51.51,0,0,1-.49-.46l-.21-.82a7.45,7.45,0,0,1-5.23,1.73c-3.5,0-5.81-2.25-5.78-5.58,0-3,2.34-5,5.78-5,1.76,0,3.34.64,4,1.61v-1.28A2.12,2.12,0,0,0,76,111a8,8,0,0,0-3.65,1c-.15.09-.33,0-.45-.24Zm8.18,9.34a2.26,2.26,0,0,0-1.67-.76,1.13,1.13,0,0,0-1.28,1.1c0,.67.52,1.09,1.28,1.09a2.22,2.22,0,0,0,1.67-.76Z"/><path d="M97.34,120.69c-.48,1-1.94,1.61-3.64,1.61-4.45,0-7.39-3.19-7.39-8,0-5.37,2.73-8.56,7.39-8.56,2.34,0,4.19.64,5,1.73l.55-.85a1,1,0,0,1,.7-.46h3.22a.44.44,0,0,1,.46.46v14.69c0,4.58-4.17,7.65-9.34,7.65-3,0-5.68-.7-7.17-1.92a.46.46,0,0,1-.19-.51l1.55-3.76c.1-.22.28-.31.46-.19a8.7,8.7,0,0,0,5.35,1.7c1.92,0,3.07-1,3.07-2.73Zm0-7.89a2.15,2.15,0,0,0-2.09-1.37c-1.52,0-2.41,1.07-2.41,2.89s.89,2.91,2.41,2.91a2.15,2.15,0,0,0,2.09-1.36Z"/><path d="M106.86,108.07a.48.48,0,0,1,.15-.58,12.83,12.83,0,0,1,6.6-1.73c5.26,0,7.69,2.76,7.69,8.8v7.86a.47.47,0,0,1-.45.46H117a.5.5,0,0,1-.49-.46l-.21-.82a7.47,7.47,0,0,1-5.23,1.73c-3.5,0-5.81-2.25-5.78-5.58,0-3,2.34-5,5.78-5,1.76,0,3.34.64,4,1.61v-1.28A2.12,2.12,0,0,0,112.7,111a7.92,7.92,0,0,0-3.65,1c-.15.09-.34,0-.46-.24Zm8.18,9.34a2.28,2.28,0,0,0-1.67-.76,1.13,1.13,0,0,0-1.28,1.1c0,.67.52,1.09,1.28,1.09a2.24,2.24,0,0,0,1.67-.76Z"/><path d="M130,102.63c0,1.79-1.34,3-3.35,3a3,3,0,0,1-3.34-3,3.35,3.35,0,0,1,6.69,0Zm-.64,3.55a.48.48,0,0,1,.46.43v15.81a.48.48,0,0,1-.46.46H124a.47.47,0,0,1-.46-.46V106.61a.47.47,0,0,1,.46-.43Z"/><path d="M136.72,107.46a7.13,7.13,0,0,1,4.89-1.7c4.14,0,6.39,1.91,6.39,6.65v10a.47.47,0,0,1-.46.46h-5.35a.43.43,0,0,1-.43-.46v-9.07c0-1.22-.54-1.92-1.49-1.92a2,2,0,0,0-2,1.7v9.29a.48.48,0,0,1-.46.46h-5.35a.48.48,0,0,1-.46-.46V106.61a.39.39,0,0,1,.43-.43h3.4a.49.49,0,0,1,.49.31Z"/></g><path class="cls-5" d="M84.12,65.52c5.32,0,8.51,2.88,8.51,7.22S89.44,80,84.12,80H82.87V86a.47.47,0,0,1-.48.42H76.94a.45.45,0,0,1-.42-.42V66a.46.46,0,0,1,.42-.45Zm.27,9a1.79,1.79,0,1,0,0-3.58H82.81v3.58Z"/><path class="cls-5" d="M99.72,64.46a.46.46,0,0,1,.45.42V86a.46.46,0,0,1-.45.45H94.36a.46.46,0,0,1-.45-.45V64.88a.46.46,0,0,1,.45-.42Z"/><path class="cls-5" d="M103.42,71.65a.48.48,0,0,1,.16-.58,12.78,12.78,0,0,1,6.6-1.73c5.26,0,7.69,2.77,7.69,8.81V86a.46.46,0,0,1-.46.45h-3.83a.49.49,0,0,1-.48-.45l-.22-.82a7.45,7.45,0,0,1-5.23,1.73c-3.5,0-5.81-2.25-5.78-5.59,0-3,2.35-5,5.78-5,1.77,0,3.35.64,4,1.61V76.72a2.13,2.13,0,0,0-2.35-2.16,8,8,0,0,0-3.65,1c-.15.09-.33,0-.45-.25ZM111.61,81a2.26,2.26,0,0,0-1.68-.76c-.76,0-1.27.42-1.27,1.09s.51,1.09,1.27,1.09a2.29,2.29,0,0,0,1.68-.75Z"/><path class="cls-5" d="M137.18,69.77a.32.32,0,0,1,.33.42l-5.2,16.27c-1.46,4.55-4,6.1-7.88,6.1a8,8,0,0,1-5.17-1.64.58.58,0,0,1-.15-.51L120.82,87c.09-.22.24-.28.36-.19a5.55,5.55,0,0,0,3,1.1c1.55,0,2.34-.7,2.77-2.46h-2.5a.55.55,0,0,1-.54-.43L119,70.19a.3.3,0,0,1,.3-.42h6.12a.61.61,0,0,1,.57.42l2.35,9.53,2.31-9.53a.57.57,0,0,1,.55-.42Z"/><path class="cls-5" d="M70.16,108.07a.48.48,0,0,1,.15-.58,12.83,12.83,0,0,1,6.6-1.73c5.26,0,7.7,2.76,7.7,8.8v7.86a.48.48,0,0,1-.46.46H80.32a.51.51,0,0,1-.49-.46l-.21-.82a7.45,7.45,0,0,1-5.23,1.73c-3.5,0-5.81-2.25-5.78-5.58,0-3,2.34-5,5.78-5,1.76,0,3.34.64,4,1.61v-1.28A2.12,2.12,0,0,0,76,111a8,8,0,0,0-3.65,1c-.15.09-.33,0-.45-.24Zm8.18,9.34a2.26,2.26,0,0,0-1.67-.76,1.13,1.13,0,0,0-1.28,1.1c0,.67.52,1.09,1.28,1.09a2.22,2.22,0,0,0,1.67-.76Z"/><path class="cls-5" d="M97.34,120.69c-.48,1-1.94,1.61-3.64,1.61-4.45,0-7.39-3.19-7.39-8,0-5.37,2.73-8.56,7.39-8.56,2.34,0,4.19.64,5,1.73l.55-.85a1,1,0,0,1,.7-.46h3.22a.44.44,0,0,1,.46.46v14.69c0,4.58-4.17,7.65-9.34,7.65-3,0-5.68-.7-7.17-1.92a.46.46,0,0,1-.19-.51l1.55-3.76c.1-.22.28-.31.46-.19a8.7,8.7,0,0,0,5.35,1.7c1.92,0,3.07-1,3.07-2.73Zm0-7.89a2.15,2.15,0,0,0-2.09-1.37c-1.52,0-2.41,1.07-2.41,2.89s.89,2.91,2.41,2.91a2.15,2.15,0,0,0,2.09-1.36Z"/><path class="cls-5" d="M106.86,108.07a.48.48,0,0,1,.15-.58,12.83,12.83,0,0,1,6.6-1.73c5.26,0,7.69,2.76,7.69,8.8v7.86a.47.47,0,0,1-.45.46H117a.5.5,0,0,1-.49-.46l-.21-.82a7.47,7.47,0,0,1-5.23,1.73c-3.5,0-5.81-2.25-5.78-5.58,0-3,2.34-5,5.78-5,1.76,0,3.34.64,4,1.61v-1.28A2.12,2.12,0,0,0,112.7,111a7.92,7.92,0,0,0-3.65,1c-.15.09-.34,0-.46-.24Zm8.18,9.34a2.28,2.28,0,0,0-1.67-.76,1.13,1.13,0,0,0-1.28,1.1c0,.67.52,1.09,1.28,1.09a2.24,2.24,0,0,0,1.67-.76Z"/><path class="cls-5" d="M130,102.63c0,1.79-1.34,3-3.35,3a3,3,0,0,1-3.34-3,3.35,3.35,0,0,1,6.69,0Zm-.64,3.55a.48.48,0,0,1,.46.43v15.81a.48.48,0,0,1-.46.46H124a.47.47,0,0,1-.46-.46V106.61a.47.47,0,0,1,.46-.43Z"/><path class="cls-5" d="M136.72,107.46a7.13,7.13,0,0,1,4.89-1.7c4.14,0,6.39,1.91,6.39,6.65v10a.47.47,0,0,1-.46.46h-5.35a.43.43,0,0,1-.43-.46v-9.07c0-1.22-.54-1.92-1.49-1.92a2,2,0,0,0-2,1.7v9.29a.48.48,0,0,1-.46.46h-5.35a.48.48,0,0,1-.46-.46V106.61a.39.39,0,0,1,.43-.43h3.4a.49.49,0,0,1,.49.31Z"/></g></svg>