<svg xmlns="http://www.w3.org/2000/svg" width="163.86" height="53.85" viewBox="0 0 163.86 53.85"><defs><style>.cls-1{fill:#fff;}</style></defs><g id="Animated_items" data-name="Animated items"><g id="Points_indicator" data-name="Points indicator"><path class="cls-1" d="M14.3,7.75c8.75,0,14,4.75,14,11.9s-5.25,11.9-14,11.9H12.25v10a.78.78,0,0,1-.8.7H2.5a.75.75,0,0,1-.7-.7V8.5a.76.76,0,0,1,.7-.75Zm.45,14.85a2.81,2.81,0,0,0,2.95-3,2.81,2.81,0,0,0-2.95-2.95h-2.6v5.9Z"/><path class="cls-1" d="M59,28.5C59,37.2,53.1,43,44.3,43S29.6,37.2,29.6,28.55s5.9-14.5,14.7-14.5S59,19.85,59,28.5Zm-19.65.05c0,3.25,2,5.45,4.95,5.45s5-2.2,5-5.5-2-5.45-5-5.45S39.35,25.25,39.35,28.55Z"/><path class="cls-1" d="M72.5,8.9c0,2.95-2.2,4.95-5.5,4.95s-5.5-2-5.5-4.95c0-3.1,2.2-5.15,5.5-5.15S72.5,5.8,72.5,8.9Zm-1,5.85a.76.76,0,0,1,.75.7V41.5a.77.77,0,0,1-.75.75h-8.8a.77.77,0,0,1-.75-.75v-26a.76.76,0,0,1,.75-.7Z"/><path class="cls-1" d="M83.55,16.85c1.6-1.75,5-2.8,8-2.8,6.8,0,10.5,3.15,10.5,11V41.5a.77.77,0,0,1-.75.75h-8.8a.7.7,0,0,1-.7-.75V26.55c0-2-.9-3.15-2.45-3.15a3.35,3.35,0,0,0-3.3,2.8V41.5a.77.77,0,0,1-.75.75h-8.8a.77.77,0,0,1-.75-.75v-26a.63.63,0,0,1,.7-.7h5.6a.81.81,0,0,1,.8.5Z"/><path class="cls-1" d="M121.7,14.75a.7.7,0,0,1,.75.7l-.55,4.85a.81.81,0,0,1-.75.75H118V41.5a.77.77,0,0,1-.75.75h-8.8a.77.77,0,0,1-.75-.75V21.05H104.8a.72.72,0,0,1-.7-.7V15.5a.73.73,0,0,1,.7-.75h2.85V9.3a.8.8,0,0,1,.75-.7l8.8-.85a.73.73,0,0,1,.75.7v6.3Z"/><path class="cls-1" d="M126.75,33.55a.41.41,0,0,1,.65-.2,12.55,12.55,0,0,0,5.75,2c1,.1,1.75-.5,1.75-1.25,0-2.55-11-1.75-11-11.15,0-5.35,4.55-8.95,11.35-8.95a19.63,19.63,0,0,1,9.8,2.85c.25.2.4.45.3.7l-2.55,5.9a.41.41,0,0,1-.65.2,11.49,11.49,0,0,0-5.75-2.05c-1-.1-1.75.4-1.75,1.2,0,2.65,11,1.7,11,11.2,0,5.35-4.4,9-11.05,9a21.21,21.21,0,0,1-10.1-2.85.77.77,0,0,1-.3-.8Z"/><path class="cls-1" d="M152.2,28.2c-2.65,0-4.4-1.65-4.4-4.1a4.4,4.4,0,0,1,8.8,0C156.6,26.55,154.85,28.2,152.2,28.2Zm0,14.05c-2.65,0-4.4-1.65-4.4-4.1a4.4,4.4,0,0,1,8.8,0C156.6,40.6,154.85,42.25,152.2,42.25Z"/></g></g></svg>