<svg xmlns="http://www.w3.org/2000/svg" width="269" height="585" viewBox="0 0 269 585"><defs><style>.cls-1{fill:#fff;}.cls-2{fill:#07202a;}.cls-3{fill:#902761;}.cls-4{fill:#7e2153;}.cls-5{fill:#bd2f59;}.cls-6{fill:#e900cf;}.cls-7{fill:#dbdad9;}.cls-8{fill:none;stroke:#000;stroke-miterlimit:10;}.cls-9{fill:#dd2443;}.cls-10{fill:#9229d6;}.cls-11{fill:#267ddb;}.cls-12{fill:#f9c847;}.cls-13{fill:#e3933a;}.cls-14{fill:#0a2a3a;}.cls-15{fill:#ed146c;}.cls-16{fill:#ef56b9;}</style></defs><g id="Animated_items" data-name="Animated items"><g id="sad-2" data-name="sad"><path class="cls-1" d="M187.53,256.79s-1,21.76-9.87,21.76-10.58-5.3-10.58-5.3S171.32,260,173.22,258,182.19,250.93,187.53,256.79Z"/><path class="cls-1" d="M173.85,291.79s-4,12.28-8.36,17.4-15.73-13.43-15.73-13.43,6.63-13.92,10.15-11.92C159.91,283.84,166.25,285.17,173.85,291.79Z"/><path class="cls-1" d="M164,283.64l8.93,5.39a3.73,3.73,0,0,0,5.19-1.46h0a4.09,4.09,0,0,0-1.39-5.43l-8.92-5.38a3.73,3.73,0,0,0-5.2,1.46h0A4.07,4.07,0,0,0,164,283.64Z"/><path class="cls-1" d="M82.46,486.37l-2.39,28.2s-2.62,8.13,2.39,10.69l13.65,2.55s9.87,1.33,7.4-6.62L107,487.45"/><path class="cls-1" d="M64,549s-11.89,2.65-14.59,0c0,0-7.47-8,5.41-14h3.71s12.73-7.9,20.82-10.22l16.73,3s17.27,2.65,3.7,17.22c0,0-17.41,7.47-20.43,13C79.38,558,65.26,566.22,64,549Z"/><path class="cls-1" d="M69.26,564.6s-9,7.64-5.9,15.17C63.36,579.77,71.63,581.72,69.26,564.6Z"/><path class="cls-1" d="M46.13,549s-6.92-3.92-9.25,5.18C36.88,554.19,39.08,564.64,46.13,549Z"/><path class="cls-1" d="M52.3,557s-6.92-3.93-9.25,5.17C43.05,562.13,45.25,572.59,52.3,557Z"/><path class="cls-1" d="M62.17,562.25s-6.92-3.92-9.25,5.18C52.92,567.43,55.12,577.88,62.17,562.25Z"/><path class="cls-1" d="M42.65,541.36s-7.08-3.21-10.14,1.71C32.51,543.07,34.17,549.38,42.65,541.36Z"/><path class="cls-1" d="M192.25,479.75l2.38,28.2s2.61,8.13-2.38,10.69l-13.61,2.55s-9.85,1.32-7.39-6.62l-3.51-33.74"/><path class="cls-1" d="M210.62,542.38s11.86,2.65,14.54,0c0,0,7.45-8-5.39-14h-3.7s-12.69-7.9-20.76-10.22l-16.67,3s-17.23,2.65-3.7,17.22c0,0,17.37,7.47,20.37,13C195.31,551.41,209.39,559.6,210.62,542.38Z"/><path class="cls-1" d="M202.69,557.21s10.88,7.13,8.9,15.58C211.59,572.79,203.15,575.86,202.69,557.21Z"/><path class="cls-1" d="M230.92,545s6.91-3.93,9.23,5.17C240.15,550.21,238,560.67,230.92,545Z"/><path class="cls-1" d="M222.31,550.34s6.91-3.93,9.23,5.17C231.54,555.51,229.34,566,222.31,550.34Z"/><path class="cls-1" d="M212.47,555.63s6.9-3.92,9.23,5.18C221.7,560.81,219.5,571.26,212.47,555.63Z"/><path class="cls-1" d="M231.29,536.79s7.36-2.28,9.86,3C241.15,539.77,238.83,545.82,231.29,536.79Z"/><path class="cls-2" d="M65.79,218.2S-27.8,139.73,21.56,69.54H204.19S227.64,149.31,169,220.67Z"/><path class="cls-3" d="M72,305.46S26.5,334.93,25.26,371.09c0,0-4.93,86.48-8.63,107.67,0,0,6.17,23.84-6.17,37.09,0,0,25.91,11.91,45.65-4,0,0,17.28-5.86,25.92-2.93,0,0,27.14,10.67,43.19-4.46,0,0,14.18-4.74,26.21,0,0,0,18.21,8.72,33-3.2,0,0,4.93-4,14.8-1.33,0,0,34.56,7.95,39.49-4,0,0,16,1.32,23.45-2.65,0,0-14.81-23.84-16.05-34.43,0,0-27.14-88.73-34.55-100.65,0,0-21-56.95-46.89-59.6C164.7,298.65,75.58,303,72,305.46Z"/><path class="cls-4" d="M84.52,303.67S66,337.06,66,339.71,99.35,300.74,84.52,303.67Z"/><path class="cls-4" d="M111.14,303.52l-.37.79c-1.32,2.94-5.78,13.28-5,17.36,0,0,8.33-9.78,12-17.72Z"/><path class="cls-4" d="M137.11,303.52s4.15,15,6.62,15c0,0,1.63-12.78-1.66-15S137.11,303.52,137.11,303.52Z"/><path class="cls-4" d="M153.51,301.72s22.3,14.15,23.53,27.39c0,0-24.64-20-27.74-26.58S153.51,301.72,153.51,301.72Z"/><path class="cls-5" d="M73.34,254.22s-.57,9.34,5.6,16S81.41,290,81.41,290L72,305.46s63.07,3.79,92.68-6.81c0,0-6.17-11.92-6.17-15.89,0,0-1.23-6.62,1.24-11.92,0,0,3.7-9.27,0-14.57S73.34,254.22,73.34,254.22Z"/><path class="cls-1" d="M108.56,34.44s-59.23,4-74,47.68c0,0-1.85,45.69,14.19,61.58s60.46,41.06,60.46,41.06,10.93,6.62,18.43,0c7-6.15,41.5-28.29,46.4-37.78a15,15,0,0,1,2.78-3.93c6.12-6,22.59-25.79,17.54-61.59C194.32,81.46,188.15,32.46,108.56,34.44Z"/><path class="cls-6" d="M145.62,80h0c2.14-3.49,7-1.71,6.93,2.52h0c-.08,3,2.55,5.12,5.06,4.12h0c3.57-1.42,6.59,3.24,4.29,6.59h0c-1.63,2.37-.63,5.82,1.93,6.67h0c3.63,1.19,3.63,6.95,0,8.15h0c-2.56.84-3.56,4.3-1.93,6.66h0c2.3,3.36-.72,8-4.29,6.59h0c-2.51-1-5.14,1.14-5.06,4.12h0c.1,4.24-4.79,6-6.93,2.52h0a3.58,3.58,0,0,0-6.26,0h0c-2.14,3.49-7,1.72-6.93-2.52h0c.08-3-2.55-5.12-5.06-4.12h0c-3.57,1.42-6.59-3.23-4.28-6.59h0c1.62-2.36.62-5.82-1.94-6.66h0c-3.63-1.2-3.63-7,0-8.15h0c2.56-.85,3.56-4.3,1.94-6.67h0c-2.31-3.35.71-8,4.28-6.59h0c2.51,1,5.14-1.14,5.06-4.12h0c-.1-4.23,4.79-6,6.93-2.52h0A3.57,3.57,0,0,0,145.62,80Z"/><path class="cls-6" d="M101.34,80h0c2.15-3.49,7.07-1.71,7,2.52h0c-.07,3,2.57,5.12,5.1,4.12h0c3.58-1.42,6.62,3.24,4.3,6.59h0c-1.64,2.37-.63,5.82,1.94,6.67h0c3.65,1.19,3.65,6.95,0,8.15h0c-2.57.84-3.58,4.3-1.94,6.66h0c2.32,3.36-.72,8-4.3,6.59h0c-2.53-1-5.17,1.14-5.1,4.12h0c.11,4.24-4.81,6-7,2.52h0a3.6,3.6,0,0,0-6.29,0h0c-2.15,3.49-7.07,1.72-7-2.52h0c.08-3-2.56-5.12-5.09-4.12h0c-3.58,1.42-6.62-3.23-4.3-6.59h0c1.63-2.36.63-5.82-2-6.66h0c-3.65-1.2-3.65-7,0-8.15h0c2.58-.85,3.58-4.3,2-6.67h0c-2.32-3.35.72-8,4.3-6.59h0c2.53,1,5.17-1.14,5.09-4.12h0c-.1-4.23,4.82-6,7-2.52h0A3.6,3.6,0,0,0,101.34,80Z"/><ellipse class="cls-7" cx="98.69" cy="103.31" rx="16.66" ry="17.88"/><ellipse class="cls-7" cx="141.87" cy="103.31" rx="16.66" ry="17.88"/><ellipse cx="142.22" cy="112.57" rx="12.86" ry="9"/><ellipse cx="98.45" cy="112.57" rx="12.86" ry="9"/><path class="cls-8" d="M162.56,86.85s-3.82,4.48-8,5.42"/><path class="cls-8" d="M164.55,89.85s-3.82,4.48-8,5.42"/><path d="M111.7,130s3.25-6,6.74-7.81a19.59,19.59,0,0,1,4.92,5.57,21,21,0,0,0,1.1,2c.76,1.21,1.81,3.4,1.18,5.55,0,0-.46,5.36-7.2,0,0,0-7.67,3.29-7.67-1.07C110.77,134.29,110.77,131.08,111.7,130Z"/><ellipse class="cls-9" cx="71.54" cy="128.47" rx="6.17" ry="6.62"/><ellipse class="cls-9" cx="162.85" cy="131.12" rx="6.17" ry="6.62"/><path class="cls-10" d="M82.4,156.86a.79.79,0,0,1-.46-1.32c1.41-1.73,4.14-5,4.91-5.2,1-.28,4.68,2.48,2.42,5.81a1,1,0,0,1-.63.41A21.24,21.24,0,0,1,82.4,156.86Z"/><ellipse class="cls-11" cx="75.86" cy="157.61" rx="3.94" ry="5.61" transform="translate(-98.94 164.06) rotate(-66.41)"/><path class="cls-10" d="M69.66,153.4a.77.77,0,0,1-.83,1.09c-2.11-.42-6.11-1.29-6.67-1.9-.73-.81-.38-5.6,3.45-5.19a1,1,0,0,1,.65.38A24.41,24.41,0,0,1,69.66,153.4Z"/><path class="cls-10" d="M74.4,151.89a.71.71,0,0,1-1.31,0c-1-2-2.88-5.93-2.78-6.78.12-1.12,3.83-3.81,5.93-.36a1.16,1.16,0,0,1,.12.78A25.27,25.27,0,0,1,74.4,151.89Z"/><path class="cls-10" d="M79.29,153.07a.74.74,0,0,1-1.05-.84c.3-2.28.93-6.61,1.47-7.23.72-.83,5.19-.66,5,3.46a1.1,1.1,0,0,1-.33.71A22.62,22.62,0,0,1,79.29,153.07Z"/><path class="cls-10" d="M81.63,162.23a.79.79,0,0,1,.35-1.35c2.09-.51,6.09-1.41,6.83-1.09,1,.42,2.41,5-1.25,6.23a.93.93,0,0,1-.73-.07A22.68,22.68,0,0,1,81.63,162.23Z"/><path class="cls-10" d="M154.1,155.33a.72.72,0,0,1-1.28-.32c-.58-2.22-1.61-6.46-1.34-7.26.35-1.07,4.51-2.83,5.85,1a1.13,1.13,0,0,1,0,.79A24.83,24.83,0,0,1,154.1,155.33Z"/><ellipse class="cls-11" cx="151.07" cy="161.59" rx="5.71" ry="3.86" transform="translate(-69.34 142.72) rotate(-42.03)"/><path class="cls-10" d="M144.38,164.82a.8.8,0,0,1,.39,1.35c-1.49,1.65-4.38,4.75-5.16,4.92-1,.21-4.55-2.75-2.13-6a.94.94,0,0,1,.65-.37A21.16,21.16,0,0,1,144.38,164.82Z"/><path class="cls-10" d="M145.82,159.75a.78.78,0,0,1-.74,1.17c-2.13-.22-6.19-.7-6.8-1.25-.8-.74-.85-5.54,3-5.51a1,1,0,0,1,.67.32A23.67,23.67,0,0,1,145.82,159.75Z"/><path class="cls-10" d="M149.43,156a.72.72,0,0,1-1.23.48c-1.61-1.53-4.62-4.48-4.81-5.31-.24-1.1,2.36-5,5.44-2.55a1.13,1.13,0,0,1,.38.68A26.15,26.15,0,0,1,149.43,156Z"/><path class="cls-10" d="M157.84,159a.76.76,0,0,1-.85-1.07c.75-2.15,2.25-6.23,2.91-6.71.87-.63,5.2.58,4.16,4.55a1.07,1.07,0,0,1-.46.62A22.12,22.12,0,0,1,157.84,159Z"/><path class="cls-2" d="M114.86,43.52s-4.45,48.53-80.34,38.6l-13-12.58S122.75-43,204.19,69.54L192.54,75S147.69,94.32,114.86,43.52Z"/><rect class="cls-1" x="109.17" y="190.05" width="20.98" height="7.95" rx="3"/><rect class="cls-1" x="109.17" y="200.65" width="20.98" height="7.95" rx="3"/><rect class="cls-1" x="109.17" y="211.24" width="20.98" height="7.95" rx="3"/><path class="cls-1" d="M45.89,256.37s1,21.75,9.61,21.75,10.29-5.29,10.29-5.29-4.12-13.25-6-15.23S51.09,250.51,45.89,256.37Z"/><path class="cls-1" d="M59.2,291.37s3.95,12.28,8.14,17.39,15.3-13.42,15.3-13.42-6.44-13.92-9.87-11.92C72.77,283.42,66.6,284.75,59.2,291.37Z"/><path class="cls-1" d="M68.78,283.22l-8.69,5.38A3.58,3.58,0,0,1,55,287.15h0a4.16,4.16,0,0,1,1.36-5.43l8.69-5.38a3.57,3.57,0,0,1,5,1.45h0A4.15,4.15,0,0,1,68.78,283.22Z"/><path class="cls-1" d="M106.71,198S87,203.3,77.09,212.57l12,2.65s8.95-7.95,17.59-6.62C106.71,208.6,110.41,200.65,106.71,198Z"/><path class="cls-12" d="M74.05,211.24s41.29,15.9,89.42,5.3c0,0,27.15,13.25,29.61,38.41,0,0-3.7,7.94-19.74,2.65,0,0-6.17,5.29-13.57-1.33,0,0-2.39,8-14.77,3.33,0,0-5,4.62-13.61.65,0,0-3.75-.75-5.58,1.61,0,0-5.94,4.49-17.46-3.86,0,0-1.64-4.38-9-.4,0,0-9.87,5.29-18.51-1.33,0,0-6.17,0-9.87-4,0,0-6.17,4-11.1,5.3A7.41,7.41,0,0,1,54.88,255s-13.57,4-12.34-1.33S57.44,224.49,74.05,211.24Z"/><path class="cls-1" d="M131.17,198s33.53,14.57,32.3,18.54L156,218.2s-8.26-7.95-23.2-10.1C132.75,208.1,129.71,202,131.17,198Z"/><path class="cls-13" d="M78.32,231.11s-7.4,9.27-6.17,13.24c0,0,6.17-7.94,6.17-13.24"/><path class="cls-13" d="M93.29,244.35c1.08,2.65,6-5.29,4.78-6.62C98.07,237.73,92.21,241.7,93.29,244.35Z"/><path class="cls-13" d="M115.34,235.08s-1.23,15.71,4.32,18.45C119.66,253.53,116.58,235.08,115.34,235.08Z"/><path class="cls-13" d="M138.79,228.46S136.32,247,145,252.3C145,252.3,142.49,229.79,138.79,228.46Z"/><path class="cls-13" d="M168.94,240.38s.7,6.62,4.4,6.62S168.94,240.38,168.94,240.38Z"/><path class="cls-4" d="M24.49,519.64s21.75-55.44,18.05-59.42c0,0,9.87-4.66-11.72,59.92Z"/><path class="cls-4" d="M59.82,510.75s11.1-41.26,13.57-43.91-7.33,42.42-7.33,42.42Z"/><path class="cls-4" d="M114.11,440.36s0,13.24,3.7,18.54,2.47,13.24,2.47,13.24-1.23,9.27,3.7,14.57,3.75,17.08,3.75,17.08l6.51-1.13s-2.85-16-5.32-19.92c0,0-1.24-2.65,0-4,0,0,1.23-11.92-1.24-15.89S112.88,441.68,114.11,440.36Z"/><path class="cls-4" d="M187.29,499.79S175.81,468.17,177,462.87s17.28,35.76,17.28,35.76Z"/><path class="cls-4" d="M219,447s20.57,48.95,17.07,52.28,3.5-3.33,3.5-3.33S230.1,448.3,219,447Z"/><path class="cls-14" d="M49.33,74.17S80.18,46.36,97.45,46.36C97.45,46.36,59.2,74.17,49.33,74.17Z"/><path class="cls-14" d="M128.61,45.75s38.34,13.32,47.5,29C176.11,74.78,133.85,54.73,128.61,45.75Z"/><path class="cls-14" d="M32.67,76.16S59.57,37,89.92,32.74C89.92,32.74,52.41,31.13,32.67,76.16Z"/><path class="cls-14" d="M129.1,36.8s45.15,4.36,64.29,30C193.39,66.8,175.21,31.55,129.1,36.8Z"/><path class="cls-14" d="M25.92,96.77S22.58,157.53,68.13,199C68.13,199,29.43,135.35,25.92,96.77Z"/><path class="cls-14" d="M151.56,199s48.16-32.14,53.4-96C205,103,178.9,173.61,151.56,199Z"/><path class="cls-14" d="M62.27,159.79S72.39,188,87.59,201.11C87.59,201.11,69.55,163.61,62.27,159.79Z"/><path class="cls-14" d="M136.57,194.09s24.66-14.62,34.67-32.57C171.24,161.52,139.09,185.83,136.57,194.09Z"/><path class="cls-15" d="M78.12,15h0c1-2,4.38-1.37,4.36.82h0c0,1.76,2.34,2.69,3.8,1.51h0c1.83-1.49,4.63.32,3.61,2.32h0c-.83,1.6.9,3.3,2.79,2.74h0c2.35-.7,4.08,2,2.22,3.42h0c-1.48,1.16-.68,3.34,1.29,3.51h0a2,2,0,0,1,.47,3.92h0a1.93,1.93,0,0,0-.44,3.67h0c2.16,1.08,1.09,4-1.37,3.76h0c-2-.2-3.27,1.78-2.09,3.19h0c1.47,1.77-.85,4-3,2.94h0c-1.71-.9-3.8.45-3.37,2.17h0c.53,2.14-2.63,3.39-4.07,1.6h0a2.38,2.38,0,0,0-4.08.77h0c-.49,2.15-4,2.15-4.45,0h0a2.38,2.38,0,0,0-4.08-.77h0c-1.44,1.79-4.61.54-4.07-1.6h0c.43-1.72-1.66-3.07-3.38-2.17h0c-2.13,1.11-4.45-1.17-3-2.94h0c1.19-1.41-.11-3.39-2.08-3.19h0c-2.46.24-3.53-2.68-1.38-3.76h0a1.93,1.93,0,0,0-.43-3.67h0a2,2,0,0,1,.46-3.92h0c2-.17,2.78-2.35,1.29-3.51h0c-1.85-1.46-.12-4.12,2.23-3.42h0c1.88.56,3.61-1.14,2.79-2.74h0c-1-2,1.78-3.81,3.6-2.32h0c1.47,1.18,3.83.25,3.81-1.51h0C69.57,13.65,73,13,74,15h0A2.4,2.4,0,0,0,78.12,15Z"/><path class="cls-16" d="M77.75,18.32h0c.8-1.58,3.56-1.07,3.54.65h0c0,1.38,1.91,2.11,3.09,1.18h0c1.49-1.17,3.77.25,2.93,1.82h0c-.67,1.26.74,2.59,2.27,2.16h0c1.9-.55,3.31,1.54,1.81,2.68h0c-1.21.92-.56,2.63,1,2.76h0c2,.16,2.3,2.56.38,3.08h0a1.51,1.51,0,0,0-.35,2.89h0c1.75.85.88,3.14-1.12,3h0c-1.6-.16-2.65,1.4-1.69,2.51h0c1.19,1.38-.69,3.18-2.42,2.3h0c-1.4-.7-3.09.36-2.74,1.71h0c.43,1.68-2.14,2.66-3.31,1.26h0a2,2,0,0,0-3.31.6h0a1.93,1.93,0,0,1-3.62,0h0a2,2,0,0,0-3.31-.6h0c-1.17,1.4-3.74.42-3.31-1.26h0c.35-1.35-1.34-2.41-2.73-1.71h0c-1.74.88-3.62-.92-2.43-2.3h0c1-1.11-.09-2.67-1.69-2.51h0c-2,.19-2.87-2.1-1.12-3h0a1.51,1.51,0,0,0-.35-2.89h0c-1.92-.52-1.62-2.92.38-3.08h0c1.6-.13,2.25-1.84,1-2.76h0c-1.5-1.14-.09-3.23,1.81-2.68h0c1.53.43,2.94-.9,2.27-2.16h0c-.84-1.57,1.44-3,2.93-1.82h0c1.19.93,3.1.2,3.09-1.18h0c0-1.72,2.74-2.23,3.54-.65h0A2,2,0,0,0,77.75,18.32Z"/><path class="cls-15" d="M77.79,22.73h0C79.1,21.26,82.08,22,82,23.79h0c0,1.26,1.56,2.17,3.09,1.74h0c2.17-.6,4,1.37,2.61,2.79h0c-1,1-.38,2.45,1.18,2.81h0c2.21.5,2.21,2.93,0,3.44h0c-1.56.36-2.17,1.81-1.18,2.81h0c1.41,1.42-.44,3.39-2.61,2.79h0c-1.53-.43-3.13.48-3.09,1.73h0c.07,1.79-2.91,2.54-4.22,1.07h0A2.72,2.72,0,0,0,74,43h0c-1.31,1.47-4.29.72-4.22-1.07h0c0-1.25-1.56-2.16-3.09-1.73h0c-2.17.6-4-1.37-2.61-2.79h0c1-1,.38-2.45-1.18-2.81h0c-2.21-.51-2.21-2.94,0-3.44h0c1.56-.36,2.17-1.82,1.18-2.81h0c-1.41-1.42.44-3.39,2.61-2.79h0c1.53.43,3.13-.48,3.09-1.74h0C69.69,22,72.67,21.26,74,22.73h0A2.72,2.72,0,0,0,77.79,22.73Z"/><path class="cls-16" d="M77.28,25.08h0c.87-1.11,2.86-.54,2.82.8h0a1.52,1.52,0,0,0,2.07,1.32h0c1.45-.45,2.68,1,1.74,2.1h0a1.3,1.3,0,0,0,.79,2.12h0a1.32,1.32,0,0,1,0,2.6h0a1.3,1.3,0,0,0-.79,2.13h0c.94,1.07-.29,2.55-1.74,2.1h0a1.52,1.52,0,0,0-2.07,1.31h0c0,1.35-1.95,1.92-2.82.8h0a1.68,1.68,0,0,0-2.55,0h0c-.87,1.12-2.87.55-2.83-.8h0a1.52,1.52,0,0,0-2.06-1.31h0c-1.45.45-2.68-1-1.74-2.1h0A1.3,1.3,0,0,0,67.31,34h0a1.32,1.32,0,0,1,0-2.6h0a1.3,1.3,0,0,0,.79-2.12h0c-.94-1.07.29-2.55,1.74-2.1h0a1.52,1.52,0,0,0,2.06-1.32h0c0-1.34,2-1.91,2.83-.8h0A1.67,1.67,0,0,0,77.28,25.08Z"/><path class="cls-15" d="M77,29.25h0c1.41-.6,3.07.37,2.8,1.63h0a1.38,1.38,0,0,0,.55,1.37h0c1.15.9.51,2.45-1.07,2.64h0a1.94,1.94,0,0,0-1.45.85h0a2.16,2.16,0,0,1-3.45,0h0A1.94,1.94,0,0,0,73,34.89h0c-1.59-.19-2.22-1.74-1.07-2.64h0a1.38,1.38,0,0,0,.55-1.37h0c-.27-1.26,1.38-2.23,2.8-1.63h0A2.32,2.32,0,0,0,77,29.25Z"/><path class="cls-15" d="M42.33,25.62h0c1-2,4.38-1.37,4.36.82h0c0,1.76,2.34,2.69,3.81,1.5h0c1.82-1.48,4.63.32,3.6,2.32h0c-.82,1.6.91,3.3,2.79,2.74h0c2.35-.69,4.08,2,2.23,3.42h0c-1.49,1.17-.69,3.34,1.29,3.51h0a2,2,0,0,1,.46,3.93h0a1.93,1.93,0,0,0-.43,3.67h0c2.15,1.08,1.08,4-1.38,3.75h0c-2-.2-3.27,1.78-2.08,3.2h0c1.47,1.76-.85,4-3,2.93h0c-1.72-.89-3.81.45-3.38,2.17h0c.54,2.14-2.63,3.39-4.07,1.61h0a2.37,2.37,0,0,0-4.07.76h0c-.5,2.15-4,2.15-4.46,0h0a2.38,2.38,0,0,0-4.08-.76h0c-1.44,1.78-4.6.53-4.07-1.61h0c.43-1.72-1.66-3.06-3.37-2.17h0c-2.13,1.11-4.45-1.17-3-2.93h0c1.18-1.42-.11-3.4-2.09-3.2h0c-2.46.25-3.53-2.67-1.37-3.75h0a1.93,1.93,0,0,0-.44-3.67h0a2,2,0,0,1,.47-3.93h0c2-.17,2.77-2.34,1.29-3.51h0C19.52,35,21.25,32.31,23.6,33h0c1.89.56,3.62-1.14,2.79-2.74h0c-1-2,1.78-3.8,3.61-2.32h0c1.46,1.19,3.82.26,3.81-1.5h0c0-2.19,3.37-2.83,4.35-.82h0A2.4,2.4,0,0,0,42.33,25.62Z"/><path class="cls-16" d="M42,28.92h0c.8-1.58,3.55-1.08,3.54.64h0c0,1.39,1.9,2.12,3.09,1.18h0c1.48-1.16,3.76.26,2.93,1.83h0c-.67,1.25.73,2.59,2.26,2.15h0c1.91-.55,3.32,1.54,1.81,2.69h0c-1.21.91-.56,2.62,1,2.75h0c2,.17,2.29,2.57.38,3.09h0a1.5,1.5,0,0,0-.36,2.88h0c1.75.85.88,3.15-1.12,2.95h0c-1.6-.16-2.65,1.4-1.69,2.51h0c1.2,1.39-.69,3.18-2.42,2.31h0c-1.39-.71-3.09.35-2.74,1.7h0c.44,1.68-2.14,2.67-3.3,1.26h0a2,2,0,0,0-3.32.61h0a1.92,1.92,0,0,1-3.61,0h0a2,2,0,0,0-3.32-.61h0c-1.16,1.41-3.74.42-3.3-1.26h0c.35-1.35-1.35-2.41-2.74-1.7h0c-1.73.87-3.62-.92-2.42-2.31h0c1-1.11-.09-2.67-1.69-2.51h0c-2,.2-2.87-2.1-1.12-2.95h0a1.5,1.5,0,0,0-.36-2.88h0c-1.91-.52-1.62-2.92.38-3.09h0c1.61-.13,2.26-1.84,1.05-2.75h0c-1.51-1.15-.1-3.24,1.81-2.69h0c1.53.44,2.93-.9,2.26-2.15h0c-.83-1.57,1.45-3,2.93-1.83h0c1.19.94,3.11.21,3.09-1.18h0c0-1.72,2.74-2.22,3.54-.64h0A2,2,0,0,0,42,28.92Z"/><path class="cls-15" d="M42,33.33h0c1.3-1.48,4.28-.73,4.22,1.06h0c0,1.26,1.55,2.16,3.09,1.74h0c2.17-.6,4,1.36,2.6,2.78h0c-1,1-.38,2.46,1.18,2.81h0c2.22.51,2.22,2.94,0,3.44h0c-1.56.36-2.17,1.82-1.18,2.82h0c1.41,1.41-.43,3.38-2.6,2.78h0c-1.54-.42-3.14.48-3.09,1.74h0c.06,1.79-2.92,2.54-4.22,1.06h0a2.73,2.73,0,0,0-3.82,0h0c-1.3,1.48-4.28.73-4.22-1.06h0c.05-1.26-1.55-2.16-3.09-1.74h0c-2.17.6-4-1.37-2.6-2.78h0c1-1,.38-2.46-1.18-2.82h0c-2.22-.5-2.22-2.93,0-3.44h0c1.56-.35,2.17-1.81,1.18-2.81h0c-1.41-1.42.43-3.38,2.6-2.78h0c1.54.42,3.14-.48,3.09-1.74h0c-.06-1.79,2.92-2.54,4.22-1.06h0A2.73,2.73,0,0,0,42,33.33Z"/><path class="cls-16" d="M41.49,35.68h0c.88-1.12,2.87-.55,2.83.8h0a1.52,1.52,0,0,0,2.06,1.31h0c1.45-.45,2.69,1,1.74,2.1h0A1.3,1.3,0,0,0,48.91,42h0a1.32,1.32,0,0,1,0,2.6h0a1.3,1.3,0,0,0-.79,2.12h0c1,1.07-.29,2.55-1.74,2.1h0a1.52,1.52,0,0,0-2.06,1.31h0c0,1.35-2,1.92-2.83.81h0a1.67,1.67,0,0,0-2.55,0h0c-.87,1.11-2.86.54-2.82-.81h0a1.52,1.52,0,0,0-2.06-1.31h0c-1.46.45-2.69-1-1.75-2.1h0a1.3,1.3,0,0,0-.79-2.12h0a1.32,1.32,0,0,1,0-2.6h0a1.3,1.3,0,0,0,.79-2.13h0c-.94-1.07.29-2.55,1.75-2.1h0a1.52,1.52,0,0,0,2.06-1.31h0c0-1.35,2-1.92,2.82-.8h0A1.68,1.68,0,0,0,41.49,35.68Z"/><path class="cls-15" d="M41.24,39.84h0c1.41-.59,3.06.37,2.79,1.64h0a1.34,1.34,0,0,0,.56,1.36h0c1.14.9.51,2.46-1.07,2.64h0a2,2,0,0,0-1.45.85h0a2.17,2.17,0,0,1-3.46,0h0a2,2,0,0,0-1.45-.85h0c-1.58-.18-2.21-1.74-1.07-2.64h0a1.36,1.36,0,0,0,.56-1.36h0c-.27-1.27,1.38-2.23,2.79-1.64h0A2.34,2.34,0,0,0,41.24,39.84Z"/><path class="cls-15" d="M116.37,11.05h0c1-2,4.38-1.37,4.36.82h0c0,1.76,2.34,2.69,3.81,1.5h0c1.82-1.48,4.63.33,3.6,2.32h0c-.82,1.6.91,3.3,2.79,2.75h0c2.35-.7,4.08,2,2.23,3.41h0c-1.49,1.17-.69,3.35,1.29,3.51h0a2,2,0,0,1,.46,3.93h0a1.93,1.93,0,0,0-.43,3.67h0c2.15,1.08,1.08,4-1.38,3.75h0c-2-.2-3.27,1.79-2.08,3.2h0c1.47,1.76-.85,4.05-3,2.93h0c-1.71-.89-3.8.46-3.37,2.17h0c.54,2.15-2.63,3.39-4.07,1.61h0a2.38,2.38,0,0,0-4.08.77h0c-.49,2.15-4,2.15-4.45,0h0a2.38,2.38,0,0,0-4.08-.77h0c-1.44,1.78-4.61.54-4.07-1.61h0c.43-1.71-1.66-3.06-3.37-2.17h0c-2.14,1.12-4.46-1.17-3-2.93h0c1.18-1.41-.11-3.4-2.09-3.2h0C93,37,91.94,34,94.1,33h0a1.93,1.93,0,0,0-.44-3.67h0a2,2,0,0,1,.47-3.93h0c2-.16,2.77-2.34,1.28-3.51h0c-1.85-1.45-.12-4.11,2.23-3.41h0c1.89.55,3.62-1.15,2.79-2.75h0c-1-2,1.78-3.8,3.61-2.32h0c1.46,1.19,3.82.26,3.8-1.5h0c0-2.19,3.37-2.83,4.36-.82h0A2.4,2.4,0,0,0,116.37,11.05Z"/><path class="cls-16" d="M116,14.35h0c.8-1.58,3.55-1.08,3.53.65h0c0,1.38,1.91,2.11,3.1,1.18h0c1.48-1.17,3.76.25,2.92,1.82h0c-.66,1.26.74,2.59,2.27,2.15h0c1.91-.54,3.32,1.55,1.81,2.69h0c-1.21.91-.56,2.62,1.05,2.76h0a1.55,1.55,0,0,1,.37,3.08h0a1.5,1.5,0,0,0-.35,2.88h0c1.75.85.88,3.15-1.12,2.95h0c-1.6-.15-2.65,1.4-1.69,2.52h0c1.2,1.38-.69,3.17-2.42,2.3h0c-1.39-.7-3.09.35-2.74,1.7h0c.43,1.69-2.14,2.67-3.31,1.26h0a2,2,0,0,0-3.31.61h0a1.93,1.93,0,0,1-3.62,0h0a2,2,0,0,0-3.31-.61h0c-1.17,1.41-3.74.43-3.3-1.26h0c.35-1.35-1.35-2.4-2.74-1.7h0c-1.73.87-3.62-.92-2.42-2.3h0c1-1.12-.09-2.67-1.7-2.52h0c-2,.2-2.86-2.1-1.11-2.95h0a1.5,1.5,0,0,0-.36-2.88h0c-1.92-.52-1.62-2.92.38-3.08h0c1.61-.14,2.26-1.85,1-2.76h0c-1.51-1.14-.1-3.23,1.81-2.69h0c1.53.44,2.93-.89,2.26-2.15h0c-.83-1.57,1.45-3,2.93-1.82h0c1.19.93,3.11.2,3.09-1.18h0c0-1.73,2.74-2.23,3.54-.65h0A2,2,0,0,0,116,14.35Z"/><path class="cls-15" d="M116.05,18.76h0c1.3-1.48,4.28-.73,4.22,1.06h0c0,1.26,1.55,2.16,3.08,1.74h0c2.18-.6,4,1.37,2.61,2.78h0c-1,1-.38,2.46,1.18,2.82h0c2.21.5,2.21,2.93,0,3.44h0c-1.56.35-2.17,1.81-1.18,2.81h0c1.41,1.42-.43,3.38-2.61,2.78h0c-1.53-.42-3.13.48-3.08,1.74h0c.06,1.79-2.92,2.54-4.22,1.06h0a2.75,2.75,0,0,0-3.82,0h0c-1.3,1.48-4.28.73-4.22-1.06h0c0-1.26-1.56-2.16-3.09-1.74h0c-2.17.6-4-1.36-2.61-2.78h0c1-1,.38-2.46-1.18-2.81h0c-2.21-.51-2.21-2.94,0-3.44h0c1.56-.36,2.18-1.82,1.18-2.82h0c-1.4-1.41.44-3.38,2.61-2.78h0c1.53.42,3.13-.48,3.09-1.74h0c-.06-1.79,2.92-2.54,4.22-1.06h0A2.73,2.73,0,0,0,116.05,18.76Z"/><path class="cls-16" d="M115.53,21.11h0c.87-1.11,2.87-.55,2.82.8h0a1.52,1.52,0,0,0,2.07,1.31h0c1.45-.45,2.68,1,1.74,2.11h0a1.3,1.3,0,0,0,.79,2.12h0a1.32,1.32,0,0,1,0,2.6h0a1.3,1.3,0,0,0-.79,2.12h0c.94,1.07-.29,2.56-1.74,2.1h0a1.53,1.53,0,0,0-2.07,1.32h0c.05,1.35-1.95,1.91-2.82.8h0a1.67,1.67,0,0,0-2.55,0h0c-.87,1.11-2.86.55-2.82-.8h0a1.53,1.53,0,0,0-2.07-1.32h0c-1.45.46-2.68-1-1.74-2.1h0a1.3,1.3,0,0,0-.79-2.12h0a1.32,1.32,0,0,1,0-2.6h0a1.3,1.3,0,0,0,.79-2.12h0c-.94-1.07.29-2.56,1.74-2.11h0a1.52,1.52,0,0,0,2.07-1.31h0c0-1.35,2-1.91,2.82-.8h0A1.68,1.68,0,0,0,115.53,21.11Z"/><path class="cls-15" d="M115.27,25.28h0c1.42-.6,3.07.36,2.8,1.63h0a1.38,1.38,0,0,0,.55,1.37h0c1.15.89.52,2.45-1.06,2.64h0a2,2,0,0,0-1.45.84h0a2.17,2.17,0,0,1-3.46,0h0a2,2,0,0,0-1.45-.84h0c-1.58-.19-2.21-1.75-1.07-2.64h0a1.38,1.38,0,0,0,.55-1.37h0c-.27-1.27,1.39-2.23,2.8-1.63h0A2.41,2.41,0,0,0,115.27,25.28Z"/><path class="cls-15" d="M153.39,17.67h0c1-2,4.38-1.37,4.36.82h0c0,1.76,2.34,2.69,3.81,1.5h0c1.82-1.48,4.63.33,3.6,2.32h0c-.82,1.61.91,3.31,2.79,2.75h0c2.35-.7,4.08,2,2.23,3.41h0c-1.49,1.17-.69,3.35,1.29,3.52h0a2,2,0,0,1,.46,3.92h0a1.93,1.93,0,0,0-.43,3.67h0c2.15,1.08,1.08,4-1.38,3.76h0c-2-.2-3.27,1.78-2.09,3.19h0c1.48,1.77-.84,4-3,2.94h0c-1.71-.9-3.8.45-3.37,2.17h0c.54,2.14-2.63,3.39-4.07,1.6h0a2.38,2.38,0,0,0-4.08.77h0c-.49,2.15-4,2.15-4.45,0h0a2.38,2.38,0,0,0-4.08-.77h0c-1.44,1.79-4.61.54-4.07-1.6h0c.43-1.72-1.66-3.07-3.37-2.17h0c-2.14,1.11-4.46-1.17-3-2.94h0c1.18-1.41-.11-3.39-2.09-3.19h0c-2.46.24-3.53-2.68-1.38-3.76h0a1.94,1.94,0,0,0-.44-3.67h0a2,2,0,0,1,.46-3.92h0c2-.17,2.78-2.35,1.29-3.52h0c-1.85-1.45-.12-4.11,2.23-3.41h0c1.89.56,3.61-1.14,2.79-2.75h0c-1-2,1.78-3.8,3.6-2.32h0c1.47,1.19,3.83.26,3.81-1.5h0c0-2.19,3.37-2.83,4.36-.82h0A2.4,2.4,0,0,0,153.39,17.67Z"/><path class="cls-16" d="M153,21h0c.8-1.58,3.55-1.08,3.53.65h0c0,1.38,1.91,2.11,3.1,1.18h0c1.48-1.17,3.76.25,2.92,1.82h0c-.67,1.26.74,2.59,2.27,2.15h0c1.91-.54,3.31,1.55,1.81,2.69h0c-1.21.92-.56,2.63,1,2.76h0c2,.16,2.3,2.56.38,3.08h0a1.51,1.51,0,0,0-.35,2.89h0c1.75.84.88,3.14-1.12,2.94h0c-1.6-.15-2.65,1.41-1.69,2.52h0c1.19,1.38-.69,3.17-2.42,2.3h0c-1.39-.7-3.09.36-2.74,1.71h0c.43,1.68-2.14,2.66-3.31,1.26h0a2,2,0,0,0-3.31.6h0a1.93,1.93,0,0,1-3.62,0h0a2,2,0,0,0-3.31-.6h0c-1.17,1.4-3.74.42-3.3-1.26h0c.35-1.35-1.35-2.41-2.74-1.71h0c-1.74.87-3.62-.92-2.42-2.3h0c1-1.11-.09-2.67-1.7-2.52h0c-2,.2-2.86-2.1-1.11-2.94h0a1.51,1.51,0,0,0-.36-2.89h0c-1.92-.52-1.62-2.92.38-3.08h0c1.61-.13,2.25-1.84,1-2.76h0c-1.51-1.14-.1-3.23,1.81-2.69h0c1.53.44,2.93-.89,2.26-2.15h0c-.83-1.57,1.44-3,2.93-1.82h0c1.19.93,3.1.2,3.09-1.18h0c0-1.73,2.74-2.23,3.54-.65h0A2,2,0,0,0,153,21Z"/><path class="cls-15" d="M153.07,25.38h0c1.3-1.48,4.28-.72,4.22,1.06h0c0,1.26,1.55,2.16,3.08,1.74h0c2.18-.6,4,1.37,2.61,2.78h0c-1,1-.38,2.46,1.18,2.82h0c2.21.5,2.21,2.93,0,3.44h0C162.6,37.57,162,39,163,40h0c1.41,1.42-.43,3.38-2.61,2.78h0c-1.53-.42-3.13.48-3.08,1.74h0c.06,1.79-2.92,2.54-4.22,1.07h0a2.73,2.73,0,0,0-3.82,0h0c-1.3,1.47-4.29.72-4.22-1.07h0c0-1.26-1.56-2.16-3.09-1.74h0c-2.17.6-4-1.36-2.61-2.78h0c1-1,.38-2.46-1.18-2.81h0c-2.21-.51-2.21-2.94,0-3.44h0c1.56-.36,2.17-1.82,1.18-2.82h0c-1.4-1.41.44-3.38,2.61-2.78h0c1.53.42,3.13-.48,3.09-1.74h0c-.07-1.78,2.92-2.54,4.22-1.06h0A2.73,2.73,0,0,0,153.07,25.38Z"/><path class="cls-16" d="M152.55,27.73h0c.87-1.11,2.87-.55,2.82.8h0a1.53,1.53,0,0,0,2.07,1.32h0c1.45-.46,2.68,1,1.74,2.1h0a1.3,1.3,0,0,0,.79,2.12h0a1.32,1.32,0,0,1,0,2.6h0a1.3,1.3,0,0,0-.79,2.12h0c.94,1.07-.29,2.56-1.74,2.11h0a1.52,1.52,0,0,0-2.07,1.31h0c0,1.35-2,1.92-2.82.8h0A1.68,1.68,0,0,0,150,43h0c-.87,1.12-2.87.55-2.82-.8h0a1.52,1.52,0,0,0-2.07-1.31h0c-1.45.45-2.68-1-1.74-2.11h0a1.3,1.3,0,0,0-.79-2.12h0a1.32,1.32,0,0,1,0-2.6h0a1.3,1.3,0,0,0,.79-2.12h0c-.94-1.07.29-2.56,1.74-2.1h0a1.53,1.53,0,0,0,2.07-1.32h0c-.05-1.35,1.95-1.91,2.82-.8h0A1.67,1.67,0,0,0,152.55,27.73Z"/><path class="cls-15" d="M152.29,31.9h0c1.42-.6,3.07.36,2.8,1.63h0a1.38,1.38,0,0,0,.55,1.37h0c1.15.89.52,2.45-1.06,2.64h0a2,2,0,0,0-1.46.84h0a2.16,2.16,0,0,1-3.45,0h0a2,2,0,0,0-1.45-.84h0c-1.58-.19-2.21-1.75-1.07-2.64h0a1.38,1.38,0,0,0,.55-1.37h0c-.27-1.27,1.39-2.23,2.8-1.63h0A2.41,2.41,0,0,0,152.29,31.9Z"/><path class="cls-15" d="M190.41,28.27h0c1-2,4.38-1.38,4.36.82h0c0,1.76,2.34,2.69,3.81,1.5h0c1.82-1.48,4.63.32,3.6,2.32h0c-.82,1.6.9,3.3,2.79,2.74h0c2.35-.69,4.08,2,2.23,3.42h0c-1.49,1.17-.69,3.34,1.28,3.51h0a2,2,0,0,1,.47,3.93h0a1.94,1.94,0,0,0-.44,3.67h0c2.16,1.08,1.09,4-1.37,3.75h0c-2-.2-3.27,1.78-2.09,3.2h0c1.48,1.76-.84,4-3,2.93h0c-1.71-.89-3.8.45-3.37,2.17h0c.54,2.14-2.63,3.39-4.07,1.61h0a2.38,2.38,0,0,0-4.08.76h0c-.49,2.15-4,2.15-4.45,0h0a2.38,2.38,0,0,0-4.08-.76h0c-1.44,1.78-4.61.53-4.07-1.61h0c.43-1.72-1.66-3.06-3.37-2.17h0c-2.14,1.11-4.46-1.17-3-2.93h0c1.18-1.42-.11-3.4-2.09-3.2h0c-2.46.25-3.53-2.67-1.38-3.75h0a1.93,1.93,0,0,0-.43-3.67h0a2,2,0,0,1,.46-3.93h0c2-.17,2.78-2.34,1.29-3.51h0c-1.85-1.45-.12-4.11,2.23-3.42h0c1.88.56,3.61-1.14,2.79-2.74h0c-1-2,1.78-3.8,3.6-2.32h0c1.47,1.19,3.83.26,3.81-1.5h0c0-2.2,3.37-2.83,4.36-.82h0A2.4,2.4,0,0,0,190.41,28.27Z"/><path class="cls-16" d="M190,31.57h0c.81-1.58,3.56-1.08,3.54.64h0c0,1.38,1.91,2.12,3.1,1.18h0c1.48-1.16,3.76.26,2.92,1.82h0c-.67,1.26.74,2.6,2.27,2.16h0c1.91-.55,3.31,1.54,1.81,2.68h0c-1.21.92-.56,2.63,1,2.76h0c2,.17,2.3,2.57.38,3.09h0a1.5,1.5,0,0,0-.35,2.88h0c1.75.85.88,3.14-1.12,2.95h0c-1.6-.16-2.65,1.4-1.69,2.51h0c1.19,1.39-.69,3.18-2.42,2.31h0c-1.39-.71-3.09.35-2.74,1.7h0c.43,1.68-2.14,2.66-3.31,1.26h0a2,2,0,0,0-3.31.6h0a1.93,1.93,0,0,1-3.62,0h0a2,2,0,0,0-3.31-.6h0c-1.17,1.4-3.74.42-3.3-1.26h0c.34-1.35-1.35-2.41-2.74-1.7h0c-1.74.87-3.62-.92-2.42-2.31h0c1-1.11-.09-2.67-1.7-2.51h0c-2,.19-2.87-2.1-1.12-2.95h0a1.5,1.5,0,0,0-.35-2.88h0c-1.92-.52-1.62-2.92.38-3.09h0c1.61-.13,2.25-1.84,1.05-2.76h0c-1.51-1.14-.1-3.23,1.8-2.68h0c1.53.44,2.94-.9,2.27-2.16h0c-.83-1.56,1.44-3,2.93-1.82h0c1.19.94,3.1.2,3.09-1.18h0c0-1.72,2.74-2.22,3.54-.64h0A2,2,0,0,0,190,31.57Z"/><path class="cls-15" d="M190.08,36h0c1.31-1.47,4.29-.72,4.22,1.07h0c0,1.26,1.56,2.16,3.09,1.74h0c2.18-.6,4,1.36,2.61,2.78h0c-1,1-.38,2.46,1.18,2.81h0c2.21.51,2.21,2.94,0,3.44h0c-1.56.36-2.17,1.82-1.18,2.82h0c1.41,1.41-.43,3.38-2.61,2.78h0c-1.53-.42-3.13.48-3.09,1.74h0c.07,1.79-2.91,2.54-4.22,1.06h0a2.72,2.72,0,0,0-3.81,0h0c-1.31,1.48-4.29.73-4.22-1.06h0c0-1.26-1.56-2.16-3.09-1.74h0c-2.17.6-4-1.37-2.61-2.78h0c1-1,.38-2.46-1.18-2.82h0c-2.21-.5-2.21-2.93,0-3.44h0c1.56-.35,2.17-1.81,1.18-2.81h0c-1.4-1.42.44-3.38,2.61-2.78h0c1.53.42,3.13-.48,3.09-1.74h0C182,35.25,185,34.5,186.27,36h0A2.72,2.72,0,0,0,190.08,36Z"/><path class="cls-16" d="M189.57,38.33h0c.87-1.12,2.87-.55,2.82.8h0a1.52,1.52,0,0,0,2.07,1.31h0c1.45-.45,2.68,1,1.74,2.1h0a1.3,1.3,0,0,0,.79,2.13h0a1.31,1.31,0,0,1,0,2.59h0a1.31,1.31,0,0,0-.79,2.13h0c.94,1.07-.29,2.55-1.74,2.1h0a1.52,1.52,0,0,0-2.07,1.31h0c.05,1.35-1.95,1.92-2.82.81h0a1.67,1.67,0,0,0-2.55,0h0c-.87,1.11-2.87.54-2.82-.81h0a1.52,1.52,0,0,0-2.07-1.31h0c-1.45.45-2.68-1-1.74-2.1h0a1.31,1.31,0,0,0-.79-2.13h0a1.31,1.31,0,0,1,0-2.59h0a1.3,1.3,0,0,0,.79-2.13h0c-.94-1.07.29-2.55,1.74-2.1h0a1.52,1.52,0,0,0,2.07-1.31h0c0-1.35,2-1.92,2.82-.8h0A1.68,1.68,0,0,0,189.57,38.33Z"/><path class="cls-15" d="M189.31,42.49h0c1.42-.59,3.07.37,2.8,1.63h0a1.36,1.36,0,0,0,.55,1.37h0c1.15.9.52,2.46-1.07,2.64h0a2,2,0,0,0-1.45.85h0a2.16,2.16,0,0,1-3.45,0h0a2,2,0,0,0-1.45-.85h0c-1.58-.18-2.21-1.74-1.07-2.64h0a1.36,1.36,0,0,0,.55-1.37h0c-.27-1.26,1.39-2.22,2.8-1.63h0A2.32,2.32,0,0,0,189.31,42.49Z"/><path class="cls-8" d="M85.65,91.68s-5.35-2.44-7.42-6.25"/><path class="cls-8" d="M83.66,95.69s-5.35-2.44-7.42-6.26"/><path class="cls-8" d="M91,154.84s24.39-13.24,46.76,0"/><path class="cls-8" d="M94.44,147.54s-.23,6.78,2.22,11.11"/><path class="cls-8" d="M103.19,145s-1.2,6.64,1.88,11.45"/><line class="cls-8" x1="113.12" y1="145.02" x2="113.25" y2="156.47"/><path class="cls-8" d="M122.84,145s1.87,6.64,0,11.45"/><path class="cls-8" d="M132.19,146.79s1.43,7.53,0,11.86"/></g></g></svg>