<svg xmlns="http://www.w3.org/2000/svg" width="258" height="606" viewBox="0 0 258 606"><defs><style>.cls-1{fill:#fff;}.cls-2{fill:#e0d982;}.cls-3{fill:#f3983e;}.cls-4{fill:#dd2458;}.cls-5{fill:#d6ba1a;}.cls-6{fill:#e3933a;}.cls-7{fill:#dbdad9;}.cls-8{fill:#f9c847;}.cls-9{fill:#c14a29;}.cls-10{fill:#25bf25;}.cls-11{fill:#2692db;}.cls-12{fill:#a84726;}.cls-13{fill:#2a6d21;}.cls-14{fill:#c1b867;}.cls-15{fill:none;stroke:#000;stroke-miterlimit:10;}</style></defs><g id="Animated_items" data-name="Animated items"><g id="sad"><path class="cls-1" d="M22.59,394.55l17.53-2.23,3.42,12.47a22,22,0,0,1-19.24,0Z"/><path class="cls-1" d="M24.3,404.79s-11.51,2.49-11.51,12.46c0,0,0,8.73,2.28,12.47,0,0,3.42,5,8,1.25a7.61,7.61,0,0,1,8,0s2.77,2,7.47.6a5.26,5.26,0,0,1,2.81-.08c1.2.3,3.09.13,4.52-3,0,0,3.42-8.73,1.14-13.72h0s-1.14-8.73-3.41-10S24.3,404.79,24.3,404.79Z"/><path class="cls-1" d="M12.51,430.75s-9.38-.34-6.25,5.82C6.26,436.57,10,440.34,12.51,430.75Z"/><path class="cls-1" d="M18.67,435.2S6.8,441,14.15,446C14.15,446,20.93,447.78,18.67,435.2Z"/><path class="cls-1" d="M28.9,435.57s-8.85,10.43-.32,11.85C28.58,447.42,35.47,446.19,28.9,435.57Z"/><path class="cls-1" d="M39.83,435.57s-6.08,12.58,2.5,11.54C42.33,447.11,48.69,444,39.83,435.57Z"/><path class="cls-1" d="M48.87,427.43s1.91,16.15,9.39,9C58.26,436.45,62.36,428.94,48.87,427.43Z"/><path class="cls-1" d="M232,371.84l-17.59,1.35-1.25,12.94A22,22,0,0,0,232,382.25Z"/><path class="cls-1" d="M232,382.25s11.72.13,13.4,9.93c0,0,1.47,8.58-.14,12.72,0,0-2.51,5.59-7.61,2.83,0,0-3.78-1.76-7.83,1.61,0,0-2.26,2.41-6.86,2.13a7,7,0,0,0-3.25.5c-1.14.5-3,.62-4.85-2.1,0,0-4.82-7.88-3.43-13.24h0s-.35-8.81,1.68-10.5S232,382.25,232,382.25Z"/><path class="cls-1" d="M248,405.39s9.16-2.23,7.12,4.46C255.07,409.85,252,414.31,248,405.39Z"/><path class="cls-1" d="M242.65,411s12.63,3.32,6.26,9.68C248.91,420.68,242.56,423.82,242.65,411Z"/><path class="cls-1" d="M232.67,413.44S243.11,421.9,235,425C235,425,228,425.2,232.67,413.44Z"/><path class="cls-1" d="M221.93,415.64s8.09,11.14-.5,11.84C221.43,427.48,214.65,425.68,221.93,415.64Z"/><path class="cls-1" d="M211.69,409.47s.84,16.25-7.7,10.75C204,420.22,198.69,413.67,211.69,409.47Z"/><path class="cls-2" d="M67.45,369.88S52.52,489.3,58.85,508.76c0,0,44.47,6.36,60.41,1.38,0,0,13.59-78,15.33-144.35l7,13.54s2.6,127.14,4.39,132.71c0,0,44.38,4.51,72.62-3.69,0,0-27.56-151.56-29.83-152.81S67.45,369.88,67.45,369.88Z"/><path class="cls-3" d="M69,207.18s-36.36-.27-45.69,68.75c0,0-9.33,45.33-15,82.73,0,0-15.59,45.68,30.35,34.68,0,0,106.24-3.27,176.11-19.15a62.93,62.93,0,0,1,13-1.6c11.13-.2,34.49-4.48,17.51-39.11a52.89,52.89,0,0,1-5.24-20c-1.39-23-5.34-73.41-13.62-85.24,0,0-13.09-26.67-37.57-27.29S69,207.18,69,207.18Z"/><path class="cls-4" d="M37.29,152.69S34.56,163,40.91,169,40.69,153.48,37.29,152.69Z"/><path class="cls-5" d="M48.2,180.38s-12-.3-5.44-10.4C42.76,170,54.3,171.88,48.2,180.38Z"/><path class="cls-4" d="M201,86.87s-2.63,9.55,3.49,15S204.24,87.6,201,86.87Z"/><path class="cls-5" d="M211.49,112.43s-11.58-.28-5.26-9.59C206.23,102.84,217.38,104.59,211.49,112.43Z"/><path class="cls-6" d="M43.34,124.7,11.25,146.45S6.9,153,38.88,153.59L196,97s29.7-26.37,30.27-35.72C226.3,61.31,220,12.07,43.34,124.7Z"/><path class="cls-1" d="M47,118.72c20-27,78.84-88.37,160.36-11.8a12.44,12.44,0,0,1,3.06,4.55c4.4,11.19,17.55,54-21.68,89.48,0,0-15.95,11.22-20.5,22.44,0,0-4.56,16.21-20.5,13.71l-28.87.26A48.14,48.14,0,0,1,104.43,232,21.77,21.77,0,0,1,97,224.94c-2.41-3.62-7.74-9.12-18.72-11.53,0,0-37.78-18.61-39.37-68.08A42.64,42.64,0,0,1,47,118.72Z"/><ellipse class="cls-7" cx="107.88" cy="136.12" rx="20.5" ry="21.19"/><ellipse cx="108.03" cy="146.15" rx="14.52" ry="10.56"/><ellipse class="cls-7" cx="157.98" cy="134.87" rx="20.5" ry="21.19"/><path class="cls-8" d="M14,112.63c-1.76.87-8,5.14-8.27,22.24,0,0-3.79,19.95,12.16,7.48,0,0,70.6-57.35,187.89-84.78,0,0,22.77-2.49,20.49,3.74a24,24,0,0,0-4.55-18.7s0-5-19.36-3.74c0,0-91.63,5-186.95,72.89A11.37,11.37,0,0,1,14,112.63Z"/><path class="cls-8" d="M62.9,23.29S92.5,7.08,114.14,4.59c0,0,8-3.74,19.36,7.48l32,32.57L54.75,86.92s-3.24-32.46-3.24-35S44.68,29.52,62.9,23.29Z"/><path class="cls-9" d="M99.34,47,52.46,63.3l2.29,23.62L81,73.49s53.54-23.27,59.27-22.4c0,0,24.24-6.3,25.23-6.45l-16.76-17Z"/><path class="cls-4" d="M48.45,121.52s-3,12.91,4,20.3S52.22,122.51,48.45,121.52Z"/><path class="cls-5" d="M60.54,156.07s-13.29-.38-6-13C54.51,143.1,67.29,145.47,60.54,156.07Z"/><path class="cls-4" d="M225,59.19s-3,12.9,4,20.29S228.72,60.17,225,59.19Z"/><path class="cls-5" d="M237,93.73s-13.28-.38-6-13C231,80.76,243.79,83.13,237,93.73Z"/><path class="cls-4" d="M7,145.38s5.8,17.54,11.5,20S13.72,155.26,7,145.38Z"/><path class="cls-5" d="M26.38,178.51s-13.29-.38-6-13C20.34,165.54,33.13,167.91,26.38,178.51Z"/><path d="M122.68,168.53s4-6.94,8.25-9.08c0,0,4.28,3.1,6,6.47a25.35,25.35,0,0,0,1.35,2.39c.93,1.4,2.21,3.95,1.45,6.46,0,0-.57,6.23-8.83,0,0,0-9.39,3.83-9.39-1.25C121.54,173.52,121.54,169.78,122.68,168.53Z"/><ellipse class="cls-10" cx="82.25" cy="133.62" rx="3.42" ry="3.12"/><ellipse class="cls-10" cx="84.53" cy="123.65" rx="3.03" ry="3.51" transform="translate(-64.17 105.69) rotate(-48.76)"/><ellipse class="cls-10" cx="92.5" cy="114.92" rx="2.89" ry="3.68" transform="translate(-34.22 39.39) rotate(-20.37)"/><ellipse class="cls-10" cx="103.89" cy="109.94" rx="2.85" ry="3.74" transform="translate(-6.69 6.73) rotate(-3.59)"/><ellipse class="cls-10" cx="116.42" cy="111.18" rx="3.72" ry="2.86" transform="translate(-14.57 204.76) rotate(-79.22)"/><ellipse class="cls-10" cx="125.53" cy="116.17" rx="3.61" ry="2.95" transform="translate(-39.23 162.08) rotate(-58.36)"/><ellipse class="cls-10" cx="132.36" cy="127.39" rx="3.5" ry="3.04" transform="translate(-50.55 110.29) rotate(-38.56)"/><ellipse class="cls-10" cx="132.36" cy="141.1" rx="3.09" ry="3.44" transform="translate(-49.9 205.99) rotate(-66.43)"/><ellipse class="cls-10" cx="128.94" cy="151.08" rx="2.99" ry="3.57" transform="translate(-66.46 115.45) rotate(-39.19)"/><ellipse class="cls-10" cx="120.97" cy="158.56" rx="2.89" ry="3.68" transform="translate(-47.63 52.03) rotate(-20.37)"/><ellipse class="cls-10" cx="110.72" cy="163.55" rx="2.85" ry="3.74" transform="translate(-5.21 3.65) rotate(-1.85)"/><ellipse class="cls-10" cx="101.22" cy="161.54" rx="3.72" ry="2.86" transform="translate(-76.4 230.77) rotate(-79.22)"/><ellipse class="cls-10" cx="90.97" cy="156.55" rx="3.64" ry="2.93" transform="translate(-89.97 163.16) rotate(-61.93)"/><ellipse class="cls-10" cx="84.14" cy="147.83" rx="3.55" ry="3" transform="translate(-82.01 111.42) rotate(-47.99)"/><ellipse class="cls-10" cx="135.77" cy="118.66" rx="3.03" ry="3.51" transform="translate(-42.96 142.52) rotate(-48.76)"/><ellipse class="cls-10" cx="142.61" cy="113.68" rx="2.89" ry="3.68" transform="translate(-30.65 56.76) rotate(-20.37)"/><ellipse class="cls-10" cx="153.99" cy="108.69" rx="2.85" ry="3.74" transform="translate(-6.51 9.87) rotate(-3.59)"/><ellipse class="cls-10" cx="166.52" cy="109.94" rx="3.72" ry="2.86" transform="translate(27.39 252.96) rotate(-79.22)"/><ellipse class="cls-10" cx="175.63" cy="114.92" rx="3.61" ry="2.95" transform="translate(-14.35 204.14) rotate(-58.36)"/><ellipse class="cls-10" cx="182.46" cy="126.14" rx="3.5" ry="3.04" transform="translate(-38.84 141.25) rotate(-38.56)"/><ellipse class="cls-10" cx="182.46" cy="138.61" rx="3.09" ry="3.44" transform="translate(-17.55 250.42) rotate(-66.43)"/><ellipse class="cls-10" cx="179.05" cy="148.59" rx="2.99" ry="3.57" transform="translate(-53.61 146.55) rotate(-39.19)"/><ellipse class="cls-10" cx="171.07" cy="156.07" rx="2.89" ry="3.68" transform="translate(-43.63 69.32) rotate(-20.37)"/><ellipse class="cls-10" cx="160.83" cy="161.05" rx="2.85" ry="3.74" transform="matrix(1, -0.03, 0.03, 1, -5.1, 5.26)"/><ellipse class="cls-10" cx="151.32" cy="159.05" rx="3.72" ry="2.86" transform="translate(-33.21 277.96) rotate(-79.22)"/><ellipse class="cls-10" cx="143.35" cy="156.55" rx="3.64" ry="2.93" transform="translate(-62.24 209.38) rotate(-61.93)"/><ellipse class="cls-10" cx="136.52" cy="149.07" rx="3.55" ry="3" transform="translate(-65.61 150.75) rotate(-47.99)"/><path class="cls-11" d="M79.77,177s-3.84-7.12-7.81-6.7-4.82,3.81-5.15,6.57S77.73,182.26,79.77,177Z"/><path class="cls-11" d="M78.65,185.92s-6.42-4.35-9.76-2-2.65,5.82-1.78,8.44S79.05,191.59,78.65,185.92Z"/><path class="cls-11" d="M82,191.83s-7.52.8-8.85,4.91,1.12,6.39,3.26,7.89S85.47,196.06,82,191.83Z"/><path class="cls-11" d="M177.57,188.51s1.88,8,5.8,8.83,5.59-2.19,6.62-4.74S180.86,184.12,177.57,188.51Z"/><path class="cls-11" d="M180.91,180.32s5.06,6.14,8.87,4.88,4-4.78,3.86-7.56S182,174.76,180.91,180.32Z"/><path class="cls-11" d="M179.19,173.63s7.42,1.52,9.76-2,.55-6.48-1.13-8.57S177,168.51,179.19,173.63Z"/><path class="cls-12" d="M27.94,253s84.1,41.88,203-12.9l5,28.21s-89.68,32.59-213.34,11Z"/><path class="cls-13" d="M16.21,308.79s138.68,10,221.93-19.31l2.37,29.3S159,349.3,11.31,339.64Z"/><path class="cls-12" d="M6,368.63a20.11,20.11,0,0,0,10.43-.14,16,16,0,0,1,4.15-.78c20.25-.67,165.1-6.09,209.1-24.93,0,0,16.73-5.8,15.52-8s20.94,33.83-13.48,38.85c0,0-142.4,21.38-190.92,21a14.18,14.18,0,0,0-4,.55C29.45,397.26,2.37,403.46,6,368.63Z"/><ellipse cx="158.83" cy="146.15" rx="14.52" ry="10.56"/><path class="cls-1" d="M79.34,511l-2.21,26.54s-2.42,7.66,2.21,10.07L91.93,550s9.11,1.25,6.84-6.23L102,512"/><path class="cls-1" d="M62.33,570s-11,2.49-13.46,0c0,0-6.9-7.57,5-13.14h3.42S69,549.41,76.5,547.23L91.93,550s15.95,2.49,3.42,16.21c0,0-16.07,7-18.85,12.24C76.5,578.48,63.47,586.19,62.33,570Z"/><path class="cls-1" d="M67.18,584.68s-8.32,6.92-5.12,14.21C62.06,598.89,70,601.08,67.18,584.68Z"/><path class="cls-1" d="M45.81,570s-6.39-3.7-8.54,4.87C37.27,574.86,39.31,584.7,45.81,570Z"/><path class="cls-1" d="M51.51,577.47s-6.39-3.7-8.54,4.87C43,582.34,45,592.18,51.51,577.47Z"/><path class="cls-1" d="M60.62,582.46s-6.39-3.7-8.54,4.87C52.08,587.33,54.11,597.17,60.62,582.46Z"/><path class="cls-1" d="M42.6,562.79s-6.53-3-9.36,1.6C33.24,564.39,34.77,570.33,42.6,562.79Z"/><path class="cls-1" d="M197.51,511.06l2.2,26.55s2.41,7.66-2.2,10.06L185,550.08s-9.08,1.24-6.81-6.24l-3.24-31.76"/><path class="cls-1" d="M214.47,570s10.94,2.5,13.41,0c0,0,6.88-7.57-5-13.13H219.5s-11.72-7.44-19.16-9.62L185,550.08s-15.9,2.49-3.41,16.2c0,0,16,7,18.8,12.25C200.34,578.53,213.33,586.23,214.47,570Z"/><path class="cls-1" d="M207.17,584s9.31,6.22,7.62,13.59C214.79,597.54,207.57,600.22,207.17,584Z"/><path class="cls-1" d="M233.2,572.53s6.37-3.7,8.52,4.87C241.72,577.4,239.69,587.24,233.2,572.53Z"/><path class="cls-1" d="M225.25,577.51s6.38-3.69,8.52,4.88C233.77,582.39,231.74,592.23,225.25,577.51Z"/><path class="cls-1" d="M216.17,582.5s6.37-3.7,8.52,4.87C224.69,587.37,222.66,597.21,216.17,582.5Z"/><path class="cls-1" d="M233.54,564.76s6.8-2.15,9.1,2.81C242.64,567.57,240.49,573.26,233.54,564.76Z"/><path class="cls-14" d="M197.73,476.2s.31,7.2,2.81,9.95,1.89,7.12,1.89,7.12-.58,5.08,2.71,7.79,2.81,9.16,2.81,9.16l4.15-.83s-2.2-8.57-3.88-10.65c0,0-.85-1.4-.09-2.16,0,0,.51-6.51-1.17-8.59S197,477,197.73,476.2Z"/><path class="cls-14" d="M93,477.45s.31,7.19,2.81,9.95,1.9,7.12,1.9,7.12-.58,5.08,2.71,7.79,2.81,9.16,2.81,9.16l4.15-.83s-2.21-8.57-3.88-10.65c0,0-.86-1.4-.1-2.16,0,0,.52-6.52-1.16-8.6S92.2,478.21,93,477.45Z"/><path class="cls-14" d="M164.35,478.85s.31,7.19-1.11,10.15-.71,7.25-.71,7.25.73,5-1.2,8-1.16,9.36-1.16,9.36l-2.73-.48s.81-8.72,1.75-10.94c0,0,.45-1.46-.1-2.16,0,0-.79-6.45.15-8.66S164.89,479.54,164.35,478.85Z"/><path class="cls-14" d="M66.42,473.86s.31,7.2-1.11,10.15-.71,7.25-.71,7.25.73,5-1.2,8-1.16,9.36-1.16,9.36l-2.73-.47s.81-8.73,1.75-10.94c0,0,.45-1.47-.1-2.16,0,0-.79-6.45.15-8.67S67,474.55,66.42,473.86Z"/><path class="cls-15" d="M103.89,206.41s29.7-14.7,56.94,0"/><path class="cls-15" d="M108,198.3s-.29,7.54,2.69,12.35"/><path class="cls-15" d="M118.68,195.51s-1.46,7.37,2.29,12.72"/><line class="cls-15" x1="130.77" y1="195.51" x2="130.93" y2="208.23"/><path class="cls-15" d="M142.61,195.51s2.28,7.37,0,12.72"/><path class="cls-15" d="M154,197.47s1.74,8.37,0,13.18"/></g></g></svg>