<svg xmlns="http://www.w3.org/2000/svg" xmlns:xlink="http://www.w3.org/1999/xlink" width="80" height="85" viewBox="0 0 80 85"><defs><style>.cls-1{filter:url(#AI_DesenfoqueGaussiano_4);}.cls-2{fill:#fff;}.cls-3{fill:#ea2199;}</style><filter id="AI_DesenfoqueGaussiano_4" name="AI_DesenfoqueGaussiano_4"><feGaussianBlur stdDeviation="4"/></filter></defs><g id="Animated_items" data-name="Animated items"><g class="cls-1"><rect x="8.21" y="11.05" width="65" height="65" rx="12"/></g><rect class="cls-2" x="6.21" y="8.05" width="65" height="65" rx="12"/><path class="cls-3" d="M27.86,23.5H34a2.64,2.64,0,0,1,2.86,2.35v30.3A2.64,2.64,0,0,1,34,58.5H27.86A2.64,2.64,0,0,1,25,56.15V25.85A2.64,2.64,0,0,1,27.86,23.5Z"/><path class="cls-3" d="M46,23.5h6.14A2.64,2.64,0,0,1,55,25.85v30.3a2.64,2.64,0,0,1-2.86,2.35H46a2.64,2.64,0,0,1-2.86-2.35V25.85A2.64,2.64,0,0,1,46,23.5Z"/></g></svg>