<svg id="Win_screen" data-name="Win screen" xmlns="http://www.w3.org/2000/svg" width="500" height="640" viewBox="0 0 500 640"><defs><style>.cls-1{fill:#fff;}.cls-2{fill:#e0d982;}.cls-3{fill:#f3983e;}.cls-4{fill:#dd2458;}.cls-5{fill:#d6ba1a;}.cls-6{fill:#e3933a;}.cls-7{fill:#dbdad9;}.cls-8{fill:#f9c847;}.cls-9{fill:#c14a29;}.cls-10{fill:#25bf25;}.cls-11{fill:#2692db;}.cls-12{fill:#a84726;}.cls-13{fill:#2a6d21;}.cls-14{fill:#c1b867;}.cls-15{stroke:#000;stroke-miterlimit:10;}</style></defs><g id="male_skeleton" data-name="male skeleton"><path class="cls-1" d="M63.73,207.93l-14,12.64-10.84-8.12a24.32,24.32,0,0,1,16.92-11.87Z"/><path class="cls-1" d="M55.79,200.58s8.56-9.14,2.29-17.33c0,0-5.48-7.16-9.83-8.82,0,0-6.14-2-7.8,3.89,0,0-1.44,4.16-7,4.92,0,0-3.7,0-6.95,4.11a5.78,5.78,0,0,1-2.42,1.8c-1.24.5-2.8,1.8-2.08,5.27,0,0,2.47,9.26,7.61,12h0s6.49,6.46,9.27,6.08S55.79,200.58,55.79,200.58Z"/><path class="cls-1" d="M49.85,172s8.47-5.51,1.84-8.64C51.69,163.37,46,162.6,49.85,172Z"/><path class="cls-1" d="M41.64,172.16s6.78-12.09-2.79-11.63C38.85,160.53,31.75,163.23,41.64,172.16Z"/><path class="cls-1" d="M32.41,178.16s1.22-14-7.17-9.92C25.24,168.24,20,173.5,32.41,178.16Z"/><path class="cls-1" d="M22.79,184.91s-2.56-14.08-9.44-7.93C13.35,177,9.73,183.48,22.79,184.91Z"/><path class="cls-1" d="M20,197.15S8.13,185.08,6,195.55C6,195.55,7.14,204.25,20,197.15Z"/><path class="cls-1" d="M449,193.44l11.89,13.95,10-8.07s-3.7-10.29-14.5-13.27Z"/><path class="cls-1" d="M456.46,186.05s-7.19-10-1.21-18.36c0,0,5.23-7.3,9.18-8.86,0,0,5.57-1.81,6.76,4.46a7.92,7.92,0,0,0,6,5.49s3.13.21,5.79,4.31a7.19,7.19,0,0,0,2.38,2.4c1.06.61,2.28,2.08,1.5,5.59,0,0-2.65,9.65-7.36,12.25h0s-6.08,6.51-8.55,6S456.46,186.05,456.46,186.05Z"/><path class="cls-1" d="M463.12,156.21S455.84,150,461.9,147C461.9,147,467,146.47,463.12,156.21Z"/><path class="cls-1" d="M470.43,156.74s-5.47-13.05,3-12.13C473.47,144.61,479.67,147.77,470.43,156.74Z"/><path class="cls-1" d="M478.37,163.48s-.42-14.83,6.86-10.14C485.23,153.34,489.68,159.12,478.37,163.48Z"/><path class="cls-1" d="M486.61,171s3-14.72,8.8-7.93C495.41,163.09,498.32,170.1,486.61,171Z"/><path class="cls-1" d="M488.55,184.05S499.67,171.87,501,183C501,183,499.63,192.1,488.55,184.05Z"/><path class="cls-2" d="M191.73,392.33s-16.27,126.44-9.38,147.05c0,0,48.45,6.74,65.81,1.46,0,0,14.8-82.58,16.7-152.84l7.58,14.34s2.83,134.62,4.78,140.52c0,0,48.34,4.77,79.1-3.91,0,0-30-160.48-32.5-161.8S191.73,392.33,191.73,392.33Z"/><path class="cls-3" d="M193.35,220.06s-39.6-.28-49.76,72.79c0,0-10.16,48-16.36,87.6,0,0-17,48.37,33.06,36.73,0,0,115.72-3.47,191.83-20.28a70.57,70.57,0,0,1,14.1-1.7c12.13-.21,37.57-4.74,19.08-41.41a54.59,54.59,0,0,1-5.71-21.18c-1.52-24.35-5.81-77.73-14.83-90.25,0,0-14.27-28.24-40.94-28.9S193.35,220.06,193.35,220.06Z"/><path class="cls-4" d="M158.87,162.37s-3,10.95,3.94,17.22S162.58,163.2,158.87,162.37Z"/><path class="cls-5" d="M170.76,191.68s-13.07-.32-5.93-11C164.83,180.68,177.4,182.69,170.76,191.68Z"/><path class="cls-4" d="M337.15,92.68s-2.87,10.1,3.8,15.89S340.73,93.45,337.15,92.68Z"/><path class="cls-5" d="M348.62,119.74s-12.61-.3-5.72-10.16C342.9,109.58,355,111.43,348.62,119.74Z"/><path class="cls-6" d="M165.46,132.73l-35,23s-4.73,6.91,30.11,7.55l171.17-59.88s32.36-27.92,33-37.82C364.76,65.61,357.93,13.47,165.46,132.73Z"/><path class="cls-1" d="M169.44,126.4c21.75-28.62,85.88-93.57,174.68-12.5a13.14,13.14,0,0,1,3.32,4.82c4.79,11.85,19.12,57.21-23.62,94.74,0,0-17.36,11.88-22.32,23.76,0,0-5,17.16-22.33,14.52l-31.45.28a53.25,53.25,0,0,1-15.71-5.7,23.23,23.23,0,0,1-8.11-7.46c-2.62-3.83-8.43-9.65-20.39-12.2,0,0-41.15-19.71-42.88-72.08A44.21,44.21,0,0,1,169.44,126.4Z"/><ellipse class="cls-7" cx="235.76" cy="144.82" rx="22.33" ry="22.44"/><ellipse cx="235.92" cy="144.47" rx="11.21" ry="15.78"/><ellipse class="cls-7" cx="290.33" cy="143.5" rx="22.33" ry="22.44"/><path class="cls-8" d="M133.54,119.94c-1.92.93-8.67,5.45-9,23.56,0,0-4.12,21.12,13.25,7.92,0,0,76.9-60.72,204.66-89.77,0,0,24.81-2.64,22.33,4a24.8,24.8,0,0,0-5-19.8s0-5.28-21.08-4c0,0-99.81,5.25-203.64,77.18A10.82,10.82,0,0,1,133.54,119.94Z"/><path class="cls-8" d="M186.76,25.35S219,8.19,242.58,5.55c0,0,8.68-4,21.09,7.92L298.55,48,177.89,92.73s-3.53-34.38-3.53-37S166.92,32,186.76,25.35Z"/><path class="cls-9" d="M226.46,50.43,175.39,67.72l2.5,25L206.51,78.5s58.31-24.64,64.56-23.71c0,0,26.4-6.68,27.48-6.84L280.29,29.9Z"/><path class="cls-4" d="M171,129.36s-3.29,13.67,4.36,21.49S175.14,130.41,171,129.36Z"/><path class="cls-5" d="M184.19,165.94s-14.46-.4-6.57-13.73C177.62,152.21,191.55,154.72,184.19,165.94Z"/><path class="cls-4" d="M363.28,63.36S360,77,367.65,84.85,367.39,64.41,363.28,63.36Z"/><path class="cls-5" d="M376.45,99.94s-14.47-.4-6.57-13.73C369.88,86.21,383.8,88.72,376.45,99.94Z"/><path class="cls-4" d="M125.87,154.62s6.32,18.58,12.52,21.22S133.2,165.09,125.87,154.62Z"/><path class="cls-5" d="M147,189.7s-14.47-.4-6.57-13.73C140.41,176,154.34,178.48,147,189.7Z"/><path d="M251.88,179.14s4.34-7.36,9-9.62c0,0,4.65,3.28,6.56,6.86a26.3,26.3,0,0,0,1.47,2.52c1,1.49,2.41,4.19,1.58,6.84,0,0-.62,6.6-9.61,0,0,0-10.24,4-10.24-1.32C250.64,184.42,250.64,180.46,251.88,179.14Z"/><ellipse class="cls-10" cx="207.85" cy="142.18" rx="3.72" ry="3.3"/><ellipse class="cls-10" cx="210.33" cy="131.62" rx="3.25" ry="3.78" transform="translate(-19.64 224.76) rotate(-54.08)"/><ellipse class="cls-10" cx="219.01" cy="122.38" rx="3.14" ry="3.91" transform="translate(-30.32 94.54) rotate(-22.83)"/><ellipse class="cls-10" cx="231.42" cy="117.1" rx="3.1" ry="3.96" transform="translate(-7.64 16.52) rotate(-4.02)"/><ellipse class="cls-10" cx="245.06" cy="118.42" rx="3.95" ry="3.11" transform="translate(78.05 333.33) rotate(-77.94)"/><ellipse class="cls-10" cx="254.98" cy="123.7" rx="3.86" ry="3.18" transform="matrix(0.58, -0.81, 0.81, 0.58, 6.29, 259.59)"/><ellipse class="cls-10" cx="262.43" cy="135.58" rx="3.77" ry="3.25" transform="translate(-31.43 165.57) rotate(-33.15)"/><ellipse class="cls-10" cx="262.43" cy="150.1" rx="3.29" ry="3.74" transform="translate(35.34 349.67) rotate(-71.08)"/><ellipse class="cls-10" cx="258.7" cy="160.66" rx="3.21" ry="3.82" transform="translate(-39.19 223.91) rotate(-43.83)"/><ellipse class="cls-10" cx="250.02" cy="168.58" rx="3.14" ry="3.91" transform="translate(-45.82 110.19) rotate(-22.83)"/><ellipse class="cls-10" cx="238.86" cy="173.86" rx="3.1" ry="3.96" transform="translate(-6.11 8.72) rotate(-2.06)"/><ellipse class="cls-10" cx="228.51" cy="171.74" rx="3.95" ry="3.11" transform="translate(12.82 359.32) rotate(-77.94)"/><ellipse class="cls-10" cx="217.34" cy="166.46" rx="3.88" ry="3.17" transform="matrix(0.52, -0.85, 0.85, 0.52, -38.08, 264.96)"/><ellipse class="cls-10" cx="209.9" cy="157.22" rx="3.81" ry="3.22" transform="translate(-50.78 185.82) rotate(-43.1)"/><ellipse class="cls-10" cx="266.15" cy="126.34" rx="3.25" ry="3.78" transform="translate(7.71 267.78) rotate(-54.08)"/><ellipse class="cls-10" cx="273.59" cy="121.06" rx="3.14" ry="3.91" transform="translate(-25.54 115.61) rotate(-22.83)"/><ellipse class="cls-10" cx="285.99" cy="115.78" rx="3.1" ry="3.96" transform="translate(-7.41 20.34) rotate(-4.02)"/><ellipse class="cls-10" cx="299.64" cy="117.1" rx="3.95" ry="3.11" transform="translate(122.52 385.65) rotate(-77.94)"/><ellipse class="cls-10" cx="309.56" cy="122.38" rx="3.86" ry="3.18" transform="translate(30.27 303.49) rotate(-54.53)"/><ellipse class="cls-10" cx="317" cy="134.26" rx="3.77" ry="3.25" transform="translate(-21.82 195.2) rotate(-33.15)"/><ellipse class="cls-10" cx="317" cy="147.46" rx="3.29" ry="3.74" transform="translate(74.71 399.51) rotate(-71.08)"/><ellipse class="cls-10" cx="313.28" cy="158.02" rx="3.21" ry="3.82" transform="translate(-22.15 260.96) rotate(-43.83)"/><ellipse class="cls-10" cx="304.6" cy="165.94" rx="3.14" ry="3.91" transform="translate(-40.52 131.16) rotate(-22.83)"/><ellipse class="cls-10" cx="293.43" cy="171.22" rx="3.1" ry="3.96" transform="translate(-5.98 10.68) rotate(-2.06)"/><ellipse class="cls-10" cx="283.08" cy="169.1" rx="3.95" ry="3.11" transform="translate(58.57 410.6) rotate(-77.94)"/><ellipse class="cls-10" cx="274.4" cy="166.46" rx="3.88" ry="3.17" transform="translate(-10.81 313.63) rotate(-58.54)"/><ellipse class="cls-10" cx="266.96" cy="158.54" rx="3.81" ry="3.22" transform="translate(-36.29 225.16) rotate(-43.1)"/><path class="cls-11" d="M205.14,188.15s-4.18-7.54-8.51-7.1-5.24,4-5.61,7S202.92,193.67,205.14,188.15Z"/><path class="cls-11" d="M203.92,197.55s-7-4.61-10.63-2.09-2.89,6.17-1.93,8.94S204.36,203.55,203.92,197.55Z"/><path class="cls-11" d="M207.58,203.8s-8.18.86-9.64,5.21,1.22,6.77,3.56,8.35S211.35,208.28,207.58,203.8Z"/><path class="cls-11" d="M311.68,200.29s2,8.48,6.31,9.35,6.09-2.32,7.21-5S315.26,195.65,311.68,200.29Z"/><path class="cls-11" d="M315.31,191.62s5.51,6.51,9.66,5.17,4.4-5.06,4.21-8S316.46,185.74,315.31,191.62Z"/><path class="cls-11" d="M313.44,184.54s8.08,1.61,10.62-2.14.61-6.86-1.22-9.08S311,179.12,313.44,184.54Z"/><path class="cls-12" d="M148.69,268.61S240.3,313,369.82,255l5.4,29.87s-97.69,34.51-232.38,11.6Z"/><path class="cls-13" d="M135.91,327.65S287,338.24,377.65,307.2l2.58,31s-88.78,32.32-249.65,22.1Z"/><path class="cls-12" d="M124.75,391a22.46,22.46,0,0,0,11.36-.15,17.83,17.83,0,0,1,4.51-.82c22.06-.71,179.85-6.45,227.77-26.4,0,0,18.22-6.15,16.91-8.53s22.8,35.82-14.69,41.14c0,0-155.1,22.63-208,22.28a15.55,15.55,0,0,0-4.34.58C150.34,421.33,120.84,427.88,124.75,391Z"/><ellipse cx="290.26" cy="144.47" rx="11.21" ry="15.78"/><path class="cls-1" d="M204.67,541.77l-2.4,28.11s-2.64,8.11,2.4,10.65l13.72,2.55s9.93,1.32,7.45-6.6l3.54-33.63"/><path class="cls-1" d="M186.14,604.2s-11.95,2.64-14.65,0c0,0-7.52-8,5.43-13.91h3.73s12.8-7.87,20.93-10.18l16.81,3s17.37,2.64,3.72,17.16c0,0-17.5,7.45-20.53,13C201.58,613.21,187.38,621.36,186.14,604.2Z"/><path class="cls-1" d="M191.43,619.77s-9.06,7.32-5.57,15.05C185.86,634.82,194.52,637.13,191.43,619.77Z"/><path class="cls-1" d="M168.16,604.21s-7-3.91-9.3,5.16C158.86,609.37,161.07,619.79,168.16,604.21Z"/><path class="cls-1" d="M174.36,612.13s-7-3.91-9.3,5.16C165.06,617.29,167.27,627.71,174.36,612.13Z"/><path class="cls-1" d="M184.28,617.41s-7-3.91-9.3,5.16C175,622.57,177.2,633,184.28,617.41Z"/><path class="cls-1" d="M164.65,596.59s-7.11-3.2-10.18,1.69C154.47,598.28,156.13,604.58,164.65,596.59Z"/><path class="cls-1" d="M333.39,541.82l2.4,28.11s2.63,8.1-2.4,10.65l-13.68,2.55s-9.89,1.32-7.42-6.6l-3.53-33.64"/><path class="cls-1" d="M351.86,604.25s11.92,2.64,14.62,0c0,0,7.49-8-5.42-13.91h-3.72s-12.76-7.87-20.87-10.18l-16.76,3s-17.31,2.64-3.71,17.16c0,0,17.45,7.45,20.47,13C336.47,613.25,350.63,621.41,351.86,604.25Z"/><path class="cls-1" d="M343.92,619s10.14,6.58,8.3,14.39C352.22,633.39,344.35,636.23,343.92,619Z"/><path class="cls-1" d="M372.27,606.9s6.94-3.92,9.27,5.16C381.54,612.06,379.34,622.48,372.27,606.9Z"/><path class="cls-1" d="M363.61,612.18s6.94-3.92,9.28,5.16C372.89,617.34,370.68,627.76,363.61,612.18Z"/><path class="cls-1" d="M353.72,617.46s6.94-3.92,9.27,5.16C363,622.62,360.79,633,353.72,617.46Z"/><path class="cls-1" d="M372.64,598.67s7.4-2.27,9.91,3C382.55,601.65,380.21,607.68,372.64,598.67Z"/><path class="cls-14" d="M333.63,504.91s.34,7.62,3.06,10.54,2.06,7.53,2.06,7.53-.63,5.38,3,8.25,3.05,9.7,3.05,9.7l4.52-.88s-2.4-9.08-4.22-11.28c0,0-.93-1.48-.1-2.28,0,0,.56-6.9-1.27-9.1S332.8,505.71,333.63,504.91Z"/><path class="cls-14" d="M219.52,506.23s.33,7.62,3,10.54,2.07,7.53,2.07,7.53-.63,5.38,3,8.25,3.06,9.7,3.06,9.7l4.52-.88s-2.4-9.08-4.23-11.28c0,0-.93-1.48-.1-2.28,0,0,.56-6.9-1.26-9.1S218.69,507,219.52,506.23Z"/><path class="cls-14" d="M297.27,507.71s.34,7.62-1.2,10.75-.78,7.68-.78,7.68.79,5.3-1.31,8.46-1.26,9.92-1.26,9.92l-3-.51s.88-9.24,1.9-11.58c0,0,.49-1.55-.1-2.29,0,0-.86-6.83.15-9.17S297.87,508.44,297.27,507.71Z"/><path class="cls-14" d="M190.6,502.43s.34,7.62-1.2,10.75-.78,7.68-.78,7.68.79,5.3-1.31,8.46-1.26,9.91-1.26,9.91l-3-.5s.88-9.24,1.9-11.58c0,0,.49-1.55-.1-2.29,0,0-.86-6.83.15-9.17S191.19,503.16,190.6,502.43Z"/><path class="cls-15" d="M229,205.39s42,10.18,66.93,0C296,205.39,265.38,270.46,229,205.39Z"/><path class="cls-1" d="M370.63,266.2l69.46-65.82a7.06,7.06,0,0,1,10,.22l4.46,4.61a8.92,8.92,0,0,1-.25,12.6L375,293.18Z"/><path class="cls-1" d="M142.8,301.67,58,229a5.71,5.71,0,0,1-.5-8.12l6.17-6.84a5,5,0,0,1,7.1-.42l76.29,67Z"/></g></svg>