<svg id="Win_screen" data-name="Win screen" xmlns="http://www.w3.org/2000/svg" width="409" height="580" viewBox="0 0 409 580"><defs><style>.cls-1{fill:#fff;}.cls-2{fill:#07202a;}.cls-3{fill:#902761;}.cls-4{fill:#7e2153;}.cls-5{fill:#bd2f59;}.cls-6{fill:#e900cf;}.cls-7{fill:none;}.cls-17,.cls-7{stroke:#000;stroke-miterlimit:10;}.cls-8{fill:#dbdad9;}.cls-9{fill:#dd2443;}.cls-10{fill:#9229d6;}.cls-11{fill:#267ddb;}.cls-12{fill:#f9c847;}.cls-13{fill:#e3933a;}.cls-14{fill:#0a2a3a;}.cls-15{fill:#ed146c;}.cls-16{fill:#ef56b9;}</style></defs><g id="female_skeleton" data-name="female skeleton"><path class="cls-1" d="M64.88,189.21l78.06,34.88L133,237.65,57.09,204.3a4.65,4.65,0,0,1-2-7,64.3,64.3,0,0,0,4-6.2A4.48,4.48,0,0,1,64.88,189.21Z"/><path class="cls-1" d="M336.63,185.72l-67,41.67,9.78,14.69,70.32-43.58a4,4,0,0,0,.3-6.69,61.84,61.84,0,0,1-6.37-5.32A5.69,5.69,0,0,0,336.63,185.72Z"/><path class="cls-1" d="M167.37,483.64l-2.48,28.2s-2.72,8.13,2.48,10.69l14.13,2.55s10.23,1.32,7.67-6.62l3.65-33.74"/><path class="cls-1" d="M148.28,546.27s-12.31,2.65-15.1,0c0,0-7.74-8,5.59-13.95h3.85s13.18-7.9,21.56-10.22l17.32,3s17.89,2.65,3.84,17.22c0,0-18,7.47-21.16,13C164.18,555.3,149.56,563.49,148.28,546.27Z"/><path class="cls-1" d="M153.7,561.87s-9.32,7.63-6.12,15.17C147.58,577,156.15,579,153.7,561.87Z"/><path class="cls-1" d="M129.75,546.28s-7.17-3.93-9.59,5.18C120.16,551.46,122.45,561.91,129.75,546.28Z"/><path class="cls-1" d="M136.14,554.23s-7.17-3.93-9.59,5.17C126.55,559.4,128.84,569.85,136.14,554.23Z"/><path class="cls-1" d="M146.36,559.52s-7.17-3.92-9.58,5.18C136.78,564.7,139.06,575.15,146.36,559.52Z"/><path class="cls-1" d="M126.14,538.63s-7.33-3.21-10.5,1.7C115.64,540.33,117.36,546.65,126.14,538.63Z"/><path class="cls-1" d="M281.06,477l2.47,28.19s2.7,8.14-2.47,10.69L267,518.46s-10.19,1.32-7.64-6.62l-3.64-33.75"/><path class="cls-1" d="M300.09,539.65s12.27,2.65,15.06,0c0,0,7.71-8-5.59-14h-3.83s-13.14-7.89-21.5-10.21l-17.27,3s-17.83,2.65-3.82,17.21c0,0,18,7.48,21.09,13C284.23,548.68,298.82,556.86,300.09,539.65Z"/><path class="cls-1" d="M291.87,554.48s11.27,7.13,9.23,15.58C301.1,570.06,292.35,573.13,291.87,554.48Z"/><path class="cls-1" d="M321.11,542.31s7.15-3.93,9.56,5.17C330.67,547.48,328.39,557.93,321.11,542.31Z"/><path class="cls-1" d="M312.19,547.6s7.15-3.92,9.56,5.18C321.75,552.78,319.47,563.23,312.19,547.6Z"/><path class="cls-1" d="M302,552.9s7.15-3.92,9.56,5.18C311.56,558.08,309.28,568.53,302,552.9Z"/><path class="cls-1" d="M321.49,534.05s7.63-2.28,10.21,3C331.7,537,329.3,543.09,321.49,534.05Z"/><path class="cls-2" d="M150.1,215.46S53.19,137,104.3,66.81H293.43S317.71,146.58,257,217.94Z"/><path class="cls-3" d="M156.55,302.73s-47.14,29.46-48.41,65.62c0,0-5.12,86.49-9,107.68,0,0,6.39,23.84-6.39,37.08,0,0,26.84,11.92,47.28-4,0,0,17.89-5.86,26.84-2.93,0,0,28.11,10.67,44.72-4.46,0,0,14.69-4.74,27.15,0,0,0,18.86,8.71,34.19-3.2,0,0,5.11-4,15.34-1.33,0,0,35.78,7.95,40.89-4,0,0,16.61,1.32,24.28-2.65,0,0-15.34-23.84-16.61-34.43,0,0-28.12-88.74-35.79-100.65,0,0-21.72-56.95-48.55-59.6C252.54,295.92,160.24,300.27,156.55,302.73Z"/><path class="cls-4" d="M169.5,300.94s-19.19,33.39-19.19,36S184.86,298,169.5,300.94Z"/><path class="cls-4" d="M197.06,300.79l-.37.79c-1.37,2.94-6,13.28-5.17,17.36,0,0,8.62-9.78,12.46-17.72Z"/><path class="cls-4" d="M224,300.79s4.29,15,6.84,15c0,0,1.69-12.77-1.71-15S224,300.79,224,300.79Z"/><path class="cls-4" d="M240.94,299s23.1,14.15,24.37,27.39c0,0-25.52-20.05-28.73-26.58S240.94,299,240.94,299Z"/><path class="cls-5" d="M157.92,251.48s-.59,9.34,5.8,16,2.56,19.86,2.56,19.86l-9.73,15.42s65.32,3.78,96-6.81c0,0-6.39-11.92-6.39-15.89,0,0-1.28-6.62,1.27-11.92,0,0,3.84-9.27,0-14.57S157.92,251.48,157.92,251.48Z"/><path class="cls-1" d="M194.39,31.71s-61.34,4-76.67,47.68c0,0-1.92,45.69,14.7,61.58S195,182,195,182s11.32,6.62,19.08,0c7.2-6.15,43-28.29,48.05-37.78a15.15,15.15,0,0,1,2.88-3.93c6.34-6,23.4-25.8,18.16-61.59C283.2,78.73,276.82,29.72,194.39,31.71Z"/><path class="cls-6" d="M232.78,77.27h0c2.21-3.49,7.28-1.72,7.17,2.52h0a4,4,0,0,0,5.25,4.12h0c3.69-1.42,6.82,3.23,4.43,6.59h0a4.38,4.38,0,0,0,2,6.67h0c3.76,1.19,3.76,7,0,8.14h0a4.38,4.38,0,0,0-2,6.67h0c2.39,3.36-.74,8-4.43,6.59h0a4,4,0,0,0-5.25,4.12h0c.11,4.23-5,6-7.17,2.52h0a3.78,3.78,0,0,0-6.49,0h0c-2.21,3.49-7.28,1.71-7.17-2.52h0a4,4,0,0,0-5.25-4.12h0c-3.69,1.42-6.82-3.23-4.43-6.59h0a4.38,4.38,0,0,0-2-6.67h0c-3.76-1.19-3.76-7,0-8.14h0a4.38,4.38,0,0,0,2-6.67h0c-2.39-3.36.74-8,4.43-6.59h0a4,4,0,0,0,5.25-4.12h0c-.11-4.24,5-6,7.17-2.52h0A3.78,3.78,0,0,0,232.78,77.27Z"/><path class="cls-6" d="M186.92,77.27h0c2.23-3.49,7.32-1.72,7.21,2.52h0a4,4,0,0,0,5.27,4.12h0c3.72-1.42,6.86,3.23,4.46,6.59h0a4.38,4.38,0,0,0,2,6.67h0c3.78,1.19,3.78,7,0,8.14h0a4.38,4.38,0,0,0-2,6.67h0c2.4,3.36-.74,8-4.46,6.59h0a4,4,0,0,0-5.27,4.12h0c.11,4.23-5,6-7.21,2.52h0a3.8,3.8,0,0,0-6.52,0h0c-2.23,3.49-7.32,1.71-7.21-2.52h0a4,4,0,0,0-5.27-4.12h0c-3.72,1.42-6.86-3.23-4.46-6.59h0a4.37,4.37,0,0,0-2-6.67h0c-3.78-1.19-3.78-7,0-8.14h0a4.37,4.37,0,0,0,2-6.67h0c-2.4-3.36.74-8,4.46-6.59h0a4,4,0,0,0,5.27-4.12h0c-.11-4.24,5-6,7.21-2.52h0A3.8,3.8,0,0,0,186.92,77.27Z"/><path class="cls-7" d="M250.32,84.11s-4,4.49-8.33,5.43"/><path class="cls-7" d="M252.38,87.11s-4,4.49-8.33,5.43"/><ellipse class="cls-8" cx="184.17" cy="100.58" rx="17.25" ry="17.88"/><ellipse cx="184.5" cy="100.58" rx="8.31" ry="13.91"/><ellipse class="cls-8" cx="228.9" cy="100.58" rx="17.25" ry="17.88"/><ellipse cx="230.25" cy="100.58" rx="8.31" ry="13.91"/><path d="M197.64,127.28s3.37-6,7-7.81c0,0,3.62,2.66,5.1,5.56a21.47,21.47,0,0,0,1.14,2c.79,1.21,1.87,3.4,1.23,5.55,0,0-.49,5.36-7.47,0,0,0-7.94,3.29-7.94-1.07C196.68,131.56,196.68,128.35,197.64,127.28Z"/><ellipse class="cls-9" cx="156.06" cy="125.74" rx="6.39" ry="6.62"/><ellipse class="cls-9" cx="250.62" cy="128.39" rx="6.39" ry="6.62"/><path class="cls-10" d="M167.3,154.13a.79.79,0,0,1-.47-1.32c1.46-1.74,4.28-5,5.08-5.2,1.06-.28,4.85,2.48,2.51,5.81a1,1,0,0,1-.65.41A22.81,22.81,0,0,1,167.3,154.13Z"/><ellipse class="cls-11" cx="160.53" cy="154.88" rx="3.96" ry="5.78" transform="translate(-42.51 247.25) rotate(-68.44)"/><path class="cls-10" d="M154.11,150.67a.77.77,0,0,1-.86,1.09c-2.18-.43-6.32-1.3-6.9-1.91-.77-.8-.4-5.59,3.56-5.19a1.11,1.11,0,0,1,.68.38A24.51,24.51,0,0,1,154.11,150.67Z"/><path class="cls-10" d="M159,149.16a.74.74,0,0,1-1.36,0c-1-2-3-5.93-2.88-6.77.13-1.13,4-3.81,6.14-.36a1.11,1.11,0,0,1,.13.78A25,25,0,0,1,159,149.16Z"/><path class="cls-10" d="M164.08,150.34a.76.76,0,0,1-1.09-.84c.31-2.28,1-6.61,1.53-7.23.75-.83,5.38-.66,5.16,3.46a1.07,1.07,0,0,1-.33.71A23.6,23.6,0,0,1,164.08,150.34Z"/><path class="cls-10" d="M166.5,159.5a.78.78,0,0,1,.37-1.35c2.17-.51,6.31-1.42,7.07-1.09,1,.42,2.5,5-1.29,6.23a1,1,0,0,1-.76-.08A23.18,23.18,0,0,1,166.5,159.5Z"/><path class="cls-10" d="M241.55,152.59a.74.74,0,0,1-1.32-.31c-.6-2.22-1.67-6.46-1.39-7.27.36-1.06,4.67-2.82,6.07,1a1.08,1.08,0,0,1,0,.79A24.46,24.46,0,0,1,241.55,152.59Z"/><ellipse class="cls-11" cx="238.42" cy="158.86" rx="5.83" ry="3.92" transform="translate(-46.65 187.4) rotate(-39.39)"/><path class="cls-10" d="M231.49,162.09a.79.79,0,0,1,.4,1.34c-1.54,1.66-4.53,4.76-5.34,4.92-1.07.22-4.71-2.74-2.21-5.94A1,1,0,0,1,225,162,22.66,22.66,0,0,1,231.49,162.09Z"/><path class="cls-10" d="M233,157a.77.77,0,0,1-.76,1.16c-2.21-.21-6.42-.69-7-1.25-.83-.73-.88-5.53,3.1-5.5a1,1,0,0,1,.7.32A24.15,24.15,0,0,1,233,157Z"/><path class="cls-10" d="M236.72,153.29a.74.74,0,0,1-1.27.48c-1.67-1.53-4.79-4.48-5-5.31-.26-1.1,2.43-5,5.63-2.56a1.12,1.12,0,0,1,.39.69A25.14,25.14,0,0,1,236.72,153.29Z"/><path class="cls-10" d="M245.43,156.25a.78.78,0,0,1-.89-1.07c.79-2.15,2.34-6.23,3-6.71.9-.64,5.39.58,4.31,4.55a1.06,1.06,0,0,1-.48.62A23.21,23.21,0,0,1,245.43,156.25Z"/><path class="cls-2" d="M200.92,40.79s-4.61,48.53-83.2,38.6L104.3,66.81s104.79-112.57,189.13,0l-12.06,5.42S234.92,91.59,200.92,40.79Z"/><rect class="cls-1" x="195.03" y="187.32" width="21.72" height="7.95" rx="3"/><rect class="cls-1" x="195.03" y="197.92" width="21.72" height="7.95" rx="3"/><rect class="cls-1" x="195.03" y="208.51" width="21.72" height="7.95" rx="3"/><path class="cls-1" d="M192.48,195.27s-20.45,5.3-30.67,14.57l12.46,2.65s9.26-8,18.21-6.63C192.48,205.86,196.31,197.92,192.48,195.27Z"/><path class="cls-12" d="M158.66,208.51s42.76,15.89,92.6,5.3c0,0,28.11,13.24,30.67,38.41,0,0-3.84,7.94-20.45,2.64,0,0-6.39,5.3-14.06-1.32,0,0-2.47,8-15.29,3.33,0,0-5.15,4.62-14.1.64,0,0-3.88-.74-5.77,1.62,0,0-6.15,4.48-18.08-3.86,0,0-1.7-4.38-9.37-.41,0,0-10.22,5.3-19.17-1.32,0,0-6.39,0-10.22-4,0,0-6.39,4-11.5,5.29a7.79,7.79,0,0,1-5.11-2.64s-14.06,4-12.78-1.33S141.45,221.76,158.66,208.51Z"/><path class="cls-1" d="M217.81,195.27s34.73,14.57,33.45,18.54l-7.78,1.65s-8.56-7.94-24-10.09C219.45,205.37,216.3,199.24,217.81,195.27Z"/><path class="cls-13" d="M163.08,228.38s-7.66,9.27-6.38,13.24c0,0,6.38-8,6.38-13.24"/><path class="cls-13" d="M178.58,241.62c1.12,2.65,6.23-5.3,4.95-6.62C183.53,235,177.46,239,178.58,241.62Z"/><path class="cls-13" d="M201.42,232.35s-1.28,15.7,4.47,18.45C205.89,250.8,202.7,232.35,201.42,232.35Z"/><path class="cls-13" d="M225.7,225.73s-2.56,18.54,6.39,23.84C232.09,249.57,229.53,227.05,225.7,225.73Z"/><path class="cls-13" d="M256.93,237.65s.72,6.62,4.55,6.62S256.93,237.65,256.93,237.65Z"/><path class="cls-4" d="M107.33,516.91s22.53-55.45,18.7-59.42c0,0,10.22-4.66-12.14,59.91Z"/><path class="cls-4" d="M143.93,508s11.49-41.26,14-43.91-7.59,42.42-7.59,42.42Z"/><path class="cls-4" d="M200.14,437.63s0,13.24,3.84,18.54,2.55,13.24,2.55,13.24-1.28,9.27,3.84,14.57,3.88,17.08,3.88,17.08l6.74-1.13S218,484,215.48,480c0,0-1.28-2.64,0-4,0,0,1.28-11.92-1.28-15.89S198.87,439,200.14,437.63Z"/><path class="cls-4" d="M275.93,497.06S264,465.44,265.31,460.14,283.2,495.9,283.2,495.9Z"/><path class="cls-4" d="M308.76,444.25s21.31,48.94,17.68,52.28l3.63-3.34S320.26,445.57,308.76,444.25Z"/><path class="cls-14" d="M133.05,71.44S165,43.63,182.89,43.63C182.89,43.63,143.28,71.44,133.05,71.44Z"/><path class="cls-14" d="M215.16,43s39.7,13.31,49.19,29C264.35,72.05,220.59,52,215.16,43Z"/><path class="cls-14" d="M115.8,73.43S143.66,34.27,175.1,30C175.1,30,136.25,28.4,115.8,73.43Z"/><path class="cls-14" d="M215.66,34.07s46.76,4.36,66.58,30C282.24,64.07,263.42,28.82,215.66,34.07Z"/><path class="cls-14" d="M108.81,94s-3.45,60.76,43.72,102.19C152.53,196.23,112.45,132.62,108.81,94Z"/><path class="cls-14" d="M238.92,196.22s49.88-32.14,55.3-96C294.22,100.24,267.23,170.88,238.92,196.22Z"/><path class="cls-14" d="M146.46,157.06s10.48,28.22,26.22,41.32C172.68,198.38,154,160.87,146.46,157.06Z"/><path class="cls-14" d="M223.4,191.36s25.54-14.62,35.91-32.57C259.31,158.79,226,183.09,223.4,191.36Z"/><path class="cls-15" d="M162.87,12.29h0c1-2,4.54-1.37,4.51.82h0c0,1.76,2.43,2.69,4,1.5h0c1.89-1.48,4.79.33,3.73,2.32h0c-.85,1.6.94,3.31,2.89,2.75h0c2.43-.7,4.23,2,2.31,3.41h0c-1.55,1.17-.72,3.35,1.33,3.52h0c2.55.21,2.93,3.26.48,3.92h0a1.92,1.92,0,0,0-.45,3.67h0c2.23,1.08,1.12,4-1.43,3.75h0c-2-.19-3.38,1.79-2.15,3.2h0c1.52,1.77-.88,4.05-3.09,2.93h0c-1.77-.89-3.94.46-3.49,2.18h0c.55,2.14-2.73,3.39-4.22,1.6h0c-1.19-1.43-3.81-1-4.22.77h0c-.51,2.15-4.1,2.15-4.62,0h0c-.41-1.73-3-2.2-4.22-.77h0c-1.49,1.79-4.77.54-4.21-1.6h0c.44-1.72-1.72-3.07-3.5-2.18h0c-2.21,1.12-4.61-1.16-3.08-2.93h0c1.22-1.41-.12-3.39-2.16-3.2h0c-2.55.25-3.66-2.67-1.43-3.75h0a1.92,1.92,0,0,0-.45-3.67h0c-2.44-.66-2.07-3.71.48-3.92h0c2-.17,2.88-2.35,1.34-3.52h0c-1.92-1.45-.13-4.11,2.3-3.41h0c2,.56,3.75-1.15,2.89-2.75h0c-1.06-2,1.85-3.8,3.74-2.32h0c1.51,1.19,4,.26,3.94-1.5h0c0-2.19,3.49-2.83,4.51-.82h0A2.53,2.53,0,0,0,162.87,12.29Z"/><path class="cls-16" d="M162.49,15.59h0c.83-1.58,3.69-1.08,3.67.65h0c0,1.38,2,2.11,3.2,1.18h0c1.54-1.17,3.9.25,3,1.82h0c-.69,1.26.76,2.59,2.35,2.15h0c2-.54,3.43,1.55,1.87,2.69h0c-1.25.91-.58,2.63,1.08,2.76h0c2.08.16,2.38,2.56.4,3.08h0a1.5,1.5,0,0,0-.37,2.89h0c1.81.84.91,3.14-1.16,2.94h0c-1.66-.15-2.75,1.4-1.75,2.52h0c1.24,1.38-.71,3.17-2.51,2.3h0c-1.44-.7-3.2.36-2.83,1.7h0c.45,1.69-2.22,2.67-3.43,1.27h0c-1-1.13-3.09-.76-3.43.6h0c-.41,1.69-3.33,1.69-3.74,0h0c-.34-1.36-2.46-1.73-3.43-.6h0c-1.21,1.4-3.88.42-3.43-1.27h0c.37-1.34-1.39-2.4-2.83-1.7h0c-1.8.87-3.75-.92-2.51-2.3h0c1-1.12-.09-2.67-1.75-2.52h0c-2.07.2-3-2.1-1.16-2.94h0a1.5,1.5,0,0,0-.37-2.89h0c-2-.52-1.68-2.92.39-3.08h0c1.67-.13,2.34-1.85,1.09-2.76h0c-1.56-1.14-.1-3.23,1.87-2.69h0c1.59.44,3-.89,2.35-2.15h0c-.87-1.57,1.49-3,3-1.82h0c1.23.93,3.22.2,3.2-1.18h0c0-1.73,2.84-2.23,3.67-.65h0A2.08,2.08,0,0,0,162.49,15.59Z"/><path class="cls-15" d="M162.53,20h0c1.35-1.48,4.44-.73,4.37,1.06h0c0,1.26,1.62,2.16,3.2,1.74h0c2.25-.6,4.16,1.37,2.7,2.78h0c-1,1-.39,2.46,1.22,2.82h0c2.3.5,2.3,2.93,0,3.44h0c-1.61.35-2.24,1.81-1.22,2.81h0c1.46,1.42-.45,3.38-2.7,2.78h0c-1.58-.42-3.24.48-3.2,1.74h0c.07,1.79-3,2.54-4.37,1.07h0a2.89,2.89,0,0,0-3.95,0h0c-1.35,1.47-4.43.72-4.37-1.07h0c0-1.26-1.61-2.16-3.2-1.74h0c-2.25.6-4.15-1.36-2.7-2.78h0c1-1,.4-2.46-1.22-2.81h0c-2.29-.51-2.29-2.94,0-3.44h0c1.62-.36,2.25-1.82,1.22-2.82h0c-1.45-1.41.45-3.38,2.7-2.78h0c1.59.42,3.25-.48,3.2-1.74h0c-.06-1.79,3-2.54,4.37-1.06h0A2.89,2.89,0,0,0,162.53,20Z"/><path class="cls-16" d="M162,22.35h0c.9-1.11,3-.55,2.92.8h0a1.58,1.58,0,0,0,2.14,1.32h0c1.51-.46,2.78,1,1.81,2.1h0a1.28,1.28,0,0,0,.82,2.12h0a1.31,1.31,0,0,1,0,2.6h0a1.28,1.28,0,0,0-.82,2.12h0c1,1.07-.3,2.56-1.81,2.11h0a1.58,1.58,0,0,0-2.14,1.31h0c.05,1.35-2,1.91-2.92.8h0a1.78,1.78,0,0,0-2.64,0h0c-.9,1.11-3,.55-2.92-.8h0a1.58,1.58,0,0,0-2.14-1.31h0c-1.51.45-2.78-1-1.81-2.11h0a1.28,1.28,0,0,0-.81-2.12h0a1.31,1.31,0,0,1,0-2.6h0a1.28,1.28,0,0,0,.81-2.12h0c-1-1.07.3-2.56,1.81-2.1h0a1.58,1.58,0,0,0,2.14-1.32h0c-.05-1.35,2-1.91,2.92-.8h0A1.77,1.77,0,0,0,162,22.35Z"/><path class="cls-15" d="M161.74,26.52h0c1.46-.6,3.17.36,2.89,1.63h0a1.35,1.35,0,0,0,.57,1.37h0c1.19.89.54,2.45-1.1,2.64h0a2,2,0,0,0-1.5.84h0A2.29,2.29,0,0,1,159,33h0a2.05,2.05,0,0,0-1.51-.84h0c-1.63-.19-2.29-1.75-1.1-2.64h0a1.35,1.35,0,0,0,.57-1.37h0c-.28-1.27,1.43-2.23,2.9-1.63h0A2.59,2.59,0,0,0,161.74,26.52Z"/><path class="cls-15" d="M125.81,22.89h0c1-2,4.54-1.38,4.51.82h0c0,1.76,2.43,2.69,4,1.5h0c1.89-1.48,4.79.32,3.73,2.32h0c-.85,1.6.94,3.3,2.89,2.74h0c2.43-.69,4.23,2,2.31,3.42h0c-1.54,1.17-.72,3.34,1.33,3.51h0c2.55.21,2.93,3.27.48,3.92h0a1.92,1.92,0,0,0-.45,3.68h0c2.23,1.08,1.12,4-1.42,3.75h0c-2-.2-3.39,1.78-2.16,3.2h0c1.52,1.76-.88,4-3.09,2.93h0c-1.77-.89-3.94.45-3.49,2.17h0c.55,2.14-2.73,3.39-4.22,1.6h0c-1.19-1.43-3.81-1-4.22.77h0c-.51,2.15-4.1,2.15-4.61,0h0c-.41-1.72-3-2.2-4.23-.77h0c-1.49,1.79-4.77.54-4.21-1.6h0c.44-1.72-1.72-3.06-3.49-2.17h0c-2.21,1.11-4.62-1.17-3.09-2.93h0c1.22-1.42-.12-3.4-2.16-3.2h0c-2.55.25-3.66-2.67-1.43-3.75h0a1.92,1.92,0,0,0-.45-3.68h0c-2.44-.65-2.07-3.71.49-3.92h0c2-.17,2.87-2.34,1.33-3.51h0c-1.92-1.45-.13-4.11,2.31-3.42h0c2,.56,3.74-1.14,2.89-2.74h0c-1.07-2,1.84-3.8,3.73-2.32h0c1.52,1.19,4,.26,3.94-1.5h0c0-2.2,3.49-2.83,4.51-.82h0A2.54,2.54,0,0,0,125.81,22.89Z"/><path class="cls-16" d="M125.43,26.19h0c.84-1.58,3.69-1.08,3.67.64h0c0,1.38,2,2.12,3.2,1.18h0c1.54-1.16,3.9.26,3,1.82h0c-.69,1.26.76,2.6,2.35,2.16h0c2-.55,3.43,1.54,1.87,2.68h0c-1.25.92-.58,2.63,1.09,2.76h0c2.07.17,2.37,2.57.39,3.09h0a1.49,1.49,0,0,0-.37,2.88h0c1.81.85.91,3.14-1.16,3h0c-1.66-.16-2.74,1.4-1.75,2.51h0c1.24,1.39-.71,3.18-2.51,2.3h0c-1.44-.7-3.19.36-2.83,1.71h0c.45,1.68-2.22,2.66-3.43,1.26h0c-1-1.12-3.09-.75-3.43.6h0c-.41,1.69-3.33,1.69-3.74,0h0c-.34-1.35-2.46-1.72-3.43-.6h0c-1.21,1.4-3.87.42-3.42-1.26h0c.36-1.35-1.4-2.41-2.84-1.71h0c-1.8.88-3.75-.91-2.51-2.3h0c1-1.11-.09-2.67-1.75-2.51h0c-2.07.19-3-2.1-1.16-3h0a1.49,1.49,0,0,0-.37-2.88h0c-2-.52-1.68-2.92.4-3.09h0c1.66-.13,2.33-1.84,1.08-2.76h0c-1.56-1.14-.1-3.23,1.87-2.68h0c1.59.44,3-.9,2.35-2.16h0c-.86-1.56,1.5-3,3-1.82h0c1.23.94,3.22.2,3.2-1.18h0c0-1.72,2.84-2.22,3.67-.64h0A2.09,2.09,0,0,0,125.43,26.19Z"/><path class="cls-15" d="M125.48,30.59h0c1.35-1.47,4.43-.72,4.37,1.07h0c0,1.26,1.61,2.16,3.19,1.74h0c2.25-.6,4.16,1.36,2.7,2.78h0c-1,1-.39,2.46,1.23,2.81h0c2.29.51,2.29,2.94,0,3.44h0c-1.62.36-2.25,1.82-1.23,2.82h0c1.46,1.41-.45,3.38-2.7,2.78h0c-1.58-.42-3.24.48-3.19,1.74h0c.06,1.79-3,2.54-4.37,1.06h0a2.9,2.9,0,0,0-4,0h0c-1.35,1.48-4.43.73-4.37-1.06h0c0-1.26-1.61-2.16-3.19-1.74h0c-2.25.6-4.16-1.37-2.7-2.78h0c1-1,.39-2.46-1.23-2.82h0c-2.29-.5-2.29-2.93,0-3.44h0c1.62-.35,2.25-1.81,1.23-2.81h0c-1.46-1.42.45-3.38,2.7-2.78h0c1.58.42,3.24-.48,3.19-1.74h0c-.06-1.79,3-2.54,4.37-1.07h0A2.9,2.9,0,0,0,125.48,30.59Z"/><path class="cls-16" d="M124.94,33h0c.91-1.12,3-.55,2.93.8h0A1.57,1.57,0,0,0,130,35.06h0c1.51-.45,2.78,1,1.81,2.1h0a1.29,1.29,0,0,0,.82,2.13h0a1.3,1.3,0,0,1,0,2.59h0a1.29,1.29,0,0,0-.82,2.13h0c1,1.07-.3,2.55-1.81,2.1h0a1.57,1.57,0,0,0-2.13,1.31h0c0,1.35-2,1.92-2.93.81h0a1.77,1.77,0,0,0-2.64,0h0c-.9,1.11-3,.54-2.92-.81h0a1.58,1.58,0,0,0-2.14-1.31h0c-1.5.45-2.78-1-1.81-2.1h0a1.29,1.29,0,0,0-.81-2.13h0a1.3,1.3,0,0,1,0-2.59h0a1.29,1.29,0,0,0,.81-2.13h0c-1-1.07.31-2.55,1.81-2.1h0a1.58,1.58,0,0,0,2.14-1.31h0c0-1.35,2-1.92,2.92-.8h0A1.78,1.78,0,0,0,124.94,33Z"/><path class="cls-15" d="M124.68,37.11h0c1.46-.59,3.17.37,2.89,1.63h0a1.35,1.35,0,0,0,.58,1.37h0c1.18.9.53,2.46-1.11,2.64h0a2,2,0,0,0-1.5.85h0a2.29,2.29,0,0,1-3.58,0h0a2,2,0,0,0-1.5-.85h0c-1.64-.18-2.29-1.74-1.11-2.64h0a1.32,1.32,0,0,0,.57-1.37h0c-.28-1.26,1.44-2.22,2.9-1.63h0A2.49,2.49,0,0,0,124.68,37.11Z"/><path class="cls-15" d="M202.48,8.32h0c1-2,4.54-1.37,4.52.82h0c0,1.76,2.42,2.69,3.94,1.5h0c1.89-1.48,4.8.32,3.73,2.32h0c-.85,1.6.94,3.3,2.89,2.74h0c2.43-.69,4.23,2,2.31,3.42h0c-1.54,1.17-.72,3.34,1.33,3.51h0c2.56.21,2.93,3.27.49,3.93h0a1.92,1.92,0,0,0-.46,3.67h0c2.24,1.08,1.13,4-1.42,3.75h0c-2.05-.2-3.38,1.78-2.16,3.2h0c1.53,1.76-.88,4-3.09,2.93h0c-1.77-.89-3.94.45-3.49,2.17h0c.55,2.14-2.73,3.39-4.21,1.61h0c-1.2-1.44-3.82-1-4.23.76h0c-.51,2.15-4.1,2.15-4.61,0h0c-.41-1.72-3-2.2-4.22-.76h0c-1.49,1.78-4.77.53-4.22-1.61h0c.45-1.72-1.72-3.06-3.49-2.17h0c-2.21,1.11-4.61-1.17-3.09-2.93h0c1.23-1.42-.11-3.4-2.16-3.2h0c-2.55.25-3.65-2.67-1.42-3.75h0a1.92,1.92,0,0,0-.45-3.67h0c-2.45-.66-2.07-3.72.48-3.93h0c2.05-.17,2.87-2.34,1.33-3.51h0c-1.92-1.45-.12-4.11,2.31-3.42h0c1.95.56,3.74-1.14,2.89-2.74h0c-1.07-2,1.84-3.8,3.73-2.32h0c1.52,1.19,4,.26,3.94-1.5h0c0-2.19,3.49-2.83,4.52-.82h0A2.53,2.53,0,0,0,202.48,8.32Z"/><path class="cls-16" d="M202.11,11.62h0c.83-1.58,3.68-1.08,3.66.64h0c0,1.39,2,2.12,3.2,1.18h0c1.54-1.16,3.9.26,3,1.83h0c-.7,1.25.76,2.59,2.34,2.15h0c2-.55,3.43,1.54,1.88,2.69h0c-1.26.91-.58,2.62,1.08,2.75h0c2.07.17,2.38,2.57.39,3.09h0a1.49,1.49,0,0,0-.37,2.88h0c1.82.85.92,3.15-1.15,3h0c-1.66-.16-2.75,1.4-1.76,2.51h0c1.24,1.39-.71,3.18-2.5,2.31h0c-1.44-.7-3.2.35-2.84,1.7h0c.45,1.68-2.21,2.67-3.42,1.26h0c-1-1.12-3.1-.75-3.43.61h0c-.42,1.68-3.33,1.68-3.75,0h0c-.33-1.36-2.46-1.73-3.43-.61h0c-1.21,1.41-3.87.42-3.42-1.26h0c.36-1.35-1.4-2.4-2.84-1.7h0c-1.79.87-3.74-.92-2.51-2.31h0c1-1.11-.09-2.67-1.75-2.51h0c-2.07.2-3-2.1-1.16-3h0A1.49,1.49,0,0,0,183,26h0c-2-.52-1.68-2.92.39-3.09h0c1.66-.13,2.33-1.84,1.08-2.75h0c-1.56-1.15-.1-3.24,1.88-2.69h0c1.58.44,3-.9,2.34-2.15h0c-.86-1.57,1.5-3,3-1.83h0c1.23.94,3.22.21,3.21-1.18h0c0-1.72,2.83-2.22,3.66-.64h0A2.09,2.09,0,0,0,202.11,11.62Z"/><path class="cls-15" d="M202.15,16h0c1.35-1.48,4.43-.73,4.37,1.06h0c-.05,1.26,1.61,2.16,3.2,1.74h0c2.25-.6,4.15,1.36,2.7,2.78h0c-1,1-.4,2.46,1.22,2.81h0c2.29.51,2.29,2.94,0,3.44h0c-1.62.36-2.25,1.82-1.22,2.82h0c1.45,1.42-.45,3.38-2.7,2.78h0c-1.59-.42-3.25.48-3.2,1.74h0c.06,1.79-3,2.54-4.37,1.06h0a2.89,2.89,0,0,0-4,0h0c-1.35,1.48-4.44.73-4.37-1.06h0c0-1.26-1.62-2.16-3.2-1.74h0c-2.25.6-4.16-1.36-2.7-2.78h0c1-1,.39-2.46-1.22-2.82h0c-2.29-.5-2.29-2.93,0-3.44h0c1.61-.35,2.24-1.81,1.22-2.81h0c-1.46-1.42.45-3.38,2.7-2.78h0c1.58.42,3.24-.48,3.2-1.74h0c-.07-1.79,3-2.54,4.37-1.06h0A2.89,2.89,0,0,0,202.15,16Z"/><path class="cls-16" d="M201.62,18.38h0c.9-1.12,3-.55,2.92.8h0a1.58,1.58,0,0,0,2.14,1.31h0c1.5-.45,2.78,1,1.8,2.1h0a1.29,1.29,0,0,0,.82,2.13h0a1.31,1.31,0,0,1,0,2.6h0a1.29,1.29,0,0,0-.82,2.12h0c1,1.07-.3,2.55-1.8,2.1h0a1.58,1.58,0,0,0-2.14,1.31h0c0,1.35-2,1.92-2.92.81h0a1.78,1.78,0,0,0-2.65,0h0c-.9,1.11-3,.54-2.92-.81h0a1.58,1.58,0,0,0-2.14-1.31h0c-1.5.45-2.78-1-1.8-2.1h0a1.29,1.29,0,0,0-.82-2.12h0a1.31,1.31,0,0,1,0-2.6h0a1.29,1.29,0,0,0,.82-2.13h0c-1-1.07.3-2.55,1.8-2.1h0a1.58,1.58,0,0,0,2.14-1.31h0c0-1.35,2-1.92,2.92-.8h0A1.79,1.79,0,0,0,201.62,18.38Z"/><path class="cls-15" d="M201.35,22.54h0c1.46-.59,3.17.37,2.89,1.64h0a1.34,1.34,0,0,0,.58,1.36h0c1.18.9.53,2.46-1.11,2.64h0a2,2,0,0,0-1.5.85h0a2.29,2.29,0,0,1-3.58,0h0a2,2,0,0,0-1.5-.85h0c-1.64-.18-2.29-1.74-1.11-2.64h0a1.34,1.34,0,0,0,.58-1.36h0c-.28-1.27,1.43-2.23,2.89-1.64h0A2.49,2.49,0,0,0,201.35,22.54Z"/><path class="cls-15" d="M240.82,14.94h0c1-2,4.54-1.37,4.51.82h0c0,1.76,2.43,2.69,3.95,1.5h0c1.89-1.48,4.79.33,3.73,2.32h0c-.85,1.6.94,3.3,2.89,2.75h0c2.43-.7,4.23,2,2.31,3.41h0c-1.55,1.17-.72,3.35,1.33,3.51h0c2.55.21,2.93,3.27.48,3.93h0a1.92,1.92,0,0,0-.45,3.67h0c2.23,1.08,1.12,4-1.43,3.75h0c-2-.2-3.38,1.79-2.15,3.2h0c1.52,1.76-.88,4.05-3.09,2.93h0c-1.77-.89-3.94.46-3.49,2.17h0c.55,2.14-2.73,3.39-4.22,1.61h0c-1.19-1.43-3.81-1-4.22.77h0c-.51,2.15-4.1,2.15-4.61,0h0c-.42-1.73-3-2.2-4.23-.77h0c-1.49,1.78-4.77.53-4.21-1.61h0c.44-1.71-1.72-3.06-3.5-2.17h0c-2.2,1.12-4.61-1.17-3.08-2.93h0c1.22-1.41-.12-3.4-2.16-3.2h0c-2.55.25-3.66-2.67-1.43-3.75h0a1.92,1.92,0,0,0-.45-3.67h0c-2.44-.66-2.07-3.72.48-3.93h0c2.05-.16,2.88-2.34,1.34-3.51h0c-1.92-1.45-.13-4.11,2.31-3.41h0c1.95.55,3.74-1.15,2.88-2.75h0c-1.06-2,1.85-3.8,3.74-2.32h0c1.51,1.19,4,.26,3.94-1.5h0c0-2.19,3.49-2.83,4.51-.82h0A2.54,2.54,0,0,0,240.82,14.94Z"/><path class="cls-16" d="M240.44,18.24h0c.83-1.58,3.69-1.08,3.67.64h0c0,1.39,2,2.12,3.2,1.18h0c1.54-1.16,3.9.26,3,1.83h0c-.69,1.26.76,2.59,2.35,2.15h0c2-.54,3.43,1.55,1.87,2.69h0c-1.25.91-.58,2.62,1.08,2.76h0c2.08.16,2.38,2.56.4,3.08h0a1.49,1.49,0,0,0-.37,2.88h0c1.81.85.91,3.15-1.16,2.95h0c-1.66-.15-2.74,1.4-1.75,2.51h0c1.24,1.39-.71,3.18-2.51,2.31h0c-1.44-.7-3.2.35-2.83,1.7h0c.45,1.69-2.22,2.67-3.43,1.26h0c-1-1.12-3.09-.75-3.43.61h0c-.41,1.69-3.33,1.69-3.74,0h0c-.34-1.36-2.46-1.73-3.43-.61h0c-1.21,1.41-3.88.43-3.43-1.26h0c.37-1.35-1.39-2.4-2.83-1.7h0c-1.8.87-3.75-.92-2.51-2.31h0c1-1.11-.09-2.66-1.75-2.51h0c-2.07.2-3-2.1-1.16-2.95h0a1.49,1.49,0,0,0-.37-2.88h0c-2-.52-1.68-2.92.39-3.08h0c1.66-.14,2.33-1.85,1.08-2.76h0c-1.56-1.14-.1-3.23,1.87-2.69h0c1.59.44,3-.89,2.35-2.15h0c-.87-1.57,1.49-3,3-1.83h0c1.23.94,3.22.21,3.2-1.18h0c0-1.72,2.84-2.22,3.67-.64h0A2.08,2.08,0,0,0,240.44,18.24Z"/><path class="cls-15" d="M240.48,22.65h0c1.35-1.48,4.44-.73,4.37,1.06h0c0,1.26,1.62,2.16,3.2,1.74h0c2.25-.6,4.16,1.37,2.7,2.78h0c-1,1-.39,2.46,1.22,2.82h0c2.3.5,2.3,2.93,0,3.44h0c-1.61.35-2.24,1.81-1.22,2.81h0c1.46,1.42-.45,3.38-2.7,2.78h0c-1.58-.42-3.24.48-3.2,1.74h0c.07,1.79-3,2.54-4.37,1.06h0a2.91,2.91,0,0,0-3.95,0h0c-1.35,1.48-4.43.73-4.37-1.06h0c.05-1.26-1.61-2.16-3.2-1.74h0c-2.25.6-4.15-1.36-2.7-2.78h0c1-1,.4-2.46-1.22-2.81h0c-2.29-.51-2.29-2.94,0-3.44h0c1.62-.36,2.25-1.82,1.22-2.82h0c-1.45-1.41.45-3.38,2.7-2.78h0c1.59.42,3.25-.48,3.2-1.74h0c-.06-1.79,3-2.54,4.37-1.06h0A2.89,2.89,0,0,0,240.48,22.65Z"/><path class="cls-16" d="M240,25h0c.9-1.11,3-.55,2.92.8h0A1.58,1.58,0,0,0,245,27.11h0c1.51-.45,2.78,1,1.81,2.11h0a1.28,1.28,0,0,0,.82,2.12h0a1.31,1.31,0,0,1,0,2.6h0a1.28,1.28,0,0,0-.82,2.12h0c1,1.07-.3,2.56-1.81,2.1h0a1.58,1.58,0,0,0-2.14,1.32h0c0,1.35-2,1.91-2.92.8h0a1.77,1.77,0,0,0-2.64,0h0c-.9,1.11-3,.55-2.92-.8h0a1.58,1.58,0,0,0-2.14-1.32h0c-1.51.46-2.78-1-1.81-2.1h0a1.28,1.28,0,0,0-.81-2.12h0a1.31,1.31,0,0,1,0-2.6h0a1.28,1.28,0,0,0,.81-2.12h0c-1-1.07.3-2.56,1.81-2.11h0a1.58,1.58,0,0,0,2.14-1.31h0c0-1.35,2-1.91,2.92-.8h0A1.78,1.78,0,0,0,240,25Z"/><path class="cls-15" d="M239.69,29.17h0c1.46-.6,3.17.36,2.89,1.63h0a1.35,1.35,0,0,0,.57,1.37h0c1.19.89.54,2.45-1.1,2.64h0a2,2,0,0,0-1.5.84h0a2.29,2.29,0,0,1-3.58,0h0a2.05,2.05,0,0,0-1.51-.84h0c-1.63-.19-2.29-1.75-1.1-2.64h0a1.35,1.35,0,0,0,.57-1.37h0c-.28-1.27,1.43-2.23,2.9-1.63h0A2.59,2.59,0,0,0,239.69,29.17Z"/><path class="cls-15" d="M279.16,25.54h0c1-2,4.53-1.38,4.51.82h0c0,1.76,2.43,2.69,3.94,1.5h0c1.89-1.48,4.8.32,3.74,2.32h0c-.86,1.6.93,3.3,2.88,2.74h0c2.44-.7,4.23,2,2.31,3.42h0c-1.54,1.16-.71,3.34,1.34,3.51h0c2.55.21,2.92,3.26.48,3.92h0a1.92,1.92,0,0,0-.45,3.68h0c2.23,1.08,1.12,4-1.43,3.75h0c-2-.2-3.38,1.78-2.16,3.2h0c1.53,1.76-.88,4-3.08,2.93h0c-1.78-.9-3.94.45-3.5,2.17h0c.56,2.14-2.72,3.39-4.21,1.6h0c-1.2-1.43-3.82-1-4.23.77h0c-.51,2.15-4.1,2.15-4.61,0h0c-.41-1.72-3-2.2-4.22-.77h0c-1.49,1.79-4.77.54-4.22-1.6h0c.45-1.72-1.72-3.07-3.49-2.17h0c-2.21,1.11-4.61-1.17-3.09-2.93h0c1.23-1.42-.11-3.4-2.15-3.2h0c-2.55.25-3.66-2.67-1.43-3.75h0a1.92,1.92,0,0,0-.45-3.68h0c-2.45-.66-2.07-3.71.48-3.92h0c2.05-.17,2.88-2.35,1.33-3.51h0c-1.92-1.46-.12-4.12,2.31-3.42h0c1.95.56,3.74-1.14,2.89-2.74h0c-1.06-2,1.84-3.8,3.73-2.32h0c1.52,1.19,4,.26,3.95-1.5h0c0-2.2,3.49-2.84,4.51-.82h0A2.54,2.54,0,0,0,279.16,25.54Z"/><path class="cls-16" d="M278.78,28.84h0c.83-1.58,3.68-1.08,3.66.64h0c0,1.38,2,2.11,3.21,1.18h0c1.53-1.16,3.89.25,3,1.82h0c-.69,1.26.76,2.6,2.34,2.16h0c2-.55,3.44,1.54,1.88,2.68h0c-1.25.92-.58,2.63,1.08,2.76h0c2.07.17,2.38,2.57.39,3.08h0a1.5,1.5,0,0,0-.36,2.89h0c1.81.85.91,3.14-1.16,3h0c-1.66-.16-2.75,1.4-1.75,2.51h0c1.23,1.38-.72,3.18-2.51,2.3h0c-1.44-.7-3.2.36-2.84,1.71h0c.45,1.68-2.21,2.66-3.42,1.26h0c-1-1.13-3.1-.75-3.43.6h0c-.42,1.69-3.33,1.69-3.75,0h0c-.33-1.35-2.46-1.73-3.43-.6h0c-1.21,1.4-3.87.42-3.42-1.26h0c.36-1.35-1.4-2.41-2.84-1.71h0c-1.79.88-3.74-.92-2.5-2.3h0c1-1.11-.1-2.67-1.76-2.51h0c-2.07.19-3-2.1-1.15-3h0a1.5,1.5,0,0,0-.37-2.89h0c-2-.51-1.68-2.91.39-3.08h0c1.66-.13,2.34-1.84,1.08-2.76h0c-1.56-1.14-.1-3.23,1.88-2.68h0c1.58.44,3-.9,2.34-2.16h0c-.86-1.57,1.5-3,3-1.82h0c1.23.93,3.21.2,3.2-1.18h0c0-1.72,2.83-2.22,3.66-.64h0A2.1,2.1,0,0,0,278.78,28.84Z"/><path class="cls-15" d="M278.82,33.24h0c1.35-1.47,4.44-.72,4.37,1.07h0c-.05,1.26,1.61,2.16,3.2,1.73h0c2.25-.59,4.16,1.37,2.7,2.79h0c-1,1-.39,2.46,1.22,2.81h0c2.29.51,2.29,2.94,0,3.44h0c-1.61.36-2.25,1.82-1.22,2.81h0c1.46,1.42-.45,3.39-2.7,2.79h0c-1.59-.42-3.25.48-3.2,1.74h0c.07,1.78-3,2.53-4.37,1.06h0a2.89,2.89,0,0,0-3.95,0h0c-1.35,1.47-4.44.72-4.37-1.06h0c0-1.26-1.61-2.16-3.2-1.74h0c-2.25.6-4.16-1.37-2.7-2.79h0c1-1,.39-2.45-1.22-2.81h0c-2.29-.5-2.29-2.93,0-3.44h0c1.61-.35,2.25-1.81,1.22-2.81h0c-1.46-1.42.45-3.38,2.7-2.79h0c1.59.43,3.24-.47,3.2-1.73h0c-.07-1.79,3-2.54,4.37-1.07h0A2.89,2.89,0,0,0,278.82,33.24Z"/><path class="cls-16" d="M278.29,35.59h0c.9-1.11,3-.54,2.92.81h0a1.58,1.58,0,0,0,2.14,1.31h0c1.5-.45,2.78,1,1.81,2.1h0a1.29,1.29,0,0,0,.81,2.13h0a1.3,1.3,0,0,1,0,2.59h0a1.29,1.29,0,0,0-.81,2.13h0c1,1.07-.31,2.55-1.81,2.1h0a1.58,1.58,0,0,0-2.14,1.31h0c.05,1.35-2,1.92-2.92.8h0a1.78,1.78,0,0,0-2.64,0h0c-.91,1.12-3,.55-2.93-.8h0a1.57,1.57,0,0,0-2.14-1.31h0c-1.5.45-2.78-1-1.8-2.1h0a1.29,1.29,0,0,0-.82-2.13h0a1.3,1.3,0,0,1,0-2.59h0a1.29,1.29,0,0,0,.82-2.13h0c-1-1.07.3-2.55,1.8-2.1h0a1.57,1.57,0,0,0,2.14-1.31h0c0-1.35,2-1.92,2.93-.81h0A1.77,1.77,0,0,0,278.29,35.59Z"/><path class="cls-15" d="M278,39.76h0c1.47-.6,3.18.37,2.9,1.63h0a1.35,1.35,0,0,0,.57,1.37h0c1.19.9.53,2.46-1.11,2.64h0a2,2,0,0,0-1.5.85h0a2.29,2.29,0,0,1-3.58,0h0a2,2,0,0,0-1.5-.85h0c-1.64-.18-2.29-1.74-1.11-2.64h0a1.34,1.34,0,0,0,.58-1.37h0c-.28-1.26,1.43-2.23,2.89-1.63h0A2.49,2.49,0,0,0,278,39.76Z"/><path class="cls-7" d="M170.67,89s-5.54-2.44-7.69-6.25"/><path class="cls-7" d="M168.61,93s-5.54-2.44-7.69-6.25"/><path class="cls-17" d="M177.43,145.13s29.17,10.22,47.3,0C224.73,145.13,197.52,186.37,177.43,145.13Z"/><path class="cls-1" d="M342.27,182.25l13.67,13L367,187.37a24.15,24.15,0,0,0-16.59-12.28Z"/><path class="cls-1" d="M350.43,175.09s-8.3-9.35-1.79-17.38c0,0,5.69-7,10.1-8.59,0,0,6.2-1.84,7.69,4.08,0,0,1.32,4.19,6.87,5.08,0,0,3.52.14,6.6,4a7.69,7.69,0,0,0,2.72,2.24c1.21.55,2.62,1.91,1.83,5.26,0,0-2.75,9.21-8,11.77h0s-6.68,6.31-9.46,5.86S350.43,175.09,350.43,175.09Z"/><path class="cls-1" d="M357.2,146.66s-8.32-5.72-1.59-8.68C355.61,138,361.3,137.34,357.2,146.66Z"/><path class="cls-1" d="M365.42,147s-6.45-12.26,3.12-11.57C368.54,135.44,375.57,138.31,365.42,147Z"/><path class="cls-1" d="M374.49,153.23s-.83-14,7.45-9.75C381.94,143.48,387.08,148.86,374.49,153.23Z"/><path class="cls-1" d="M383.92,160.21s3-14,9.68-7.71C393.6,152.5,397,159.09,383.92,160.21Z"/><path class="cls-1" d="M386.4,172.53s12.19-11.79,14-1.27C400.38,171.26,399,179.93,386.4,172.53Z"/><path class="cls-1" d="M61,185.58,48.89,199.86l-11-4.6A27.86,27.86,0,0,1,52.79,181Z"/><path class="cls-1" d="M52.79,181s7.24-10,.57-15.67c0,0-5.83-5-10.09-5.45,0,0-6-.31-7,5.21,0,0-1,4-6.17,5.91a11.44,11.44,0,0,0-6,4.86,8.93,8.93,0,0,1-2.44,2.54c-1.1.74-2.34,2.23-1.38,5,0,0,3.19,7.53,8.28,8.69h0s6.71,4.15,9.31,3.17S52.79,181,52.79,181Z"/><path class="cls-1" d="M44.57,157.39s7.48-6.77.94-8C45.51,149.42,40.09,150.05,44.57,157.39Z"/><path class="cls-1" d="M36.83,159.42s5.3-12.14-3.69-9.52C33.14,149.9,26.68,153.89,36.83,159.42Z"/><path class="cls-1" d="M28.67,166.79s-.12-12.53-7.67-7C21,159.77,16.5,165.59,28.67,166.79Z"/><path class="cls-1" d="M20.22,174.9s-3.7-11.71-9.64-4.75C10.58,170.15,7.76,176.67,20.22,174.9Z"/><path class="cls-1" d="M18.66,186.26S6.4,178.44,5.38,188.07C5.38,188.07,7.23,195.41,18.66,186.26Z"/></g></svg>