<svg xmlns="http://www.w3.org/2000/svg" xmlns:xlink="http://www.w3.org/1999/xlink" width="188" height="181" viewBox="0 0 188 181"><defs><style>.cls-1{opacity:0.6;}.cls-1,.cls-4{filter:url(#AI_DesenfoqueGaussiano_4);}.cls-2{filter:url(#AI_SombrasDeInglete_1);}.cls-3{fill:#662368;}.cls-5{fill:#fff;}</style><filter id="AI_DesenfoqueGaussiano_4" name="AI_DesenfoqueGaussiano_4"><feGaussianBlur stdDeviation="4"/></filter><filter id="AI_SombrasDeInglete_1" x="-20%" y="-20%" width="140%" height="140%" name="AI_SombrasDeInglete_1"><feGaussianBlur result="blur" stdDeviation="4" in="SourceAlpha"/><feOffset result="offsetBlur" dx="4" dy="4" in="blur"/><feSpecularLighting result="specOut" surfaceScale="5" specularExponent="10" in="blur"><fePointLight x="-5000" y="-10000" z="-20000"/></feSpecularLighting><feComposite result="specOut" operator="in" in="specOut" in2="SourceAlpha"/><feComposite result="litPaint" operator="arithmetic" k2="1" k3="1" in="SourceGraphic" in2="specOut"/><feMerge><feMergeNode in="offsetBlur"/><feMergeNode in="litPaint"/></feMerge></filter></defs><g id="Animated_items" data-name="Animated items"><g id="Start_game" data-name="Start game"><g class="cls-1"><path d="M57.8,53.89s-3.65-31.61,7.31-42.63S94.33,7,98,17a66.45,66.45,0,0,1,3.65,20.12l6.78-10.75S127.21,7,141.83,17s3.65,23.47,3.65,23.47l-11,16.76,11-3.35S178.36,47.18,182,70.65c2.58,16.56-7.57,23.1-13.77,25.52a105.19,105.19,0,0,0-12.35,5.63l-10.41,5.73h8.82a27.3,27.3,0,0,1,17.14,5.62c4.77,3.85,8.49,9.76,4.31,18-6.82,13.53-17.82,13.77-21.62,13.41a34.36,34.36,0,0,0-3.66-.17l-19.34.25-.1,5.87a24.94,24.94,0,0,1-13,21.31c-1.6.89-3.39,1.81-5.38,2.72C98,181.3,90.68,151.12,90.68,151.12l-7.31,10.06s-11,13.41-25.57,10.06c-7.48-1.72-10.17-9.58-11-16.85a27.82,27.82,0,0,1,6.7-21.18l1.71-2H42.66S14,134.36,10.31,121s11-23.47,11-23.47l11.22-6.91-7.57-6.5S9.13,72.09,9.72,63s.59-12.45,7.89-19.16S57.8,53.89,57.8,53.89"/></g><g class="cls-2"><path class="cls-3" d="M55.76,52.5S52.16,21.91,63,11.25s28.76-4.17,32.36,5.56A63.38,63.38,0,0,1,98.9,36.28l6.68-10.39s18.49-18.81,32.87-9.08S142,39.53,142,39.53L131.26,55.75,142,52.5S174.4,46,178,68.73c2.53,16-7.45,22.35-13.56,24.69a105.34,105.34,0,0,0-12.15,5.45L142,104.42h8.68a27.18,27.18,0,0,1,16.88,5.44c4.68,3.72,8.34,9.44,4.23,17.46-6.71,13.1-17.53,13.33-21.27,13a31.15,31.15,0,0,0-3.61-.16l-19,.24-.09,5.67A24.12,24.12,0,0,1,115,166.68c-1.58.86-3.34,1.75-5.29,2.63C95.31,175.8,88.11,146.6,88.11,146.6l-7.19,9.73s-10.78,13-25.16,9.74c-7.36-1.66-10-9.27-10.85-16.3a26.59,26.59,0,0,1,6.6-20.5l1.68-2H40.86S12.61,130.38,9,117.4,19.8,94.68,19.8,94.68L30.85,88,23.4,81.71s-15.54-11.59-15-20.4S9,49.26,16.21,42.77,55.76,52.5,55.76,52.5"/></g><g class="cls-4"><path d="M62.75,75.75c.1-.34.33-.44.58-.27a11.6,11.6,0,0,0,4.47,1.63c1,0,1.7-.51,1.7-1.29,0-2-9-1.9-9-9.31,0-4.56,3.25-7.59,8.13-7.59a13.45,13.45,0,0,1,7.2,2.45.5.5,0,0,1,.25.61l-2,4.8c-.1.34-.32.44-.58.27a12.45,12.45,0,0,0-4.53-1.77c-1,0-1.64.48-1.64,1.23,0,2,9.09,1.87,9.09,9.35,0,4.52-3.31,7.54-8.25,7.54A11.7,11.7,0,0,1,61,81.16c-.26-.2-.36-.44-.26-.61Z"/><path d="M88.64,64.19a.46.46,0,0,1,.48.48L88.77,68a.54.54,0,0,1-.48.51H86.23v13.9a.51.51,0,0,1-.48.51H80.1a.52.52,0,0,1-.49-.51V68.48H77.78a.48.48,0,0,1-.45-.48V64.7a.49.49,0,0,1,.45-.51h1.83v-3.7A.54.54,0,0,1,80.1,60l5.65-.58a.48.48,0,0,1,.48.48v4.28Z"/><path d="M90.76,66.3a.54.54,0,0,1,.16-.64,12.85,12.85,0,0,1,7-1.94c5.56,0,8.13,3.09,8.13,9.86v8.8a.52.52,0,0,1-.49.51h-4a.54.54,0,0,1-.52-.51l-.22-.92a7.6,7.6,0,0,1-5.53,1.94,5.81,5.81,0,0,1-6.1-6.25c0-3.33,2.47-5.54,6.1-5.54,1.87,0,3.54.71,4.18,1.8V72a2.3,2.3,0,0,0-2.47-2.41,8.12,8.12,0,0,0-3.86,1.08c-.16.11-.35,0-.48-.27ZM99.4,76.77a2.36,2.36,0,0,0-1.77-.85,1.23,1.23,0,1,0,0,2.45,2.32,2.32,0,0,0,1.77-.85Z"/><path d="M118.51,64.19a.46.46,0,0,1,.45.48v4.42a.46.46,0,0,1-.45.48h-.84A3,3,0,0,0,114.94,71V82.38a.51.51,0,0,1-.48.51h-5.65a.52.52,0,0,1-.49-.51V64.7a.51.51,0,0,1,.49-.47h3.63c.25,0,.41.24.51.51l.48,1.49a5.38,5.38,0,0,1,4.24-2Z"/><path d="M131.22,64.19a.47.47,0,0,1,.49.48l-.36,3.3a.53.53,0,0,1-.48.51h-2.05v13.9a.52.52,0,0,1-.49.51h-5.65a.51.51,0,0,1-.48-.51V68.48h-1.83a.47.47,0,0,1-.45-.48V64.7a.48.48,0,0,1,.45-.51h1.83v-3.7a.53.53,0,0,1,.48-.48l5.65-.58a.49.49,0,0,1,.49.48v4.28Z"/><path d="M64.65,121.25c-.51,1.08-2.06,1.8-3.85,1.8-4.69,0-7.81-3.57-7.81-8.94,0-6,2.89-9.59,7.81-9.59,2.47,0,4.43.71,5.26,1.94l.58-1a1,1,0,0,1,.74-.51h3.4a.48.48,0,0,1,.49.51V122c0,5.13-4.4,8.57-9.86,8.57-3.18,0-6-.79-7.58-2.15a.54.54,0,0,1-.2-.57l1.64-4.22c.1-.24.29-.34.48-.2a8.87,8.87,0,0,0,5.66,1.9c2,0,3.24-1.12,3.24-3.06Zm0-8.84a2.31,2.31,0,0,0-2.22-1.53c-1.6,0-2.53,1.19-2.53,3.23s.93,3.26,2.53,3.26a2.31,2.31,0,0,0,2.22-1.53Z"/><path d="M74.7,107.1a.54.54,0,0,1,.16-.64,12.85,12.85,0,0,1,7-1.94c5.56,0,8.13,3.09,8.13,9.86v8.8a.51.51,0,0,1-.48.51h-4a.54.54,0,0,1-.52-.51l-.22-.92a7.59,7.59,0,0,1-5.52,1.94A5.81,5.81,0,0,1,73.06,118c0-3.33,2.48-5.54,6.11-5.54,1.86,0,3.53.71,4.17,1.8v-1.43a2.3,2.3,0,0,0-2.47-2.41A8.15,8.15,0,0,0,77,111.45c-.16.11-.35,0-.48-.27Zm8.64,10.47a2.34,2.34,0,0,0-1.77-.85,1.23,1.23,0,1,0,0,2.45,2.31,2.31,0,0,0,1.77-.85Z"/><path d="M97.25,106.42a6.63,6.63,0,0,1,5-1.9c2.31,0,4.08,1,4.78,2.68a6.84,6.84,0,0,1,5.56-2.68c4.31,0,6.84,2.79,6.84,7.48v11.22a.42.42,0,0,1-.45.47h-5.71a.42.42,0,0,1-.45-.47V113c-.07-1.36-.61-2.14-1.58-2.14a2.14,2.14,0,0,0-2.09,1.9v10.44a.42.42,0,0,1-.45.47H103a.42.42,0,0,1-.45-.47V113c0-1.46-.61-2.14-1.58-2.14a2.22,2.22,0,0,0-2.12,1.9v10.44a.42.42,0,0,1-.45.47H92.72a.42.42,0,0,1-.45-.47V105.47a.42.42,0,0,1,.45-.48h3.59a.54.54,0,0,1,.52.34Z"/><path d="M137.42,121.79c.07.24,0,.37-.22.51a12,12,0,0,1-6.65,1.9c-5.69,0-9.48-3.94-9.48-9.82s3.73-9.86,9.32-9.86c5.33,0,8.48,3.64,8.48,9.82a7.91,7.91,0,0,1-.13,1.53.42.42,0,0,1-.48.41H128s0,2.14,2.7,2.14a11.68,11.68,0,0,0,4.91-1.12.34.34,0,0,1,.48.27Zm-4.94-9.08a2.21,2.21,0,0,0-2.16-2.48,2.31,2.31,0,0,0-2.4,2.48Z"/></g><path class="cls-5" d="M62.75,75.75c.1-.34.33-.44.58-.27a11.6,11.6,0,0,0,4.47,1.63c1,0,1.7-.51,1.7-1.29,0-2-9-1.9-9-9.31,0-4.56,3.25-7.59,8.13-7.59a13.45,13.45,0,0,1,7.2,2.45.5.5,0,0,1,.25.61l-2,4.8c-.1.34-.32.44-.58.27a12.45,12.45,0,0,0-4.53-1.77c-1,0-1.64.48-1.64,1.23,0,2,9.09,1.87,9.09,9.35,0,4.52-3.31,7.54-8.25,7.54A11.7,11.7,0,0,1,61,81.16c-.26-.2-.36-.44-.26-.61Z"/><path class="cls-5" d="M88.64,64.19a.46.46,0,0,1,.48.48L88.77,68a.54.54,0,0,1-.48.51H86.23v13.9a.51.51,0,0,1-.48.51H80.1a.52.52,0,0,1-.49-.51V68.48H77.78a.48.48,0,0,1-.45-.48V64.7a.49.49,0,0,1,.45-.51h1.83v-3.7A.54.54,0,0,1,80.1,60l5.65-.58a.48.48,0,0,1,.48.48v4.28Z"/><path class="cls-5" d="M90.76,66.3a.54.54,0,0,1,.16-.64,12.85,12.85,0,0,1,7-1.94c5.56,0,8.13,3.09,8.13,9.86v8.8a.52.52,0,0,1-.49.51h-4a.54.54,0,0,1-.52-.51l-.22-.92a7.6,7.6,0,0,1-5.53,1.94,5.81,5.81,0,0,1-6.1-6.25c0-3.33,2.47-5.54,6.1-5.54,1.87,0,3.54.71,4.18,1.8V72a2.3,2.3,0,0,0-2.47-2.41,8.12,8.12,0,0,0-3.86,1.08c-.16.11-.35,0-.48-.27ZM99.4,76.77a2.36,2.36,0,0,0-1.77-.85,1.23,1.23,0,1,0,0,2.45,2.32,2.32,0,0,0,1.77-.85Z"/><path class="cls-5" d="M118.51,64.19a.46.46,0,0,1,.45.48v4.42a.46.46,0,0,1-.45.48h-.84A3,3,0,0,0,114.94,71V82.38a.51.51,0,0,1-.48.51h-5.65a.52.52,0,0,1-.49-.51V64.7a.51.51,0,0,1,.49-.47h3.63c.25,0,.41.24.51.51l.48,1.49a5.38,5.38,0,0,1,4.24-2Z"/><path class="cls-5" d="M131.22,64.19a.47.47,0,0,1,.49.48l-.36,3.3a.53.53,0,0,1-.48.51h-2.05v13.9a.52.52,0,0,1-.49.51h-5.65a.51.51,0,0,1-.48-.51V68.48h-1.83a.47.47,0,0,1-.45-.48V64.7a.48.48,0,0,1,.45-.51h1.83v-3.7a.53.53,0,0,1,.48-.48l5.65-.58a.49.49,0,0,1,.49.48v4.28Z"/><path class="cls-5" d="M64.65,121.25c-.51,1.08-2.06,1.8-3.85,1.8-4.69,0-7.81-3.57-7.81-8.94,0-6,2.89-9.59,7.81-9.59,2.47,0,4.43.71,5.26,1.94l.58-1a1,1,0,0,1,.74-.51h3.4a.48.48,0,0,1,.49.51V122c0,5.13-4.4,8.57-9.86,8.57-3.18,0-6-.79-7.58-2.15a.54.54,0,0,1-.2-.57l1.64-4.22c.1-.24.29-.34.48-.2a8.87,8.87,0,0,0,5.66,1.9c2,0,3.24-1.12,3.24-3.06Zm0-8.84a2.31,2.31,0,0,0-2.22-1.53c-1.6,0-2.53,1.19-2.53,3.23s.93,3.26,2.53,3.26a2.31,2.31,0,0,0,2.22-1.53Z"/><path class="cls-5" d="M74.7,107.1a.54.54,0,0,1,.16-.64,12.85,12.85,0,0,1,7-1.94c5.56,0,8.13,3.09,8.13,9.86v8.8a.51.51,0,0,1-.48.51h-4a.54.54,0,0,1-.52-.51l-.22-.92a7.59,7.59,0,0,1-5.52,1.94A5.81,5.81,0,0,1,73.06,118c0-3.33,2.48-5.54,6.11-5.54,1.86,0,3.53.71,4.17,1.8v-1.43a2.3,2.3,0,0,0-2.47-2.41A8.15,8.15,0,0,0,77,111.45c-.16.11-.35,0-.48-.27Zm8.64,10.47a2.34,2.34,0,0,0-1.77-.85,1.23,1.23,0,1,0,0,2.45,2.31,2.31,0,0,0,1.77-.85Z"/><path class="cls-5" d="M97.25,106.42a6.63,6.63,0,0,1,5-1.9c2.31,0,4.08,1,4.78,2.68a6.84,6.84,0,0,1,5.56-2.68c4.31,0,6.84,2.79,6.84,7.48v11.22a.42.42,0,0,1-.45.47h-5.71a.42.42,0,0,1-.45-.47V113c-.07-1.36-.61-2.14-1.58-2.14a2.14,2.14,0,0,0-2.09,1.9v10.44a.42.42,0,0,1-.45.47H103a.42.42,0,0,1-.45-.47V113c0-1.46-.61-2.14-1.58-2.14a2.22,2.22,0,0,0-2.12,1.9v10.44a.42.42,0,0,1-.45.47H92.72a.42.42,0,0,1-.45-.47V105.47a.42.42,0,0,1,.45-.48h3.59a.54.54,0,0,1,.52.34Z"/><path class="cls-5" d="M137.42,121.79c.07.24,0,.37-.22.51a12,12,0,0,1-6.65,1.9c-5.69,0-9.48-3.94-9.48-9.82s3.73-9.86,9.32-9.86c5.33,0,8.48,3.64,8.48,9.82a7.91,7.91,0,0,1-.13,1.53.42.42,0,0,1-.48.41H128s0,2.14,2.7,2.14a11.68,11.68,0,0,0,4.91-1.12.34.34,0,0,1,.48.27Zm-4.94-9.08a2.21,2.21,0,0,0-2.16-2.48,2.31,2.31,0,0,0-2.4,2.48Z"/></g></g></svg>