<svg xmlns="http://www.w3.org/2000/svg" width="205" height="140" viewBox="0 0 205 140"><defs><style>.cls-1{fill:#fff;}.cls-2{fill:#0b8414;}.cls-3{fill:#ea2199;}.cls-4{fill:#46a3e8;}</style></defs><g id="Animated_items" data-name="Animated items"><g id="sugar_calavera-3" data-name="sugar calavera"><path class="cls-1" d="M33.27,84.47s-75.06-18.55,4.54-68.26a58.93,58.93,0,0,1,16.5-7C71.45,4.77,110-3.13,141.54,4.77c16.3,4.08,28.75,14.71,33.21,28.13,3.75,11.27,5,26.33-6.41,39.77,0,0,65.12,9.83,12.06,29.5l2.41,27.54s-12.05,8.78-20.5-2.49c0,0-8.44,14.29-22.92.52,0,0-9.64,15.74-21.7,0,0,0-7.24,17.71-19.3,0,0,0-9.46,17.22-25.23.74,0,0-10.95,17-25.42,1.23V112S-12.56,114,33.27,84.47Z"/><path class="cls-2" d="M79.07,23.31h0c1.84-3.64,7.46-2.44,8,1.7h0a4.41,4.41,0,0,0,6.17,3.46h0c3.7-1.77,7.7,2.44,5.65,6h0a4.33,4.33,0,0,0,3.1,6.29h0c4.16.77,5,6.38,1.18,7.94h0a4.06,4.06,0,0,0-1.15,6.7h0a4,4,0,0,1-3.74,6.9h0a4,4,0,0,0-5,4.56h0C94,70.94,88.9,73.2,86.05,70h0a4.2,4.2,0,0,0-6.88.69h0c-1.84,3.63-7.47,2.43-8-1.7h0A4.4,4.4,0,0,0,65,65.56h0c-3.71,1.77-7.7-2.44-5.66-6h0a4.32,4.32,0,0,0-3.09-6.29h0c-4.16-.77-5-6.38-1.19-7.94h0a4.06,4.06,0,0,0,1.16-6.71h0A4,4,0,0,1,60,31.77h0a4,4,0,0,0,5-4.56h0c-.73-4.12,4.38-6.39,7.23-3.21h0A4.2,4.2,0,0,0,79.07,23.31Z"/><path class="cls-2" d="M127.3,19.38h0c1.84-3.64,7.47-2.44,8,1.7h0a4.41,4.41,0,0,0,6.16,3.46h0c3.71-1.77,7.71,2.43,5.66,6h0a4.32,4.32,0,0,0,3.1,6.28h0c4.16.77,5,6.38,1.18,7.94h0a4.06,4.06,0,0,0-1.15,6.71h0a4,4,0,0,1-3.74,6.89h0a4,4,0,0,0-5,4.57h0c.73,4.11-4.38,6.38-7.24,3.21h0a4.19,4.19,0,0,0-6.87.68h0c-1.84,3.64-7.47,2.44-8-1.7h0a4.4,4.4,0,0,0-6.16-3.46h0c-3.71,1.77-7.7-2.43-5.66-6h0a4.31,4.31,0,0,0-3.09-6.28h0c-4.16-.77-5-6.38-1.19-7.94h0a4.06,4.06,0,0,0,1.16-6.71h0a4,4,0,0,1,3.73-6.89h0a4,4,0,0,0,5-4.57h0c-.74-4.11,4.37-6.38,7.23-3.21h0A4.18,4.18,0,0,0,127.3,19.38Z"/><path class="cls-3" d="M55,88.4s-26.53-7.87-16.89,7.87c0,0,9.65,11.8,19.3,11.8,0,0,9.83-5.76,15.77-14.68S69.45,76.6,55,88.4Z"/><path class="cls-3" d="M163.43,80.69s-22.85-13.52-18.88,3.77c0,0,5.29,13.52,14.56,15.68,0,0,11.4-3.33,20.12-10.57S181.33,72.59,163.43,80.69Z"/><path d="M94.1,82.18S99.7,72.69,107,69c0,0,8.62,2.73,12.68,6.44A35.45,35.45,0,0,0,122.76,78c2.06,1.49,5,4.29,4.27,7.55,0,0,.5,7.77-16.21,2.19,0,0-16.31,7-17.57.8C93.25,88.57,92.32,84,94.1,82.18Z"/><ellipse cx="80.3" cy="46.11" rx="16.78" ry="17.82" transform="translate(-11.31 32.61) rotate(-21.48)"/><ellipse cx="128.54" cy="42.17" rx="16.78" ry="17.82" transform="translate(-6.52 50) rotate(-21.48)"/><path class="cls-4" d="M44.28,34a1.56,1.56,0,0,1-2.53.31c-2.52-2.73-7.22-8-7.28-9.26-.07-1.68,6.32-6.54,11.35-2a1.45,1.45,0,0,1,.47,1.11A30.12,30.12,0,0,1,44.28,34Z"/><path class="cls-4" d="M32.16,44.89c.94.64.62,1.77-.55,2-4,1-11.73,2.65-13.2,2.24-1.95-.55-5.23-7.15,1.78-9.35a2.29,2.29,0,0,1,1.44,0A47.5,47.5,0,0,1,32.16,44.89Z"/><path class="cls-4" d="M36.26,37.63c.3,1-.78,1.72-1.92,1.38C30.4,37.84,23,35.51,22.06,34.47c-1.18-1.37.94-8.29,8.19-6.7a2,2,0,0,1,1.14.73A33,33,0,0,1,36.26,37.63Z"/><path class="cls-4" d="M153.52,34.18a1.08,1.08,0,0,1,0-2.09c3.71-1.6,10.82-4.56,12.36-4.4,2,.2,6.92,6.12.62,9.45a2.35,2.35,0,0,1-1.42.2A51.19,51.19,0,0,1,153.52,34.18Z"/><path class="cls-4" d="M142.18,22.7a1.51,1.51,0,0,1-2.39-.76c-.51-3.4-1.36-9.87-.63-11,1-1.48,9.48-3.09,11.05,2.9a1.39,1.39,0,0,1-.28,1.16A38.91,38.91,0,0,1,142.18,22.7Z"/><path class="cls-4" d="M150.32,27.14c-1.21.09-2-.9-1.37-1.76,2-3,6-8.63,7.43-9.18,1.85-.73,9.9,2.06,6.83,7.65a1.88,1.88,0,0,1-1.06.81A52.81,52.81,0,0,1,150.32,27.14Z"/></g></g></svg>