<svg xmlns="http://www.w3.org/2000/svg" width="225" height="415" viewBox="0 0 225 415"><defs><style>.cls-1{fill:#fff;}.cls-2{fill:#e0d982;}.cls-3{fill:#f3983e;}.cls-4{fill:#dd2458;}.cls-5{fill:#d6ba1a;}.cls-6{fill:#e3933a;}.cls-7{fill:#dbdad9;}.cls-8{fill:#f9c847;}.cls-9{fill:#c14a29;}.cls-10{fill:#25bf25;}.cls-11{fill:#2692db;}.cls-12{fill:#a84726;}.cls-13{fill:#2a6d21;}.cls-14{fill:#c1b867;}</style></defs><g id="Animated_items" data-name="Animated items"><g id="surprised-2" data-name="surprised"><path class="cls-1" d="M30.24,273.66l13.33-1.5,2.59,8.38a18.66,18.66,0,0,1-14.62,0Z"/><path class="cls-1" d="M31.54,280.54s-8.75,1.68-8.75,8.38c0,0,0,5.87,1.74,8.38,0,0,2.59,3.36,6,.84a6.4,6.4,0,0,1,6.06,0s2.1,1.36,5.68.41a4.39,4.39,0,0,1,2.13-.06c.92.2,2.35.09,3.44-2,0,0,2.6-5.86.87-9.21h0s-.87-5.87-2.6-6.71S31.54,280.54,31.54,280.54Z"/><path class="cls-1" d="M22.58,298s-7.13-.23-4.75,3.92C17.83,301.91,20.68,304.44,22.58,298Z"/><path class="cls-1" d="M27.26,301s-9,3.91-3.44,7.24C23.82,308.22,29,309.44,27.26,301Z"/><path class="cls-1" d="M35,301.24s-6.73,7-.25,8C34.79,309.2,40,308.37,35,301.24Z"/><path class="cls-1" d="M43.35,301.23s-4.63,8.46,1.89,7.76C45.24,309,50.07,306.88,43.35,301.23Z"/><path class="cls-1" d="M50.21,295.76s1.46,10.86,7.14,6.06C57.35,301.82,60.47,296.77,50.21,295.76Z"/><path class="cls-1" d="M189.35,258.39,176,259.3l-1,8.7a18.61,18.61,0,0,0,14.36-2.61Z"/><path class="cls-1" d="M189.39,265.39s8.91.09,10.19,6.68c0,0,1.11,5.76-.11,8.54a4.28,4.28,0,0,1-5.79,1.91,6.35,6.35,0,0,0-5.94,1.08,7.26,7.26,0,0,1-5.22,1.43,5.93,5.93,0,0,0-2.47.34c-.86.34-2.25.41-3.68-1.41,0,0-3.67-5.3-2.61-8.91h0s-.27-5.92,1.27-7.05S189.39,265.39,189.39,265.39Z"/><path class="cls-1" d="M201.51,280.94s7-1.49,5.42,3C206.93,283.94,204.6,286.94,201.51,280.94Z"/><path class="cls-1" d="M197.48,284.72s9.61,2.23,4.76,6.5C202.24,291.22,197.42,293.34,197.48,284.72Z"/><path class="cls-1" d="M189.9,286.35s7.94,5.7,1.76,7.79C191.66,294.14,186.36,294.26,189.9,286.35Z"/><path class="cls-1" d="M181.74,287.84s6.15,7.48-.38,8C181.36,295.8,176.21,294.58,181.74,287.84Z"/><path class="cls-1" d="M174,283.69s.65,10.93-5.85,7.22C168.1,290.91,164.08,286.51,174,283.69Z"/><path class="cls-2" d="M64.34,257.07S53,337.35,57.8,350.43c0,0,33.8,4.29,45.91.93,0,0,10.33-52.43,11.66-97l5.28,9.1s2,85.47,3.34,89.21c0,0,33.73,3,55.19-2.47,0,0-21-101.9-22.68-102.74S64.34,257.07,64.34,257.07Z"/><path class="cls-3" d="M65.47,147.7s-27.63-.18-34.72,46.21c0,0-7.09,30.47-11.42,55.62,0,0-11.84,30.71,23.07,23.32,0,0,80.74-2.2,133.84-12.88a54.29,54.29,0,0,1,9.84-1.08c8.47-.13,26.22-3,13.31-26.29a32.41,32.41,0,0,1-4-13.44c-1.06-15.47-4-49.36-10.35-57.31,0,0-9.95-17.93-28.56-18.35S65.47,147.7,65.47,147.7Z"/><path class="cls-4" d="M41.41,111.06s-2.07,7,2.75,10.94S44,111.6,41.41,111.06Z"/><path class="cls-5" d="M49.71,129.68s-9.12-.21-4.14-7C45.57,122.69,54.34,124,49.71,129.68Z"/><path class="cls-4" d="M165.8,66.82s-2,6.41,2.65,10.09S168.3,67.31,165.8,66.82Z"/><path class="cls-5" d="M173.81,84s-8.8-.19-4-6.45C169.81,77.55,178.28,78.73,173.81,84Z"/><path class="cls-6" d="M46,92.25,21.62,106.87s-3.31,4.38,21,4.79l119.44-38s22.57-17.73,23-24C185.06,49.63,180.3,16.53,46,92.25Z"/><path class="cls-1" d="M48.78,88.23C64,70.05,108.71,28.82,170.66,80.29A8.36,8.36,0,0,1,173,83.35c3.35,7.52,13.35,36.33-16.48,60.15,0,0-12.11,7.55-15.57,15.09,0,0-3.47,10.9-15.58,9.22L103.4,168a39.94,39.94,0,0,1-11-3.62,15.73,15.73,0,0,1-5.65-4.74c-1.83-2.43-5.89-6.13-14.23-7.74,0,0-28.71-12.52-29.92-45.77A26.41,26.41,0,0,1,48.78,88.23Z"/><ellipse class="cls-7" cx="95.06" cy="99.92" rx="15.58" ry="14.25"/><ellipse cx="95.17" cy="100.33" rx="7.82" ry="10.02"/><ellipse class="cls-7" cx="133.14" cy="99.08" rx="15.58" ry="14.25"/><path class="cls-8" d="M23.74,84.13c-1.34.59-6,3.46-6.29,15,0,0-2.88,13.41,9.24,5,0,0,53.66-38.55,142.8-57,0,0,17.3-1.68,15.57,2.51a14.63,14.63,0,0,0-3.46-12.57s0-3.35-14.71-2.51c0,0-69.64,3.33-142.08,49A9.24,9.24,0,0,1,23.74,84.13Z"/><path class="cls-8" d="M60.87,24.07S83.38,13.17,99.82,11.5c0,0,6.06-2.52,14.71,5l24.34,21.89L54.68,66.85S52.22,45,52.22,43.35,47,28.26,60.87,24.07Z"/><path class="cls-9" d="M88.57,40,52.94,51l1.74,15.88,20-9s40.69-15.65,45-15.06c0,0,18.42-4.24,19.18-4.34L126.13,27Z"/><path class="cls-4" d="M49.89,90.11s-2.29,8.67,3,13.64S52.76,90.77,49.89,90.11Z"/><path class="cls-5" d="M59.08,113.33s-10.09-.25-4.58-8.71C54.5,104.62,64.21,106.21,59.08,113.33Z"/><path class="cls-4" d="M184,48.2s-2.3,8.68,3,13.65S186.9,48.87,184,48.2Z"/><path class="cls-5" d="M193.22,71.43s-10.09-.26-4.58-8.72C188.64,62.71,198.35,64.3,193.22,71.43Z"/><path class="cls-4" d="M18.39,106.15s4.4,11.79,8.73,13.47S23.5,112.79,18.39,106.15Z"/><path class="cls-5" d="M33.12,128.42s-10.1-.25-4.59-8.72C28.53,119.7,38.25,121.29,33.12,128.42Z"/><path d="M106.31,121.71s3-4.67,6.27-6.1a16.74,16.74,0,0,1,4.58,4.35,16.75,16.75,0,0,0,1,1.6c.71,1,1.68,2.66,1.1,4.34,0,0-.43,4.19-6.71,0,0,0-7.14,2.58-7.14-.83C105.44,125.07,105.44,122.55,106.31,121.71Z"/><ellipse class="cls-10" cx="75.59" cy="98.25" rx="2.6" ry="2.1"/><ellipse class="cls-10" cx="77.32" cy="91.54" rx="2.11" ry="2.58" transform="translate(-36.98 127.5) rotate(-67.28)"/><ellipse class="cls-10" cx="83.38" cy="85.67" rx="2.14" ry="2.54" transform="translate(-33.98 62.88) rotate(-34.79)"/><ellipse class="cls-10" cx="92.03" cy="82.32" rx="2.16" ry="2.52" transform="translate(-8.81 11.07) rotate(-6.57)"/><ellipse class="cls-10" cx="101.55" cy="83.16" rx="2.52" ry="2.16" transform="translate(-10.52 151.48) rotate(-70.68)"/><ellipse class="cls-10" cx="108.47" cy="86.51" rx="2.56" ry="2.13" transform="translate(-30.23 89.87) rotate(-39.96)"/><ellipse class="cls-10" cx="113.67" cy="94.05" rx="2.58" ry="2.1" transform="translate(-25.82 45.99) rotate(-20.59)"/><ellipse class="cls-10" cx="113.67" cy="103.27" rx="2.1" ry="2.59" transform="translate(-9.29 195.29) rotate(-79.07)"/><ellipse class="cls-10" cx="111.07" cy="109.98" rx="2.12" ry="2.57" transform="translate(-40.76 147.14) rotate(-58.47)"/><ellipse class="cls-10" cx="105.01" cy="115.01" rx="2.14" ry="2.54" transform="translate(-46.85 80.47) rotate(-34.79)"/><ellipse class="cls-10" cx="97.22" cy="118.36" rx="2.16" ry="2.51" transform="matrix(1, -0.06, 0.06, 1, -6.81, 5.94)"/><ellipse class="cls-10" cx="90" cy="117.01" rx="2.52" ry="2.16" transform="translate(-50.2 163.24) rotate(-70.68)"/><ellipse class="cls-10" cx="82.21" cy="113.66" rx="2.55" ry="2.13" transform="translate(-56.07 90.09) rotate(-44.45)"/><ellipse class="cls-10" cx="77.02" cy="107.79" rx="2.57" ry="2.11" transform="translate(-42.32 50.27) rotate(-28.72)"/><ellipse class="cls-10" cx="116.26" cy="88.19" rx="2.11" ry="2.58" transform="translate(-9.99 161.37) rotate(-67.28)"/><ellipse class="cls-10" cx="121.45" cy="84.84" rx="2.14" ry="2.54" transform="translate(-26.69 84.46) rotate(-34.79)"/><ellipse class="cls-10" cx="130.11" cy="81.48" rx="2.16" ry="2.52" transform="translate(-8.47 15.42) rotate(-6.57)"/><ellipse class="cls-10" cx="139.63" cy="82.32" rx="2.52" ry="2.16" transform="translate(15.75 186.86) rotate(-70.68)"/><ellipse class="cls-10" cx="146.55" cy="85.67" rx="2.56" ry="2.13" transform="translate(-20.8 114.13) rotate(-39.96)"/><ellipse class="cls-10" cx="151.74" cy="93.22" rx="2.58" ry="2.1" transform="translate(-23.09 59.33) rotate(-20.59)"/><ellipse class="cls-10" cx="151.74" cy="101.6" rx="2.1" ry="2.59" transform="translate(23.22 231.32) rotate(-79.07)"/><ellipse class="cls-10" cx="149.15" cy="108.3" rx="2.12" ry="2.57" transform="translate(-21.16 178.8) rotate(-58.47)"/><ellipse class="cls-10" cx="143.09" cy="113.33" rx="2.14" ry="2.54" transform="translate(-39.09 101.89) rotate(-34.79)"/><ellipse class="cls-10" cx="135.3" cy="116.68" rx="2.16" ry="2.51" transform="translate(-6.64 8.18) rotate(-3.38)"/><ellipse class="cls-10" cx="128.08" cy="115.34" rx="2.52" ry="2.16" transform="matrix(0.33, -0.94, 0.94, 0.33, -23.13, 198.05)"/><ellipse class="cls-10" cx="122.02" cy="113.66" rx="2.55" ry="2.13" transform="translate(-44.68 117.97) rotate(-44.45)"/><ellipse class="cls-10" cx="116.83" cy="108.63" rx="2.57" ry="2.11" transform="translate(-37.83 69.51) rotate(-28.72)"/><path class="cls-11" d="M73.7,127.43s-2.92-4.78-5.94-4.5-3.66,2.56-3.91,4.41S72.15,130.94,73.7,127.43Z"/><path class="cls-11" d="M72.85,133.41s-4.88-2.93-7.42-1.33-2,3.91-1.35,5.67S73.15,137.21,72.85,133.41Z"/><path class="cls-11" d="M75.4,137.37s-5.71.54-6.73,3.31.85,4.29,2.48,5.3S78,140.22,75.4,137.37Z"/><path class="cls-11" d="M148,135.14s1.43,5.39,4.4,5.94,4.26-1.47,5-3.19S150.53,132.19,148,135.14Z"/><path class="cls-11" d="M150.57,129.64s3.84,4.13,6.74,3.28,3.06-3.21,2.93-5.08S151.37,125.9,150.57,129.64Z"/><path class="cls-11" d="M149.26,125.14s5.64,1,7.41-1.36.42-4.35-.85-5.76S147.55,121.7,149.26,125.14Z"/><path class="cls-12" d="M34.31,178.52s63.92,28.16,154.28-8.67l3.77,19s-68.15,21.91-162.13,7.36Z"/><path class="cls-13" d="M25.39,216s105.4,6.73,168.67-13l1.8,19.7s-61.94,20.52-174.19,14Z"/><path class="cls-12" d="M17.6,256.23a17.23,17.23,0,0,0,7.93-.09,13.47,13.47,0,0,1,3.15-.52c15.39-.46,125.48-4.1,158.92-16.77,0,0,12.71-3.9,11.79-5.41s15.92,22.74-10.24,26.12c0,0-108.22,14.37-145.1,14.15a11.85,11.85,0,0,0-3,.36C35.46,275.48,14.88,279.64,17.6,256.23Z"/><ellipse cx="133.08" cy="99.07" rx="7.82" ry="10.02"/><path class="cls-1" d="M73.37,352,71.69,369.8s-1.84,5.15,1.68,6.77l9.57,1.61s6.93.84,5.19-4.19l2.48-21.35"/><path class="cls-1" d="M60.44,391.59s-8.34,1.68-10.23,0c0,0-5.24-5.09,3.8-8.83h2.6s8.93-5,14.6-6.46l11.73,1.88s12.12,1.68,2.6,10.9c0,0-12.21,4.73-14.33,8.23C71.21,397.31,61.31,402.49,60.44,391.59Z"/><path class="cls-1" d="M64.13,401.48s-6.32,4.65-3.89,9.55C60.24,411,66.28,412.5,64.13,401.48Z"/><path class="cls-1" d="M47.89,391.6s-4.85-2.49-6.49,3.28C41.4,394.88,43,401.49,47.89,391.6Z"/><path class="cls-1" d="M52.22,396.63s-4.86-2.49-6.49,3.27C45.73,399.9,47.27,406.52,52.22,396.63Z"/><path class="cls-1" d="M59.14,400s-4.85-2.48-6.49,3.28C52.65,403.26,54.2,409.87,59.14,400Z"/><path class="cls-1" d="M45.45,386.76s-5-2-7.11,1.08C38.34,387.84,39.5,391.83,45.45,386.76Z"/><path class="cls-1" d="M163.18,352l1.67,17.84s1.84,5.15-1.67,6.77l-9.55,1.61s-6.9.84-5.17-4.19L146,352.67"/><path class="cls-1" d="M176.07,391.62s8.31,1.68,10.19,0c0,0,5.23-5.09-3.77-8.83h-2.6s-8.9-5-14.56-6.46l-11.7,1.88s-12.08,1.68-2.58,10.9c0,0,12.17,4.73,14.28,8.23C165.33,397.34,175.21,402.52,176.07,391.62Z"/><path class="cls-1" d="M170.53,401s7.07,4.18,5.78,9.13C176.31,410.12,170.83,411.93,170.53,401Z"/><path class="cls-1" d="M190.31,393.31s4.84-2.49,6.47,3.27C196.78,396.58,195.24,403.2,190.31,393.31Z"/><path class="cls-1" d="M184.27,396.66s4.84-2.49,6.47,3.27C190.74,399.93,189.2,406.55,184.27,396.66Z"/><path class="cls-1" d="M177.36,400s4.85-2.48,6.47,3.28C183.83,403.29,182.29,409.9,177.36,400Z"/><path class="cls-1" d="M190.56,388.08s5.17-1.44,6.92,1.89C197.48,390,195.85,393.8,190.56,388.08Z"/><path class="cls-14" d="M163.35,328.55s.23,4.84,2.13,6.69a6,6,0,0,1,1.44,4.78s-.44,3.42,2.06,5.24,2.13,6.16,2.13,6.16l3.16-.56s-1.68-5.76-3-7.16c0,0-.65-.94-.07-1.45,0,0,.39-4.38-.88-5.78S162.77,329.06,163.35,328.55Z"/><path class="cls-14" d="M83.73,329.39s.23,4.84,2.13,6.69a6,6,0,0,1,1.44,4.78s-.44,3.42,2.06,5.24,2.13,6.16,2.13,6.16l3.16-.56s-1.68-5.76-3-7.16c0,0-.65-.94-.07-1.45,0,0,.39-4.38-.88-5.78S83.15,329.9,83.73,329.39Z"/><path class="cls-14" d="M138,330.33s.23,4.84-.84,6.82a8.68,8.68,0,0,0-.55,4.88s.56,3.37-.91,5.37-.88,6.3-.88,6.3l-2.07-.32s.62-5.87,1.32-7.36c0,0,.35-1-.07-1.45,0,0-.6-4.34.11-5.82S138.39,330.79,138,330.33Z"/><path class="cls-14" d="M63.55,327s.24,4.84-.84,6.83a8.73,8.73,0,0,0-.54,4.88s.55,3.36-.91,5.37-.88,6.3-.88,6.3L58.3,350s.62-5.87,1.33-7.36c0,0,.34-1-.07-1.45,0,0-.6-4.34.1-5.82S64,327.44,63.55,327Z"/><ellipse cx="112.15" cy="146.66" rx="11.86" ry="12.35"/></g></g></svg>