<svg xmlns="http://www.w3.org/2000/svg" width="225" height="414" viewBox="0 0 225 414"><defs><style>.cls-1{fill:#fff;}.cls-2{fill:#07202a;}.cls-3{fill:#902761;}.cls-4{fill:#7e2153;}.cls-5{fill:#bd2f59;}.cls-6{fill:#e900cf;}.cls-7{fill:none;stroke:#000;stroke-miterlimit:10;}.cls-8{fill:#dbdad9;}.cls-9{fill:#dd2443;}.cls-10{fill:#9229d6;}.cls-11{fill:#267ddb;}.cls-12{fill:#f9c847;}.cls-13{fill:#e3933a;}.cls-14{fill:#0a2a3a;}.cls-15{fill:#ed146c;}.cls-16{fill:#ef56b9;}</style></defs><g id="Animated_items" data-name="Animated items"><g id="surprised"><path class="cls-1" d="M156.36,176.84s-.7,14.88-7,14.88-7.46-3.62-7.46-3.62,3-9.06,4.33-10.42S152.59,172.83,156.36,176.84Z"/><path class="cls-1" d="M146.71,200.79s-2.86,8.4-5.91,11.9-11.1-9.19-11.1-9.19,4.68-9.52,7.16-8.15C136.86,195.35,141.34,196.25,146.71,200.79Z"/><path class="cls-1" d="M139.76,195.21l6.3,3.68a2.68,2.68,0,0,0,3.67-1h0a2.73,2.73,0,0,0-1-3.71l-6.3-3.69a2.67,2.67,0,0,0-3.67,1h0A2.74,2.74,0,0,0,139.76,195.21Z"/><path class="cls-1" d="M82.19,333.92l-1.68,19.29s-1.85,5.57,1.68,7.32l9.64,1.74s7,.91,5.23-4.53l2.48-23.08"/><path class="cls-1" d="M69.18,376.77s-8.39,1.81-10.29,0c0,0-5.27-5.5,3.82-9.54h2.62s9-5.41,14.69-7l11.81,2s12.19,1.82,2.61,11.78c0,0-12.29,5.12-14.42,8.9C80,383,70.05,388.55,69.18,376.77Z"/><path class="cls-1" d="M72.88,387.44s-6.36,5.23-4.17,10.38C68.71,397.82,74.55,399.16,72.88,387.44Z"/><path class="cls-1" d="M56.55,376.78s-4.89-2.69-6.53,3.54C50,380.32,51.58,387.47,56.55,376.78Z"/><path class="cls-1" d="M60.91,382.22s-4.89-2.69-6.53,3.54C54.38,385.76,55.93,392.91,60.91,382.22Z"/><path class="cls-1" d="M67.88,385.84s-4.89-2.69-6.54,3.54C61.34,389.38,62.9,396.53,67.88,385.84Z"/><path class="cls-1" d="M54.09,371.55s-5-2.2-7.15,1.16C46.94,372.71,48.11,377,54.09,371.55Z"/><path class="cls-1" d="M159.69,329.39l1.68,19.29s1.85,5.57-1.68,7.32l-9.61,1.74s-6.94.91-5.21-4.53l-2.48-23.08"/><path class="cls-1" d="M172.66,372.24s8.37,1.81,10.27,0c0,0,5.26-5.5-3.81-9.55h-2.61s-9-5.4-14.65-7l-11.78,2s-12.15,1.82-2.6,11.78c0,0,12.25,5.12,14.38,8.9C161.86,378.42,171.8,384,172.66,372.24Z"/><path class="cls-1" d="M167.06,382.39s7.69,4.88,6.29,10.66C173.35,393.05,167.39,395.15,167.06,382.39Z"/><path class="cls-1" d="M187,374.06s4.88-2.69,6.52,3.54C193.51,377.6,192,384.75,187,374.06Z"/><path class="cls-1" d="M180.91,377.68s4.88-2.68,6.52,3.55C187.43,381.23,185.88,388.38,180.91,377.68Z"/><path class="cls-1" d="M174,381.31s4.87-2.69,6.51,3.54C180.48,384.85,178.93,392,174,381.31Z"/><path class="cls-1" d="M187.25,368.41s5.2-1.56,7,2C194.21,370.46,192.57,374.6,187.25,368.41Z"/><path class="cls-2" d="M70.43,150.43S4.37,96.74,39.21,48.72H168.12s16.55,54.58-24.82,103.41Z"/><path class="cls-3" d="M74.82,210.14s-32.13,20.16-33,44.9c0,0-3.48,59.18-6.1,73.67,0,0,4.36,16.31-4.35,25.38,0,0,18.29,8.15,32.23-2.72,0,0,12.19-4,18.29-2,0,0,19.16,7.3,30.49-3.05,0,0,10-3.24,18.5,0,0,0,12.85,6,23.31-2.19,0,0,3.48-2.72,10.45-.91,0,0,24.39,5.44,27.87-2.72,0,0,11.33.91,16.55-1.81,0,0-10.45-16.31-11.32-23.56,0,0-19.17-60.71-24.39-68.86,0,0-14.81-39-33.1-40.78C140.25,205.48,77.34,208.46,74.82,210.14Z"/><path class="cls-4" d="M83.65,208.91s-13.08,22.85-13.08,24.66S94.12,206.91,83.65,208.91Z"/><path class="cls-4" d="M102.44,208.81l-.26.54c-.93,2-4.08,9.09-3.52,11.88,0,0,5.88-6.69,8.49-12.13Z"/><path class="cls-4" d="M120.78,208.81s2.92,10.26,4.66,10.26c0,0,1.15-8.74-1.16-10.26S120.78,208.81,120.78,208.81Z"/><path class="cls-4" d="M132.35,207.58s15.74,9.68,16.61,18.74c0,0-17.4-13.71-19.59-18.18S132.35,207.58,132.35,207.58Z"/><path class="cls-5" d="M75.76,175.08s-.4,6.39,3.95,10.92,1.74,13.59,1.74,13.59l-6.63,10.55s44.52,2.59,65.43-4.66c0,0-4.36-8.16-4.36-10.87,0,0-.87-4.53.88-8.16,0,0,2.61-6.34,0-10S75.76,175.08,75.76,175.08Z"/><path class="cls-1" d="M100.62,24.71S58.81,27.42,48.35,57.33c0,0-1.3,31.26,10,42.13s42.68,28.09,42.68,28.09,7.72,4.53,13,0c4.91-4.21,29.29-19.35,32.75-25.85a10.22,10.22,0,0,1,2-2.68c4.32-4.1,15.95-17.65,12.38-42.15C161.15,56.87,156.8,23.35,100.62,24.71Z"/><path class="cls-6" d="M126.78,55.88h0c1.51-2.39,5-1.18,4.89,1.72h0a2.73,2.73,0,0,0,3.58,2.82h0c2.51-1,4.65,2.21,3,4.51h0a3,3,0,0,0,1.36,4.56h0a3,3,0,0,1,0,5.58h0a3,3,0,0,0-1.36,4.56h0c1.63,2.29-.51,5.48-3,4.51h0A2.72,2.72,0,0,0,131.67,87h0c.07,2.9-3.38,4.12-4.89,1.73h0a2.56,2.56,0,0,0-4.42,0h0c-1.51,2.39-5,1.17-4.89-1.73h0a2.71,2.71,0,0,0-3.57-2.81h0c-2.52,1-4.66-2.22-3-4.51h0a3,3,0,0,0-1.36-4.56h0a3,3,0,0,1,0-5.58h0a3,3,0,0,0,1.36-4.56h0c-1.63-2.3.51-5.48,3-4.51h0a2.72,2.72,0,0,0,3.57-2.82h0c-.07-2.9,3.38-4.11,4.89-1.72h0A2.57,2.57,0,0,0,126.78,55.88Z"/><path class="cls-6" d="M95.52,55.88h0a2.68,2.68,0,0,1,4.92,1.72h0A2.73,2.73,0,0,0,104,60.42h0c2.53-1,4.68,2.21,3,4.51h0a3,3,0,0,0,1.37,4.56h0a3,3,0,0,1,0,5.58h0a3,3,0,0,0-1.37,4.56h0c1.64,2.29-.51,5.48-3,4.51h0A2.72,2.72,0,0,0,100.44,87h0a2.68,2.68,0,0,1-4.92,1.73h0a2.58,2.58,0,0,0-4.44,0h0A2.67,2.67,0,0,1,86.17,87h0a2.73,2.73,0,0,0-3.6-2.81h0c-2.53,1-4.67-2.22-3-4.51h0a3,3,0,0,0-1.37-4.56h0a3,3,0,0,1,0-5.58h0a3,3,0,0,0,1.37-4.56h0c-1.63-2.3.51-5.48,3-4.51h0a2.74,2.74,0,0,0,3.6-2.82h0a2.67,2.67,0,0,1,4.91-1.72h0A2.59,2.59,0,0,0,95.52,55.88Z"/><path class="cls-7" d="M138.74,60.56s-2.7,3.07-5.68,3.71"/><path class="cls-7" d="M140.14,62.61s-2.69,3.07-5.67,3.72"/><ellipse class="cls-8" cx="93.65" cy="71.82" rx="11.76" ry="12.23"/><ellipse cx="93.55" cy="71.82" rx="5.66" ry="9.51"/><ellipse class="cls-8" cx="124.14" cy="71.82" rx="11.76" ry="12.23"/><ellipse cx="124.04" cy="71.82" rx="5.66" ry="9.51"/><path d="M102.83,90.09s2.3-4.08,4.76-5.34a13.59,13.59,0,0,1,3.47,3.81c.25.48.49,1,.78,1.4a4.78,4.78,0,0,1,.84,3.8s-.33,3.66-5.09,0c0,0-5.41,2.25-5.41-.74C102.18,93,102.18,90.82,102.83,90.09Z"/><ellipse class="cls-9" cx="74.49" cy="89.04" rx="4.36" ry="4.53"/><ellipse class="cls-9" cx="138.94" cy="90.85" rx="4.36" ry="4.53"/><path class="cls-10" d="M82.15,108.47a.55.55,0,0,1-.32-.91c1-1.18,2.92-3.42,3.46-3.56A2.54,2.54,0,0,1,87,108a.7.7,0,0,1-.45.28A15.67,15.67,0,0,1,82.15,108.47Z"/><ellipse class="cls-11" cx="77.53" cy="108.98" rx="2.7" ry="3.94" transform="translate(-52.43 140.57) rotate(-68.23)"/><path class="cls-10" d="M73.16,106.1a.52.52,0,0,1-.58.74c-1.49-.29-4.32-.88-4.71-1.3s-.27-3.83,2.43-3.55a.74.74,0,0,1,.46.26A16.82,16.82,0,0,1,73.16,106.1Z"/><path class="cls-10" d="M76.5,105.06a.5.5,0,0,1-.92,0c-.71-1.39-2-4-2-4.63.09-.77,2.7-2.61,4.18-.25a.73.73,0,0,1,.09.54A16.89,16.89,0,0,1,76.5,105.06Z"/><path class="cls-10" d="M80,105.87a.52.52,0,0,1-.75-.57c.22-1.56.66-4.52,1.05-5a2.42,2.42,0,0,1,3.51,2.37.72.72,0,0,1-.22.49A16.34,16.34,0,0,1,80,105.87Z"/><path class="cls-10" d="M81.61,112.14a.54.54,0,0,1,.25-.93c1.47-.34,4.29-1,4.81-.74.69.29,1.71,3.4-.87,4.26a.67.67,0,0,1-.52,0A15.9,15.9,0,0,1,81.61,112.14Z"/><path class="cls-10" d="M132.76,107.41a.5.5,0,0,1-.9-.21c-.41-1.52-1.13-4.42-1-5a2.39,2.39,0,0,1,4.14.71.78.78,0,0,1,0,.54A16.7,16.7,0,0,1,132.76,107.41Z"/><ellipse class="cls-11" cx="130.62" cy="111.7" rx="3.98" ry="2.68" transform="translate(-41.23 109.12) rotate(-39.67)"/><path class="cls-10" d="M125.9,113.91a.54.54,0,0,1,.28.92c-1.05,1.13-3.09,3.26-3.64,3.37a2.55,2.55,0,0,1-1.51-4.07.68.68,0,0,1,.46-.25A15.26,15.26,0,0,1,125.9,113.91Z"/><path class="cls-10" d="M126.92,110.44a.53.53,0,0,1-.52.8c-1.51-.15-4.37-.48-4.8-.86s-.6-3.78,2.11-3.76a.68.68,0,0,1,.48.21A16.86,16.86,0,0,1,126.92,110.44Z"/><path class="cls-10" d="M129.47,107.89a.51.51,0,0,1-.87.33c-1.13-1-3.26-3.07-3.39-3.64-.18-.75,1.66-3.42,3.84-1.74a.74.74,0,0,1,.26.47A17.38,17.38,0,0,1,129.47,107.89Z"/><path class="cls-10" d="M135.41,109.91a.53.53,0,0,1-.61-.72c.54-1.48,1.6-4.27,2.06-4.6a2.48,2.48,0,0,1,2.94,3.12.8.8,0,0,1-.33.42A15.49,15.49,0,0,1,135.41,109.91Z"/><path class="cls-2" d="M105.07,30.92s-3.15,33.2-56.72,26.41l-9.14-8.61s71.42-77,128.91,0l-8.22,3.71S128.24,65.68,105.07,30.92Z"/><rect class="cls-1" x="101.05" y="131.18" width="14.81" height="5.44" rx="2.7"/><rect class="cls-1" x="101.05" y="138.43" width="14.81" height="5.44" rx="2.7"/><rect class="cls-1" x="101.05" y="145.67" width="14.81" height="5.44" rx="2.7"/><path class="cls-1" d="M56.38,176.55s.69,14.88,6.78,14.88,7.27-3.62,7.27-3.62-2.91-9.06-4.22-10.42S60.05,172.54,56.38,176.55Z"/><path class="cls-1" d="M65.78,200.5s2.78,8.4,5.74,11.9,10.81-9.19,10.81-9.19-4.55-9.52-7-8.15C75.36,195.06,71,196,65.78,200.5Z"/><path class="cls-1" d="M72.54,194.92l-6.13,3.68a2.56,2.56,0,0,1-3.57-1h0a2.78,2.78,0,0,1,.95-3.71l6.13-3.69a2.57,2.57,0,0,1,3.57,1h0A2.79,2.79,0,0,1,72.54,194.92Z"/><path class="cls-1" d="M99.31,136.61s-13.94,3.63-20.9,10l8.49,1.81s6.31-5.43,12.41-4.53C99.31,143.86,101.92,138.43,99.31,136.61Z"/><path class="cls-12" d="M76.26,145.67s29.15,10.88,63.12,3.63c0,0,19.16,9.06,20.9,26.28,0,0-2.61,5.43-13.93,1.81,0,0-4.36,3.62-9.58-.91,0,0-1.69,5.47-10.43,2.28,0,0-3.51,3.16-9.61.44,0,0-2.64-.51-3.93,1.11,0,0-4.2,3.07-12.33-2.65,0,0-1.16-3-6.39-.27,0,0-7,3.62-13.06-.91,0,0-4.36,0-7-2.72a35.3,35.3,0,0,1-7.84,3.63,5.29,5.29,0,0,1-3.48-1.81s-9.58,2.72-8.71-.91S64.53,154.74,76.26,145.67Z"/><path class="cls-1" d="M116.58,136.61s23.67,10,22.8,12.69l-5.31,1.13s-5.83-5.43-16.37-6.91C117.7,143.52,115.55,139.33,116.58,136.61Z"/><path class="cls-13" d="M79.28,159.27s-5.23,6.34-4.36,9.06c0,0,4.36-5.44,4.36-9.06"/><path class="cls-13" d="M89.84,168.33c.76,1.81,4.24-3.63,3.37-4.53C93.21,163.8,89.08,166.52,89.84,168.33Z"/><path class="cls-13" d="M105.41,162s-.87,10.74,3,12.62C108.46,174.61,106.28,162,105.41,162Z"/><path class="cls-13" d="M122,157.45s-1.74,12.69,4.35,16.31C126.31,173.76,124.57,158.36,122,157.45Z"/><path class="cls-13" d="M143.24,165.61s.49,4.53,3.11,4.53S143.24,165.61,143.24,165.61Z"/><path class="cls-4" d="M41.27,356.68S56.63,318.75,54,316c0,0,7-3.19-8.28,41Z"/><path class="cls-4" d="M66.22,350.6s7.83-28.23,9.57-30-5.17,29-5.17,29Z"/><path class="cls-4" d="M104.54,302.44s0,9.06,2.61,12.68,1.74,9.06,1.74,9.06-.87,6.35,2.61,10,2.65,11.69,2.65,11.69l4.6-.78s-2-10.91-3.76-13.63c0,0-.87-1.81,0-2.72,0,0,.87-8.15-.87-10.87S103.67,303.34,104.54,302.44Z"/><path class="cls-4" d="M156.19,343.1s-8.1-21.63-7.23-25.26,12.19,24.47,12.19,24.47Z"/><path class="cls-4" d="M178.57,307s14.53,33.49,12.06,35.77l2.47-2.28S186.41,307.87,178.57,307Z"/><path class="cls-14" d="M58.81,51.89s21.77-19,34-19C92.78,32.86,65.78,51.89,58.81,51.89Z"/><path class="cls-14" d="M114.78,32.44s27.05,9.11,33.52,19.87C148.3,52.31,118.47,38.59,114.78,32.44Z"/><path class="cls-14" d="M47.05,53.25s19-26.8,40.41-29.71C87.46,23.54,61,22.44,47.05,53.25Z"/><path class="cls-14" d="M115.12,26.32s31.87,3,45.38,20.53C160.5,46.85,147.67,22.73,115.12,26.32Z"/><path class="cls-14" d="M42.28,67.35s-2.35,41.57,29.8,69.92C72.08,137.27,44.76,93.75,42.28,67.35Z"/><path class="cls-14" d="M131,137.27s34-22,37.69-65.67C168.66,71.6,150.27,119.93,131,137.27Z"/><path class="cls-14" d="M67.94,110.47s7.15,19.31,17.88,28.27C85.82,138.74,73.09,113.08,67.94,110.47Z"/><path class="cls-14" d="M120.39,133.94s17.41-10,24.48-22.29C144.87,111.65,122.17,128.28,120.39,133.94Z"/><path class="cls-15" d="M79.13,11.42h0c.7-1.38,3.09-.94,3.08.56h0c0,1.2,1.65,1.84,2.68,1h0c1.29-1,3.27.22,2.55,1.58h0c-.58,1.1.64,2.26,2,1.88h0c1.66-.47,2.88,1.35,1.57,2.34h0c-1,.8-.49,2.29.91,2.4h0a1.36,1.36,0,0,1,.33,2.69h0a1.31,1.31,0,0,0-.31,2.51h0c1.52.74.77,2.74-1,2.57h0c-1.39-.14-2.31,1.22-1.47,2.19h0c1,1.2-.6,2.76-2.11,2h0c-1.21-.61-2.68.31-2.38,1.49h0c.38,1.46-1.86,2.32-2.87,1.09h0a1.7,1.7,0,0,0-2.88.53h0a1.67,1.67,0,0,1-3.14,0h0a1.7,1.7,0,0,0-2.88-.53h0c-1,1.23-3.25.37-2.87-1.09h0c.3-1.18-1.18-2.1-2.39-1.49h0c-1.5.76-3.14-.8-2.1-2h0c.83-1-.08-2.33-1.47-2.19h0c-1.74.17-2.49-1.83-1-2.57h0a1.31,1.31,0,0,0-.31-2.51h0a1.36,1.36,0,0,1,.33-2.69h0c1.39-.11,2-1.6.91-2.4h0c-1.31-1-.09-2.81,1.57-2.34h0c1.33.38,2.55-.78,2-1.88h0c-.73-1.36,1.25-2.6,2.54-1.58h0c1,.81,2.7.17,2.69-1h0c0-1.5,2.38-1.94,3.08-.56h0A1.72,1.72,0,0,0,79.13,11.42Z"/><path class="cls-16" d="M78.87,13.68h0c.57-1.08,2.51-.74,2.5.44h0c0,.94,1.34,1.44,2.18.8h0c1-.79,2.66.18,2.07,1.25h0c-.47.86.52,1.78,1.6,1.48h0c1.35-.38,2.34,1.05,1.28,1.83h0c-.86.63-.4,1.8.74,1.89h0c1.41.11,1.62,1.76.26,2.11h0a1,1,0,0,0-.25,2h0c1.24.59.62,2.16-.79,2h0c-1.13-.11-1.87,1-1.19,1.72h0c.84.95-.49,2.18-1.71,1.58h0c-1-.48-2.18.24-1.93,1.16h0c.3,1.15-1.51,1.83-2.34.87h0a1.4,1.4,0,0,0-2.34.41h0a1.37,1.37,0,0,1-2.55,0h0a1.4,1.4,0,0,0-2.34-.41h0c-.82,1-2.64.28-2.33-.87h0c.25-.92-1-1.64-1.93-1.16h0c-1.23.6-2.56-.63-1.71-1.58h0c.68-.76-.07-1.83-1.2-1.72h0c-1.41.14-2-1.43-.79-2h0a1,1,0,0,0-.25-2h0c-1.35-.35-1.14-2,.27-2.11h0c1.13-.09,1.59-1.26.74-1.89h0c-1.06-.78-.07-2.21,1.28-1.83h0c1.08.3,2.07-.62,1.6-1.48h0c-.59-1.07,1-2,2.06-1.25h0c.84.64,2.2.14,2.19-.8h0c0-1.18,1.93-1.52,2.49-.44h0A1.43,1.43,0,0,0,78.87,13.68Z"/><path class="cls-15" d="M78.9,16.69h0c.92-1,3-.49,3,.73h0c0,.86,1.1,1.48,2.18,1.19h0c1.53-.41,2.83.93,1.84,1.9h0c-.7.69-.27,1.68.83,1.93h0c1.57.34,1.57,2,0,2.35h0c-1.1.25-1.53,1.24-.83,1.93h0c1,1-.31,2.31-1.84,1.9h0c-1.08-.29-2.21.33-2.18,1.19h0c.05,1.22-2.06,1.74-3,.73h0a2,2,0,0,0-2.69,0h0c-.92,1-3,.49-3-.73h0c0-.86-1.1-1.48-2.18-1.19h0c-1.53.41-2.84-.93-1.84-1.9h0c.7-.69.27-1.68-.83-1.93h0c-1.57-.34-1.57-2,0-2.35h0c1.1-.25,1.53-1.24.83-1.93h0c-1-1,.31-2.31,1.84-1.9h0c1.08.29,2.21-.33,2.18-1.19h0c0-1.22,2.06-1.74,3-.73h0A2,2,0,0,0,78.9,16.69Z"/><path class="cls-16" d="M78.54,18.3h0c.61-.76,2-.37,2,.55h0a1.08,1.08,0,0,0,1.46.9h0c1-.31,1.89.7,1.23,1.44h0a.88.88,0,0,0,.56,1.45h0a.9.9,0,0,1,0,1.78h0a.88.88,0,0,0-.56,1.45h0c.66.73-.21,1.75-1.23,1.44h0a1.08,1.08,0,0,0-1.46.9h0c0,.92-1.38,1.31-2,.55h0a1.2,1.2,0,0,0-1.8,0h0c-.62.76-2,.37-2-.55h0a1.07,1.07,0,0,0-1.45-.9h0c-1,.31-1.9-.71-1.23-1.44h0a.88.88,0,0,0-.56-1.45h0a.9.9,0,0,1,0-1.78h0a.88.88,0,0,0,.56-1.45h0c-.67-.74.2-1.75,1.23-1.44h0a1.07,1.07,0,0,0,1.45-.9h0c0-.92,1.38-1.31,2-.55h0A1.2,1.2,0,0,0,78.54,18.3Z"/><path class="cls-15" d="M78.36,21.15h0c1-.41,2.16.25,2,1.12h0a.93.93,0,0,0,.39.94h0c.81.61.36,1.67-.75,1.8h0a1.4,1.4,0,0,0-1,.58h0a1.55,1.55,0,0,1-2.44,0h0a1.37,1.37,0,0,0-1-.58h0c-1.12-.13-1.56-1.19-.75-1.8h0a1,1,0,0,0,.39-.94h0c-.19-.87,1-1.53,2-1.12h0A1.74,1.74,0,0,0,78.36,21.15Z"/><path class="cls-15" d="M53.87,18.67h0c.7-1.38,3.09-.94,3.08.56h0c0,1.2,1.65,1.84,2.68,1h0c1.29-1,3.27.22,2.55,1.58h0c-.58,1.1.64,2.26,2,1.88h0c1.66-.48,2.88,1.34,1.57,2.34h0c-1,.8-.49,2.29.91,2.4h0A1.36,1.36,0,0,1,67,31.15h0a1.31,1.31,0,0,0-.31,2.51h0c1.52.74.77,2.74-1,2.57h0c-1.39-.14-2.31,1.22-1.47,2.18h0c1,1.21-.6,2.77-2.11,2h0c-1.21-.61-2.68.31-2.38,1.49h0c.38,1.46-1.86,2.32-2.87,1.09h0a1.7,1.7,0,0,0-2.88.53h0a1.67,1.67,0,0,1-3.14,0h0A1.7,1.7,0,0,0,48,43h0c-1,1.23-3.25.37-2.87-1.09h0c.3-1.18-1.18-2.1-2.39-1.49h0c-1.5.76-3.14-.8-2.1-2h0c.83-1-.08-2.32-1.47-2.18h0c-1.74.17-2.49-1.83-1-2.57h0a1.31,1.31,0,0,0-.31-2.51h0a1.36,1.36,0,0,1,.33-2.69h0c1.39-.11,2-1.6.91-2.4h0c-1.31-1-.09-2.82,1.57-2.34h0c1.33.38,2.55-.78,2-1.88h0c-.73-1.36,1.25-2.6,2.54-1.58h0c1,.81,2.7.17,2.69-1h0c0-1.5,2.38-1.94,3.08-.56h0A1.72,1.72,0,0,0,53.87,18.67Z"/><path class="cls-16" d="M53.61,20.93h0c.57-1.09,2.51-.74,2.5.44h0c0,.94,1.34,1.44,2.18.8h0c1.05-.79,2.66.18,2.07,1.25h0c-.47.86.52,1.78,1.6,1.48h0c1.35-.38,2.34,1.05,1.28,1.83h0c-.86.63-.4,1.8.73,1.89h0c1.42.11,1.63,1.76.27,2.11h0a1,1,0,0,0-.25,2h0c1.24.58.62,2.15-.79,2h0c-1.13-.11-1.87,1-1.19,1.72h0c.84,1-.49,2.17-1.71,1.58h0c-1-.48-2.18.24-1.93,1.16h0c.3,1.15-1.51,1.83-2.34.87h0a1.4,1.4,0,0,0-2.34.41h0a1.37,1.37,0,0,1-2.55,0h0a1.4,1.4,0,0,0-2.34-.41h0c-.82,1-2.64.28-2.33-.87h0c.25-.92-.95-1.64-1.93-1.16h0c-1.23.59-2.56-.63-1.71-1.58h0c.68-.76-.07-1.83-1.2-1.72h0c-1.41.13-2-1.44-.79-2h0a1,1,0,0,0-.25-2h0c-1.35-.35-1.14-2,.27-2.11h0c1.13-.09,1.59-1.26.74-1.89h0c-1.06-.78-.07-2.21,1.28-1.83h0c1.08.3,2.07-.62,1.6-1.48h0c-.59-1.07,1-2,2.06-1.25h0c.84.64,2.19.14,2.18-.8h0c0-1.18,1.94-1.53,2.5-.44h0A1.43,1.43,0,0,0,53.61,20.93Z"/><path class="cls-15" d="M53.64,23.94h0c.92-1,3-.49,3,.73h0c0,.86,1.1,1.48,2.18,1.19h0c1.53-.41,2.83.93,1.84,1.9h0c-.7.69-.27,1.68.83,1.93h0c1.56.34,1.56,2,0,2.35h0c-1.1.24-1.53,1.24-.83,1.93h0c1,1-.31,2.31-1.84,1.9h0c-1.08-.29-2.21.33-2.18,1.19h0c.05,1.22-2.06,1.74-3,.73h0a2,2,0,0,0-2.69,0h0c-.92,1-3,.49-3-.73h0c0-.86-1.1-1.48-2.18-1.19h0C44.25,36.28,43,34.94,44,34h0c.7-.69.27-1.69-.83-1.93h0c-1.57-.34-1.57-2,0-2.35h0c1.1-.25,1.53-1.24.83-1.93h0c-1-1,.3-2.31,1.84-1.9h0c1.08.29,2.21-.33,2.18-1.19h0c0-1.22,2.06-1.74,3-.73h0A2,2,0,0,0,53.64,23.94Z"/><path class="cls-16" d="M53.28,25.55h0c.61-.76,2-.37,2,.55h0a1.07,1.07,0,0,0,1.46.9h0c1-.31,1.89.7,1.23,1.44h0a.88.88,0,0,0,.56,1.45h0a.9.9,0,0,1,0,1.78h0A.88.88,0,0,0,58,33.12h0c.66.73-.21,1.75-1.23,1.44h0a1.07,1.07,0,0,0-1.46.9h0c0,.92-1.38,1.31-2,.54h0a1.22,1.22,0,0,0-1.8,0h0c-.62.77-2,.38-2-.54h0a1.07,1.07,0,0,0-1.45-.9h0c-1,.31-1.9-.71-1.23-1.44h0a.88.88,0,0,0-.56-1.45h0a.9.9,0,0,1,0-1.78h0a.88.88,0,0,0,.56-1.45h0C46.13,27.7,47,26.69,48,27h0a1.07,1.07,0,0,0,1.45-.9h0c0-.92,1.38-1.31,2-.55h0A1.2,1.2,0,0,0,53.28,25.55Z"/><path class="cls-15" d="M53.1,28.4h0c1-.41,2.16.25,2,1.12h0a.91.91,0,0,0,.39.93h0c.81.62.36,1.68-.75,1.81h0a1.4,1.4,0,0,0-1,.58h0a1.55,1.55,0,0,1-2.44,0h0a1.37,1.37,0,0,0-1-.58h0c-1.12-.13-1.56-1.19-.75-1.81h0a.92.92,0,0,0,.39-.93h0c-.19-.87,1-1.53,2-1.12h0A1.74,1.74,0,0,0,53.1,28.4Z"/><path class="cls-15" d="M106.13,8.7h0c.7-1.38,3.09-.94,3.08.56h0c0,1.21,1.65,1.84,2.69,1h0c1.29-1,3.27.22,2.54,1.59h0c-.58,1.09.64,2.26,2,1.87h0c1.66-.47,2.88,1.35,1.57,2.34h0c-1,.8-.48,2.29.91,2.4h0a1.36,1.36,0,0,1,.33,2.69h0a1.31,1.31,0,0,0-.31,2.51h0c1.52.74.77,2.74-1,2.57h0c-1.39-.14-2.3,1.22-1.47,2.19h0c1,1.2-.6,2.76-2.1,2h0c-1.21-.61-2.69.31-2.39,1.49h0c.38,1.46-1.85,2.32-2.87,1.1h0a1.7,1.7,0,0,0-2.88.52h0a1.67,1.67,0,0,1-3.14,0h0a1.7,1.7,0,0,0-2.88-.52h0c-1,1.22-3.25.36-2.87-1.1h0c.3-1.18-1.17-2.1-2.38-1.49h0c-1.51.76-3.15-.8-2.11-2h0c.84-1-.08-2.33-1.47-2.19h0c-1.74.17-2.49-1.83-1-2.57h0a1.31,1.31,0,0,0-.31-2.51h0a1.36,1.36,0,0,1,.33-2.69h0c1.4-.11,2-1.6.91-2.4h0c-1.31-1-.09-2.81,1.57-2.34h0c1.33.39,2.55-.78,2-1.87h0c-.72-1.37,1.26-2.6,2.55-1.59h0c1,.81,2.7.18,2.68-1h0c0-1.5,2.38-1.94,3.08-.56h0A1.72,1.72,0,0,0,106.13,8.7Z"/><path class="cls-16" d="M105.88,11h0c.56-1.08,2.51-.74,2.49.44h0c0,.95,1.35,1.45,2.19.81h0c1-.8,2.65.17,2.06,1.24h0c-.47.86.52,1.78,1.6,1.48h0c1.35-.38,2.34,1.05,1.28,1.84h0c-.85.62-.4,1.79.74,1.88h0c1.41.12,1.62,1.76.26,2.11h0a1,1,0,0,0-.25,2h0c1.24.58.63,2.15-.78,2h0c-1.14-.1-1.88,1-1.2,1.72h0c.84,1-.49,2.18-1.71,1.58h0c-1-.48-2.18.24-1.93,1.17h0c.31,1.15-1.51,1.82-2.34.86h0a1.39,1.39,0,0,0-2.33.41h0a1.38,1.38,0,0,1-2.56,0h0a1.39,1.39,0,0,0-2.33-.41h0c-.83,1-2.64.29-2.34-.86h0c.25-.93-1-1.65-1.93-1.17h0c-1.22.6-2.55-.63-1.71-1.58h0c.68-.76-.06-1.82-1.19-1.72h0c-1.42.14-2-1.43-.79-2h0a1,1,0,0,0-.25-2h0c-1.36-.35-1.15-2,.26-2.11h0c1.14-.09,1.59-1.26.74-1.88h0c-1.06-.79-.07-2.22,1.28-1.84h0c1.08.3,2.07-.62,1.6-1.48h0c-.59-1.07,1-2,2.06-1.24h0c.84.64,2.2.14,2.19-.81h0c0-1.18,1.93-1.52,2.5-.44h0A1.42,1.42,0,0,0,105.88,11Z"/><path class="cls-15" d="M105.9,14h0c.92-1,3-.49,3,.73h0c0,.86,1.1,1.48,2.18,1.19h0c1.54-.41,2.84.94,1.84,1.91h0c-.7.68-.27,1.68.84,1.92h0c1.56.35,1.56,2,0,2.35h0c-1.11.25-1.54,1.25-.84,1.93h0c1,1-.3,2.31-1.84,1.9h0c-1.08-.29-2.21.33-2.18,1.19h0c.05,1.23-2.06,1.74-3,.73h0a2,2,0,0,0-2.69,0h0c-.92,1-3,.5-3-.73h0c0-.86-1.1-1.48-2.18-1.19h0c-1.53.41-2.83-.93-1.84-1.9h0c.7-.68.27-1.68-.83-1.93h0c-1.56-.34-1.56-2,0-2.35h0c1.1-.24,1.53-1.24.83-1.92h0c-1-1,.31-2.32,1.84-1.91h0c1.08.29,2.21-.33,2.18-1.19h0c0-1.22,2.06-1.74,3-.73h0A2,2,0,0,0,105.9,14Z"/><path class="cls-16" d="M105.54,15.58h0c.62-.76,2-.37,2,.55h0A1.08,1.08,0,0,0,109,17h0c1-.31,1.9.71,1.23,1.44h0a.88.88,0,0,0,.56,1.45h0a.9.9,0,0,1,0,1.78h0a.88.88,0,0,0-.56,1.45h0c.67.73-.2,1.75-1.23,1.44h0a1.08,1.08,0,0,0-1.46.9h0c0,.92-1.37,1.31-2,.55h0a1.2,1.2,0,0,0-1.8,0h0c-.62.76-2,.37-2-.55h0a1.08,1.08,0,0,0-1.46-.9h0c-1,.31-1.9-.71-1.23-1.44h0a.88.88,0,0,0-.56-1.45h0a.9.9,0,0,1,0-1.78h0a.88.88,0,0,0,.56-1.45h0c-.67-.73.2-1.75,1.23-1.44h0a1.08,1.08,0,0,0,1.46-.9h0c0-.92,1.37-1.31,2-.55h0A1.2,1.2,0,0,0,105.54,15.58Z"/><path class="cls-15" d="M105.36,18.43h0c1-.4,2.16.25,2,1.12h0a1,1,0,0,0,.39.94h0c.81.61.37,1.68-.75,1.8h0a1.37,1.37,0,0,0-1,.58h0a1.55,1.55,0,0,1-2.44,0h0a1.41,1.41,0,0,0-1-.58h0c-1.11-.12-1.56-1.19-.75-1.8h0a1,1,0,0,0,.39-.94h0c-.19-.87,1-1.52,2-1.12h0A1.65,1.65,0,0,0,105.36,18.43Z"/><path class="cls-15" d="M132.26,13.23h0c.7-1.38,3.09-.94,3.08.56h0c0,1.21,1.65,1.84,2.69,1h0c1.29-1,3.27.22,2.54,1.59h0c-.58,1.09.64,2.26,2,1.87h0c1.66-.47,2.88,1.35,1.57,2.34h0c-1.05.8-.48,2.29.91,2.4h0a1.36,1.36,0,0,1,.33,2.69h0a1.31,1.31,0,0,0-.31,2.51h0c1.53.74.77,2.74-1,2.57h0c-1.39-.14-2.3,1.22-1.47,2.19h0c1,1.2-.6,2.77-2.1,2h0c-1.21-.61-2.69.31-2.38,1.49h0c.37,1.46-1.86,2.32-2.88,1.1h0a1.7,1.7,0,0,0-2.88.52h0a1.67,1.67,0,0,1-3.14,0h0a1.7,1.7,0,0,0-2.88-.52h0c-1,1.22-3.25.36-2.87-1.1h0c.3-1.18-1.17-2.1-2.38-1.49h0c-1.51.77-3.15-.8-2.11-2h0c.84-1-.07-2.33-1.47-2.19h0c-1.73.17-2.49-1.83-1-2.57h0a1.31,1.31,0,0,0-.31-2.51h0a1.36,1.36,0,0,1,.33-2.69h0c1.4-.11,2-1.6.91-2.4h0c-1.31-1-.08-2.81,1.57-2.34h0c1.33.39,2.55-.78,2-1.87h0c-.72-1.37,1.26-2.6,2.55-1.59h0c1,.81,2.7.18,2.68-1h0c0-1.5,2.38-1.94,3.08-.56h0A1.71,1.71,0,0,0,132.26,13.23Z"/><path class="cls-16" d="M132,15.49h0c.56-1.08,2.51-.74,2.49.44h0c0,.95,1.35,1.45,2.19.81h0c1-.8,2.65.17,2.06,1.24h0c-.47.86.52,1.78,1.6,1.48h0c1.35-.38,2.34,1.05,1.28,1.84h0c-.85.62-.4,1.79.74,1.88h0c1.41.12,1.62,1.76.27,2.11h0a1,1,0,0,0-.25,2h0c1.23.58.62,2.15-.79,2h0c-1.14-.1-1.88,1-1.2,1.72h0c.85.95-.48,2.18-1.71,1.58h0c-1-.48-2.18.24-1.93,1.17h0c.31,1.15-1.51,1.82-2.33.86h0a1.4,1.4,0,0,0-2.34.41h0a1.38,1.38,0,0,1-2.56,0h0a1.39,1.39,0,0,0-2.33-.41h0c-.83,1-2.64.29-2.34-.86h0c.25-.93-1-1.65-1.93-1.17h0c-1.22.6-2.55-.63-1.71-1.58h0c.68-.76-.06-1.82-1.19-1.72h0c-1.41.14-2-1.43-.79-2h0a1,1,0,0,0-.25-2h0c-1.36-.35-1.15-2,.26-2.11h0c1.14-.09,1.6-1.26.74-1.88h0c-1.06-.79-.07-2.22,1.28-1.84h0c1.08.3,2.07-.62,1.6-1.48h0c-.59-1.07,1-2,2.07-1.24h0c.83.64,2.19.14,2.18-.81h0c0-1.18,1.93-1.52,2.5-.44h0A1.42,1.42,0,0,0,132,15.49Z"/><path class="cls-15" d="M132,18.5h0c.92-1,3-.49,3,.73h0c0,.86,1.1,1.48,2.18,1.19h0c1.54-.41,2.84.94,1.84,1.91h0c-.7.68-.26,1.68.84,1.92h0c1.56.35,1.56,2,0,2.35h0c-1.1.25-1.54,1.25-.84,1.93h0c1,1-.3,2.31-1.84,1.9h0c-1.08-.29-2.21.33-2.18,1.19h0c.05,1.23-2.06,1.74-3,.73h0a2,2,0,0,0-2.69,0h0c-.92,1-3,.5-3-.73h0c0-.86-1.1-1.48-2.18-1.19h0c-1.53.41-2.83-.93-1.84-1.9h0c.7-.68.27-1.68-.83-1.93h0c-1.56-.34-1.56-2,0-2.35h0c1.1-.24,1.53-1.24.83-1.92h0c-1-1,.31-2.32,1.84-1.91h0c1.08.29,2.21-.33,2.18-1.19h0c0-1.22,2.06-1.73,3-.73h0A2,2,0,0,0,132,18.5Z"/><path class="cls-16" d="M131.67,20.11h0c.62-.76,2-.37,2,.55h0a1.08,1.08,0,0,0,1.46.9h0c1-.31,1.9.71,1.23,1.44h0a.88.88,0,0,0,.56,1.45h0a.9.9,0,0,1,0,1.78h0a.88.88,0,0,0-.56,1.45h0c.67.73-.2,1.75-1.23,1.44h0a1.08,1.08,0,0,0-1.46.9h0c0,.92-1.37,1.31-2,.55h0a1.2,1.2,0,0,0-1.8,0h0c-.61.76-2,.37-2-.55h0a1.08,1.08,0,0,0-1.46-.9h0c-1,.31-1.89-.71-1.23-1.44h0a.88.88,0,0,0-.56-1.45h0a.9.9,0,0,1,0-1.78h0a.88.88,0,0,0,.56-1.45h0c-.66-.73.21-1.75,1.23-1.44h0a1.08,1.08,0,0,0,1.46-.9h0c0-.92,1.38-1.31,2-.55h0A1.2,1.2,0,0,0,131.67,20.11Z"/><path class="cls-15" d="M131.49,23h0c1-.4,2.16.26,2,1.12h0a1,1,0,0,0,.39.94h0c.81.61.37,1.68-.75,1.8h0a1.37,1.37,0,0,0-1,.58h0a1.55,1.55,0,0,1-2.44,0h0a1.4,1.4,0,0,0-1-.58h0c-1.11-.12-1.56-1.19-.75-1.8h0a.93.93,0,0,0,.39-.94h0c-.19-.86,1-1.52,2-1.12h0A1.65,1.65,0,0,0,131.49,23Z"/><path class="cls-15" d="M158.39,20.48h0c.7-1.38,3.1-.94,3.08.56h0c0,1.21,1.66,1.84,2.69,1h0c1.29-1,3.27.22,2.54,1.59h0c-.58,1.09.64,2.26,2,1.87h0c1.66-.47,2.88,1.35,1.57,2.34h0c-1.05.8-.48,2.29.91,2.4h0a1.36,1.36,0,0,1,.33,2.69h0a1.31,1.31,0,0,0-.3,2.51h0c1.52.74.76,2.74-1,2.57h0c-1.39-.14-2.3,1.22-1.47,2.19h0c1,1.2-.6,2.76-2.1,2h0c-1.21-.61-2.69.31-2.38,1.49h0c.38,1.46-1.86,2.32-2.88,1.1h0a1.69,1.69,0,0,0-2.87.52h0a1.68,1.68,0,0,1-3.15,0h0a1.7,1.7,0,0,0-2.88-.52h0c-1,1.22-3.25.36-2.87-1.1h0c.3-1.18-1.17-2.1-2.38-1.49h0c-1.51.76-3.14-.8-2.11-2h0c.84-1-.07-2.33-1.47-2.19h0c-1.73.17-2.49-1.83-1-2.57h0a1.31,1.31,0,0,0-.31-2.51h0a1.36,1.36,0,0,1,.33-2.69h0c1.4-.11,2-1.6.91-2.4h0c-1.31-1-.08-2.81,1.57-2.34h0c1.33.39,2.56-.78,2-1.87h0c-.72-1.37,1.26-2.6,2.55-1.59h0c1,.81,2.7.18,2.69-1h0c0-1.5,2.37-1.94,3.07-.56h0A1.72,1.72,0,0,0,158.39,20.48Z"/><path class="cls-16" d="M158.14,22.74h0c.56-1.08,2.51-.74,2.5.44h0c0,.94,1.34,1.45,2.18.81h0c1.05-.8,2.65.17,2.07,1.24h0c-.48.86.51,1.78,1.59,1.48h0c1.35-.38,2.34,1.05,1.28,1.83h0c-.85.63-.39,1.8.74,1.89h0c1.41.12,1.62,1.76.27,2.11h0a1,1,0,0,0-.25,2h0c1.23.58.62,2.15-.79,2h0c-1.13-.1-1.87,1-1.2,1.72h0c.85,1-.48,2.18-1.71,1.58h0c-1-.48-2.18.24-1.93,1.16h0c.31,1.16-1.51,1.83-2.33.87h0a1.4,1.4,0,0,0-2.34.41h0a1.37,1.37,0,0,1-2.55,0h0a1.4,1.4,0,0,0-2.34-.41h0c-.83,1-2.64.29-2.34-.87h0c.25-.92-1-1.64-1.93-1.16h0c-1.22.6-2.55-.63-1.71-1.58h0c.68-.76-.06-1.82-1.19-1.72h0c-1.41.14-2-1.43-.79-2h0a1,1,0,0,0-.25-2h0c-1.36-.35-1.15-2,.27-2.11h0c1.13-.09,1.59-1.26.73-1.89h0c-1.06-.78-.07-2.21,1.28-1.83h0c1.08.3,2.07-.62,1.6-1.48h0c-.59-1.07,1-2,2.07-1.24h0c.84.64,2.19.13,2.18-.81h0c0-1.18,1.93-1.52,2.5-.44h0A1.42,1.42,0,0,0,158.14,22.74Z"/><path class="cls-15" d="M158.17,25.75h0c.92-1,3-.49,3,.73h0c0,.86,1.1,1.48,2.18,1.19h0c1.54-.41,2.84.94,1.85,1.9h0c-.7.69-.27,1.69.83,1.93h0c1.56.35,1.56,2,0,2.35h0c-1.1.25-1.53,1.25-.83,1.93h0c1,1-.31,2.31-1.85,1.9h0c-1.08-.29-2.21.33-2.18,1.19h0c.05,1.23-2,1.74-3,.73h0a2,2,0,0,0-2.7,0h0c-.92,1-3,.5-3-.73h0c0-.86-1.1-1.48-2.18-1.19h0c-1.53.41-2.83-.93-1.84-1.9h0c.7-.68.27-1.68-.83-1.93h0c-1.56-.34-1.56-2,0-2.35h0c1.1-.24,1.53-1.24.83-1.93h0c-1-1,.31-2.31,1.84-1.9h0c1.08.29,2.21-.33,2.18-1.19h0c0-1.22,2.06-1.74,3-.73h0A2,2,0,0,0,158.17,25.75Z"/><path class="cls-16" d="M157.8,27.36h0c.62-.76,2-.37,2,.55h0a1.07,1.07,0,0,0,1.45.9h0c1-.31,1.9.71,1.23,1.44h0A.88.88,0,0,0,163,31.7h0a.9.9,0,0,1,0,1.78h0a.88.88,0,0,0-.56,1.45h0c.67.73-.2,1.75-1.23,1.44h0a1.07,1.07,0,0,0-1.45.9h0c0,.92-1.38,1.31-2,.55h0a1.2,1.2,0,0,0-1.8,0h0c-.61.76-2,.37-2-.55h0a1.07,1.07,0,0,0-1.46-.9h0c-1,.31-1.89-.71-1.23-1.44h0a.88.88,0,0,0-.56-1.45h0a.9.9,0,0,1,0-1.78h0a.88.88,0,0,0,.56-1.45h0c-.66-.73.21-1.75,1.23-1.44h0a1.07,1.07,0,0,0,1.46-.9h0c0-.92,1.38-1.31,2-.55h0A1.2,1.2,0,0,0,157.8,27.36Z"/><path class="cls-15" d="M157.62,30.21h0c1-.41,2.17.25,2,1.12h0a1,1,0,0,0,.4.94h0c.8.61.36,1.68-.76,1.8h0a1.39,1.39,0,0,0-1,.58h0a1.55,1.55,0,0,1-2.44,0h0a1.4,1.4,0,0,0-1-.58h0c-1.11-.12-1.56-1.19-.75-1.8h0a.93.93,0,0,0,.39-.94h0c-.19-.87,1-1.53,2-1.12h0A1.62,1.62,0,0,0,157.62,30.21Z"/><path class="cls-7" d="M84.45,63.87s-3.78-1.67-5.24-4.28"/><path class="cls-7" d="M83,66.61s-3.77-1.67-5.24-4.28"/><ellipse cx="107.5" cy="110.36" rx="10.5" ry="11"/></g></g></svg>