<svg xmlns="http://www.w3.org/2000/svg" xmlns:xlink="http://www.w3.org/1999/xlink" width="1072" height="300" viewBox="0 0 1072 300"><defs><style>.cls-1{filter:url(#AI_Sombra_2);}.cls-13,.cls-2{fill:#fff;}.cls-11,.cls-3{fill:none;}.cls-11,.cls-13,.cls-3,.cls-4,.cls-5,.cls-6,.cls-7,.cls-9{stroke:#000;}.cls-11,.cls-12,.cls-13,.cls-3,.cls-4,.cls-5,.cls-6,.cls-7,.cls-9{stroke-miterlimit:10;}.cls-3{stroke-width:2px;}.cls-4{fill:#0b8414;}.cls-5{fill:#ea2199;}.cls-7{fill:#46a3e8;}.cls-8{filter:url(#AI_SombrasDeInglete_1);}.cls-9{fill:#ed146c;}.cls-10{fill:#ef56b9;}.cls-12{fill:#ee6b11;stroke:#ee6b11;stroke-width:15px;}.cls-13{stroke-width:7px;}</style><filter id="AI_Sombra_2" x="-15%" y="-15%" width="140%" height="130%" name="AI_Sombra_2"><feGaussianBlur result="blur" stdDeviation="6" in="SourceAlpha"/><feOffset result="offsetBlurredAlpha" dx="8" dy="8" in="blur"/><feMerge><feMergeNode in="offsetBlurredAlpha"/><feMergeNode in="SourceGraphic"/></feMerge></filter><filter id="AI_SombrasDeInglete_1" x="-20%" y="-20%" width="140%" height="140%" name="AI_SombrasDeInglete_1"><feGaussianBlur result="blur" stdDeviation="4" in="SourceAlpha"/><feOffset result="offsetBlur" dx="4" dy="4" in="blur"/><feSpecularLighting result="specOut" surfaceScale="5" specularExponent="10" in="blur"><fePointLight x="-5000" y="-10000" z="-20000"/></feSpecularLighting><feComposite result="specOut" operator="in" in="specOut" in2="SourceAlpha"/><feComposite result="litPaint" operator="arithmetic" k2="1" k3="1" in="SourceGraphic" in2="specOut"/><feMerge><feMergeNode in="offsetBlur"/><feMergeNode in="litPaint"/></feMerge></filter></defs><g id="Save_the_dead" data-name="Save the dead"><g id="Save_the_dead_2-3" data-name="Save the dead 2"><g class="cls-1"><path class="cls-2" d="M454.35,218.69s-57.38-19.4,3.46-71.39a39.71,39.71,0,0,1,12.62-7.37c13.1-4.6,42.53-12.86,66.67-4.59,12.46,4.26,22,15.38,25.38,29.41,2.87,11.79,3.82,27.54-4.9,41.59,0,0,49.78,10.29,9.22,30.86l1.84,28.8s-9.21,9.19-15.66-2.6c0,0-6.46,15-17.52.55,0,0-7.37,16.46-16.59,0,0,0-5.53,18.51-14.75,0,0,0-7.23,18-19.29.77,0,0-8.36,17.74-19.42,1.28V247.49S419.32,249.55,454.35,218.69Z"/><path class="cls-3" d="M454.35,218.69s-57.38-19.4,3.46-71.39a39.71,39.71,0,0,1,12.62-7.37c13.1-4.6,42.53-12.86,66.67-4.59,12.46,4.26,22,15.38,25.38,29.41,2.87,11.79,3.82,27.54-4.9,41.59,0,0,49.78,10.29,9.22,30.86l1.84,28.8s-9.21,9.19-15.66-2.6c0,0-6.46,15-17.52.55,0,0-7.37,16.46-16.59,0,0,0-5.53,18.51-14.75,0,0,0-7.23,18-19.29.77,0,0-8.36,17.74-19.42,1.28V247.49S419.32,249.55,454.35,218.69Z"/></g><path class="cls-4" d="M489.35,154.73h0c1.41-3.81,5.71-2.55,6.09,1.78h0c.27,3.05,2.71,4.92,4.71,3.62h0c2.83-1.86,5.89,2.54,4.32,6.23h0c-1.1,2.59.13,6,2.37,6.57h0c3.18.81,3.82,6.67.91,8.31h0c-2.06,1.15-2.51,4.78-.89,7h0c2.31,3.16.3,8.25-2.85,7.21h0c-2.22-.74-4.19,1.74-3.8,4.77h0c.56,4.31-3.34,6.68-5.53,3.36h0c-1.54-2.34-4.26-2-5.25.71h0c-1.41,3.81-5.71,2.55-6.09-1.77h0c-.27-3.05-2.71-4.93-4.71-3.62h0c-2.83,1.85-5.89-2.55-4.32-6.23h0c1.1-2.6-.13-6-2.37-6.58h0c-3.18-.8-3.82-6.67-.91-8.3h0c2.06-1.15,2.51-4.79.89-7h0c-2.32-3.15-.3-8.24,2.85-7.2h0c2.22.73,4.19-1.75,3.79-4.78h0c-.55-4.3,3.35-6.67,5.53-3.36h0C485.63,157.78,488.36,157.41,489.35,154.73Z"/><path class="cls-4" d="M526.22,150.61h0c1.41-3.8,5.71-2.55,6.09,1.78h0c.27,3.05,2.71,4.93,4.71,3.62h0c2.83-1.85,5.89,2.55,4.32,6.23h0c-1.1,2.6.13,6,2.37,6.58h0c3.18.8,3.82,6.67.91,8.3h0c-2.06,1.15-2.51,4.79-.89,7h0c2.31,3.16.3,8.25-2.85,7.21h0c-2.22-.73-4.19,1.75-3.8,4.78h0c.56,4.3-3.34,6.67-5.53,3.35h0c-1.53-2.33-4.26-2-5.25.72h0c-1.41,3.8-5.71,2.55-6.09-1.78h0c-.27-3-2.71-4.92-4.71-3.62h0c-2.83,1.86-5.89-2.54-4.32-6.23h0c1.1-2.6-.13-6-2.37-6.57h0c-3.18-.81-3.82-6.67-.91-8.31h0c2.06-1.15,2.51-4.79.89-7h0c-2.31-3.16-.3-8.25,2.85-7.21h0c2.22.73,4.19-1.74,3.8-4.77h0c-.56-4.31,3.34-6.68,5.53-3.36h0C522.5,153.67,525.23,153.3,526.22,150.61Z"/><path class="cls-5" d="M470.94,222.8S450.66,214.57,458,231c0,0,7.38,12.34,14.75,12.34A49.71,49.71,0,0,0,484.83,228C489.37,218.69,482,210.46,470.94,222.8Z"/><path class="cls-5" d="M553.83,214.74s-17.46-14.15-14.43,3.94c0,0,4,14.13,11.13,16.4A45.47,45.47,0,0,0,565.91,224C572.57,216.44,567.51,206.27,553.83,214.74Z"/><path class="cls-6" d="M500.84,216.3s4.28-9.93,9.87-13.78c0,0,6.59,2.86,9.69,6.73a28.76,28.76,0,0,0,2.35,2.7c1.57,1.56,3.86,4.49,3.26,7.9,0,0,.38,8.13-12.39,2.29,0,0-12.47,7.34-13.43.84C500.19,223,499.48,218.19,500.84,216.3Z"/><ellipse class="cls-6" cx="490.29" cy="178.57" rx="12.91" ry="18.51" transform="translate(-9.21 27.67) rotate(-3.2)"/><ellipse class="cls-6" cx="527.16" cy="174.45" rx="12.91" ry="18.51" transform="translate(-8.92 29.72) rotate(-3.2)"/><path class="cls-7" d="M462.76,165.86a1,1,0,0,1-1.93.32c-1.93-2.86-5.53-8.36-5.57-9.69-.05-1.75,4.84-6.84,8.68-2.07a1.74,1.74,0,0,1,.35,1.16A41.35,41.35,0,0,1,462.76,165.86Z"/><path class="cls-7" d="M453.5,177.3a1.26,1.26,0,0,1-.42,2.13c-3.08,1-9,2.77-10.09,2.34-1.49-.57-4-7.48,1.36-9.78a1.36,1.36,0,0,1,1.1,0A33,33,0,0,1,453.5,177.3Z"/><path class="cls-7" d="M456.63,169.7a1.14,1.14,0,0,1-1.47,1.45c-3-1.23-8.7-3.66-9.38-4.75-.91-1.44.72-8.67,6.26-7a1.57,1.57,0,0,1,.87.76A39.82,39.82,0,0,1,456.63,169.7Z"/><path class="cls-7" d="M546.26,166.1a1.28,1.28,0,0,1,0-2.19c2.84-1.67,8.27-4.77,9.45-4.61,1.56.22,5.29,6.4.47,9.89a1.38,1.38,0,0,1-1.08.21A31.59,31.59,0,0,1,546.26,166.1Z"/><path class="cls-7" d="M537.59,154.09a1.08,1.08,0,0,1-1.83-.8c-.39-3.55-1-10.32-.48-11.49.74-1.55,7.25-3.23,8.44,3a1.82,1.82,0,0,1-.21,1.21A37.19,37.19,0,0,1,537.59,154.09Z"/><path class="cls-7" d="M543.81,158.73a1.19,1.19,0,0,1-1-1.84c1.56-3.13,4.61-9,5.67-9.6,1.42-.77,7.57,2.16,5.22,8a1.55,1.55,0,0,1-.81.84A30.63,30.63,0,0,1,543.81,158.73Z"/><g class="cls-8"><path class="cls-9" d="M1005.18,27.46h0c2.44-7.31,10.84-5,10.78,3h0c0,6.39,5.8,9.77,9.43,5.45h0c4.52-5.38,11.46,1.18,8.92,8.43h0c-2,5.81,2.24,12,6.9,10h0c5.81-2.52,10.1,7.13,5.51,12.41h0c-3.68,4.24-1.7,12.15,3.19,12.76h0c6.1.76,7,11.85,1.15,14.25h0c-4.69,1.92-5.35,10.19-1.07,13.34h0c5.33,3.92,2.68,14.53-3.41,13.63h0c-4.89-.73-8.08,6.47-5.16,11.61h0c3.65,6.41-2.1,14.69-7.38,10.65h0c-4.23-3.24-9.41,1.64-8.34,7.88h0c1.32,7.78-6.52,12.32-10.07,5.83h0c-2.86-5.2-9.12-3.47-10.1,2.79h0c-1.22,7.81-9.8,7.81-11,0h0c-1-6.26-7.24-8-10.09-2.79h0c-3.56,6.49-11.4,2-10.07-5.83h0c1.06-6.24-4.11-11.12-8.35-7.88h0c-5.28,4-11-4.24-7.38-10.65h0c2.93-5.14-.27-12.34-5.16-11.61h0c-6.08.9-8.74-9.71-3.4-13.63h0c4.28-3.15,3.61-11.42-1.08-13.34h0c-5.85-2.4-5-13.49,1.15-14.25h0c4.9-.61,6.87-8.52,3.19-12.76h0c-4.59-5.28-.3-14.93,5.51-12.41h0c4.66,2,8.94-4.15,6.91-10h0c-2.55-7.25,4.4-13.81,8.91-8.43h0c3.63,4.32,9.47.94,9.43-5.45h0c-.05-8,8.34-10.29,10.78-3h0C996.82,33.32,1003.22,33.32,1005.18,27.46Z"/><path class="cls-10" d="M1004.28,39.44h0c2-5.74,8.8-3.91,8.76,2.34h0c0,5,4.71,7.68,7.65,4.29h0c3.67-4.23,9.31.92,7.24,6.62h0c-1.65,4.57,1.82,9.42,5.61,7.83h0c4.72-2,8.2,5.6,4.48,9.75h0c-3,3.33-1.39,9.54,2.59,10h0c5,.6,5.68,9.32.93,11.2h0c-3.81,1.51-4.35,8-.87,10.48h0c4.33,3.08,2.17,11.41-2.77,10.7h0c-4-.56-6.57,5.09-4.19,9.13h0c3,5-1.7,11.54-6,8.37h0c-3.44-2.55-7.64,1.29-6.78,6.19h0c1.08,6.11-5.29,9.67-8.18,4.58h0c-2.32-4.09-7.4-2.73-8.19,2.19h0c-1,6.13-8,6.13-9,0h0c-.79-4.92-5.87-6.28-8.19-2.19h0c-2.89,5.09-9.26,1.53-8.18-4.58h0c.86-4.9-3.34-8.74-6.78-6.19h0c-4.29,3.17-9-3.34-6-8.37h0c2.37-4-.22-9.69-4.19-9.13h0c-4.95.71-7.1-7.62-2.77-10.7h0c3.48-2.48,2.93-9-.87-10.48h0c-4.75-1.88-4-10.6.93-11.2h0c4-.48,5.58-6.69,2.59-10h0c-3.73-4.15-.24-11.74,4.48-9.75h0c3.78,1.59,7.26-3.26,5.6-7.83h0c-2.06-5.7,3.58-10.85,7.25-6.62h0c2.94,3.39,7.69.74,7.65-4.29h0c0-6.25,6.77-8.08,8.76-2.34h0C997.49,44.05,1002.69,44.05,1004.28,39.44Z"/><path class="cls-11" d="M1004.28,39.44h0c2-5.74,8.8-3.91,8.76,2.34h0c0,5,4.71,7.68,7.65,4.29h0c3.67-4.23,9.31.92,7.24,6.62h0c-1.65,4.57,1.82,9.42,5.61,7.83h0c4.72-2,8.2,5.6,4.48,9.75h0c-3,3.33-1.39,9.54,2.59,10h0c5,.6,5.68,9.32.93,11.2h0c-3.81,1.51-4.35,8-.87,10.48h0c4.33,3.08,2.17,11.41-2.77,10.7h0c-4-.56-6.57,5.09-4.19,9.13h0c3,5-1.7,11.54-6,8.37h0c-3.44-2.55-7.64,1.29-6.78,6.19h0c1.08,6.11-5.29,9.67-8.18,4.58h0c-2.32-4.09-7.4-2.73-8.19,2.19h0c-1,6.13-8,6.13-9,0h0c-.79-4.92-5.87-6.28-8.19-2.19h0c-2.89,5.09-9.26,1.53-8.18-4.58h0c.86-4.9-3.34-8.74-6.78-6.19h0c-4.29,3.17-9-3.34-6-8.37h0c2.37-4-.22-9.69-4.19-9.13h0c-4.95.71-7.1-7.62-2.77-10.7h0c3.48-2.48,2.93-9-.87-10.48h0c-4.75-1.88-4-10.6.93-11.2h0c4-.48,5.58-6.69,2.59-10h0c-3.73-4.15-.24-11.74,4.48-9.75h0c3.78,1.59,7.26-3.26,5.6-7.83h0c-2.06-5.7,3.58-10.85,7.25-6.62h0c2.94,3.39,7.69.74,7.65-4.29h0c0-6.25,6.77-8.08,8.76-2.34h0C997.49,44.05,1002.69,44.05,1004.28,39.44Z"/><path class="cls-9" d="M1004.38,55.45h0c3.22-5.35,10.6-2.63,10.44,3.86h0c-.11,4.58,3.85,7.85,7.64,6.32h0c5.38-2.18,9.94,5,6.46,10.11h0c-2.46,3.62-.94,8.92,2.91,10.22h0c5.48,1.83,5.48,10.65,0,12.49h0c-3.85,1.29-5.37,6.59-2.91,10.22h0c3.48,5.15-1.08,12.28-6.46,10.11h0c-3.79-1.54-7.75,1.74-7.64,6.31h0c.16,6.49-7.22,9.22-10.44,3.86h0a5.36,5.36,0,0,0-9.45,0h0c-3.22,5.36-10.6,2.63-10.44-3.86h0c.11-4.57-3.85-7.85-7.64-6.31h0c-5.38,2.17-9.94-5-6.46-10.11h0c2.46-3.63.94-8.93-2.91-10.22h0C962,96.61,962,87.79,967.48,86h0c3.85-1.3,5.37-6.6,2.91-10.22h0c-3.48-5.15,1.08-12.29,6.46-10.11h0c3.79,1.53,7.75-1.74,7.64-6.32h0c-.16-6.49,7.22-9.21,10.44-3.86h0A5.35,5.35,0,0,0,1004.38,55.45Z"/><path class="cls-10" d="M1003.11,64h0c2.15-4,7.08-2,7,2.92h0c-.08,3.45,2.57,5.92,5.11,4.77h0c3.59-1.65,6.64,3.74,4.31,7.63h0c-1.64,2.74-.62,6.74,2,7.71h0c3.66,1.39,3.66,8,0,9.44h0c-2.58,1-3.6,5-2,7.71h0c2.33,3.89-.72,9.28-4.31,7.64h0c-2.54-1.16-5.19,1.31-5.11,4.77h0c.1,4.9-4.83,7-7,2.91h0c-1.53-2.85-4.8-2.85-6.32,0h0c-2.16,4.05-7.09,2-7-2.91h0c.07-3.46-2.58-5.93-5.11-4.77h0c-3.6,1.64-6.65-3.75-4.32-7.64h0c1.64-2.73.63-6.74-2-7.71h0c-3.66-1.39-3.66-8,0-9.44h0c2.58-1,3.59-5,2-7.71h0c-2.33-3.89.72-9.28,4.32-7.63h0c2.53,1.15,5.18-1.32,5.11-4.77h0c-.11-4.9,4.82-7,7-2.92h0C998.31,66.84,1001.58,66.84,1003.11,64Z"/><path class="cls-11" d="M1003.11,64h0c2.15-4,7.08-2,7,2.92h0c-.08,3.45,2.57,5.92,5.11,4.77h0c3.59-1.65,6.64,3.74,4.31,7.63h0c-1.64,2.74-.62,6.74,2,7.71h0c3.66,1.39,3.66,8,0,9.44h0c-2.58,1-3.6,5-2,7.71h0c2.33,3.89-.72,9.28-4.31,7.64h0c-2.54-1.16-5.19,1.31-5.11,4.77h0c.1,4.9-4.83,7-7,2.91h0c-1.53-2.85-4.8-2.85-6.32,0h0c-2.16,4.05-7.09,2-7-2.91h0c.07-3.46-2.58-5.93-5.11-4.77h0c-3.6,1.64-6.65-3.75-4.32-7.64h0c1.64-2.73.63-6.74-2-7.71h0c-3.66-1.39-3.66-8,0-9.44h0c2.58-1,3.59-5,2-7.71h0c-2.33-3.89.72-9.28,4.32-7.63h0c2.53,1.15,5.18-1.32,5.11-4.77h0c-.11-4.9,4.82-7,7-2.92h0C998.31,66.84,1001.58,66.84,1003.11,64Z"/><path class="cls-9" d="M1002.47,79.13h0c3.5-2.17,7.58,1.33,6.92,5.92h0a6.22,6.22,0,0,0,1.37,5h0c2.83,3.26,1.27,8.92-2.64,9.59h0a4.94,4.94,0,0,0-3.6,3.07h0c-1.74,4.18-6.8,4.18-8.55,0h0a4.92,4.92,0,0,0-3.59-3.07h0c-3.91-.67-5.47-6.33-2.64-9.59h0a6.3,6.3,0,0,0,1.37-5h0c-.67-4.59,3.42-8.09,6.92-5.92h0A4.14,4.14,0,0,0,1002.47,79.13Z"/></g><g class="cls-8"><path class="cls-9" d="M68.7,24.53h0c2.45-7.3,10.84-5,10.79,3h0c0,6.39,5.8,9.78,9.42,5.46h0c4.52-5.38,11.46,1.17,8.92,8.42h0c-2,5.82,2.24,12,6.91,10h0c5.81-2.53,10.1,7.13,5.51,12.41h0c-3.68,4.23-1.71,12.14,3.19,12.75h0c6.1.77,7,11.86,1.15,14.25h0c-4.69,1.93-5.36,10.2-1.08,13.34h0c5.33,3.93,2.68,14.53-3.41,13.63h0c-4.88-.72-8.08,6.48-5.15,11.62h0c3.64,6.4-2.1,14.69-7.38,10.65h0c-4.24-3.25-9.41,1.64-8.35,7.88h0c1.33,7.78-6.51,12.31-10.07,5.83h0c-2.86-5.21-9.11-3.48-10.09,2.79h0c-1.22,7.8-9.8,7.8-11,0h0c-1-6.27-7.23-8-10.09-2.79h0c-3.56,6.48-11.4,1.95-10.07-5.83h0c1.07-6.24-4.11-11.13-8.35-7.88h0c-5.28,4-11-4.25-7.37-10.65h0c2.92-5.14-.28-12.34-5.16-11.62h0c-6.09.9-8.74-9.7-3.41-13.63h0C17.86,101,17.19,92.7,12.5,90.77h0c-5.84-2.39-4.94-13.48,1.16-14.25h0c4.89-.61,6.87-8.52,3.18-12.75h0c-4.59-5.28-.29-14.94,5.52-12.41h0c4.66,2,8.94-4.15,6.9-10h0c-2.54-7.25,4.4-13.8,8.92-8.42h0c3.62,4.32,9.47.93,9.42-5.46h0c-.05-8,8.34-10.28,10.79-3h0C60.35,30.39,66.74,30.39,68.7,24.53Z"/><path class="cls-10" d="M67.8,36.52h0c2-5.74,8.8-3.92,8.76,2.34h0c0,5,4.71,7.68,7.65,4.29h0c3.67-4.23,9.31.92,7.25,6.61h0c-1.66,4.57,1.82,9.43,5.6,7.83h0c4.72-2,8.21,5.61,4.48,9.75h0c-3,3.33-1.38,9.54,2.59,10h0c5,.6,5.68,9.32.94,11.2h0c-3.81,1.51-4.36,8-.88,10.48h0c4.33,3.08,2.18,11.42-2.77,10.71h0c-4-.57-6.56,5.09-4.19,9.12h0c3,5-1.7,11.55-6,8.37h0c-3.44-2.55-7.64,1.29-6.78,6.19h0c1.08,6.11-5.28,9.68-8.17,4.58h0c-2.32-4.09-7.4-2.73-8.2,2.19h0c-1,6.14-8,6.14-9,0h0c-.8-4.92-5.88-6.28-8.2-2.19h0c-2.89,5.1-9.25,1.53-8.18-4.58h0c.87-4.9-3.34-8.74-6.78-6.19h0c-4.28,3.18-8.95-3.34-6-8.37h0c2.38-4-.22-9.69-4.19-9.12h0c-4.94.71-7.09-7.63-2.76-10.71h0c3.47-2.47,2.93-9-.88-10.48h0c-4.75-1.88-4-10.6.94-11.2h0c4-.48,5.58-6.69,2.59-10h0c-3.73-4.14-.25-11.73,4.47-9.75h0c3.79,1.6,7.27-3.26,5.61-7.83h0c-2.06-5.69,3.57-10.84,7.24-6.61h0c3,3.39,7.69.73,7.66-4.29h0c-.05-6.26,6.77-8.08,8.75-2.34h0C61,41.12,66.21,41.12,67.8,36.52Z"/><path class="cls-11" d="M67.8,36.52h0c2-5.74,8.8-3.92,8.76,2.34h0c0,5,4.71,7.68,7.65,4.29h0c3.67-4.23,9.31.92,7.25,6.61h0c-1.66,4.57,1.82,9.43,5.6,7.83h0c4.72-2,8.21,5.61,4.48,9.75h0c-3,3.33-1.38,9.54,2.59,10h0c5,.6,5.68,9.32.94,11.2h0c-3.81,1.51-4.36,8-.88,10.48h0c4.33,3.08,2.18,11.42-2.77,10.71h0c-4-.57-6.56,5.09-4.19,9.12h0c3,5-1.7,11.55-6,8.37h0c-3.44-2.55-7.64,1.29-6.78,6.19h0c1.08,6.11-5.28,9.68-8.17,4.58h0c-2.32-4.09-7.4-2.73-8.2,2.19h0c-1,6.14-8,6.14-9,0h0c-.8-4.92-5.88-6.28-8.2-2.19h0c-2.89,5.1-9.25,1.53-8.18-4.58h0c.87-4.9-3.34-8.74-6.78-6.19h0c-4.28,3.18-8.95-3.34-6-8.37h0c2.38-4-.22-9.69-4.19-9.12h0c-4.94.71-7.09-7.63-2.76-10.71h0c3.47-2.47,2.93-9-.88-10.48h0c-4.75-1.88-4-10.6.94-11.2h0c4-.48,5.58-6.69,2.59-10h0c-3.73-4.14-.25-11.73,4.47-9.75h0c3.79,1.6,7.27-3.26,5.61-7.83h0c-2.06-5.69,3.57-10.84,7.24-6.61h0c3,3.39,7.69.73,7.66-4.29h0c-.05-6.26,6.77-8.08,8.75-2.34h0C61,41.12,66.21,41.12,67.8,36.52Z"/><path class="cls-9" d="M67.9,52.53h0c3.23-5.36,10.6-2.63,10.45,3.86h0C78.23,61,82.2,64.24,86,62.7h0c5.37-2.17,9.93,5,6.45,10.11h0C90,76.44,91.5,81.74,95.36,83h0c5.47,1.84,5.47,10.66,0,12.49h0c-3.86,1.3-5.37,6.6-2.92,10.22h0c3.48,5.15-1.08,12.29-6.45,10.11h0c-3.79-1.53-7.76,1.74-7.64,6.32h0c.15,6.49-7.22,9.22-10.45,3.86h0a5.35,5.35,0,0,0-9.44,0h0c-3.23,5.36-10.6,2.63-10.45-3.86h0c.12-4.58-3.85-7.85-7.64-6.32h0c-5.37,2.18-9.93-5-6.45-10.11h0c2.45-3.62.94-8.92-2.92-10.22h0C25.53,93.69,25.53,84.87,31,83h0c3.86-1.29,5.37-6.59,2.92-10.22h0C30.44,67.67,35,60.53,40.37,62.7h0C44.16,64.24,48.13,61,48,56.39h0c-.15-6.49,7.22-9.22,10.45-3.86h0A5.35,5.35,0,0,0,67.9,52.53Z"/><path class="cls-10" d="M66.63,61.07h0c2.16-4,7.09-2,7,2.91h0c-.07,3.46,2.58,5.93,5.11,4.77h0c3.6-1.64,6.65,3.75,4.32,7.63h0c-1.64,2.74-.63,6.74,1.95,7.72h0c3.66,1.38,3.66,8.05,0,9.43h0c-2.58,1-3.59,5-1.95,7.72h0c2.33,3.88-.72,9.27-4.32,7.63h0c-2.53-1.16-5.18,1.32-5.11,4.77h0c.11,4.9-4.82,7-7,2.92h0c-1.52-2.86-4.8-2.86-6.32,0h0c-2.15,4-7.08,2-7-2.92h0c.08-3.45-2.57-5.93-5.11-4.77h0c-3.59,1.64-6.64-3.75-4.31-7.63h0c1.64-2.74.62-6.74-2-7.72h0c-3.66-1.38-3.66-8,0-9.43h0c2.58-1,3.6-5,2-7.72h0c-2.33-3.88.72-9.27,4.31-7.63h0c2.54,1.16,5.19-1.31,5.11-4.77h0c-.1-4.9,4.83-7,7-2.91h0C61.83,63.92,65.11,63.92,66.63,61.07Z"/><path class="cls-11" d="M66.63,61.07h0c2.16-4,7.09-2,7,2.91h0c-.07,3.46,2.58,5.93,5.11,4.77h0c3.6-1.64,6.65,3.75,4.32,7.63h0c-1.64,2.74-.63,6.74,1.95,7.72h0c3.66,1.38,3.66,8.05,0,9.43h0c-2.58,1-3.59,5-1.95,7.72h0c2.33,3.88-.72,9.27-4.32,7.63h0c-2.53-1.16-5.18,1.32-5.11,4.77h0c.11,4.9-4.82,7-7,2.92h0c-1.52-2.86-4.8-2.86-6.32,0h0c-2.15,4-7.08,2-7-2.92h0c.08-3.45-2.57-5.93-5.11-4.77h0c-3.59,1.64-6.64-3.75-4.31-7.63h0c1.64-2.74.62-6.74-2-7.72h0c-3.66-1.38-3.66-8,0-9.43h0c2.58-1,3.6-5,2-7.72h0c-2.33-3.88.72-9.27,4.31-7.63h0c2.54,1.16,5.19-1.31,5.11-4.77h0c-.1-4.9,4.83-7,7-2.91h0C61.83,63.92,65.11,63.92,66.63,61.07Z"/><path class="cls-9" d="M66,76.2h0c3.5-2.17,7.59,1.33,6.92,5.92h0a6.31,6.31,0,0,0,1.37,5h0c2.83,3.25,1.27,8.92-2.64,9.58h0a4.91,4.91,0,0,0-3.59,3.08h0c-1.75,4.18-6.8,4.18-8.55,0h0a4.93,4.93,0,0,0-3.59-3.08h0C52,96,50.43,90.35,53.26,87.1h0a6.23,6.23,0,0,0,1.37-5h0C54,77.53,58.06,74,61.55,76.2h0A4.14,4.14,0,0,0,66,76.2Z"/></g><g class="cls-8"><path class="cls-12" d="M88.06,183.94c-2.53,1.14-5.62,5.63-5.45,8.91L81,193a6.9,6.9,0,0,1-1.1-2.28c-1.17-3.67-.39-8.31,1-12.26A37.19,37.19,0,0,1,77.43,171a32.36,32.36,0,0,1-.28-19.56l1.48.24c5.58,17.37,17.2,24.42,28,21.23,11.48-3.39,14.3-12.33,11.71-21.52-7.59-27.09-48.95-10.51-60.22-45.7-6.85-21.52,3.65-34.17,19.25-38.77,8.77-2.59,17-1.79,20.38.22,2.7-1.28,6.17-6.06,6.41-9.08l1.7-.12A4.32,4.32,0,0,1,106.94,60c1.06,3.87-.55,8.65-2,12.53A34.89,34.89,0,0,1,108,80.22a32.71,32.71,0,0,1,.16,17.5l-1.58-.08C101.06,80.25,91,75.6,81.16,78.5c-9.57,2.83-13.4,10-11,18,6.37,20.6,48.86,3.77,60.18,45.8,6.43,23.76-2.72,37.47-20.22,42.65C99.47,188.09,90.86,186.05,88.06,183.94Z"/><path class="cls-12" d="M203.92,153.93c-1.73,2.62-5.9,5.11-9.49,5.95a17.84,17.84,0,0,1-7,.27l-.51-1.6c3.2-3.51,4-7.31,2.66-13.18-1-4.23-2.94-8.93-6.08-15.41-1,3.84-3.48,6.83-8.41,8-5.52,1.33-10.54-.35-15.38-1.71a84.85,84.85,0,0,0,1.91,15.91c1.44,5.68,3.86,8.86,8.43,10.47l.41,1.63a17.9,17.9,0,0,1-5.9,2.86c-2.87.74-6.7.17-8.52-1.6-.6,2.4-4.36,4.94-7.11,5.68-2.07.55-5.53,1-7,.5l-.33-1.65c8.19-8.1,9.34-15,9.48-35.22a11.07,11.07,0,0,0-2.32.25c-3.42.89-7.23,3.63-6.67,9l-1.69-.24c-2.52-9.37.71-17.7,9-19.84a5.21,5.21,0,0,1,1.58-.23l.09-6.07q0-6.06.11-12.11c.21-13.35.23-19.56-1.32-25.73-2.34-9.41-6.56-12.16-12.23-11.23L136.83,67a25.67,25.67,0,0,1,8.51-3.7c3.58-.9,9-1.56,12.64.33,2.09-3.26,6.51-5,10.35-5.9a32.83,32.83,0,0,1,10.36-.84c.13.54.25,1.08.37,1.63-5.91,3.75-7.89,7.48-6.86,11.88.88,3.75,4.39,10,5.56,12.28q6.53,13.17,12.92,26.39c14.25,29.21,18.74,38.31,30.21,41.84.16.54.31,1.08.46,1.61-1,1.07-3.43,2.11-5.51,2.56A21.57,21.57,0,0,1,203.92,153.93Zm-23.61-30.61c-.82-1.87-1.76-3.71-2.74-5.72Q169,100.2,160.31,82.86q-.5,17.6-.78,35.18c0,2.13,0,4.26-.05,6.39,5.75,1.32,11.24,3.76,16,2.63A6.93,6.93,0,0,0,180.31,123.32Z"/><path class="cls-12" d="M210.76,52.16c1.94-3.13,5.85-4.95,10.45-5.87a28.4,28.4,0,0,1,8.73-.34l.31,1.65c-3,3-4.56,7-3.33,13.26,1.29,6.57,5.61,16.12,12.64,31.8Q246.34,107.81,253,123q1-14.07,2.21-28.14c1.27-14.86,2.45-31.89,1.06-39.8-.93-5.27-3.68-8.53-9.32-10.57-.15-.54-.29-1.08-.43-1.63a13.75,13.75,0,0,1,5.38-2.32c3.12-.56,6.79-.18,8.74,2.2.37-2.27,6.12-4.78,8.75-5.21s5.45-.39,6.84.23c0,.56.09,1.12.14,1.68-5.65,4.64-9.29,9.67-10.21,21.37q-2.28,28.15-4.08,56.27a60,60,0,0,0,.73,14.83c1.08,5.93,3.95,9.14,8,8.94.14.59.29,1.19.43,1.79a15.42,15.42,0,0,1-7.07,2.8c-2.44.44-8.89-.57-11.06-3.05-.84,3.22-5.58,6.17-8.6,6.77a16.4,16.4,0,0,1-7.85,0l-.33-1.64c3.08-3.35,4.6-5.52,3.43-11.43a64.67,64.67,0,0,0-4.09-12q-4.8-10.56-9.69-21.1C210.34,69.32,205,59.15,193,55.23l-.48-1.61a18,18,0,0,1,6.67-2.8C203.06,50,208,50.51,210.76,52.16Z"/><path class="cls-12" d="M339.91,71.59l1.75.12c.85,7,2,23.83-8.5,25.19-6.24.82-12.21-1.74-17.77-4.51,4.57,27.76,9.26,32.12,22.46,30.39,7.18-.93,14.23-11,15.12-22.26l1.43-.17a49.47,49.47,0,0,1,2.14,9,42.9,42.9,0,0,1-1.14,16,17.35,17.35,0,0,1,1.47,5.39,9.61,9.61,0,0,1-.34,4.25l-1.19,0c-.64-1.43-6.47-2.47-18.77-.86-12.76,1.69-16.75,2.13-22.91-.7-.83,2.49-6.1,4.79-9.49,5.32a19.31,19.31,0,0,1-7.69-.16c-.05-.55-.09-1.11-.14-1.67,9.25-8.23,8.5-13.5,3.31-47.59l-.3-2c-5.05.93-7.74,3.56-7.85,8.32l-1.67-.41c-1.32-8.26,1.63-15.51,8-18-4.47-28.6-5.86-33.83-17.1-38.5-.13-.54-.26-1.08-.38-1.63,1.74-1.12,5.79-2.27,8.8-2.73,3.88-.59,7.66-.14,10.32,2.34,2.59-3.25,9-5.2,18.5-6.48,8.16-1.09,12.39-.95,17,.67a31.66,31.66,0,0,1,6.44-3.65l1.29.18a10.78,10.78,0,0,1,.59,2.8,16.44,16.44,0,0,1-.86,6.67,50.87,50.87,0,0,1,1.74,8.22,36,36,0,0,1-1.81,15.22L341,60c-1.11-11.32-7-20.92-18-19.47-10.73,1.42-12.95,10.89-9.91,36.65,7.2,1.68,13.77,4.68,19.37,4.13C336.85,80.73,339.91,77.66,339.91,71.59Z"/><path class="cls-12" d="M428.74,121.24a20,20,0,0,1-10.1,4.4c-2.94.22-6.16,0-7.75-.74-.05-.55-.09-1.11-.14-1.67,10.3-7.69,9.84-14.83,7.37-48.72-.21-3-.43-5.9-.64-8.85-2.17-30-2.81-35.37-10.83-34.75-7.78.61-9.06,13.66-7.89,21.62l-1.07.59a25.38,25.38,0,0,1-6.57-22.44,18.23,18.23,0,0,1-2.28-7.19,15.31,15.31,0,0,1,.05-3.7l1.24-.45c.75,1.29,3.7,3.19,14,2.36q18-1.43,36-2.43c10.34-.57,13-2.84,13.58-4.22l1.28.28a14.9,14.9,0,0,1,.55,3.66,18.28,18.28,0,0,1-1.41,7.43,25,25,0,0,1,1.32,6.81,28.48,28.48,0,0,1-4.69,16.31l-1.14-.45c.09-8-2.93-20.8-10.72-20.36-8.53.49-8.31,5.86-6.43,35.92.19,2.95.37,5.9.56,8.85,2.11,33.91,2.61,41.05,13.73,47.29l.21,1.67a20,20,0,0,1-7.58,1.78A20.53,20.53,0,0,1,428.74,121.24Z"/><path class="cls-12" d="M528.07,117.87a19,19,0,0,1-11,3.72,18.51,18.51,0,0,1-7.09-1.26c0-.56.06-1.12.1-1.68,9.14-5.79,10.43-14.48,10.55-38.08C518.5,83.77,515.14,86,510,86c-6.51.08-12.48-2.65-18-5.53.69,23.93,2.24,32.74,11.67,38.26l.15,1.67a17.94,17.94,0,0,1-6.94,1.47,19.73,19.73,0,0,1-11.3-3.4,19,19,0,0,1-10.85,4,18.48,18.48,0,0,1-7.12-1.06l.05-1.68c9.78-6.58,10.07-16.61,9.21-45.39a4.08,4.08,0,0,0-1.34-.12c-5.36.19-8.56,2.5-9.2,7.38l-1.61-.6c-.39-9.19,4.09-16.26,11.79-17.19-1.06-27.75-2.11-37.62-12.95-43.39-.06-.55-.13-1.11-.19-1.66,1.6-.91,5.12-1.55,7.51-1.64,4.3-.15,9.28,1.36,11.85,3.3a21.53,21.53,0,0,1,11.89-4,19.72,19.72,0,0,1,7.48,1.19l-.1,1.68c-10.86,6.55-11.06,17-10.36,46.4,8.14,2.48,15.39,6.22,22,6.32,3.77,0,7.05-2.73,7-8.75-.27-27.94-1-38-11.7-44.07l-.15-1.68a20.71,20.71,0,0,1,7.56-1.41c4.3,0,9.23,1.63,11.75,3.63a21.63,21.63,0,0,1,12-3.64,19.79,19.79,0,0,1,7.43,1.42c0,.55-.09,1.11-.14,1.67-11.42,6.57-11.55,17.15-11.7,48.93-.17,33.14-.16,43.65,10.51,50.45,0,.56.07,1.12.1,1.68a18.1,18.1,0,0,1-7,1.27A19.81,19.81,0,0,1,528.07,117.87Z"/><path class="cls-12" d="M608.83,62.07l1.7.43c-.38,7-2.15,23.82-12.75,23.32-6.28-.28-11.69-3.84-16.67-7.53-.35,28.12,3.49,33.23,16.77,33.84,7.22.33,15.91-8.4,18.75-19.29l1.44.08a49.74,49.74,0,0,1,.53,9.26,42.91,42.91,0,0,1-3.91,15.52,17.17,17.17,0,0,1,.51,5.56,9.66,9.66,0,0,1-1.07,4.13l-1.17-.24c-.38-1.52-5.93-3.55-18.3-4.12-12.84-.55-16.83-.82-22.39-4.68-1.25,2.3-6.83,3.65-10.25,3.58a19.29,19.29,0,0,1-7.52-1.49l.15-1.67c10.52-6.49,10.7-11.82,11.54-46.28,0-.67,0-1.34,0-2-5.13,0-8.22,2.16-9.16,6.83l-1.56-.7c.14-8.36,4.3-15,11-16.33.59-28.94.13-34.34-10.08-40.89,0-.56-.07-1.12-.1-1.67,1.91-.81,6.09-1.23,9.12-1.16,3.91.1,7.55,1.2,9.73,4.11,3.11-2.75,9.71-3.56,19.31-3.16,8.2.35,12.34,1.23,16.63,3.63a32.41,32.41,0,0,1,7-2.47l1.25.41a11.11,11.11,0,0,1,.08,2.85,16.36,16.36,0,0,1-2,6.43,50.58,50.58,0,0,1,.27,8.39,36,36,0,0,1-4.43,14.67l-1.33-.58c.87-11.34-3.2-21.81-14.25-22.31C586.85,28.07,583,37,581.52,62.9c6.78,2.91,12.72,7,18.32,7.44C604.23,70.55,607.78,68.05,608.83,62.07Z"/><path class="cls-12" d="M678.67,125.51a18,18,0,0,1-10.24,2.69,24.33,24.33,0,0,1-8-2.08l.27-1.66c10.71-5.57,12.22-14.47,15.19-45.13l.3-3c3.19-33,4-43-6.6-50.87l0-1.68c1.71-.69,5.28-.86,8.3-.58,3.4.32,8.59,1.85,10.68,4.92,4-2.28,13.4-4.16,23.72-2.95,26.91,3.16,42.09,24,37,58.18-5.41,36.1-24.54,52.79-49.72,49.83C689.62,132,684.7,129.33,678.67,125.51ZM732.43,81c4-29.66-2.82-43.84-20.75-46C700.17,33.7,695.15,41.61,694,52.92q-2.38,22.22-4.76,44.42c-2.21,20.64.22,24.74,11.53,26C718.11,125.44,728.51,109.7,732.43,81Z"/><path class="cls-12" d="M811.48,86.26l1.64.65c-1.31,6.91-5.29,23.33-15.77,21.42-6.21-1.12-11.12-5.37-15.59-9.69-4.07,27.83-.92,33.41,12.21,35.77,7.13,1.29,16.94-6.2,21.2-16.62l1.42.28a48.58,48.58,0,0,1-.7,9.24A42.65,42.65,0,0,1,810,142.18a17.23,17.23,0,0,1-.24,5.58,9.61,9.61,0,0,1-1.61,4l-1.13-.39c-.17-1.56-5.43-4.31-17.66-6.52-12.7-2.27-16.63-3.06-21.65-7.63-1.55,2.12-7.28,2.72-10.66,2.19a19.24,19.24,0,0,1-7.28-2.48c.12-.54.25-1.09.37-1.63,11.31-5,12.2-10.29,17.6-44.34.11-.66.21-1.33.32-2-5.11-.64-8.46,1-10,5.56l-1.47-.9c1.25-8.27,6.26-14.29,13.08-14.74,4.41-28.6,4.67-34-4.62-41.86,0-.56.09-1.12.13-1.67,2-.55,6.21-.41,9.21.06,3.88.62,7.35,2.2,9.14,5.37,3.45-2.31,10.12-2.24,19.61-.57C811.21,41.61,815.2,43,819.16,46a32,32,0,0,1,7.25-1.52l1.19.57a11.05,11.05,0,0,1-.29,2.84,16.34,16.34,0,0,1-2.85,6.1,49.24,49.24,0,0,1-.84,8.36,35.68,35.68,0,0,1-6.35,13.94L816,75.54c2.37-11.13-.3-22.05-11.22-24-10.68-1.89-15.68,6.45-20.59,31.92,6.35,3.79,11.72,8.64,17.23,9.82C805.78,94,809.64,92,811.48,86.26Z"/><path class="cls-12" d="M878,159.76c-2.71,1.58-7.57,2-11.14,1.12a17.84,17.84,0,0,1-6.4-2.87c.08-.55.17-1.1.26-1.65,4.42-1.73,6.85-4.77,8.23-10.63,1-4.24,1.32-9.32,1.38-16.52-2.56,3-6.15,4.58-11.09,3.47-5.53-1.25-9.27-5-13-8.36a85.9,85.9,0,0,0-5.35,15.11c-1.22,5.73-.48,9.65,2.9,13.12l-.36,1.64a17.51,17.51,0,0,1-6.54-.05c-2.9-.62-6.07-2.82-6.9-5.21-1.61,1.88-6.09,2.49-8.88,1.93-2.09-.42-5.35-1.59-6.47-2.66.14-.54.29-1.08.44-1.62,10.9-3.63,15-9.27,24.07-27.36a10.69,10.69,0,0,0-2.19-.8c-3.44-.72-8.06,0-9.95,5.13l-1.4-1c1.9-9.51,8.47-15.55,16.85-13.78a5.2,5.2,0,0,1,1.52.49q1.38-2.7,2.78-5.39,2.71-5.41,5.46-10.81c6.1-11.87,8.87-17.42,10.23-23.64,2.08-9.48-.48-13.81-5.95-15.49,0-.63,0-1.25,0-1.88a25.63,25.63,0,0,1,9.25.45c3.6.79,8.79,2.63,11.16,5.92,3.32-2,8-1.6,11.89-.7a32.9,32.9,0,0,1,9.67,3.85L898,63.22c-7,.74-10.4,3.21-11.43,7.6-.88,3.75-.5,10.89-.47,13.47q0,14.7-.14,29.39c-.18,32.5-.2,42.65,8.53,50.91l-.3,1.65c-1.36.52-4,.36-6.09-.16A21.64,21.64,0,0,1,878,159.76Zm-7.57-37.91c.09-2,.07-4.11.08-6.34q.09-19.38,0-38.79-8.25,15.56-16.3,31.17l-2.87,5.71c4.55,3.74,8.37,8.36,13.11,9.44A7,7,0,0,0,870.38,121.85Z"/><path class="cls-12" d="M916.24,169.62a18.3,18.3,0,0,1-10.61,1,25,25,0,0,1-7.6-3.37l.54-1.59c11.55-3.74,14.49-12.28,22.42-42,.25-1,.51-1.94.77-2.91,8.53-32,10.92-41.79,1.7-51.28l.3-1.65c1.81-.4,5.38,0,8.34.8,3.32.87,8.23,3.23,9.82,6.61,4.37-1.58,14-1.9,24.06,1,26.24,7.57,38,30.62,27.34,63.55-11.23,34.73-33,48-57.54,40.94C926.07,177.86,921.62,174.39,916.24,169.62Zm60.68-35.05c8.83-28.6,4.29-43.72-13.19-48.78-11.23-3.23-17.5,3.75-20.53,14.71l-11.94,43.05c-5.53,20-3.79,24.45,7.25,27.61C955.47,176.06,968.37,162.25,976.92,134.57Z"/></g><path class="cls-13" d="M89.42,185c-2.52,1.14-5.6,5.63-5.41,8.92l-1.58.15a6.9,6.9,0,0,1-1.1-2.28c-1.19-3.66-.42-8.3,1-12.26A37.14,37.14,0,0,1,78.77,172a32.36,32.36,0,0,1-.35-19.55l1.48.23c5.62,17.36,17.24,24.39,28,21.17,11.44-3.41,14.23-12.35,11.61-21.53-7.65-27.07-48.87-10.41-60.24-45.58C52.33,85.27,62.77,72.6,78.33,68c8.75-2.61,17-1.83,20.35.17,2.69-1.29,6.14-6.07,6.37-9.09l1.7-.12a4.42,4.42,0,0,1,1.12,2.12c1.07,3.87-.53,8.65-2,12.52A34.94,34.94,0,0,1,109,81.24a32.77,32.77,0,0,1,.21,17.5l-1.58-.08c-5.56-17.38-15.64-22-25.43-19.09-9.55,2.85-13.36,10-10.88,18,6.42,20.58,48.78,3.67,60.2,45.68,6.49,23.74-2.6,37.46-20,42.68C100.81,189.1,92.21,187.08,89.42,185Z"/><path class="cls-13" d="M204.89,154.78c-1.72,2.62-5.88,5.12-9.44,6a17.61,17.61,0,0,1-7,.28l-.51-1.6c3.18-3.51,4-7.31,2.62-13.17-1-4.24-3-8.93-6.12-15.41-.95,3.84-3.45,6.84-8.36,8-5.5,1.35-10.51-.33-15.35-1.68a86,86,0,0,0,1.95,15.91c1.46,5.67,3.88,8.85,8.44,10.45.14.54.28,1.08.41,1.62a17.62,17.62,0,0,1-5.87,2.88c-2.86.74-6.68.18-8.5-1.59-.6,2.4-4.34,4.95-7.08,5.69-2.06.55-5.51,1-7,.51l-.33-1.65c8.14-8.11,9.26-15,9.35-35.23a11.14,11.14,0,0,0-2.32.26c-3.4.89-7.2,3.64-6.62,9l-1.69-.24c-2.54-9.36.66-17.69,8.95-19.85a5.17,5.17,0,0,1,1.58-.24c0-2,0-4,.07-6.07q0-6,.07-12.11c.17-13.34.18-19.55-1.38-25.71-2.36-9.41-6.58-12.15-12.23-11.21-.28-.57-.56-1.13-.83-1.69a25.46,25.46,0,0,1,8.48-3.72c3.57-.9,9-1.57,12.62.32,2.07-3.27,6.49-5,10.31-5.92a32.56,32.56,0,0,1,10.35-.86c.12.54.25,1.08.37,1.63C174,63.16,172,66.91,173,71.3c.89,3.74,4.41,10,5.58,12.27q6.54,13.16,13,26.37c14.29,29.18,18.79,38.28,30.24,41.79.15.54.31,1.07.46,1.61-1,1.07-3.41,2.11-5.49,2.56A21.46,21.46,0,0,1,204.89,154.78Zm-23.63-30.57c-.82-1.87-1.77-3.71-2.75-5.71Q170,101.1,161.2,83.79q-.45,17.59-.69,35.17l0,6.39c5.75,1.31,11.22,3.75,15.93,2.6A6.89,6.89,0,0,0,181.26,124.21Z"/><path class="cls-13" d="M211.47,53c1.93-3.13,5.83-5,10.42-5.88a28.22,28.22,0,0,1,8.7-.35c.11.55.22,1.09.32,1.64-3,3-4.53,7-3.29,13.27,1.29,6.56,5.63,16.11,12.67,31.79q6.81,15.12,13.46,30.3,1-14.07,2.15-28.14c1.23-14.86,2.37-31.89,1-39.8-.94-5.27-3.69-8.52-9.32-10.56-.14-.54-.29-1.08-.43-1.62a13.48,13.48,0,0,1,5.36-2.33c3.12-.56,6.78-.19,8.73,2.19.37-2.27,6.1-4.79,8.72-5.22s5.45-.4,6.83.23c.05.55.09,1.11.14,1.67-5.63,4.65-9.25,9.68-10.14,21.38q-2.24,28.15-4,56.27a60.71,60.71,0,0,0,.76,14.83c1.09,5.93,4,9.14,8,8.93.14.59.29,1.19.44,1.79a15.52,15.52,0,0,1-7.05,2.81c-2.44.44-8.87-.57-11-3-.83,3.22-5.55,6.18-8.56,6.78a16.32,16.32,0,0,1-7.83,0l-.33-1.64c3.06-3.35,4.57-5.53,3.39-11.43a64.35,64.35,0,0,0-4.11-12q-4.82-10.56-9.71-21.08c-15.67-33.67-21-43.84-33-47.74l-.48-1.61c1.3-1.14,4.42-2.33,6.65-2.81C203.78,50.86,208.68,51.37,211.47,53Z"/><path class="cls-13" d="M340.37,72.3l1.75.12c.86,7,2.07,23.83-8.44,25.2-6.23.81-12.19-1.74-17.73-4.5,4.59,27.76,9.28,32.11,22.44,30.37,7.16-.94,14.18-11,15.05-22.27l1.43-.17a49.37,49.37,0,0,1,2.14,9,42.89,42.89,0,0,1-1.11,16,17.35,17.35,0,0,1,1.47,5.39,9.45,9.45,0,0,1-.33,4.25l-1.18,0c-.64-1.43-6.46-2.46-18.72-.84-12.73,1.7-16.7,2.14-22.85-.68-.83,2.48-6.08,4.8-9.46,5.32a19.21,19.21,0,0,1-7.66-.14l-.15-1.67c9.21-8.25,8.45-13.51,3.22-47.59l-.3-2c-5,.94-7.72,3.58-7.82,8.34L290.46,96c-1.34-8.25,1.59-15.51,7.93-18-4.51-28.58-5.91-33.82-17.12-38.47l-.39-1.63c1.73-1.13,5.78-2.28,8.78-2.74,3.87-.6,7.64-.15,10.31,2.33,2.57-3.25,8.93-5.21,18.45-6.5,8.13-1.1,12.36-1,17,.65A31.79,31.79,0,0,1,341.84,28l1.29.18a10.56,10.56,0,0,1,.59,2.8,16.25,16.25,0,0,1-.85,6.67,49.72,49.72,0,0,1,1.75,8.22A35.9,35.9,0,0,1,342.83,61l-1.41-.33c-1.13-11.32-7-20.91-17.94-19.46-10.71,1.44-12.91,10.91-9.83,36.66,7.18,1.68,13.74,4.67,19.33,4.11C337.33,81.44,340.39,78.37,340.37,72.3Z"/><path class="cls-13" d="M429,121.89A19.9,19.9,0,0,1,419,126.3c-2.93.22-6.14,0-7.73-.74-.05-.55-.09-1.11-.14-1.66,10.27-7.7,9.8-14.85,7.31-48.73-.22-3-.43-5.9-.65-8.85-2.19-30-2.83-35.37-10.83-34.75-7.77.62-9,13.67-7.85,21.63l-1.07.59a25.45,25.45,0,0,1-6.58-22.44,18.13,18.13,0,0,1-2.28-7.18,15.31,15.31,0,0,1,.05-3.7l1.23-.45c.75,1.28,3.7,3.18,14,2.35q18-1.44,36-2.45c10.32-.57,13-2.85,13.55-4.22l1.28.27a15,15,0,0,1,.55,3.66,18.29,18.29,0,0,1-1.41,7.44,24.85,24.85,0,0,1,1.32,6.8A28.41,28.41,0,0,1,451,50.18l-1.14-.44c.09-8-2.93-20.81-10.7-20.36-8.51.5-8.3,5.87-6.39,35.92q.27,4.42.56,8.85c2.13,33.91,2.63,41.06,13.73,47.29l.21,1.67a20.11,20.11,0,0,1-7.56,1.78A20.33,20.33,0,0,1,429,121.89Z"/><path class="cls-13" d="M528.07,118.5a19,19,0,0,1-10.93,3.73,18.44,18.44,0,0,1-7.07-1.27c0-.56.07-1.12.1-1.67,9.11-5.8,10.4-14.48,10.52-38.08-2.16,3.19-5.51,5.38-10.69,5.45-6.5.08-12.45-2.65-18-5.53.7,23.92,2.25,32.73,11.65,38.25l.15,1.67a17.82,17.82,0,0,1-6.91,1.47,19.7,19.7,0,0,1-11.27-3.39,19,19,0,0,1-10.82,4,18.48,18.48,0,0,1-7.11-1.06c0-.56,0-1.12,0-1.68,9.75-6.59,10-16.61,9.17-45.39a4.06,4.06,0,0,0-1.34-.12c-5.34.19-8.53,2.5-9.17,7.38l-1.6-.6c-.4-9.19,4.06-16.26,11.75-17.19-1.08-27.75-2.12-37.62-12.94-43.38-.06-.56-.13-1.12-.19-1.67,1.6-.91,5.1-1.55,7.5-1.64,4.28-.15,9.25,1.36,11.82,3.3a21.51,21.51,0,0,1,11.86-4,19.77,19.77,0,0,1,7.46,1.2c0,.56-.06,1.11-.1,1.67-10.83,6.56-11,17-10.32,46.41,8.13,2.48,15.36,6.21,21.92,6.32,3.76,0,7-2.73,7-8.76-.27-27.93-1-38-11.68-44.07-.05-.56-.1-1.11-.14-1.67,1.62-.86,5.14-1.4,7.54-1.42,4.29,0,9.21,1.63,11.72,3.64a21.45,21.45,0,0,1,12-3.64,19.7,19.7,0,0,1,7.42,1.41c0,.56-.09,1.11-.14,1.67-11.4,6.57-11.52,17.15-11.68,48.93-.16,33.14-.16,43.65,10.48,50.46,0,.56.06,1.11.1,1.67a17.63,17.63,0,0,1-7,1.27A19.66,19.66,0,0,1,528.07,118.5Z"/><path class="cls-13" d="M608.64,62.72l1.69.43c-.38,7-2.15,23.82-12.73,23.32-6.26-.29-11.66-3.85-16.62-7.54-.37,28.12,3.47,33.23,16.71,33.84,7.2.33,15.87-8.39,18.7-19.28l1.44.09a49.56,49.56,0,0,1,.52,9.25,43.11,43.11,0,0,1-3.9,15.52,17.16,17.16,0,0,1,.49,5.56,9.52,9.52,0,0,1-1.06,4.13l-1.16-.24c-.38-1.52-5.92-3.55-18.25-4.12-12.81-.57-16.79-.83-22.33-4.69-1.25,2.3-6.81,3.65-10.22,3.58a19.11,19.11,0,0,1-7.49-1.5c.05-.55.09-1.11.14-1.67,10.5-6.49,10.67-11.81,11.53-46.28,0-.67,0-1.34,0-2-5.12,0-8.2,2.16-9.14,6.82l-1.56-.69c.14-8.37,4.29-15,10.95-16.34.6-28.93.14-34.33-10-40.88,0-.56-.06-1.12-.1-1.68,1.91-.8,6.08-1.22,9.1-1.15,3.91.09,7.54,1.2,9.71,4.11,3.1-2.75,9.69-3.56,19.27-3.16,8.18.35,12.31,1.24,16.59,3.64a32.42,32.42,0,0,1,7-2.47l1.24.41a10.51,10.51,0,0,1,.09,2.86,16.4,16.4,0,0,1-2,6.42,50.58,50.58,0,0,1,.27,8.39A36,36,0,0,1,613,52.07l-1.33-.58c.88-11.34-3.18-21.81-14.2-22.31-10.78-.47-14.61,8.47-16.11,34.36,6.76,2.91,12.68,7,18.27,7.44C604,71.19,607.58,68.7,608.64,62.72Z"/><path class="cls-13" d="M678.23,126.19A18,18,0,0,1,668,128.88a24.38,24.38,0,0,1-8-2.09c.09-.55.18-1.11.26-1.66C671,119.56,672.53,110.66,675.53,80c.1-1,.2-2,.29-3,3.23-33,4-43-6.52-50.86,0-.56,0-1.12,0-1.68,1.71-.69,5.27-.86,8.29-.57,3.39.32,8.57,1.85,10.65,4.92,4-2.28,13.38-4.15,23.68-2.94,26.85,3.19,42,24,36.79,58.22-5.46,36.09-24.56,52.76-49.66,49.78C689.14,132.72,684.24,130,678.23,126.19Zm53.68-44.47c4.08-29.66-2.75-43.84-20.63-46-11.49-1.35-16.51,6.56-17.72,17.86L688.76,98c-2.23,20.64.19,24.73,11.47,26.05C717.56,126.14,728,110.41,731.91,81.72Z"/><path class="cls-13" d="M810.77,87.06l1.63.65c-1.31,6.92-5.32,23.32-15.77,21.4-6.19-1.12-11.09-5.38-15.53-9.7-4.12,27.83-1,33.4,12.1,35.78,7.12,1.3,16.91-6.18,21.18-16.59l1.42.28a48.68,48.68,0,0,1-.72,9.24,42.9,42.9,0,0,1-6,14.86,17,17,0,0,1-.25,5.58,9.56,9.56,0,0,1-1.61,3.94l-1.13-.39c-.17-1.56-5.41-4.32-17.6-6.54-12.66-2.28-16.58-3.08-21.57-7.65-1.55,2.12-7.26,2.71-10.64,2.18a19.37,19.37,0,0,1-7.25-2.48c.12-.55.25-1.09.37-1.64,11.29-5,12.18-10.28,17.63-44.32l.32-2c-5.09-.65-8.44,1-10,5.54l-1.46-.9C757.21,86.05,762.22,80,769,79.6c4.45-28.6,4.72-34-4.53-41.87,0-.55.08-1.11.13-1.67,2-.54,6.19-.4,9.19.08,3.87.61,7.33,2.2,9.11,5.37,3.45-2.31,10.1-2.22,19.57-.54,8.1,1.45,12.08,2.88,16,5.84a31.57,31.57,0,0,1,7.24-1.51l1.18.57a10.8,10.8,0,0,1-.3,2.84,16.23,16.23,0,0,1-2.85,6.09,50.32,50.32,0,0,1-.85,8.36,35.89,35.89,0,0,1-6.37,13.94l-1.25-.75c2.39-11.12-.25-22-11.15-24-10.65-1.91-15.65,6.43-20.6,31.89,6.33,3.8,11.67,8.66,17.17,9.84C805.07,94.84,808.93,92.85,810.77,87.06Z"/><path class="cls-13" d="M876.9,160.65c-2.71,1.57-7.55,1.95-11.12,1.1a17.78,17.78,0,0,1-6.37-2.88c.08-.55.17-1.1.26-1.65,4.42-1.72,6.85-4.75,8.24-10.62,1-4.23,1.35-9.31,1.43-16.51-2.57,3-6.15,4.57-11.08,3.45-5.51-1.26-9.24-5-13-8.38a86.26,86.26,0,0,0-5.37,15.11c-1.24,5.72-.5,9.64,2.86,13.12l-.36,1.64a17.66,17.66,0,0,1-6.53-.06c-2.88-.62-6-2.83-6.87-5.22-1.61,1.88-6.08,2.49-8.85,1.92-2.09-.43-5.34-1.59-6.46-2.67l.45-1.61c10.87-3.62,14.94-9.25,24.07-27.34a11,11,0,0,0-2.18-.8c-3.43-.73-8,0-9.94,5.11l-1.4-1c1.92-9.51,8.49-15.54,16.85-13.76a5,5,0,0,1,1.52.5q1.38-2.7,2.78-5.4,2.72-5.4,5.47-10.8c6.12-11.85,8.9-17.4,10.27-23.61,2.09-9.48-.44-13.82-5.91-15.5,0-.63,0-1.25,0-1.88a25.55,25.55,0,0,1,9.23.46c3.59.79,8.77,2.65,11.13,5.93,3.31-2,8-1.58,11.87-.67a32.43,32.43,0,0,1,9.63,3.86l-.39,1.62c-7,.73-10.39,3.19-11.43,7.58-.88,3.75-.52,10.89-.5,13.47q0,14.7-.21,29.38c-.27,32.5-.32,42.65,8.36,50.92l-.3,1.65c-1.36.51-4,.35-6.07-.17A21.57,21.57,0,0,1,876.9,160.65Zm-7.45-37.92c.1-2,.08-4.11.1-6.34q.13-19.38.06-38.79-8.28,15.54-16.35,31.15l-2.88,5.71c4.54,3.73,8.34,8.36,13.06,9.45A6.89,6.89,0,0,0,869.45,122.73Z"/><path class="cls-13" d="M915.07,170.57a18.32,18.32,0,0,1-10.59,1,24.8,24.8,0,0,1-7.57-3.39l.54-1.58c11.53-3.72,14.49-12.25,22.49-42l.78-2.91c8.6-32,11-41.77,1.84-51.27l.3-1.66c1.81-.39,5.38,0,8.32.82,3.32.88,8.21,3.25,9.78,6.63,4.38-1.58,14-1.88,24,1,26.18,7.63,37.83,30.7,27.08,63.59-11.33,34.71-33.07,47.95-57.54,40.83C924.84,178.82,920.41,175.34,915.07,170.57Zm60.64-34.93c8.91-28.58,4.43-43.71-13-48.8-11.21-3.25-17.49,3.72-20.54,14.67q-6,21.51-12,43c-5.58,20-3.86,24.43,7.14,27.62C954.17,177.07,967.09,163.29,975.71,135.64Z"/><path class="cls-2" d="M90.62,185.89c-2.51,1.14-5.56,5.64-5.37,8.92l-1.57.16a6.88,6.88,0,0,1-1.11-2.28c-1.19-3.66-.45-8.3.92-12.25A38.32,38.32,0,0,1,80,173a32.38,32.38,0,0,1-.4-19.54l1.48.23C86.69,171,98.3,178,109,174.77c11.4-3.43,14.15-12.37,11.52-21.55-7.71-27.06-48.81-10.33-60.26-45.46-7-21.49,3.42-34.18,18.95-38.83,8.73-2.63,17-1.86,20.32.14,2.68-1.3,6.11-6.09,6.33-9.1l1.69-.13A4.34,4.34,0,0,1,108.69,62c1.08,3.86-.5,8.65-1.91,12.53a34.81,34.81,0,0,1,3.08,7.64,32.74,32.74,0,0,1,.26,17.5l-1.58-.07c-5.6-17.37-15.67-22-25.44-19-9.53,2.86-13.31,10-10.81,18,6.47,20.55,48.7,3.57,60.21,45.56,6.54,23.73-2.48,37.46-19.87,42.7C102,190,93.42,188,90.62,185.89Z"/><path class="cls-2" d="M205.75,155.53c-1.71,2.62-5.85,5.12-9.41,6a17.7,17.7,0,0,1-7,.29l-.51-1.6c3.17-3.52,4-7.32,2.58-13.18-1-4.23-3-8.92-6.13-15.39-.95,3.84-3.43,6.84-8.33,8-5.48,1.35-10.49-.32-15.32-1.66a86.2,86.2,0,0,0,2,15.9c1.46,5.67,3.89,8.84,8.45,10.44.13.54.27,1.08.41,1.62a17.76,17.76,0,0,1-5.85,2.89c-2.86.74-6.67.18-8.49-1.58-.59,2.4-4.31,4.95-7,5.7-2.05.55-5.49,1-7,.52l-.33-1.65c8.1-8.13,9.2-15,9.23-35.24a11,11,0,0,0-2.31.26c-3.39.9-7.17,3.65-6.58,9l-1.69-.23c-2.56-9.36.61-17.7,8.88-19.87a5.48,5.48,0,0,1,1.57-.24l.06-6.06q0-6.06,0-12.11c.14-13.34.13-19.55-1.44-25.71-2.38-9.41-6.6-12.14-12.24-11.19-.28-.57-.55-1.13-.83-1.69A25.32,25.32,0,0,1,147,65.08c3.56-.91,9-1.58,12.6.29,2.06-3.26,6.46-5,10.28-5.93a32.43,32.43,0,0,1,10.32-.87c.13.54.26,1.08.38,1.63-5.87,3.76-7.83,7.5-6.78,11.9.89,3.74,4.42,10,5.6,12.26q6.56,13.15,13,26.35c14.33,29.16,18.83,38.25,30.26,41.75.16.53.32,1.07.47,1.61-1,1.06-3.4,2.11-5.47,2.56A21.39,21.39,0,0,1,205.75,155.53ZM182.1,125c-.82-1.87-1.77-3.71-2.75-5.71Q170.77,101.91,162,84.6q-.39,17.6-.6,35.17c0,2.13,0,4.26,0,6.39,5.74,1.3,11.21,3.73,15.91,2.58A6.87,6.87,0,0,0,182.1,125Z"/><path class="cls-2" d="M212.1,53.76c1.92-3.14,5.81-5,10.39-5.89a28.18,28.18,0,0,1,8.69-.37c.11.55.22,1.1.32,1.65-3,3-4.51,7-3.26,13.27,1.3,6.56,5.65,16.1,12.71,31.77q6.83,15.12,13.48,30.29,1-14.07,2.1-28.15c1.2-14.86,2.31-31.89.89-39.79-.94-5.27-3.69-8.53-9.32-10.55-.14-.54-.28-1.08-.43-1.62A13.52,13.52,0,0,1,253,42c3.11-.56,6.77-.19,8.72,2.18.36-2.27,6.08-4.79,8.69-5.23s5.44-.4,6.82.22l.15,1.67c-5.62,4.66-9.22,9.7-10.1,21.4q-2.18,28.14-3.86,56.27a60.87,60.87,0,0,0,.79,14.82c1.09,5.93,4,9.14,8,8.92.15.6.3,1.19.44,1.79a15.25,15.25,0,0,1-7,2.82c-2.43.44-8.85-.56-11-3-.82,3.22-5.52,6.18-8.52,6.79a16.25,16.25,0,0,1-7.81,0c-.11-.55-.23-1.09-.34-1.64,3-3.36,4.55-5.53,3.36-11.44a64.78,64.78,0,0,0-4.12-12q-4.83-10.55-9.73-21.07c-15.71-33.65-21.09-43.81-33-47.69-.16-.53-.32-1.07-.49-1.61a18.05,18.05,0,0,1,6.64-2.82C204.42,51.62,209.31,52.12,212.1,53.76Z"/><path class="cls-2" d="M340.79,72.92l1.74.12c.87,7,2.1,23.83-8.39,25.2-6.21.82-12.16-1.73-17.7-4.48,4.63,27.75,9.31,32.1,22.44,30.35,7.14-.94,14.12-11.06,15-22.28l1.43-.17a49.37,49.37,0,0,1,2.14,9,42.91,42.91,0,0,1-1.09,16,17.1,17.1,0,0,1,1.48,5.39,9.75,9.75,0,0,1-.32,4.25l-1.19,0c-.64-1.43-6.44-2.46-18.67-.83-12.69,1.71-16.66,2.15-22.79-.67-.83,2.49-6.06,4.81-9.43,5.34a19.3,19.3,0,0,1-7.64-.14l-.15-1.67c9.17-8.25,8.41-13.52,3.14-47.59-.11-.66-.21-1.33-.31-2-5,1-7.69,3.59-7.79,8.34L291,96.63c-1.34-8.25,1.57-15.51,7.89-18C294.36,50,293,44.8,281.75,40.16l-.39-1.63c1.73-1.13,5.76-2.28,8.76-2.75,3.86-.6,7.63-.15,10.29,2.33,2.57-3.26,8.91-5.22,18.41-6.52,8.12-1.11,12.34-1,17,.64a31.39,31.39,0,0,1,6.4-3.66l1.29.18a11,11,0,0,1,.59,2.8,16.41,16.41,0,0,1-.84,6.67A49.72,49.72,0,0,1,345,46.44a36,36,0,0,1-1.76,15.21l-1.41-.33c-1.14-11.31-7-20.91-17.93-19.45C313.2,43.32,311,52.79,314.12,78.54c7.17,1.67,13.73,4.66,19.3,4.1C337.76,82.07,340.81,79,340.79,72.92Z"/><path class="cls-2" d="M429.29,122.46a19.84,19.84,0,0,1-10.05,4.42c-2.92.22-6.12,0-7.71-.74l-.13-1.67c10.23-7.69,9.75-14.84,7.25-48.72q-.33-4.43-.65-8.85c-2.22-30-2.86-35.37-10.84-34.75-7.75.62-9,13.68-7.82,21.63l-1.07.6A26.24,26.24,0,0,1,391.32,39a26.2,26.2,0,0,1,.37-7.09,18.13,18.13,0,0,1-2.28-7.18,14.87,14.87,0,0,1,0-3.7l1.23-.45c.75,1.29,3.7,3.18,14,2.34q17.94-1.44,35.9-2.46c10.29-.58,12.95-2.85,13.52-4.23l1.28.28a14.9,14.9,0,0,1,.55,3.66,18.45,18.45,0,0,1-1.41,7.43,25,25,0,0,1,1.33,6.81,28.59,28.59,0,0,1-4.66,16.31L450,50.31c.08-8.05-2.94-20.81-10.7-20.36-8.49.5-8.27,5.87-6.35,35.92q.27,4.42.56,8.85c2.15,33.91,2.66,41.06,13.73,47.29l.21,1.66a19.79,19.79,0,0,1-7.53,1.79A20.33,20.33,0,0,1,429.29,122.46Z"/><path class="cls-2" d="M528.07,119.06a18.88,18.88,0,0,1-10.9,3.72,18.15,18.15,0,0,1-7-1.27c0-.55.06-1.11.1-1.67,9.09-5.79,10.37-14.48,10.49-38.08-2.16,3.19-5.5,5.39-10.67,5.45-6.48.08-12.41-2.65-17.92-5.52.71,23.92,2.26,32.73,11.64,38.25,0,.55.09,1.11.14,1.67a17.72,17.72,0,0,1-6.89,1.47,19.61,19.61,0,0,1-11.24-3.39,18.92,18.92,0,0,1-10.79,4,18.35,18.35,0,0,1-7.09-1.06c0-.56,0-1.12.05-1.68,9.72-6.59,10-16.61,9.13-45.39a4.06,4.06,0,0,0-1.34-.12c-5.33.19-8.51,2.5-9.15,7.39L465,82.26C464.58,73.07,469,66,476.71,65.07c-1.09-27.75-2.14-37.62-12.94-43.38-.06-.56-.13-1.11-.19-1.67a20.32,20.32,0,0,1,7.49-1.63c4.27-.16,9.23,1.35,11.8,3.29a21.34,21.34,0,0,1,11.84-4,19.7,19.7,0,0,1,7.44,1.19c0,.56-.06,1.12-.1,1.68-10.81,6.56-11,17-10.29,46.4,8.11,2.48,15.32,6.22,21.87,6.32,3.75,0,7-2.73,7-8.75-.28-27.94-1-38-11.66-44.07l-.15-1.68a20.58,20.58,0,0,1,7.53-1.41c4.28,0,9.19,1.62,11.7,3.63a21.48,21.48,0,0,1,12-3.64,19.88,19.88,0,0,1,7.41,1.41l-.15,1.68c-11.38,6.57-11.5,17.14-11.66,48.93-.16,33.14-.16,43.65,10.45,50.45,0,.56.07,1.12.1,1.68a17.86,17.86,0,0,1-6.93,1.27A19.74,19.74,0,0,1,528.07,119.06Z"/><path class="cls-2" d="M608.46,63.29l1.69.42c-.38,7-2.16,23.83-12.71,23.32-6.25-.29-11.63-3.85-16.59-7.55-.37,28.13,3.46,33.24,16.66,33.85,7.18.34,15.84-8.38,18.67-19.27l1.44.08a50.55,50.55,0,0,1,.51,9.26,43.16,43.16,0,0,1-3.9,15.52,17.14,17.14,0,0,1,.49,5.56,9.52,9.52,0,0,1-1.07,4.13l-1.16-.24c-.37-1.52-5.89-3.56-18.2-4.13-12.77-.57-16.73-.83-22.26-4.7-1.25,2.31-6.8,3.66-10.19,3.58a18.89,18.89,0,0,1-7.48-1.49l.15-1.67c10.46-6.49,10.64-11.81,11.5-46.28,0-.67,0-1.34,0-2-5.1,0-8.18,2.16-9.11,6.83l-1.56-.7c.14-8.36,4.28-15,10.93-16.33.6-28.94.15-34.33-10-40.89,0-.56-.07-1.11-.1-1.67,1.9-.81,6.06-1.23,9.08-1.15,3.9.09,7.52,1.2,9.69,4.11,3.1-2.75,9.68-3.56,19.23-3.15,8.17.35,12.29,1.24,16.57,3.64a32.06,32.06,0,0,1,6.93-2.47l1.24.41a11,11,0,0,1,.09,2.86,16.56,16.56,0,0,1-2,6.42,49.63,49.63,0,0,1,.26,8.39,35.94,35.94,0,0,1-4.43,14.66l-1.32-.57c.88-11.34-3.16-21.82-14.17-22.32-10.75-.47-14.58,8.46-16.08,34.36,6.74,2.91,12.65,7,18.22,7.45C603.87,71.76,607.41,69.26,608.46,63.29Z"/><path class="cls-2" d="M677.84,126.79a18,18,0,0,1-10.19,2.68,24.11,24.11,0,0,1-7.94-2.1l.27-1.65c10.67-5.57,12.19-14.47,15.22-45.11.09-1,.19-2,.29-3,3.25-33,4-43-6.46-50.87,0-.56,0-1.12,0-1.68,1.71-.68,5.27-.86,8.27-.57,3.39.33,8.56,1.86,10.64,4.94,4-2.28,13.35-4.15,23.63-2.93,26.8,3.21,41.86,24,36.64,58.24-5.5,36.09-24.58,52.74-49.61,49.75C688.72,133.32,683.84,130.61,677.84,126.79Zm53.61-44.44c4.12-29.65-2.68-43.83-20.53-46-11.47-1.36-16.48,6.54-17.7,17.85q-2.43,22.2-4.85,44.41c-2.24,20.64.17,24.73,11.42,26.06C717.07,126.76,727.47,111,731.45,82.35Z"/><path class="cls-2" d="M810.14,87.77l1.63.65c-1.33,6.91-5.36,23.31-15.79,21.38-6.17-1.13-11.05-5.39-15.47-9.72-4.16,27.82-1,33.4,12,35.8,7.09,1.3,16.88-6.17,21.16-16.57l1.42.28a49.32,49.32,0,0,1-.74,9.23,42.93,42.93,0,0,1-6,14.86,17.18,17.18,0,0,1-.25,5.57,9.56,9.56,0,0,1-1.62,3.95l-1.12-.39c-.17-1.56-5.39-4.33-17.55-6.56-12.63-2.29-16.53-3.09-21.51-7.67-1.55,2.12-7.24,2.7-10.61,2.17a19.19,19.19,0,0,1-7.23-2.49c.12-.54.25-1.09.37-1.64,11.27-5,12.17-10.26,17.67-44.3.1-.66.21-1.32.32-2-5.08-.65-8.43,1-10,5.53l-1.45-.9c1.27-8.27,6.28-14.28,13.06-14.71,4.5-28.59,4.77-34-4.45-41.87,0-.55.08-1.11.13-1.67,2-.54,6.18-.39,9.17.09,3.87.62,7.32,2.2,9.09,5.38,3.44-2.3,10.09-2.21,19.54-.52,8.08,1.46,12,2.89,16,5.85a32.51,32.51,0,0,1,7.24-1.5l1.17.57a10.77,10.77,0,0,1-.3,2.84,16.11,16.11,0,0,1-2.86,6.09,50.46,50.46,0,0,1-.86,8.36,35.92,35.92,0,0,1-6.39,13.93l-1.24-.75c2.41-11.12-.21-22.05-11.09-24C793,51.1,788,59.44,783,84.89c6.31,3.8,11.63,8.67,17.12,9.85C804.43,95.54,808.29,93.55,810.14,87.77Z"/><path class="cls-2" d="M876,161.43c-2.7,1.56-7.53,1.93-11.09,1.08a17.77,17.77,0,0,1-6.35-2.88c.09-.55.17-1.11.26-1.66,4.41-1.71,6.85-4.74,8.25-10.6,1-4.23,1.37-9.31,1.46-16.51-2.57,3-6.14,4.57-11.06,3.43-5.49-1.26-9.2-5-12.9-8.38A85.41,85.41,0,0,0,839.14,141c-1.25,5.72-.52,9.64,2.82,13.13l-.36,1.63a17.55,17.55,0,0,1-6.51-.06c-2.88-.63-6-2.84-6.84-5.23-1.61,1.88-6.07,2.48-8.84,1.91-2.08-.43-5.33-1.6-6.43-2.67.14-.54.29-1.08.44-1.62,10.86-3.61,14.92-9.23,24.08-27.3a10.65,10.65,0,0,0-2.18-.81c-3.42-.73-8,0-9.92,5.1l-1.4-1c1.94-9.5,8.5-15.52,16.84-13.73a4.88,4.88,0,0,1,1.51.5l2.79-5.39q2.73-5.4,5.49-10.79c6.12-11.85,8.91-17.4,10.29-23.61,2.11-9.47-.41-13.81-5.86-15.5,0-.63,0-1.25,0-1.88a25.29,25.29,0,0,1,9.21.48c3.59.79,8.75,2.65,11.1,5.94,3.31-2,8-1.57,11.85-.66a32.52,32.52,0,0,1,9.61,3.88c-.13.54-.26,1.08-.4,1.62-6.94.71-10.37,3.17-11.42,7.56-.89,3.75-.54,10.89-.53,13.47q-.07,14.7-.28,29.38c-.35,32.49-.43,42.63,8.22,50.92-.1.55-.21,1.1-.31,1.65-1.35.51-4,.34-6.06-.18A21.56,21.56,0,0,1,876,161.43Zm-7.34-37.93c.11-2,.09-4.1.12-6.33q.18-19.38.14-38.79Q860.6,93.91,852.5,109.5q-1.46,2.85-2.89,5.7c4.52,3.75,8.3,8.38,13,9.47A6.87,6.87,0,0,0,868.62,123.5Z"/><path class="cls-2" d="M914,171.4a18.18,18.18,0,0,1-10.57.93,24.76,24.76,0,0,1-7.54-3.39l.54-1.59c11.51-3.7,14.49-12.23,22.55-41.95l.79-2.91c8.66-32,11.11-41.74,2-51.26l.3-1.65c1.81-.39,5.37,0,8.31.83,3.31.88,8.19,3.26,9.75,6.64,4.37-1.57,14-1.85,24,1.09,26.12,7.67,37.68,30.76,26.85,63.63-11.41,34.67-33.15,47.87-57.54,40.71C923.75,179.67,919.34,176.18,914,171.4Zm60.62-34.83c9-28.55,4.55-43.69-12.84-48.81-11.18-3.27-17.47,3.69-20.54,14.63q-6.07,21.49-12.14,43c-5.62,20-3.91,24.42,7,27.62C953,178,966,164.21,974.64,136.57Z"/></g></g></svg>