<svg xmlns="http://www.w3.org/2000/svg" xmlns:xlink="http://www.w3.org/1999/xlink" width="179" height="148" viewBox="0 0 179 148"><defs><style>.cls-1{opacity:0.6;}.cls-1,.cls-4{filter:url(#AI_DesenfoqueGaussiano_4);}.cls-2{filter:url(#AI_SombrasDeInglete_1);}.cls-3{fill:#8d3b8d;}.cls-5{fill:#fff;}</style><filter id="AI_DesenfoqueGaussiano_4" name="AI_DesenfoqueGaussiano_4"><feGaussianBlur stdDeviation="4"/></filter><filter id="AI_SombrasDeInglete_1" x="-20%" y="-20%" width="140%" height="140%" name="AI_SombrasDeInglete_1"><feGaussianBlur result="blur" stdDeviation="4" in="SourceAlpha"/><feOffset result="offsetBlur" dx="4" dy="4" in="blur"/><feSpecularLighting result="specOut" surfaceScale="5" specularExponent="10" in="blur"><fePointLight x="-5000" y="-10000" z="-20000"/></feSpecularLighting><feComposite result="specOut" operator="in" in="specOut" in2="SourceAlpha"/><feComposite result="litPaint" operator="arithmetic" k2="1" k3="1" in="SourceGraphic" in2="specOut"/><feMerge><feMergeNode in="offsetBlur"/><feMergeNode in="litPaint"/></feMerge></filter></defs><g id="Animated_items" data-name="Animated items"><g class="cls-1"><path d="M57,43.51s-3.15-22.17,6.3-29.89,25.2-3,28.35,4a38.67,38.67,0,0,1,3.15,14.1l5.85-7.53s16.2-13.63,28.8-6.57,3.15,16.45,3.15,16.45l-9.45,11.76,9.45-2.35s28.36-4.7,31.51,11.75c2.22,11.61-6.53,16.2-11.88,17.9a100.54,100.54,0,0,0-10.65,3.94l-9,4h7.61A27.25,27.25,0,0,1,155,85.06c4.11,2.7,7.32,6.84,3.72,12.65A19.79,19.79,0,0,1,140,107.12c-1-.09-2.1-.13-3.16-.12l-16.67.18-.08,4.11c-.12,6.08-4.3,11.77-11.26,14.94-1.38.63-2.92,1.27-4.64,1.91-12.6,4.7-18.9-16.46-18.9-16.46l-6.3,7s-9.45,9.41-22.05,7.06c-6.45-1.21-8.77-6.72-9.5-11.81-.77-5.32,1.38-10.63,5.78-14.85l1.47-1.42H43.93S19.18,99.93,16,90.52s9.45-16.45,9.45-16.45l9.67-4.84-6.52-4.57S15,56.27,15.52,49.89s.51-8.73,6.81-13.44S57,43.51,57,43.51"/></g><g class="cls-2"><path class="cls-3" d="M55.71,42.47S52.66,21,61.82,13.5s24.43-2.93,27.49,3.9a37.59,37.59,0,0,1,3,13.68L98,23.78S113.74,10.57,126,17.4s3,16,3,16l-9.16,11.39L129,42.47s27.49-4.55,30.54,11.4c2.16,11.25-6.33,15.7-11.51,17.35A97.51,97.51,0,0,0,137.71,75l-8.7,3.9h7.37a26.47,26.47,0,0,1,14.34,3.82c4,2.61,7.09,6.63,3.6,12.27a19.15,19.15,0,0,1-18.08,9.11c-1-.08-2-.12-3.06-.11L117,104.2l-.07,4c-.12,5.9-4.17,11.42-10.92,14.49-1.34.61-2.83,1.23-4.49,1.85-12.22,4.56-18.33-16-18.33-16l-6.11,6.84s-9.16,9.11-21.38,6.83c-6.25-1.16-8.5-6.51-9.21-11.45-.74-5.15,1.35-10.3,5.61-14.39L53.53,95H43.06s-24,2.14-27-7,9.16-16,9.16-16l9.38-4.69L28.23,63S15,54.85,15.52,48.66s.49-8.47,6.6-13,33.59,6.83,33.59,6.83"/></g><g class="cls-4"><path d="M83.24,45c.27,0,.45.17.42.34L83.21,49a.48.48,0,0,1-.47.34H78.35V61.42a.39.39,0,0,1-.41.34H72.72a.42.42,0,0,1-.44-.34V49.35h-4.9A.4.4,0,0,1,67,49V45.33a.41.41,0,0,1,.41-.36Z"/><path d="M94.06,48.38c.24,0,.42.14.42.34v3.16c0,.2-.18.34-.42.34H93.3a3,3,0,0,0-2.51,1V61.4a.42.42,0,0,1-.44.36H85.16a.41.41,0,0,1-.44-.36V48.74a.42.42,0,0,1,.44-.34h3.33a.52.52,0,0,1,.47.37l.44,1.07a5.53,5.53,0,0,1,3.9-1.46Z"/><path d="M112.72,48.38c.27,0,.39.17.33.34l-5,13c-1.42,3.65-3.87,4.9-7.64,4.9a8.81,8.81,0,0,1-5-1.32.4.4,0,0,1-.15-.41l1.65-2.75c.09-.17.24-.22.36-.15a6.11,6.11,0,0,0,2.89.88,2.4,2.4,0,0,0,2.68-2h-2.42a.54.54,0,0,1-.53-.34L95.09,48.72c-.08-.17.06-.34.3-.34h5.92a.58.58,0,0,1,.56.34l2.27,7.64,2.25-7.64a.54.54,0,0,1,.53-.34Z"/><path d="M52.89,79.1a.36.36,0,0,1,.15-.47,14.52,14.52,0,0,1,6.4-1.38c5.1,0,7.46,2.21,7.46,7v6.31a.42.42,0,0,1-.45.36H62.74c-.24,0-.47-.17-.47-.36L62.06,90A8.22,8.22,0,0,1,57,91.34c-3.39,0-5.63-1.8-5.6-4.48,0-2.39,2.27-4,5.6-4,1.71,0,3.24.51,3.83,1.29v-1c0-1-.91-1.73-2.27-1.73a9,9,0,0,0-3.53.78.38.38,0,0,1-.45-.19Zm7.93,7.49A2.42,2.42,0,0,0,59.2,86c-.73,0-1.24.34-1.24.88s.51.88,1.24.88a2.42,2.42,0,0,0,1.62-.61Z"/><path d="M79.25,89.22c-.47.78-1.89,1.29-3.54,1.29-4.3,0-7.16-2.55-7.16-6.4,0-4.31,2.65-6.86,7.16-6.86,2.27,0,4.07.51,4.84,1.38l.53-.68a.91.91,0,0,1,.67-.36h3.13c.26,0,.44.14.44.36V89.73c0,3.68-4,6.14-9,6.14-2.92,0-5.51-.56-7-1.54a.34.34,0,0,1-.17-.41l1.5-3a.32.32,0,0,1,.44-.15,9.66,9.66,0,0,0,5.19,1.37c1.86,0,3-.81,3-2.19Zm0-6.33a2.08,2.08,0,0,0-2-1.09,2.11,2.11,0,0,0-2.32,2.31,2.14,2.14,0,0,0,2.32,2.34,2.08,2.08,0,0,0,2-1.1Z"/><path d="M88.48,79.1a.35.35,0,0,1,.14-.47A14.52,14.52,0,0,1,95,77.25c5.1,0,7.46,2.21,7.46,7v6.31A.42.42,0,0,1,102,91H98.32c-.23,0-.47-.17-.47-.36L97.64,90a8.2,8.2,0,0,1-5.07,1.39c-3.39,0-5.63-1.8-5.6-4.48,0-2.39,2.27-4,5.6-4,1.71,0,3.25.51,3.84,1.29v-1c0-1-.92-1.73-2.27-1.73a9.07,9.07,0,0,0-3.54.78.37.37,0,0,1-.44-.19Zm7.93,7.49A2.45,2.45,0,0,0,94.78,86c-.73,0-1.23.34-1.23.88s.5.88,1.23.88a2.45,2.45,0,0,0,1.63-.61Z"/><path d="M110.91,74.74c0,1.43-1.3,2.41-3.24,2.41s-3.25-1-3.25-2.41,1.3-2.51,3.25-2.51S110.91,73.23,110.91,74.74Zm-.62,2.85a.42.42,0,0,1,.44.34V90.61a.41.41,0,0,1-.44.36H105.1a.42.42,0,0,1-.44-.36V77.93c0-.17.21-.34.44-.34Z"/><path d="M117.43,78.61a7.83,7.83,0,0,1,4.74-1.36c4,0,6.19,1.53,6.19,5.33v8a.41.41,0,0,1-.44.36h-5.19c-.23,0-.44-.17-.41-.36V83.33a1.36,1.36,0,0,0-1.45-1.53,1.83,1.83,0,0,0-1.94,1.36v7.45a.42.42,0,0,1-.44.36H113.3a.41.41,0,0,1-.44-.36V77.93c0-.22.14-.34.41-.34h3.3a.49.49,0,0,1,.47.24Z"/></g><path class="cls-5" d="M83.24,45c.27,0,.45.17.42.34L83.21,49a.48.48,0,0,1-.47.34H78.35V61.42a.39.39,0,0,1-.41.34H72.72a.42.42,0,0,1-.44-.34V49.35h-4.9A.4.4,0,0,1,67,49V45.33a.41.41,0,0,1,.41-.36Z"/><path class="cls-5" d="M94.06,48.38c.24,0,.42.14.42.34v3.16c0,.2-.18.34-.42.34H93.3a3,3,0,0,0-2.51,1V61.4a.42.42,0,0,1-.44.36H85.16a.41.41,0,0,1-.44-.36V48.74a.42.42,0,0,1,.44-.34h3.33a.52.52,0,0,1,.47.37l.44,1.07a5.53,5.53,0,0,1,3.9-1.46Z"/><path class="cls-5" d="M112.72,48.38c.27,0,.39.17.33.34l-5,13c-1.42,3.65-3.87,4.9-7.64,4.9a8.81,8.81,0,0,1-5-1.32.4.4,0,0,1-.15-.41l1.65-2.75c.09-.17.24-.22.36-.15a6.11,6.11,0,0,0,2.89.88,2.4,2.4,0,0,0,2.68-2h-2.42a.54.54,0,0,1-.53-.34L95.09,48.72c-.08-.17.06-.34.3-.34h5.92a.58.58,0,0,1,.56.34l2.27,7.64,2.25-7.64a.54.54,0,0,1,.53-.34Z"/><path class="cls-5" d="M52.89,79.1a.36.36,0,0,1,.15-.47,14.52,14.52,0,0,1,6.4-1.38c5.1,0,7.46,2.21,7.46,7v6.31a.42.42,0,0,1-.45.36H62.74c-.24,0-.47-.17-.47-.36L62.06,90A8.22,8.22,0,0,1,57,91.34c-3.39,0-5.63-1.8-5.6-4.48,0-2.39,2.27-4,5.6-4,1.71,0,3.24.51,3.83,1.29v-1c0-1-.91-1.73-2.27-1.73a9,9,0,0,0-3.53.78.38.38,0,0,1-.45-.19Zm7.93,7.49A2.42,2.42,0,0,0,59.2,86c-.73,0-1.24.34-1.24.88s.51.88,1.24.88a2.42,2.42,0,0,0,1.62-.61Z"/><path class="cls-5" d="M79.25,89.22c-.47.78-1.89,1.29-3.54,1.29-4.3,0-7.16-2.55-7.16-6.4,0-4.31,2.65-6.86,7.16-6.86,2.27,0,4.07.51,4.84,1.38l.53-.68a.91.91,0,0,1,.67-.36h3.13c.26,0,.44.14.44.36V89.73c0,3.68-4,6.14-9,6.14-2.92,0-5.51-.56-7-1.54a.34.34,0,0,1-.17-.41l1.5-3a.32.32,0,0,1,.44-.15,9.66,9.66,0,0,0,5.19,1.37c1.86,0,3-.81,3-2.19Zm0-6.33a2.08,2.08,0,0,0-2-1.09,2.11,2.11,0,0,0-2.32,2.31,2.14,2.14,0,0,0,2.32,2.34,2.08,2.08,0,0,0,2-1.1Z"/><path class="cls-5" d="M88.48,79.1a.35.35,0,0,1,.14-.47A14.52,14.52,0,0,1,95,77.25c5.1,0,7.46,2.21,7.46,7v6.31A.42.42,0,0,1,102,91H98.32c-.23,0-.47-.17-.47-.36L97.64,90a8.2,8.2,0,0,1-5.07,1.39c-3.39,0-5.63-1.8-5.6-4.48,0-2.39,2.27-4,5.6-4,1.71,0,3.25.51,3.84,1.29v-1c0-1-.92-1.73-2.27-1.73a9.07,9.07,0,0,0-3.54.78.37.37,0,0,1-.44-.19Zm7.93,7.49A2.45,2.45,0,0,0,94.78,86c-.73,0-1.23.34-1.23.88s.5.88,1.23.88a2.45,2.45,0,0,0,1.63-.61Z"/><path class="cls-5" d="M110.91,74.74c0,1.43-1.3,2.41-3.24,2.41s-3.25-1-3.25-2.41,1.3-2.51,3.25-2.51S110.91,73.23,110.91,74.74Zm-.62,2.85a.42.42,0,0,1,.44.34V90.61a.41.41,0,0,1-.44.36H105.1a.42.42,0,0,1-.44-.36V77.93c0-.17.21-.34.44-.34Z"/><path class="cls-5" d="M117.43,78.61a7.83,7.83,0,0,1,4.74-1.36c4,0,6.19,1.53,6.19,5.33v8a.41.41,0,0,1-.44.36h-5.19c-.23,0-.44-.17-.41-.36V83.33a1.36,1.36,0,0,0-1.45-1.53,1.83,1.83,0,0,0-1.94,1.36v7.45a.42.42,0,0,1-.44.36H113.3a.41.41,0,0,1-.44-.36V77.93c0-.22.14-.34.41-.34h3.3a.49.49,0,0,1,.47.24Z"/></g></svg>