<svg xmlns="http://www.w3.org/2000/svg" width="170" height="200" viewBox="0 0 170 200"><defs><style>.cls-1{fill:#404241;}.cls-2{fill:#6e6f73;}.cls-3{fill:#ebb18b;}.cls-4{fill:#fff;}.cls-5{fill:#c38ea0;}.cls-6{fill:#a57688;}</style></defs><g id="Start_screen" data-name="Start screen"><g id="dogs-2" data-name="dogs"><polygon class="cls-1" points="21.33 141.39 42.15 178.97 59.29 174.44 65.21 173.67 71.58 171.45 66.76 134.66 21.33 137.02 21.33 141.39"/><path class="cls-2" d="M156.52,83.44c-.06-1.26-.28,0-.28,0-9.38-4.25-27.94-6.16-27.94-6.16C129,64.08,123.21,55.86,117,50.86A39.15,39.15,0,0,0,106.51,45l-.13,0a31.94,31.94,0,0,0-3.76-1.18l-.17,0c.36-3.32.77-6.38,1.2-9.17,0-.11,0-.23,0-.34a119,119,0,0,1,4.47-19.4,0,0,0,0,1,0,0,36.46,36.46,0,0,1,2.89-6.9c-5.35-4.31-18.16,27.46-19.9,31.87-.13.33-.21.5-.21.5L75.49,41.9l-6.07.64S62.24,9,50.76,10.17c-3.3.33-4.93,5-5.6,11.39-.89,8.56,0,20.33,1,29.37.68,6.33,1.42,11.33,1.68,13,.06.38.09.59.09.59C46.45,72.61,45,94.57,45,94.57c-24.74,15.51-39,60.7-40.12,64.49L6.45,175.3c3.89,16.6,35.69,22.16,35.69,22.16V185.93c.16.9.33,1.77.52,2.58v.07l0,.18c.46,1.93.94,3.45,1.1,3.92l0,.16c4.58,1.16,12.63,0,12.63,0,8.62-3.47,2.87-16.18,2.87-16.18l-.08-2.22-1.35-35.93h5.74s1.44,20.81,1.44,33.52a12.56,12.56,0,0,0,.1,1.64c1.14,11.66,14.45,17.87,18.56,14.55,4.31-3.47,11.49-10.41,11.49-10.41l-4.71-4.74h0l-4.64-4.68-3.28-3.3H79.47c2.88-9.24-4.3-32.37-4.3-32.37C76.6,129.25,78,108.44,78,108.44s5.84-.25,14.3-.9l4.16-.32,1.63-.14c2.3-.2,4.69-.41,7.16-.66,5.51-.54,11.36-1.22,17.06-2l.12,0c16.44-2.35,31.59-5.9,33.56-11.1a3.24,3.24,0,0,0,.21-1C156.54,86.8,156.57,84.4,156.52,83.44ZM45,179H42.14V152.38c0-8.1-10-6.94-10-6.94l-6.72,3.25-.46.22c.09-.18.2-.35.29-.52,8.62-15.54,21.25-9.88,21.25-9.88L45,178.21Z"/><path d="M68.71,68.56S73,58.15,78.76,67.4c0,0,1.44-4.21,0-5.57s-4.31-4.83-8.61-.21C70.15,61.62,67.27,65.09,68.71,68.56Z"/><path d="M111.79,68.56s4.3-10.41,10-1.16c0,0,1.43-4.21,0-5.57s-4.31-4.83-8.62-.21C113.22,61.62,110.35,65.09,111.79,68.56Z"/><path class="cls-3" d="M47.8,63.93,61.53,51.22S48.89,5.79,45.16,21.57C45.16,21.57,45.55,59.29,47.8,63.93Z"/><path class="cls-3" d="M102.45,43.7S114.94,47,117,50.86c0,0-2-57.6-6.87-39.73a6.13,6.13,0,0,1-1,2.1C107.84,14.83,105.13,20.89,102.45,43.7Z"/><path class="cls-4" d="M82.63,165.1l3.31-2.9s7.18-2.31,4.31,3.47l-4.34,2.72Z"/><path class="cls-4" d="M90.55,173.06,96,170.3s2.87-5.78-5.74-4.63l-4.34,2.72Z"/><path class="cls-4" d="M95.27,177.81l5-2.89s2.87-5.78-4.31-4.62l-5.44,2.76Z"/><path class="cls-4" d="M42,179.39h-5.1s-4.13,2.47.18,4.78H41.9Z"/><path class="cls-4" d="M42.67,188.57l-5.55.23s-5.74-2.32,0-4.63H41.9Z"/><path class="cls-4" d="M43.86,192.84H37.75s-4.94-1.73-.63-4l5.55-.23Z"/><path class="cls-5" d="M82.63,95.27s5.18,7.81,8.55,10.78,4.81,15.69,7.68,18,24.41,10.41,20.1-6.93C119,117.12,109.48,105.8,82.63,95.27Z"/><polygon class="cls-1" points="122.47 104.38 99.92 103.28 105.3 106.42 122.47 104.38"/><path d="M156.25,83.39s19.6,3.4-.23,9.89Z"/><polygon class="cls-4" points="97.43 33.87 95.99 55.84 90.25 50.86 86.79 55.84 84.5 50.06 78.76 52.37 78.76 47.89 70.4 50.86 76.17 44.86 74.45 37.34 83.91 38.42 83.91 32.66 92.56 41.08 97.43 33.87"/><path class="cls-6" d="M91.32,102.46s17.59,15.81,17.59,18.12c0,0,4.31,1.16,2.88-1.15S93.84,102.84,91.32,102.46Z"/></g></g></svg>