<svg xmlns="http://www.w3.org/2000/svg" width="205" height="205" viewBox="0 0 205 205"><defs><style>.cls-1{fill:#404241;}.cls-2{fill:#6e6f73;}.cls-3{fill:#ebb18b;}.cls-4{fill:#fff;}.cls-5{fill:#c38ea0;}.cls-6{fill:#a57688;}</style></defs><g id="Animated_items" data-name="Animated items"><g id="xoloitzcuincle"><polygon class="cls-1" points="51.3 141.09 72.79 179.46 90.49 174.83 96.6 174.05 103.18 171.78 98.2 134.22 51.3 136.62 51.3 141.09"/><path class="cls-2" d="M24.69,80s-21.57,36.93,9.56,79.43c0,0,14.82-49.58,41.5-66.11,0,0,1.49-22.42,3-30.69,0,0-8.89-54.3,3-55.48S101,40.16,101,40.16l22.24-2.36S138,0,143.94,4.75c0,0-5.93,9.44-8.89,36.59,0,0,28.16,5.91,26.68,34.24,0,0,19.17,2,28.85,6.29,0,0,.69-3.85,0,9.09s-80.73,16.49-80.73,16.49-1.48,21.25-3,24.79c0,0,7.42,23.61,4.45,33h3.26l13,13s-7.41,7.09-11.86,10.63-19.27-3.54-19.27-16.53S95,138.14,95,138.14H89.1l1.48,39s5.93,13-3,16.53c0,0-8.31,1.18-13,0,0,0-3.25-9.44-1.77-14.16h3l1.49-41.32S63.9,132.24,55,148.76l7.41-3.54s10.38-1.18,10.38,7.09v46s-34.09-5.9-37.06-23.61C35.73,174.73-24.16,116.81,24.69,80Z"/><path d="M100.21,66.72s4.45-10.62,10.38-1.18c0,0,1.48-4.3,0-5.69s-4.45-4.93-8.89-.21C101.7,59.64,98.73,63.18,100.21,66.72Z"/><path d="M144.68,66.72s4.45-10.62,10.38-1.18c0,0,1.48-4.3,0-5.69s-4.45-4.93-8.89-.21C146.17,59.64,143.2,63.18,144.68,66.72Z"/><path class="cls-3" d="M78.62,62,92.8,49s-13-46.38-16.9-30.27C75.9,18.75,76.31,57.27,78.62,62Z"/><path class="cls-3" d="M135.05,41.34s12.89,3.41,15,7.31c0,0-2.12-58.8-7.1-40.57a6.35,6.35,0,0,1-1.06,2.15C140.61,11.87,137.81,18.05,135.05,41.34Z"/><path class="cls-4" d="M114.59,165.29l3.41-2.95s7.41-2.36,4.45,3.54L118,168.66Z"/><path class="cls-4" d="M122.76,173.42l5.62-2.82s3-5.9-5.93-4.72L118,168.66Z"/><path class="cls-4" d="M127.64,178.27l5.19-3s3-5.9-4.45-4.72l-5.62,2.82Z"/><path class="cls-4" d="M72.68,179.89H67.42s-4.27,2.52.18,4.88h4.94Z"/><path class="cls-4" d="M73.33,189.26l-5.73.23s-5.93-2.36,0-4.72h4.94Z"/><path class="cls-4" d="M74.56,193.62H68.25s-5.1-1.77-.65-4.13l5.73-.23Z"/><path class="cls-5" d="M114.59,94s5.34,8,8.82,11,5,16,7.93,18.38,25.2,10.63,20.76-7.08C152.1,116.3,142.3,104.75,114.59,94Z"/><polygon class="cls-1" points="155.72 103.3 132.43 102.18 137.99 105.38 155.72 103.3"/><path d="M190.58,81.87s20.25,3.47-.23,10.1Z"/><polygon class="cls-4" points="129.86 31.31 128.38 53.74 122.45 48.65 118.88 53.74 116.52 47.84 110.59 50.2 110.59 45.62 101.96 48.65 107.92 42.52 106.14 34.85 115.91 35.95 115.91 30.07 124.83 38.67 129.86 31.31"/><path class="cls-6" d="M123.56,101.34s18.16,16.14,18.16,18.5c0,0,4.45,1.18,3-1.18S126.15,101.73,123.56,101.34Z"/></g></g></svg>