<svg xmlns="http://www.w3.org/2000/svg" width="153" height="125" viewBox="0 0 153 125"><defs><style>.cls-1{fill:#404241;}.cls-2{fill:#6e6f73;}.cls-3{fill:#ebb18b;}.cls-4{fill:#fff;}.cls-5{fill:#c38ea0;}.cls-6{fill:#a57688;}</style></defs><g id="Instructions"><g id="xoloitzcuincle-2" data-name="xoloitzcuincle"><polygon class="cls-1" points="42.03 84.64 57.1 107.7 69.51 104.92 73.8 104.45 78.41 103.09 74.92 80.52 42.03 81.96 42.03 84.64"/><path class="cls-2" d="M23.37,47.91S8.25,70.1,30.08,95.64c0,0,10.39-29.79,29.1-39.72,0,0,1-13.48,2.08-18.45,0,0-6.24-32.63,2.08-33.34S76.85,24,76.85,24l15.59-1.42S102.84-.12,107,2.71c0,0-4.15,5.68-6.23,22,0,0,19.75,3.55,18.71,20.58,0,0,13.44,1.17,20.23,3.77,0,0,.48-2.3,0,5.47s-56.61,9.91-56.61,9.91S82.05,77.2,81,79.32c0,0,5.2,14.19,3.12,19.87h2.28l9.15,7.8s-5.2,4.26-8.31,6.38-13.52-2.12-13.52-9.93-1-20.57-1-20.57H68.54l1,23.41s4.16,7.8-2.07,9.93c0,0-5.83.71-9.16,0,0,0-2.28-5.67-1.24-8.51h2.08l1-24.83s-9.36-3.55-15.59,6.39l5.2-2.13s7.27-.71,7.27,4.25v27.67s-23.91-3.55-26-14.19C31.12,104.86-10.88,70.05,23.37,47.91Z"/><path d="M76.33,40s3.12-6.39,7.28-.71c0,0,1-2.59,0-3.42s-3.12-3-6.24-.13C77.37,35.7,75.29,37.83,76.33,40Z"/><path d="M107.51,40s3.12-6.39,7.28-.71c0,0,1-2.59,0-3.42s-3.12-3-6.24-.13C108.55,35.7,106.48,37.83,107.51,40Z"/><path class="cls-3" d="M61.19,37.11l9.94-7.79S62,1.45,59.28,11.12C59.28,11.12,59.57,34.27,61.19,37.11Z"/><path class="cls-3" d="M100.76,24.7s9,2.05,10.49,4.4c0,0-1.48-35.34-5-24.38A3.63,3.63,0,0,1,105.53,6C104.66,7,102.69,10.71,100.76,24.7Z"/><path class="cls-4" d="M86.41,99.19l2.39-1.78S94,96,91.92,99.54l-3.14,1.67Z"/><path class="cls-4" d="M92.14,104.07l3.94-1.69s2.08-3.55-4.16-2.84l-3.14,1.67Z"/><path class="cls-4" d="M95.56,107l3.64-1.77s2.08-3.55-3.12-2.84l-3.94,1.69Z"/><path class="cls-4" d="M57,108h-3.7s-3,1.51.13,2.93h3.46Z"/><path class="cls-4" d="M57.48,113.59l-4,.14s-4.15-1.42,0-2.84h3.46Z"/><path class="cls-4" d="M58.34,116.21H53.92s-3.58-1.06-.46-2.48l4-.14Z"/><path class="cls-5" d="M86.41,56.35S90.16,61.13,92.6,63s3.48,9.63,5.56,11,17.67,6.39,14.55-4.25C112.71,69.75,105.84,62.81,86.41,56.35Z"/><polygon class="cls-1" points="115.25 61.93 98.92 61.26 102.82 63.19 115.25 61.93"/><path d="M139.7,49.05s14.19,2.09-.16,6.08Z"/><polygon class="cls-4" points="97.12 18.68 96.08 32.15 91.92 29.1 89.42 32.15 87.77 28.61 83.61 30.02 83.61 27.28 77.56 29.1 81.73 25.41 80.49 20.8 87.34 21.46 87.34 17.93 93.59 23.1 97.12 18.68"/><path class="cls-6" d="M92.7,60.76s12.74,9.7,12.74,11.12c0,0,3.11.71,2.07-.71S94.52,61,92.7,60.76Z"/></g></g></svg>