<svg xmlns="http://www.w3.org/2000/svg" width="156" height="98" viewBox="0 0 156 98"><defs><style>.cls-1{fill:#f8bc45;}.cls-2{fill:#62002d;}</style></defs><g id="Instructions"><g id="yellow-2" data-name="yellow"><path class="cls-1" d="M10.32,3.55s61.28,10.5,140.06,14c0,0,0,57.38-3.29,64.38,0,0,0,28-35,7,0,0-20.79,18.9-37.2-3.5,0,0-20.79,22.4-35-3.5,0,0-24.07,25.2-36.1-6.3C3.76,75.63,4.85,23.85,10.32,3.55Z"/><path class="cls-2" d="M76.42,54.64S68.31,42,54.09,44.14c0,0-15.32,3.5,4.38,16.1a86.62,86.62,0,0,0,13.13,9.1,8.92,8.92,0,0,0,10.94-1.4l10.94-7.7s16.41-12.6,5.47-14C99,46.24,88.91,42,76.42,54.64Z"/><path class="cls-2" d="M60.47,42.44s-3-4,.38-3.56S60.47,42.44,60.47,42.44Z"/><path class="cls-2" d="M53,43.09s-5.34-2.82-2-3.34S53,43.09,53,43.09Z"/><path class="cls-2" d="M47.4,52.54s-5.78,2.43-5.57.22S47.4,52.54,47.4,52.54Z"/><path class="cls-2" d="M52.59,58s-3.47,3.83-4.82,1.79S52.59,58,52.59,58Z"/><path class="cls-2" d="M57.92,62.73s-2.84,4-4.51,2.1S57.92,62.73,57.92,62.73Z"/><path class="cls-2" d="M63,67.29s-1.34,4.35-3.65,2.7S63,67.29,63,67.29Z"/><path class="cls-2" d="M74.75,72.39s2.39,4.15-.92,3.52S74.75,72.39,74.75,72.39Z"/><path class="cls-2" d="M85.68,70.5s6.28,1.86,3.23,2.91S85.68,70.5,85.68,70.5Z"/><path class="cls-2" d="M132.18,85.05s-1.85-4.26,1.37-3.46S132.18,85.05,132.18,85.05Z"/><path class="cls-2" d="M134.6,87.63s5.41-2.76,5.51-.55S134.6,87.63,134.6,87.63Z"/><path class="cls-2" d="M134.43,88.93s6.75,1,4.11,2.41S134.43,88.93,134.43,88.93Z"/><path class="cls-2" d="M130.77,89.83s4.22,3.51.76,3.54S130.77,89.83,130.77,89.83Z"/><path class="cls-2" d="M126.81,89.28s-2.68,4.08-4.43,2.17S126.81,89.28,126.81,89.28Z"/><path class="cls-2" d="M126.77,87.84s-6.92,0-4.85-1.77S126.77,87.84,126.77,87.84Z"/><path class="cls-2" d="M128.48,85.39s-6.71-1.09-4-2.48S128.48,85.39,128.48,85.39Z"/><path class="cls-2" d="M95.59,85.66s-2.68-4.08.68-3.54S95.59,85.66,95.59,85.66Z"/><path class="cls-2" d="M98.5,88s4.82-3.18,5.36-1S98.5,88,98.5,88Z"/><path class="cls-2" d="M98.59,89.32s6.88.43,4.55,2.06S98.59,89.32,98.59,89.32Z"/><path class="cls-2" d="M95.14,90.52S100,93.65,96.6,94,95.14,90.52,95.14,90.52Z"/><path class="cls-2" d="M91.11,90.29s-1.86,4.27-4,2.51S91.11,90.29,91.11,90.29Z"/><path class="cls-2" d="M90.78,88.87s-6.87.56-5.16-1.37S90.78,88.87,90.78,88.87Z"/><path class="cls-2" d="M92,86.29s-6.87-.53-4.48-2.13S92,86.29,92,86.29Z"/><path class="cls-2" d="M56.92,82.8S52,79.67,55.47,79.36,56.92,82.8,56.92,82.8Z"/><path class="cls-2" d="M61,84.29s2.59-4.11,4.38-2.21S61,84.29,61,84.29Z"/><path class="cls-2" d="M61.86,85.47s6.63-1.27,5.43.81S61.86,85.47,61.86,85.47Z"/><path class="cls-2" d="M59.37,87.41s6.37,1.73,3.38,2.84S59.37,87.41,59.37,87.41Z"/><path class="cls-2" d="M55.5,88.17s.8,4.4-2.19,3.29S55.5,88.17,55.5,88.17Z"/><path class="cls-2" d="M54.35,86.93s-6,2.18-5.57,0S54.35,86.93,54.35,86.93Z"/><path class="cls-2" d="M54,84.26s-6.68,1.16-5.4-.9S54,84.26,54,84.26Z"/><path class="cls-2" d="M20.4,80.44S14,78.72,17,77.61,20.4,80.44,20.4,80.44Z"/><path class="cls-2" d="M25.05,80.83s0-4.43,2.75-3.11S25.05,80.83,25.05,80.83Z"/><path class="cls-2" d="M26.54,81.72s5.39-2.78,5.51-.56S26.54,81.72,26.54,81.72Z"/><path class="cls-2" d="M25.38,84.12s6.92,0,4.81,1.81S25.38,84.12,25.38,84.12Z"/><path class="cls-2" d="M22.25,85.76s3.34,3.88-.09,3.57S22.25,85.76,22.25,85.76Z"/><path class="cls-2" d="M20.46,84.89s-4.3,3.47-5.18,1.33S20.46,84.89,20.46,84.89Z"/><path class="cls-2" d="M18.51,82.51S13,85.2,13,83,18.51,82.51,18.51,82.51Z"/><path class="cls-2" d="M92.24,65.6s6.28,1.86,3.24,2.91S92.24,65.6,92.24,65.6Z"/><path class="cls-2" d="M98,60.48s6.92.2,4.72,1.91S98,60.48,98,60.48Z"/><path class="cls-2" d="M102.9,55s6.27-1.87,5.56.29S102.9,55,102.9,55Z"/><path class="cls-2" d="M105.17,49.54s4.34-3.45,5.2-1.3S105.17,49.54,105.17,49.54Z"/><path class="cls-2" d="M100.28,45.12s-1.43-4.33,1.7-3.39S100.28,45.12,100.28,45.12Z"/><path class="cls-2" d="M92.08,44.53s-4.89-3.13-1.47-3.44S92.08,44.53,92.08,44.53Z"/><path class="cls-2" d="M47.72,46.07s-6.84-.65-4.38-2.21S47.72,46.07,47.72,46.07Z"/><path class="cls-2" d="M79.25,23.15s2.19,4.2-4.37,6.65c0,0-13.95,7,.68,16.27,0,0,16.82-8.22,10.26-14.52Z"/><path class="cls-1" d="M78.11,33s-8.43,2.9-2.55,9.49C75.56,42.44,84.62,38.54,78.11,33Z"/><path class="cls-2" d="M50.08,68.83s-16,.21-18-10.84c0,0,.62-8.55,5.86,0S39.51,63.42,50.08,68.83Z"/><path class="cls-2" d="M36.72,67.61s-12.47,4.16-21.21-4.55c0,0-5-7.29,4.62-1.46S24.9,65.73,36.72,67.61Z"/><path class="cls-2" d="M49.11,71.29s-7,6.54-19.08,2.25c0,0-8.36-4.2,2.64-2.36S38.88,73.05,49.11,71.29Z"/><path class="cls-2" d="M57.82,16.45S47.6,9.93,40.29,13.05c0,0-4.24,3.3,3.78,2.36S48.06,14.12,57.82,16.45Z"/><path class="cls-2" d="M44.12,18.68s-17.24-2.77-22.39,4.88c0,0-1.6,6.27,6.34,1S31.25,20.85,44.12,18.68Z"/><path class="cls-2" d="M58.38,19.67S42,18.66,38.66,29c0,0-.34,8.12,6,.3S46.93,24.24,58.38,19.67Z"/><path class="cls-2" d="M104.28,19.36a17.15,17.15,0,0,1,16.66,1s5.71,4.77-2.93,1.57S113.38,19.44,104.28,19.36Z"/><path class="cls-2" d="M112.59,25.52s15.53-1.39,19.63,10.06c0,0,1,9-5.7.43S123.92,30.42,112.59,25.52Z"/><path class="cls-2" d="M101.06,21.09S116.83,24.41,112.69,36c0,0-5.36,8.48-5.74-1.3S108.4,28.87,101.06,21.09Z"/><path class="cls-2" d="M99.69,73.79a18.44,18.44,0,0,0,17.81,3.84s7.27-3.48-2.68-2.57S109.29,76.4,99.69,73.79Z"/><path class="cls-2" d="M112.66,70.73s14.06,4.82,22.45-2.76c0,0,4.54-6.51-5.2-1.71S125.25,69.81,112.66,70.73Z"/><path class="cls-2" d="M98.12,70.17s17,2.09,22.2-9.14c0,0,1.72-8.94-6.23-.68S110.87,65.8,98.12,70.17Z"/><ellipse class="cls-2" cx="28.92" cy="36.45" rx="3.28" ry="2.1"/><ellipse class="cls-2" cx="24.55" cy="44.84" rx="3.28" ry="2.1"/><ellipse class="cls-2" cx="23.45" cy="51.84" rx="3.28" ry="2.1"/><ellipse class="cls-2" cx="128.49" cy="44.14" rx="3.28" ry="2.1"/><ellipse class="cls-2" cx="128.49" cy="51.84" rx="3.28" ry="2.1"/><ellipse class="cls-2" cx="69.41" cy="18.25" rx="3.28" ry="2.1"/><ellipse class="cls-2" cx="80.35" cy="18.25" rx="3.28" ry="2.1"/><ellipse class="cls-2" cx="91.29" cy="20.35" rx="3.28" ry="2.1"/><ellipse class="cls-2" cx="22.36" cy="82.63" rx="2.19" ry="1.4"/><ellipse class="cls-2" cx="57.37" cy="86.13" rx="2.19" ry="1.4"/><ellipse class="cls-2" cx="94.57" cy="88.93" rx="2.19" ry="1.4"/><ellipse class="cls-2" cx="130.68" cy="87.53" rx="2.19" ry="1.4"/><ellipse class="cls-2" cx="125.21" cy="63.04" rx="3.28" ry="2.1"/></g></g></svg>